 0 
SECTION
 2 
HEADER
 9 
$LUNITS
 70 
 2 
 0 
ENDSEC
 0 
SECTION
 2 
TABLES
 0 
TABLE
 2 
LTYPE
 70 
 1 
 0 
LTYPE
 2 
CONTINUOUS
 70 
 0 
 3 
Solid line
 72 
 65 
 73 
 0 
 40 
 0 
 0 
ENDTAB
 0 
TABLE
 2 
LAYER
 70 
 0 
 0 
LAYER
 2 
TemplateLayer
 62 
 7 
 6 
CONTINUOUS
 70 
 0 
 0 
ENDTAB
 0 
ENDSEC
 0 
SECTION
 2 
BLOCKS
 0 
BLOCK
 8 
TemplateLayer
 2 
Template
 70 
 0 
 10 
 0 
 20 
 0 
 30 
 0 
 0 
LINE
 8 
TemplateLayer
 6 
CONTINUOUS
 10 
-6.81817988831193 
 20 
 34.1520068034163 
 30 
 0 
 11 
-3.40908889125978 
 21 
 34.8559879607553 
 31 
 0 
 62 
 7 
 0 
LINE
 8 
TemplateLayer
 6 
CONTINUOUS
 10 
-3.40908889125978 
 20 
 34.8559879607553 
 30 
 0 
 11 
 2.10504436946868E-06 
 21 
 35.1432357056242 
 31 
 0 
 62 
 7 
 0 
LINE
 8 
TemplateLayer
 6 
CONTINUOUS
 10 
 2.10504436946868E-06 
 20 
 35.1432357056242 
 30 
 0 
 11 
 3.40909310024086 
 21 
 34.8133679177204 
 31 
 0 
 62 
 7 
 0 
LINE
 8 
TemplateLayer
 6 
CONTINUOUS
 10 
 3.40909310024086 
 20 
 34.8133679177204 
 30 
 0 
 11 
 6.76573563918635 
 21 
 34.0909118652344 
 31 
 0 
 62 
 7 
 0 
LINE
 8 
TemplateLayer
 6 
CONTINUOUS
 10 
 6.76573563918635 
 20 
 34.0909118652344 
 30 
 0 
 11 
 6.81818409471837 
 21 
 34.0829279104443 
 31 
 0 
 62 
 7 
 0 
LINE
 8 
TemplateLayer
 6 
CONTINUOUS
 10 
 6.81818409471837 
 20 
 34.0829279104443 
 30 
 0 
 11 
 10.2272750889579 
 21 
 33.2199078815859 
 31 
 0 
 62 
 7 
 0 
LINE
 8 
TemplateLayer
 6 
CONTINUOUS
 10 
 10.2272750889579 
 20 
 33.2199078815859 
 30 
 0 
 11 
 13.6363660821614 
 21 
 31.7796633676629 
 31 
 0 
 62 
 7 
 0 
LINE
 8 
TemplateLayer
 6 
CONTINUOUS
 10 
 13.6363660821614 
 20 
 31.7796633676629 
 30 
 0 
 11 
 15.5414460349344 
 21 
 30.6818208694458 
 31 
 0 
 62 
 7 
 0 
LINE
 8 
TemplateLayer
 6 
CONTINUOUS
 10 
 15.5414460349344 
 20 
 30.6818208694458 
 30 
 0 
 11 
 17.0454570745674 
 21 
 29.8951075026077 
 31 
 0 
 62 
 7 
 0 
LINE
 8 
TemplateLayer
 6 
CONTINUOUS
 10 
 17.0454570745674 
 20 
 29.8951075026077 
 30 
 0 
 11 
 20.3488399856143 
 21 
 27.2727298736572 
 31 
 0 
 62 
 7 
 0 
LINE
 8 
TemplateLayer
 6 
CONTINUOUS
 10 
 20.3488399856143 
 20 
 27.2727298736572 
 30 
 0 
 11 
 20.4545480655003 
 21 
 27.1898341800745 
 31 
 0 
 62 
 7 
 0 
LINE
 8 
TemplateLayer
 6 
CONTINUOUS
 10 
 20.4545480655003 
 20 
 27.1898341800745 
 30 
 0 
 11 
 23.8216810820301 
 21 
 23.8636388778687 
 31 
 0 
 62 
 7 
 0 
LINE
 8 
TemplateLayer
 6 
CONTINUOUS
 10 
 23.8216810820301 
 20 
 23.8636388778687 
 30 
 0 
 11 
 23.8636390552325 
 21 
 23.8156235999067 
 31 
 0 
 62 
 7 
 0 
LINE
 8 
TemplateLayer
 6 
CONTINUOUS
 10 
 23.8636390552325 
 20 
 23.8156235999067 
 30 
 0 
 11 
 26.5449465178613 
 21 
 20.4545478820801 
 31 
 0 
 62 
 7 
 0 
LINE
 8 
TemplateLayer
 6 
CONTINUOUS
 10 
 26.5449465178613 
 20 
 20.4545478820801 
 30 
 0 
 11 
 27.2727300427632 
 21 
 19.2148783185845 
 31 
 0 
 62 
 7 
 0 
LINE
 8 
TemplateLayer
 6 
CONTINUOUS
 10 
 27.2727300427632 
 20 
 19.2148783185845 
 30 
 0 
 11 
 28.6343189007269 
 21 
 17.0454568862915 
 31 
 0 
 62 
 7 
 0 
LINE
 8 
TemplateLayer
 6 
CONTINUOUS
 10 
 28.6343189007269 
 20 
 17.0454568862915 
 30 
 0 
 11 
 30.1071679596602 
 21 
 13.6363658905029 
 31 
 0 
 62 
 7 
 0 
LINE
 8 
TemplateLayer
 6 
CONTINUOUS
 10 
 30.1071679596602 
 20 
 13.6363658905029 
 30 
 0 
 11 
 30.6818210248576 
 21 
 11.5853683746246 
 31 
 0 
 62 
 7 
 0 
LINE
 8 
TemplateLayer
 6 
CONTINUOUS
 10 
 30.6818210248576 
 20 
 11.5853683746246 
 30 
 0 
 11 
 31.1731312678502 
 21 
 10.2272748947144 
 31 
 0 
 62 
 7 
 0 
LINE
 8 
TemplateLayer
 6 
CONTINUOUS
 10 
 31.1731312678502 
 20 
 10.2272748947144 
 30 
 0 
 11 
 32.0314353407629 
 21 
 6.81818389892578 
 31 
 0 
 62 
 7 
 0 
LINE
 8 
TemplateLayer
 6 
CONTINUOUS
 10 
 32.0314353407629 
 20 
 6.81818389892578 
 30 
 0 
 11 
 32.5120470555675 
 21 
 3.40909290313721 
 31 
 0 
 62 
 7 
 0 
LINE
 8 
TemplateLayer
 6 
CONTINUOUS
 10 
 32.5120470555675 
 20 
 3.40909290313721 
 30 
 0 
 11 
 32.5740580633234 
 21 
 1.9073486328125E-06 
 31 
 0 
 62 
 7 
 0 
LINE
 8 
TemplateLayer
 6 
CONTINUOUS
 10 
 32.5740580633234 
 20 
 1.9073486328125E-06 
 30 
 0 
 11 
 32.6023269529032 
 21 
-3.40908908843994 
 31 
 0 
 62 
 7 
 0 
LINE
 8 
TemplateLayer
 6 
CONTINUOUS
 10 
 32.6023269529032 
 20 
-3.40908908843994 
 30 
 0 
 11 
 32.2252400783346 
 21 
-6.81818008422852 
 31 
 0 
 62 
 7 
 0 
LINE
 8 
TemplateLayer
 6 
CONTINUOUS
 10 
 32.2252400783346 
 20 
-6.81818008422852 
 30 
 0 
 11 
 31.4833918198177 
 21 
-10.2272710800171 
 31 
 0 
 62 
 7 
 0 
LINE
 8 
TemplateLayer
 6 
CONTINUOUS
 10 
 31.4833918198177 
 20 
-10.2272710800171 
 30 
 0 
 11 
 30.6818209814739 
 21 
-12.5852249975289 
 31 
 0 
 62 
 7 
 0 
LINE
 8 
TemplateLayer
 6 
CONTINUOUS
 10 
 30.6818209814739 
 20 
-12.5852249975289 
 30 
 0 
 11 
 30.4082060655194 
 21 
-13.6363620758057 
 31 
 0 
 62 
 7 
 0 
LINE
 8 
TemplateLayer
 6 
CONTINUOUS
 10 
 30.4082060655194 
 20 
-13.6363620758057 
 30 
 0 
 11 
 29.1000812079563 
 21 
-17.0454530715942 
 31 
 0 
 62 
 7 
 0 
LINE
 8 
TemplateLayer
 6 
CONTINUOUS
 10 
 29.1000812079563 
 20 
-17.0454530715942 
 30 
 0 
 11 
 27.2727299724827 
 21 
-19.9408449793256 
 31 
 0 
 62 
 7 
 0 
LINE
 8 
TemplateLayer
 6 
CONTINUOUS
 10 
 27.2727299724827 
 20 
-19.9408449793256 
 30 
 0 
 11 
 26.9678515624629 
 21 
-20.4545440673828 
 31 
 0 
 62 
 7 
 0 
LINE
 8 
TemplateLayer
 6 
CONTINUOUS
 10 
 26.9678515624629 
 20 
-20.4545440673828 
 30 
 0 
 11 
 24.3789665981864 
 21 
-23.8636350631714 
 31 
 0 
 62 
 7 
 0 
LINE
 8 
TemplateLayer
 6 
CONTINUOUS
 10 
 24.3789665981864 
 20 
-23.8636350631714 
 30 
 0 
 11 
 23.8636389686333 
 21 
-24.4318167148932 
 31 
 0 
 62 
 7 
 0 
LINE
 8 
TemplateLayer
 6 
CONTINUOUS
 10 
 23.8636389686333 
 20 
-24.4318167148932 
 30 
 0 
 11 
 20.771672189534 
 21 
-27.27272605896 
 31 
 0 
 62 
 7 
 0 
LINE
 8 
TemplateLayer
 6 
CONTINUOUS
 10 
 20.771672189534 
 20 
-27.27272605896 
 30 
 0 
 11 
 20.4545479672521 
 21 
-27.5476523391921 
 31 
 0 
 62 
 7 
 0 
LINE
 8 
TemplateLayer
 6 
CONTINUOUS
 10 
 20.4545479672521 
 20 
-27.5476523391921 
 30 
 0 
 11 
 17.0454569669638 
 21 
-30.0546251142556 
 31 
 0 
 62 
 7 
 0 
LINE
 8 
TemplateLayer
 6 
CONTINUOUS
 10 
 17.0454569669638 
 20 
-30.0546251142556 
 30 
 0 
 11 
 15.7161258254375 
 21 
-30.6818170547485 
 31 
 0 
 62 
 7 
 0 
LINE
 8 
TemplateLayer
 6 
CONTINUOUS
 10 
 15.7161258254375 
 20 
-30.6818170547485 
 30 
 0 
 11 
 13.6363659680776 
 21 
-31.7804277014314 
 31 
 0 
 62 
 7 
 0 
LINE
 8 
TemplateLayer
 6 
CONTINUOUS
 10 
 13.6363659680776 
 20 
-31.7804277014314 
 30 
 0 
 11 
 10.2272749699575 
 21 
-33.0794190762452 
 31 
 0 
 62 
 7 
 0 
LINE
 8 
TemplateLayer
 6 
CONTINUOUS
 10 
 10.2272749699575 
 20 
-33.0794190762452 
 30 
 0 
 11 
 6.81818397283074 
 21 
-33.8249503031199 
 31 
 0 
 62 
 7 
 0 
LINE
 8 
TemplateLayer
 6 
CONTINUOUS
 10 
 6.81818397283074 
 20 
-33.8249503031199 
 30 
 0 
 11 
 4.42456677522125 
 21 
-34.0909080505371 
 31 
 0 
 62 
 7 
 0 
LINE
 8 
TemplateLayer
 6 
CONTINUOUS
 10 
 4.42456677522125 
 20 
-34.0909080505371 
 30 
 0 
 11 
 3.40909297627042 
 21 
-34.2549194541659 
 31 
 0 
 62 
 7 
 0 
LINE
 8 
TemplateLayer
 6 
CONTINUOUS
 10 
 3.40909297627042 
 20 
-34.2549194541659 
 30 
 0 
 11 
 1.98021428333278E-06 
 21 
-34.4039878887586 
 31 
 0 
 62 
 7 
 0 
LINE
 8 
TemplateLayer
 6 
CONTINUOUS
 10 
 1.98021428333278E-06 
 20 
-34.4039878887586 
 30 
 0 
 11 
-3.40908901538954 
 21 
-34.3010575550619 
 31 
 0 
 62 
 7 
 0 
LINE
 8 
TemplateLayer
 6 
CONTINUOUS
 10 
-3.40908901538954 
 20 
-34.3010575550619 
 30 
 0 
 11 
-4.80371767444047 
 21 
-34.0909080505371 
 31 
 0 
 62 
 7 
 0 
LINE
 8 
TemplateLayer
 6 
CONTINUOUS
 10 
-4.80371767444047 
 20 
-34.0909080505371 
 30 
 0 
 11 
-6.81818001042746 
 21 
-33.8828415115267 
 31 
 0 
 62 
 7 
 0 
LINE
 8 
TemplateLayer
 6 
CONTINUOUS
 10 
-6.81818001042746 
 20 
-33.8828415115267 
 30 
 0 
 11 
-10.2272710049434 
 21 
-33.1737882350523 
 31 
 0 
 62 
 7 
 0 
LINE
 8 
TemplateLayer
 6 
CONTINUOUS
 10 
-10.2272710049434 
 20 
-33.1737882350523 
 30 
 0 
 11 
-13.6363619984659 
 21 
-31.9113251871733 
 31 
 0 
 62 
 7 
 0 
LINE
 8 
TemplateLayer
 6 
CONTINUOUS
 10 
-13.6363619984659 
 20 
-31.9113251871733 
 30 
 0 
 11 
-15.9801116589934 
 21 
-30.6818170547485 
 31 
 0 
 62 
 7 
 0 
LINE
 8 
TemplateLayer
 6 
CONTINUOUS
 10 
-15.9801116589934 
 20 
-30.6818170547485 
 30 
 0 
 11 
-17.0454529911583 
 21 
-30.1863093935869 
 31 
 0 
 62 
 7 
 0 
LINE
 8 
TemplateLayer
 6 
CONTINUOUS
 10 
-17.0454529911583 
 20 
-30.1863093935869 
 30 
 0 
 11 
-20.4545439826771 
 21 
-27.807485528502 
 31 
 0 
 62 
 7 
 0 
LINE
 8 
TemplateLayer
 6 
CONTINUOUS
 10 
-20.4545439826771 
 20 
-27.807485528502 
 30 
 0 
 11 
-21.0858572161902 
 21 
-27.27272605896 
 31 
 0 
 62 
 7 
 0 
LINE
 8 
TemplateLayer
 6 
CONTINUOUS
 10 
-21.0858572161902 
 20 
-27.27272605896 
 30 
 0 
 11 
-23.863634973074 
 21 
-24.803590365756 
 31 
 0 
 62 
 7 
 0 
LINE
 8 
TemplateLayer
 6 
CONTINUOUS
 10 
-23.863634973074 
 20 
-24.803590365756 
 30 
 0 
 11 
-24.73876575184 
 21 
-23.8636350631714 
 31 
 0 
 62 
 7 
 0 
LINE
 8 
TemplateLayer
 6 
CONTINUOUS
 10 
-24.73876575184 
 20 
-23.8636350631714 
 30 
 0 
 11 
-27.24537984831 
 21 
-20.4545440673828 
 31 
 0 
 62 
 7 
 0 
LINE
 8 
TemplateLayer
 6 
CONTINUOUS
 10 
-27.24537984831 
 20 
-20.4545440673828 
 30 
 0 
 11 
-27.2727259609756 
 21 
-20.4094892471907 
 31 
 0 
 62 
 7 
 0 
LINE
 8 
TemplateLayer
 6 
CONTINUOUS
 10 
-27.2727259609756 
 20 
-20.4094892471907 
 30 
 0 
 11 
-29.4298906072281 
 21 
-17.0454530715942 
 31 
 0 
 62 
 7 
 0 
LINE
 8 
TemplateLayer
 6 
CONTINUOUS
 10 
-29.4298906072281 
 20 
-17.0454530715942 
 30 
 0 
 11 
-30.6818169446071 
 21 
-13.6363620758057 
 31 
 0 
 62 
 7 
 0 
LINE
 8 
TemplateLayer
 6 
CONTINUOUS
 10 
-30.6818169446071 
 20 
-13.6363620758057 
 30 
 0 
 11 
-31.8740673603481 
 21 
-10.2272710800171 
 31 
 0 
 62 
 7 
 0 
LINE
 8 
TemplateLayer
 6 
CONTINUOUS
 10 
-31.8740673603481 
 20 
-10.2272710800171 
 30 
 0 
 11 
-32.5912354729354 
 21 
-6.81818008422852 
 31 
 0 
 62 
 7 
 0 
LINE
 8 
TemplateLayer
 6 
CONTINUOUS
 10 
-32.5912354729354 
 20 
-6.81818008422852 
 30 
 0 
 11 
-32.9444875831036 
 21 
-3.40908908843994 
 31 
 0 
 62 
 7 
 0 
LINE
 8 
TemplateLayer
 6 
CONTINUOUS
 10 
-32.9444875831036 
 20 
-3.40908908843994 
 30 
 0 
 11 
-32.9195021721946 
 21 
 1.9073486328125E-06 
 31 
 0 
 62 
 7 
 0 
LINE
 8 
TemplateLayer
 6 
CONTINUOUS
 10 
-32.9195021721946 
 20 
 1.9073486328125E-06 
 30 
 0 
 11 
-32.8163379893911 
 21 
 3.40909290313721 
 31 
 0 
 62 
 7 
 0 
LINE
 8 
TemplateLayer
 6 
CONTINUOUS
 10 
-32.8163379893911 
 20 
 3.40909290313721 
 30 
 0 
 11 
-32.3096575107239 
 21 
 6.81818389892578 
 31 
 0 
 62 
 7 
 0 
LINE
 8 
TemplateLayer
 6 
CONTINUOUS
 10 
-32.3096575107239 
 20 
 6.81818389892578 
 30 
 0 
 11 
-31.4512973184905 
 21 
 10.2272748947144 
 31 
 0 
 62 
 7 
 0 
LINE
 8 
TemplateLayer
 6 
CONTINUOUS
 10 
-31.4512973184905 
 20 
 10.2272748947144 
 30 
 0 
 11 
-30.6818168979978 
 21 
 12.3313230421419 
 31 
 0 
 62 
 7 
 0 
LINE
 8 
TemplateLayer
 6 
CONTINUOUS
 10 
-30.6818168979978 
 20 
 12.3313230421419 
 30 
 0 
 11 
-30.3081133054542 
 21 
 13.6363658905029 
 31 
 0 
 62 
 7 
 0 
LINE
 8 
TemplateLayer
 6 
CONTINUOUS
 10 
-30.3081133054542 
 20 
 13.6363658905029 
 30 
 0 
 11 
-28.8912850837324 
 21 
 17.0454568862915 
 31 
 0 
 62 
 7 
 0 
LINE
 8 
TemplateLayer
 6 
CONTINUOUS
 10 
-28.8912850837324 
 20 
 17.0454568862915 
 30 
 0 
 11 
-27.2727258891515 
 21 
 19.606276184107 
 31 
 0 
 62 
 7 
 0 
LINE
 8 
TemplateLayer
 6 
CONTINUOUS
 10 
-27.2727258891515 
 20 
 19.606276184107 
 30 
 0 
 11 
-26.7722220928435 
 21 
 20.4545478820801 
 31 
 0 
 62 
 7 
 0 
LINE
 8 
TemplateLayer
 6 
CONTINUOUS
 10 
-26.7722220928435 
 20 
 20.4545478820801 
 30 
 0 
 11 
-24.1071414574152 
 21 
 23.8636388778687 
 31 
 0 
 62 
 7 
 0 
LINE
 8 
TemplateLayer
 6 
CONTINUOUS
 10 
-24.1071414574152 
 20 
 23.8636388778687 
 30 
 0 
 11 
-23.8636348852362 
 21 
 24.1339633233025 
 31 
 0 
 62 
 7 
 0 
LINE
 8 
TemplateLayer
 6 
CONTINUOUS
 10 
-23.8636348852362 
 20 
 24.1339633233025 
 30 
 0 
 11 
-20.5496805596594 
 21 
 27.2727298736572 
 31 
 0 
 62 
 7 
 0 
LINE
 8 
TemplateLayer
 6 
CONTINUOUS
 10 
-20.5496805596594 
 20 
 27.2727298736572 
 30 
 0 
 11 
-20.4545438836627 
 21 
 27.3569043147534 
 31 
 0 
 62 
 7 
 0 
LINE
 8 
TemplateLayer
 6 
CONTINUOUS
 10 
-20.4545438836627 
 20 
 27.3569043147534 
 30 
 0 
 11 
-17.0454528831634 
 21 
 29.9814636515397 
 31 
 0 
 62 
 7 
 0 
LINE
 8 
TemplateLayer
 6 
CONTINUOUS
 10 
-17.0454528831634 
 20 
 29.9814636515397 
 30 
 0 
 11 
-15.6976721026157 
 21 
 30.6818208694458 
 31 
 0 
 62 
 7 
 0 
LINE
 8 
TemplateLayer
 6 
CONTINUOUS
 10 
-15.6976721026157 
 20 
 30.6818208694458 
 30 
 0 
 11 
-13.6363618839822 
 21 
 31.8715705183548 
 31 
 0 
 62 
 7 
 0 
LINE
 8 
TemplateLayer
 6 
CONTINUOUS
 10 
-13.6363618839822 
 20 
 31.8715705183548 
 30 
 0 
 11 
-10.2272708856351 
 21 
 33.2970138953771 
 31 
 0 
 62 
 7 
 0 
LINE
 8 
TemplateLayer
 6 
CONTINUOUS
 10 
-10.2272708856351 
 20 
 33.2970138953771 
 30 
 0 
 11 
-7.00757414620858 
 21 
 34.0909118652344 
 31 
 0 
 62 
 7 
 0 
LINE
 8 
TemplateLayer
 6 
CONTINUOUS
 10 
-7.00757414620858 
 20 
 34.0909118652344 
 30 
 0 
 11 
-6.81817988831193 
 21 
 34.1520068034163 
 31 
 0 
 62 
 7 
 0 
LINE
 8 
TemplateLayer
 6 
CONTINUOUS
 10 
-27.5542105752849 
 20 
-3.40908908843994 
 30 
 0 
 11 
-27.6331772705114 
 21 
 1.9073486328125E-06 
 31 
 0 
 62 
 1 
 0 
LINE
 8 
TemplateLayer
 6 
CONTINUOUS
 10 
-27.6331772705114 
 20 
 1.9073486328125E-06 
 30 
 0 
 11 
-27.3868185500971 
 21 
 3.40909290313721 
 31 
 0 
 62 
 1 
 0 
LINE
 8 
TemplateLayer
 6 
CONTINUOUS
 10 
-27.3868185500971 
 20 
 3.40909290313721 
 30 
 0 
 11 
-27.2727259173132 
 21 
 3.91639758888277 
 31 
 0 
 62 
 1 
 0 
LINE
 8 
TemplateLayer
 6 
CONTINUOUS
 10 
-27.2727259173132 
 20 
 3.91639758888277 
 30 
 0 
 11 
-26.8609859577716 
 21 
 6.81818389892578 
 31 
 0 
 62 
 1 
 0 
LINE
 8 
TemplateLayer
 6 
CONTINUOUS
 10 
-26.8609859577716 
 20 
 6.81818389892578 
 30 
 0 
 11 
-25.9884043699357 
 21 
 10.2272748947144 
 31 
 0 
 62 
 1 
 0 
LINE
 8 
TemplateLayer
 6 
CONTINUOUS
 10 
-25.9884043699357 
 20 
 10.2272748947144 
 30 
 0 
 11 
-24.3740355171764 
 21 
 13.6363658905029 
 31 
 0 
 62 
 1 
 0 
LINE
 8 
TemplateLayer
 6 
CONTINUOUS
 10 
-24.3740355171764 
 20 
 13.6363658905029 
 30 
 0 
 11 
-23.8636349025838 
 21 
 14.4690009807487 
 31 
 0 
 62 
 1 
 0 
LINE
 8 
TemplateLayer
 6 
CONTINUOUS
 10 
-23.8636349025838 
 20 
 14.4690009807487 
 30 
 0 
 11 
-22.4019590809489 
 21 
 17.0454568862915 
 31 
 0 
 62 
 1 
 0 
LINE
 8 
TemplateLayer
 6 
CONTINUOUS
 10 
-22.4019590809489 
 20 
 17.0454568862915 
 30 
 0 
 11 
-20.4545438978923 
 21 
 19.4290930205432 
 31 
 0 
 62 
 1 
 0 
LINE
 8 
TemplateLayer
 6 
CONTINUOUS
 10 
-20.4545438978923 
 20 
 19.4290930205432 
 30 
 0 
 11 
-19.5050485868132 
 21 
 20.4545478820801 
 31 
 0 
 62 
 1 
 0 
LINE
 8 
TemplateLayer
 6 
CONTINUOUS
 10 
-19.5050485868132 
 20 
 20.4545478820801 
 30 
 0 
 11 
-17.0454528961867 
 21 
 22.7257206529296 
 31 
 0 
 62 
 1 
 0 
LINE
 8 
TemplateLayer
 6 
CONTINUOUS
 10 
-17.0454528961867 
 20 
 22.7257206529296 
 30 
 0 
 11 
-15.3684000242731 
 21 
 23.8636388778687 
 31 
 0 
 62 
 1 
 0 
LINE
 8 
TemplateLayer
 6 
CONTINUOUS
 10 
-15.3684000242731 
 20 
 23.8636388778687 
 30 
 0 
 11 
-13.6363618961497 
 21 
 25.0926672759661 
 31 
 0 
 62 
 1 
 0 
LINE
 8 
TemplateLayer
 6 
CONTINUOUS
 10 
-13.6363618961497 
 20 
 25.0926672759661 
 30 
 0 
 11 
-10.2272708973614 
 21 
 26.7639103382133 
 31 
 0 
 62 
 1 
 0 
LINE
 8 
TemplateLayer
 6 
CONTINUOUS
 10 
-10.2272708973614 
 20 
 26.7639103382133 
 30 
 0 
 11 
-8.47901929458569 
 21 
 27.2727298736572 
 31 
 0 
 62 
 1 
 0 
LINE
 8 
TemplateLayer
 6 
CONTINUOUS
 10 
-8.47901929458569 
 20 
 27.2727298736572 
 30 
 0 
 11 
-6.81817989949359 
 21 
 27.922313153554 
 31 
 0 
 62 
 1 
 0 
LINE
 8 
TemplateLayer
 6 
CONTINUOUS
 10 
-6.81817989949359 
 20 
 27.922313153554 
 30 
 0 
 11 
-3.40908890229085 
 21 
 28.7101934144498 
 31 
 0 
 62 
 1 
 0 
LINE
 8 
TemplateLayer
 6 
CONTINUOUS
 10 
-3.40908890229085 
 20 
 28.7101934144498 
 30 
 0 
 11 
 2.09400300307111E-06 
 21 
 28.9917028353763 
 31 
 0 
 62 
 1 
 0 
LINE
 8 
TemplateLayer
 6 
CONTINUOUS
 10 
 2.09400300307111E-06 
 20 
 28.9917028353763 
 30 
 0 
 11 
 3.409093089229 
 21 
 28.6782703924647 
 31 
 0 
 62 
 1 
 0 
LINE
 8 
TemplateLayer
 6 
CONTINUOUS
 10 
 3.409093089229 
 20 
 28.6782703924647 
 30 
 0 
 11 
 6.81818408351608 
 21 
 27.8417363672718 
 31 
 0 
 62 
 1 
 0 
LINE
 8 
TemplateLayer
 6 
CONTINUOUS
 10 
 6.81818408351608 
 20 
 27.8417363672718 
 30 
 0 
 11 
 8.24900696598991 
 21 
 27.2727298736572 
 31 
 0 
 62 
 1 
 0 
LINE
 8 
TemplateLayer
 6 
CONTINUOUS
 10 
 8.24900696598991 
 20 
 27.2727298736572 
 30 
 0 
 11 
 10.2272750772372 
 21 
 26.6898852170974 
 31 
 0 
 62 
 1 
 0 
LINE
 8 
TemplateLayer
 6 
CONTINUOUS
 10 
 10.2272750772372 
 20 
 26.6898852170974 
 30 
 0 
 11 
 13.6363660699541 
 21 
 24.9785301925279 
 31 
 0 
 62 
 1 
 0 
LINE
 8 
TemplateLayer
 6 
CONTINUOUS
 10 
 13.6363660699541 
 20 
 24.9785301925279 
 30 
 0 
 11 
 15.1828285706455 
 21 
 23.8636388778687 
 31 
 0 
 62 
 1 
 0 
LINE
 8 
TemplateLayer
 6 
CONTINUOUS
 10 
 15.1828285706455 
 20 
 23.8636388778687 
 30 
 0 
 11 
 17.0454570614288 
 21 
 22.5751261075532 
 31 
 0 
 62 
 1 
 0 
LINE
 8 
TemplateLayer
 6 
CONTINUOUS
 10 
 17.0454570614288 
 20 
 22.5751261075532 
 30 
 0 
 11 
 19.3114098714436 
 21 
 20.4545478820801 
 31 
 0 
 62 
 1 
 0 
LINE
 8 
TemplateLayer
 6 
CONTINUOUS
 10 
 19.3114098714436 
 20 
 20.4545478820801 
 30 
 0 
 11 
 20.4545480511578 
 21 
 19.1991539673403 
 31 
 0 
 62 
 1 
 0 
LINE
 8 
TemplateLayer
 6 
CONTINUOUS
 10 
 20.4545480511578 
 20 
 19.1991539673403 
 30 
 0 
 11 
 22.2090933748689 
 21 
 17.0454568862915 
 31 
 0 
 62 
 1 
 0 
LINE
 8 
TemplateLayer
 6 
CONTINUOUS
 10 
 22.2090933748689 
 20 
 17.0454568862915 
 30 
 0 
 11 
 23.8636390378153 
 21 
 14.1118652139812 
 31 
 0 
 62 
 1 
 0 
LINE
 8 
TemplateLayer
 6 
CONTINUOUS
 10 
 23.8636390378153 
 20 
 14.1118652139812 
 30 
 0 
 11 
 24.1534606861714 
 21 
 13.6363658905029 
 31 
 0 
 62 
 1 
 0 
LINE
 8 
TemplateLayer
 6 
CONTINUOUS
 10 
 24.1534606861714 
 20 
 13.6363658905029 
 30 
 0 
 11 
 25.7973199073066 
 21 
 10.2272748947144 
 31 
 0 
 62 
 1 
 0 
LINE
 8 
TemplateLayer
 6 
CONTINUOUS
 10 
 25.7973199073066 
 20 
 10.2272748947144 
 30 
 0 
 11 
 26.6892451028537 
 21 
 6.81818389892578 
 31 
 0 
 62 
 1 
 0 
LINE
 8 
TemplateLayer
 6 
CONTINUOUS
 10 
 26.6892451028537 
 20 
 6.81818389892578 
 30 
 0 
 11 
 27.1747378579957 
 21 
 3.40909290313721 
 31 
 0 
 62 
 1 
 0 
LINE
 8 
TemplateLayer
 6 
CONTINUOUS
 10 
 27.1747378579957 
 20 
 3.40909290313721 
 30 
 0 
 11 
 27.2727300098342 
 21 
 0.868981199290587 
 31 
 0 
 62 
 1 
 0 
LINE
 8 
TemplateLayer
 6 
CONTINUOUS
 10 
 27.2727300098342 
 20 
 0.868981199290587 
 30 
 0 
 11 
 27.330586302428 
 21 
 1.9073486328125E-06 
 31 
 0 
 62 
 1 
 0 
LINE
 8 
TemplateLayer
 6 
CONTINUOUS
 10 
 27.330586302428 
 20 
 1.9073486328125E-06 
 30 
 0 
 11 
 27.2727300046587 
 21 
-2.01445570590796 
 31 
 0 
 62 
 1 
 0 
LINE
 8 
TemplateLayer
 6 
CONTINUOUS
 10 
 27.2727300046587 
 20 
-2.01445570590796 
 30 
 0 
 11 
 27.25005311276 
 21 
-3.40908908843994 
 31 
 0 
 62 
 1 
 0 
LINE
 8 
TemplateLayer
 6 
CONTINUOUS
 10 
 27.25005311276 
 20 
-3.40908908843994 
 30 
 0 
 11 
 26.8607979839364 
 21 
-6.81818008422852 
 31 
 0 
 62 
 1 
 0 
LINE
 8 
TemplateLayer
 6 
CONTINUOUS
 10 
 26.8607979839364 
 20 
-6.81818008422852 
 30 
 0 
 11 
 26.0724456689461 
 21 
-10.2272710800171 
 31 
 0 
 62 
 1 
 0 
LINE
 8 
TemplateLayer
 6 
CONTINUOUS
 10 
 26.0724456689461 
 20 
-10.2272710800171 
 30 
 0 
 11 
 24.6083658769943 
 21 
-13.6363620758057 
 31 
 0 
 62 
 1 
 0 
LINE
 8 
TemplateLayer
 6 
CONTINUOUS
 10 
 24.6083658769943 
 20 
-13.6363620758057 
 30 
 0 
 11 
 23.8636389858257 
 21 
-14.8533548808492 
 31 
 0 
 62 
 1 
 0 
LINE
 8 
TemplateLayer
 6 
CONTINUOUS
 10 
 23.8636389858257 
 20 
-14.8533548808492 
 30 
 0 
 11 
 22.5993980722017 
 21 
-17.0454530715942 
 31 
 0 
 62 
 1 
 0 
LINE
 8 
TemplateLayer
 6 
CONTINUOUS
 10 
 22.5993980722017 
 20 
-17.0454530715942 
 30 
 0 
 11 
 20.4545479814205 
 21 
-19.6539642648206 
 31 
 0 
 62 
 1 
 0 
LINE
 8 
TemplateLayer
 6 
CONTINUOUS
 10 
 20.4545479814205 
 20 
-19.6539642648206 
 30 
 0 
 11 
 19.6986406520824 
 21 
-20.4545440673828 
 31 
 0 
 62 
 1 
 0 
LINE
 8 
TemplateLayer
 6 
CONTINUOUS
 10 
 19.6986406520824 
 20 
-20.4545440673828 
 30 
 0 
 11 
 17.0454569798824 
 21 
-22.8572276185994 
 31 
 0 
 62 
 1 
 0 
LINE
 8 
TemplateLayer
 6 
CONTINUOUS
 10 
 17.0454569798824 
 20 
-22.8572276185994 
 30 
 0 
 11 
 15.5040753823549 
 21 
-23.8636350631714 
 31 
 0 
 62 
 1 
 0 
LINE
 8 
TemplateLayer
 6 
CONTINUOUS
 10 
 15.5040753823549 
 20 
-23.8636350631714 
 30 
 0 
 11 
 13.6363659799885 
 21 
-25.1444246999837 
 31 
 0 
 62 
 1 
 0 
LINE
 8 
TemplateLayer
 6 
CONTINUOUS
 10 
 13.6363659799885 
 20 
-25.1444246999837 
 30 
 0 
 11 
 10.2272749814505 
 21 
-26.6762255689799 
 31 
 0 
 62 
 1 
 0 
LINE
 8 
TemplateLayer
 6 
CONTINUOUS
 10 
 10.2272749814505 
 20 
-26.6762255689799 
 30 
 0 
 11 
 7.86383014299181 
 21 
-27.27272605896 
 31 
 0 
 62 
 1 
 0 
LINE
 8 
TemplateLayer
 6 
CONTINUOUS
 10 
 7.86383014299181 
 20 
-27.27272605896 
 30 
 0 
 11 
 6.81818398393731 
 21 
-27.6370946672532 
 31 
 0 
 62 
 1 
 0 
LINE
 8 
TemplateLayer
 6 
CONTINUOUS
 10 
 6.81818398393731 
 20 
-27.6370946672532 
 30 
 0 
 11 
 3.4090929869256 
 21 
-28.3185428696916 
 31 
 0 
 62 
 1 
 0 
LINE
 8 
TemplateLayer
 6 
CONTINUOUS
 10 
 3.4090929869256 
 20 
-28.3185428696916 
 30 
 0 
 11 
 1.99084342385192E-06 
 21 
-28.4821205294723 
 31 
 0 
 62 
 1 
 0 
LINE
 8 
TemplateLayer
 6 
CONTINUOUS
 10 
 1.99084342385192E-06 
 20 
-28.4821205294723 
 30 
 0 
 11 
-3.40908900470885 
 21 
-28.3504679153229 
 31 
 0 
 62 
 1 
 0 
LINE
 8 
TemplateLayer
 6 
CONTINUOUS
 10 
-3.40908900470885 
 20 
-28.3504679153229 
 30 
 0 
 11 
-6.81817999934565 
 21 
-27.7087725645059 
 31 
 0 
 62 
 1 
 0 
LINE
 8 
TemplateLayer
 6 
CONTINUOUS
 10 
-6.81817999934565 
 20 
-27.7087725645059 
 30 
 0 
 11 
-8.1002308307931 
 21 
-27.27272605896 
 31 
 0 
 62 
 1 
 0 
LINE
 8 
TemplateLayer
 6 
CONTINUOUS
 10 
-8.1002308307931 
 20 
-27.27272605896 
 30 
 0 
 11 
-10.2272709934112 
 21 
-26.7488023631269 
 31 
 0 
 62 
 1 
 0 
LINE
 8 
TemplateLayer
 6 
CONTINUOUS
 10 
-10.2272709934112 
 20 
-26.7488023631269 
 30 
 0 
 11 
-13.6363619865278 
 21 
-25.2601865367541 
 31 
 0 
 62 
 1 
 0 
LINE
 8 
TemplateLayer
 6 
CONTINUOUS
 10 
-13.6363619865278 
 20 
-25.2601865367541 
 30 
 0 
 11 
-15.7069141966638 
 21 
-23.8636350631714 
 31 
 0 
 62 
 1 
 0 
LINE
 8 
TemplateLayer
 6 
CONTINUOUS
 10 
-15.7069141966638 
 20 
-23.8636350631714 
 30 
 0 
 11 
-17.045452978278 
 21 
-23.0102511182401 
 31 
 0 
 62 
 1 
 0 
LINE
 8 
TemplateLayer
 6 
CONTINUOUS
 10 
-17.045452978278 
 20 
-23.0102511182401 
 30 
 0 
 11 
-19.9154780878915 
 21 
-20.4545440673828 
 31 
 0 
 62 
 1 
 0 
LINE
 8 
TemplateLayer
 6 
CONTINUOUS
 10 
-19.9154780878915 
 20 
-20.4545440673828 
 30 
 0 
 11 
-20.4545439684796 
 21 
-19.8975364430897 
 31 
 0 
 62 
 1 
 0 
LINE
 8 
TemplateLayer
 6 
CONTINUOUS
 10 
-20.4545439684796 
 20 
-19.8975364430897 
 30 
 0 
 11 
-22.8288852798012 
 21 
-17.0454530715942 
 31 
 0 
 62 
 1 
 0 
LINE
 8 
TemplateLayer
 6 
CONTINUOUS
 10 
-22.8288852798012 
 20 
-17.0454530715942 
 30 
 0 
 11 
-23.8636349559912 
 21 
-15.2861573363024 
 31 
 0 
 62 
 1 
 0 
LINE
 8 
TemplateLayer
 6 
CONTINUOUS
 10 
-23.8636349559912 
 20 
-15.2861573363024 
 30 
 0 
 11 
-24.886814859074 
 21 
-13.6363620758057 
 31 
 0 
 62 
 1 
 0 
LINE
 8 
TemplateLayer
 6 
CONTINUOUS
 10 
-24.886814859074 
 20 
-13.6363620758057 
 30 
 0 
 11 
-26.3155446618525 
 21 
-10.2272710800171 
 31 
 0 
 62 
 1 
 0 
LINE
 8 
TemplateLayer
 6 
CONTINUOUS
 10 
-26.3155446618525 
 20 
-10.2272710800171 
 30 
 0 
 11 
-27.0689513395163 
 21 
-6.81818008422852 
 31 
 0 
 62 
 1 
 0 
LINE
 8 
TemplateLayer
 6 
CONTINUOUS
 10 
-27.0689513395163 
 20 
-6.81818008422852 
 30 
 0 
 11 
-27.2727259332755 
 21 
-4.97677289006695 
 31 
 0 
 62 
 1 
 0 
LINE
 8 
TemplateLayer
 6 
CONTINUOUS
 10 
-27.2727259332755 
 20 
-4.97677289006695 
 30 
 0 
 11 
-27.5542105752849 
 21 
-3.40908908843994 
 31 
 0 
 62 
 1 
 0 
LINE
 8 
TemplateLayer
 6 
CONTINUOUS
 10 
-21.0756209789538 
 20 
-6.81818008422852 
 30 
 0 
 11 
-21.8973906808493 
 21 
-3.40908908843994 
 31 
 0 
 62 
 3 
 0 
LINE
 8 
TemplateLayer
 6 
CONTINUOUS
 10 
-21.8973906808493 
 20 
-3.40908908843994 
 30 
 0 
 11 
-22.0573893348421 
 21 
 1.9073486328125E-06 
 31 
 0 
 62 
 3 
 0 
LINE
 8 
TemplateLayer
 6 
CONTINUOUS
 10 
-22.0573893348421 
 20 
 1.9073486328125E-06 
 30 
 0 
 11 
-21.7654328771248 
 21 
 3.40909290313721 
 31 
 0 
 62 
 3 
 0 
LINE
 8 
TemplateLayer
 6 
CONTINUOUS
 10 
-21.7654328771248 
 20 
 3.40909290313721 
 30 
 0 
 11 
-20.7987387326409 
 21 
 6.81818389892578 
 31 
 0 
 62 
 3 
 0 
LINE
 8 
TemplateLayer
 6 
CONTINUOUS
 10 
-20.7987387326409 
 20 
 6.81818389892578 
 30 
 0 
 11 
-20.4545439191568 
 21 
 7.58193170545387 
 31 
 0 
 62 
 3 
 0 
LINE
 8 
TemplateLayer
 6 
CONTINUOUS
 10 
-20.4545439191568 
 20 
 7.58193170545387 
 30 
 0 
 11 
-19.5636907856553 
 21 
 10.2272748947144 
 31 
 0 
 62 
 3 
 0 
LINE
 8 
TemplateLayer
 6 
CONTINUOUS
 10 
-19.5636907856553 
 20 
 10.2272748947144 
 30 
 0 
 11 
-17.247608876897 
 21 
 13.6363658905029 
 31 
 0 
 62 
 3 
 0 
LINE
 8 
TemplateLayer
 6 
CONTINUOUS
 10 
-17.247608876897 
 20 
 13.6363658905029 
 30 
 0 
 11 
-17.045452912066 
 21 
 13.8787700864014 
 31 
 0 
 62 
 3 
 0 
LINE
 8 
TemplateLayer
 6 
CONTINUOUS
 10 
-17.045452912066 
 20 
 13.8787700864014 
 30 
 0 
 11 
-13.9605261418435 
 21 
 17.0454568862915 
 31 
 0 
 62 
 3 
 0 
LINE
 8 
TemplateLayer
 6 
CONTINUOUS
 10 
-13.9605261418435 
 20 
 17.0454568862915 
 30 
 0 
 11 
-13.6363619100771 
 21 
 17.3332002113408 
 31 
 0 
 62 
 3 
 0 
LINE
 8 
TemplateLayer
 6 
CONTINUOUS
 10 
-13.6363619100771 
 20 
 17.3332002113408 
 30 
 0 
 11 
-10.227270909988 
 21 
 19.7291576032148 
 31 
 0 
 62 
 3 
 0 
LINE
 8 
TemplateLayer
 6 
CONTINUOUS
 10 
-10.227270909988 
 20 
 19.7291576032148 
 30 
 0 
 11 
-8.34071727131313 
 21 
 20.4545478820801 
 31 
 0 
 62 
 3 
 0 
LINE
 8 
TemplateLayer
 6 
CONTINUOUS
 10 
-8.34071727131313 
 20 
 20.4545478820801 
 30 
 0 
 11 
-6.81817991152533 
 21 
 21.2190106970856 
 31 
 0 
 62 
 3 
 0 
LINE
 8 
TemplateLayer
 6 
CONTINUOUS
 10 
-6.81817991152533 
 20 
 21.2190106970856 
 30 
 0 
 11 
-3.40908891396425 
 21 
 22.2065322449523 
 31 
 0 
 62 
 3 
 0 
LINE
 8 
TemplateLayer
 6 
CONTINUOUS
 10 
-3.40908891396425 
 20 
 22.2065322449523 
 30 
 0 
 11 
 2.08240776003454E-06 
 21 
 22.5315858491232 
 31 
 0 
 62 
 3 
 0 
LINE
 8 
TemplateLayer
 6 
CONTINUOUS
 10 
 2.08240776003454E-06 
 20 
 22.5315858491232 
 30 
 0 
 11 
 3.40909307754656 
 21 
 22.1695750045525 
 31 
 0 
 62 
 3 
 0 
LINE
 8 
TemplateLayer
 6 
CONTINUOUS
 10 
 3.40909307754656 
 20 
 22.1695750045525 
 30 
 0 
 11 
 6.81818407149043 
 21 
 21.1418259055673 
 31 
 0 
 62 
 3 
 0 
LINE
 8 
TemplateLayer
 6 
CONTINUOUS
 10 
 6.81818407149043 
 20 
 21.1418259055673 
 30 
 0 
 11 
 8.18309629887712 
 21 
 20.4545478820801 
 31 
 0 
 62 
 3 
 0 
LINE
 8 
TemplateLayer
 6 
CONTINUOUS
 10 
 8.18309629887712 
 20 
 20.4545478820801 
 30 
 0 
 11 
 10.227275064633 
 21 
 19.6676456799286 
 31 
 0 
 62 
 3 
 0 
LINE
 8 
TemplateLayer
 6 
CONTINUOUS
 10 
 10.227275064633 
 20 
 19.6676456799286 
 30 
 0 
 11 
 13.6363660559397 
 21 
 17.1706327162749 
 31 
 0 
 62 
 3 
 0 
LINE
 8 
TemplateLayer
 6 
CONTINUOUS
 10 
 13.6363660559397 
 20 
 17.1706327162749 
 30 
 0 
 11 
 13.7748939634924 
 21 
 17.0454568862915 
 31 
 0 
 62 
 3 
 0 
LINE
 8 
TemplateLayer
 6 
CONTINUOUS
 10 
 13.7748939634924 
 20 
 17.0454568862915 
 30 
 0 
 11 
 17.0407709304659 
 21 
 13.6363658905029 
 31 
 0 
 62 
 3 
 0 
LINE
 8 
TemplateLayer
 6 
CONTINUOUS
 10 
 17.0407709304659 
 20 
 13.6363658905029 
 30 
 0 
 11 
 17.0454570453727 
 21 
 13.6297106474263 
 31 
 0 
 62 
 3 
 0 
LINE
 8 
TemplateLayer
 6 
CONTINUOUS
 10 
 17.0454570453727 
 20 
 13.6297106474263 
 30 
 0 
 11 
 19.4379043232519 
 21 
 10.2272748947144 
 31 
 0 
 62 
 3 
 0 
LINE
 8 
TemplateLayer
 6 
CONTINUOUS
 10 
 19.4379043232519 
 20 
 10.2272748947144 
 30 
 0 
 11 
 20.4545480294511 
 21 
 7.10556830127327 
 31 
 0 
 62 
 3 
 0 
LINE
 8 
TemplateLayer
 6 
CONTINUOUS
 10 
 20.4545480294511 
 20 
 7.10556830127327 
 30 
 0 
 11 
 20.5828301566058 
 21 
 6.81818389892578 
 31 
 0 
 62 
 3 
 0 
LINE
 8 
TemplateLayer
 6 
CONTINUOUS
 10 
 20.5828301566058 
 20 
 6.81818389892578 
 30 
 0 
 11 
 21.5829373363968 
 21 
 3.40909290313721 
 31 
 0 
 62 
 3 
 0 
LINE
 8 
TemplateLayer
 6 
CONTINUOUS
 10 
 21.5829373363968 
 20 
 3.40909290313721 
 30 
 0 
 11 
 21.8995182871274 
 21 
 1.9073486328125E-06 
 31 
 0 
 62 
 3 
 0 
LINE
 8 
TemplateLayer
 6 
CONTINUOUS
 10 
 21.8995182871274 
 20 
 1.9073486328125E-06 
 30 
 0 
 11 
 21.7072391048953 
 21 
-3.40908908843994 
 31 
 0 
 62 
 3 
 0 
LINE
 8 
TemplateLayer
 6 
CONTINUOUS
 10 
 21.7072391048953 
 20 
-3.40908908843994 
 30 
 0 
 11 
 20.8400722395563 
 21 
-6.81818008422852 
 31 
 0 
 62 
 3 
 0 
LINE
 8 
TemplateLayer
 6 
CONTINUOUS
 10 
 20.8400722395563 
 20 
-6.81818008422852 
 30 
 0 
 11 
 20.4545480028637 
 21 
-7.70719640159138 
 31 
 0 
 62 
 3 
 0 
LINE
 8 
TemplateLayer
 6 
CONTINUOUS
 10 
 20.4545480028637 
 20 
-7.70719640159138 
 30 
 0 
 11 
 19.646526658344 
 21 
-10.2272710800171 
 31 
 0 
 62 
 3 
 0 
LINE
 8 
TemplateLayer
 6 
CONTINUOUS
 10 
 19.646526658344 
 20 
-10.2272710800171 
 30 
 0 
 11 
 17.412143252588 
 21 
-13.6363620758057 
 31 
 0 
 62 
 3 
 0 
LINE
 8 
TemplateLayer
 6 
CONTINUOUS
 10 
 17.412143252588 
 20 
-13.6363620758057 
 30 
 0 
 11 
 17.0454569956416 
 21 
-14.0772306849676 
 31 
 0 
 62 
 3 
 0 
LINE
 8 
TemplateLayer
 6 
CONTINUOUS
 10 
 17.0454569956416 
 20 
-14.0772306849676 
 30 
 0 
 11 
 14.1349962109646 
 21 
-17.0454530715942 
 31 
 0 
 62 
 3 
 0 
LINE
 8 
TemplateLayer
 6 
CONTINUOUS
 10 
 14.1349962109646 
 20 
-17.0454530715942 
 30 
 0 
 11 
 13.636365993748 
 21 
-17.4785598927908 
 31 
 0 
 62 
 3 
 0 
LINE
 8 
TemplateLayer
 6 
CONTINUOUS
 10 
 13.636365993748 
 20 
-17.4785598927908 
 30 
 0 
 11 
 10.2272749938769 
 21 
-19.753051362621 
 31 
 0 
 62 
 3 
 0 
LINE
 8 
TemplateLayer
 6 
CONTINUOUS
 10 
 10.2272749938769 
 20 
-19.753051362621 
 30 
 0 
 11 
 8.13501538889552 
 21 
-20.4545440673828 
 31 
 0 
 62 
 3 
 0 
LINE
 8 
TemplateLayer
 6 
CONTINUOUS
 10 
 8.13501538889552 
 20 
-20.4545440673828 
 30 
 0 
 11 
 6.81818399574316 
 21 
-21.0596416577659 
 31 
 0 
 62 
 3 
 0 
LINE
 8 
TemplateLayer
 6 
CONTINUOUS
 10 
 6.81818399574316 
 20 
-21.0596416577659 
 30 
 0 
 11 
 3.40909299838162 
 21 
-21.9359955744425 
 31 
 0 
 62 
 3 
 0 
LINE
 8 
TemplateLayer
 6 
CONTINUOUS
 10 
 3.40909299838162 
 20 
-21.9359955744425 
 30 
 0 
 11 
 2.00220875016394E-06 
 21 
-22.150098222799 
 31 
 0 
 62 
 3 
 0 
LINE
 8 
TemplateLayer
 6 
CONTINUOUS
 10 
 2.00220875016394E-06 
 20 
-22.150098222799 
 30 
 0 
 11 
-3.40908899325923 
 21 
-21.9714823865302 
 31 
 0 
 62 
 3 
 0 
LINE
 8 
TemplateLayer
 6 
CONTINUOUS
 10 
-3.40908899325923 
 20 
-21.9714823865302 
 30 
 0 
 11 
-6.81817998754027 
 21 
-21.1315834188145 
 31 
 0 
 62 
 3 
 0 
LINE
 8 
TemplateLayer
 6 
CONTINUOUS
 10 
-6.81817998754027 
 20 
-21.1315834188145 
 30 
 0 
 11 
-8.30419427731981 
 21 
-20.4545440673828 
 31 
 0 
 62 
 3 
 0 
LINE
 8 
TemplateLayer
 6 
CONTINUOUS
 10 
-8.30419427731981 
 20 
-20.4545440673828 
 30 
 0 
 11 
-10.2272709809709 
 21 
-19.8178716279861 
 31 
 0 
 62 
 3 
 0 
LINE
 8 
TemplateLayer
 6 
CONTINUOUS
 10 
-10.2272709809709 
 20 
-19.8178716279861 
 30 
 0 
 11 
-13.6363619728319 
 21 
-17.6297129753965 
 31 
 0 
 62 
 3 
 0 
LINE
 8 
TemplateLayer
 6 
CONTINUOUS
 10 
-13.6363619728319 
 20 
-17.6297129753965 
 30 
 0 
 11 
-14.3203112060279 
 21 
-17.0454530715942 
 31 
 0 
 62 
 3 
 0 
LINE
 8 
TemplateLayer
 6 
CONTINUOUS
 10 
-14.3203112060279 
 20 
-17.0454530715942 
 30 
 0 
 11 
-17.0454529626835 
 21 
-14.3220127278794 
 31 
 0 
 62 
 3 
 0 
LINE
 8 
TemplateLayer
 6 
CONTINUOUS
 10 
-17.0454529626835 
 20 
-14.3220127278794 
 30 
 0 
 11 
-17.6198782583699 
 21 
-13.6363620758057 
 31 
 0 
 62 
 3 
 0 
LINE
 8 
TemplateLayer
 6 
CONTINUOUS
 10 
-17.6198782583699 
 20 
-13.6363620758057 
 30 
 0 
 11 
-19.7897145630592 
 21 
-10.2272710800171 
 31 
 0 
 62 
 3 
 0 
LINE
 8 
TemplateLayer
 6 
CONTINUOUS
 10 
-19.7897145630592 
 20 
-10.2272710800171 
 30 
 0 
 11 
-20.4545439475162 
 21 
-8.21809787781399 
 31 
 0 
 62 
 3 
 0 
LINE
 8 
TemplateLayer
 6 
CONTINUOUS
 10 
-20.4545439475162 
 20 
-8.21809787781399 
 30 
 0 
 11 
-21.0756209789538 
 21 
-6.81818008422852 
 31 
 0 
 62 
 3 
 0 
LINE
 8 
TemplateLayer
 6 
CONTINUOUS
 10 
-18.0658947743015 
 20 
-3.40908908843994 
 30 
 0 
 11 
-18.3341502508348 
 21 
 1.9073486328125E-06 
 31 
 0 
 62 
 5 
 0 
LINE
 8 
TemplateLayer
 6 
CONTINUOUS
 10 
-18.3341502508348 
 20 
 1.9073486328125E-06 
 30 
 0 
 11 
-17.9694875829517 
 21 
 3.40909290313721 
 31 
 0 
 62 
 5 
 0 
LINE
 8 
TemplateLayer
 6 
CONTINUOUS
 10 
-17.9694875829517 
 20 
 3.40909290313721 
 30 
 0 
 11 
-17.045452926387 
 21 
 5.90002847542777 
 31 
 0 
 62 
 5 
 0 
LINE
 8 
TemplateLayer
 6 
CONTINUOUS
 10 
-17.045452926387 
 20 
 5.90002847542777 
 30 
 0 
 11 
-16.823746420958 
 21 
 6.81818389892578 
 31 
 0 
 62 
 5 
 0 
LINE
 8 
TemplateLayer
 6 
CONTINUOUS
 10 
-16.823746420958 
 20 
 6.81818389892578 
 30 
 0 
 11 
-15.1885585781603 
 21 
 10.2272748947144 
 31 
 0 
 62 
 5 
 0 
LINE
 8 
TemplateLayer
 6 
CONTINUOUS
 10 
-15.1885585781603 
 20 
 10.2272748947144 
 30 
 0 
 11 
-13.6363619194851 
 21 
 12.0916951410954 
 31 
 0 
 62 
 5 
 0 
LINE
 8 
TemplateLayer
 6 
CONTINUOUS
 10 
-13.6363619194851 
 20 
 12.0916951410954 
 30 
 0 
 11 
-12.1026214045272 
 21 
 13.6363658905029 
 31 
 0 
 62 
 5 
 0 
LINE
 8 
TemplateLayer
 6 
CONTINUOUS
 10 
-12.1026214045272 
 20 
 13.6363658905029 
 30 
 0 
 11 
-10.2272709180908 
 21 
 15.2148308683046 
 31 
 0 
 62 
 5 
 0 
LINE
 8 
TemplateLayer
 6 
CONTINUOUS
 10 
-10.2272709180908 
 20 
 15.2148308683046 
 30 
 0 
 11 
-6.81817991931778 
 21 
 16.8775590225156 
 31 
 0 
 62 
 5 
 0 
LINE
 8 
TemplateLayer
 6 
CONTINUOUS
 10 
-6.81817991931778 
 20 
 16.8775590225156 
 30 
 0 
 11 
-6.13009111339348 
 21 
 17.0454568862915 
 31 
 0 
 62 
 5 
 0 
LINE
 8 
TemplateLayer
 6 
CONTINUOUS
 10 
-6.13009111339348 
 20 
 17.0454568862915 
 30 
 0 
 11 
-3.4090889213244 
 21 
 18.1059341444337 
 31 
 0 
 62 
 5 
 0 
LINE
 8 
TemplateLayer
 6 
CONTINUOUS
 10 
-3.4090889213244 
 20 
 18.1059341444337 
 30 
 0 
 11 
 2.07522723746217E-06 
 21 
 18.5310646260576 
 31 
 0 
 62 
 5 
 0 
LINE
 8 
TemplateLayer
 6 
CONTINUOUS
 10 
 2.07522723746217E-06 
 20 
 18.5310646260576 
 30 
 0 
 11 
 3.40909307020371 
 21 
 18.07861256767 
 31 
 0 
 62 
 5 
 0 
LINE
 8 
TemplateLayer
 6 
CONTINUOUS
 10 
 3.40909307020371 
 20 
 18.07861256767 
 30 
 0 
 11 
 5.99613395751053 
 21 
 17.0454568862915 
 31 
 0 
 62 
 5 
 0 
LINE
 8 
TemplateLayer
 6 
CONTINUOUS
 10 
 5.99613395751053 
 20 
 17.0454568862915 
 30 
 0 
 11 
 6.81818406376552 
 21 
 16.8380071230705 
 31 
 0 
 62 
 5 
 0 
LINE
 8 
TemplateLayer
 6 
CONTINUOUS
 10 
 6.81818406376552 
 20 
 16.8380071230705 
 30 
 0 
 11 
 10.2272750564902 
 21 
 15.1310183883671 
 31 
 0 
 62 
 5 
 0 
LINE
 8 
TemplateLayer
 6 
CONTINUOUS
 10 
 10.2272750564902 
 20 
 15.1310183883671 
 30 
 0 
 11 
 11.9877203175893 
 21 
 13.6363658905029 
 31 
 0 
 62 
 5 
 0 
LINE
 8 
TemplateLayer
 6 
CONTINUOUS
 10 
 11.9877203175893 
 20 
 13.6363658905029 
 30 
 0 
 11 
 13.6363660466204 
 21 
 11.978531080813 
 31 
 0 
 62 
 5 
 0 
LINE
 8 
TemplateLayer
 6 
CONTINUOUS
 10 
 13.6363660466204 
 20 
 11.978531080813 
 30 
 0 
 11 
 15.0958027300967 
 21 
 10.2272748947144 
 31 
 0 
 62 
 5 
 0 
LINE
 8 
TemplateLayer
 6 
CONTINUOUS
 10 
 15.0958027300967 
 20 
 10.2272748947144 
 30 
 0 
 11 
 16.7482189004706 
 21 
 6.81818389892578 
 31 
 0 
 62 
 5 
 0 
LINE
 8 
TemplateLayer
 6 
CONTINUOUS
 10 
 16.7482189004706 
 20 
 6.81818389892578 
 30 
 0 
 11 
 17.0454570308888 
 21 
 5.56021070853056 
 31 
 0 
 62 
 5 
 0 
LINE
 8 
TemplateLayer
 6 
CONTINUOUS
 10 
 17.0454570308888 
 20 
 5.56021070853056 
 30 
 0 
 11 
 17.8344523824782 
 21 
 3.40909290313721 
 31 
 0 
 62 
 5 
 0 
LINE
 8 
TemplateLayer
 6 
CONTINUOUS
 10 
 17.8344523824782 
 20 
 3.40909290313721 
 30 
 0 
 11 
 18.2116789583788 
 21 
 1.9073486328125E-06 
 31 
 0 
 62 
 5 
 0 
LINE
 8 
TemplateLayer
 6 
CONTINUOUS
 10 
 18.2116789583788 
 20 
 1.9073486328125E-06 
 30 
 0 
 11 
 17.9310083599207 
 21 
-3.40908908843994 
 31 
 0 
 62 
 5 
 0 
LINE
 8 
TemplateLayer
 6 
CONTINUOUS
 10 
 17.9310083599207 
 20 
-3.40908908843994 
 30 
 0 
 11 
 17.0454570102479 
 21 
-5.93956695126562 
 31 
 0 
 62 
 5 
 0 
LINE
 8 
TemplateLayer
 6 
CONTINUOUS
 10 
 17.0454570102479 
 20 
-5.93956695126562 
 30 
 0 
 11 
 16.8514404972206 
 21 
-6.81818008422852 
 31 
 0 
 62 
 5 
 0 
LINE
 8 
TemplateLayer
 6 
CONTINUOUS
 10 
 16.8514404972206 
 20 
-6.81818008422852 
 30 
 0 
 11 
 15.2991192623182 
 21 
-10.2272710800171 
 31 
 0 
 62 
 5 
 0 
LINE
 8 
TemplateLayer
 6 
CONTINUOUS
 10 
 15.2991192623182 
 20 
-10.2272710800171 
 30 
 0 
 11 
 13.6363660030891 
 21 
-12.2742966671001 
 31 
 0 
 62 
 5 
 0 
LINE
 8 
TemplateLayer
 6 
CONTINUOUS
 10 
 13.6363660030891 
 20 
-12.2742966671001 
 30 
 0 
 11 
 12.2749280868554 
 21 
-13.6363620758057 
 31 
 0 
 62 
 5 
 0 
LINE
 8 
TemplateLayer
 6 
CONTINUOUS
 10 
 12.2749280868554 
 20 
-13.6363620758057 
 30 
 0 
 11 
 10.2272750018425 
 21 
-15.3151591012786 
 31 
 0 
 62 
 5 
 0 
LINE
 8 
TemplateLayer
 6 
CONTINUOUS
 10 
 10.2272750018425 
 20 
-15.3151591012786 
 30 
 0 
 11 
 6.81818400327554 
 21 
-16.8630834741102 
 31 
 0 
 62 
 5 
 0 
LINE
 8 
TemplateLayer
 6 
CONTINUOUS
 10 
 6.81818400327554 
 20 
-16.8630834741102 
 30 
 0 
 11 
 5.96728954779946 
 21 
-17.0454530715942 
 31 
 0 
 62 
 5 
 0 
LINE
 8 
TemplateLayer
 6 
CONTINUOUS
 10 
 5.96728954779946 
 20 
-17.0454530715942 
 30 
 0 
 11 
 3.40909300555042 
 21 
-17.9420058669737 
 31 
 0 
 62 
 5 
 0 
LINE
 8 
TemplateLayer
 6 
CONTINUOUS
 10 
 3.40909300555042 
 20 
-17.9420058669737 
 30 
 0 
 11 
 2.00929261124499E-06 
 21 
-18.2034305101568 
 31 
 0 
 62 
 5 
 0 
LINE
 8 
TemplateLayer
 6 
CONTINUOUS
 10 
 2.00929261124499E-06 
 20 
-18.2034305101568 
 30 
 0 
 11 
-3.40908898607079 
 21 
-17.9665510677199 
 31 
 0 
 62 
 5 
 0 
LINE
 8 
TemplateLayer
 6 
CONTINUOUS
 10 
-3.40908898607079 
 20 
-17.9665510677199 
 30 
 0 
 11 
-6.12876502053363 
 21 
-17.0454530715942 
 31 
 0 
 62 
 5 
 0 
LINE
 8 
TemplateLayer
 6 
CONTINUOUS
 10 
-6.12876502053363 
 20 
-17.0454530715942 
 30 
 0 
 11 
-6.81817997995177 
 21 
-16.9037654020629 
 31 
 0 
 62 
 5 
 0 
LINE
 8 
TemplateLayer
 6 
CONTINUOUS
 10 
-6.81817997995177 
 20 
-16.9037654020629 
 30 
 0 
 11 
-10.2272709730428 
 21 
-15.4008823007496 
 31 
 0 
 62 
 5 
 0 
LINE
 8 
TemplateLayer
 6 
CONTINUOUS
 10 
-10.2272709730428 
 20 
-15.4008823007496 
 30 
 0 
 11 
-12.4056911698774 
 21 
-13.6363620758057 
 31 
 0 
 62 
 5 
 0 
LINE
 8 
TemplateLayer
 6 
CONTINUOUS
 10 
-12.4056911698774 
 20 
-13.6363620758057 
 30 
 0 
 11 
-13.6363619634764 
 21 
-12.4173959793318 
 31 
 0 
 62 
 5 
 0 
LINE
 8 
TemplateLayer
 6 
CONTINUOUS
 10 
-13.6363619634764 
 20 
-12.4173959793318 
 30 
 0 
 11 
-15.4227658229799 
 21 
-10.2272710800171 
 31 
 0 
 62 
 5 
 0 
LINE
 8 
TemplateLayer
 6 
CONTINUOUS
 10 
-15.4227658229799 
 20 
-10.2272710800171 
 30 
 0 
 11 
-16.9426110764239 
 21 
-6.81818008422852 
 31 
 0 
 62 
 5 
 0 
LINE
 8 
TemplateLayer
 6 
CONTINUOUS
 10 
-16.9426110764239 
 20 
-6.81818008422852 
 30 
 0 
 11 
-17.0454529483773 
 21 
-6.35152294723162 
 31 
 0 
 62 
 5 
 0 
LINE
 8 
TemplateLayer
 6 
CONTINUOUS
 10 
-17.0454529483773 
 20 
-6.35152294723162 
 30 
 0 
 11 
-18.0658947743015 
 21 
-3.40908908843994 
 31 
 0 
 62 
 5 
 0 
LINE
 8 
TemplateLayer
 6 
CONTINUOUS
 10 
-14.6182380733174 
 20 
-3.40908908843994 
 30 
 0 
 11 
-15.0263783053744 
 21 
 1.9073486328125E-06 
 31 
 0 
 62 
 6 
 0 
LINE
 8 
TemplateLayer
 6 
CONTINUOUS
 10 
-15.0263783053744 
 20 
 1.9073486328125E-06 
 30 
 0 
 11 
-14.5493805745716 
 21 
 3.40909290313721 
 31 
 0 
 62 
 6 
 0 
LINE
 8 
TemplateLayer
 6 
CONTINUOUS
 10 
-14.5493805745716 
 20 
 3.40909290313721 
 30 
 0 
 11 
-13.6363619314395 
 21 
 5.43143505863578 
 31 
 0 
 62 
 6 
 0 
LINE
 8 
TemplateLayer
 6 
CONTINUOUS
 10 
-13.6363619314395 
 20 
 5.43143505863578 
 30 
 0 
 11 
-13.1959736685827 
 21 
 6.81818389892578 
 31 
 0 
 62 
 6 
 0 
LINE
 8 
TemplateLayer
 6 
CONTINUOUS
 10 
-13.1959736685827 
 20 
 6.81818389892578 
 30 
 0 
 11 
-10.7857277809677 
 21 
 10.2272748947144 
 31 
 0 
 62 
 6 
 0 
LINE
 8 
TemplateLayer
 6 
CONTINUOUS
 10 
-10.7857277809677 
 20 
 10.2272748947144 
 30 
 0 
 11 
-10.2272709260371 
 21 
 10.7876377677415 
 31 
 0 
 62 
 6 
 0 
LINE
 8 
TemplateLayer
 6 
CONTINUOUS
 10 
-10.2272709260371 
 20 
 10.7876377677415 
 30 
 0 
 11 
-6.81817992584176 
 21 
 13.2428228489428 
 31 
 0 
 62 
 6 
 0 
LINE
 8 
TemplateLayer
 6 
CONTINUOUS
 10 
-6.81817992584176 
 20 
 13.2428228489428 
 30 
 0 
 11 
-5.59075601403696 
 21 
 13.6363658905029 
 31 
 0 
 62 
 6 
 0 
LINE
 8 
TemplateLayer
 6 
CONTINUOUS
 10 
-5.59075601403696 
 20 
 13.6363658905029 
 30 
 0 
 11 
-3.40908892755208 
 21 
 14.6362736662353 
 31 
 0 
 62 
 6 
 0 
LINE
 8 
TemplateLayer
 6 
CONTINUOUS
 10 
-3.40908892755208 
 20 
 14.6362736662353 
 30 
 0 
 11 
 2.06919405393302E-06 
 21 
 15.1697662659198 
 31 
 0 
 62 
 6 
 0 
LINE
 8 
TemplateLayer
 6 
CONTINUOUS
 10 
 2.06919405393302E-06 
 20 
 15.1697662659198 
 30 
 0 
 11 
 3.40909306397563 
 21 
 14.6087333871088 
 31 
 0 
 62 
 6 
 0 
LINE
 8 
TemplateLayer
 6 
CONTINUOUS
 10 
 3.40909306397563 
 20 
 14.6087333871088 
 30 
 0 
 11 
 5.49349796360671 
 21 
 13.6363658905029 
 31 
 0 
 62 
 6 
 0 
LINE
 8 
TemplateLayer
 6 
CONTINUOUS
 10 
 5.49349796360671 
 20 
 13.6363658905029 
 30 
 0 
 11 
 6.81818405724701 
 21 
 13.2063157912751 
 31 
 0 
 62 
 6 
 0 
LINE
 8 
TemplateLayer
 6 
CONTINUOUS
 10 
 6.81818405724701 
 20 
 13.2063157912751 
 30 
 0 
 11 
 10.2272750485914 
 21 
 10.7303288339419 
 31 
 0 
 62 
 6 
 0 
LINE
 8 
TemplateLayer
 6 
CONTINUOUS
 10 
 10.2272750485914 
 20 
 10.7303288339419 
 30 
 0 
 11 
 10.7290068778254 
 21 
 10.2272748947144 
 31 
 0 
 62 
 6 
 0 
LINE
 8 
TemplateLayer
 6 
CONTINUOUS
 10 
 10.7290068778254 
 20 
 10.2272748947144 
 30 
 0 
 11 
 13.1486703453393 
 21 
 6.81818389892578 
 31 
 0 
 62 
 6 
 0 
LINE
 8 
TemplateLayer
 6 
CONTINUOUS
 10 
 13.1486703453393 
 20 
 6.81818389892578 
 30 
 0 
 11 
 13.636366034633 
 21 
 5.29994175270268 
 31 
 0 
 62 
 6 
 0 
LINE
 8 
TemplateLayer
 6 
CONTINUOUS
 10 
 13.636366034633 
 20 
 5.29994175270268 
 30 
 0 
 11 
 14.4900259832658 
 21 
 3.40909290313721 
 31 
 0 
 62 
 6 
 0 
LINE
 8 
TemplateLayer
 6 
CONTINUOUS
 10 
 14.4900259832658 
 20 
 3.40909290313721 
 30 
 0 
 11 
 14.9624415217868 
 21 
 1.9073486328125E-06 
 31 
 0 
 62 
 6 
 0 
LINE
 8 
TemplateLayer
 6 
CONTINUOUS
 10 
 14.9624415217868 
 20 
 1.9073486328125E-06 
 30 
 0 
 11 
 14.5552248273064 
 21 
-3.40908908843994 
 31 
 0 
 62 
 6 
 0 
LINE
 8 
TemplateLayer
 6 
CONTINUOUS
 10 
 14.5552248273064 
 20 
-3.40908908843994 
 30 
 0 
 11 
 13.6363660151363 
 21 
-5.56237801761137 
 31 
 0 
 62 
 6 
 0 
LINE
 8 
TemplateLayer
 6 
CONTINUOUS
 10 
 13.6363660151363 
 20 
-5.56237801761137 
 30 
 0 
 11 
 13.2733245367456 
 21 
-6.81818008422852 
 31 
 0 
 62 
 6 
 0 
LINE
 8 
TemplateLayer
 6 
CONTINUOUS
 10 
 13.2733245367456 
 20 
-6.81818008422852 
 30 
 0 
 11 
 10.9039194564287 
 21 
-10.2272710800171 
 31 
 0 
 62 
 6 
 0 
LINE
 8 
TemplateLayer
 6 
CONTINUOUS
 10 
 10.9039194564287 
 20 
-10.2272710800171 
 30 
 0 
 11 
 10.2272750097599 
 21 
-10.9040622796164 
 31 
 0 
 62 
 6 
 0 
LINE
 8 
TemplateLayer
 6 
CONTINUOUS
 10 
 10.2272750097599 
 20 
-10.9040622796164 
 30 
 0 
 11 
 6.81818400971657 
 21 
-13.2745614507845 
 31 
 0 
 62 
 6 
 0 
LINE
 8 
TemplateLayer
 6 
CONTINUOUS
 10 
 6.81818400971657 
 20 
-13.2745614507845 
 30 
 0 
 11 
 5.56668464694627 
 21 
-13.6363620758057 
 31 
 0 
 62 
 6 
 0 
LINE
 8 
TemplateLayer
 6 
CONTINUOUS
 10 
 5.56668464694627 
 20 
-13.6363620758057 
 30 
 0 
 11 
 3.40909301165192 
 21 
-14.5426425897627 
 31 
 0 
 62 
 6 
 0 
LINE
 8 
TemplateLayer
 6 
CONTINUOUS
 10 
 3.40909301165192 
 20 
-14.5426425897627 
 30 
 0 
 11 
 2.01520374801256E-06 
 21 
-14.9101286828673 
 31 
 0 
 62 
 6 
 0 
LINE
 8 
TemplateLayer
 6 
CONTINUOUS
 10 
 2.01520374801256E-06 
 20 
-14.9101286828673 
 30 
 0 
 11 
-3.40908897996811 
 21 
-14.5665351626727 
 31 
 0 
 62 
 6 
 0 
LINE
 8 
TemplateLayer
 6 
CONTINUOUS
 10 
-3.40908897996811 
 20 
-14.5665351626727 
 30 
 0 
 11 
-5.67172913706052 
 21 
-13.6363620758057 
 31 
 0 
 62 
 6 
 0 
LINE
 8 
TemplateLayer
 6 
CONTINUOUS
 10 
-5.67172913706052 
 20 
-13.6363620758057 
 30 
 0 
 11 
-6.81817997349825 
 21 
-13.3082821714133 
 31 
 0 
 62 
 6 
 0 
LINE
 8 
TemplateLayer
 6 
CONTINUOUS
 10 
-6.81817997349825 
 20 
-13.3082821714133 
 30 
 0 
 11 
-10.2272709650992 
 21 
-10.975203053495 
 31 
 0 
 62 
 6 
 0 
LINE
 8 
TemplateLayer
 6 
CONTINUOUS
 10 
-10.2272709650992 
 20 
-10.975203053495 
 30 
 0 
 11 
-10.978621853428 
 21 
-10.2272710800171 
 31 
 0 
 62 
 6 
 0 
LINE
 8 
TemplateLayer
 6 
CONTINUOUS
 10 
-10.978621853428 
 20 
-10.2272710800171 
 30 
 0 
 11 
-13.322555355974 
 21 
-6.81818008422852 
 31 
 0 
 62 
 6 
 0 
LINE
 8 
TemplateLayer
 6 
CONTINUOUS
 10 
-13.322555355974 
 20 
-6.81818008422852 
 30 
 0 
 11 
-13.6363619514785 
 21 
-5.73296886936375 
 31 
 0 
 62 
 6 
 0 
LINE
 8 
TemplateLayer
 6 
CONTINUOUS
 10 
-13.6363619514785 
 20 
-5.73296886936375 
 30 
 0 
 11 
-14.6182380733174 
 21 
-3.40908908843994 
 31 
 0 
 62 
 6 
 0 
LINE
 8 
TemplateLayer
 6 
CONTINUOUS
 10 
-10.8076515218248 
 20 
 1.9073486328125E-06 
 30 
 0 
 11 
-10.2272709407195 
 21 
 2.60759070181034 
 31 
 0 
 62 
 214 
 0 
LINE
 8 
TemplateLayer
 6 
CONTINUOUS
 10 
-10.2272709407195 
 20 
 2.60759070181034 
 30 
 0 
 11 
-10.1227223859756 
 21 
 3.40909290313721 
 31 
 0 
 62 
 214 
 0 
LINE
 8 
TemplateLayer
 6 
CONTINUOUS
 10 
-10.1227223859756 
 20 
 3.40909290313721 
 30 
 0 
 11 
-8.37108735760433 
 21 
 6.81818389892578 
 31 
 0 
 62 
 214 
 0 
LINE
 8 
TemplateLayer
 6 
CONTINUOUS
 10 
-8.37108735760433 
 20 
 6.81818389892578 
 30 
 0 
 11 
-6.81817993453217 
 21 
 8.40108882113618 
 31 
 0 
 62 
 214 
 0 
LINE
 8 
TemplateLayer
 6 
CONTINUOUS
 10 
-6.81817993453217 
 20 
 8.40108882113618 
 30 
 0 
 11 
-3.40908893553605 
 21 
 10.1881238013185 
 31 
 0 
 62 
 214 
 0 
LINE
 8 
TemplateLayer
 6 
CONTINUOUS
 10 
-3.40908893553605 
 20 
 10.1881238013185 
 30 
 0 
 11 
-3.14134236650491 
 21 
 10.2272748947144 
 31 
 0 
 62 
 214 
 0 
LINE
 8 
TemplateLayer
 6 
CONTINUOUS
 10 
-3.14134236650491 
 20 
 10.2272748947144 
 30 
 0 
 11 
 2.06166454648493E-06 
 21 
 10.9748133148685 
 31 
 0 
 62 
 214 
 0 
LINE
 8 
TemplateLayer
 6 
CONTINUOUS
 10 
 2.06166454648493E-06 
 20 
 10.9748133148685 
 30 
 0 
 11 
 3.06188831014529 
 21 
 10.2272748947144 
 31 
 0 
 62 
 214 
 0 
LINE
 8 
TemplateLayer
 6 
CONTINUOUS
 10 
 3.06188831014529 
 20 
 10.2272748947144 
 30 
 0 
 11 
 3.40909305601776 
 21 
 10.1751257812703 
 31 
 0 
 62 
 214 
 0 
LINE
 8 
TemplateLayer
 6 
CONTINUOUS
 10 
 3.40909305601776 
 20 
 10.1751257812703 
 30 
 0 
 11 
 6.81818404857078 
 21 
 8.37248040588159 
 31 
 0 
 62 
 214 
 0 
LINE
 8 
TemplateLayer
 6 
CONTINUOUS
 10 
 6.81818404857078 
 20 
 8.37248040588159 
 30 
 0 
 11 
 8.33519512788386 
 21 
 6.81818389892578 
 31 
 0 
 62 
 214 
 0 
LINE
 8 
TemplateLayer
 6 
CONTINUOUS
 10 
 8.33519512788386 
 20 
 6.81818389892578 
 30 
 0 
 11 
 10.1143478895577 
 21 
 3.40909290313721 
 31 
 0 
 62 
 214 
 0 
LINE
 8 
TemplateLayer
 6 
CONTINUOUS
 10 
 10.1143478895577 
 20 
 3.40909290313721 
 30 
 0 
 11 
 10.2272750339332 
 21 
 2.56370684607914 
 31 
 0 
 62 
 214 
 0 
LINE
 8 
TemplateLayer
 6 
CONTINUOUS
 10 
 10.2272750339332 
 20 
 2.56370684607914 
 30 
 0 
 11 
 10.8085726240829 
 21 
 1.9073486328125E-06 
 31 
 0 
 62 
 214 
 0 
LINE
 8 
TemplateLayer
 6 
CONTINUOUS
 10 
 10.8085726240829 
 20 
 1.9073486328125E-06 
 30 
 0 
 11 
 10.2272750239376 
 21 
-3.00518793651194 
 31 
 0 
 62 
 214 
 0 
LINE
 8 
TemplateLayer
 6 
CONTINUOUS
 10 
 10.2272750239376 
 20 
-3.00518793651194 
 30 
 0 
 11 
 10.1819977397214 
 21 
-3.40908908843994 
 31 
 0 
 62 
 214 
 0 
LINE
 8 
TemplateLayer
 6 
CONTINUOUS
 10 
 10.1819977397214 
 20 
-3.40908908843994 
 30 
 0 
 11 
 8.57810732156433 
 21 
-6.81818008422852 
 31 
 0 
 62 
 214 
 0 
LINE
 8 
TemplateLayer
 6 
CONTINUOUS
 10 
 8.57810732156433 
 20 
-6.81818008422852 
 30 
 0 
 11 
 6.81818401817432 
 21 
-8.56245260901466 
 31 
 0 
 62 
 214 
 0 
LINE
 8 
TemplateLayer
 6 
CONTINUOUS
 10 
 6.81818401817432 
 20 
-8.56245260901466 
 30 
 0 
 11 
 3.40909301949487 
 21 
-10.1730585897347 
 31 
 0 
 62 
 214 
 0 
LINE
 8 
TemplateLayer
 6 
CONTINUOUS
 10 
 3.40909301949487 
 20 
-10.1730585897347 
 30 
 0 
 11 
 2.90950162530394 
 21 
-10.2272710800171 
 31 
 0 
 62 
 214 
 0 
LINE
 8 
TemplateLayer
 6 
CONTINUOUS
 10 
 2.90950162530394 
 20 
-10.2272710800171 
 30 
 0 
 11 
 2.02261902607775E-06 
 21 
-10.7788169362392 
 31 
 0 
 62 
 214 
 0 
LINE
 8 
TemplateLayer
 6 
CONTINUOUS
 10 
 2.02261902607775E-06 
 20 
-10.7788169362392 
 30 
 0 
 11 
-2.88415734027089 
 21 
-10.2272710800171 
 31 
 0 
 62 
 214 
 0 
LINE
 8 
TemplateLayer
 6 
CONTINUOUS
 10 
-2.88415734027089 
 20 
-10.2272710800171 
 30 
 0 
 11 
-3.40908897207497 
 21 
-10.1689904636849 
 31 
 0 
 62 
 214 
 0 
LINE
 8 
TemplateLayer
 6 
CONTINUOUS
 10 
-3.40908897207497 
 20 
-10.1689904636849 
 30 
 0 
 11 
-6.81817996492183 
 21 
-8.53005613786887 
 31 
 0 
 62 
 214 
 0 
LINE
 8 
TemplateLayer
 6 
CONTINUOUS
 10 
-6.81817996492183 
 20 
-8.53005613786887 
 30 
 0 
 11 
-8.54508483660248 
 21 
-6.81818008422852 
 31 
 0 
 62 
 214 
 0 
LINE
 8 
TemplateLayer
 6 
CONTINUOUS
 10 
-8.54508483660248 
 20 
-6.81818008422852 
 30 
 0 
 11 
-10.1694476505961 
 21 
-3.40908908843994 
 31 
 0 
 62 
 214 
 0 
LINE
 8 
TemplateLayer
 6 
CONTINUOUS
 10 
-10.1694476505961 
 20 
-3.40908908843994 
 30 
 0 
 11 
-10.2272709506306 
 21 
-2.91425896482615 
 31 
 0 
 62 
 214 
 0 
LINE
 8 
TemplateLayer
 6 
CONTINUOUS
 10 
-10.2272709506306 
 20 
-2.91425896482615 
 30 
 0 
 11 
-10.8076515218248 
 21 
 1.9073486328125E-06 
 31 
 0 
 62 
 214 
 0 
LINE
 8 
TemplateLayer
 6 
CONTINUOUS
 10 
-7.75844467555913 
 20 
 1.9073486328125E-06 
 30 
 0 
 11 
-6.81817994378179 
 21 
 3.24780335089393 
 31 
 0 
 62 
 30 
 0 
LINE
 8 
TemplateLayer
 6 
CONTINUOUS
 10 
-6.81817994378179 
 20 
 3.24780335089393 
 30 
 0 
 11 
-6.77737720811245 
 21 
 3.40909290313721 
 31 
 0 
 62 
 30 
 0 
LINE
 8 
TemplateLayer
 6 
CONTINUOUS
 10 
-6.77737720811245 
 20 
 3.40909290313721 
 30 
 0 
 11 
-3.40908894165074 
 21 
 6.78141747736737 
 31 
 0 
 62 
 30 
 0 
LINE
 8 
TemplateLayer
 6 
CONTINUOUS
 10 
-3.40908894165074 
 20 
 6.78141747736737 
 30 
 0 
 11 
-3.27450580696149 
 21 
 6.81818389892578 
 31 
 0 
 62 
 30 
 0 
LINE
 8 
TemplateLayer
 6 
CONTINUOUS
 10 
-3.27450580696149 
 20 
 6.81818389892578 
 30 
 0 
 11 
 2.05604370730889E-06 
 21 
 7.84324647046857 
 31 
 0 
 62 
 30 
 0 
LINE
 8 
TemplateLayer
 6 
CONTINUOUS
 10 
 2.05604370730889E-06 
 20 
 7.84324647046857 
 30 
 0 
 11 
 3.233131769047 
 21 
 6.81818389892578 
 31 
 0 
 62 
 30 
 0 
LINE
 8 
TemplateLayer
 6 
CONTINUOUS
 10 
 3.233131769047 
 20 
 6.81818389892578 
 30 
 0 
 11 
 3.40909304990643 
 21 
 6.77028696538039 
 31 
 0 
 62 
 30 
 0 
LINE
 8 
TemplateLayer
 6 
CONTINUOUS
 10 
 3.40909304990643 
 20 
 6.77028696538039 
 30 
 0 
 11 
 6.78353207811337 
 21 
 3.40909290313721 
 31 
 0 
 62 
 30 
 0 
LINE
 8 
TemplateLayer
 6 
CONTINUOUS
 10 
 6.78353207811337 
 20 
 3.40909290313721 
 30 
 0 
 11 
 6.8181840394272 
 21 
 3.27827047649207 
 31 
 0 
 62 
 30 
 0 
LINE
 8 
TemplateLayer
 6 
CONTINUOUS
 10 
 6.8181840394272 
 20 
 3.27827047649207 
 30 
 0 
 11 
 7.80533854805766 
 21 
 1.9073486328125E-06 
 31 
 0 
 62 
 30 
 0 
LINE
 8 
TemplateLayer
 6 
CONTINUOUS
 10 
 7.80533854805766 
 20 
 1.9073486328125E-06 
 30 
 0 
 11 
 6.89149617238676 
 21 
-3.40908908843994 
 31 
 0 
 62 
 30 
 0 
LINE
 8 
TemplateLayer
 6 
CONTINUOUS
 10 
 6.89149617238676 
 20 
-3.40908908843994 
 30 
 0 
 11 
 6.8181840272328 
 21 
-3.51565573975725 
 31 
 0 
 62 
 30 
 0 
LINE
 8 
TemplateLayer
 6 
CONTINUOUS
 10 
 6.8181840272328 
 20 
-3.51565573975725 
 30 
 0 
 11 
 3.56108444935168 
 21 
-6.81818008422852 
 31 
 0 
 62 
 30 
 0 
LINE
 8 
TemplateLayer
 6 
CONTINUOUS
 10 
 3.56108444935168 
 20 
-6.81818008422852 
 30 
 0 
 11 
 3.40909302532857 
 21 
-6.92290043200542 
 31 
 0 
 62 
 30 
 0 
LINE
 8 
TemplateLayer
 6 
CONTINUOUS
 10 
 3.40909302532857 
 20 
-6.92290043200542 
 30 
 0 
 11 
 2.02797258646442E-06 
 21 
-7.79616048623888 
 31 
 0 
 62 
 30 
 0 
LINE
 8 
TemplateLayer
 6 
CONTINUOUS
 10 
 2.02797258646442E-06 
 20 
-7.79616048623888 
 30 
 0 
 11 
-3.40908896615824 
 21 
-6.87257130218937 
 31 
 0 
 62 
 30 
 0 
LINE
 8 
TemplateLayer
 6 
CONTINUOUS
 10 
-3.40908896615824 
 20 
-6.87257130218937 
 30 
 0 
 11 
-3.48722307626479 
 21 
-6.81818008422852 
 31 
 0 
 62 
 30 
 0 
LINE
 8 
TemplateLayer
 6 
CONTINUOUS
 10 
-3.48722307626479 
 20 
-6.81818008422852 
 30 
 0 
 11 
-6.80793890111072 
 21 
-3.40908908843994 
 31 
 0 
 62 
 30 
 0 
LINE
 8 
TemplateLayer
 6 
CONTINUOUS
 10 
-6.80793890111072 
 20 
-3.40908908843994 
 30 
 0 
 11 
-6.81817995565431 
 21 
-3.3667982739406 
 31 
 0 
 62 
 30 
 0 
LINE
 8 
TemplateLayer
 6 
CONTINUOUS
 10 
-6.81817995565431 
 20 
-3.3667982739406 
 30 
 0 
 11 
-7.75844467555913 
 21 
 1.9073486328125E-06 
 31 
 0 
 62 
 30 
 0 
LINE
 8 
TemplateLayer
 6 
CONTINUOUS
 10 
-3.75368034694676 
 20 
 1.9073486328125E-06 
 30 
 0 
 11 
-3.40908895236608 
 21 
 0.811523844306606 
 31 
 0 
 62 
 94 
 0 
LINE
 8 
TemplateLayer
 6 
CONTINUOUS
 10 
-3.40908895236608 
 20 
 0.811523844306606 
 30 
 0 
 11 
-0.917724032289847 
 21 
 3.40909290313721 
 31 
 0 
 62 
 94 
 0 
LINE
 8 
TemplateLayer
 6 
CONTINUOUS
 10 
-0.917724032289847 
 20 
 3.40909290313721 
 30 
 0 
 11 
 2.04881276838487E-06 
 21 
 3.81463653011929 
 31 
 0 
 62 
 94 
 0 
LINE
 8 
TemplateLayer
 6 
CONTINUOUS
 10 
 2.04881276838487E-06 
 20 
 3.81463653011929 
 30 
 0 
 11 
 0.938888426135712 
 21 
 3.40909290313721 
 31 
 0 
 62 
 94 
 0 
LINE
 8 
TemplateLayer
 6 
CONTINUOUS
 10 
 0.938888426135712 
 20 
 3.40909290313721 
 30 
 0 
 11 
 3.40909303952083 
 21 
 0.984104952906506 
 31 
 0 
 62 
 94 
 0 
LINE
 8 
TemplateLayer
 6 
CONTINUOUS
 10 
 3.40909303952083 
 20 
 0.984104952906506 
 30 
 0 
 11 
 3.83716300846171 
 21 
 1.9073486328125E-06 
 31 
 0 
 62 
 94 
 0 
LINE
 8 
TemplateLayer
 6 
CONTINUOUS
 10 
 3.83716300846171 
 20 
 1.9073486328125E-06 
 30 
 0 
 11 
 3.40909303586441 
 21 
-1.05301525290699 
 31 
 0 
 62 
 94 
 0 
LINE
 8 
TemplateLayer
 6 
CONTINUOUS
 10 
 3.40909303586441 
 20 
-1.05301525290699 
 30 
 0 
 11 
 0.956826455390648 
 21 
-3.40908908843994 
 31 
 0 
 62 
 94 
 0 
LINE
 8 
TemplateLayer
 6 
CONTINUOUS
 10 
 0.956826455390648 
 20 
-3.40908908843994 
 30 
 0 
 11 
 2.03516627389488E-06 
 21 
-3.78830466076496 
 31 
 0 
 62 
 94 
 0 
LINE
 8 
TemplateLayer
 6 
CONTINUOUS
 10 
 2.03516627389488E-06 
 20 
-3.78830466076496 
 30 
 0 
 11 
-0.897920680087259 
 21 
-3.40908908843994 
 31 
 0 
 62 
 94 
 0 
LINE
 8 
TemplateLayer
 6 
CONTINUOUS
 10 
-0.897920680087259 
 20 
-3.40908908843994 
 30 
 0 
 11 
-3.40908895532478 
 21 
-0.83687092973598 
 31 
 0 
 62 
 94 
 0 
LINE
 8 
TemplateLayer
 6 
CONTINUOUS
 10 
-3.40908895532478 
 20 
-0.83687092973598 
 30 
 0 
 11 
-3.75368034694676 
 21 
 1.9073486328125E-06 
 31 
 0 
 62 
 94 
 0 
TEXT
 8 
TemplateLayer
 10 
-6.81817988831193 
 20 
 33.166821586442 
 30 
 0 
 40 
 1.33 
 50 
 0 
 62 
 7 
 1 
.1
 0 
TEXT
 8 
TemplateLayer
 10 
-27.5542105752849 
 20 
-4.39427430541427 
 30 
 0 
 40 
 1.33 
 50 
 0 
 62 
 1 
 1 
.2
 0 
TEXT
 8 
TemplateLayer
 10 
-21.0756209789538 
 20 
-7.80336530120284 
 30 
 0 
 40 
 1.33 
 50 
 0 
 62 
 3 
 1 
.5
 0 
TEXT
 8 
TemplateLayer
 10 
-18.0658947743015 
 20 
-4.39427430541427 
 30 
 0 
 40 
 1.33 
 50 
 0 
 62 
 5 
 1 
1
 0 
TEXT
 8 
TemplateLayer
 10 
-14.6182380733174 
 20 
-4.39427430541427 
 30 
 0 
 40 
 1.33 
 50 
 0 
 62 
 6 
 1 
2
 0 
TEXT
 8 
TemplateLayer
 10 
-10.8076515218248 
 20 
-0.985183309625696 
 30 
 0 
 40 
 1.33 
 50 
 0 
 62 
 214 
 1 
5
 0 
TEXT
 8 
TemplateLayer
 10 
-7.75844467555913 
 20 
-0.985183309625696 
 30 
 0 
 40 
 1.33 
 50 
 0 
 62 
 30 
 1 
10
 0 
TEXT
 8 
TemplateLayer
 10 
-3.75368034694676 
 20 
-0.985183309625696 
 30 
 0 
 40 
 1.33 
 50 
 0 
 62 
 94 
 1 
20
 0 
LINE
 8 
TemplateLayer
 6 
CONTINUOUS
 10 
 0 
 20 
 0 
 30 
 0 
 11 
 2 
 21 
 0 
 31 
 0 
 62 
 0 
 0 
LINE
 8 
TemplateLayer
 6 
CONTINUOUS
 10 
 2 
 20 
 0 
 30 
 0 
 11 
 1 
 21 
 0.5 
 31 
 0 
 62 
 0 
 0 
LINE
 8 
TemplateLayer
 6 
CONTINUOUS
 10 
 1 
 20 
 0.5 
 30 
 0 
 11 
 1 
 21 
-0.5 
 31 
 0 
 62 
 0 
 0 
LINE
 8 
TemplateLayer
 6 
CONTINUOUS
 10 
 1 
 20 
-0.5 
 30 
 0 
 11 
 2 
 21 
 0 
 31 
 0 
 62 
 0 
 0 
LINE
 8 
TemplateLayer
 6 
CONTINUOUS
 10 
-0.100000001490116 
 20 
 0.100000001490116 
 30 
 0 
 11 
 0.100000001490116 
 21 
 0.100000001490116 
 31 
 0 
 62 
 0 
 0 
LINE
 8 
TemplateLayer
 6 
CONTINUOUS
 10 
 0.100000001490116 
 20 
 0.100000001490116 
 30 
 0 
 11 
 0.100000001490116 
 21 
-0.100000001490116 
 31 
 0 
 62 
 0 
 0 
LINE
 8 
TemplateLayer
 6 
CONTINUOUS
 10 
 0.100000001490116 
 20 
-0.100000001490116 
 30 
 0 
 11 
-0.100000001490116 
 21 
-0.100000001490116 
 31 
 0 
 62 
 0 
 0 
LINE
 8 
TemplateLayer
 6 
CONTINUOUS
 10 
-0.100000001490116 
 20 
-0.100000001490116 
 30 
 0 
 11 
-0.100000001490116 
 21 
 0.100000001490116 
 31 
 0 
 62 
 0 
 0 
LINE
 8 
TemplateLayer
 6 
CONTINUOUS
 10 
 0 
 20 
 0 
 30 
 0 
 11 
 0 
 21 
 0 
 31 
 0 
 62 
 0 
 0 
ENDBLK
 0 
ENDSEC
 0 
SECTION
 2 
ENTITIES
 0 
INSERT
 2 
Template
 6 
CONTINUOUS
 8 
TemplateLayer
 10 
 0 
 20 
 0 
 30 
 0 
 41 
 1 
 42 
 1 
 43 
 1 
 50 
 0 
 0 
ENDSEC
 0 
EOF
