 0 
SECTION
 2 
HEADER
 9 
$LUNITS
 70 
 2 
 0 
ENDSEC
 0 
SECTION
 2 
TABLES
 0 
TABLE
 2 
LTYPE
 70 
 1 
 0 
LTYPE
 2 
CONTINUOUS
 70 
 0 
 3 
Solid line
 72 
 65 
 73 
 0 
 40 
 0 
 0 
ENDTAB
 0 
TABLE
 2 
LAYER
 70 
 0 
 0 
LAYER
 2 
TemplateLayer
 62 
 7 
 6 
CONTINUOUS
 70 
 0 
 0 
ENDTAB
 0 
ENDSEC
 0 
SECTION
 2 
BLOCKS
 0 
BLOCK
 8 
TemplateLayer
 2 
Template
 70 
 0 
 10 
 0 
 20 
 0 
 30 
 0 
 0 
LINE
 8 
TemplateLayer
 6 
CONTINUOUS
 10 
-3.40908887320588 
 20 
 44.9144512303913 
 30 
 0 
 11 
 2.12580514608735E-06 
 21 
 46.7097932376985 
 31 
 0 
 62 
 7 
 0 
LINE
 8 
TemplateLayer
 6 
CONTINUOUS
 10 
 2.12580514608735E-06 
 20 
 46.7097932376985 
 30 
 0 
 11 
 3.40909311819191 
 21 
 44.8145272039829 
 31 
 0 
 62 
 7 
 0 
LINE
 8 
TemplateLayer
 6 
CONTINUOUS
 10 
 3.40909311819191 
 20 
 44.8145272039829 
 30 
 0 
 11 
 4.03190731356044 
 21 
 44.3181848526001 
 31 
 0 
 62 
 7 
 0 
LINE
 8 
TemplateLayer
 6 
CONTINUOUS
 10 
 4.03190731356044 
 20 
 44.3181848526001 
 30 
 0 
 11 
 6.81818411035936 
 21 
 42.7970678868531 
 31 
 0 
 62 
 7 
 0 
LINE
 8 
TemplateLayer
 6 
CONTINUOUS
 10 
 6.81818411035936 
 20 
 42.7970678868531 
 30 
 0 
 11 
 8.92762137964924 
 21 
 40.9090938568115 
 31 
 0 
 62 
 7 
 0 
LINE
 8 
TemplateLayer
 6 
CONTINUOUS
 10 
 8.92762137964924 
 20 
 40.9090938568115 
 30 
 0 
 11 
 10.2272751002888 
 21 
 39.5327523991974 
 31 
 0 
 62 
 7 
 0 
LINE
 8 
TemplateLayer
 6 
CONTINUOUS
 10 
 10.2272751002888 
 20 
 39.5327523991974 
 30 
 0 
 11 
 11.5852531564296 
 21 
 37.5000028610229 
 31 
 0 
 62 
 7 
 0 
LINE
 8 
TemplateLayer
 6 
CONTINUOUS
 10 
 11.5852531564296 
 20 
 37.5000028610229 
 30 
 0 
 11 
 12.9628258922642 
 21 
 34.0909118652344 
 31 
 0 
 62 
 7 
 0 
LINE
 8 
TemplateLayer
 6 
CONTINUOUS
 10 
 12.9628258922642 
 20 
 34.0909118652344 
 30 
 0 
 11 
 13.6363660815059 
 21 
 31.414476346496 
 31 
 0 
 62 
 7 
 0 
LINE
 8 
TemplateLayer
 6 
CONTINUOUS
 10 
 13.6363660815059 
 20 
 31.414476346496 
 30 
 0 
 11 
 14.5909114428988 
 21 
 30.6818208694458 
 31 
 0 
 62 
 7 
 0 
LINE
 8 
TemplateLayer
 6 
CONTINUOUS
 10 
 14.5909114428988 
 20 
 30.6818208694458 
 30 
 0 
 11 
 17.045457073764 
 21 
 29.4474943788037 
 31 
 0 
 62 
 7 
 0 
LINE
 8 
TemplateLayer
 6 
CONTINUOUS
 10 
 17.045457073764 
 20 
 29.4474943788037 
 30 
 0 
 11 
 20.0133710799484 
 21 
 27.2727298736572 
 31 
 0 
 62 
 7 
 0 
LINE
 8 
TemplateLayer
 6 
CONTINUOUS
 10 
 20.0133710799484 
 20 
 27.2727298736572 
 30 
 0 
 11 
 20.4545480650586 
 21 
 26.9437821059856 
 31 
 0 
 62 
 7 
 0 
LINE
 8 
TemplateLayer
 6 
CONTINUOUS
 10 
 20.4545480650586 
 20 
 26.9437821059856 
 30 
 0 
 11 
 23.7671552951442 
 21 
 23.8636388778687 
 31 
 0 
 62 
 7 
 0 
LINE
 8 
TemplateLayer
 6 
CONTINUOUS
 10 
 23.7671552951442 
 20 
 23.8636388778687 
 30 
 0 
 11 
 23.8636390550883 
 21 
 23.7352630307386 
 31 
 0 
 62 
 7 
 0 
LINE
 8 
TemplateLayer
 6 
CONTINUOUS
 10 
 23.8636390550883 
 20 
 23.7352630307386 
 30 
 0 
 11 
 26.0723457706146 
 21 
 20.4545478820801 
 31 
 0 
 62 
 7 
 0 
LINE
 8 
TemplateLayer
 6 
CONTINUOUS
 10 
 26.0723457706146 
 20 
 20.4545478820801 
 30 
 0 
 11 
 27.2727300395249 
 21 
 17.4107155991174 
 31 
 0 
 62 
 7 
 0 
LINE
 8 
TemplateLayer
 6 
CONTINUOUS
 10 
 27.2727300395249 
 20 
 17.4107155991174 
 30 
 0 
 11 
 27.4490618183245 
 21 
 17.0454568862915 
 31 
 0 
 62 
 7 
 0 
LINE
 8 
TemplateLayer
 6 
CONTINUOUS
 10 
 27.4490618183245 
 20 
 17.0454568862915 
 30 
 0 
 11 
 28.67255207929 
 21 
 13.6363658905029 
 31 
 0 
 62 
 7 
 0 
LINE
 8 
TemplateLayer
 6 
CONTINUOUS
 10 
 28.67255207929 
 20 
 13.6363658905029 
 30 
 0 
 11 
 29.6428598015283 
 21 
 10.2272748947144 
 31 
 0 
 62 
 7 
 0 
LINE
 8 
TemplateLayer
 6 
CONTINUOUS
 10 
 29.6428598015283 
 20 
 10.2272748947144 
 30 
 0 
 11 
 30.4663035457238 
 21 
 6.81818389892578 
 31 
 0 
 62 
 7 
 0 
LINE
 8 
TemplateLayer
 6 
CONTINUOUS
 10 
 30.4663035457238 
 20 
 6.81818389892578 
 30 
 0 
 11 
 30.6818210136086 
 21 
 5.31818223519761 
 31 
 0 
 62 
 7 
 0 
LINE
 8 
TemplateLayer
 6 
CONTINUOUS
 10 
 30.6818210136086 
 20 
 5.31818223519761 
 30 
 0 
 11 
 31.1066925808641 
 21 
 3.40909290313721 
 31 
 0 
 62 
 7 
 0 
LINE
 8 
TemplateLayer
 6 
CONTINUOUS
 10 
 31.1066925808641 
 20 
 3.40909290313721 
 30 
 0 
 11 
 31.3617500560287 
 21 
 1.9073486328125E-06 
 31 
 0 
 62 
 7 
 0 
LINE
 8 
TemplateLayer
 6 
CONTINUOUS
 10 
 31.3617500560287 
 20 
 1.9073486328125E-06 
 30 
 0 
 11 
 31.0941295140814 
 21 
-3.40908908843994 
 31 
 0 
 62 
 7 
 0 
LINE
 8 
TemplateLayer
 6 
CONTINUOUS
 10 
 31.0941295140814 
 20 
-3.40908908843994 
 30 
 0 
 11 
 30.6818209943601 
 21 
-5.40584010518297 
 31 
 0 
 62 
 7 
 0 
LINE
 8 
TemplateLayer
 6 
CONTINUOUS
 10 
 30.6818209943601 
 20 
-5.40584010518297 
 30 
 0 
 11 
 30.4938670349265 
 21 
-6.81818008422852 
 31 
 0 
 62 
 7 
 0 
LINE
 8 
TemplateLayer
 6 
CONTINUOUS
 10 
 30.4938670349265 
 20 
-6.81818008422852 
 30 
 0 
 11 
 29.7123361463165 
 21 
-10.2272710800171 
 31 
 0 
 62 
 7 
 0 
LINE
 8 
TemplateLayer
 6 
CONTINUOUS
 10 
 29.7123361463165 
 20 
-10.2272710800171 
 30 
 0 
 11 
 28.8190285575414 
 21 
-13.6363620758057 
 31 
 0 
 62 
 7 
 0 
LINE
 8 
TemplateLayer
 6 
CONTINUOUS
 10 
 28.8190285575414 
 20 
-13.6363620758057 
 30 
 0 
 11 
 27.6718952376869 
 21 
-17.0454530715942 
 31 
 0 
 62 
 7 
 0 
LINE
 8 
TemplateLayer
 6 
CONTINUOUS
 10 
 27.6718952376869 
 20 
-17.0454530715942 
 30 
 0 
 11 
 27.2727299762557 
 21 
-17.8387629319795 
 31 
 0 
 62 
 7 
 0 
LINE
 8 
TemplateLayer
 6 
CONTINUOUS
 10 
 27.2727299762557 
 20 
-17.8387629319795 
 30 
 0 
 11 
 26.2277322964791 
 21 
-20.4545440673828 
 31 
 0 
 62 
 7 
 0 
LINE
 8 
TemplateLayer
 6 
CONTINUOUS
 10 
 26.2277322964791 
 20 
-20.4545440673828 
 30 
 0 
 11 
 23.8636389696752 
 21 
-23.8513276669112 
 31 
 0 
 62 
 7 
 0 
LINE
 8 
TemplateLayer
 6 
CONTINUOUS
 10 
 23.8636389696752 
 20 
-23.8513276669112 
 30 
 0 
 11 
 23.8533082159489 
 21 
-23.8636350631714 
 31 
 0 
 62 
 7 
 0 
LINE
 8 
TemplateLayer
 6 
CONTINUOUS
 10 
 23.8533082159489 
 20 
-23.8636350631714 
 30 
 0 
 11 
 20.4545479687159 
 21 
-26.7321540121014 
 31 
 0 
 62 
 7 
 0 
LINE
 8 
TemplateLayer
 6 
CONTINUOUS
 10 
 20.4545479687159 
 20 
-26.7321540121014 
 30 
 0 
 11 
 19.5627181201067 
 21 
-27.27272605896 
 31 
 0 
 62 
 7 
 0 
LINE
 8 
TemplateLayer
 6 
CONTINUOUS
 10 
 19.5627181201067 
 20 
-27.27272605896 
 30 
 0 
 11 
 17.0454569689659 
 21 
-28.9391808673038 
 31 
 0 
 62 
 7 
 0 
LINE
 8 
TemplateLayer
 6 
CONTINUOUS
 10 
 17.0454569689659 
 20 
-28.9391808673038 
 30 
 0 
 11 
 13.6363659705326 
 21 
-30.4126782186322 
 31 
 0 
 62 
 7 
 0 
LINE
 8 
TemplateLayer
 6 
CONTINUOUS
 10 
 13.6363659705326 
 20 
-30.4126782186322 
 30 
 0 
 11 
 13.4983149780948 
 21 
-30.6818170547485 
 31 
 0 
 62 
 7 
 0 
LINE
 8 
TemplateLayer
 6 
CONTINUOUS
 10 
 13.4983149780948 
 20 
-30.6818170547485 
 30 
 0 
 11 
 11.9530892134937 
 21 
-34.0909080505371 
 31 
 0 
 62 
 7 
 0 
LINE
 8 
TemplateLayer
 6 
CONTINUOUS
 10 
 11.9530892134937 
 20 
-34.0909080505371 
 30 
 0 
 11 
 10.2272749635688 
 21 
-36.6387550193562 
 31 
 0 
 62 
 7 
 0 
LINE
 8 
TemplateLayer
 6 
CONTINUOUS
 10 
 10.2272749635688 
 20 
-36.6387550193562 
 30 
 0 
 11 
 9.25613929729216 
 21 
-37.4999990463257 
 31 
 0 
 62 
 7 
 0 
LINE
 8 
TemplateLayer
 6 
CONTINUOUS
 10 
 9.25613929729216 
 20 
-37.4999990463257 
 30 
 0 
 11 
 6.81818396126919 
 21 
-40.2662986264978 
 31 
 0 
 62 
 7 
 0 
LINE
 8 
TemplateLayer
 6 
CONTINUOUS
 10 
 6.81818396126919 
 20 
-40.2662986264978 
 30 
 0 
 11 
 6.00580497178286 
 21 
-40.9090900421143 
 31 
 0 
 62 
 7 
 0 
LINE
 8 
TemplateLayer
 6 
CONTINUOUS
 10 
 6.00580497178286 
 20 
-40.9090900421143 
 30 
 0 
 11 
 3.40909296045657 
 21 
-43.0653697463944 
 31 
 0 
 62 
 7 
 0 
LINE
 8 
TemplateLayer
 6 
CONTINUOUS
 10 
 3.40909296045657 
 20 
-43.0653697463944 
 30 
 0 
 11 
 1.09180216223471 
 21 
-44.3181810379028 
 31 
 0 
 62 
 7 
 0 
LINE
 8 
TemplateLayer
 6 
CONTINUOUS
 10 
 1.09180216223471 
 20 
-44.3181810379028 
 30 
 0 
 11 
 1.9611325086516E-06 
 21 
-45.0351144965191 
 31 
 0 
 62 
 7 
 0 
LINE
 8 
TemplateLayer
 6 
CONTINUOUS
 10 
 1.9611325086516E-06 
 20 
-45.0351144965191 
 30 
 0 
 11 
-1.08470903387679 
 21 
-44.3181810379028 
 31 
 0 
 62 
 7 
 0 
LINE
 8 
TemplateLayer
 6 
CONTINUOUS
 10 
-1.08470903387679 
 20 
-44.3181810379028 
 30 
 0 
 11 
-3.40908903109896 
 21 
-43.0533238500023 
 31 
 0 
 62 
 7 
 0 
LINE
 8 
TemplateLayer
 6 
CONTINUOUS
 10 
-3.40908903109896 
 20 
-43.0533238500023 
 30 
 0 
 11 
-5.99129401614846 
 21 
-40.9090900421143 
 31 
 0 
 62 
 7 
 0 
LINE
 8 
TemplateLayer
 6 
CONTINUOUS
 10 
-5.99129401614846 
 20 
-40.9090900421143 
 30 
 0 
 11 
-6.8181800218645 
 21 
-40.2548200098311 
 31 
 0 
 62 
 7 
 0 
LINE
 8 
TemplateLayer
 6 
CONTINUOUS
 10 
-6.8181800218645 
 20 
-40.2548200098311 
 30 
 0 
 11 
-9.24601917874697 
 21 
-37.4999990463257 
 31 
 0 
 62 
 7 
 0 
LINE
 8 
TemplateLayer
 6 
CONTINUOUS
 10 
-9.24601917874697 
 20 
-37.4999990463257 
 30 
 0 
 11 
-10.2272710111628 
 21 
-36.6388484717464 
 31 
 0 
 62 
 7 
 0 
LINE
 8 
TemplateLayer
 6 
CONTINUOUS
 10 
-10.2272710111628 
 20 
-36.6388484717464 
 30 
 0 
 11 
-11.9651203483362 
 21 
-34.0909080505371 
 31 
 0 
 62 
 7 
 0 
LINE
 8 
TemplateLayer
 6 
CONTINUOUS
 10 
-11.9651203483362 
 20 
-34.0909080505371 
 30 
 0 
 11 
-13.5261459629535 
 21 
-30.6818170547485 
 31 
 0 
 62 
 7 
 0 
LINE
 8 
TemplateLayer
 6 
CONTINUOUS
 10 
-13.5261459629535 
 20 
-30.6818170547485 
 30 
 0 
 11 
-13.6363619958691 
 21 
-30.4645340166291 
 31 
 0 
 62 
 7 
 0 
LINE
 8 
TemplateLayer
 6 
CONTINUOUS
 10 
-13.6363619958691 
 20 
-30.4645340166291 
 30 
 0 
 11 
-17.0454529886522 
 21 
-28.7900669300874 
 31 
 0 
 62 
 7 
 0 
LINE
 8 
TemplateLayer
 6 
CONTINUOUS
 10 
-17.0454529886522 
 20 
-28.7900669300874 
 30 
 0 
 11 
-19.1623882923693 
 21 
-27.27272605896 
 31 
 0 
 62 
 7 
 0 
LINE
 8 
TemplateLayer
 6 
CONTINUOUS
 10 
-19.1623882923693 
 20 
-27.27272605896 
 30 
 0 
 11 
-20.4545439801106 
 21 
-26.3776012310073 
 31 
 0 
 62 
 7 
 0 
LINE
 8 
TemplateLayer
 6 
CONTINUOUS
 10 
-20.4545439801106 
 20 
-26.3776012310073 
 30 
 0 
 11 
-23.2409213488633 
 21 
-23.8636350631714 
 31 
 0 
 62 
 7 
 0 
LINE
 8 
TemplateLayer
 6 
CONTINUOUS
 10 
-23.2409213488633 
 20 
-23.8636350631714 
 30 
 0 
 11 
-23.863634970009 
 21 
-23.0959387217187 
 31 
 0 
 62 
 7 
 0 
LINE
 8 
TemplateLayer
 6 
CONTINUOUS
 10 
-23.863634970009 
 20 
-23.0959387217187 
 30 
 0 
 11 
-25.7648586019747 
 21 
-20.4545440673828 
 31 
 0 
 62 
 7 
 0 
LINE
 8 
TemplateLayer
 6 
CONTINUOUS
 10 
-25.7648586019747 
 20 
-20.4545440673828 
 30 
 0 
 11 
-27.2432100607998 
 21 
-17.0454530715942 
 31 
 0 
 62 
 7 
 0 
LINE
 8 
TemplateLayer
 6 
CONTINUOUS
 10 
-27.2432100607998 
 20 
-17.0454530715942 
 30 
 0 
 11 
-27.2727259547463 
 21 
-16.9389191640088 
 31 
 0 
 62 
 7 
 0 
LINE
 8 
TemplateLayer
 6 
CONTINUOUS
 10 
-27.2727259547463 
 20 
-16.9389191640088 
 30 
 0 
 11 
-28.494481069432 
 21 
-13.6363620758057 
 31 
 0 
 62 
 7 
 0 
LINE
 8 
TemplateLayer
 6 
CONTINUOUS
 10 
-28.494481069432 
 20 
-13.6363620758057 
 30 
 0 
 11 
-29.4598569274237 
 21 
-10.2272710800171 
 31 
 0 
 62 
 7 
 0 
LINE
 8 
TemplateLayer
 6 
CONTINUOUS
 10 
-29.4598569274237 
 20 
-10.2272710800171 
 30 
 0 
 11 
-30.3229650515959 
 21 
-6.81818008422852 
 31 
 0 
 62 
 7 
 0 
LINE
 8 
TemplateLayer
 6 
CONTINUOUS
 10 
-30.3229650515959 
 20 
-6.81818008422852 
 30 
 0 
 11 
-30.6818169276623 
 21 
-4.19580029104206 
 31 
 0 
 62 
 7 
 0 
LINE
 8 
TemplateLayer
 6 
CONTINUOUS
 10 
-30.6818169276623 
 20 
-4.19580029104206 
 30 
 0 
 11 
-30.8372461587109 
 21 
-3.40908908843994 
 31 
 0 
 62 
 7 
 0 
LINE
 8 
TemplateLayer
 6 
CONTINUOUS
 10 
-30.8372461587109 
 20 
-3.40908908843994 
 30 
 0 
 11 
-31.0627753876632 
 21 
 1.9073486328125E-06 
 31 
 0 
 62 
 7 
 0 
LINE
 8 
TemplateLayer
 6 
CONTINUOUS
 10 
-31.0627753876632 
 20 
 1.9073486328125E-06 
 30 
 0 
 11 
-30.9132983675066 
 21 
 3.40909290313721 
 31 
 0 
 62 
 7 
 0 
LINE
 8 
TemplateLayer
 6 
CONTINUOUS
 10 
-30.9132983675066 
 20 
 3.40909290313721 
 30 
 0 
 11 
-30.6818169118411 
 21 
 4.61877022110326 
 31 
 0 
 62 
 7 
 0 
LINE
 8 
TemplateLayer
 6 
CONTINUOUS
 10 
-30.6818169118411 
 20 
 4.61877022110326 
 30 
 0 
 11 
-30.4165179842557 
 21 
 6.81818389892578 
 31 
 0 
 62 
 7 
 0 
LINE
 8 
TemplateLayer
 6 
CONTINUOUS
 10 
-30.4165179842557 
 20 
 6.81818389892578 
 30 
 0 
 11 
-29.7124851708288 
 21 
 10.2272748947144 
 31 
 0 
 62 
 7 
 0 
LINE
 8 
TemplateLayer
 6 
CONTINUOUS
 10 
-29.7124851708288 
 20 
 10.2272748947144 
 30 
 0 
 11 
-28.9915951959111 
 21 
 13.6363658905029 
 31 
 0 
 62 
 7 
 0 
LINE
 8 
TemplateLayer
 6 
CONTINUOUS
 10 
-28.9915951959111 
 20 
 13.6363658905029 
 30 
 0 
 11 
-28.0940577324585 
 21 
 17.0454568862915 
 31 
 0 
 62 
 7 
 0 
LINE
 8 
TemplateLayer
 6 
CONTINUOUS
 10 
-28.0940577324585 
 20 
 17.0454568862915 
 30 
 0 
 11 
-27.272725890511 
 21 
 18.8488164825739 
 31 
 0 
 62 
 7 
 0 
LINE
 8 
TemplateLayer
 6 
CONTINUOUS
 10 
-27.272725890511 
 20 
 18.8488164825739 
 30 
 0 
 11 
-26.7201301455917 
 21 
 20.4545478820801 
 31 
 0 
 62 
 7 
 0 
LINE
 8 
TemplateLayer
 6 
CONTINUOUS
 10 
-26.7201301455917 
 20 
 20.4545478820801 
 30 
 0 
 11 
-24.6845525875355 
 21 
 23.8636388778687 
 31 
 0 
 62 
 7 
 0 
LINE
 8 
TemplateLayer
 6 
CONTINUOUS
 10 
-24.6845525875355 
 20 
 23.8636388778687 
 30 
 0 
 11 
-23.8636348840589 
 21 
 24.789882060467 
 31 
 0 
 62 
 7 
 0 
LINE
 8 
TemplateLayer
 6 
CONTINUOUS
 10 
-23.8636348840589 
 20 
 24.789882060467 
 30 
 0 
 11 
-21.099120136634 
 21 
 27.2727298736572 
 31 
 0 
 62 
 7 
 0 
LINE
 8 
TemplateLayer
 6 
CONTINUOUS
 10 
-21.099120136634 
 20 
 27.2727298736572 
 30 
 0 
 11 
-20.4545438828125 
 21 
 27.8305812618591 
 31 
 0 
 62 
 7 
 0 
LINE
 8 
TemplateLayer
 6 
CONTINUOUS
 10 
-20.4545438828125 
 20 
 27.8305812618591 
 30 
 0 
 11 
-17.0454528827525 
 21 
 30.2103510034011 
 31 
 0 
 62 
 7 
 0 
LINE
 8 
TemplateLayer
 6 
CONTINUOUS
 10 
-17.0454528827525 
 20 
 30.2103510034011 
 30 
 0 
 11 
-16.1025129629699 
 21 
 30.6818208694458 
 31 
 0 
 62 
 7 
 0 
LINE
 8 
TemplateLayer
 6 
CONTINUOUS
 10 
-16.1025129629699 
 20 
 30.6818208694458 
 30 
 0 
 11 
-13.6363618826931 
 21 
 32.5897892646257 
 31 
 0 
 62 
 7 
 0 
LINE
 8 
TemplateLayer
 6 
CONTINUOUS
 10 
-13.6363618826931 
 20 
 32.5897892646257 
 30 
 0 
 11 
-13.2278816798308 
 21 
 34.0909118652344 
 31 
 0 
 62 
 7 
 0 
LINE
 8 
TemplateLayer
 6 
CONTINUOUS
 10 
-13.2278816798308 
 20 
 34.0909118652344 
 30 
 0 
 11 
-11.9137978894396 
 21 
 37.5000028610229 
 31 
 0 
 62 
 7 
 0 
LINE
 8 
TemplateLayer
 6 
CONTINUOUS
 10 
-11.9137978894396 
 20 
 37.5000028610229 
 30 
 0 
 11 
-10.2272708738171 
 21 
 39.8812784281941 
 31 
 0 
 62 
 7 
 0 
LINE
 8 
TemplateLayer
 6 
CONTINUOUS
 10 
-10.2272708738171 
 20 
 39.8812784281941 
 30 
 0 
 11 
-9.19328227274861 
 21 
 40.9090938568115 
 31 
 0 
 62 
 7 
 0 
LINE
 8 
TemplateLayer
 6 
CONTINUOUS
 10 
-9.19328227274861 
 20 
 40.9090938568115 
 30 
 0 
 11 
-6.81817987251544 
 21 
 42.9527864890396 
 31 
 0 
 62 
 7 
 0 
LINE
 8 
TemplateLayer
 6 
CONTINUOUS
 10 
-6.81817987251544 
 20 
 42.9527864890396 
 30 
 0 
 11 
-4.18927825615618 
 21 
 44.3181848526001 
 31 
 0 
 62 
 7 
 0 
LINE
 8 
TemplateLayer
 6 
CONTINUOUS
 10 
-4.18927825615618 
 20 
 44.3181848526001 
 30 
 0 
 11 
-3.40908887320588 
 21 
 44.9144512303913 
 31 
 0 
 62 
 7 
 0 
LINE
 8 
TemplateLayer
 6 
CONTINUOUS
 10 
-3.40908888356343 
 20 
 39.1438957233645 
 30 
 0 
 11 
 2.11480133161662E-06 
 21 
 40.5791818702704 
 31 
 0 
 62 
 1 
 0 
LINE
 8 
TemplateLayer
 6 
CONTINUOUS
 10 
 2.11480133161662E-06 
 20 
 40.5791818702704 
 30 
 0 
 11 
 3.40909310791106 
 21 
 39.0867031250327 
 31 
 0 
 62 
 1 
 0 
LINE
 8 
TemplateLayer
 6 
CONTINUOUS
 10 
 3.40909310791106 
 20 
 39.0867031250327 
 30 
 0 
 11 
 5.50913731079091 
 21 
 37.5000028610229 
 31 
 0 
 62 
 1 
 0 
LINE
 8 
TemplateLayer
 6 
CONTINUOUS
 10 
 5.50913731079091 
 20 
 37.5000028610229 
 30 
 0 
 11 
 6.81818409965934 
 21 
 36.8357104576825 
 31 
 0 
 62 
 1 
 0 
LINE
 8 
TemplateLayer
 6 
CONTINUOUS
 10 
 6.81818409965934 
 20 
 36.8357104576825 
 30 
 0 
 11 
 9.47913858500919 
 21 
 34.0909118652344 
 31 
 0 
 62 
 1 
 0 
LINE
 8 
TemplateLayer
 6 
CONTINUOUS
 10 
 9.47913858500919 
 20 
 34.0909118652344 
 30 
 0 
 11 
 10.2272750881718 
 21 
 32.7819359253009 
 31 
 0 
 62 
 1 
 0 
LINE
 8 
TemplateLayer
 6 
CONTINUOUS
 10 
 10.2272750881718 
 20 
 32.7819359253009 
 30 
 0 
 11 
 11.302279955667 
 21 
 30.6818208694458 
 31 
 0 
 62 
 1 
 0 
LINE
 8 
TemplateLayer
 6 
CONTINUOUS
 10 
 11.302279955667 
 20 
 30.6818208694458 
 30 
 0 
 11 
 12.4984217863821 
 21 
 27.2727298736572 
 31 
 0 
 62 
 1 
 0 
LINE
 8 
TemplateLayer
 6 
CONTINUOUS
 10 
 12.4984217863821 
 20 
 27.2727298736572 
 30 
 0 
 11 
 13.6363660699235 
 21 
 24.9614815706636 
 31 
 0 
 62 
 1 
 0 
LINE
 8 
TemplateLayer
 6 
CONTINUOUS
 10 
 13.6363660699235 
 20 
 24.9614815706636 
 30 
 0 
 11 
 15.1427086696608 
 21 
 23.8636388778687 
 31 
 0 
 62 
 1 
 0 
LINE
 8 
TemplateLayer
 6 
CONTINUOUS
 10 
 15.1427086696608 
 20 
 23.8636388778687 
 30 
 0 
 11 
 17.0454570611074 
 21 
 22.3960483498073 
 31 
 0 
 62 
 1 
 0 
LINE
 8 
TemplateLayer
 6 
CONTINUOUS
 10 
 17.0454570611074 
 20 
 22.3960483498073 
 30 
 0 
 11 
 19.0654629658055 
 21 
 20.4545478820801 
 31 
 0 
 62 
 1 
 0 
LINE
 8 
TemplateLayer
 6 
CONTINUOUS
 10 
 19.0654629658055 
 20 
 20.4545478820801 
 30 
 0 
 11 
 20.4545480500074 
 21 
 18.5581957370474 
 31 
 0 
 62 
 1 
 0 
LINE
 8 
TemplateLayer
 6 
CONTINUOUS
 10 
 20.4545480500074 
 20 
 18.5581957370474 
 30 
 0 
 11 
 21.4441312666423 
 21 
 17.0454568862915 
 31 
 0 
 62 
 1 
 0 
LINE
 8 
TemplateLayer
 6 
CONTINUOUS
 10 
 21.4441312666423 
 20 
 17.0454568862915 
 30 
 0 
 11 
 23.0611032370827 
 21 
 13.6363658905029 
 31 
 0 
 62 
 1 
 0 
LINE
 8 
TemplateLayer
 6 
CONTINUOUS
 10 
 23.0611032370827 
 20 
 13.6363658905029 
 30 
 0 
 11 
 23.8636390315278 
 21 
 10.6088885540893 
 31 
 0 
 62 
 1 
 0 
LINE
 8 
TemplateLayer
 6 
CONTINUOUS
 10 
 23.8636390315278 
 20 
 10.6088885540893 
 30 
 0 
 11 
 24.0022195627008 
 21 
 10.2272748947144 
 31 
 0 
 62 
 1 
 0 
LINE
 8 
TemplateLayer
 6 
CONTINUOUS
 10 
 24.0022195627008 
 20 
 10.2272748947144 
 30 
 0 
 11 
 25.3667720640436 
 21 
 6.81818389892578 
 31 
 0 
 62 
 1 
 0 
LINE
 8 
TemplateLayer
 6 
CONTINUOUS
 10 
 25.3667720640436 
 20 
 6.81818389892578 
 30 
 0 
 11 
 26.0880790853018 
 21 
 3.40909290313721 
 31 
 0 
 62 
 1 
 0 
LINE
 8 
TemplateLayer
 6 
CONTINUOUS
 10 
 26.0880790853018 
 20 
 3.40909290313721 
 30 
 0 
 11 
 26.3355333233463 
 21 
 1.9073486328125E-06 
 31 
 0 
 62 
 1 
 0 
LINE
 8 
TemplateLayer
 6 
CONTINUOUS
 10 
 26.3355333233463 
 20 
 1.9073486328125E-06 
 30 
 0 
 11 
 26.0869591792599 
 21 
-3.40908908843994 
 31 
 0 
 62 
 1 
 0 
LINE
 8 
TemplateLayer
 6 
CONTINUOUS
 10 
 26.0869591792599 
 20 
-3.40908908843994 
 30 
 0 
 11 
 25.4108701195107 
 21 
-6.81818008422852 
 31 
 0 
 62 
 1 
 0 
LINE
 8 
TemplateLayer
 6 
CONTINUOUS
 10 
 25.4108701195107 
 20 
-6.81818008422852 
 30 
 0 
 11 
 24.1311073989188 
 21 
-10.2272710800171 
 31 
 0 
 62 
 1 
 0 
LINE
 8 
TemplateLayer
 6 
CONTINUOUS
 10 
 24.1311073989188 
 20 
-10.2272710800171 
 30 
 0 
 11 
 23.8636389925386 
 21 
-11.1133338362692 
 31 
 0 
 62 
 1 
 0 
LINE
 8 
TemplateLayer
 6 
CONTINUOUS
 10 
 23.8636389925386 
 20 
-11.1133338362692 
 30 
 0 
 11 
 23.3150496379588 
 21 
-13.6363620758057 
 31 
 0 
 62 
 1 
 0 
LINE
 8 
TemplateLayer
 6 
CONTINUOUS
 10 
 23.3150496379588 
 20 
-13.6363620758057 
 30 
 0 
 11 
 21.954891692212 
 21 
-17.0454530715942 
 31 
 0 
 62 
 1 
 0 
LINE
 8 
TemplateLayer
 6 
CONTINUOUS
 10 
 21.954891692212 
 20 
-17.0454530715942 
 30 
 0 
 11 
 20.4545479817708 
 21 
-19.4587848691142 
 31 
 0 
 62 
 1 
 0 
LINE
 8 
TemplateLayer
 6 
CONTINUOUS
 10 
 20.4545479817708 
 20 
-19.4587848691142 
 30 
 0 
 11 
 19.6510958745501 
 21 
-20.4545440673828 
 31 
 0 
 62 
 1 
 0 
LINE
 8 
TemplateLayer
 6 
CONTINUOUS
 10 
 19.6510958745501 
 20 
-20.4545440673828 
 30 
 0 
 11 
 17.04545698044 
 21 
-22.5465879318832 
 31 
 0 
 62 
 1 
 0 
LINE
 8 
TemplateLayer
 6 
CONTINUOUS
 10 
 17.04545698044 
 20 
-22.5465879318832 
 30 
 0 
 11 
 14.7519266912912 
 21 
-23.8636350631714 
 31 
 0 
 62 
 1 
 0 
LINE
 8 
TemplateLayer
 6 
CONTINUOUS
 10 
 14.7519266912912 
 20 
-23.8636350631714 
 30 
 0 
 11 
 13.6363659810772 
 21 
-24.5379090927865 
 31 
 0 
 62 
 1 
 0 
LINE
 8 
TemplateLayer
 6 
CONTINUOUS
 10 
 13.6363659810772 
 20 
-24.5379090927865 
 30 
 0 
 11 
 11.8240169958625 
 21 
-27.27272605896 
 31 
 0 
 62 
 1 
 0 
LINE
 8 
TemplateLayer
 6 
CONTINUOUS
 10 
 11.8240169958625 
 20 
-27.27272605896 
 30 
 0 
 11 
 10.2272749756279 
 21 
-29.9202112088663 
 31 
 0 
 62 
 1 
 0 
LINE
 8 
TemplateLayer
 6 
CONTINUOUS
 10 
 10.2272749756279 
 20 
-29.9202112088663 
 30 
 0 
 11 
 9.92392343272705 
 21 
-30.6818170547485 
 31 
 0 
 62 
 1 
 0 
LINE
 8 
TemplateLayer
 6 
CONTINUOUS
 10 
 9.92392343272705 
 20 
-30.6818170547485 
 30 
 0 
 11 
 7.05314082644314 
 21 
-34.0909080505371 
 31 
 0 
 62 
 1 
 0 
LINE
 8 
TemplateLayer
 6 
CONTINUOUS
 10 
 7.05314082644314 
 20 
-34.0909080505371 
 30 
 0 
 11 
 6.81818397195399 
 21 
-34.3134226136889 
 31 
 0 
 62 
 1 
 0 
LINE
 8 
TemplateLayer
 6 
CONTINUOUS
 10 
 6.81818397195399 
 20 
-34.3134226136889 
 30 
 0 
 11 
 3.40909297233666 
 21 
-36.446556940783 
 31 
 0 
 62 
 1 
 0 
LINE
 8 
TemplateLayer
 6 
CONTINUOUS
 10 
 3.40909297233666 
 20 
-36.446556940783 
 30 
 0 
 11 
 1.97495134761361E-06 
 21 
-37.3361541495672 
 31 
 0 
 62 
 1 
 0 
LINE
 8 
TemplateLayer
 6 
CONTINUOUS
 10 
 1.97495134761361E-06 
 20 
-37.3361541495672 
 30 
 0 
 11 
-3.4090890192433 
 21 
-36.4481234238246 
 31 
 0 
 62 
 1 
 0 
LINE
 8 
TemplateLayer
 6 
CONTINUOUS
 10 
-3.4090890192433 
 20 
-36.4481234238246 
 30 
 0 
 11 
-6.81818001122085 
 21 
-34.3248648912271 
 31 
 0 
 62 
 1 
 0 
LINE
 8 
TemplateLayer
 6 
CONTINUOUS
 10 
-6.81818001122085 
 20 
-34.3248648912271 
 30 
 0 
 11 
-7.06643592132811 
 21 
-34.0909080505371 
 31 
 0 
 62 
 1 
 0 
LINE
 8 
TemplateLayer
 6 
CONTINUOUS
 10 
-7.06643592132811 
 20 
-34.0909080505371 
 30 
 0 
 11 
-9.95437834083866 
 21 
-30.6818170547485 
 31 
 0 
 62 
 1 
 0 
LINE
 8 
TemplateLayer
 6 
CONTINUOUS
 10 
-9.95437834083866 
 20 
-30.6818170547485 
 30 
 0 
 11 
-10.227270999281 
 21 
-30.0190777384997 
 31 
 0 
 62 
 1 
 0 
LINE
 8 
TemplateLayer
 6 
CONTINUOUS
 10 
-10.227270999281 
 20 
-30.0190777384997 
 30 
 0 
 11 
-11.8907614133899 
 21 
-27.27272605896 
 31 
 0 
 62 
 1 
 0 
LINE
 8 
TemplateLayer
 6 
CONTINUOUS
 10 
-11.8907614133899 
 20 
-27.27272605896 
 30 
 0 
 11 
-13.6363619851082 
 21 
-24.4692615688227 
 31 
 0 
 62 
 1 
 0 
LINE
 8 
TemplateLayer
 6 
CONTINUOUS
 10 
-13.6363619851082 
 20 
-24.4692615688227 
 30 
 0 
 11 
-14.5244445840814 
 21 
-23.8636350631714 
 31 
 0 
 62 
 1 
 0 
LINE
 8 
TemplateLayer
 6 
CONTINUOUS
 10 
-14.5244445840814 
 20 
-23.8636350631714 
 30 
 0 
 11 
-17.0454529766837 
 21 
-22.1219805583249 
 31 
 0 
 62 
 1 
 0 
LINE
 8 
TemplateLayer
 6 
CONTINUOUS
 10 
-17.0454529766837 
 20 
-22.1219805583249 
 30 
 0 
 11 
-18.904455809795 
 21 
-20.4545440673828 
 31 
 0 
 62 
 1 
 0 
LINE
 8 
TemplateLayer
 6 
CONTINUOUS
 10 
-18.904455809795 
 20 
-20.4545440673828 
 30 
 0 
 11 
-20.4545439657087 
 21 
-18.3537664531349 
 31 
 0 
 62 
 1 
 0 
LINE
 8 
TemplateLayer
 6 
CONTINUOUS
 10 
-20.4545439657087 
 20 
-18.3537664531349 
 30 
 0 
 11 
-21.2866092455927 
 21 
-17.0454530715942 
 31 
 0 
 62 
 1 
 0 
LINE
 8 
TemplateLayer
 6 
CONTINUOUS
 10 
-21.2866092455927 
 20 
-17.0454530715942 
 30 
 0 
 11 
-22.8347341966046 
 21 
-13.6363620758057 
 31 
 0 
 62 
 1 
 0 
LINE
 8 
TemplateLayer
 6 
CONTINUOUS
 10 
-22.8347341966046 
 20 
-13.6363620758057 
 30 
 0 
 11 
-23.6969127633324 
 21 
-10.2272710800171 
 31 
 0 
 62 
 1 
 0 
LINE
 8 
TemplateLayer
 6 
CONTINUOUS
 10 
-23.6969127633324 
 20 
-10.2272710800171 
 30 
 0 
 11 
-23.863634945803 
 21 
-9.60994836580025 
 31 
 0 
 62 
 1 
 0 
LINE
 8 
TemplateLayer
 6 
CONTINUOUS
 10 
-23.863634945803 
 20 
-9.60994836580025 
 30 
 0 
 11 
-25.0401205022204 
 21 
-6.81818008422852 
 31 
 0 
 62 
 1 
 0 
LINE
 8 
TemplateLayer
 6 
CONTINUOUS
 10 
-25.0401205022204 
 20 
-6.81818008422852 
 30 
 0 
 11 
-25.8315649951639 
 21 
-3.40908908843994 
 31 
 0 
 62 
 1 
 0 
LINE
 8 
TemplateLayer
 6 
CONTINUOUS
 10 
-25.8315649951639 
 20 
-3.40908908843994 
 30 
 0 
 11 
-26.1248941760466 
 21 
 1.9073486328125E-06 
 31 
 0 
 62 
 1 
 0 
LINE
 8 
TemplateLayer
 6 
CONTINUOUS
 10 
-26.1248941760466 
 20 
 1.9073486328125E-06 
 30 
 0 
 11 
-25.9577906816184 
 21 
 3.40909290313721 
 31 
 0 
 62 
 1 
 0 
LINE
 8 
TemplateLayer
 6 
CONTINUOUS
 10 
-25.9577906816184 
 20 
 3.40909290313721 
 30 
 0 
 11 
-25.3236151725941 
 21 
 6.81818389892578 
 31 
 0 
 62 
 1 
 0 
LINE
 8 
TemplateLayer
 6 
CONTINUOUS
 10 
-25.3236151725941 
 20 
 6.81818389892578 
 30 
 0 
 11 
-24.0857695611114 
 21 
 10.2272748947144 
 31 
 0 
 62 
 1 
 0 
LINE
 8 
TemplateLayer
 6 
CONTINUOUS
 10 
-24.0857695611114 
 20 
 10.2272748947144 
 30 
 0 
 11 
-23.8636349088587 
 21 
 10.9730128413457 
 31 
 0 
 62 
 1 
 0 
LINE
 8 
TemplateLayer
 6 
CONTINUOUS
 10 
-23.8636349088587 
 20 
 10.9730128413457 
 30 
 0 
 11 
-23.2921877658133 
 21 
 13.6363658905029 
 31 
 0 
 62 
 1 
 0 
LINE
 8 
TemplateLayer
 6 
CONTINUOUS
 10 
-23.2921877658133 
 20 
 13.6363658905029 
 30 
 0 
 11 
-22.008165868231 
 21 
 17.0454568862915 
 31 
 0 
 62 
 1 
 0 
LINE
 8 
TemplateLayer
 6 
CONTINUOUS
 10 
-22.008165868231 
 20 
 17.0454568862915 
 30 
 0 
 11 
-20.4545438974326 
 21 
 19.6852391651265 
 31 
 0 
 62 
 1 
 0 
LINE
 8 
TemplateLayer
 6 
CONTINUOUS
 10 
-20.4545438974326 
 20 
 19.6852391651265 
 30 
 0 
 11 
-19.9260826180898 
 21 
 20.4545478820801 
 31 
 0 
 62 
 1 
 0 
LINE
 8 
TemplateLayer
 6 
CONTINUOUS
 10 
-19.9260826180898 
 20 
 20.4545478820801 
 30 
 0 
 11 
-17.0454528954579 
 21 
 23.1317435101701 
 31 
 0 
 62 
 1 
 0 
LINE
 8 
TemplateLayer
 6 
CONTINUOUS
 10 
-17.0454528954579 
 20 
 23.1317435101701 
 30 
 0 
 11 
-16.050861839271 
 21 
 23.8636388778687 
 31 
 0 
 62 
 1 
 0 
LINE
 8 
TemplateLayer
 6 
CONTINUOUS
 10 
-16.050861839271 
 20 
 23.8636388778687 
 30 
 0 
 11 
-13.6363618953044 
 21 
 25.5635774181143 
 31 
 0 
 62 
 1 
 0 
LINE
 8 
TemplateLayer
 6 
CONTINUOUS
 10 
-13.6363618953044 
 20 
 25.5635774181143 
 30 
 0 
 11 
-12.7519054066719 
 21 
 27.2727298736572 
 31 
 0 
 62 
 1 
 0 
LINE
 8 
TemplateLayer
 6 
CONTINUOUS
 10 
-12.7519054066719 
 20 
 27.2727298736572 
 30 
 0 
 11 
-11.498876513822 
 21 
 30.6818208694458 
 31 
 0 
 62 
 1 
 0 
LINE
 8 
TemplateLayer
 6 
CONTINUOUS
 10 
-11.498876513822 
 20 
 30.6818208694458 
 30 
 0 
 11 
-10.2272708860089 
 21 
 33.0887886846587 
 31 
 0 
 62 
 1 
 0 
LINE
 8 
TemplateLayer
 6 
CONTINUOUS
 10 
-10.2272708860089 
 20 
 33.0887886846587 
 30 
 0 
 11 
-9.63220921494449 
 21 
 34.0909118652344 
 31 
 0 
 62 
 1 
 0 
LINE
 8 
TemplateLayer
 6 
CONTINUOUS
 10 
-9.63220921494449 
 20 
 34.0909118652344 
 30 
 0 
 11 
-6.81817988332916 
 21 
 36.9280829268055 
 31 
 0 
 62 
 1 
 0 
LINE
 8 
TemplateLayer
 6 
CONTINUOUS
 10 
-6.81817988332916 
 20 
 36.9280829268055 
 30 
 0 
 11 
-5.65326416518472 
 21 
 37.5000028610229 
 31 
 0 
 62 
 1 
 0 
LINE
 8 
TemplateLayer
 6 
CONTINUOUS
 10 
-5.65326416518472 
 20 
 37.5000028610229 
 30 
 0 
 11 
-3.40908888356343 
 21 
 39.1438957233645 
 31 
 0 
 62 
 1 
 0 
LINE
 8 
TemplateLayer
 6 
CONTINUOUS
 10 
 2.10480101166949E-06 
 20 
 35.0076525315201 
 30 
 0 
 11 
 1.88044330741154 
 21 
 34.0909118652344 
 31 
 0 
 62 
 3 
 0 
LINE
 8 
TemplateLayer
 6 
CONTINUOUS
 10 
 1.88044330741154 
 20 
 34.0909118652344 
 30 
 0 
 11 
 3.4090930979175 
 21 
 33.5189420897491 
 31 
 0 
 62 
 3 
 0 
LINE
 8 
TemplateLayer
 6 
CONTINUOUS
 10 
 3.4090930979175 
 20 
 33.5189420897491 
 30 
 0 
 11 
 6.76332506100576 
 21 
 30.6818208694458 
 31 
 0 
 62 
 3 
 0 
LINE
 8 
TemplateLayer
 6 
CONTINUOUS
 10 
 6.76332506100576 
 20 
 30.6818208694458 
 30 
 0 
 11 
 6.81818408851779 
 21 
 30.6283662356567 
 31 
 0 
 62 
 3 
 0 
LINE
 8 
TemplateLayer
 6 
CONTINUOUS
 10 
 6.81818408851779 
 20 
 30.6283662356567 
 30 
 0 
 11 
 8.8671024495137 
 21 
 27.2727298736572 
 31 
 0 
 62 
 3 
 0 
LINE
 8 
TemplateLayer
 6 
CONTINUOUS
 10 
 8.8671024495137 
 20 
 27.2727298736572 
 30 
 0 
 11 
 9.39739328724112 
 21 
 23.8636388778687 
 31 
 0 
 62 
 3 
 0 
LINE
 8 
TemplateLayer
 6 
CONTINUOUS
 10 
 9.39739328724112 
 20 
 23.8636388778687 
 30 
 0 
 11 
 10.0203966842606 
 21 
 20.4545478820801 
 31 
 0 
 62 
 3 
 0 
LINE
 8 
TemplateLayer
 6 
CONTINUOUS
 10 
 10.0203966842606 
 20 
 20.4545478820801 
 30 
 0 
 11 
 10.2272750647051 
 21 
 19.7078161523745 
 31 
 0 
 62 
 3 
 0 
LINE
 8 
TemplateLayer
 6 
CONTINUOUS
 10 
 10.2272750647051 
 20 
 19.7078161523745 
 30 
 0 
 11 
 13.4797059533863 
 21 
 17.0454568862915 
 31 
 0 
 62 
 3 
 0 
LINE
 8 
TemplateLayer
 6 
CONTINUOUS
 10 
 13.4797059533863 
 20 
 17.0454568862915 
 30 
 0 
 11 
 13.6363660554721 
 21 
 16.9100994675897 
 31 
 0 
 62 
 3 
 0 
LINE
 8 
TemplateLayer
 6 
CONTINUOUS
 10 
 13.6363660554721 
 20 
 16.9100994675897 
 30 
 0 
 11 
 16.551586896764 
 21 
 13.6363658905029 
 31 
 0 
 62 
 3 
 0 
LINE
 8 
TemplateLayer
 6 
CONTINUOUS
 10 
 16.551586896764 
 20 
 13.6363658905029 
 30 
 0 
 11 
 17.0454570438168 
 21 
 12.7628689948712 
 31 
 0 
 62 
 3 
 0 
LINE
 8 
TemplateLayer
 6 
CONTINUOUS
 10 
 17.0454570438168 
 20 
 12.7628689948712 
 30 
 0 
 11 
 18.6215899435867 
 21 
 10.2272748947144 
 31 
 0 
 62 
 3 
 0 
LINE
 8 
TemplateLayer
 6 
CONTINUOUS
 10 
 18.6215899435867 
 20 
 10.2272748947144 
 30 
 0 
 11 
 19.8474394616009 
 21 
 6.81818389892578 
 31 
 0 
 62 
 3 
 0 
LINE
 8 
TemplateLayer
 6 
CONTINUOUS
 10 
 19.8474394616009 
 20 
 6.81818389892578 
 30 
 0 
 11 
 20.4545480235295 
 21 
 3.8064484684465 
 31 
 0 
 62 
 3 
 0 
LINE
 8 
TemplateLayer
 6 
CONTINUOUS
 10 
 20.4545480235295 
 20 
 3.8064484684465 
 30 
 0 
 11 
 20.6055299524922 
 21 
 3.40909290313721 
 31 
 0 
 62 
 3 
 0 
LINE
 8 
TemplateLayer
 6 
CONTINUOUS
 10 
 20.6055299524922 
 20 
 3.40909290313721 
 30 
 0 
 11 
 21.1579130655059 
 21 
 1.9073486328125E-06 
 31 
 0 
 62 
 3 
 0 
LINE
 8 
TemplateLayer
 6 
CONTINUOUS
 10 
 21.1579130655059 
 20 
 1.9073486328125E-06 
 30 
 0 
 11 
 20.6095063868743 
 21 
-3.40908908843994 
 31 
 0 
 62 
 3 
 0 
LINE
 8 
TemplateLayer
 6 
CONTINUOUS
 10 
 20.6095063868743 
 20 
-3.40908908843994 
 30 
 0 
 11 
 20.4545480097856 
 21 
-3.85078435575471 
 31 
 0 
 62 
 3 
 0 
LINE
 8 
TemplateLayer
 6 
CONTINUOUS
 10 
 20.4545480097856 
 20 
-3.85078435575471 
 30 
 0 
 11 
 19.8681144495997 
 21 
-6.81818008422852 
 31 
 0 
 62 
 3 
 0 
LINE
 8 
TemplateLayer
 6 
CONTINUOUS
 10 
 19.8681144495997 
 20 
-6.81818008422852 
 30 
 0 
 11 
 18.7226694371322 
 21 
-10.2272710800171 
 31 
 0 
 62 
 3 
 0 
LINE
 8 
TemplateLayer
 6 
CONTINUOUS
 10 
 18.7226694371322 
 20 
-10.2272710800171 
 30 
 0 
 11 
 17.0454569976362 
 21 
-12.9659394721201 
 31 
 0 
 62 
 3 
 0 
LINE
 8 
TemplateLayer
 6 
CONTINUOUS
 10 
 17.0454569976362 
 20 
-12.9659394721201 
 30 
 0 
 11 
 16.6824377519634 
 21 
-13.6363620758057 
 31 
 0 
 62 
 3 
 0 
LINE
 8 
TemplateLayer
 6 
CONTINUOUS
 10 
 16.6824377519634 
 20 
-13.6363620758057 
 30 
 0 
 11 
 13.6363659946902 
 21 
-16.9536182674195 
 31 
 0 
 62 
 3 
 0 
LINE
 8 
TemplateLayer
 6 
CONTINUOUS
 10 
 13.6363659946902 
 20 
-16.9536182674195 
 30 
 0 
 11 
 13.5229602758739 
 21 
-17.0454530715942 
 31 
 0 
 62 
 3 
 0 
LINE
 8 
TemplateLayer
 6 
CONTINUOUS
 10 
 13.5229602758739 
 20 
-17.0454530715942 
 30 
 0 
 11 
 10.22727499416 
 21 
-19.5953162159305 
 31 
 0 
 62 
 3 
 0 
LINE
 8 
TemplateLayer
 6 
CONTINUOUS
 10 
 10.22727499416 
 20 
-19.5953162159305 
 30 
 0 
 11 
 9.95106671620924 
 21 
-20.4545440673828 
 31 
 0 
 62 
 3 
 0 
LINE
 8 
TemplateLayer
 6 
CONTINUOUS
 10 
 9.95106671620924 
 20 
-20.4545440673828 
 30 
 0 
 11 
 9.2230758804076 
 21 
-23.8636350631714 
 31 
 0 
 62 
 3 
 0 
LINE
 8 
TemplateLayer
 6 
CONTINUOUS
 10 
 9.2230758804076 
 20 
-23.8636350631714 
 30 
 0 
 11 
 8.16475019994958 
 21 
-27.27272605896 
 31 
 0 
 62 
 3 
 0 
LINE
 8 
TemplateLayer
 6 
CONTINUOUS
 10 
 8.16475019994958 
 20 
-27.27272605896 
 30 
 0 
 11 
 6.81818398140435 
 21 
-29.048294340206 
 31 
 0 
 62 
 3 
 0 
LINE
 8 
TemplateLayer
 6 
CONTINUOUS
 10 
 6.81818398140435 
 20 
-29.048294340206 
 30 
 0 
 11 
 4.46409999150472 
 21 
-30.6818170547485 
 31 
 0 
 62 
 3 
 0 
LINE
 8 
TemplateLayer
 6 
CONTINUOUS
 10 
 4.46409999150472 
 20 
-30.6818170547485 
 30 
 0 
 11 
 3.40909298118862 
 21 
-31.5148186300567 
 31 
 0 
 62 
 3 
 0 
LINE
 8 
TemplateLayer
 6 
CONTINUOUS
 10 
 3.40909298118862 
 20 
-31.5148186300567 
 30 
 0 
 11 
 1.98269911456939E-06 
 21 
-33.019601167265 
 31 
 0 
 62 
 3 
 0 
LINE
 8 
TemplateLayer
 6 
CONTINUOUS
 10 
 1.98269911456939E-06 
 20 
-33.019601167265 
 30 
 0 
 11 
-3.4090890104014 
 21 
-31.5219901309728 
 31 
 0 
 62 
 3 
 0 
LINE
 8 
TemplateLayer
 6 
CONTINUOUS
 10 
-3.4090890104014 
 20 
-31.5219901309728 
 30 
 0 
 11 
-4.47758685792603 
 21 
-30.6818170547485 
 31 
 0 
 62 
 3 
 0 
LINE
 8 
TemplateLayer
 6 
CONTINUOUS
 10 
-4.47758685792603 
 20 
-30.6818170547485 
 30 
 0 
 11 
-6.81818000179109 
 21 
-29.0712143866341 
 31 
 0 
 62 
 3 
 0 
LINE
 8 
TemplateLayer
 6 
CONTINUOUS
 10 
-6.81818000179109 
 20 
-29.0712143866341 
 30 
 0 
 11 
-8.19210426124183 
 21 
-27.27272605896 
 31 
 0 
 62 
 3 
 0 
LINE
 8 
TemplateLayer
 6 
CONTINUOUS
 10 
-8.19210426124183 
 20 
-27.27272605896 
 30 
 0 
 11 
-9.25396168855375 
 21 
-23.8636350631714 
 31 
 0 
 62 
 3 
 0 
LINE
 8 
TemplateLayer
 6 
CONTINUOUS
 10 
-9.25396168855375 
 20 
-23.8636350631714 
 30 
 0 
 11 
-9.95677377331248 
 21 
-20.4545440673828 
 31 
 0 
 62 
 3 
 0 
LINE
 8 
TemplateLayer
 6 
CONTINUOUS
 10 
-9.95677377331248 
 20 
-20.4545440673828 
 30 
 0 
 11 
-10.227270980348 
 21 
-19.4708636209375 
 31 
 0 
 62 
 3 
 0 
LINE
 8 
TemplateLayer
 6 
CONTINUOUS
 10 
-10.227270980348 
 20 
-19.4708636209375 
 30 
 0 
 11 
-13.1741121839408 
 21 
-17.0454530715942 
 31 
 0 
 62 
 3 
 0 
LINE
 8 
TemplateLayer
 6 
CONTINUOUS
 10 
-13.1741121839408 
 20 
-17.0454530715942 
 30 
 0 
 11 
-13.6363619710639 
 21 
-16.6446936638158 
 31 
 0 
 62 
 3 
 0 
LINE
 8 
TemplateLayer
 6 
CONTINUOUS
 10 
-13.6363619710639 
 20 
-16.6446936638158 
 30 
 0 
 11 
-16.2878772230866 
 21 
-13.6363620758057 
 31 
 0 
 62 
 3 
 0 
LINE
 8 
TemplateLayer
 6 
CONTINUOUS
 10 
-16.2878772230866 
 20 
-13.6363620758057 
 30 
 0 
 11 
-17.0454529590795 
 21 
-12.3140973661734 
 31 
 0 
 62 
 3 
 0 
LINE
 8 
TemplateLayer
 6 
CONTINUOUS
 10 
-17.0454529590795 
 20 
-12.3140973661734 
 30 
 0 
 11 
-18.3323037536054 
 21 
-10.2272710800171 
 31 
 0 
 62 
 3 
 0 
LINE
 8 
TemplateLayer
 6 
CONTINUOUS
 10 
-18.3323037536054 
 20 
-10.2272710800171 
 30 
 0 
 11 
-19.7052509264863 
 21 
-6.81818008422852 
 31 
 0 
 62 
 3 
 0 
LINE
 8 
TemplateLayer
 6 
CONTINUOUS
 10 
-19.7052509264863 
 20 
-6.81818008422852 
 30 
 0 
 11 
-20.3987255329504 
 21 
-3.40908908843994 
 31 
 0 
 62 
 3 
 0 
LINE
 8 
TemplateLayer
 6 
CONTINUOUS
 10 
-20.3987255329504 
 20 
-3.40908908843994 
 30 
 0 
 11 
-20.4545439368499 
 21 
-2.2755456533137 
 31 
 0 
 62 
 3 
 0 
LINE
 8 
TemplateLayer
 6 
CONTINUOUS
 10 
-20.4545439368499 
 20 
-2.2755456533137 
 30 
 0 
 11 
-20.8147345435672 
 21 
 1.9073486328125E-06 
 31 
 0 
 62 
 3 
 0 
LINE
 8 
TemplateLayer
 6 
CONTINUOUS
 10 
-20.8147345435672 
 20 
 1.9073486328125E-06 
 30 
 0 
 11 
-20.4545439272421 
 21 
 3.07733519941813 
 31 
 0 
 62 
 3 
 0 
LINE
 8 
TemplateLayer
 6 
CONTINUOUS
 10 
-20.4545439272421 
 20 
 3.07733519941813 
 30 
 0 
 11 
-20.4419257015072 
 21 
 3.40909290313721 
 31 
 0 
 62 
 3 
 0 
LINE
 8 
TemplateLayer
 6 
CONTINUOUS
 10 
-20.4419257015072 
 20 
 3.40909290313721 
 30 
 0 
 11 
-19.8259574344664 
 21 
 6.81818389892578 
 31 
 0 
 62 
 3 
 0 
LINE
 8 
TemplateLayer
 6 
CONTINUOUS
 10 
-19.8259574344664 
 20 
 6.81818389892578 
 30 
 0 
 11 
-18.6669517862676 
 21 
 10.2272748947144 
 31 
 0 
 62 
 3 
 0 
LINE
 8 
TemplateLayer
 6 
CONTINUOUS
 10 
-18.6669517862676 
 20 
 10.2272748947144 
 30 
 0 
 11 
-17.0454529137357 
 21 
 12.9485316058736 
 31 
 0 
 62 
 3 
 0 
LINE
 8 
TemplateLayer
 6 
CONTINUOUS
 10 
-17.0454529137357 
 20 
 12.9485316058736 
 30 
 0 
 11 
-16.6699493493246 
 21 
 13.6363658905029 
 31 
 0 
 62 
 3 
 0 
LINE
 8 
TemplateLayer
 6 
CONTINUOUS
 10 
-16.6699493493246 
 20 
 13.6363658905029 
 30 
 0 
 11 
-14.1134088174117 
 21 
 17.0454568862915 
 31 
 0 
 62 
 3 
 0 
LINE
 8 
TemplateLayer
 6 
CONTINUOUS
 10 
-14.1134088174117 
 20 
 17.0454568862915 
 30 
 0 
 11 
-13.6363619097359 
 21 
 17.52329664276 
 31 
 0 
 62 
 3 
 0 
LINE
 8 
TemplateLayer
 6 
CONTINUOUS
 10 
-13.6363619097359 
 20 
 17.52329664276 
 30 
 0 
 11 
-10.2272709089048 
 21 
 20.332668507928 
 31 
 0 
 62 
 3 
 0 
LINE
 8 
TemplateLayer
 6 
CONTINUOUS
 10 
-10.2272709089048 
 20 
 20.332668507928 
 30 
 0 
 11 
-10.18521347965 
 21 
 20.4545478820801 
 31 
 0 
 62 
 3 
 0 
LINE
 8 
TemplateLayer
 6 
CONTINUOUS
 10 
-10.18521347965 
 20 
 20.4545478820801 
 30 
 0 
 11 
-9.46502963152369 
 21 
 23.8636388778687 
 31 
 0 
 62 
 3 
 0 
LINE
 8 
TemplateLayer
 6 
CONTINUOUS
 10 
-9.46502963152369 
 20 
 23.8636388778687 
 30 
 0 
 11 
-8.92726191577034 
 21 
 27.2727298736572 
 31 
 0 
 62 
 3 
 0 
LINE
 8 
TemplateLayer
 6 
CONTINUOUS
 10 
-8.92726191577034 
 20 
 27.2727298736572 
 30 
 0 
 11 
-6.82502302962573 
 21 
 30.6818208694458 
 31 
 0 
 62 
 3 
 0 
LINE
 8 
TemplateLayer
 6 
CONTINUOUS
 10 
-6.82502302962573 
 20 
 30.6818208694458 
 30 
 0 
 11 
-6.81817989452521 
 21 
 30.6903739300195 
 31 
 0 
 62 
 3 
 0 
LINE
 8 
TemplateLayer
 6 
CONTINUOUS
 10 
-6.81817989452521 
 20 
 30.6903739300195 
 30 
 0 
 11 
-3.40908889362175 
 21 
 33.5400527550489 
 31 
 0 
 62 
 3 
 0 
LINE
 8 
TemplateLayer
 6 
CONTINUOUS
 10 
-3.40908889362175 
 20 
 33.5400527550489 
 30 
 0 
 11 
-1.9102201415293 
 21 
 34.0909118652344 
 31 
 0 
 62 
 3 
 0 
LINE
 8 
TemplateLayer
 6 
CONTINUOUS
 10 
-1.9102201415293 
 20 
 34.0909118652344 
 30 
 0 
 11 
 2.10480101166949E-06 
 21 
 35.0076525315201 
 31 
 0 
 62 
 3 
 0 
LINE
 8 
TemplateLayer
 6 
CONTINUOUS
 10 
 2.09815873358776E-06 
 20 
 31.3070062111088 
 30 
 0 
 11 
 1.10104644013849 
 21 
 30.6818208694458 
 31 
 0 
 62 
 5 
 0 
LINE
 8 
TemplateLayer
 6 
CONTINUOUS
 10 
 1.10104644013849 
 20 
 30.6818208694458 
 30 
 0 
 11 
 3.40909309096384 
 21 
 29.6448114403806 
 31 
 0 
 62 
 5 
 0 
LINE
 8 
TemplateLayer
 6 
CONTINUOUS
 10 
 3.40909309096384 
 20 
 29.6448114403806 
 30 
 0 
 11 
 5.81033367508203 
 21 
 27.2727298736572 
 31 
 0 
 62 
 5 
 0 
LINE
 8 
TemplateLayer
 6 
CONTINUOUS
 10 
 5.81033367508203 
 20 
 27.2727298736572 
 30 
 0 
 11 
 6.8181840793545 
 21 
 25.5231724882325 
 31 
 0 
 62 
 5 
 0 
LINE
 8 
TemplateLayer
 6 
CONTINUOUS
 10 
 6.8181840793545 
 20 
 25.5231724882325 
 30 
 0 
 11 
 7.50786274303207 
 21 
 23.8636388778687 
 31 
 0 
 62 
 5 
 0 
LINE
 8 
TemplateLayer
 6 
CONTINUOUS
 10 
 7.50786274303207 
 20 
 23.8636388778687 
 30 
 0 
 11 
 8.44837277313929 
 21 
 20.4545478820801 
 31 
 0 
 62 
 5 
 0 
LINE
 8 
TemplateLayer
 6 
CONTINUOUS
 10 
 8.44837277313929 
 20 
 20.4545478820801 
 30 
 0 
 11 
 8.58759981221113 
 21 
 17.0454568862915 
 31 
 0 
 62 
 5 
 0 
LINE
 8 
TemplateLayer
 6 
CONTINUOUS
 10 
 8.58759981221113 
 20 
 17.0454568862915 
 30 
 0 
 11 
 10.2272750570982 
 21 
 15.4697467422292 
 31 
 0 
 62 
 5 
 0 
LINE
 8 
TemplateLayer
 6 
CONTINUOUS
 10 
 10.2272750570982 
 20 
 15.4697467422292 
 30 
 0 
 11 
 12.1931522864184 
 21 
 13.6363658905029 
 31 
 0 
 62 
 5 
 0 
LINE
 8 
TemplateLayer
 6 
CONTINUOUS
 10 
 12.1931522864184 
 20 
 13.6363658905029 
 30 
 0 
 11 
 13.636366046727 
 21 
 12.0379359952422 
 31 
 0 
 62 
 5 
 0 
LINE
 8 
TemplateLayer
 6 
CONTINUOUS
 10 
 13.636366046727 
 20 
 12.0379359952422 
 30 
 0 
 11 
 15.0429449205411 
 21 
 10.2272748947144 
 31 
 0 
 62 
 5 
 0 
LINE
 8 
TemplateLayer
 6 
CONTINUOUS
 10 
 15.0429449205411 
 20 
 10.2272748947144 
 30 
 0 
 11 
 16.5726304282405 
 21 
 6.81818389892578 
 31 
 0 
 62 
 5 
 0 
LINE
 8 
TemplateLayer
 6 
CONTINUOUS
 10 
 16.5726304282405 
 20 
 6.81818389892578 
 30 
 0 
 11 
 17.0454570314214 
 21 
 5.85693944195056 
 31 
 0 
 62 
 5 
 0 
LINE
 8 
TemplateLayer
 6 
CONTINUOUS
 10 
 17.0454570314214 
 20 
 5.85693944195056 
 30 
 0 
 11 
 18.3936778169954 
 21 
 3.40909290313721 
 31 
 0 
 62 
 5 
 0 
LINE
 8 
TemplateLayer
 6 
CONTINUOUS
 10 
 18.3936778169954 
 20 
 3.40909290313721 
 30 
 0 
 11 
 19.0215916911244 
 21 
 1.9073486328125E-06 
 31 
 0 
 62 
 5 
 0 
LINE
 8 
TemplateLayer
 6 
CONTINUOUS
 10 
 19.0215916911244 
 20 
 1.9073486328125E-06 
 30 
 0 
 11 
 18.307400265009 
 21 
-3.40908908843994 
 31 
 0 
 62 
 5 
 0 
LINE
 8 
TemplateLayer
 6 
CONTINUOUS
 10 
 18.307400265009 
 20 
-3.40908908843994 
 30 
 0 
 11 
 17.0454570107162 
 21 
-5.67865776300845 
 31 
 0 
 62 
 5 
 0 
LINE
 8 
TemplateLayer
 6 
CONTINUOUS
 10 
 17.0454570107162 
 20 
-5.67865776300845 
 30 
 0 
 11 
 16.5308840052341 
 21 
-6.81818008422852 
 31 
 0 
 62 
 5 
 0 
LINE
 8 
TemplateLayer
 6 
CONTINUOUS
 10 
 16.5308840052341 
 20 
-6.81818008422852 
 30 
 0 
 11 
 15.1240972329599 
 21 
-10.2272710800171 
 31 
 0 
 62 
 5 
 0 
LINE
 8 
TemplateLayer
 6 
CONTINUOUS
 10 
 15.1240972329599 
 20 
-10.2272710800171 
 30 
 0 
 11 
 13.6363660032461 
 21 
-12.1868050060745 
 31 
 0 
 62 
 5 
 0 
LINE
 8 
TemplateLayer
 6 
CONTINUOUS
 10 
 13.6363660032461 
 20 
-12.1868050060745 
 30 
 0 
 11 
 12.4801456170531 
 21 
-13.6363620758057 
 31 
 0 
 62 
 5 
 0 
LINE
 8 
TemplateLayer
 6 
CONTINUOUS
 10 
 12.4801456170531 
 20 
-13.6363620758057 
 30 
 0 
 11 
 10.2272750011675 
 21 
-15.6912346449058 
 31 
 0 
 62 
 5 
 0 
LINE
 8 
TemplateLayer
 6 
CONTINUOUS
 10 
 10.2272750011675 
 20 
-15.6912346449058 
 30 
 0 
 11 
 8.75797480865996 
 21 
-17.0454530715942 
 31 
 0 
 62 
 5 
 0 
LINE
 8 
TemplateLayer
 6 
CONTINUOUS
 10 
 8.75797480865996 
 20 
-17.0454530715942 
 30 
 0 
 11 
 8.23121450517967 
 21 
-20.4545440673828 
 31 
 0 
 62 
 5 
 0 
LINE
 8 
TemplateLayer
 6 
CONTINUOUS
 10 
 8.23121450517967 
 20 
-20.4545440673828 
 30 
 0 
 11 
 7.13186571496066 
 21 
-23.8636350631714 
 31 
 0 
 62 
 5 
 0 
LINE
 8 
TemplateLayer
 6 
CONTINUOUS
 10 
 7.13186571496066 
 20 
-23.8636350631714 
 30 
 0 
 11 
 6.81818398959774 
 21 
-24.4834701479332 
 31 
 0 
 62 
 5 
 0 
LINE
 8 
TemplateLayer
 6 
CONTINUOUS
 10 
 6.81818398959774 
 20 
-24.4834701479332 
 30 
 0 
 11 
 4.69849305508779 
 21 
-27.27272605896 
 31 
 0 
 62 
 5 
 0 
LINE
 8 
TemplateLayer
 6 
CONTINUOUS
 10 
 4.69849305508779 
 20 
-27.27272605896 
 30 
 0 
 11 
 3.40909298683466 
 21 
-28.3692109238752 
 31 
 0 
 62 
 5 
 0 
LINE
 8 
TemplateLayer
 6 
CONTINUOUS
 10 
 3.40909298683466 
 20 
-28.3692109238752 
 30 
 0 
 11 
 1.98832028169144E-06 
 21 
-29.8878516127546 
 31 
 0 
 62 
 5 
 0 
LINE
 8 
TemplateLayer
 6 
CONTINUOUS
 10 
 1.98832028169144E-06 
 20 
-29.8878516127546 
 30 
 0 
 11 
-3.40908900475633 
 21 
-28.3769219526446 
 31 
 0 
 62 
 5 
 0 
LINE
 8 
TemplateLayer
 6 
CONTINUOUS
 10 
-3.40908900475633 
 20 
-28.3769219526446 
 30 
 0 
 11 
-4.71291692274514 
 21 
-27.27272605896 
 31 
 0 
 62 
 5 
 0 
LINE
 8 
TemplateLayer
 6 
CONTINUOUS
 10 
-4.71291692274514 
 20 
-27.27272605896 
 30 
 0 
 11 
-6.81817999365607 
 21 
-24.5389130264738 
 31 
 0 
 62 
 5 
 0 
LINE
 8 
TemplateLayer
 6 
CONTINUOUS
 10 
-6.81817999365607 
 20 
-24.5389130264738 
 30 
 0 
 11 
-7.1635208144751 
 21 
-23.8636350631714 
 31 
 0 
 62 
 5 
 0 
LINE
 8 
TemplateLayer
 6 
CONTINUOUS
 10 
-7.1635208144751 
 20 
-23.8636350631714 
 30 
 0 
 11 
-8.23605338379918 
 21 
-20.4545440673828 
 31 
 0 
 62 
 5 
 0 
LINE
 8 
TemplateLayer
 6 
CONTINUOUS
 10 
-8.23605338379918 
 20 
-20.4545440673828 
 30 
 0 
 11 
-8.44013907695774 
 21 
-17.0454530715942 
 31 
 0 
 62 
 5 
 0 
LINE
 8 
TemplateLayer
 6 
CONTINUOUS
 10 
-8.44013907695774 
 20 
-17.0454530715942 
 30 
 0 
 11 
-10.2272709727299 
 21 
-15.226558168315 
 31 
 0 
 62 
 5 
 0 
LINE
 8 
TemplateLayer
 6 
CONTINUOUS
 10 
-10.2272709727299 
 20 
-15.226558168315 
 30 
 0 
 11 
-11.9188624743673 
 21 
-13.6363620758057 
 31 
 0 
 62 
 5 
 0 
LINE
 8 
TemplateLayer
 6 
CONTINUOUS
 10 
-11.9188624743673 
 20 
-13.6363620758057 
 30 
 0 
 11 
-13.6363619620566 
 21 
-11.6264036829391 
 31 
 0 
 62 
 5 
 0 
LINE
 8 
TemplateLayer
 6 
CONTINUOUS
 10 
-13.6363619620566 
 20 
-11.6264036829391 
 30 
 0 
 11 
-14.7364816053071 
 21 
-10.2272710800171 
 31 
 0 
 62 
 5 
 0 
LINE
 8 
TemplateLayer
 6 
CONTINUOUS
 10 
-14.7364816053071 
 20 
-10.2272710800171 
 30 
 0 
 11 
-16.4801483452393 
 21 
-6.81818008422852 
 31 
 0 
 62 
 5 
 0 
LINE
 8 
TemplateLayer
 6 
CONTINUOUS
 10 
-16.4801483452393 
 20 
-6.81818008422852 
 30 
 0 
 11 
-17.0454529471628 
 21 
-5.67488257710296 
 31 
 0 
 62 
 5 
 0 
LINE
 8 
TemplateLayer
 6 
CONTINUOUS
 10 
-17.0454529471628 
 20 
-5.67488257710296 
 30 
 0 
 11 
-18.3159473911202 
 21 
-3.40908908843994 
 31 
 0 
 62 
 5 
 0 
LINE
 8 
TemplateLayer
 6 
CONTINUOUS
 10 
-18.3159473911202 
 20 
-3.40908908843994 
 30 
 0 
 11 
-18.9857879334252 
 21 
 1.9073486328125E-06 
 31 
 0 
 62 
 5 
 0 
LINE
 8 
TemplateLayer
 6 
CONTINUOUS
 10 
-18.9857879334252 
 20 
 1.9073486328125E-06 
 30 
 0 
 11 
-18.2663729340105 
 21 
 3.40909290313721 
 31 
 0 
 62 
 5 
 0 
LINE
 8 
TemplateLayer
 6 
CONTINUOUS
 10 
-18.2663729340105 
 20 
 3.40909290313721 
 30 
 0 
 11 
-17.0454529269281 
 21 
 5.59858902673398 
 31 
 0 
 62 
 5 
 0 
LINE
 8 
TemplateLayer
 6 
CONTINUOUS
 10 
-17.0454529269281 
 20 
 5.59858902673398 
 30 
 0 
 11 
-16.4763607934916 
 21 
 6.81818389892578 
 31 
 0 
 62 
 5 
 0 
LINE
 8 
TemplateLayer
 6 
CONTINUOUS
 10 
-16.4763607934916 
 20 
 6.81818389892578 
 30 
 0 
 11 
-14.9518386924415 
 21 
 10.2272748947144 
 31 
 0 
 62 
 5 
 0 
LINE
 8 
TemplateLayer
 6 
CONTINUOUS
 10 
-14.9518386924415 
 20 
 10.2272748947144 
 30 
 0 
 11 
-13.6363619197314 
 21 
 11.9544570559953 
 31 
 0 
 62 
 5 
 0 
LINE
 8 
TemplateLayer
 6 
CONTINUOUS
 10 
-13.6363619197314 
 20 
 11.9544570559953 
 30 
 0 
 11 
-12.6337410532778 
 21 
 13.6363658905029 
 31 
 0 
 62 
 5 
 0 
LINE
 8 
TemplateLayer
 6 
CONTINUOUS
 10 
-12.6337410532778 
 20 
 13.6363658905029 
 30 
 0 
 11 
-10.2272709159848 
 21 
 16.3881216153018 
 31 
 0 
 62 
 5 
 0 
LINE
 8 
TemplateLayer
 6 
CONTINUOUS
 10 
-10.2272709159848 
 20 
 16.3881216153018 
 30 
 0 
 11 
-9.6831447561271 
 21 
 17.0454568862915 
 31 
 0 
 62 
 5 
 0 
LINE
 8 
TemplateLayer
 6 
CONTINUOUS
 10 
-9.6831447561271 
 20 
 17.0454568862915 
 30 
 0 
 11 
-8.66139305524374 
 21 
 20.4545478820801 
 31 
 0 
 62 
 5 
 0 
LINE
 8 
TemplateLayer
 6 
CONTINUOUS
 10 
-8.66139305524374 
 20 
 20.4545478820801 
 30 
 0 
 11 
-7.57361207208256 
 21 
 23.8636388778687 
 31 
 0 
 62 
 5 
 0 
LINE
 8 
TemplateLayer
 6 
CONTINUOUS
 10 
-7.57361207208256 
 20 
 23.8636388778687 
 30 
 0 
 11 
-6.81817990360293 
 21 
 25.6328577833831 
 31 
 0 
 62 
 5 
 0 
LINE
 8 
TemplateLayer
 6 
CONTINUOUS
 10 
-6.81817990360293 
 20 
 25.6328577833831 
 30 
 0 
 11 
-5.84347671081148 
 21 
 27.2727298736572 
 31 
 0 
 62 
 5 
 0 
LINE
 8 
TemplateLayer
 6 
CONTINUOUS
 10 
-5.84347671081148 
 20 
 27.2727298736572 
 30 
 0 
 11 
-3.40908890058359 
 21 
 29.6613669332763 
 31 
 0 
 62 
 5 
 0 
LINE
 8 
TemplateLayer
 6 
CONTINUOUS
 10 
-3.40908890058359 
 20 
 29.6613669332763 
 30 
 0 
 11 
-1.11193625299605 
 21 
 30.6818208694458 
 31 
 0 
 62 
 5 
 0 
LINE
 8 
TemplateLayer
 6 
CONTINUOUS
 10 
-1.11193625299605 
 20 
 30.6818208694458 
 30 
 0 
 11 
 2.09815873358776E-06 
 21 
 31.3070062111088 
 31 
 0 
 62 
 5 
 0 
LINE
 8 
TemplateLayer
 6 
CONTINUOUS
 10 
 2.09154379357535E-06 
 20 
 27.6215908887859 
 30 
 0 
 11 
 0.545181963088686 
 21 
 27.2727298736572 
 31 
 0 
 62 
 6 
 0 
LINE
 8 
TemplateLayer
 6 
CONTINUOUS
 10 
 0.545181963088686 
 20 
 27.2727298736572 
 30 
 0 
 11 
 3.40909308352513 
 21 
 25.5004476636424 
 31 
 0 
 62 
 6 
 0 
LINE
 8 
TemplateLayer
 6 
CONTINUOUS
 10 
 3.40909308352513 
 20 
 25.5004476636424 
 30 
 0 
 11 
 4.7031868746651 
 21 
 23.8636388778687 
 31 
 0 
 62 
 6 
 0 
LINE
 8 
TemplateLayer
 6 
CONTINUOUS
 10 
 4.7031868746651 
 20 
 23.8636388778687 
 30 
 0 
 11 
 6.18550823689775 
 21 
 20.4545478820801 
 31 
 0 
 62 
 6 
 0 
LINE
 8 
TemplateLayer
 6 
CONTINUOUS
 10 
 6.18550823689775 
 20 
 20.4545478820801 
 30 
 0 
 11 
 6.29420556879919 
 21 
 17.0454568862915 
 31 
 0 
 62 
 6 
 0 
LINE
 8 
TemplateLayer
 6 
CONTINUOUS
 10 
 6.29420556879919 
 20 
 17.0454568862915 
 30 
 0 
 11 
 6.76233588781779 
 21 
 13.6363658905029 
 31 
 0 
 62 
 6 
 0 
LINE
 8 
TemplateLayer
 6 
CONTINUOUS
 10 
 6.76233588781779 
 20 
 13.6363658905029 
 30 
 0 
 11 
 6.81818405751783 
 21 
 13.3571995166959 
 31 
 0 
 62 
 6 
 0 
LINE
 8 
TemplateLayer
 6 
CONTINUOUS
 10 
 6.81818405751783 
 20 
 13.3571995166959 
 30 
 0 
 11 
 10.2272750505922 
 21 
 11.8449993586458 
 31 
 0 
 62 
 6 
 0 
LINE
 8 
TemplateLayer
 6 
CONTINUOUS
 10 
 10.2272750505922 
 20 
 11.8449993586458 
 30 
 0 
 11 
 11.7834801681622 
 21 
 10.2272748947144 
 31 
 0 
 62 
 6 
 0 
LINE
 8 
TemplateLayer
 6 
CONTINUOUS
 10 
 11.7834801681622 
 20 
 10.2272748947144 
 30 
 0 
 11 
 13.145968237462 
 21 
 6.81818389892578 
 31 
 0 
 62 
 6 
 0 
LINE
 8 
TemplateLayer
 6 
CONTINUOUS
 10 
 13.145968237462 
 20 
 6.81818389892578 
 30 
 0 
 11 
 13.636366035009 
 21 
 5.50942658899682 
 31 
 0 
 62 
 6 
 0 
LINE
 8 
TemplateLayer
 6 
CONTINUOUS
 10 
 13.636366035009 
 20 
 5.50942658899682 
 30 
 0 
 11 
 14.7994868127472 
 21 
 3.40909290313721 
 31 
 0 
 62 
 6 
 0 
LINE
 8 
TemplateLayer
 6 
CONTINUOUS
 10 
 14.7994868127472 
 20 
 3.40909290313721 
 30 
 0 
 11 
 15.88916746962 
 21 
 1.9073486328125E-06 
 31 
 0 
 62 
 6 
 0 
LINE
 8 
TemplateLayer
 6 
CONTINUOUS
 10 
 15.88916746962 
 20 
 1.9073486328125E-06 
 30 
 0 
 11 
 14.8820246529737 
 21 
-3.40908908843994 
 31 
 0 
 62 
 6 
 0 
LINE
 8 
TemplateLayer
 6 
CONTINUOUS
 10 
 14.8820246529737 
 20 
-3.40908908843994 
 30 
 0 
 11 
 13.6363660148071 
 21 
-5.74579142976741 
 31 
 0 
 62 
 6 
 0 
LINE
 8 
TemplateLayer
 6 
CONTINUOUS
 10 
 13.6363660148071 
 20 
-5.74579142976741 
 30 
 0 
 11 
 13.235384153285 
 21 
-6.81818008422852 
 31 
 0 
 62 
 6 
 0 
LINE
 8 
TemplateLayer
 6 
CONTINUOUS
 10 
 13.235384153285 
 20 
-6.81818008422852 
 30 
 0 
 11 
 11.8057358510993 
 21 
-10.2272710800171 
 31 
 0 
 62 
 6 
 0 
LINE
 8 
TemplateLayer
 6 
CONTINUOUS
 10 
 11.8057358510993 
 20 
-10.2272710800171 
 30 
 0 
 11 
 10.2272750078609 
 21 
-11.9620863393346 
 31 
 0 
 62 
 6 
 0 
LINE
 8 
TemplateLayer
 6 
CONTINUOUS
 10 
 10.2272750078609 
 20 
-11.9620863393346 
 30 
 0 
 11 
 7.79808125202589 
 21 
-13.6363620758057 
 31 
 0 
 62 
 6 
 0 
LINE
 8 
TemplateLayer
 6 
CONTINUOUS
 10 
 7.79808125202589 
 20 
-13.6363620758057 
 30 
 0 
 11 
 6.81818400740946 
 21 
-14.5599346295213 
 31 
 0 
 62 
 6 
 0 
LINE
 8 
TemplateLayer
 6 
CONTINUOUS
 10 
 6.81818400740946 
 20 
-14.5599346295213 
 30 
 0 
 11 
 6.37379152674112 
 21 
-17.0454530715942 
 31 
 0 
 62 
 6 
 0 
LINE
 8 
TemplateLayer
 6 
CONTINUOUS
 10 
 6.37379152674112 
 20 
-17.0454530715942 
 30 
 0 
 11 
 6.01556411399633 
 21 
-20.4545440673828 
 31 
 0 
 62 
 6 
 0 
LINE
 8 
TemplateLayer
 6 
CONTINUOUS
 10 
 6.01556411399633 
 20 
-20.4545440673828 
 30 
 0 
 11 
 4.25443686904628 
 21 
-23.8636350631714 
 31 
 0 
 62 
 6 
 0 
LINE
 8 
TemplateLayer
 6 
CONTINUOUS
 10 
 4.25443686904628 
 20 
-23.8636350631714 
 30 
 0 
 11 
 3.40909299322462 
 21 
-24.8091410130761 
 31 
 0 
 62 
 6 
 0 
LINE
 8 
TemplateLayer
 6 
CONTINUOUS
 10 
 3.40909299322462 
 20 
-24.8091410130761 
 30 
 0 
 11 
 1.9938758748575E-06 
 21 
-26.7926356112292 
 31 
 0 
 62 
 6 
 0 
LINE
 8 
TemplateLayer
 6 
CONTINUOUS
 10 
 1.9938758748575E-06 
 20 
-26.7926356112292 
 30 
 0 
 11 
-3.40908899837335 
 21 
-24.8207410537953 
 31 
 0 
 62 
 6 
 0 
LINE
 8 
TemplateLayer
 6 
CONTINUOUS
 10 
-3.40908899837335 
 20 
-24.8207410537953 
 30 
 0 
 11 
-4.26907237556307 
 21 
-23.8636350631714 
 31 
 0 
 62 
 6 
 0 
LINE
 8 
TemplateLayer
 6 
CONTINUOUS
 10 
-4.26907237556307 
 20 
-23.8636350631714 
 30 
 0 
 11 
-6.0148836227335 
 21 
-20.4545440673828 
 31 
 0 
 62 
 6 
 0 
LINE
 8 
TemplateLayer
 6 
CONTINUOUS
 10 
-6.0148836227335 
 20 
-20.4545440673828 
 30 
 0 
 11 
-6.33037562269104 
 21 
-17.0454530715942 
 31 
 0 
 62 
 6 
 0 
LINE
 8 
TemplateLayer
 6 
CONTINUOUS
 10 
-6.33037562269104 
 20 
-17.0454530715942 
 30 
 0 
 11 
-6.81817997484512 
 21 
-14.0586720373048 
 31 
 0 
 62 
 6 
 0 
LINE
 8 
TemplateLayer
 6 
CONTINUOUS
 10 
-6.81817997484512 
 20 
-14.0586720373048 
 30 
 0 
 11 
-7.23532745726353 
 21 
-13.6363620758057 
 31 
 0 
 62 
 6 
 0 
LINE
 8 
TemplateLayer
 6 
CONTINUOUS
 10 
-7.23532745726353 
 20 
-13.6363620758057 
 30 
 0 
 11 
-10.2272709661521 
 21 
-11.5618422128966 
 31 
 0 
 62 
 6 
 0 
LINE
 8 
TemplateLayer
 6 
CONTINUOUS
 10 
-10.2272709661521 
 20 
-11.5618422128966 
 30 
 0 
 11 
-11.4801167559955 
 21 
-10.2272710800171 
 31 
 0 
 62 
 6 
 0 
LINE
 8 
TemplateLayer
 6 
CONTINUOUS
 10 
-11.4801167559955 
 20 
-10.2272710800171 
 30 
 0 
 11 
-13.129498970589 
 21 
-6.81818008422852 
 31 
 0 
 62 
 6 
 0 
LINE
 8 
TemplateLayer
 6 
CONTINUOUS
 10 
-13.129498970589 
 20 
-6.81818008422852 
 30 
 0 
 11 
-13.636361950674 
 21 
-5.28476826952367 
 31 
 0 
 62 
 6 
 0 
LINE
 8 
TemplateLayer
 6 
CONTINUOUS
 10 
-13.636361950674 
 20 
-5.28476826952367 
 30 
 0 
 11 
-14.605874940497 
 21 
-3.40908908843994 
 31 
 0 
 62 
 6 
 0 
LINE
 8 
TemplateLayer
 6 
CONTINUOUS
 10 
-14.605874940497 
 20 
-3.40908908843994 
 30 
 0 
 11 
-15.709183460957 
 21 
 1.9073486328125E-06 
 31 
 0 
 62 
 6 
 0 
LINE
 8 
TemplateLayer
 6 
CONTINUOUS
 10 
-15.709183460957 
 20 
 1.9073486328125E-06 
 30 
 0 
 11 
-14.6310997698935 
 21 
 3.40909290313721 
 31 
 0 
 62 
 6 
 0 
LINE
 8 
TemplateLayer
 6 
CONTINUOUS
 10 
-14.6310997698935 
 20 
 3.40909290313721 
 30 
 0 
 11 
-13.6363619315573 
 21 
 5.36582144130766 
 31 
 0 
 62 
 6 
 0 
LINE
 8 
TemplateLayer
 6 
CONTINUOUS
 10 
-13.6363619315573 
 20 
 5.36582144130766 
 30 
 0 
 11 
-13.1676997517938 
 21 
 6.81818389892578 
 31 
 0 
 62 
 6 
 0 
LINE
 8 
TemplateLayer
 6 
CONTINUOUS
 10 
-13.1676997517938 
 20 
 6.81818389892578 
 30 
 0 
 11 
-11.776747974547 
 21 
 10.2272748947144 
 31 
 0 
 62 
 6 
 0 
LINE
 8 
TemplateLayer
 6 
CONTINUOUS
 10 
-11.776747974547 
 20 
 10.2272748947144 
 30 
 0 
 11 
-10.2272709234931 
 21 
 12.2050092419616 
 31 
 0 
 62 
 6 
 0 
LINE
 8 
TemplateLayer
 6 
CONTINUOUS
 10 
-10.2272709234931 
 20 
 12.2050092419616 
 30 
 0 
 11 
-8.92577062857294 
 21 
 13.6363658905029 
 31 
 0 
 62 
 6 
 0 
LINE
 8 
TemplateLayer
 6 
CONTINUOUS
 10 
-8.92577062857294 
 20 
 13.6363658905029 
 30 
 0 
 11 
-6.81817992086951 
 21 
 16.0130397632186 
 31 
 0 
 62 
 6 
 0 
LINE
 8 
TemplateLayer
 6 
CONTINUOUS
 10 
-6.81817992086951 
 20 
 16.0130397632186 
 30 
 0 
 11 
-6.57321302242077 
 21 
 17.0454568862915 
 31 
 0 
 62 
 6 
 0 
LINE
 8 
TemplateLayer
 6 
CONTINUOUS
 10 
-6.57321302242077 
 20 
 17.0454568862915 
 30 
 0 
 11 
-6.29441802386594 
 21 
 20.4545478820801 
 31 
 0 
 62 
 6 
 0 
LINE
 8 
TemplateLayer
 6 
CONTINUOUS
 10 
-6.29441802386594 
 20 
 20.4545478820801 
 30 
 0 
 11 
-4.73710015627236 
 21 
 23.8636388778687 
 31 
 0 
 62 
 6 
 0 
LINE
 8 
TemplateLayer
 6 
CONTINUOUS
 10 
-4.73710015627236 
 20 
 23.8636388778687 
 30 
 0 
 11 
-3.40908890800923 
 21 
 25.5242862022035 
 31 
 0 
 62 
 6 
 0 
LINE
 8 
TemplateLayer
 6 
CONTINUOUS
 10 
-3.40908890800923 
 20 
 25.5242862022035 
 30 
 0 
 11 
-0.548495765001698 
 21 
 27.2727298736572 
 31 
 0 
 62 
 6 
 0 
LINE
 8 
TemplateLayer
 6 
CONTINUOUS
 10 
-0.548495765001698 
 20 
 27.2727298736572 
 30 
 0 
 11 
 2.09154379357535E-06 
 21 
 27.6215908887859 
 31 
 0 
 62 
 6 
 0 
LINE
 8 
TemplateLayer
 6 
CONTINUOUS
 10 
 2.08250590417319E-06 
 20 
 22.5862653961198 
 30 
 0 
 11 
 2.3155109266748 
 21 
 20.4545478820801 
 31 
 0 
 62 
 214 
 0 
LINE
 8 
TemplateLayer
 6 
CONTINUOUS
 10 
 2.3155109266748 
 20 
 20.4545478820801 
 30 
 0 
 11 
 3.40909307147987 
 21 
 18.7896081328436 
 31 
 0 
 62 
 214 
 0 
LINE
 8 
TemplateLayer
 6 
CONTINUOUS
 10 
 3.40909307147987 
 20 
 18.7896081328436 
 30 
 0 
 11 
 4.09138129883859 
 21 
 17.0454568862915 
 31 
 0 
 62 
 214 
 0 
LINE
 8 
TemplateLayer
 6 
CONTINUOUS
 10 
 4.09138129883859 
 20 
 17.0454568862915 
 30 
 0 
 11 
 5.15750400596337 
 21 
 13.6363658905029 
 31 
 0 
 62 
 214 
 0 
LINE
 8 
TemplateLayer
 6 
CONTINUOUS
 10 
 5.15750400596337 
 20 
 13.6363658905029 
 30 
 0 
 11 
 5.40221207141312 
 21 
 10.2272748947144 
 31 
 0 
 62 
 214 
 0 
LINE
 8 
TemplateLayer
 6 
CONTINUOUS
 10 
 5.40221207141312 
 20 
 10.2272748947144 
 30 
 0 
 11 
 6.76102852843346 
 21 
 6.81818389892578 
 31 
 0 
 62 
 214 
 0 
LINE
 8 
TemplateLayer
 6 
CONTINUOUS
 10 
 6.76102852843346 
 20 
 6.81818389892578 
 30 
 0 
 11 
 6.81818404554666 
 21 
 6.68763668944565 
 31 
 0 
 62 
 214 
 0 
LINE
 8 
TemplateLayer
 6 
CONTINUOUS
 10 
 6.81818404554666 
 20 
 6.68763668944565 
 30 
 0 
 11 
 10.1724491391007 
 21 
 3.40909290313721 
 31 
 0 
 62 
 214 
 0 
LINE
 8 
TemplateLayer
 6 
CONTINUOUS
 10 
 10.1724491391007 
 20 
 3.40909290313721 
 30 
 0 
 11 
 10.2272750353197 
 21 
 3.3361622198554 
 31 
 0 
 62 
 214 
 0 
LINE
 8 
TemplateLayer
 6 
CONTINUOUS
 10 
 10.2272750353197 
 20 
 3.3361622198554 
 30 
 0 
 11 
 11.5762494375091 
 21 
 1.9073486328125E-06 
 31 
 0 
 62 
 214 
 0 
LINE
 8 
TemplateLayer
 6 
CONTINUOUS
 10 
 11.5762494375091 
 20 
 1.9073486328125E-06 
 30 
 0 
 11 
 10.227275023559 
 21 
-3.21613002864369 
 31 
 0 
 62 
 214 
 0 
LINE
 8 
TemplateLayer
 6 
CONTINUOUS
 10 
 10.227275023559 
 20 
-3.21613002864369 
 30 
 0 
 11 
 10.0747790807975 
 21 
-3.40908908843994 
 31 
 0 
 62 
 214 
 0 
LINE
 8 
TemplateLayer
 6 
CONTINUOUS
 10 
 10.0747790807975 
 20 
-3.40908908843994 
 30 
 0 
 11 
 6.81818402130966 
 21 
-6.81564518603035 
 31 
 0 
 62 
 214 
 0 
LINE
 8 
TemplateLayer
 6 
CONTINUOUS
 10 
 6.81818402130966 
 20 
-6.81564518603035 
 30 
 0 
 11 
 6.81732032368405 
 21 
-6.81818008422852 
 31 
 0 
 62 
 214 
 0 
LINE
 8 
TemplateLayer
 6 
CONTINUOUS
 10 
 6.81732032368405 
 20 
-6.81818008422852 
 30 
 0 
 11 
 5.96314564722288 
 21 
-10.2272710800171 
 31 
 0 
 62 
 214 
 0 
LINE
 8 
TemplateLayer
 6 
CONTINUOUS
 10 
 5.96314564722288 
 20 
-10.2272710800171 
 30 
 0 
 11 
 5.46049678021302 
 21 
-13.6363620758057 
 31 
 0 
 62 
 214 
 0 
LINE
 8 
TemplateLayer
 6 
CONTINUOUS
 10 
 5.46049678021302 
 20 
-13.6363620758057 
 30 
 0 
 11 
 4.33685124701513 
 21 
-17.0454530715942 
 31 
 0 
 62 
 214 
 0 
LINE
 8 
TemplateLayer
 6 
CONTINUOUS
 10 
 4.33685124701513 
 20 
-17.0454530715942 
 30 
 0 
 11 
 3.40909300375117 
 21 
-18.9444263524411 
 31 
 0 
 62 
 214 
 0 
LINE
 8 
TemplateLayer
 6 
CONTINUOUS
 10 
 3.40909300375117 
 20 
-18.9444263524411 
 30 
 0 
 11 
 2.04676054703868 
 21 
-20.4545440673828 
 31 
 0 
 62 
 214 
 0 
LINE
 8 
TemplateLayer
 6 
CONTINUOUS
 10 
 2.04676054703868 
 20 
-20.4545440673828 
 30 
 0 
 11 
 2.00199509672178E-06 
 21 
-22.2691320564311 
 31 
 0 
 62 
 214 
 0 
LINE
 8 
TemplateLayer
 6 
CONTINUOUS
 10 
 2.00199509672178E-06 
 20 
-22.2691320564311 
 30 
 0 
 11 
-2.04225004654167 
 21 
-20.4545440673828 
 31 
 0 
 62 
 214 
 0 
LINE
 8 
TemplateLayer
 6 
CONTINUOUS
 10 
-2.04225004654167 
 20 
-20.4545440673828 
 30 
 0 
 11 
-3.40908898777041 
 21 
-18.9134712075617 
 31 
 0 
 62 
 214 
 0 
LINE
 8 
TemplateLayer
 6 
CONTINUOUS
 10 
-3.40908898777041 
 20 
-18.9134712075617 
 30 
 0 
 11 
-4.30376845870049 
 21 
-17.0454530715942 
 31 
 0 
 62 
 214 
 0 
LINE
 8 
TemplateLayer
 6 
CONTINUOUS
 10 
-4.30376845870049 
 20 
-17.0454530715942 
 30 
 0 
 11 
-5.38272884634067 
 21 
-13.6363620758057 
 31 
 0 
 62 
 214 
 0 
LINE
 8 
TemplateLayer
 6 
CONTINUOUS
 10 
-5.38272884634067 
 20 
-13.6363620758057 
 30 
 0 
 11 
-5.8931242979455 
 21 
-10.2272710800171 
 31 
 0 
 62 
 214 
 0 
LINE
 8 
TemplateLayer
 6 
CONTINUOUS
 10 
-5.8931242979455 
 20 
-10.2272710800171 
 30 
 0 
 11 
-6.77027190242175 
 21 
-6.81818008422852 
 31 
 0 
 62 
 214 
 0 
LINE
 8 
TemplateLayer
 6 
CONTINUOUS
 10 
-6.77027190242175 
 20 
-6.81818008422852 
 30 
 0 
 11 
-6.81817996154798 
 21 
-6.65036445928291 
 31 
 0 
 62 
 214 
 0 
LINE
 8 
TemplateLayer
 6 
CONTINUOUS
 10 
-6.81817996154798 
 20 
-6.65036445928291 
 30 
 0 
 11 
-9.62173971998489 
 21 
-3.40908908843994 
 31 
 0 
 62 
 214 
 0 
LINE
 8 
TemplateLayer
 6 
CONTINUOUS
 10 
-9.62173971998489 
 20 
-3.40908908843994 
 30 
 0 
 11 
-10.2272709500503 
 21 
-2.59091709364392 
 31 
 0 
 62 
 214 
 0 
LINE
 8 
TemplateLayer
 6 
CONTINUOUS
 10 
-10.2272709500503 
 20 
-2.59091709364392 
 30 
 0 
 11 
-11.2622210466929 
 21 
 1.9073486328125E-06 
 31 
 0 
 62 
 214 
 0 
LINE
 8 
TemplateLayer
 6 
CONTINUOUS
 10 
-11.2622210466929 
 20 
 1.9073486328125E-06 
 30 
 0 
 11 
-10.2272709406637 
 21 
 2.63866882788288 
 31 
 0 
 62 
 214 
 0 
LINE
 8 
TemplateLayer
 6 
CONTINUOUS
 10 
-10.2272709406637 
 20 
 2.63866882788288 
 30 
 0 
 11 
-9.66040928953542 
 21 
 3.40909290313721 
 31 
 0 
 62 
 214 
 0 
LINE
 8 
TemplateLayer
 6 
CONTINUOUS
 10 
-9.66040928953542 
 20 
 3.40909290313721 
 30 
 0 
 11 
-6.81817993820335 
 21 
 6.35574678454738 
 31 
 0 
 62 
 214 
 0 
LINE
 8 
TemplateLayer
 6 
CONTINUOUS
 10 
-6.81817993820335 
 20 
 6.35574678454738 
 30 
 0 
 11 
-6.73263925075297 
 21 
 6.81818389892578 
 31 
 0 
 62 
 214 
 0 
LINE
 8 
TemplateLayer
 6 
CONTINUOUS
 10 
-6.73263925075297 
 20 
 6.81818389892578 
 30 
 0 
 11 
-6.05885913795296 
 21 
 10.2272748947144 
 31 
 0 
 62 
 214 
 0 
LINE
 8 
TemplateLayer
 6 
CONTINUOUS
 10 
-6.05885913795296 
 20 
 10.2272748947144 
 30 
 0 
 11 
-5.60192329192059 
 21 
 13.6363658905029 
 31 
 0 
 62 
 214 
 0 
LINE
 8 
TemplateLayer
 6 
CONTINUOUS
 10 
-5.60192329192059 
 20 
 13.6363658905029 
 30 
 0 
 11 
-4.32649763500249 
 21 
 17.0454568862915 
 31 
 0 
 62 
 214 
 0 
LINE
 8 
TemplateLayer
 6 
CONTINUOUS
 10 
-4.32649763500249 
 20 
 17.0454568862915 
 30 
 0 
 11 
-3.40908891956764 
 21 
 19.0846857106887 
 31 
 0 
 62 
 214 
 0 
LINE
 8 
TemplateLayer
 6 
CONTINUOUS
 10 
-3.40908891956764 
 20 
 19.0846857106887 
 30 
 0 
 11 
-2.37045854510029 
 21 
 20.4545478820801 
 31 
 0 
 62 
 214 
 0 
LINE
 8 
TemplateLayer
 6 
CONTINUOUS
 10 
-2.37045854510029 
 20 
 20.4545478820801 
 30 
 0 
 11 
 2.08250590417319E-06 
 21 
 22.5862653961198 
 31 
 0 
 62 
 214 
 0 
LINE
 8 
TemplateLayer
 6 
CONTINUOUS
 10 
 2.07425098019964E-06 
 20 
 17.9871574309357 
 30 
 0 
 11 
 0.771894836182447 
 21 
 17.0454568862915 
 31 
 0 
 62 
 30 
 0 
LINE
 8 
TemplateLayer
 6 
CONTINUOUS
 10 
 0.771894836182447 
 20 
 17.0454568862915 
 30 
 0 
 11 
 2.89713967146438 
 21 
 13.6363658905029 
 31 
 0 
 62 
 30 
 0 
LINE
 8 
TemplateLayer
 6 
CONTINUOUS
 10 
 2.89713967146438 
 20 
 13.6363658905029 
 30 
 0 
 11 
 2.8833366108907 
 21 
 10.2272748947144 
 31 
 0 
 62 
 30 
 0 
LINE
 8 
TemplateLayer
 6 
CONTINUOUS
 10 
 2.8833366108907 
 20 
 10.2272748947144 
 30 
 0 
 11 
 3.34025085538531 
 21 
 6.81818389892578 
 31 
 0 
 62 
 30 
 0 
LINE
 8 
TemplateLayer
 6 
CONTINUOUS
 10 
 3.34025085538531 
 20 
 6.81818389892578 
 30 
 0 
 11 
 3.40909304969353 
 21 
 6.65167370621943 
 31 
 0 
 62 
 30 
 0 
LINE
 8 
TemplateLayer
 6 
CONTINUOUS
 10 
 3.40909304969353 
 20 
 6.65167370621943 
 30 
 0 
 11 
 5.88540994414588 
 21 
 3.40909290313721 
 31 
 0 
 62 
 30 
 0 
LINE
 8 
TemplateLayer
 6 
CONTINUOUS
 10 
 5.88540994414588 
 20 
 3.40909290313721 
 30 
 0 
 11 
 6.58255813789652 
 21 
 1.9073486328125E-06 
 31 
 0 
 62 
 30 
 0 
LINE
 8 
TemplateLayer
 6 
CONTINUOUS
 10 
 6.58255813789652 
 20 
 1.9073486328125E-06 
 30 
 0 
 11 
 5.86759378011122 
 21 
-3.40908908843994 
 31 
 0 
 62 
 30 
 0 
LINE
 8 
TemplateLayer
 6 
CONTINUOUS
 10 
 5.86759378011122 
 20 
-3.40908908843994 
 30 
 0 
 11 
 3.73267251477582 
 21 
-6.81818008422852 
 31 
 0 
 62 
 30 
 0 
LINE
 8 
TemplateLayer
 6 
CONTINUOUS
 10 
 3.73267251477582 
 20 
-6.81818008422852 
 30 
 0 
 11 
 3.40909302335416 
 21 
-8.0229155893521 
 31 
 0 
 62 
 30 
 0 
LINE
 8 
TemplateLayer
 6 
CONTINUOUS
 10 
 3.40909302335416 
 20 
-8.0229155893521 
 30 
 0 
 11 
 3.23044612112793 
 21 
-10.2272710800171 
 31 
 0 
 62 
 30 
 0 
LINE
 8 
TemplateLayer
 6 
CONTINUOUS
 10 
 3.23044612112793 
 20 
-10.2272710800171 
 30 
 0 
 11 
 3.17542169776889 
 21 
-13.6363620758057 
 31 
 0 
 62 
 30 
 0 
LINE
 8 
TemplateLayer
 6 
CONTINUOUS
 10 
 3.17542169776889 
 20 
-13.6363620758057 
 30 
 0 
 11 
 1.21665538081256 
 21 
-17.0454530715942 
 31 
 0 
 62 
 30 
 0 
LINE
 8 
TemplateLayer
 6 
CONTINUOUS
 10 
 1.21665538081256 
 20 
-17.0454530715942 
 30 
 0 
 11 
 2.00907936084849E-06 
 21 
-18.3222397916554 
 31 
 0 
 62 
 30 
 0 
LINE
 8 
TemplateLayer
 6 
CONTINUOUS
 10 
 2.00907936084849E-06 
 20 
-18.3222397916554 
 30 
 0 
 11 
-1.20767398364184 
 21 
-17.0454530715942 
 31 
 0 
 62 
 30 
 0 
LINE
 8 
TemplateLayer
 6 
CONTINUOUS
 10 
-1.20767398364184 
 20 
-17.0454530715942 
 30 
 0 
 11 
-3.12890630439653 
 21 
-13.6363620758057 
 31 
 0 
 62 
 30 
 0 
LINE
 8 
TemplateLayer
 6 
CONTINUOUS
 10 
-3.12890630439653 
 20 
-13.6363620758057 
 30 
 0 
 11 
-3.21586739435127 
 21 
-10.2272710800171 
 31 
 0 
 62 
 30 
 0 
LINE
 8 
TemplateLayer
 6 
CONTINUOUS
 10 
-3.21586739435127 
 20 
-10.2272710800171 
 30 
 0 
 11 
-3.4090889682925 
 21 
-8.06164424823113 
 31 
 0 
 62 
 30 
 0 
LINE
 8 
TemplateLayer
 6 
CONTINUOUS
 10 
-3.4090889682925 
 20 
-8.06164424823113 
 30 
 0 
 11 
-3.76851864301266 
 21 
-6.81818008422852 
 31 
 0 
 62 
 30 
 0 
LINE
 8 
TemplateLayer
 6 
CONTINUOUS
 10 
-3.76851864301266 
 20 
-6.81818008422852 
 30 
 0 
 11 
-5.82655434909994 
 21 
-3.40908908843994 
 31 
 0 
 62 
 30 
 0 
LINE
 8 
TemplateLayer
 6 
CONTINUOUS
 10 
-5.82655434909994 
 20 
-3.40908908843994 
 30 
 0 
 11 
-6.50605793102301 
 21 
 1.9073486328125E-06 
 31 
 0 
 62 
 30 
 0 
LINE
 8 
TemplateLayer
 6 
CONTINUOUS
 10 
-6.50605793102301 
 20 
 1.9073486328125E-06 
 30 
 0 
 11 
-5.87901993882009 
 21 
 3.40909290313721 
 31 
 0 
 62 
 30 
 0 
LINE
 8 
TemplateLayer
 6 
CONTINUOUS
 10 
-5.87901993882009 
 20 
 3.40909290313721 
 30 
 0 
 11 
-4.96672837693932 
 21 
 6.81818389892578 
 31 
 0 
 62 
 30 
 0 
LINE
 8 
TemplateLayer
 6 
CONTINUOUS
 10 
-4.96672837693932 
 20 
 6.81818389892578 
 30 
 0 
 11 
-3.40908893687687 
 21 
 9.44110585812371 
 31 
 0 
 62 
 30 
 0 
LINE
 8 
TemplateLayer
 6 
CONTINUOUS
 10 
-3.40908893687687 
 20 
 9.44110585812371 
 30 
 0 
 11 
-3.10084616881527 
 21 
 10.2272748947144 
 31 
 0 
 62 
 30 
 0 
LINE
 8 
TemplateLayer
 6 
CONTINUOUS
 10 
-3.10084616881527 
 20 
 10.2272748947144 
 30 
 0 
 11 
-3.10814218221018 
 21 
 13.6363658905029 
 31 
 0 
 62 
 30 
 0 
LINE
 8 
TemplateLayer
 6 
CONTINUOUS
 10 
-3.10814218221018 
 20 
 13.6363658905029 
 30 
 0 
 11 
-0.817863847552851 
 21 
 17.0454568862915 
 31 
 0 
 62 
 30 
 0 
LINE
 8 
TemplateLayer
 6 
CONTINUOUS
 10 
-0.817863847552851 
 20 
 17.0454568862915 
 30 
 0 
 11 
 2.07425098019964E-06 
 21 
 17.9871574309357 
 31 
 0 
 62 
 30 
 0 
LINE
 8 
TemplateLayer
 6 
CONTINUOUS
 10 
 2.01660970244877E-06 
 20 
-14.126822105145 
 30 
 0 
 11 
-0.370117238881852 
 21 
-13.6363620758057 
 31 
 0 
 62 
 94 
 0 
LINE
 8 
TemplateLayer
 6 
CONTINUOUS
 10 
-0.370117238881852 
 20 
-13.6363620758057 
 30 
 0 
 11 
-1.36277818053232 
 21 
-10.2272710800171 
 31 
 0 
 62 
 94 
 0 
LINE
 8 
TemplateLayer
 6 
CONTINUOUS
 10 
-1.36277818053232 
 20 
-10.2272710800171 
 30 
 0 
 11 
-1.68018583802821 
 21 
-6.81818008422852 
 31 
 0 
 62 
 94 
 0 
LINE
 8 
TemplateLayer
 6 
CONTINUOUS
 10 
-1.68018583802821 
 20 
-6.81818008422852 
 30 
 0 
 11 
-2.80583503526623 
 21 
-3.40908908843994 
 31 
 0 
 62 
 94 
 0 
LINE
 8 
TemplateLayer
 6 
CONTINUOUS
 10 
-2.80583503526623 
 20 
-3.40908908843994 
 30 
 0 
 11 
-3.40908895884748 
 21 
-2.79949256816191 
 31 
 0 
 62 
 94 
 0 
LINE
 8 
TemplateLayer
 6 
CONTINUOUS
 10 
-3.40908895884748 
 20 
-2.79949256816191 
 30 
 0 
 11 
-4.70563061617471 
 21 
 1.9073486328125E-06 
 31 
 0 
 62 
 94 
 0 
LINE
 8 
TemplateLayer
 6 
CONTINUOUS
 10 
-4.70563061617471 
 20 
 1.9073486328125E-06 
 30 
 0 
 11 
-3.40908894838959 
 21 
 3.02696582227814 
 31 
 0 
 62 
 94 
 0 
LINE
 8 
TemplateLayer
 6 
CONTINUOUS
 10 
-3.40908894838959 
 20 
 3.02696582227814 
 30 
 0 
 11 
-3.01734502729612 
 21 
 3.40909290313721 
 31 
 0 
 62 
 94 
 0 
LINE
 8 
TemplateLayer
 6 
CONTINUOUS
 10 
-3.01734502729612 
 20 
 3.40909290313721 
 30 
 0 
 11 
-2.19319875200599 
 21 
 6.81818389892578 
 31 
 0 
 62 
 94 
 0 
LINE
 8 
TemplateLayer
 6 
CONTINUOUS
 10 
-2.19319875200599 
 20 
 6.81818389892578 
 30 
 0 
 11 
-0.76903074479619 
 21 
 10.2272748947144 
 31 
 0 
 62 
 94 
 0 
LINE
 8 
TemplateLayer
 6 
CONTINUOUS
 10 
-0.76903074479619 
 20 
 10.2272748947144 
 30 
 0 
 11 
 2.0660904209574E-06 
 21 
 13.4406233711629 
 31 
 0 
 62 
 94 
 0 
LINE
 8 
TemplateLayer
 6 
CONTINUOUS
 10 
 2.0660904209574E-06 
 20 
 13.4406233711629 
 30 
 0 
 11 
 0.715089898767594 
 21 
 10.2272748947144 
 31 
 0 
 62 
 94 
 0 
LINE
 8 
TemplateLayer
 6 
CONTINUOUS
 10 
 0.715089898767594 
 20 
 10.2272748947144 
 30 
 0 
 11 
 1.67699566876778 
 21 
 6.81818389892578 
 31 
 0 
 62 
 94 
 0 
LINE
 8 
TemplateLayer
 6 
CONTINUOUS
 10 
 1.67699566876778 
 20 
 6.81818389892578 
 30 
 0 
 11 
 2.66955423534336 
 21 
 3.40909290313721 
 31 
 0 
 62 
 94 
 0 
LINE
 8 
TemplateLayer
 6 
CONTINUOUS
 10 
 2.66955423534336 
 20 
 3.40909290313721 
 30 
 0 
 11 
 3.40909304278371 
 21 
 2.80197082427703 
 31 
 0 
 62 
 94 
 0 
LINE
 8 
TemplateLayer
 6 
CONTINUOUS
 10 
 3.40909304278371 
 20 
 2.80197082427703 
 30 
 0 
 11 
 4.90812721725745 
 21 
 1.9073486328125E-06 
 31 
 0 
 62 
 94 
 0 
LINE
 8 
TemplateLayer
 6 
CONTINUOUS
 10 
 4.90812721725745 
 20 
 1.9073486328125E-06 
 30 
 0 
 11 
 3.40909303272273 
 21 
-2.80335673510157 
 31 
 0 
 62 
 94 
 0 
LINE
 8 
TemplateLayer
 6 
CONTINUOUS
 10 
 3.40909303272273 
 20 
-2.80335673510157 
 30 
 0 
 11 
 2.69446169799809 
 21 
-3.40908908843994 
 31 
 0 
 62 
 94 
 0 
LINE
 8 
TemplateLayer
 6 
CONTINUOUS
 10 
 2.69446169799809 
 20 
-3.40908908843994 
 30 
 0 
 11 
 1.67349152740575 
 21 
-6.81818008422852 
 31 
 0 
 62 
 94 
 0 
LINE
 8 
TemplateLayer
 6 
CONTINUOUS
 10 
 1.67349152740575 
 20 
-6.81818008422852 
 30 
 0 
 11 
 1.368958499919 
 21 
-10.2272710800171 
 31 
 0 
 62 
 94 
 0 
LINE
 8 
TemplateLayer
 6 
CONTINUOUS
 10 
 1.368958499919 
 20 
-10.2272710800171 
 30 
 0 
 11 
 0.375623112717529 
 21 
-13.6363620758057 
 31 
 0 
 62 
 94 
 0 
LINE
 8 
TemplateLayer
 6 
CONTINUOUS
 10 
 0.375623112717529 
 20 
-13.6363620758057 
 30 
 0 
 11 
 2.01660970244877E-06 
 21 
-14.126822105145 
 31 
 0 
 62 
 94 
 0 
TEXT
 8 
TemplateLayer
 10 
-3.40908887320588 
 20 
 43.9292660134169 
 30 
 0 
 40 
 1.33 
 50 
 0 
 62 
 7 
 1 
.1
 0 
TEXT
 8 
TemplateLayer
 10 
-3.40908888356343 
 20 
 38.1587105063902 
 30 
 0 
 40 
 1.33 
 50 
 0 
 62 
 1 
 1 
.2
 0 
TEXT
 8 
TemplateLayer
 10 
 2.10480101166949E-06 
 20 
 34.0224673145458 
 30 
 0 
 40 
 1.33 
 50 
 0 
 62 
 3 
 1 
.5
 0 
TEXT
 8 
TemplateLayer
 10 
 2.09815873358776E-06 
 20 
 30.3218209941345 
 30 
 0 
 40 
 1.33 
 50 
 0 
 62 
 5 
 1 
1
 0 
TEXT
 8 
TemplateLayer
 10 
 2.09154379357535E-06 
 20 
 26.6364056718116 
 30 
 0 
 40 
 1.33 
 50 
 0 
 62 
 6 
 1 
2
 0 
TEXT
 8 
TemplateLayer
 10 
 2.08250590417319E-06 
 20 
 21.6010801791455 
 30 
 0 
 40 
 1.33 
 50 
 0 
 62 
 214 
 1 
5
 0 
TEXT
 8 
TemplateLayer
 10 
 2.07425098019964E-06 
 20 
 17.0019722139614 
 30 
 0 
 40 
 1.33 
 50 
 0 
 62 
 30 
 1 
10
 0 
TEXT
 8 
TemplateLayer
 10 
 2.01660970244877E-06 
 20 
-15.1120073221193 
 30 
 0 
 40 
 1.33 
 50 
 0 
 62 
 94 
 1 
20
 0 
LINE
 8 
TemplateLayer
 6 
CONTINUOUS
 10 
 0 
 20 
 0 
 30 
 0 
 11 
 2 
 21 
 0 
 31 
 0 
 62 
 0 
 0 
LINE
 8 
TemplateLayer
 6 
CONTINUOUS
 10 
 2 
 20 
 0 
 30 
 0 
 11 
 1 
 21 
 0.5 
 31 
 0 
 62 
 0 
 0 
LINE
 8 
TemplateLayer
 6 
CONTINUOUS
 10 
 1 
 20 
 0.5 
 30 
 0 
 11 
 1 
 21 
-0.5 
 31 
 0 
 62 
 0 
 0 
LINE
 8 
TemplateLayer
 6 
CONTINUOUS
 10 
 1 
 20 
-0.5 
 30 
 0 
 11 
 2 
 21 
 0 
 31 
 0 
 62 
 0 
 0 
LINE
 8 
TemplateLayer
 6 
CONTINUOUS
 10 
-0.100000001490116 
 20 
 0.100000001490116 
 30 
 0 
 11 
 0.100000001490116 
 21 
 0.100000001490116 
 31 
 0 
 62 
 0 
 0 
LINE
 8 
TemplateLayer
 6 
CONTINUOUS
 10 
 0.100000001490116 
 20 
 0.100000001490116 
 30 
 0 
 11 
 0.100000001490116 
 21 
-0.100000001490116 
 31 
 0 
 62 
 0 
 0 
LINE
 8 
TemplateLayer
 6 
CONTINUOUS
 10 
 0.100000001490116 
 20 
-0.100000001490116 
 30 
 0 
 11 
-0.100000001490116 
 21 
-0.100000001490116 
 31 
 0 
 62 
 0 
 0 
LINE
 8 
TemplateLayer
 6 
CONTINUOUS
 10 
-0.100000001490116 
 20 
-0.100000001490116 
 30 
 0 
 11 
-0.100000001490116 
 21 
 0.100000001490116 
 31 
 0 
 62 
 0 
 0 
LINE
 8 
TemplateLayer
 6 
CONTINUOUS
 10 
 0 
 20 
 0 
 30 
 0 
 11 
 0 
 21 
 0 
 31 
 0 
 62 
 0 
 0 
ENDBLK
 0 
ENDSEC
 0 
SECTION
 2 
ENTITIES
 0 
INSERT
 2 
Template
 6 
CONTINUOUS
 8 
TemplateLayer
 10 
 0 
 20 
 0 
 30 
 0 
 41 
 1 
 42 
 1 
 43 
 1 
 50 
 0 
 0 
ENDSEC
 0 
EOF
