 0 
SECTION
 2 
HEADER
 9 
$LUNITS
 70 
 2 
 0 
ENDSEC
 0 
SECTION
 2 
TABLES
 0 
TABLE
 2 
LTYPE
 70 
 1 
 0 
LTYPE
 2 
CONTINUOUS
 70 
 0 
 3 
Solid line
 72 
 65 
 73 
 0 
 40 
 0 
 0 
ENDTAB
 0 
TABLE
 2 
LAYER
 70 
 0 
 0 
LAYER
 2 
TemplateLayer
 62 
 7 
 6 
CONTINUOUS
 70 
 0 
 0 
ENDTAB
 0 
ENDSEC
 0 
SECTION
 2 
BLOCKS
 0 
BLOCK
 8 
TemplateLayer
 2 
Template
 70 
 0 
 10 
 0 
 20 
 0 
 30 
 0 
 0 
LINE
 8 
TemplateLayer
 6 
CONTINUOUS
 10 
 27.5026452228628 
 20 
 3.40909290313721 
 30 
 0 
 11 
 27.7575782671351 
 21 
 1.9073486328125E-06 
 31 
 0 
 62 
 7 
 0 
LINE
 8 
TemplateLayer
 6 
CONTINUOUS
 10 
 27.7575782671351 
 20 
 1.9073486328125E-06 
 30 
 0 
 11 
 27.3130266669439 
 21 
-3.40908908843994 
 31 
 0 
 62 
 7 
 0 
LINE
 8 
TemplateLayer
 6 
CONTINUOUS
 10 
 27.3130266669439 
 20 
-3.40908908843994 
 30 
 0 
 11 
 27.2727300018526 
 21 
-3.57785631800884 
 31 
 0 
 62 
 7 
 0 
LINE
 8 
TemplateLayer
 6 
CONTINUOUS
 10 
 27.2727300018526 
 20 
-3.57785631800884 
 30 
 0 
 11 
 26.8156452213127 
 21 
-6.81818008422852 
 31 
 0 
 62 
 7 
 0 
LINE
 8 
TemplateLayer
 6 
CONTINUOUS
 10 
 26.8156452213127 
 20 
-6.81818008422852 
 30 
 0 
 11 
 25.7956648959505 
 21 
-10.2272710800171 
 31 
 0 
 62 
 7 
 0 
LINE
 8 
TemplateLayer
 6 
CONTINUOUS
 10 
 25.7956648959505 
 20 
-10.2272710800171 
 30 
 0 
 11 
 23.8636389882563 
 21 
-13.4991540961132 
 31 
 0 
 62 
 7 
 0 
LINE
 8 
TemplateLayer
 6 
CONTINUOUS
 10 
 23.8636389882563 
 20 
-13.4991540961132 
 30 
 0 
 11 
 23.7973935901392 
 21 
-13.6363620758057 
 31 
 0 
 62 
 7 
 0 
LINE
 8 
TemplateLayer
 6 
CONTINUOUS
 10 
 23.7973935901392 
 20 
-13.6363620758057 
 30 
 0 
 11 
 21.5219571953167 
 21 
-17.0454530715942 
 31 
 0 
 62 
 7 
 0 
LINE
 8 
TemplateLayer
 6 
CONTINUOUS
 10 
 21.5219571953167 
 20 
-17.0454530715942 
 30 
 0 
 11 
 20.4545479840198 
 21 
-18.2058030450525 
 31 
 0 
 62 
 7 
 0 
LINE
 8 
TemplateLayer
 6 
CONTINUOUS
 10 
 20.4545479840198 
 20 
-18.2058030450525 
 30 
 0 
 11 
 18.21172479813 
 21 
-20.4545440673828 
 31 
 0 
 62 
 7 
 0 
LINE
 8 
TemplateLayer
 6 
CONTINUOUS
 10 
 18.21172479813 
 20 
-20.4545440673828 
 30 
 0 
 11 
 17.0454569822595 
 21 
-21.5328451901876 
 31 
 0 
 62 
 7 
 0 
LINE
 8 
TemplateLayer
 6 
CONTINUOUS
 10 
 17.0454569822595 
 20 
-21.5328451901876 
 30 
 0 
 11 
 13.636365982396 
 21 
-23.80311875501 
 31 
 0 
 62 
 7 
 0 
LINE
 8 
TemplateLayer
 6 
CONTINUOUS
 10 
 13.636365982396 
 20 
-23.80311875501 
 30 
 0 
 11 
 13.5123992189123 
 21 
-23.8636350631714 
 31 
 0 
 62 
 7 
 0 
LINE
 8 
TemplateLayer
 6 
CONTINUOUS
 10 
 13.5123992189123 
 20 
-23.8636350631714 
 30 
 0 
 11 
 10.2272749829928 
 21 
-25.8169519597905 
 31 
 0 
 62 
 7 
 0 
LINE
 8 
TemplateLayer
 6 
CONTINUOUS
 10 
 10.2272749829928 
 20 
-25.8169519597905 
 30 
 0 
 11 
 6.81818398555567 
 21 
-26.7354493260545 
 31 
 0 
 62 
 7 
 0 
LINE
 8 
TemplateLayer
 6 
CONTINUOUS
 10 
 6.81818398555567 
 20 
-26.7354493260545 
 30 
 0 
 11 
 3.40909298901705 
 21 
-27.1533253603446 
 31 
 0 
 62 
 7 
 0 
LINE
 8 
TemplateLayer
 6 
CONTINUOUS
 10 
 3.40909298901705 
 20 
-27.1533253603446 
 30 
 0 
 11 
 1.99307114884945E-06 
 21 
-27.2409767210701 
 31 
 0 
 62 
 7 
 0 
LINE
 8 
TemplateLayer
 6 
CONTINUOUS
 10 
 1.99307114884945E-06 
 20 
-27.2409767210701 
 30 
 0 
 11 
-3.40908900243363 
 21 
-27.082863257555 
 31 
 0 
 62 
 7 
 0 
LINE
 8 
TemplateLayer
 6 
CONTINUOUS
 10 
-3.40908900243363 
 20 
-27.082863257555 
 30 
 0 
 11 
-6.81817999731587 
 21 
-26.5779111810479 
 31 
 0 
 62 
 7 
 0 
LINE
 8 
TemplateLayer
 6 
CONTINUOUS
 10 
-6.81817999731587 
 20 
-26.5779111810479 
 30 
 0 
 11 
-10.2272709912033 
 21 
-25.5187255657465 
 31 
 0 
 62 
 7 
 0 
LINE
 8 
TemplateLayer
 6 
CONTINUOUS
 10 
-10.2272709912033 
 20 
-25.5187255657465 
 30 
 0 
 11 
-13.042013858046 
 21 
-23.8636350631714 
 31 
 0 
 62 
 7 
 0 
LINE
 8 
TemplateLayer
 6 
CONTINUOUS
 10 
-13.042013858046 
 20 
-23.8636350631714 
 30 
 0 
 11 
-13.6363619835152 
 21 
-23.5817601489701 
 31 
 0 
 62 
 7 
 0 
LINE
 8 
TemplateLayer
 6 
CONTINUOUS
 10 
-13.6363619835152 
 20 
-23.5817601489701 
 30 
 0 
 11 
-17.0454529751379 
 21 
-21.2608071109491 
 31 
 0 
 62 
 7 
 0 
LINE
 8 
TemplateLayer
 6 
CONTINUOUS
 10 
-17.0454529751379 
 20 
-21.2608071109491 
 30 
 0 
 11 
-17.9390038672877 
 21 
-20.4545440673828 
 31 
 0 
 62 
 7 
 0 
LINE
 8 
TemplateLayer
 6 
CONTINUOUS
 10 
-17.9390038672877 
 20 
-20.4545440673828 
 30 
 0 
 11 
-20.4545439649253 
 21 
-17.9173184464403 
 31 
 0 
 62 
 7 
 0 
LINE
 8 
TemplateLayer
 6 
CONTINUOUS
 10 
-20.4545439649253 
 20 
-17.9173184464403 
 30 
 0 
 11 
-21.2385469582103 
 21 
-17.0454530715942 
 31 
 0 
 62 
 7 
 0 
LINE
 8 
TemplateLayer
 6 
CONTINUOUS
 10 
-21.2385469582103 
 20 
-17.0454530715942 
 30 
 0 
 11 
-23.5601229496381 
 21 
-13.6363620758057 
 31 
 0 
 62 
 7 
 0 
LINE
 8 
TemplateLayer
 6 
CONTINUOUS
 10 
-23.5601229496381 
 20 
-13.6363620758057 
 30 
 0 
 11 
-23.8636349518525 
 21 
-12.9803171661629 
 31 
 0 
 62 
 7 
 0 
LINE
 8 
TemplateLayer
 6 
CONTINUOUS
 10 
-23.8636349518525 
 20 
-12.9803171661629 
 30 
 0 
 11 
-25.4563512785814 
 21 
-10.2272710800171 
 31 
 0 
 62 
 7 
 0 
LINE
 8 
TemplateLayer
 6 
CONTINUOUS
 10 
-25.4563512785814 
 20 
-10.2272710800171 
 30 
 0 
 11 
-26.472739964507 
 21 
-6.81818008422852 
 31 
 0 
 62 
 7 
 0 
LINE
 8 
TemplateLayer
 6 
CONTINUOUS
 10 
-26.472739964507 
 20 
-6.81818008422852 
 30 
 0 
 11 
-26.9403508644207 
 21 
-3.40908908843994 
 31 
 0 
 62 
 7 
 0 
LINE
 8 
TemplateLayer
 6 
CONTINUOUS
 10 
-26.9403508644207 
 20 
-3.40908908843994 
 30 
 0 
 11 
-27.0545781547006 
 21 
 1.9073486328125E-06 
 31 
 0 
 62 
 7 
 0 
LINE
 8 
TemplateLayer
 6 
CONTINUOUS
 10 
-27.0545781547006 
 20 
 1.9073486328125E-06 
 30 
 0 
 11 
-26.9640464408787 
 21 
 3.40909290313721 
 31 
 0 
 62 
 7 
 0 
LINE
 8 
TemplateLayer
 6 
CONTINUOUS
 10 
-26.9640464408787 
 20 
 3.40909290313721 
 30 
 0 
 11 
-26.5228323023429 
 21 
 6.81818389892578 
 31 
 0 
 62 
 7 
 0 
LINE
 8 
TemplateLayer
 6 
CONTINUOUS
 10 
-26.5228323023429 
 20 
 6.81818389892578 
 30 
 0 
 11 
-25.5476436231709 
 21 
 10.2272748947144 
 31 
 0 
 62 
 7 
 0 
LINE
 8 
TemplateLayer
 6 
CONTINUOUS
 10 
-25.5476436231709 
 20 
 10.2272748947144 
 30 
 0 
 11 
-23.8636349048783 
 21 
 13.1906540170547 
 31 
 0 
 62 
 7 
 0 
LINE
 8 
TemplateLayer
 6 
CONTINUOUS
 10 
-23.8636349048783 
 20 
 13.1906540170547 
 30 
 0 
 11 
-23.6558318464616 
 21 
 13.6363658905029 
 31 
 0 
 62 
 7 
 0 
LINE
 8 
TemplateLayer
 6 
CONTINUOUS
 10 
-23.6558318464616 
 20 
 13.6363658905029 
 30 
 0 
 11 
-21.3900197905483 
 21 
 17.0454568862915 
 31 
 0 
 62 
 7 
 0 
LINE
 8 
TemplateLayer
 6 
CONTINUOUS
 10 
-21.3900197905483 
 20 
 17.0454568862915 
 30 
 0 
 11 
-20.454543900288 
 21 
 18.094407730697 
 31 
 0 
 62 
 7 
 0 
LINE
 8 
TemplateLayer
 6 
CONTINUOUS
 10 
-20.454543900288 
 20 
 18.094407730697 
 30 
 0 
 11 
-18.1288081903019 
 21 
 20.4545478820801 
 31 
 0 
 62 
 7 
 0 
LINE
 8 
TemplateLayer
 6 
CONTINUOUS
 10 
-18.1288081903019 
 20 
 20.4545478820801 
 30 
 0 
 11 
-17.0454528984846 
 21 
 21.4454567995071 
 31 
 0 
 62 
 7 
 0 
LINE
 8 
TemplateLayer
 6 
CONTINUOUS
 10 
-17.0454528984846 
 20 
 21.4454567995071 
 30 
 0 
 11 
-13.6363618985956 
 21 
 23.7299488640027 
 31 
 0 
 62 
 7 
 0 
LINE
 8 
TemplateLayer
 6 
CONTINUOUS
 10 
-13.6363618985956 
 20 
 23.7299488640027 
 30 
 0 
 11 
-13.3599488134194 
 21 
 23.8636388778687 
 31 
 0 
 62 
 7 
 0 
LINE
 8 
TemplateLayer
 6 
CONTINUOUS
 10 
-13.3599488134194 
 20 
 23.8636388778687 
 30 
 0 
 11 
-10.2272708992516 
 21 
 25.7107958669824 
 31 
 0 
 62 
 7 
 0 
LINE
 8 
TemplateLayer
 6 
CONTINUOUS
 10 
-10.2272708992516 
 20 
 25.7107958669824 
 30 
 0 
 11 
-6.81817990172126 
 21 
 26.6811981591882 
 31 
 0 
 62 
 7 
 0 
LINE
 8 
TemplateLayer
 6 
CONTINUOUS
 10 
-6.81817990172126 
 20 
 26.6811981591882 
 30 
 0 
 11 
-3.40908890513802 
 21 
 27.1239378016662 
 31 
 0 
 62 
 7 
 0 
LINE
 8 
TemplateLayer
 6 
CONTINUOUS
 10 
-3.40908890513802 
 20 
 27.1239378016662 
 30 
 0 
 11 
 2.0908513536505E-06 
 21 
 27.2358082961812 
 31 
 0 
 62 
 7 
 0 
LINE
 8 
TemplateLayer
 6 
CONTINUOUS
 10 
 2.0908513536505E-06 
 20 
 27.2358082961812 
 30 
 0 
 11 
 3.40909308650558 
 21 
 27.1609564193887 
 31 
 0 
 62 
 7 
 0 
LINE
 8 
TemplateLayer
 6 
CONTINUOUS
 10 
 3.40909308650558 
 20 
 27.1609564193887 
 30 
 0 
 11 
 6.81818408158593 
 21 
 26.7663796406403 
 31 
 0 
 62 
 7 
 0 
LINE
 8 
TemplateLayer
 6 
CONTINUOUS
 10 
 6.81818408158593 
 20 
 26.7663796406403 
 30 
 0 
 11 
 10.2272750757685 
 21 
 25.871644974219 
 31 
 0 
 62 
 7 
 0 
LINE
 8 
TemplateLayer
 6 
CONTINUOUS
 10 
 10.2272750757685 
 20 
 25.871644974219 
 30 
 0 
 11 
 13.6363660681514 
 21 
 23.9742038020001 
 31 
 0 
 62 
 7 
 0 
LINE
 8 
TemplateLayer
 6 
CONTINUOUS
 10 
 13.6363660681514 
 20 
 23.9742038020001 
 30 
 0 
 11 
 13.7993502198476 
 21 
 23.8636388778687 
 31 
 0 
 62 
 7 
 0 
LINE
 8 
TemplateLayer
 6 
CONTINUOUS
 10 
 13.7993502198476 
 20 
 23.8636388778687 
 30 
 0 
 11 
 17.0454570602005 
 21 
 21.8908232632093 
 31 
 0 
 62 
 7 
 0 
LINE
 8 
TemplateLayer
 6 
CONTINUOUS
 10 
 17.0454570602005 
 20 
 21.8908232632093 
 30 
 0 
 11 
 18.6617562101387 
 21 
 20.4545478820801 
 31 
 0 
 62 
 7 
 0 
LINE
 8 
TemplateLayer
 6 
CONTINUOUS
 10 
 18.6617562101387 
 20 
 20.4545478820801 
 30 
 0 
 11 
 20.4545480502619 
 21 
 18.7000022059065 
 31 
 0 
 62 
 7 
 0 
LINE
 8 
TemplateLayer
 6 
CONTINUOUS
 10 
 20.4545480502619 
 20 
 18.7000022059065 
 30 
 0 
 11 
 21.9388887161893 
 21 
 17.0454568862915 
 31 
 0 
 62 
 7 
 0 
LINE
 8 
TemplateLayer
 6 
CONTINUOUS
 10 
 21.9388887161893 
 20 
 17.0454568862915 
 30 
 0 
 11 
 23.8636390376108 
 21 
 13.9979355353801 
 31 
 0 
 62 
 7 
 0 
LINE
 8 
TemplateLayer
 6 
CONTINUOUS
 10 
 23.8636390376108 
 20 
 13.9979355353801 
 30 
 0 
 11 
 24.1102911999667 
 21 
 13.6363658905029 
 31 
 0 
 62 
 7 
 0 
LINE
 8 
TemplateLayer
 6 
CONTINUOUS
 10 
 24.1102911999667 
 20 
 13.6363658905029 
 30 
 0 
 11 
 26.0269835777577 
 21 
 10.2272748947144 
 31 
 0 
 62 
 7 
 0 
LINE
 8 
TemplateLayer
 6 
CONTINUOUS
 10 
 26.0269835777577 
 20 
 10.2272748947144 
 30 
 0 
 11 
 26.956038361241 
 21 
 6.81818389892578 
 31 
 0 
 62 
 7 
 0 
LINE
 8 
TemplateLayer
 6 
CONTINUOUS
 10 
 26.956038361241 
 20 
 6.81818389892578 
 30 
 0 
 11 
 27.2727300162228 
 21 
 4.42830456827416 
 31 
 0 
 62 
 7 
 0 
LINE
 8 
TemplateLayer
 6 
CONTINUOUS
 10 
 27.2727300162228 
 20 
 4.42830456827416 
 30 
 0 
 11 
 27.5026452228628 
 21 
 3.40909290313721 
 31 
 0 
 62 
 7 
 0 
LINE
 8 
TemplateLayer
 6 
CONTINUOUS
 10 
-21.028901455673 
 20 
-10.2272710800171 
 30 
 0 
 11 
-22.4917838073696 
 21 
-6.81818008422852 
 31 
 0 
 62 
 1 
 0 
LINE
 8 
TemplateLayer
 6 
CONTINUOUS
 10 
-22.4917838073696 
 20 
-6.81818008422852 
 30 
 0 
 11 
-23.1734911806223 
 21 
-3.40908908843994 
 31 
 0 
 62 
 1 
 0 
LINE
 8 
TemplateLayer
 6 
CONTINUOUS
 10 
-23.1734911806223 
 20 
-3.40908908843994 
 30 
 0 
 11 
-23.3497423427317 
 21 
 1.9073486328125E-06 
 31 
 0 
 62 
 1 
 0 
LINE
 8 
TemplateLayer
 6 
CONTINUOUS
 10 
-23.3497423427317 
 20 
 1.9073486328125E-06 
 30 
 0 
 11 
-23.1731034395706 
 21 
 3.40909290313721 
 31 
 0 
 62 
 1 
 0 
LINE
 8 
TemplateLayer
 6 
CONTINUOUS
 10 
-23.1731034395706 
 20 
 3.40909290313721 
 30 
 0 
 11 
-22.5129649286289 
 21 
 6.81818389892578 
 31 
 0 
 62 
 1 
 0 
LINE
 8 
TemplateLayer
 6 
CONTINUOUS
 10 
-22.5129649286289 
 20 
 6.81818389892578 
 30 
 0 
 11 
-21.0451539387978 
 21 
 10.2272748947144 
 31 
 0 
 62 
 1 
 0 
LINE
 8 
TemplateLayer
 6 
CONTINUOUS
 10 
-21.0451539387978 
 20 
 10.2272748947144 
 30 
 0 
 11 
-20.4545439127644 
 21 
 11.143323158426 
 31 
 0 
 62 
 1 
 0 
LINE
 8 
TemplateLayer
 6 
CONTINUOUS
 10 
-20.4545439127644 
 20 
 11.143323158426 
 30 
 0 
 11 
-19.0819697612183 
 21 
 13.6363658905029 
 31 
 0 
 62 
 1 
 0 
LINE
 8 
TemplateLayer
 6 
CONTINUOUS
 10 
-19.0819697612183 
 20 
 13.6363658905029 
 30 
 0 
 11 
-17.0454529083347 
 21 
 15.9576038650204 
 31 
 0 
 62 
 1 
 0 
LINE
 8 
TemplateLayer
 6 
CONTINUOUS
 10 
-17.0454529083347 
 20 
 15.9576038650204 
 30 
 0 
 11 
-15.9679494428771 
 21 
 17.0454568862915 
 31 
 0 
 62 
 1 
 0 
LINE
 8 
TemplateLayer
 6 
CONTINUOUS
 10 
-15.9679494428771 
 20 
 17.0454568862915 
 30 
 0 
 11 
-13.6363619068552 
 21 
 19.1282537100682 
 31 
 0 
 62 
 1 
 0 
LINE
 8 
TemplateLayer
 6 
CONTINUOUS
 10 
-13.6363619068552 
 20 
 19.1282537100682 
 30 
 0 
 11 
-11.2954524323034 
 21 
 20.4545478820801 
 31 
 0 
 62 
 1 
 0 
LINE
 8 
TemplateLayer
 6 
CONTINUOUS
 10 
-11.2954524323034 
 20 
 20.4545478820801 
 30 
 0 
 11 
-10.2272709074302 
 21 
 21.1542300640907 
 31 
 0 
 62 
 1 
 0 
LINE
 8 
TemplateLayer
 6 
CONTINUOUS
 10 
-10.2272709074302 
 20 
 21.1542300640907 
 30 
 0 
 11 
-6.81817990899081 
 21 
 22.6310798452524 
 31 
 0 
 62 
 1 
 0 
LINE
 8 
TemplateLayer
 6 
CONTINUOUS
 10 
-6.81817990899081 
 20 
 22.6310798452524 
 30 
 0 
 11 
-3.40908891194308 
 21 
 23.332595389425 
 31 
 0 
 62 
 1 
 0 
LINE
 8 
TemplateLayer
 6 
CONTINUOUS
 10 
-3.40908891194308 
 20 
 23.332595389425 
 30 
 0 
 11 
 2.08419922116676E-06 
 21 
 23.5296717403056 
 31 
 0 
 62 
 1 
 0 
LINE
 8 
TemplateLayer
 6 
CONTINUOUS
 10 
 2.08419922116676E-06 
 20 
 23.5296717403056 
 30 
 0 
 11 
 3.40909307974709 
 21 
 23.3955667178411 
 31 
 0 
 62 
 1 
 0 
LINE
 8 
TemplateLayer
 6 
CONTINUOUS
 10 
 3.40909307974709 
 20 
 23.3955667178411 
 30 
 0 
 11 
 6.81818407443452 
 21 
 22.7820810320697 
 31 
 0 
 62 
 1 
 0 
LINE
 8 
TemplateLayer
 6 
CONTINUOUS
 10 
 6.81818407443452 
 20 
 22.7820810320697 
 30 
 0 
 11 
 10.2272750678799 
 21 
 21.4765820578889 
 31 
 0 
 62 
 1 
 0 
LINE
 8 
TemplateLayer
 6 
CONTINUOUS
 10 
 10.2272750678799 
 20 
 21.4765820578889 
 30 
 0 
 11 
 11.865193073824 
 21 
 20.4545478820801 
 31 
 0 
 62 
 1 
 0 
LINE
 8 
TemplateLayer
 6 
CONTINUOUS
 10 
 11.865193073824 
 20 
 20.4545478820801 
 30 
 0 
 11 
 13.6363660601909 
 21 
 19.5391438263147 
 31 
 0 
 62 
 1 
 0 
LINE
 8 
TemplateLayer
 6 
CONTINUOUS
 10 
 13.6363660601909 
 20 
 19.5391438263147 
 30 
 0 
 11 
 16.5464840917379 
 21 
 17.0454568862915 
 31 
 0 
 62 
 1 
 0 
LINE
 8 
TemplateLayer
 6 
CONTINUOUS
 10 
 16.5464840917379 
 20 
 17.0454568862915 
 30 
 0 
 11 
 17.0454570506483 
 21 
 16.5689517136329 
 31 
 0 
 62 
 1 
 0 
LINE
 8 
TemplateLayer
 6 
CONTINUOUS
 10 
 17.0454570506483 
 20 
 16.5689517136329 
 30 
 0 
 11 
 19.6527434923546 
 21 
 13.6363658905029 
 31 
 0 
 62 
 1 
 0 
LINE
 8 
TemplateLayer
 6 
CONTINUOUS
 10 
 19.6527434923546 
 20 
 13.6363658905029 
 30 
 0 
 11 
 20.4545480386319 
 21 
 12.2205136808737 
 31 
 0 
 62 
 1 
 0 
LINE
 8 
TemplateLayer
 6 
CONTINUOUS
 10 
 20.4545480386319 
 20 
 12.2205136808737 
 30 
 0 
 11 
 21.7546528629275 
 21 
 10.2272748947144 
 31 
 0 
 62 
 1 
 0 
LINE
 8 
TemplateLayer
 6 
CONTINUOUS
 10 
 21.7546528629275 
 20 
 10.2272748947144 
 30 
 0 
 11 
 23.0681844472807 
 21 
 6.81818389892578 
 31 
 0 
 62 
 1 
 0 
LINE
 8 
TemplateLayer
 6 
CONTINUOUS
 10 
 23.0681844472807 
 20 
 6.81818389892578 
 30 
 0 
 11 
 23.6660624941263 
 21 
 3.40909290313721 
 31 
 0 
 62 
 1 
 0 
LINE
 8 
TemplateLayer
 6 
CONTINUOUS
 10 
 23.6660624941263 
 20 
 3.40909290313721 
 30 
 0 
 11 
 23.8261225496046 
 21 
 1.9073486328125E-06 
 31 
 0 
 62 
 1 
 0 
LINE
 8 
TemplateLayer
 6 
CONTINUOUS
 10 
 23.8261225496046 
 20 
 1.9073486328125E-06 
 30 
 0 
 11 
 23.5973623249005 
 21 
-3.40908908843994 
 31 
 0 
 62 
 1 
 0 
LINE
 8 
TemplateLayer
 6 
CONTINUOUS
 10 
 23.5973623249005 
 20 
-3.40908908843994 
 30 
 0 
 11 
 22.9131953561862 
 21 
-6.81818008422852 
 31 
 0 
 62 
 1 
 0 
LINE
 8 
TemplateLayer
 6 
CONTINUOUS
 10 
 22.9131953561862 
 20 
-6.81818008422852 
 30 
 0 
 11 
 21.4852033440006 
 21 
-10.2272710800171 
 31 
 0 
 62 
 1 
 0 
LINE
 8 
TemplateLayer
 6 
CONTINUOUS
 10 
 21.4852033440006 
 20 
-10.2272710800171 
 30 
 0 
 11 
 20.4545479954951 
 21 
-11.8125248593164 
 31 
 0 
 62 
 1 
 0 
LINE
 8 
TemplateLayer
 6 
CONTINUOUS
 10 
 20.4545479954951 
 20 
-11.8125248593164 
 30 
 0 
 11 
 19.3903669838113 
 21 
-13.6363620758057 
 31 
 0 
 62 
 1 
 0 
LINE
 8 
TemplateLayer
 6 
CONTINUOUS
 10 
 19.3903669838113 
 20 
-13.6363620758057 
 30 
 0 
 11 
 17.0454569916904 
 21 
-16.2785817855374 
 31 
 0 
 62 
 1 
 0 
LINE
 8 
TemplateLayer
 6 
CONTINUOUS
 10 
 17.0454569916904 
 20 
-16.2785817855374 
 30 
 0 
 11 
 16.279369155243 
 21 
-17.0454530715942 
 31 
 0 
 62 
 1 
 0 
LINE
 8 
TemplateLayer
 6 
CONTINUOUS
 10 
 16.279369155243 
 20 
-17.0454530715942 
 30 
 0 
 11 
 13.636365990284 
 21 
-19.4084668074406 
 31 
 0 
 62 
 1 
 0 
LINE
 8 
TemplateLayer
 6 
CONTINUOUS
 10 
 13.636365990284 
 20 
-19.4084668074406 
 30 
 0 
 11 
 11.8549435174134 
 21 
-20.4545440673828 
 31 
 0 
 62 
 1 
 0 
LINE
 8 
TemplateLayer
 6 
CONTINUOUS
 10 
 11.8549435174134 
 20 
-20.4545440673828 
 30 
 0 
 11 
 10.2272749907184 
 21 
-21.5127754294205 
 31 
 0 
 62 
 1 
 0 
LINE
 8 
TemplateLayer
 6 
CONTINUOUS
 10 
 10.2272749907184 
 20 
-21.5127754294205 
 30 
 0 
 11 
 6.81818399251453 
 21 
-22.8584227830485 
 31 
 0 
 62 
 1 
 0 
LINE
 8 
TemplateLayer
 6 
CONTINUOUS
 10 
 6.81818399251453 
 20 
-22.8584227830485 
 30 
 0 
 11 
 3.40909299563969 
 21 
-23.4636192020798 
 31 
 0 
 62 
 1 
 0 
LINE
 8 
TemplateLayer
 6 
CONTINUOUS
 10 
 3.40909299563969 
 20 
-23.4636192020798 
 30 
 0 
 11 
 1.99962436008699E-06 
 21 
-23.5899526669192 
 31 
 0 
 62 
 1 
 0 
LINE
 8 
TemplateLayer
 6 
CONTINUOUS
 10 
 1.99962436008699E-06 
 20 
-23.5899526669192 
 30 
 0 
 11 
-3.40908899578131 
 21 
-23.3766221075166 
 31 
 0 
 62 
 1 
 0 
LINE
 8 
TemplateLayer
 6 
CONTINUOUS
 10 
-3.40908899578131 
 20 
-23.3766221075166 
 30 
 0 
 11 
-6.81817999026616 
 21 
-22.6502748085949 
 31 
 0 
 62 
 1 
 0 
LINE
 8 
TemplateLayer
 6 
CONTINUOUS
 10 
-6.81817999026616 
 20 
-22.6502748085949 
 30 
 0 
 11 
-10.2272709833776 
 21 
-21.1587525381215 
 31 
 0 
 62 
 1 
 0 
LINE
 8 
TemplateLayer
 6 
CONTINUOUS
 10 
-10.2272709833776 
 20 
-21.1587525381215 
 30 
 0 
 11 
-11.3224486241317 
 21 
-20.4545440673828 
 31 
 0 
 62 
 1 
 0 
LINE
 8 
TemplateLayer
 6 
CONTINUOUS
 10 
-11.3224486241317 
 20 
-20.4545440673828 
 30 
 0 
 11 
-13.6363619755351 
 21 
-19.1357221017152 
 31 
 0 
 62 
 1 
 0 
LINE
 8 
TemplateLayer
 6 
CONTINUOUS
 10 
-13.6363619755351 
 20 
-19.1357221017152 
 30 
 0 
 11 
-15.9970581204516 
 21 
-17.0454530715942 
 31 
 0 
 62 
 1 
 0 
LINE
 8 
TemplateLayer
 6 
CONTINUOUS
 10 
-15.9970581204516 
 20 
-17.0454530715942 
 30 
 0 
 11 
-17.0454529656534 
 21 
-15.9766570201456 
 31 
 0 
 62 
 1 
 0 
LINE
 8 
TemplateLayer
 6 
CONTINUOUS
 10 
-17.0454529656534 
 20 
-15.9766570201456 
 30 
 0 
 11 
-19.0838452929451 
 21 
-13.6363620758057 
 31 
 0 
 62 
 1 
 0 
LINE
 8 
TemplateLayer
 6 
CONTINUOUS
 10 
-19.0838452929451 
 20 
-13.6363620758057 
 30 
 0 
 11 
-20.4545439527521 
 21 
-11.1351901343608 
 31 
 0 
 62 
 1 
 0 
LINE
 8 
TemplateLayer
 6 
CONTINUOUS
 10 
-20.4545439527521 
 20 
-11.1351901343608 
 30 
 0 
 11 
-21.028901455673 
 21 
-10.2272710800171 
 31 
 0 
 62 
 1 
 0 
LINE
 8 
TemplateLayer
 6 
CONTINUOUS
 10 
-17.8161533492454 
 20 
-6.81818008422852 
 30 
 0 
 11 
-19.0452392615436 
 21 
-3.40908908843994 
 31 
 0 
 62 
 3 
 0 
LINE
 8 
TemplateLayer
 6 
CONTINUOUS
 10 
-19.0452392615436 
 20 
-3.40908908843994 
 30 
 0 
 11 
-19.4261141286886 
 21 
 1.9073486328125E-06 
 31 
 0 
 62 
 3 
 0 
LINE
 8 
TemplateLayer
 6 
CONTINUOUS
 10 
-19.4261141286886 
 20 
 1.9073486328125E-06 
 30 
 0 
 11 
-19.0371906327674 
 21 
 3.40909290313721 
 31 
 0 
 62 
 3 
 0 
LINE
 8 
TemplateLayer
 6 
CONTINUOUS
 10 
-19.0371906327674 
 20 
 3.40909290313721 
 30 
 0 
 11 
-17.7943120329979 
 21 
 6.81818389892578 
 31 
 0 
 62 
 3 
 0 
LINE
 8 
TemplateLayer
 6 
CONTINUOUS
 10 
-17.7943120329979 
 20 
 6.81818389892578 
 30 
 0 
 11 
-17.04545292249 
 21 
 8.071234068842 
 31 
 0 
 62 
 3 
 0 
LINE
 8 
TemplateLayer
 6 
CONTINUOUS
 10 
-17.04545292249 
 20 
 8.071234068842 
 30 
 0 
 11 
-16.2469536808086 
 21 
 10.2272748947144 
 31 
 0 
 62 
 3 
 0 
LINE
 8 
TemplateLayer
 6 
CONTINUOUS
 10 
-16.2469536808086 
 20 
 10.2272748947144 
 30 
 0 
 11 
-13.6363619173979 
 21 
 13.2545408703924 
 31 
 0 
 62 
 3 
 0 
LINE
 8 
TemplateLayer
 6 
CONTINUOUS
 10 
-13.6363619173979 
 20 
 13.2545408703924 
 30 
 0 
 11 
-13.265682383163 
 21 
 13.6363658905029 
 31 
 0 
 62 
 3 
 0 
LINE
 8 
TemplateLayer
 6 
CONTINUOUS
 10 
-13.265682383163 
 20 
 13.6363658905029 
 30 
 0 
 11 
-10.2272709161118 
 21 
 16.3173938838022 
 31 
 0 
 62 
 3 
 0 
LINE
 8 
TemplateLayer
 6 
CONTINUOUS
 10 
-10.2272709161118 
 20 
 16.3173938838022 
 30 
 0 
 11 
-8.41624844889382 
 21 
 17.0454568862915 
 31 
 0 
 62 
 3 
 0 
LINE
 8 
TemplateLayer
 6 
CONTINUOUS
 10 
-8.41624844889382 
 20 
 17.0454568862915 
 30 
 0 
 11 
-6.81817991726701 
 21 
 18.020117422816 
 31 
 0 
 62 
 3 
 0 
LINE
 8 
TemplateLayer
 6 
CONTINUOUS
 10 
-6.81817991726701 
 20 
 18.020117422816 
 30 
 0 
 11 
-3.40908891929926 
 21 
 19.2342139820714 
 31 
 0 
 62 
 3 
 0 
LINE
 8 
TemplateLayer
 6 
CONTINUOUS
 10 
-3.40908891929926 
 20 
 19.2342139820714 
 30 
 0 
 11 
 2.07721557154289E-06 
 21 
 19.6388353520186 
 31 
 0 
 62 
 3 
 0 
LINE
 8 
TemplateLayer
 6 
CONTINUOUS
 10 
 2.07721557154289E-06 
 20 
 19.6388353520186 
 30 
 0 
 11 
 3.40909307254348 
 21 
 19.382181700475 
 31 
 0 
 62 
 3 
 0 
LINE
 8 
TemplateLayer
 6 
CONTINUOUS
 10 
 3.40909307254348 
 20 
 19.382181700475 
 30 
 0 
 11 
 6.81818406664649 
 21 
 18.4430977740118 
 31 
 0 
 62 
 3 
 0 
LINE
 8 
TemplateLayer
 6 
CONTINUOUS
 10 
 6.81818406664649 
 20 
 18.4430977740118 
 30 
 0 
 11 
 9.20635315807116 
 21 
 17.0454568862915 
 31 
 0 
 62 
 3 
 0 
LINE
 8 
TemplateLayer
 6 
CONTINUOUS
 10 
 9.20635315807116 
 20 
 17.0454568862915 
 30 
 0 
 11 
 10.2272750592648 
 21 
 16.6768103536332 
 31 
 0 
 62 
 3 
 0 
LINE
 8 
TemplateLayer
 6 
CONTINUOUS
 10 
 10.2272750592648 
 20 
 16.6768103536332 
 30 
 0 
 11 
 13.6363660499859 
 21 
 13.8535534670584 
 31 
 0 
 62 
 3 
 0 
LINE
 8 
TemplateLayer
 6 
CONTINUOUS
 10 
 13.6363660499859 
 20 
 13.8535534670584 
 30 
 0 
 11 
 13.8582327038885 
 21 
 13.6363658905029 
 31 
 0 
 62 
 3 
 0 
LINE
 8 
TemplateLayer
 6 
CONTINUOUS
 10 
 13.8582327038885 
 20 
 13.6363658905029 
 30 
 0 
 11 
 16.8023640070941 
 21 
 10.2272748947144 
 31 
 0 
 62 
 3 
 0 
LINE
 8 
TemplateLayer
 6 
CONTINUOUS
 10 
 16.8023640070941 
 20 
 10.2272748947144 
 30 
 0 
 11 
 17.0454570381922 
 21 
 9.62918874021146 
 31 
 0 
 62 
 3 
 0 
LINE
 8 
TemplateLayer
 6 
CONTINUOUS
 10 
 17.0454570381922 
 20 
 9.62918874021146 
 30 
 0 
 11 
 18.7843576399828 
 21 
 6.81818389892578 
 31 
 0 
 62 
 3 
 0 
LINE
 8 
TemplateLayer
 6 
CONTINUOUS
 10 
 18.7843576399828 
 20 
 6.81818389892578 
 30 
 0 
 11 
 19.7213061413891 
 21 
 3.40909290313721 
 31 
 0 
 62 
 3 
 0 
LINE
 8 
TemplateLayer
 6 
CONTINUOUS
 10 
 19.7213061413891 
 20 
 3.40909290313721 
 30 
 0 
 11 
 20.0212125381224 
 21 
 1.9073486328125E-06 
 31 
 0 
 62 
 3 
 0 
LINE
 8 
TemplateLayer
 6 
CONTINUOUS
 10 
 20.0212125381224 
 20 
 1.9073486328125E-06 
 30 
 0 
 11 
 19.6325417112475 
 21 
-3.40908908843994 
 31 
 0 
 62 
 3 
 0 
LINE
 8 
TemplateLayer
 6 
CONTINUOUS
 10 
 19.6325417112475 
 20 
-3.40908908843994 
 30 
 0 
 11 
 18.5819617175995 
 21 
-6.81818008422852 
 31 
 0 
 62 
 3 
 0 
LINE
 8 
TemplateLayer
 6 
CONTINUOUS
 10 
 18.5819617175995 
 20 
-6.81818008422852 
 30 
 0 
 11 
 17.0454570042945 
 21 
-9.25640199628987 
 31 
 0 
 62 
 3 
 0 
LINE
 8 
TemplateLayer
 6 
CONTINUOUS
 10 
 17.0454570042945 
 20 
-9.25640199628987 
 30 
 0 
 11 
 16.6591128864017 
 21 
-10.2272710800171 
 31 
 0 
 62 
 3 
 0 
LINE
 8 
TemplateLayer
 6 
CONTINUOUS
 10 
 16.6591128864017 
 20 
-10.2272710800171 
 30 
 0 
 11 
 13.6650140809118 
 21 
-13.6363620758057 
 31 
 0 
 62 
 3 
 0 
LINE
 8 
TemplateLayer
 6 
CONTINUOUS
 10 
 13.6650140809118 
 20 
-13.6363620758057 
 30 
 0 
 11 
 13.6363660005929 
 21 
-13.6650228343177 
 31 
 0 
 62 
 3 
 0 
LINE
 8 
TemplateLayer
 6 
CONTINUOUS
 10 
 13.6363660005929 
 20 
-13.6650228343177 
 30 
 0 
 11 
 10.2272749994318 
 21 
-16.6582404340624 
 31 
 0 
 62 
 3 
 0 
LINE
 8 
TemplateLayer
 6 
CONTINUOUS
 10 
 10.2272749994318 
 20 
-16.6582404340624 
 30 
 0 
 11 
 9.25553143294982 
 21 
-17.0454530715942 
 31 
 0 
 62 
 3 
 0 
LINE
 8 
TemplateLayer
 6 
CONTINUOUS
 10 
 9.25553143294982 
 20 
-17.0454530715942 
 30 
 0 
 11 
 6.81818400019623 
 21 
-18.578676018262 
 31 
 0 
 62 
 3 
 0 
LINE
 8 
TemplateLayer
 6 
CONTINUOUS
 10 
 6.81818400019623 
 20 
-18.578676018262 
 30 
 0 
 11 
 3.4090930027625 
 21 
-19.4952537693758 
 31 
 0 
 62 
 3 
 0 
LINE
 8 
TemplateLayer
 6 
CONTINUOUS
 10 
 3.4090930027625 
 20 
-19.4952537693758 
 30 
 0 
 11 
 2.00650953659232E-06 
 21 
-19.7539791075432 
 31 
 0 
 62 
 3 
 0 
LINE
 8 
TemplateLayer
 6 
CONTINUOUS
 10 
 2.00650953659232E-06 
 20 
-19.7539791075432 
 30 
 0 
 11 
-3.40908898851603 
 21 
-19.3288806998251 
 31 
 0 
 62 
 3 
 0 
LINE
 8 
TemplateLayer
 6 
CONTINUOUS
 10 
-3.40908898851603 
 20 
-19.3288806998251 
 30 
 0 
 11 
-6.81817998212394 
 21 
-18.1139581371021 
 31 
 0 
 62 
 3 
 0 
LINE
 8 
TemplateLayer
 6 
CONTINUOUS
 10 
-6.81817998212394 
 20 
-18.1139581371021 
 30 
 0 
 11 
-8.51844060270776 
 21 
-17.0454530715942 
 31 
 0 
 62 
 3 
 0 
LINE
 8 
TemplateLayer
 6 
CONTINUOUS
 10 
-8.51844060270776 
 20 
-17.0454530715942 
 30 
 0 
 11 
-10.2272709747907 
 21 
-16.3746688218644 
 31 
 0 
 62 
 3 
 0 
LINE
 8 
TemplateLayer
 6 
CONTINUOUS
 10 
-10.2272709747907 
 20 
-16.3746688218644 
 30 
 0 
 11 
-13.2740430221045 
 21 
-13.6363620758057 
 31 
 0 
 62 
 3 
 0 
LINE
 8 
TemplateLayer
 6 
CONTINUOUS
 10 
-13.2740430221045 
 20 
-13.6363620758057 
 30 
 0 
 11 
-13.6363619649754 
 21 
-13.2525517797211 
 31 
 0 
 62 
 3 
 0 
LINE
 8 
TemplateLayer
 6 
CONTINUOUS
 10 
-13.6363619649754 
 20 
-13.2525517797211 
 30 
 0 
 11 
-16.2846376657041 
 21 
-10.2272710800171 
 31 
 0 
 62 
 3 
 0 
LINE
 8 
TemplateLayer
 6 
CONTINUOUS
 10 
-16.2846376657041 
 20 
-10.2272710800171 
 30 
 0 
 11 
-17.0454529515126 
 21 
-8.09828917859565 
 31 
 0 
 62 
 3 
 0 
LINE
 8 
TemplateLayer
 6 
CONTINUOUS
 10 
-17.0454529515126 
 20 
-8.09828917859565 
 30 
 0 
 11 
-17.8161533492454 
 21 
-6.81818008422852 
 31 
 0 
 62 
 3 
 0 
LINE
 8 
TemplateLayer
 6 
CONTINUOUS
 10 
 17.6989434591242 
 20 
 1.9073486328125E-06 
 30 
 0 
 11 
 17.0454570170653 
 21 
-2.14133332902443 
 31 
 0 
 62 
 5 
 0 
LINE
 8 
TemplateLayer
 6 
CONTINUOUS
 10 
 17.0454570170653 
 20 
-2.14133332902443 
 30 
 0 
 11 
 16.9605254296661 
 21 
-3.40908908843994 
 31 
 0 
 62 
 5 
 0 
LINE
 8 
TemplateLayer
 6 
CONTINUOUS
 10 
 16.9605254296661 
 20 
-3.40908908843994 
 30 
 0 
 11 
 16.4395050553715 
 21 
-6.81818008422852 
 31 
 0 
 62 
 5 
 0 
LINE
 8 
TemplateLayer
 6 
CONTINUOUS
 10 
 16.4395050553715 
 20 
-6.81818008422852 
 30 
 0 
 11 
 13.7278220808569 
 21 
-10.2272710800171 
 31 
 0 
 62 
 5 
 0 
LINE
 8 
TemplateLayer
 6 
CONTINUOUS
 10 
 13.7278220808569 
 20 
-10.2272710800171 
 30 
 0 
 11 
 13.6363660065775 
 21 
-10.3307978643168 
 31 
 0 
 62 
 5 
 0 
LINE
 8 
TemplateLayer
 6 
CONTINUOUS
 10 
 13.6363660065775 
 20 
-10.3307978643168 
 30 
 0 
 11 
 10.3721054957456 
 21 
-13.6363620758057 
 31 
 0 
 62 
 5 
 0 
LINE
 8 
TemplateLayer
 6 
CONTINUOUS
 10 
 10.3721054957456 
 20 
-13.6363620758057 
 30 
 0 
 11 
 10.2272750046262 
 21 
-13.764275176791 
 31 
 0 
 62 
 5 
 0 
LINE
 8 
TemplateLayer
 6 
CONTINUOUS
 10 
 10.2272750046262 
 20 
-13.764275176791 
 30 
 0 
 11 
 6.81818400401677 
 21 
-16.4501211251785 
 31 
 0 
 62 
 5 
 0 
LINE
 8 
TemplateLayer
 6 
CONTINUOUS
 10 
 6.81818400401677 
 20 
-16.4501211251785 
 30 
 0 
 11 
 3.40909300738165 
 21 
-16.9217634809919 
 31 
 0 
 62 
 5 
 0 
LINE
 8 
TemplateLayer
 6 
CONTINUOUS
 10 
 3.40909300738165 
 20 
-16.9217634809919 
 30 
 0 
 11 
 2.0113712302372E-06 
 21 
-17.0453588899923 
 31 
 0 
 62 
 5 
 0 
LINE
 8 
TemplateLayer
 6 
CONTINUOUS
 10 
 2.0113712302372E-06 
 20 
-17.0453588899923 
 30 
 0 
 11 
-3.40908898407468 
 21 
-16.8544488629522 
 31 
 0 
 62 
 5 
 0 
LINE
 8 
TemplateLayer
 6 
CONTINUOUS
 10 
-3.40908898407468 
 20 
-16.8544488629522 
 30 
 0 
 11 
-6.81817997872717 
 21 
-16.2214986004546 
 31 
 0 
 62 
 5 
 0 
LINE
 8 
TemplateLayer
 6 
CONTINUOUS
 10 
-6.81817997872717 
 20 
-16.2214986004546 
 30 
 0 
 11 
-9.99250942849817 
 21 
-13.6363620758057 
 31 
 0 
 62 
 5 
 0 
LINE
 8 
TemplateLayer
 6 
CONTINUOUS
 10 
-9.99250942849817 
 20 
-13.6363620758057 
 30 
 0 
 11 
-10.2272709696296 
 21 
-13.4992732047865 
 31 
 0 
 62 
 5 
 0 
LINE
 8 
TemplateLayer
 6 
CONTINUOUS
 10 
-10.2272709696296 
 20 
-13.4992732047865 
 30 
 0 
 11 
-13.4635892080508 
 21 
-10.2272710800171 
 31 
 0 
 62 
 5 
 0 
LINE
 8 
TemplateLayer
 6 
CONTINUOUS
 10 
-13.4635892080508 
 20 
-10.2272710800171 
 30 
 0 
 11 
-13.6363619589306 
 21 
-9.88480137557208 
 31 
 0 
 62 
 5 
 0 
LINE
 8 
TemplateLayer
 6 
CONTINUOUS
 10 
-13.6363619589306 
 20 
-9.88480137557208 
 30 
 0 
 11 
-16.0556948378655 
 21 
-6.81818008422852 
 31 
 0 
 62 
 5 
 0 
LINE
 8 
TemplateLayer
 6 
CONTINUOUS
 10 
-16.0556948378655 
 20 
-6.81818008422852 
 30 
 0 
 11 
-16.7523890855293 
 21 
-3.40908908843994 
 31 
 0 
 62 
 5 
 0 
LINE
 8 
TemplateLayer
 6 
CONTINUOUS
 10 
-16.7523890855293 
 20 
-3.40908908843994 
 30 
 0 
 11 
-16.9082104758167 
 21 
 1.9073486328125E-06 
 31 
 0 
 62 
 5 
 0 
LINE
 8 
TemplateLayer
 6 
CONTINUOUS
 10 
-16.9082104758167 
 20 
 1.9073486328125E-06 
 30 
 0 
 11 
-16.7447657907061 
 21 
 3.40909290313721 
 31 
 0 
 62 
 5 
 0 
LINE
 8 
TemplateLayer
 6 
CONTINUOUS
 10 
-16.7447657907061 
 20 
 3.40909290313721 
 30 
 0 
 11 
-15.980035851193 
 21 
 6.81818389892578 
 31 
 0 
 62 
 5 
 0 
LINE
 8 
TemplateLayer
 6 
CONTINUOUS
 10 
-15.980035851193 
 20 
 6.81818389892578 
 30 
 0 
 11 
-13.6363619236364 
 21 
 9.77884802336763 
 31 
 0 
 62 
 5 
 0 
LINE
 8 
TemplateLayer
 6 
CONTINUOUS
 10 
-13.6363619236364 
 20 
 9.77884802336763 
 30 
 0 
 11 
-13.4032944996144 
 21 
 10.2272748947144 
 31 
 0 
 62 
 5 
 0 
LINE
 8 
TemplateLayer
 6 
CONTINUOUS
 10 
-13.4032944996144 
 20 
 10.2272748947144 
 30 
 0 
 11 
-10.22727092131 
 21 
 13.4212955198943 
 31 
 0 
 62 
 5 
 0 
LINE
 8 
TemplateLayer
 6 
CONTINUOUS
 10 
-10.22727092131 
 20 
 13.4212955198943 
 30 
 0 
 11 
-9.83245941414598 
 21 
 13.6363658905029 
 31 
 0 
 62 
 5 
 0 
LINE
 8 
TemplateLayer
 6 
CONTINUOUS
 10 
-9.83245941414598 
 20 
 13.6363658905029 
 30 
 0 
 11 
-6.81817992077752 
 21 
 16.0642899653321 
 31 
 0 
 62 
 5 
 0 
LINE
 8 
TemplateLayer
 6 
CONTINUOUS
 10 
-6.81817992077752 
 20 
 16.0642899653321 
 30 
 0 
 11 
-3.40908892365812 
 21 
 16.8057373087654 
 31 
 0 
 62 
 5 
 0 
LINE
 8 
TemplateLayer
 6 
CONTINUOUS
 10 
-3.40908892365812 
 20 
 16.8057373087654 
 30 
 0 
 11 
 2.07244469695861E-06 
 21 
 16.980813619496 
 31 
 0 
 62 
 5 
 0 
LINE
 8 
TemplateLayer
 6 
CONTINUOUS
 10 
 2.07244469695861E-06 
 20 
 16.980813619496 
 30 
 0 
 11 
 3.40909306802267 
 21 
 16.8634816325978 
 31 
 0 
 62 
 5 
 0 
LINE
 8 
TemplateLayer
 6 
CONTINUOUS
 10 
 3.40909306802267 
 20 
 16.8634816325978 
 30 
 0 
 11 
 6.81818406284199 
 21 
 16.3234766638039 
 31 
 0 
 62 
 5 
 0 
LINE
 8 
TemplateLayer
 6 
CONTINUOUS
 10 
 6.81818406284199 
 20 
 16.3234766638039 
 30 
 0 
 11 
 10.2272750539458 
 21 
 13.7134142568461 
 31 
 0 
 62 
 5 
 0 
LINE
 8 
TemplateLayer
 6 
CONTINUOUS
 10 
 10.2272750539458 
 20 
 13.7134142568461 
 30 
 0 
 11 
 10.3161782090569 
 21 
 13.6363658905029 
 31 
 0 
 62 
 5 
 0 
LINE
 8 
TemplateLayer
 6 
CONTINUOUS
 10 
 10.3161782090569 
 20 
 13.6363658905029 
 30 
 0 
 11 
 13.6363660440172 
 21 
 10.5281714966016 
 31 
 0 
 62 
 5 
 0 
LINE
 8 
TemplateLayer
 6 
CONTINUOUS
 10 
 13.6363660440172 
 20 
 10.5281714966016 
 30 
 0 
 11 
 13.9083990426813 
 21 
 10.2272748947144 
 31 
 0 
 62 
 5 
 0 
LINE
 8 
TemplateLayer
 6 
CONTINUOUS
 10 
 13.9083990426813 
 20 
 10.2272748947144 
 30 
 0 
 11 
 16.4905995902465 
 21 
 6.81818389892578 
 31 
 0 
 62 
 5 
 0 
LINE
 8 
TemplateLayer
 6 
CONTINUOUS
 10 
 16.4905995902465 
 20 
 6.81818389892578 
 30 
 0 
 11 
 16.9873532667956 
 21 
 3.40909290313721 
 31 
 0 
 62 
 5 
 0 
LINE
 8 
TemplateLayer
 6 
CONTINUOUS
 10 
 16.9873532667956 
 20 
 3.40909290313721 
 30 
 0 
 11 
 17.0454570252482 
 21 
 2.41763869281685 
 31 
 0 
 62 
 5 
 0 
LINE
 8 
TemplateLayer
 6 
CONTINUOUS
 10 
 17.0454570252482 
 20 
 2.41763869281685 
 30 
 0 
 11 
 17.6989434591242 
 21 
 1.9073486328125E-06 
 31 
 0 
 62 
 5 
 0 
LINE
 8 
TemplateLayer
 6 
CONTINUOUS
 10 
-13.7756713994309 
 20 
-6.81818008422852 
 30 
 0 
 11 
-15.5820062994193 
 21 
-3.40908908843994 
 31 
 0 
 62 
 6 
 0 
LINE
 8 
TemplateLayer
 6 
CONTINUOUS
 10 
-15.5820062994193 
 20 
-3.40908908843994 
 30 
 0 
 11 
-15.9049760455675 
 21 
 1.9073486328125E-06 
 31 
 0 
 62 
 6 
 0 
LINE
 8 
TemplateLayer
 6 
CONTINUOUS
 10 
-15.9049760455675 
 20 
 1.9073486328125E-06 
 30 
 0 
 11 
-15.5600251686921 
 21 
 3.40909290313721 
 31 
 0 
 62 
 6 
 0 
LINE
 8 
TemplateLayer
 6 
CONTINUOUS
 10 
-15.5600251686921 
 20 
 3.40909290313721 
 30 
 0 
 11 
-13.6363619290929 
 21 
 6.7388216649546 
 31 
 0 
 62 
 6 
 0 
LINE
 8 
TemplateLayer
 6 
CONTINUOUS
 10 
-13.6363619290929 
 20 
 6.7388216649546 
 30 
 0 
 11 
-13.6072166858894 
 21 
 6.81818389892578 
 31 
 0 
 62 
 6 
 0 
LINE
 8 
TemplateLayer
 6 
CONTINUOUS
 10 
-13.6072166858894 
 20 
 6.81818389892578 
 30 
 0 
 11 
-11.8025569324102 
 21 
 10.2272748947144 
 31 
 0 
 62 
 6 
 0 
LINE
 8 
TemplateLayer
 6 
CONTINUOUS
 10 
-11.8025569324102 
 20 
 10.2272748947144 
 30 
 0 
 11 
-10.2272709241994 
 21 
 11.8114873152873 
 31 
 0 
 62 
 6 
 0 
LINE
 8 
TemplateLayer
 6 
CONTINUOUS
 10 
-10.2272709241994 
 20 
 11.8114873152873 
 30 
 0 
 11 
-6.87728338926746 
 21 
 13.6363658905029 
 31 
 0 
 62 
 6 
 0 
LINE
 8 
TemplateLayer
 6 
CONTINUOUS
 10 
-6.87728338926746 
 20 
 13.6363658905029 
 30 
 0 
 11 
-6.81817992504994 
 21 
 13.6839722004006 
 31 
 0 
 62 
 6 
 0 
LINE
 8 
TemplateLayer
 6 
CONTINUOUS
 10 
-6.81817992504994 
 20 
 13.6839722004006 
 30 
 0 
 11 
-3.40908892570899 
 21 
 15.6631273380323 
 31 
 0 
 62 
 6 
 0 
LINE
 8 
TemplateLayer
 6 
CONTINUOUS
 10 
-3.40908892570899 
 20 
 15.6631273380323 
 30 
 0 
 11 
 2.07072065605551E-06 
 21 
 16.0202899047605 
 31 
 0 
 62 
 6 
 0 
LINE
 8 
TemplateLayer
 6 
CONTINUOUS
 10 
 2.07072065605551E-06 
 20 
 16.0202899047605 
 30 
 0 
 11 
 3.40909306604671 
 21 
 15.7626029823547 
 31 
 0 
 62 
 6 
 0 
LINE
 8 
TemplateLayer
 6 
CONTINUOUS
 10 
 3.40909306604671 
 20 
 15.7626029823547 
 30 
 0 
 11 
 6.81818405918648 
 21 
 14.2868610609045 
 31 
 0 
 62 
 6 
 0 
LINE
 8 
TemplateLayer
 6 
CONTINUOUS
 10 
 6.81818405918648 
 20 
 14.2868610609045 
 30 
 0 
 11 
 7.65166833487812 
 21 
 13.6363658905029 
 31 
 0 
 62 
 6 
 0 
LINE
 8 
TemplateLayer
 6 
CONTINUOUS
 10 
 7.65166833487812 
 20 
 13.6363658905029 
 30 
 0 
 11 
 10.2272750514009 
 21 
 12.2955518885002 
 31 
 0 
 62 
 6 
 0 
LINE
 8 
TemplateLayer
 6 
CONTINUOUS
 10 
 10.2272750514009 
 20 
 12.2955518885002 
 30 
 0 
 11 
 12.3239590295624 
 21 
 10.2272748947144 
 31 
 0 
 62 
 6 
 0 
LINE
 8 
TemplateLayer
 6 
CONTINUOUS
 10 
 12.3239590295624 
 20 
 10.2272748947144 
 30 
 0 
 11 
 13.6363660396142 
 21 
 8.07513959165773 
 31 
 0 
 62 
 6 
 0 
LINE
 8 
TemplateLayer
 6 
CONTINUOUS
 10 
 13.6363660396142 
 20 
 8.07513959165773 
 30 
 0 
 11 
 14.6569664277016 
 21 
 6.81818389892578 
 31 
 0 
 62 
 6 
 0 
LINE
 8 
TemplateLayer
 6 
CONTINUOUS
 10 
 14.6569664277016 
 20 
 6.81818389892578 
 30 
 0 
 11 
 15.9803553113014 
 21 
 3.40909290313721 
 31 
 0 
 62 
 6 
 0 
LINE
 8 
TemplateLayer
 6 
CONTINUOUS
 10 
 15.9803553113014 
 20 
 3.40909290313721 
 30 
 0 
 11 
 16.2655853210339 
 21 
 1.9073486328125E-06 
 31 
 0 
 62 
 6 
 0 
LINE
 8 
TemplateLayer
 6 
CONTINUOUS
 10 
 16.2655853210339 
 20 
 1.9073486328125E-06 
 30 
 0 
 11 
 15.9409385057366 
 21 
-3.40908908843994 
 31 
 0 
 62 
 6 
 0 
LINE
 8 
TemplateLayer
 6 
CONTINUOUS
 10 
 15.9409385057366 
 20 
-3.40908908843994 
 30 
 0 
 11 
 14.6279895799705 
 21 
-6.81818008422852 
 31 
 0 
 62 
 6 
 0 
LINE
 8 
TemplateLayer
 6 
CONTINUOUS
 10 
 14.6279895799705 
 20 
-6.81818008422852 
 30 
 0 
 11 
 13.6363660106956 
 21 
-8.03644380319916 
 31 
 0 
 62 
 6 
 0 
LINE
 8 
TemplateLayer
 6 
CONTINUOUS
 10 
 13.6363660106956 
 20 
-8.03644380319916 
 30 
 0 
 11 
 12.3078191890326 
 21 
-10.2272710800171 
 31 
 0 
 62 
 6 
 0 
LINE
 8 
TemplateLayer
 6 
CONTINUOUS
 10 
 12.3078191890326 
 20 
-10.2272710800171 
 30 
 0 
 11 
 10.2272750072307 
 21 
-12.3131828107522 
 31 
 0 
 62 
 6 
 0 
LINE
 8 
TemplateLayer
 6 
CONTINUOUS
 10 
 10.2272750072307 
 20 
-12.3131828107522 
 30 
 0 
 11 
 8.07368975193163 
 21 
-13.6363620758057 
 31 
 0 
 62 
 6 
 0 
LINE
 8 
TemplateLayer
 6 
CONTINUOUS
 10 
 8.07368975193163 
 20 
-13.6363620758057 
 30 
 0 
 11 
 6.81818400723338 
 21 
-14.6580321336262 
 31 
 0 
 62 
 6 
 0 
LINE
 8 
TemplateLayer
 6 
CONTINUOUS
 10 
 6.81818400723338 
 20 
-14.6580321336262 
 30 
 0 
 11 
 3.40909300923173 
 21 
-15.8910169335975 
 31 
 0 
 62 
 6 
 0 
LINE
 8 
TemplateLayer
 6 
CONTINUOUS
 10 
 3.40909300923173 
 20 
-15.8910169335975 
 30 
 0 
 11 
 2.01306141229401E-06 
 21 
-16.1036991291531 
 31 
 0 
 62 
 6 
 0 
LINE
 8 
TemplateLayer
 6 
CONTINUOUS
 10 
 2.01306141229401E-06 
 20 
-16.1036991291531 
 30 
 0 
 11 
-3.40908898216899 
 21 
-15.7927244679206 
 31 
 0 
 62 
 6 
 0 
LINE
 8 
TemplateLayer
 6 
CONTINUOUS
 10 
-3.40908898216899 
 20 
-15.7927244679206 
 30 
 0 
 11 
-6.81817997503727 
 21 
-14.1657239190338 
 31 
 0 
 62 
 6 
 0 
LINE
 8 
TemplateLayer
 6 
CONTINUOUS
 10 
-6.81817997503727 
 20 
-14.1657239190338 
 30 
 0 
 11 
-7.46819163690578 
 21 
-13.6363620758057 
 31 
 0 
 62 
 6 
 0 
LINE
 8 
TemplateLayer
 6 
CONTINUOUS
 10 
-7.46819163690578 
 20 
-13.6363620758057 
 30 
 0 
 11 
-10.2272709669838 
 21 
-12.0251992397216 
 31 
 0 
 62 
 6 
 0 
LINE
 8 
TemplateLayer
 6 
CONTINUOUS
 10 
-10.2272709669838 
 20 
-12.0251992397216 
 30 
 0 
 11 
-12.0055912347412 
 21 
-10.2272710800171 
 31 
 0 
 62 
 6 
 0 
LINE
 8 
TemplateLayer
 6 
CONTINUOUS
 10 
-12.0055912347412 
 20 
-10.2272710800171 
 30 
 0 
 11 
-13.6363619537433 
 21 
-6.99476153606199 
 31 
 0 
 62 
 6 
 0 
LINE
 8 
TemplateLayer
 6 
CONTINUOUS
 10 
-13.6363619537433 
 20 
-6.99476153606199 
 30 
 0 
 11 
-13.7756713994309 
 21 
-6.81818008422852 
 31 
 0 
 62 
 6 
 0 
LINE
 8 
TemplateLayer
 6 
CONTINUOUS
 10 
-11.366183759819 
 20 
-6.81818008422852 
 30 
 0 
 11 
-12.8025256888403 
 21 
-3.40908908843994 
 31 
 0 
 62 
 214 
 0 
LINE
 8 
TemplateLayer
 6 
CONTINUOUS
 10 
-12.8025256888403 
 20 
-3.40908908843994 
 30 
 0 
 11 
-13.2380928664896 
 21 
 1.9073486328125E-06 
 31 
 0 
 62 
 214 
 0 
LINE
 8 
TemplateLayer
 6 
CONTINUOUS
 10 
-13.2380928664896 
 20 
 1.9073486328125E-06 
 30 
 0 
 11 
-12.7963267757257 
 21 
 3.40909290313721 
 31 
 0 
 62 
 214 
 0 
LINE
 8 
TemplateLayer
 6 
CONTINUOUS
 10 
-12.7963267757257 
 20 
 3.40909290313721 
 30 
 0 
 11 
-11.347894616417 
 21 
 6.81818389892578 
 31 
 0 
 62 
 214 
 0 
LINE
 8 
TemplateLayer
 6 
CONTINUOUS
 10 
-11.347894616417 
 20 
 6.81818389892578 
 30 
 0 
 11 
-10.2272709305634 
 21 
 8.26592138766537 
 31 
 0 
 62 
 214 
 0 
LINE
 8 
TemplateLayer
 6 
CONTINUOUS
 10 
-10.2272709305634 
 20 
 8.26592138766537 
 30 
 0 
 11 
-8.28936754177727 
 21 
 10.2272748947144 
 31 
 0 
 62 
 214 
 0 
LINE
 8 
TemplateLayer
 6 
CONTINUOUS
 10 
-8.28936754177727 
 20 
 10.2272748947144 
 30 
 0 
 11 
-6.81817992917816 
 21 
 11.3839954485338 
 31 
 0 
 62 
 214 
 0 
LINE
 8 
TemplateLayer
 6 
CONTINUOUS
 10 
-6.81817992917816 
 20 
 11.3839954485338 
 30 
 0 
 11 
-3.4090889307125 
 21 
 12.8754945031935 
 31 
 0 
 62 
 214 
 0 
LINE
 8 
TemplateLayer
 6 
CONTINUOUS
 10 
-3.4090889307125 
 20 
 12.8754945031935 
 30 
 0 
 11 
 2.06592333969191E-06 
 21 
 13.3475365310191 
 31 
 0 
 62 
 214 
 0 
LINE
 8 
TemplateLayer
 6 
CONTINUOUS
 10 
 2.06592333969191E-06 
 20 
 13.3475365310191 
 30 
 0 
 11 
 3.40909306100303 
 21 
 12.9525896831477 
 31 
 0 
 62 
 214 
 0 
LINE
 8 
TemplateLayer
 6 
CONTINUOUS
 10 
 3.40909306100303 
 20 
 12.9525896831477 
 30 
 0 
 11 
 6.8181840541653 
 21 
 11.4893850247937 
 31 
 0 
 62 
 214 
 0 
LINE
 8 
TemplateLayer
 6 
CONTINUOUS
 10 
 6.8181840541653 
 20 
 11.4893850247937 
 30 
 0 
 11 
 8.57760682811811 
 21 
 10.2272748947144 
 31 
 0 
 62 
 214 
 0 
LINE
 8 
TemplateLayer
 6 
CONTINUOUS
 10 
 8.57760682811811 
 20 
 10.2272748947144 
 30 
 0 
 11 
 10.2272750447843 
 21 
 8.60924342923998 
 31 
 0 
 62 
 214 
 0 
LINE
 8 
TemplateLayer
 6 
CONTINUOUS
 10 
 10.2272750447843 
 20 
 8.60924342923998 
 30 
 0 
 11 
 11.5942044486166 
 21 
 6.81818389892578 
 31 
 0 
 62 
 214 
 0 
LINE
 8 
TemplateLayer
 6 
CONTINUOUS
 10 
 11.5942044486166 
 20 
 6.81818389892578 
 30 
 0 
 11 
 13.1765635206905 
 21 
 3.40909290313721 
 31 
 0 
 62 
 214 
 0 
LINE
 8 
TemplateLayer
 6 
CONTINUOUS
 10 
 13.1765635206905 
 20 
 3.40909290313721 
 30 
 0 
 11 
 13.5759376973165 
 21 
 1.9073486328125E-06 
 31 
 0 
 62 
 214 
 0 
LINE
 8 
TemplateLayer
 6 
CONTINUOUS
 10 
 13.5759376973165 
 20 
 1.9073486328125E-06 
 30 
 0 
 11 
 13.1357696435469 
 21 
-3.40908908843994 
 31 
 0 
 62 
 214 
 0 
LINE
 8 
TemplateLayer
 6 
CONTINUOUS
 10 
 13.1357696435469 
 20 
-3.40908908843994 
 30 
 0 
 11 
 11.5432038527338 
 21 
-6.81818008422852 
 31 
 0 
 62 
 214 
 0 
LINE
 8 
TemplateLayer
 6 
CONTINUOUS
 10 
 11.5432038527338 
 20 
-6.81818008422852 
 30 
 0 
 11 
 10.2272750139491 
 21 
-8.57016410206981 
 31 
 0 
 62 
 214 
 0 
LINE
 8 
TemplateLayer
 6 
CONTINUOUS
 10 
 10.2272750139491 
 20 
-8.57016410206981 
 30 
 0 
 11 
 8.57297992836936 
 21 
-10.2272710800171 
 31 
 0 
 62 
 214 
 0 
LINE
 8 
TemplateLayer
 6 
CONTINUOUS
 10 
 8.57297992836936 
 20 
-10.2272710800171 
 30 
 0 
 11 
 6.81818401280589 
 21 
-11.5533953775912 
 31 
 0 
 62 
 214 
 0 
LINE
 8 
TemplateLayer
 6 
CONTINUOUS
 10 
 6.81818401280589 
 20 
-11.5533953775912 
 30 
 0 
 11 
 3.40909301425318 
 21 
-13.0933931072198 
 31 
 0 
 62 
 214 
 0 
LINE
 8 
TemplateLayer
 6 
CONTINUOUS
 10 
 3.40909301425318 
 20 
-13.0933931072198 
 30 
 0 
 11 
 2.01788227414262E-06 
 21 
-13.4178277384302 
 31 
 0 
 62 
 214 
 0 
LINE
 8 
TemplateLayer
 6 
CONTINUOUS
 10 
 2.01788227414262E-06 
 20 
-13.4178277384302 
 30 
 0 
 11 
-3.40908897715635 
 21 
-13.0000020307204 
 31 
 0 
 62 
 214 
 0 
LINE
 8 
TemplateLayer
 6 
CONTINUOUS
 10 
-3.40908897715635 
 20 
-13.0000020307204 
 30 
 0 
 11 
-6.81817997013589 
 21 
-11.4349936053752 
 31 
 0 
 62 
 214 
 0 
LINE
 8 
TemplateLayer
 6 
CONTINUOUS
 10 
-6.81817997013589 
 20 
-11.4349936053752 
 30 
 0 
 11 
-8.37966389568388 
 21 
-10.2272710800171 
 31 
 0 
 62 
 214 
 0 
LINE
 8 
TemplateLayer
 6 
CONTINUOUS
 10 
-8.37966389568388 
 20 
-10.2272710800171 
 30 
 0 
 11 
-10.2272709604097 
 21 
-8.36252026817411 
 31 
 0 
 62 
 214 
 0 
LINE
 8 
TemplateLayer
 6 
CONTINUOUS
 10 
-10.2272709604097 
 20 
-8.36252026817411 
 30 
 0 
 11 
-11.366183759819 
 21 
-6.81818008422852 
 31 
 0 
 62 
 214 
 0 
LINE
 8 
TemplateLayer
 6 
CONTINUOUS
 10 
-10.5423495228364 
 20 
 1.9073486328125E-06 
 30 
 0 
 11 
-10.2272709427997 
 21 
 1.44861151338154 
 31 
 0 
 62 
 30 
 0 
LINE
 8 
TemplateLayer
 6 
CONTINUOUS
 10 
-10.2272709427997 
 20 
 1.44861151338154 
 30 
 0 
 11 
-9.9693354969013 
 21 
 3.40909290313721 
 31 
 0 
 62 
 30 
 0 
LINE
 8 
TemplateLayer
 6 
CONTINUOUS
 10 
-9.9693354969013 
 20 
 3.40909290313721 
 30 
 0 
 11 
-8.10354310927024 
 21 
 6.81818389892578 
 31 
 0 
 62 
 30 
 0 
LINE
 8 
TemplateLayer
 6 
CONTINUOUS
 10 
-8.10354310927024 
 20 
 6.81818389892578 
 30 
 0 
 11 
-6.81817993504875 
 21 
 8.11328742824448 
 31 
 0 
 62 
 30 
 0 
LINE
 8 
TemplateLayer
 6 
CONTINUOUS
 10 
-6.81817993504875 
 20 
 8.11328742824448 
 30 
 0 
 11 
-3.40908893589718 
 21 
 9.98692910085794 
 31 
 0 
 62 
 30 
 0 
LINE
 8 
TemplateLayer
 6 
CONTINUOUS
 10 
-3.40908893589718 
 20 
 9.98692910085794 
 30 
 0 
 11 
-1.5313070684338 
 21 
 10.2272748947144 
 31 
 0 
 62 
 30 
 0 
LINE
 8 
TemplateLayer
 6 
CONTINUOUS
 10 
-1.5313070684338 
 20 
 10.2272748947144 
 30 
 0 
 11 
 2.06092026020649E-06 
 21 
 10.5601452993582 
 31 
 0 
 62 
 30 
 0 
LINE
 8 
TemplateLayer
 6 
CONTINUOUS
 10 
 2.06092026020649E-06 
 20 
 10.5601452993582 
 30 
 0 
 11 
 1.52135382416957 
 21 
 10.2272748947144 
 31 
 0 
 62 
 30 
 0 
LINE
 8 
TemplateLayer
 6 
CONTINUOUS
 10 
 1.52135382416957 
 20 
 10.2272748947144 
 30 
 0 
 11 
 3.40909305567191 
 21 
 9.98243946035232 
 31 
 0 
 62 
 30 
 0 
LINE
 8 
TemplateLayer
 6 
CONTINUOUS
 10 
 3.40909305567191 
 20 
 9.98243946035232 
 30 
 0 
 11 
 6.8181840481338 
 21 
 8.12902400102438 
 31 
 0 
 62 
 30 
 0 
LINE
 8 
TemplateLayer
 6 
CONTINUOUS
 10 
 6.8181840481338 
 20 
 8.12902400102438 
 30 
 0 
 11 
 8.14324315808211 
 21 
 6.81818389892578 
 31 
 0 
 62 
 30 
 0 
LINE
 8 
TemplateLayer
 6 
CONTINUOUS
 10 
 8.14324315808211 
 20 
 6.81818389892578 
 30 
 0 
 11 
 9.99538486108469 
 21 
 3.40909290313721 
 31 
 0 
 62 
 30 
 0 
LINE
 8 
TemplateLayer
 6 
CONTINUOUS
 10 
 9.99538486108469 
 20 
 3.40909290313721 
 30 
 0 
 11 
 10.2272750324352 
 21 
 1.72909828033627 
 31 
 0 
 62 
 30 
 0 
LINE
 8 
TemplateLayer
 6 
CONTINUOUS
 10 
 10.2272750324352 
 20 
 1.72909828033627 
 30 
 0 
 11 
 10.6425283978431 
 21 
 1.9073486328125E-06 
 31 
 0 
 62 
 30 
 0 
LINE
 8 
TemplateLayer
 6 
CONTINUOUS
 10 
 10.6425283978431 
 20 
 1.9073486328125E-06 
 30 
 0 
 11 
 10.2272750262602 
 21 
-1.71119186176922 
 31 
 0 
 62 
 30 
 0 
LINE
 8 
TemplateLayer
 6 
CONTINUOUS
 10 
 10.2272750262602 
 20 
-1.71119186176922 
 30 
 0 
 11 
 9.98364462654838 
 21 
-3.40908908843994 
 31 
 0 
 62 
 30 
 0 
LINE
 8 
TemplateLayer
 6 
CONTINUOUS
 10 
 9.98364462654838 
 20 
-3.40908908843994 
 30 
 0 
 11 
 8.0575511362153 
 21 
-6.81818008422852 
 31 
 0 
 62 
 30 
 0 
LINE
 8 
TemplateLayer
 6 
CONTINUOUS
 10 
 8.0575511362153 
 20 
-6.81818008422852 
 30 
 0 
 11 
 6.81818401907848 
 21 
-8.05871155843462 
 31 
 0 
 62 
 30 
 0 
LINE
 8 
TemplateLayer
 6 
CONTINUOUS
 10 
 6.81818401907848 
 20 
-8.05871155843462 
 30 
 0 
 11 
 3.40909301984257 
 21 
-9.97934608244738 
 31 
 0 
 62 
 30 
 0 
LINE
 8 
TemplateLayer
 6 
CONTINUOUS
 10 
 3.40909301984257 
 20 
-9.97934608244738 
 30 
 0 
 11 
 1.47973672329371 
 21 
-10.2272710800171 
 31 
 0 
 62 
 30 
 0 
LINE
 8 
TemplateLayer
 6 
CONTINUOUS
 10 
 1.47973672329371 
 20 
-10.2272710800171 
 30 
 0 
 11 
 2.02304613322601E-06 
 21 
-10.5408605477052 
 31 
 0 
 62 
 30 
 0 
LINE
 8 
TemplateLayer
 6 
CONTINUOUS
 10 
 2.02304613322601E-06 
 20 
-10.5408605477052 
 30 
 0 
 11 
-1.40445417702474 
 21 
-10.2272710800171 
 31 
 0 
 62 
 30 
 0 
LINE
 8 
TemplateLayer
 6 
CONTINUOUS
 10 
-1.40445417702474 
 20 
-10.2272710800171 
 30 
 0 
 11 
-3.40908897169771 
 21 
-9.95880539325432 
 31 
 0 
 62 
 30 
 0 
LINE
 8 
TemplateLayer
 6 
CONTINUOUS
 10 
-3.40908897169771 
 20 
-9.95880539325432 
 30 
 0 
 11 
-6.81817996408172 
 21 
-8.06200004418766 
 31 
 0 
 62 
 30 
 0 
LINE
 8 
TemplateLayer
 6 
CONTINUOUS
 10 
-6.81817996408172 
 20 
-8.06200004418766 
 30 
 0 
 11 
-8.05521156594606 
 21 
-6.81818008422852 
 31 
 0 
 62 
 30 
 0 
LINE
 8 
TemplateLayer
 6 
CONTINUOUS
 10 
-8.05521156594606 
 20 
-6.81818008422852 
 30 
 0 
 11 
-9.934965988156 
 21 
-3.40908908843994 
 31 
 0 
 62 
 30 
 0 
LINE
 8 
TemplateLayer
 6 
CONTINUOUS
 10 
-9.934965988156 
 20 
-3.40908908843994 
 30 
 0 
 11 
-10.2272709478604 
 21 
-1.37085939363732 
 31 
 0 
 62 
 30 
 0 
LINE
 8 
TemplateLayer
 6 
CONTINUOUS
 10 
-10.2272709478604 
 20 
-1.37085939363732 
 30 
 0 
 11 
-10.5423495228364 
 21 
 1.9073486328125E-06 
 31 
 0 
 62 
 30 
 0 
LINE
 8 
TemplateLayer
 6 
CONTINUOUS
 10 
-7.87432607164532 
 20 
 1.9073486328125E-06 
 30 
 0 
 11 
-6.81817994394504 
 21 
 3.1568470962599 
 31 
 0 
 62 
 94 
 0 
LINE
 8 
TemplateLayer
 6 
CONTINUOUS
 10 
-6.81817994394504 
 20 
 3.1568470962599 
 30 
 0 
 11 
-6.73858580640182 
 21 
 3.40909290313721 
 31 
 0 
 62 
 94 
 0 
LINE
 8 
TemplateLayer
 6 
CONTINUOUS
 10 
-6.73858580640182 
 20 
 3.40909290313721 
 30 
 0 
 11 
-3.40908894173129 
 21 
 6.73654238467944 
 31 
 0 
 62 
 94 
 0 
LINE
 8 
TemplateLayer
 6 
CONTINUOUS
 10 
-3.40908894173129 
 20 
 6.73654238467944 
 30 
 0 
 11 
-3.16623338457199 
 21 
 6.81818389892578 
 31 
 0 
 62 
 94 
 0 
LINE
 8 
TemplateLayer
 6 
CONTINUOUS
 10 
-3.16623338457199 
 20 
 6.81818389892578 
 30 
 0 
 11 
 2.05618996176882E-06 
 21 
 7.92472996518057 
 31 
 0 
 62 
 94 
 0 
LINE
 8 
TemplateLayer
 6 
CONTINUOUS
 10 
 2.05618996176882E-06 
 20 
 7.92472996518057 
 30 
 0 
 11 
 3.11627804514803 
 21 
 6.81818389892578 
 31 
 0 
 62 
 94 
 0 
LINE
 8 
TemplateLayer
 6 
CONTINUOUS
 10 
 3.11627804514803 
 20 
 6.81818389892578 
 30 
 0 
 11 
 3.40909304981714 
 21 
 6.72054201458131 
 31 
 0 
 62 
 94 
 0 
LINE
 8 
TemplateLayer
 6 
CONTINUOUS
 10 
 3.40909304981714 
 20 
 6.72054201458131 
 30 
 0 
 11 
 6.68671489046887 
 21 
 3.40909290313721 
 31 
 0 
 62 
 94 
 0 
LINE
 8 
TemplateLayer
 6 
CONTINUOUS
 10 
 6.68671489046887 
 20 
 3.40909290313721 
 30 
 0 
 11 
 6.81818403888884 
 21 
 2.97833248529827 
 31 
 0 
 62 
 94 
 0 
LINE
 8 
TemplateLayer
 6 
CONTINUOUS
 10 
 6.81818403888884 
 20 
 2.97833248529827 
 30 
 0 
 11 
 7.84292832637197 
 21 
 1.9073486328125E-06 
 31 
 0 
 62 
 94 
 0 
LINE
 8 
TemplateLayer
 6 
CONTINUOUS
 10 
 7.84292832637197 
 20 
 1.9073486328125E-06 
 30 
 0 
 11 
 6.8181840285239 
 21 
-2.7963397456199 
 31 
 0 
 62 
 94 
 0 
LINE
 8 
TemplateLayer
 6 
CONTINUOUS
 10 
 6.8181840285239 
 20 
-2.7963397456199 
 30 
 0 
 11 
 6.62653573376013 
 21 
-3.40908908843994 
 31 
 0 
 62 
 94 
 0 
LINE
 8 
TemplateLayer
 6 
CONTINUOUS
 10 
 6.62653573376013 
 20 
-3.40908908843994 
 30 
 0 
 11 
 3.40909302588432 
 21 
-6.61327544889313 
 31 
 0 
 62 
 94 
 0 
LINE
 8 
TemplateLayer
 6 
CONTINUOUS
 10 
 3.40909302588432 
 20 
-6.61327544889313 
 30 
 0 
 11 
 2.67949927711127 
 21 
-6.81818008422852 
 31 
 0 
 62 
 94 
 0 
LINE
 8 
TemplateLayer
 6 
CONTINUOUS
 10 
 2.67949927711127 
 20 
-6.81818008422852 
 30 
 0 
 11 
 2.02809198785597E-06 
 21 
-7.72963777944445 
 31 
 0 
 62 
 94 
 0 
LINE
 8 
TemplateLayer
 6 
CONTINUOUS
 10 
 2.02809198785597E-06 
 20 
-7.72963777944445 
 30 
 0 
 11 
-2.70394926304654 
 21 
-6.81818008422852 
 31 
 0 
 62 
 94 
 0 
LINE
 8 
TemplateLayer
 6 
CONTINUOUS
 10 
-2.70394926304654 
 20 
-6.81818008422852 
 30 
 0 
 11 
-3.40908896570088 
 21 
-6.6177607759072 
 31 
 0 
 62 
 94 
 0 
LINE
 8 
TemplateLayer
 6 
CONTINUOUS
 10 
-3.40908896570088 
 20 
-6.6177607759072 
 30 
 0 
 11 
-6.65266436732393 
 21 
-3.40908908843994 
 31 
 0 
 62 
 94 
 0 
LINE
 8 
TemplateLayer
 6 
CONTINUOUS
 10 
-6.65266436732393 
 20 
-3.40908908843994 
 30 
 0 
 11 
-6.81817995482361 
 21 
-2.90398517642507 
 31 
 0 
 62 
 94 
 0 
LINE
 8 
TemplateLayer
 6 
CONTINUOUS
 10 
-6.81817995482361 
 20 
-2.90398517642507 
 30 
 0 
 11 
-7.87432607164532 
 21 
 1.9073486328125E-06 
 31 
 0 
 62 
 94 
 0 
TEXT
 8 
TemplateLayer
 10 
 27.5026452228628 
 20 
 2.42390768616288 
 30 
 0 
 40 
 1.33 
 50 
 0 
 62 
 7 
 1 
.1
 0 
TEXT
 8 
TemplateLayer
 10 
-21.028901455673 
 20 
-11.2124562969914 
 30 
 0 
 40 
 1.33 
 50 
 0 
 62 
 1 
 1 
.2
 0 
TEXT
 8 
TemplateLayer
 10 
-17.8161533492454 
 20 
-7.80336530120284 
 30 
 0 
 40 
 1.33 
 50 
 0 
 62 
 3 
 1 
.5
 0 
TEXT
 8 
TemplateLayer
 10 
 17.6989434591242 
 20 
-0.985183309625696 
 30 
 0 
 40 
 1.33 
 50 
 0 
 62 
 5 
 1 
1
 0 
TEXT
 8 
TemplateLayer
 10 
-13.7756713994309 
 20 
-7.80336530120284 
 30 
 0 
 40 
 1.33 
 50 
 0 
 62 
 6 
 1 
2
 0 
TEXT
 8 
TemplateLayer
 10 
-12.8025256888403 
 20 
-4.39427430541427 
 30 
 0 
 40 
 1.33 
 50 
 0 
 62 
 214 
 1 
5
 0 
TEXT
 8 
TemplateLayer
 10 
-10.5423495228364 
 20 
-0.985183309625696 
 30 
 0 
 40 
 1.33 
 50 
 0 
 62 
 30 
 1 
10
 0 
TEXT
 8 
TemplateLayer
 10 
-6.81817994394504 
 20 
 2.17166187928557 
 30 
 0 
 40 
 1.33 
 50 
 0 
 62 
 94 
 1 
20
 0 
LINE
 8 
TemplateLayer
 6 
CONTINUOUS
 10 
 0 
 20 
 0 
 30 
 0 
 11 
 2 
 21 
 0 
 31 
 0 
 62 
 0 
 0 
LINE
 8 
TemplateLayer
 6 
CONTINUOUS
 10 
 2 
 20 
 0 
 30 
 0 
 11 
 1 
 21 
 0.5 
 31 
 0 
 62 
 0 
 0 
LINE
 8 
TemplateLayer
 6 
CONTINUOUS
 10 
 1 
 20 
 0.5 
 30 
 0 
 11 
 1 
 21 
-0.5 
 31 
 0 
 62 
 0 
 0 
LINE
 8 
TemplateLayer
 6 
CONTINUOUS
 10 
 1 
 20 
-0.5 
 30 
 0 
 11 
 2 
 21 
 0 
 31 
 0 
 62 
 0 
 0 
LINE
 8 
TemplateLayer
 6 
CONTINUOUS
 10 
-0.100000001490116 
 20 
 0.100000001490116 
 30 
 0 
 11 
 0.100000001490116 
 21 
 0.100000001490116 
 31 
 0 
 62 
 0 
 0 
LINE
 8 
TemplateLayer
 6 
CONTINUOUS
 10 
 0.100000001490116 
 20 
 0.100000001490116 
 30 
 0 
 11 
 0.100000001490116 
 21 
-0.100000001490116 
 31 
 0 
 62 
 0 
 0 
LINE
 8 
TemplateLayer
 6 
CONTINUOUS
 10 
 0.100000001490116 
 20 
-0.100000001490116 
 30 
 0 
 11 
-0.100000001490116 
 21 
-0.100000001490116 
 31 
 0 
 62 
 0 
 0 
LINE
 8 
TemplateLayer
 6 
CONTINUOUS
 10 
-0.100000001490116 
 20 
-0.100000001490116 
 30 
 0 
 11 
-0.100000001490116 
 21 
 0.100000001490116 
 31 
 0 
 62 
 0 
 0 
LINE
 8 
TemplateLayer
 6 
CONTINUOUS
 10 
 0 
 20 
 0 
 30 
 0 
 11 
 0 
 21 
 0 
 31 
 0 
 62 
 0 
 0 
ENDBLK
 0 
ENDSEC
 0 
SECTION
 2 
ENTITIES
 0 
INSERT
 2 
Template
 6 
CONTINUOUS
 8 
TemplateLayer
 10 
 0 
 20 
 0 
 30 
 0 
 41 
 1 
 42 
 1 
 43 
 1 
 50 
 0 
 0 
ENDSEC
 0 
EOF
