 0 
SECTION
 2 
HEADER
 9 
$LUNITS
 70 
 2 
 0 
ENDSEC
 0 
SECTION
 2 
TABLES
 0 
TABLE
 2 
LTYPE
 70 
 1 
 0 
LTYPE
 2 
CONTINUOUS
 70 
 0 
 3 
Solid line
 72 
 65 
 73 
 0 
 40 
 0 
 0 
ENDTAB
 0 
TABLE
 2 
LAYER
 70 
 0 
 0 
LAYER
 2 
TemplateLayer
 62 
 7 
 6 
CONTINUOUS
 70 
 0 
 0 
ENDTAB
 0 
ENDSEC
 0 
SECTION
 2 
BLOCKS
 0 
BLOCK
 8 
TemplateLayer
 2 
Template
 70 
 0 
 10 
 0 
 20 
 0 
 30 
 0 
 0 
LINE
 8 
TemplateLayer
 6 
CONTINUOUS
 10 
-30.9185591592863 
 20 
-13.6363620758057 
 30 
 0 
 11 
-32.6069506479903 
 21 
-10.2272710800171 
 31 
 0 
 62 
 7 
 0 
LINE
 8 
TemplateLayer
 6 
CONTINUOUS
 10 
-32.6069506479903 
 20 
-10.2272710800171 
 30 
 0 
 11 
-33.3424282666337 
 21 
-6.81818008422852 
 31 
 0 
 62 
 7 
 0 
LINE
 8 
TemplateLayer
 6 
CONTINUOUS
 10 
-33.3424282666337 
 20 
-6.81818008422852 
 30 
 0 
 11 
-33.7273415795811 
 21 
-3.40908908843994 
 31 
 0 
 62 
 7 
 0 
LINE
 8 
TemplateLayer
 6 
CONTINUOUS
 10 
-33.7273415795811 
 20 
-3.40908908843994 
 30 
 0 
 11 
-33.781467179078 
 21 
 1.9073486328125E-06 
 31 
 0 
 62 
 7 
 0 
LINE
 8 
TemplateLayer
 6 
CONTINUOUS
 10 
-33.781467179078 
 20 
 1.9073486328125E-06 
 30 
 0 
 11 
-33.7273415673431 
 21 
 3.40909290313721 
 31 
 0 
 62 
 7 
 0 
LINE
 8 
TemplateLayer
 6 
CONTINUOUS
 10 
-33.7273415673431 
 20 
 3.40909290313721 
 30 
 0 
 11 
-33.3424282421578 
 21 
 6.81818389892578 
 31 
 0 
 62 
 7 
 0 
LINE
 8 
TemplateLayer
 6 
CONTINUOUS
 10 
-33.3424282421578 
 20 
 6.81818389892578 
 30 
 0 
 11 
-32.6069506112765 
 21 
 10.2272748947144 
 31 
 0 
 62 
 7 
 0 
LINE
 8 
TemplateLayer
 6 
CONTINUOUS
 10 
-32.6069506112765 
 20 
 10.2272748947144 
 30 
 0 
 11 
-30.9185591103346 
 21 
 13.6363658905029 
 31 
 0 
 62 
 7 
 0 
LINE
 8 
TemplateLayer
 6 
CONTINUOUS
 10 
-30.9185591103346 
 20 
 13.6363658905029 
 30 
 0 
 11 
-30.6818168952442 
 21 
 13.8654712717836 
 31 
 0 
 62 
 7 
 0 
LINE
 8 
TemplateLayer
 6 
CONTINUOUS
 10 
-30.6818168952442 
 20 
 13.8654712717836 
 30 
 0 
 11 
-27.2727258948876 
 21 
 16.410481254741 
 31 
 0 
 62 
 7 
 0 
LINE
 8 
TemplateLayer
 6 
CONTINUOUS
 10 
-27.2727258948876 
 20 
 16.410481254741 
 30 
 0 
 11 
-26.6510381860824 
 21 
 17.0454568862915 
 31 
 0 
 62 
 7 
 0 
LINE
 8 
TemplateLayer
 6 
CONTINUOUS
 10 
-26.6510381860824 
 20 
 17.0454568862915 
 30 
 0 
 11 
-23.8636348945123 
 21 
 18.9659230521451 
 31 
 0 
 62 
 7 
 0 
LINE
 8 
TemplateLayer
 6 
CONTINUOUS
 10 
-23.8636348945123 
 20 
 18.9659230521451 
 30 
 0 
 11 
-21.9864210287534 
 21 
 20.4545478820801 
 31 
 0 
 62 
 7 
 0 
LINE
 8 
TemplateLayer
 6 
CONTINUOUS
 10 
-21.9864210287534 
 20 
 20.4545478820801 
 30 
 0 
 11 
-20.4545438939862 
 21 
 21.6053238782533 
 31 
 0 
 62 
 7 
 0 
LINE
 8 
TemplateLayer
 6 
CONTINUOUS
 10 
-20.4545438939862 
 20 
 21.6053238782533 
 30 
 0 
 11 
-17.0454528951767 
 21 
 23.2884013751796 
 31 
 0 
 62 
 7 
 0 
LINE
 8 
TemplateLayer
 6 
CONTINUOUS
 10 
-17.0454528951767 
 20 
 23.2884013751796 
 30 
 0 
 11 
-13.6363618984769 
 21 
 23.7961073388853 
 31 
 0 
 62 
 7 
 0 
LINE
 8 
TemplateLayer
 6 
CONTINUOUS
 10 
-13.6363618984769 
 20 
 23.7961073388853 
 30 
 0 
 11 
-10.2272709038264 
 21 
 23.1620365578354 
 31 
 0 
 62 
 7 
 0 
LINE
 8 
TemplateLayer
 6 
CONTINUOUS
 10 
-10.2272709038264 
 20 
 23.1620365578354 
 30 
 0 
 11 
-6.8181799073116 
 21 
 23.5666240779466 
 31 
 0 
 62 
 7 
 0 
LINE
 8 
TemplateLayer
 6 
CONTINUOUS
 10 
-6.8181799073116 
 20 
 23.5666240779466 
 30 
 0 
 11 
-3.40908891131457 
 21 
 23.6827653311506 
 31 
 0 
 62 
 7 
 0 
LINE
 8 
TemplateLayer
 6 
CONTINUOUS
 10 
-3.40908891131457 
 20 
 23.6827653311506 
 30 
 0 
 11 
 2.08441622225747E-06 
 21 
 23.6505706697439 
 31 
 0 
 62 
 7 
 0 
LINE
 8 
TemplateLayer
 6 
CONTINUOUS
 10 
 2.08441622225747E-06 
 20 
 23.6505706697439 
 30 
 0 
 11 
 3.40909308026258 
 21 
 23.6827653311506 
 31 
 0 
 62 
 7 
 0 
LINE
 8 
TemplateLayer
 6 
CONTINUOUS
 10 
 3.40909308026258 
 20 
 23.6827653311506 
 30 
 0 
 11 
 6.8181840758427 
 21 
 23.5666240779466 
 31 
 0 
 62 
 7 
 0 
LINE
 8 
TemplateLayer
 6 
CONTINUOUS
 10 
 6.8181840758427 
 20 
 23.5666240779466 
 30 
 0 
 11 
 10.2272750709051 
 21 
 23.1620365578354 
 31 
 0 
 62 
 7 
 0 
LINE
 8 
TemplateLayer
 6 
CONTINUOUS
 10 
 10.2272750709051 
 20 
 23.1620365578354 
 30 
 0 
 11 
 13.6363660678317 
 21 
 23.7961073388853 
 31 
 0 
 62 
 7 
 0 
LINE
 8 
TemplateLayer
 6 
CONTINUOUS
 10 
 13.6363660678317 
 20 
 23.7961073388853 
 30 
 0 
 11 
 17.045457062709 
 21 
 23.2884013751796 
 31 
 0 
 62 
 7 
 0 
LINE
 8 
TemplateLayer
 6 
CONTINUOUS
 10 
 17.045457062709 
 20 
 23.2884013751796 
 30 
 0 
 11 
 20.4545480554767 
 21 
 21.6053238782533 
 31 
 0 
 62 
 7 
 0 
LINE
 8 
TemplateLayer
 6 
CONTINUOUS
 10 
 20.4545480554767 
 20 
 21.6053238782533 
 30 
 0 
 11 
 21.9864251861128 
 21 
 20.4545478820801 
 31 
 0 
 62 
 7 
 0 
LINE
 8 
TemplateLayer
 6 
CONTINUOUS
 10 
 21.9864251861128 
 20 
 20.4545478820801 
 30 
 0 
 11 
 23.8636390465278 
 21 
 18.9659230521451 
 31 
 0 
 62 
 7 
 0 
LINE
 8 
TemplateLayer
 6 
CONTINUOUS
 10 
 23.8636390465278 
 20 
 18.9659230521451 
 30 
 0 
 11 
 26.6510423312038 
 21 
 17.0454568862915 
 31 
 0 
 62 
 7 
 0 
LINE
 8 
TemplateLayer
 6 
CONTINUOUS
 10 
 26.6510423312038 
 20 
 17.0454568862915 
 30 
 0 
 11 
 27.2727300377296 
 21 
 16.410481254741 
 31 
 0 
 62 
 7 
 0 
LINE
 8 
TemplateLayer
 6 
CONTINUOUS
 10 
 27.2727300377296 
 20 
 16.410481254741 
 30 
 0 
 11 
 30.6818210289501 
 21 
 13.8654712717836 
 31 
 0 
 62 
 7 
 0 
LINE
 8 
TemplateLayer
 6 
CONTINUOUS
 10 
 30.6818210289501 
 20 
 13.8654712717836 
 30 
 0 
 11 
 30.9185632432181 
 21 
 13.6363658905029 
 31 
 0 
 62 
 7 
 0 
LINE
 8 
TemplateLayer
 6 
CONTINUOUS
 10 
 30.9185632432181 
 20 
 13.6363658905029 
 30 
 0 
 11 
 32.6069547319221 
 21 
 10.2272748947144 
 31 
 0 
 62 
 7 
 0 
LINE
 8 
TemplateLayer
 6 
CONTINUOUS
 10 
 32.6069547319221 
 20 
 10.2272748947144 
 30 
 0 
 11 
 33.3424323505655 
 21 
 6.81818389892578 
 31 
 0 
 62 
 7 
 0 
LINE
 8 
TemplateLayer
 6 
CONTINUOUS
 10 
 33.3424323505655 
 20 
 6.81818389892578 
 30 
 0 
 11 
 33.7273456635128 
 21 
 3.40909290313721 
 31 
 0 
 62 
 7 
 0 
LINE
 8 
TemplateLayer
 6 
CONTINUOUS
 10 
 33.7273456635128 
 20 
 3.40909290313721 
 30 
 0 
 11 
 33.7814712630098 
 21 
 1.9073486328125E-06 
 31 
 0 
 62 
 7 
 0 
LINE
 8 
TemplateLayer
 6 
CONTINUOUS
 10 
 33.7814712630098 
 20 
 1.9073486328125E-06 
 30 
 0 
 11 
 33.7273456512749 
 21 
-3.40908908843994 
 31 
 0 
 62 
 7 
 0 
LINE
 8 
TemplateLayer
 6 
CONTINUOUS
 10 
 33.7273456512749 
 20 
-3.40908908843994 
 30 
 0 
 11 
 33.3424323260896 
 21 
-6.81818008422852 
 31 
 0 
 62 
 7 
 0 
LINE
 8 
TemplateLayer
 6 
CONTINUOUS
 10 
 33.3424323260896 
 20 
-6.81818008422852 
 30 
 0 
 11 
 32.6069546952083 
 21 
-10.2272710800171 
 31 
 0 
 62 
 7 
 0 
LINE
 8 
TemplateLayer
 6 
CONTINUOUS
 10 
 32.6069546952083 
 20 
-10.2272710800171 
 30 
 0 
 11 
 30.9185631942663 
 21 
-13.6363620758057 
 31 
 0 
 62 
 7 
 0 
LINE
 8 
TemplateLayer
 6 
CONTINUOUS
 10 
 30.9185631942663 
 20 
-13.6363620758057 
 30 
 0 
 11 
 30.681820979176 
 21 
-13.8654674570863 
 31 
 0 
 62 
 7 
 0 
LINE
 8 
TemplateLayer
 6 
CONTINUOUS
 10 
 30.681820979176 
 20 
-13.8654674570863 
 30 
 0 
 11 
 27.2727299788194 
 21 
-16.4104774400438 
 31 
 0 
 62 
 7 
 0 
LINE
 8 
TemplateLayer
 6 
CONTINUOUS
 10 
 27.2727299788194 
 20 
-16.4104774400438 
 30 
 0 
 11 
 26.6510422700142 
 21 
-17.0454530715942 
 31 
 0 
 62 
 7 
 0 
LINE
 8 
TemplateLayer
 6 
CONTINUOUS
 10 
 26.6510422700142 
 20 
-17.0454530715942 
 30 
 0 
 11 
 23.863638978444 
 21 
-18.9659192374478 
 31 
 0 
 62 
 7 
 0 
LINE
 8 
TemplateLayer
 6 
CONTINUOUS
 10 
 23.863638978444 
 20 
-18.9659192374478 
 30 
 0 
 11 
 21.9864251126852 
 21 
-20.4545440673828 
 31 
 0 
 62 
 7 
 0 
LINE
 8 
TemplateLayer
 6 
CONTINUOUS
 10 
 21.9864251126852 
 20 
-20.4545440673828 
 30 
 0 
 11 
 20.454547977918 
 21 
-21.605320063556 
 31 
 0 
 62 
 7 
 0 
LINE
 8 
TemplateLayer
 6 
CONTINUOUS
 10 
 20.454547977918 
 20 
-21.605320063556 
 30 
 0 
 11 
 17.0454569791085 
 21 
-23.2883975604823 
 31 
 0 
 62 
 7 
 0 
LINE
 8 
TemplateLayer
 6 
CONTINUOUS
 10 
 17.0454569791085 
 20 
-23.2883975604823 
 30 
 0 
 11 
 13.6363659824086 
 21 
-23.7961035241881 
 31 
 0 
 62 
 7 
 0 
LINE
 8 
TemplateLayer
 6 
CONTINUOUS
 10 
 13.6363659824086 
 20 
-23.7961035241881 
 30 
 0 
 11 
 10.2272749877582 
 21 
-23.1620327431381 
 31 
 0 
 62 
 7 
 0 
LINE
 8 
TemplateLayer
 6 
CONTINUOUS
 10 
 10.2272749877582 
 20 
-23.1620327431381 
 30 
 0 
 11 
 6.81818399124339 
 21 
-23.5666202632493 
 31 
 0 
 62 
 7 
 0 
LINE
 8 
TemplateLayer
 6 
CONTINUOUS
 10 
 6.81818399124339 
 20 
-23.5666202632493 
 30 
 0 
 11 
 3.40909299524635 
 21 
-23.6827615164534 
 31 
 0 
 62 
 7 
 0 
LINE
 8 
TemplateLayer
 6 
CONTINUOUS
 10 
 3.40909299524635 
 20 
-23.6827615164534 
 30 
 0 
 11 
 1.99951556387884E-06 
 21 
-23.6505668550467 
 31 
 0 
 62 
 7 
 0 
LINE
 8 
TemplateLayer
 6 
CONTINUOUS
 10 
 1.99951556387884E-06 
 20 
-23.6505668550467 
 30 
 0 
 11 
-3.4090889963308 
 21 
-23.6827615164534 
 31 
 0 
 62 
 7 
 0 
LINE
 8 
TemplateLayer
 6 
CONTINUOUS
 10 
-3.4090889963308 
 20 
-23.6827615164534 
 30 
 0 
 11 
-6.81817999191091 
 21 
-23.5666202632493 
 31 
 0 
 62 
 7 
 0 
LINE
 8 
TemplateLayer
 6 
CONTINUOUS
 10 
-6.81817999191091 
 20 
-23.5666202632493 
 30 
 0 
 11 
-10.2272709869733 
 21 
-23.1620327431381 
 31 
 0 
 62 
 7 
 0 
LINE
 8 
TemplateLayer
 6 
CONTINUOUS
 10 
-10.2272709869733 
 20 
-23.1620327431381 
 30 
 0 
 11 
-13.6363619839 
 21 
-23.7961035241881 
 31 
 0 
 62 
 7 
 0 
LINE
 8 
TemplateLayer
 6 
CONTINUOUS
 10 
-13.6363619839 
 20 
-23.7961035241881 
 30 
 0 
 11 
-17.0454529787773 
 21 
-23.2883975604823 
 31 
 0 
 62 
 7 
 0 
LINE
 8 
TemplateLayer
 6 
CONTINUOUS
 10 
-17.0454529787773 
 20 
-23.2883975604823 
 30 
 0 
 11 
-20.4545439715449 
 21 
-21.605320063556 
 31 
 0 
 62 
 7 
 0 
LINE
 8 
TemplateLayer
 6 
CONTINUOUS
 10 
-20.4545439715449 
 20 
-21.605320063556 
 30 
 0 
 11 
-21.986421102181 
 21 
-20.4545440673828 
 31 
 0 
 62 
 7 
 0 
LINE
 8 
TemplateLayer
 6 
CONTINUOUS
 10 
-21.986421102181 
 20 
-20.4545440673828 
 30 
 0 
 11 
-23.863634962596 
 21 
-18.9659192374478 
 31 
 0 
 62 
 7 
 0 
LINE
 8 
TemplateLayer
 6 
CONTINUOUS
 10 
-23.863634962596 
 20 
-18.9659192374478 
 30 
 0 
 11 
-26.6510382472721 
 21 
-17.0454530715942 
 31 
 0 
 62 
 7 
 0 
LINE
 8 
TemplateLayer
 6 
CONTINUOUS
 10 
-26.6510382472721 
 20 
-17.0454530715942 
 30 
 0 
 11 
-27.2727259537978 
 21 
-16.4104774400438 
 31 
 0 
 62 
 7 
 0 
LINE
 8 
TemplateLayer
 6 
CONTINUOUS
 10 
-27.2727259537978 
 20 
-16.4104774400438 
 30 
 0 
 11 
-30.6818169450184 
 21 
-13.8654674570863 
 31 
 0 
 62 
 7 
 0 
LINE
 8 
TemplateLayer
 6 
CONTINUOUS
 10 
-30.6818169450184 
 20 
-13.8654674570863 
 30 
 0 
 11 
-30.9185591592863 
 21 
-13.6363620758057 
 31 
 0 
 62 
 7 
 0 
LINE
 8 
TemplateLayer
 6 
CONTINUOUS
 10 
-28.0406058759853 
 20 
-10.2272710800171 
 30 
 0 
 11 
-29.0184735349044 
 21 
-6.81818008422852 
 31 
 0 
 62 
 1 
 0 
LINE
 8 
TemplateLayer
 6 
CONTINUOUS
 10 
-29.0184735349044 
 20 
-6.81818008422852 
 30 
 0 
 11 
-29.51975195676 
 21 
-3.40908908843994 
 31 
 0 
 62 
 1 
 0 
LINE
 8 
TemplateLayer
 6 
CONTINUOUS
 10 
-29.51975195676 
 20 
-3.40908908843994 
 30 
 0 
 11 
-29.5933560555146 
 21 
 1.9073486328125E-06 
 31 
 0 
 62 
 1 
 0 
LINE
 8 
TemplateLayer
 6 
CONTINUOUS
 10 
-29.5933560555146 
 20 
 1.9073486328125E-06 
 30 
 0 
 11 
-29.5197519445221 
 21 
 3.40909290313721 
 31 
 0 
 62 
 1 
 0 
LINE
 8 
TemplateLayer
 6 
CONTINUOUS
 10 
-29.5197519445221 
 20 
 3.40909290313721 
 30 
 0 
 11 
-29.0184735104285 
 21 
 6.81818389892578 
 31 
 0 
 62 
 1 
 0 
LINE
 8 
TemplateLayer
 6 
CONTINUOUS
 10 
-29.0184735104285 
 20 
 6.81818389892578 
 30 
 0 
 11 
-28.0406058392715 
 21 
 10.2272748947144 
 31 
 0 
 62 
 1 
 0 
LINE
 8 
TemplateLayer
 6 
CONTINUOUS
 10 
-28.0406058392715 
 20 
 10.2272748947144 
 30 
 0 
 11 
-27.2727259041065 
 21 
 11.274280321274 
 31 
 0 
 62 
 1 
 0 
LINE
 8 
TemplateLayer
 6 
CONTINUOUS
 10 
-27.2727259041065 
 20 
 11.274280321274 
 30 
 0 
 11 
-25.8688056545436 
 21 
 13.6363658905029 
 31 
 0 
 62 
 1 
 0 
LINE
 8 
TemplateLayer
 6 
CONTINUOUS
 10 
-25.8688056545436 
 20 
 13.6363658905029 
 30 
 0 
 11 
-23.8636349004342 
 21 
 15.6666011653023 
 31 
 0 
 62 
 1 
 0 
LINE
 8 
TemplateLayer
 6 
CONTINUOUS
 10 
-23.8636349004342 
 20 
 15.6666011653023 
 30 
 0 
 11 
-22.6212228045348 
 21 
 17.0454568862915 
 31 
 0 
 62 
 1 
 0 
LINE
 8 
TemplateLayer
 6 
CONTINUOUS
 10 
-22.6212228045348 
 20 
 17.0454568862915 
 30 
 0 
 11 
-20.4545438988231 
 21 
 18.9105413572259 
 31 
 0 
 62 
 1 
 0 
LINE
 8 
TemplateLayer
 6 
CONTINUOUS
 10 
-20.4545438988231 
 20 
 18.9105413572259 
 30 
 0 
 11 
-17.6394609757484 
 21 
 20.4545478820801 
 31 
 0 
 62 
 1 
 0 
LINE
 8 
TemplateLayer
 6 
CONTINUOUS
 10 
-17.6394609757484 
 20 
 20.4545478820801 
 30 
 0 
 11 
-17.0454528996464 
 21 
 20.7981960868229 
 31 
 0 
 62 
 1 
 0 
LINE
 8 
TemplateLayer
 6 
CONTINUOUS
 10 
-17.0454528996464 
 20 
 20.7981960868229 
 30 
 0 
 11 
-13.6363619029662 
 21 
 21.2949401187374 
 31 
 0 
 62 
 1 
 0 
LINE
 8 
TemplateLayer
 6 
CONTINUOUS
 10 
-13.6363619029662 
 20 
 21.2949401187374 
 30 
 0 
 11 
-10.2272709071144 
 21 
 21.3301766933816 
 31 
 0 
 62 
 1 
 0 
LINE
 8 
TemplateLayer
 6 
CONTINUOUS
 10 
-10.2272709071144 
 20 
 21.3301766933816 
 30 
 0 
 11 
-6.81817990899866 
 21 
 22.6267037656364 
 31 
 0 
 62 
 1 
 0 
LINE
 8 
TemplateLayer
 6 
CONTINUOUS
 10 
-6.81817990899866 
 20 
 22.6267037656364 
 30 
 0 
 11 
-3.40908891281065 
 21 
 22.8492467568023 
 31 
 0 
 62 
 1 
 0 
LINE
 8 
TemplateLayer
 6 
CONTINUOUS
 10 
-3.40908891281065 
 20 
 22.8492467568023 
 30 
 0 
 11 
 2.08240340428267E-06 
 21 
 22.5291591052019 
 31 
 0 
 62 
 1 
 0 
LINE
 8 
TemplateLayer
 6 
CONTINUOUS
 10 
 2.08240340428267E-06 
 20 
 22.5291591052019 
 30 
 0 
 11 
 3.4090930787665 
 21 
 22.8492467568023 
 31 
 0 
 62 
 1 
 0 
LINE
 8 
TemplateLayer
 6 
CONTINUOUS
 10 
 3.4090930787665 
 20 
 22.8492467568023 
 30 
 0 
 11 
 6.81818407415564 
 21 
 22.6267037656364 
 31 
 0 
 62 
 1 
 0 
LINE
 8 
TemplateLayer
 6 
CONTINUOUS
 10 
 6.81818407415564 
 20 
 22.6267037656364 
 30 
 0 
 11 
 10.2272750676171 
 21 
 21.3301766933816 
 31 
 0 
 62 
 1 
 0 
LINE
 8 
TemplateLayer
 6 
CONTINUOUS
 10 
 10.2272750676171 
 20 
 21.3301766933816 
 30 
 0 
 11 
 13.6363660633424 
 21 
 21.2949401187374 
 31 
 0 
 62 
 1 
 0 
LINE
 8 
TemplateLayer
 6 
CONTINUOUS
 10 
 13.6363660633424 
 20 
 21.2949401187374 
 30 
 0 
 11 
 17.0454570582394 
 21 
 20.7981960868229 
 31 
 0 
 62 
 1 
 0 
LINE
 8 
TemplateLayer
 6 
CONTINUOUS
 10 
 17.0454570582394 
 20 
 20.7981960868229 
 30 
 0 
 11 
 17.6394651331078 
 21 
 20.4545478820801 
 31 
 0 
 62 
 1 
 0 
LINE
 8 
TemplateLayer
 6 
CONTINUOUS
 10 
 17.6394651331078 
 20 
 20.4545478820801 
 30 
 0 
 11 
 20.4545480506398 
 21 
 18.9105413572259 
 31 
 0 
 62 
 1 
 0 
LINE
 8 
TemplateLayer
 6 
CONTINUOUS
 10 
 20.4545480506398 
 20 
 18.9105413572259 
 30 
 0 
 11 
 22.6212269496562 
 21 
 17.0454568862915 
 31 
 0 
 62 
 1 
 0 
LINE
 8 
TemplateLayer
 6 
CONTINUOUS
 10 
 22.6212269496562 
 20 
 17.0454568862915 
 30 
 0 
 11 
 23.8636390406058 
 21 
 15.6666011653023 
 31 
 0 
 62 
 1 
 0 
LINE
 8 
TemplateLayer
 6 
CONTINUOUS
 10 
 23.8636390406058 
 20 
 15.6666011653023 
 30 
 0 
 11 
 25.8688097874271 
 21 
 13.6363658905029 
 31 
 0 
 62 
 1 
 0 
LINE
 8 
TemplateLayer
 6 
CONTINUOUS
 10 
 25.8688097874271 
 20 
 13.6363658905029 
 30 
 0 
 11 
 27.2727300285107 
 21 
 11.274280321274 
 31 
 0 
 62 
 1 
 0 
LINE
 8 
TemplateLayer
 6 
CONTINUOUS
 10 
 27.2727300285107 
 20 
 11.274280321274 
 30 
 0 
 11 
 28.0406099599171 
 21 
 10.2272748947144 
 31 
 0 
 62 
 1 
 0 
LINE
 8 
TemplateLayer
 6 
CONTINUOUS
 10 
 28.0406099599171 
 20 
 10.2272748947144 
 30 
 0 
 11 
 29.0184776188362 
 21 
 6.81818389892578 
 31 
 0 
 62 
 1 
 0 
LINE
 8 
TemplateLayer
 6 
CONTINUOUS
 10 
 29.0184776188362 
 20 
 6.81818389892578 
 30 
 0 
 11 
 29.5197560406918 
 21 
 3.40909290313721 
 31 
 0 
 62 
 1 
 0 
LINE
 8 
TemplateLayer
 6 
CONTINUOUS
 10 
 29.5197560406918 
 20 
 3.40909290313721 
 30 
 0 
 11 
 29.5933601394464 
 21 
 1.9073486328125E-06 
 31 
 0 
 62 
 1 
 0 
LINE
 8 
TemplateLayer
 6 
CONTINUOUS
 10 
 29.5933601394464 
 20 
 1.9073486328125E-06 
 30 
 0 
 11 
 29.5197560284539 
 21 
-3.40908908843994 
 31 
 0 
 62 
 1 
 0 
LINE
 8 
TemplateLayer
 6 
CONTINUOUS
 10 
 29.5197560284539 
 20 
-3.40908908843994 
 30 
 0 
 11 
 29.0184775943603 
 21 
-6.81818008422852 
 31 
 0 
 62 
 1 
 0 
LINE
 8 
TemplateLayer
 6 
CONTINUOUS
 10 
 29.0184775943603 
 20 
-6.81818008422852 
 30 
 0 
 11 
 28.0406099232033 
 21 
-10.2272710800171 
 31 
 0 
 62 
 1 
 0 
LINE
 8 
TemplateLayer
 6 
CONTINUOUS
 10 
 28.0406099232033 
 20 
-10.2272710800171 
 30 
 0 
 11 
 27.2727299880383 
 21 
-11.2742765065767 
 31 
 0 
 62 
 1 
 0 
LINE
 8 
TemplateLayer
 6 
CONTINUOUS
 10 
 27.2727299880383 
 20 
-11.2742765065767 
 30 
 0 
 11 
 25.8688097384754 
 21 
-13.6363620758057 
 31 
 0 
 62 
 1 
 0 
LINE
 8 
TemplateLayer
 6 
CONTINUOUS
 10 
 25.8688097384754 
 20 
-13.6363620758057 
 30 
 0 
 11 
 23.863638984366 
 21 
-15.666597350605 
 31 
 0 
 62 
 1 
 0 
LINE
 8 
TemplateLayer
 6 
CONTINUOUS
 10 
 23.863638984366 
 20 
-15.666597350605 
 30 
 0 
 11 
 22.6212268884666 
 21 
-17.0454530715942 
 31 
 0 
 62 
 1 
 0 
LINE
 8 
TemplateLayer
 6 
CONTINUOUS
 10 
 22.6212268884666 
 20 
-17.0454530715942 
 30 
 0 
 11 
 20.4545479827549 
 21 
-18.9105375425286 
 31 
 0 
 62 
 1 
 0 
LINE
 8 
TemplateLayer
 6 
CONTINUOUS
 10 
 20.4545479827549 
 20 
-18.9105375425286 
 30 
 0 
 11 
 17.6394650596802 
 21 
-20.4545440673828 
 31 
 0 
 62 
 1 
 0 
LINE
 8 
TemplateLayer
 6 
CONTINUOUS
 10 
 17.6394650596802 
 20 
-20.4545440673828 
 30 
 0 
 11 
 17.0454569835782 
 21 
-20.7981922721256 
 31 
 0 
 62 
 1 
 0 
LINE
 8 
TemplateLayer
 6 
CONTINUOUS
 10 
 17.0454569835782 
 20 
-20.7981922721256 
 30 
 0 
 11 
 13.636365986898 
 21 
-21.2949363040401 
 31 
 0 
 62 
 1 
 0 
LINE
 8 
TemplateLayer
 6 
CONTINUOUS
 10 
 13.636365986898 
 20 
-21.2949363040401 
 30 
 0 
 11 
 10.2272749910462 
 21 
-21.3301728786843 
 31 
 0 
 62 
 1 
 0 
LINE
 8 
TemplateLayer
 6 
CONTINUOUS
 10 
 10.2272749910462 
 20 
-21.3301728786843 
 30 
 0 
 11 
 6.81818399293045 
 21 
-22.6266999509392 
 31 
 0 
 62 
 1 
 0 
LINE
 8 
TemplateLayer
 6 
CONTINUOUS
 10 
 6.81818399293045 
 20 
-22.6266999509392 
 30 
 0 
 11 
 3.40909299674243 
 21 
-22.849242942105 
 31 
 0 
 62 
 1 
 0 
LINE
 8 
TemplateLayer
 6 
CONTINUOUS
 10 
 3.40909299674243 
 20 
-22.849242942105 
 30 
 0 
 11 
 2.00152838186057E-06 
 21 
-22.5291552905046 
 31 
 0 
 62 
 1 
 0 
LINE
 8 
TemplateLayer
 6 
CONTINUOUS
 10 
 2.00152838186057E-06 
 20 
-22.5291552905046 
 30 
 0 
 11 
-3.40908899483472 
 21 
-22.849242942105 
 31 
 0 
 62 
 1 
 0 
LINE
 8 
TemplateLayer
 6 
CONTINUOUS
 10 
-3.40908899483472 
 20 
-22.849242942105 
 30 
 0 
 11 
-6.81817999022385 
 21 
-22.6266999509392 
 31 
 0 
 62 
 1 
 0 
LINE
 8 
TemplateLayer
 6 
CONTINUOUS
 10 
-6.81817999022385 
 20 
-22.6266999509392 
 30 
 0 
 11 
-10.2272709836853 
 21 
-21.3301728786843 
 31 
 0 
 62 
 1 
 0 
LINE
 8 
TemplateLayer
 6 
CONTINUOUS
 10 
-10.2272709836853 
 20 
-21.3301728786843 
 30 
 0 
 11 
-13.6363619794106 
 21 
-21.2949363040401 
 31 
 0 
 62 
 1 
 0 
LINE
 8 
TemplateLayer
 6 
CONTINUOUS
 10 
-13.6363619794106 
 20 
-21.2949363040401 
 30 
 0 
 11 
-17.0454529743076 
 21 
-20.7981922721256 
 31 
 0 
 62 
 1 
 0 
LINE
 8 
TemplateLayer
 6 
CONTINUOUS
 10 
-17.0454529743076 
 20 
-20.7981922721256 
 30 
 0 
 11 
-17.639461049176 
 21 
-20.4545440673828 
 31 
 0 
 62 
 1 
 0 
LINE
 8 
TemplateLayer
 6 
CONTINUOUS
 10 
-17.639461049176 
 20 
-20.4545440673828 
 30 
 0 
 11 
-20.454543966708 
 21 
-18.9105375425286 
 31 
 0 
 62 
 1 
 0 
LINE
 8 
TemplateLayer
 6 
CONTINUOUS
 10 
-20.454543966708 
 20 
-18.9105375425286 
 30 
 0 
 11 
-22.6212228657244 
 21 
-17.0454530715942 
 31 
 0 
 62 
 1 
 0 
LINE
 8 
TemplateLayer
 6 
CONTINUOUS
 10 
-22.6212228657244 
 20 
-17.0454530715942 
 30 
 0 
 11 
-23.8636349566741 
 21 
-15.666597350605 
 31 
 0 
 62 
 1 
 0 
LINE
 8 
TemplateLayer
 6 
CONTINUOUS
 10 
-23.8636349566741 
 20 
-15.666597350605 
 30 
 0 
 11 
-25.8688057034953 
 21 
-13.6363620758057 
 31 
 0 
 62 
 1 
 0 
LINE
 8 
TemplateLayer
 6 
CONTINUOUS
 10 
-25.8688057034953 
 20 
-13.6363620758057 
 30 
 0 
 11 
-27.2727259445789 
 21 
-11.2742765065767 
 31 
 0 
 62 
 1 
 0 
LINE
 8 
TemplateLayer
 6 
CONTINUOUS
 10 
-27.2727259445789 
 20 
-11.2742765065767 
 30 
 0 
 11 
-28.0406058759853 
 21 
-10.2272710800171 
 31 
 0 
 62 
 1 
 0 
LINE
 8 
TemplateLayer
 6 
CONTINUOUS
 10 
-21.8367274863278 
 20 
-10.2272710800171 
 30 
 0 
 11 
-23.1659510787668 
 21 
-6.81818008422852 
 31 
 0 
 62 
 3 
 0 
LINE
 8 
TemplateLayer
 6 
CONTINUOUS
 10 
-23.1659510787668 
 20 
-6.81818008422852 
 30 
 0 
 11 
-23.678889490346 
 21 
-3.40908908843994 
 31 
 0 
 62 
 3 
 0 
LINE
 8 
TemplateLayer
 6 
CONTINUOUS
 10 
-23.678889490346 
 20 
-3.40908908843994 
 30 
 0 
 11 
-23.8065079034065 
 21 
 1.9073486328125E-06 
 31 
 0 
 62 
 3 
 0 
LINE
 8 
TemplateLayer
 6 
CONTINUOUS
 10 
-23.8065079034065 
 20 
 1.9073486328125E-06 
 30 
 0 
 11 
-23.678889478108 
 21 
 3.40909290313721 
 31 
 0 
 62 
 3 
 0 
LINE
 8 
TemplateLayer
 6 
CONTINUOUS
 10 
-23.678889478108 
 20 
 3.40909290313721 
 30 
 0 
 11 
-23.165951054291 
 21 
 6.81818389892578 
 31 
 0 
 62 
 3 
 0 
LINE
 8 
TemplateLayer
 6 
CONTINUOUS
 10 
-23.165951054291 
 20 
 6.81818389892578 
 30 
 0 
 11 
-21.836727449614 
 21 
 10.2272748947144 
 31 
 0 
 62 
 3 
 0 
LINE
 8 
TemplateLayer
 6 
CONTINUOUS
 10 
-21.836727449614 
 20 
 10.2272748947144 
 30 
 0 
 11 
-20.4545439110348 
 21 
 12.1069793012524 
 31 
 0 
 62 
 3 
 0 
LINE
 8 
TemplateLayer
 6 
CONTINUOUS
 10 
-20.4545439110348 
 20 
 12.1069793012524 
 30 
 0 
 11 
-19.6716926774167 
 21 
 13.6363658905029 
 31 
 0 
 62 
 3 
 0 
LINE
 8 
TemplateLayer
 6 
CONTINUOUS
 10 
-19.6716926774167 
 20 
 13.6363658905029 
 30 
 0 
 11 
-17.0454529076457 
 21 
 16.3414741623254 
 31 
 0 
 62 
 3 
 0 
LINE
 8 
TemplateLayer
 6 
CONTINUOUS
 10 
-17.0454529076457 
 20 
 16.3414741623254 
 30 
 0 
 11 
-16.0699643503645 
 21 
 17.0454568862915 
 31 
 0 
 62 
 3 
 0 
LINE
 8 
TemplateLayer
 6 
CONTINUOUS
 10 
-16.0699643503645 
 20 
 17.0454568862915 
 30 
 0 
 11 
-13.636361908241 
 21 
 18.3561610940938 
 31 
 0 
 62 
 3 
 0 
LINE
 8 
TemplateLayer
 6 
CONTINUOUS
 10 
-13.636361908241 
 20 
 18.3561610940938 
 30 
 0 
 11 
-10.227270910677 
 21 
 19.3453067744338 
 31 
 0 
 62 
 3 
 0 
LINE
 8 
TemplateLayer
 6 
CONTINUOUS
 10 
-10.227270910677 
 20 
 19.3453067744338 
 30 
 0 
 11 
-6.81817991338519 
 21 
 20.1828145125559 
 31 
 0 
 62 
 3 
 0 
LINE
 8 
TemplateLayer
 6 
CONTINUOUS
 10 
-6.81817991338519 
 20 
 20.1828145125559 
 30 
 0 
 11 
-3.40908891717478 
 21 
 20.4178319493482 
 31 
 0 
 62 
 3 
 0 
LINE
 8 
TemplateLayer
 6 
CONTINUOUS
 10 
-3.40908891717478 
 20 
 20.4178319493482 
 30 
 0 
 11 
 2.07812635234089E-06 
 21 
 20.1462633106859 
 31 
 0 
 62 
 3 
 0 
LINE
 8 
TemplateLayer
 6 
CONTINUOUS
 10 
 2.07812635234089E-06 
 20 
 20.1462633106859 
 30 
 0 
 11 
 3.40909307440236 
 21 
 20.4178319493482 
 31 
 0 
 62 
 3 
 0 
LINE
 8 
TemplateLayer
 6 
CONTINUOUS
 10 
 3.40909307440236 
 20 
 20.4178319493482 
 30 
 0 
 11 
 6.81818406976911 
 21 
 20.1828145125559 
 31 
 0 
 62 
 3 
 0 
LINE
 8 
TemplateLayer
 6 
CONTINUOUS
 10 
 6.81818406976911 
 20 
 20.1828145125559 
 30 
 0 
 11 
 10.2272750640544 
 21 
 19.3453067744338 
 31 
 0 
 62 
 3 
 0 
LINE
 8 
TemplateLayer
 6 
CONTINUOUS
 10 
 10.2272750640544 
 20 
 19.3453067744338 
 30 
 0 
 11 
 13.6363660580676 
 21 
 18.3561610940938 
 31 
 0 
 62 
 3 
 0 
LINE
 8 
TemplateLayer
 6 
CONTINUOUS
 10 
 13.6363660580676 
 20 
 18.3561610940938 
 30 
 0 
 11 
 16.069968495486 
 21 
 17.0454568862915 
 31 
 0 
 62 
 3 
 0 
LINE
 8 
TemplateLayer
 6 
CONTINUOUS
 10 
 16.069968495486 
 20 
 17.0454568862915 
 30 
 0 
 11 
 17.04545705024 
 21 
 16.3414741623254 
 31 
 0 
 62 
 3 
 0 
LINE
 8 
TemplateLayer
 6 
CONTINUOUS
 10 
 17.04545705024 
 20 
 16.3414741623254 
 30 
 0 
 11 
 19.6716968103003 
 21 
 13.6363658905029 
 31 
 0 
 62 
 3 
 0 
LINE
 8 
TemplateLayer
 6 
CONTINUOUS
 10 
 19.6716968103003 
 20 
 13.6363658905029 
 30 
 0 
 11 
 20.4545480384281 
 21 
 12.1069793012524 
 31 
 0 
 62 
 3 
 0 
LINE
 8 
TemplateLayer
 6 
CONTINUOUS
 10 
 20.4545480384281 
 20 
 12.1069793012524 
 30 
 0 
 11 
 21.8367315702596 
 21 
 10.2272748947144 
 31 
 0 
 62 
 3 
 0 
LINE
 8 
TemplateLayer
 6 
CONTINUOUS
 10 
 21.8367315702596 
 20 
 10.2272748947144 
 30 
 0 
 11 
 23.1659551626986 
 21 
 6.81818389892578 
 31 
 0 
 62 
 3 
 0 
LINE
 8 
TemplateLayer
 6 
CONTINUOUS
 10 
 23.1659551626986 
 20 
 6.81818389892578 
 30 
 0 
 11 
 23.6788935742777 
 21 
 3.40909290313721 
 31 
 0 
 62 
 3 
 0 
LINE
 8 
TemplateLayer
 6 
CONTINUOUS
 10 
 23.6788935742777 
 20 
 3.40909290313721 
 30 
 0 
 11 
 23.8065119873383 
 21 
 1.9073486328125E-06 
 31 
 0 
 62 
 3 
 0 
LINE
 8 
TemplateLayer
 6 
CONTINUOUS
 10 
 23.8065119873383 
 20 
 1.9073486328125E-06 
 30 
 0 
 11 
 23.6788935620398 
 21 
-3.40908908843994 
 31 
 0 
 62 
 3 
 0 
LINE
 8 
TemplateLayer
 6 
CONTINUOUS
 10 
 23.6788935620398 
 20 
-3.40908908843994 
 30 
 0 
 11 
 23.1659551382228 
 21 
-6.81818008422852 
 31 
 0 
 62 
 3 
 0 
LINE
 8 
TemplateLayer
 6 
CONTINUOUS
 10 
 23.1659551382228 
 20 
-6.81818008422852 
 30 
 0 
 11 
 21.8367315335458 
 21 
-10.2272710800171 
 31 
 0 
 62 
 3 
 0 
LINE
 8 
TemplateLayer
 6 
CONTINUOUS
 10 
 21.8367315335458 
 20 
-10.2272710800171 
 30 
 0 
 11 
 20.4545479949666 
 21 
-12.1069754865551 
 31 
 0 
 62 
 3 
 0 
LINE
 8 
TemplateLayer
 6 
CONTINUOUS
 10 
 20.4545479949666 
 20 
-12.1069754865551 
 30 
 0 
 11 
 19.6716967613485 
 21 
-13.6363620758057 
 31 
 0 
 62 
 3 
 0 
LINE
 8 
TemplateLayer
 6 
CONTINUOUS
 10 
 19.6716967613485 
 20 
-13.6363620758057 
 30 
 0 
 11 
 17.0454569915775 
 21 
-16.3414703476281 
 31 
 0 
 62 
 3 
 0 
LINE
 8 
TemplateLayer
 6 
CONTINUOUS
 10 
 17.0454569915775 
 20 
-16.3414703476281 
 30 
 0 
 11 
 16.0699684342963 
 21 
-17.0454530715942 
 31 
 0 
 62 
 3 
 0 
LINE
 8 
TemplateLayer
 6 
CONTINUOUS
 10 
 16.0699684342963 
 20 
-17.0454530715942 
 30 
 0 
 11 
 13.6363659921728 
 21 
-18.3561572793966 
 31 
 0 
 62 
 3 
 0 
LINE
 8 
TemplateLayer
 6 
CONTINUOUS
 10 
 13.6363659921728 
 20 
-18.3561572793966 
 30 
 0 
 11 
 10.2272749946088 
 21 
-19.3453029597365 
 31 
 0 
 62 
 3 
 0 
LINE
 8 
TemplateLayer
 6 
CONTINUOUS
 10 
 10.2272749946088 
 20 
-19.3453029597365 
 30 
 0 
 11 
 6.81818399731698 
 21 
-20.1828106978586 
 31 
 0 
 62 
 3 
 0 
LINE
 8 
TemplateLayer
 6 
CONTINUOUS
 10 
 6.81818399731698 
 20 
-20.1828106978586 
 30 
 0 
 11 
 3.40909300110657 
 21 
-20.4178281346509 
 31 
 0 
 62 
 3 
 0 
LINE
 8 
TemplateLayer
 6 
CONTINUOUS
 10 
 3.40909300110657 
 20 
-20.4178281346509 
 30 
 0 
 11 
 2.00580543379542E-06 
 21 
-20.1462594959886 
 31 
 0 
 62 
 3 
 0 
LINE
 8 
TemplateLayer
 6 
CONTINUOUS
 10 
 2.00580543379542E-06 
 20 
-20.1462594959886 
 30 
 0 
 11 
-3.40908899047058 
 21 
-20.4178281346509 
 31 
 0 
 62 
 3 
 0 
LINE
 8 
TemplateLayer
 6 
CONTINUOUS
 10 
-3.40908899047058 
 20 
-20.4178281346509 
 30 
 0 
 11 
-6.81817998583732 
 21 
-20.1828106978586 
 31 
 0 
 62 
 3 
 0 
LINE
 8 
TemplateLayer
 6 
CONTINUOUS
 10 
-6.81817998583732 
 20 
-20.1828106978586 
 30 
 0 
 11 
-10.2272709801227 
 21 
-19.3453029597365 
 31 
 0 
 62 
 3 
 0 
LINE
 8 
TemplateLayer
 6 
CONTINUOUS
 10 
-10.2272709801227 
 20 
-19.3453029597365 
 30 
 0 
 11 
-13.6363619741358 
 21 
-18.3561572793966 
 31 
 0 
 62 
 3 
 0 
LINE
 8 
TemplateLayer
 6 
CONTINUOUS
 10 
-13.6363619741358 
 20 
-18.3561572793966 
 30 
 0 
 11 
-16.0699644115542 
 21 
-17.0454530715942 
 31 
 0 
 62 
 3 
 0 
LINE
 8 
TemplateLayer
 6 
CONTINUOUS
 10 
-16.0699644115542 
 20 
-17.0454530715942 
 30 
 0 
 11 
-17.0454529663082 
 21 
-16.3414703476281 
 31 
 0 
 62 
 3 
 0 
LINE
 8 
TemplateLayer
 6 
CONTINUOUS
 10 
-17.0454529663082 
 20 
-16.3414703476281 
 30 
 0 
 11 
-19.6716927263685 
 21 
-13.6363620758057 
 31 
 0 
 62 
 3 
 0 
LINE
 8 
TemplateLayer
 6 
CONTINUOUS
 10 
-19.6716927263685 
 20 
-13.6363620758057 
 30 
 0 
 11 
-20.4545439544963 
 21 
-12.1069754865551 
 31 
 0 
 62 
 3 
 0 
LINE
 8 
TemplateLayer
 6 
CONTINUOUS
 10 
-20.4545439544963 
 20 
-12.1069754865551 
 30 
 0 
 11 
-21.8367274863278 
 21 
-10.2272710800171 
 31 
 0 
 62 
 3 
 0 
LINE
 8 
TemplateLayer
 6 
CONTINUOUS
 10 
-17.5509539818081 
 20 
-10.2272710800171 
 30 
 0 
 11 
-19.1183864218372 
 21 
-6.81818008422852 
 31 
 0 
 62 
 5 
 0 
LINE
 8 
TemplateLayer
 6 
CONTINUOUS
 10 
-19.1183864218372 
 20 
-6.81818008422852 
 30 
 0 
 11 
-19.9505714785729 
 21 
-3.40908908843994 
 31 
 0 
 62 
 5 
 0 
LINE
 8 
TemplateLayer
 6 
CONTINUOUS
 10 
-19.9505714785729 
 20 
-3.40908908843994 
 30 
 0 
 11 
-20.1804168316815 
 21 
 1.9073486328125E-06 
 31 
 0 
 62 
 5 
 0 
LINE
 8 
TemplateLayer
 6 
CONTINUOUS
 10 
-20.1804168316815 
 20 
 1.9073486328125E-06 
 30 
 0 
 11 
-19.950571466335 
 21 
 3.40909290313721 
 31 
 0 
 62 
 5 
 0 
LINE
 8 
TemplateLayer
 6 
CONTINUOUS
 10 
-19.950571466335 
 20 
 3.40909290313721 
 30 
 0 
 11 
-19.1183863973613 
 21 
 6.81818389892578 
 31 
 0 
 62 
 5 
 0 
LINE
 8 
TemplateLayer
 6 
CONTINUOUS
 10 
-19.1183863973613 
 20 
 6.81818389892578 
 30 
 0 
 11 
-17.5509539450943 
 21 
 10.2272748947144 
 31 
 0 
 62 
 5 
 0 
LINE
 8 
TemplateLayer
 6 
CONTINUOUS
 10 
-17.5509539450943 
 20 
 10.2272748947144 
 30 
 0 
 11 
-17.0454529172441 
 21 
 10.9938869904076 
 31 
 0 
 62 
 5 
 0 
LINE
 8 
TemplateLayer
 6 
CONTINUOUS
 10 
-17.0454529172441 
 20 
 10.9938869904076 
 30 
 0 
 11 
-15.3489133263438 
 21 
 13.6363658905029 
 31 
 0 
 62 
 5 
 0 
LINE
 8 
TemplateLayer
 6 
CONTINUOUS
 10 
-15.3489133263438 
 20 
 13.6363658905029 
 30 
 0 
 11 
-13.6363619141155 
 21 
 15.0832887825471 
 31 
 0 
 62 
 5 
 0 
LINE
 8 
TemplateLayer
 6 
CONTINUOUS
 10 
-13.6363619141155 
 20 
 15.0832887825471 
 30 
 0 
 11 
-10.446255880623 
 21 
 17.0454568862915 
 31 
 0 
 62 
 5 
 0 
LINE
 8 
TemplateLayer
 6 
CONTINUOUS
 10 
-10.446255880623 
 20 
 17.0454568862915 
 30 
 0 
 11 
-10.2272709146242 
 21 
 17.146176966882 
 31 
 0 
 62 
 5 
 0 
LINE
 8 
TemplateLayer
 6 
CONTINUOUS
 10 
-10.2272709146242 
 20 
 17.146176966882 
 30 
 0 
 11 
-6.81817991692462 
 21 
 18.2108739290896 
 31 
 0 
 62 
 5 
 0 
LINE
 8 
TemplateLayer
 6 
CONTINUOUS
 10 
-6.81817991692462 
 20 
 18.2108739290896 
 30 
 0 
 11 
-3.40908891976933 
 21 
 18.9723218151809 
 31 
 0 
 62 
 5 
 0 
LINE
 8 
TemplateLayer
 6 
CONTINUOUS
 10 
-3.40908891976933 
 20 
 18.9723218151809 
 30 
 0 
 11 
 2.07572053090299E-06 
 21 
 18.8058957201261 
 31 
 0 
 62 
 5 
 0 
LINE
 8 
TemplateLayer
 6 
CONTINUOUS
 10 
 2.07572053090299E-06 
 20 
 18.8058957201261 
 30 
 0 
 11 
 3.40909307180782 
 21 
 18.9723218151809 
 31 
 0 
 62 
 5 
 0 
LINE
 8 
TemplateLayer
 6 
CONTINUOUS
 10 
 3.40909307180782 
 20 
 18.9723218151809 
 30 
 0 
 11 
 6.81818406622968 
 21 
 18.2108739290896 
 31 
 0 
 62 
 5 
 0 
LINE
 8 
TemplateLayer
 6 
CONTINUOUS
 10 
 6.81818406622968 
 20 
 18.2108739290896 
 30 
 0 
 11 
 10.2272750601072 
 21 
 17.146176966882 
 31 
 0 
 62 
 5 
 0 
LINE
 8 
TemplateLayer
 6 
CONTINUOUS
 10 
 10.2272750601072 
 20 
 17.146176966882 
 30 
 0 
 11 
 10.4462600257445 
 21 
 17.0454568862915 
 31 
 0 
 62 
 5 
 0 
LINE
 8 
TemplateLayer
 6 
CONTINUOUS
 10 
 10.4462600257445 
 20 
 17.0454568862915 
 30 
 0 
 11 
 13.6363660521931 
 21 
 15.0832887825471 
 31 
 0 
 62 
 5 
 0 
LINE
 8 
TemplateLayer
 6 
CONTINUOUS
 10 
 13.6363660521931 
 20 
 15.0832887825471 
 30 
 0 
 11 
 15.3489174592274 
 21 
 13.6363658905029 
 31 
 0 
 62 
 5 
 0 
LINE
 8 
TemplateLayer
 6 
CONTINUOUS
 10 
 15.3489174592274 
 20 
 13.6363658905029 
 30 
 0 
 11 
 17.0454570406417 
 21 
 10.9938869904076 
 31 
 0 
 62 
 5 
 0 
LINE
 8 
TemplateLayer
 6 
CONTINUOUS
 10 
 17.0454570406417 
 20 
 10.9938869904076 
 30 
 0 
 11 
 17.5509580657399 
 21 
 10.2272748947144 
 31 
 0 
 62 
 5 
 0 
LINE
 8 
TemplateLayer
 6 
CONTINUOUS
 10 
 17.5509580657399 
 20 
 10.2272748947144 
 30 
 0 
 11 
 19.1183905057689 
 21 
 6.81818389892578 
 31 
 0 
 62 
 5 
 0 
LINE
 8 
TemplateLayer
 6 
CONTINUOUS
 10 
 19.1183905057689 
 20 
 6.81818389892578 
 30 
 0 
 11 
 19.9505755625047 
 21 
 3.40909290313721 
 31 
 0 
 62 
 5 
 0 
LINE
 8 
TemplateLayer
 6 
CONTINUOUS
 10 
 19.9505755625047 
 20 
 3.40909290313721 
 30 
 0 
 11 
 20.1804209156133 
 21 
 1.9073486328125E-06 
 31 
 0 
 62 
 5 
 0 
LINE
 8 
TemplateLayer
 6 
CONTINUOUS
 10 
 20.1804209156133 
 20 
 1.9073486328125E-06 
 30 
 0 
 11 
 19.9505755502668 
 21 
-3.40908908843994 
 31 
 0 
 62 
 5 
 0 
LINE
 8 
TemplateLayer
 6 
CONTINUOUS
 10 
 19.9505755502668 
 20 
-3.40908908843994 
 30 
 0 
 11 
 19.1183904812931 
 21 
-6.81818008422852 
 31 
 0 
 62 
 5 
 0 
LINE
 8 
TemplateLayer
 6 
CONTINUOUS
 10 
 19.1183904812931 
 20 
-6.81818008422852 
 30 
 0 
 11 
 17.5509580290261 
 21 
-10.2272710800171 
 31 
 0 
 62 
 5 
 0 
LINE
 8 
TemplateLayer
 6 
CONTINUOUS
 10 
 17.5509580290261 
 20 
-10.2272710800171 
 30 
 0 
 11 
 17.0454570011759 
 21 
-10.9938831757103 
 31 
 0 
 62 
 5 
 0 
LINE
 8 
TemplateLayer
 6 
CONTINUOUS
 10 
 17.0454570011759 
 20 
-10.9938831757103 
 30 
 0 
 11 
 15.3489174102756 
 21 
-13.6363620758057 
 31 
 0 
 62 
 5 
 0 
LINE
 8 
TemplateLayer
 6 
CONTINUOUS
 10 
 15.3489174102756 
 20 
-13.6363620758057 
 30 
 0 
 11 
 13.6363659980472 
 21 
-15.0832849678498 
 31 
 0 
 62 
 5 
 0 
LINE
 8 
TemplateLayer
 6 
CONTINUOUS
 10 
 13.6363659980472 
 20 
-15.0832849678498 
 30 
 0 
 11 
 10.4462599645548 
 21 
-17.0454530715942 
 31 
 0 
 62 
 5 
 0 
LINE
 8 
TemplateLayer
 6 
CONTINUOUS
 10 
 10.4462599645548 
 20 
-17.0454530715942 
 30 
 0 
 11 
 10.227274998556 
 21 
-17.1461731521847 
 31 
 0 
 62 
 5 
 0 
LINE
 8 
TemplateLayer
 6 
CONTINUOUS
 10 
 10.227274998556 
 20 
-17.1461731521847 
 30 
 0 
 11 
 6.81818400085641 
 21 
-18.2108701143923 
 31 
 0 
 62 
 5 
 0 
LINE
 8 
TemplateLayer
 6 
CONTINUOUS
 10 
 6.81818400085641 
 20 
-18.2108701143923 
 30 
 0 
 11 
 3.40909300370111 
 21 
-18.9723180004836 
 31 
 0 
 62 
 5 
 0 
LINE
 8 
TemplateLayer
 6 
CONTINUOUS
 10 
 3.40909300370111 
 20 
-18.9723180004836 
 30 
 0 
 11 
 2.00821125524026E-06 
 21 
-18.8058919054289 
 31 
 0 
 62 
 5 
 0 
LINE
 8 
TemplateLayer
 6 
CONTINUOUS
 10 
 2.00821125524026E-06 
 20 
-18.8058919054289 
 30 
 0 
 11 
-3.40908898787604 
 21 
-18.9723180004836 
 31 
 0 
 62 
 5 
 0 
LINE
 8 
TemplateLayer
 6 
CONTINUOUS
 10 
-3.40908898787604 
 20 
-18.9723180004836 
 30 
 0 
 11 
-6.81817998229789 
 21 
-18.2108701143923 
 31 
 0 
 62 
 5 
 0 
LINE
 8 
TemplateLayer
 6 
CONTINUOUS
 10 
-6.81817998229789 
 20 
-18.2108701143923 
 30 
 0 
 11 
-10.2272709761754 
 21 
-17.1461731521847 
 31 
 0 
 62 
 5 
 0 
LINE
 8 
TemplateLayer
 6 
CONTINUOUS
 10 
-10.2272709761754 
 20 
-17.1461731521847 
 30 
 0 
 11 
-10.4462559418127 
 21 
-17.0454530715942 
 31 
 0 
 62 
 5 
 0 
LINE
 8 
TemplateLayer
 6 
CONTINUOUS
 10 
-10.4462559418127 
 20 
-17.0454530715942 
 30 
 0 
 11 
-13.6363619682613 
 21 
-15.0832849678498 
 31 
 0 
 62 
 5 
 0 
LINE
 8 
TemplateLayer
 6 
CONTINUOUS
 10 
-13.6363619682613 
 20 
-15.0832849678498 
 30 
 0 
 11 
-15.3489133752956 
 21 
-13.6363620758057 
 31 
 0 
 62 
 5 
 0 
LINE
 8 
TemplateLayer
 6 
CONTINUOUS
 10 
-15.3489133752956 
 20 
-13.6363620758057 
 30 
 0 
 11 
-17.0454529567099 
 21 
-10.9938831757103 
 31 
 0 
 62 
 5 
 0 
LINE
 8 
TemplateLayer
 6 
CONTINUOUS
 10 
-17.0454529567099 
 20 
-10.9938831757103 
 30 
 0 
 11 
-17.5509539818081 
 21 
-10.2272710800171 
 31 
 0 
 62 
 5 
 0 
LINE
 8 
TemplateLayer
 6 
CONTINUOUS
 10 
-15.1208056880977 
 20 
-6.81818008422852 
 30 
 0 
 11 
-16.2471481404816 
 21 
-3.40908908843994 
 31 
 0 
 62 
 6 
 0 
LINE
 8 
TemplateLayer
 6 
CONTINUOUS
 10 
-16.2471481404816 
 20 
-3.40908908843994 
 30 
 0 
 11 
-16.5571152364789 
 21 
 1.9073486328125E-06 
 31 
 0 
 62 
 6 
 0 
LINE
 8 
TemplateLayer
 6 
CONTINUOUS
 10 
-16.5571152364789 
 20 
 1.9073486328125E-06 
 30 
 0 
 11 
-16.2471481282437 
 21 
 3.40909290313721 
 31 
 0 
 62 
 6 
 0 
LINE
 8 
TemplateLayer
 6 
CONTINUOUS
 10 
-16.2471481282437 
 20 
 3.40909290313721 
 30 
 0 
 11 
-15.1208056636219 
 21 
 6.81818389892578 
 31 
 0 
 62 
 6 
 0 
LINE
 8 
TemplateLayer
 6 
CONTINUOUS
 10 
-15.1208056636219 
 20 
 6.81818389892578 
 30 
 0 
 11 
-13.6363619243437 
 21 
 9.38478361651831 
 31 
 0 
 62 
 6 
 0 
LINE
 8 
TemplateLayer
 6 
CONTINUOUS
 10 
-13.6363619243437 
 20 
 9.38478361651831 
 30 
 0 
 11 
-13.2049836121929 
 21 
 10.2272748947144 
 31 
 0 
 62 
 6 
 0 
LINE
 8 
TemplateLayer
 6 
CONTINUOUS
 10 
-13.2049836121929 
 20 
 10.2272748947144 
 30 
 0 
 11 
-10.2272709213 
 21 
 13.4268495567911 
 31 
 0 
 62 
 6 
 0 
LINE
 8 
TemplateLayer
 6 
CONTINUOUS
 10 
-10.2272709213 
 20 
 13.4268495567911 
 30 
 0 
 11 
-9.88424744500242 
 21 
 13.6363658905029 
 31 
 0 
 62 
 6 
 0 
LINE
 8 
TemplateLayer
 6 
CONTINUOUS
 10 
-9.88424744500242 
 20 
 13.6363658905029 
 30 
 0 
 11 
-6.81817992219315 
 21 
 15.2755934428254 
 31 
 0 
 62 
 6 
 0 
LINE
 8 
TemplateLayer
 6 
CONTINUOUS
 10 
-6.81817992219315 
 20 
 15.2755934428254 
 30 
 0 
 11 
-3.40908892446688 
 21 
 16.3551521064976 
 31 
 0 
 62 
 6 
 0 
LINE
 8 
TemplateLayer
 6 
CONTINUOUS
 10 
-3.40908892446688 
 20 
 16.3551521064976 
 30 
 0 
 11 
 2.07144044280655E-06 
 21 
 16.4213083730769 
 31 
 0 
 62 
 6 
 0 
LINE
 8 
TemplateLayer
 6 
CONTINUOUS
 10 
 2.07144044280655E-06 
 20 
 16.4213083730769 
 30 
 0 
 11 
 3.40909306711027 
 21 
 16.3551521064976 
 31 
 0 
 62 
 6 
 0 
LINE
 8 
TemplateLayer
 6 
CONTINUOUS
 10 
 3.40909306711027 
 20 
 16.3551521064976 
 30 
 0 
 11 
 6.81818406096115 
 21 
 15.2755934428254 
 31 
 0 
 62 
 6 
 0 
LINE
 8 
TemplateLayer
 6 
CONTINUOUS
 10 
 6.81818406096115 
 20 
 15.2755934428254 
 30 
 0 
 11 
 9.88425157788594 
 21 
 13.6363658905029 
 31 
 0 
 62 
 6 
 0 
LINE
 8 
TemplateLayer
 6 
CONTINUOUS
 10 
 9.88425157788594 
 20 
 13.6363658905029 
 30 
 0 
 11 
 10.2272750534314 
 21 
 13.4268495567911 
 31 
 0 
 62 
 6 
 0 
LINE
 8 
TemplateLayer
 6 
CONTINUOUS
 10 
 10.2272750534314 
 20 
 13.4268495567911 
 30 
 0 
 11 
 13.2049877328385 
 21 
 10.2272748947144 
 31 
 0 
 62 
 6 
 0 
LINE
 8 
TemplateLayer
 6 
CONTINUOUS
 10 
 13.2049877328385 
 20 
 10.2272748947144 
 30 
 0 
 11 
 13.6363660419649 
 21 
 9.38478361651831 
 31 
 0 
 62 
 6 
 0 
LINE
 8 
TemplateLayer
 6 
CONTINUOUS
 10 
 13.6363660419649 
 20 
 9.38478361651831 
 30 
 0 
 11 
 15.1208097720295 
 21 
 6.81818389892578 
 31 
 0 
 62 
 6 
 0 
LINE
 8 
TemplateLayer
 6 
CONTINUOUS
 10 
 15.1208097720295 
 20 
 6.81818389892578 
 30 
 0 
 11 
 16.2471522244134 
 21 
 3.40909290313721 
 31 
 0 
 62 
 6 
 0 
LINE
 8 
TemplateLayer
 6 
CONTINUOUS
 10 
 16.2471522244134 
 20 
 3.40909290313721 
 30 
 0 
 11 
 16.5571193204107 
 21 
 1.9073486328125E-06 
 31 
 0 
 62 
 6 
 0 
LINE
 8 
TemplateLayer
 6 
CONTINUOUS
 10 
 16.5571193204107 
 20 
 1.9073486328125E-06 
 30 
 0 
 11 
 16.2471522121755 
 21 
-3.40908908843994 
 31 
 0 
 62 
 6 
 0 
LINE
 8 
TemplateLayer
 6 
CONTINUOUS
 10 
 16.2471522121755 
 20 
-3.40908908843994 
 30 
 0 
 11 
 15.1208097475536 
 21 
-6.81818008422852 
 31 
 0 
 62 
 6 
 0 
LINE
 8 
TemplateLayer
 6 
CONTINUOUS
 10 
 15.1208097475536 
 20 
-6.81818008422852 
 30 
 0 
 11 
 13.6363660082755 
 21 
-9.38477980182104 
 31 
 0 
 62 
 6 
 0 
LINE
 8 
TemplateLayer
 6 
CONTINUOUS
 10 
 13.6363660082755 
 20 
-9.38477980182104 
 30 
 0 
 11 
 13.2049876961247 
 21 
-10.2272710800171 
 31 
 0 
 62 
 6 
 0 
LINE
 8 
TemplateLayer
 6 
CONTINUOUS
 10 
 13.2049876961247 
 20 
-10.2272710800171 
 30 
 0 
 11 
 10.2272750052318 
 21 
-13.4268457420938 
 31 
 0 
 62 
 6 
 0 
LINE
 8 
TemplateLayer
 6 
CONTINUOUS
 10 
 10.2272750052318 
 20 
-13.4268457420938 
 30 
 0 
 11 
 9.88425152893421 
 21 
-13.6363620758057 
 31 
 0 
 62 
 6 
 0 
LINE
 8 
TemplateLayer
 6 
CONTINUOUS
 10 
 9.88425152893421 
 20 
-13.6363620758057 
 30 
 0 
 11 
 6.81818400612493 
 21 
-15.2755896281281 
 31 
 0 
 62 
 6 
 0 
LINE
 8 
TemplateLayer
 6 
CONTINUOUS
 10 
 6.81818400612493 
 20 
-15.2755896281281 
 30 
 0 
 11 
 3.40909300839866 
 21 
-16.3551482918004 
 31 
 0 
 62 
 6 
 0 
LINE
 8 
TemplateLayer
 6 
CONTINUOUS
 10 
 3.40909300839866 
 20 
-16.3551482918004 
 30 
 0 
 11 
 2.0124913433367E-06 
 21 
-16.4213045583796 
 31 
 0 
 62 
 6 
 0 
LINE
 8 
TemplateLayer
 6 
CONTINUOUS
 10 
 2.0124913433367E-06 
 20 
-16.4213045583796 
 30 
 0 
 11 
-3.40908898317849 
 21 
-16.3551482918004 
 31 
 0 
 62 
 6 
 0 
LINE
 8 
TemplateLayer
 6 
CONTINUOUS
 10 
-3.40908898317849 
 20 
-16.3551482918004 
 30 
 0 
 11 
-6.81817997702936 
 21 
-15.2755896281281 
 31 
 0 
 62 
 6 
 0 
LINE
 8 
TemplateLayer
 6 
CONTINUOUS
 10 
-6.81817997702936 
 20 
-15.2755896281281 
 30 
 0 
 11 
-9.88424749395415 
 21 
-13.6363620758057 
 31 
 0 
 62 
 6 
 0 
LINE
 8 
TemplateLayer
 6 
CONTINUOUS
 10 
-9.88424749395415 
 20 
-13.6363620758057 
 30 
 0 
 11 
-10.2272709694996 
 21 
-13.4268457420938 
 31 
 0 
 62 
 6 
 0 
LINE
 8 
TemplateLayer
 6 
CONTINUOUS
 10 
-10.2272709694996 
 20 
-13.4268457420938 
 30 
 0 
 11 
-13.2049836489067 
 21 
-10.2272710800171 
 31 
 0 
 62 
 6 
 0 
LINE
 8 
TemplateLayer
 6 
CONTINUOUS
 10 
-13.2049836489067 
 20 
-10.2272710800171 
 30 
 0 
 11 
-13.6363619580331 
 21 
-9.38477980182104 
 31 
 0 
 62 
 6 
 0 
LINE
 8 
TemplateLayer
 6 
CONTINUOUS
 10 
-13.6363619580331 
 20 
-9.38477980182104 
 30 
 0 
 11 
-15.1208056880977 
 21 
-6.81818008422852 
 31 
 0 
 62 
 6 
 0 
LINE
 8 
TemplateLayer
 6 
CONTINUOUS
 10 
-11.5180283750627 
 20 
-3.40908908843994 
 30 
 0 
 11 
-12.1797320810782 
 21 
 1.9073486328125E-06 
 31 
 0 
 62 
 214 
 0 
LINE
 8 
TemplateLayer
 6 
CONTINUOUS
 10 
-12.1797320810782 
 20 
 1.9073486328125E-06 
 30 
 0 
 11 
-11.5180283628247 
 21 
 3.40909290313721 
 31 
 0 
 62 
 214 
 0 
LINE
 8 
TemplateLayer
 6 
CONTINUOUS
 10 
-11.5180283628247 
 20 
 3.40909290313721 
 30 
 0 
 11 
-10.2272709348251 
 21 
 5.8915276554138 
 31 
 0 
 62 
 214 
 0 
LINE
 8 
TemplateLayer
 6 
CONTINUOUS
 10 
-10.2272709348251 
 20 
 5.8915276554138 
 30 
 0 
 11 
-9.75308225539381 
 21 
 6.81818389892578 
 31 
 0 
 62 
 214 
 0 
LINE
 8 
TemplateLayer
 6 
CONTINUOUS
 10 
-9.75308225539381 
 20 
 6.81818389892578 
 30 
 0 
 11 
-6.81817993186735 
 21 
 9.88575479501066 
 31 
 0 
 62 
 214 
 0 
LINE
 8 
TemplateLayer
 6 
CONTINUOUS
 10 
-6.81817993186735 
 20 
 9.88575479501066 
 30 
 0 
 11 
-6.20922322911726 
 21 
 10.2272748947144 
 31 
 0 
 62 
 214 
 0 
LINE
 8 
TemplateLayer
 6 
CONTINUOUS
 10 
-6.20922322911726 
 20 
 10.2272748947144 
 30 
 0 
 11 
-3.40908893279014 
 21 
 11.7179702300578 
 31 
 0 
 62 
 214 
 0 
LINE
 8 
TemplateLayer
 6 
CONTINUOUS
 10 
-3.40908893279014 
 20 
 11.7179702300578 
 30 
 0 
 11 
 2.06388042816447E-06 
 21 
 12.2093587950386 
 31 
 0 
 62 
 214 
 0 
LINE
 8 
TemplateLayer
 6 
CONTINUOUS
 10 
 2.06388042816447E-06 
 20 
 12.2093587950386 
 30 
 0 
 11 
 3.40909305878701 
 21 
 11.7179702300578 
 31 
 0 
 62 
 214 
 0 
LINE
 8 
TemplateLayer
 6 
CONTINUOUS
 10 
 3.40909305878701 
 20 
 11.7179702300578 
 30 
 0 
 11 
 6.20922734976285 
 21 
 10.2272748947144 
 31 
 0 
 62 
 214 
 0 
LINE
 8 
TemplateLayer
 6 
CONTINUOUS
 10 
 6.20922734976285 
 20 
 10.2272748947144 
 30 
 0 
 11 
 6.81818405128695 
 21 
 9.88575479501066 
 31 
 0 
 62 
 214 
 0 
LINE
 8 
TemplateLayer
 6 
CONTINUOUS
 10 
 6.81818405128695 
 20 
 9.88575479501066 
 30 
 0 
 11 
 9.75308636380147 
 21 
 6.81818389892578 
 31 
 0 
 62 
 214 
 0 
LINE
 8 
TemplateLayer
 6 
CONTINUOUS
 10 
 9.75308636380147 
 20 
 6.81818389892578 
 30 
 0 
 11 
 10.2272750399063 
 21 
 5.8915276554138 
 31 
 0 
 62 
 214 
 0 
LINE
 8 
TemplateLayer
 6 
CONTINUOUS
 10 
 10.2272750399063 
 20 
 5.8915276554138 
 30 
 0 
 11 
 11.5180324589944 
 21 
 3.40909290313721 
 31 
 0 
 62 
 214 
 0 
LINE
 8 
TemplateLayer
 6 
CONTINUOUS
 10 
 11.5180324589944 
 20 
 3.40909290313721 
 30 
 0 
 11 
 12.17973616501 
 21 
 1.9073486328125E-06 
 31 
 0 
 62 
 214 
 0 
LINE
 8 
TemplateLayer
 6 
CONTINUOUS
 10 
 12.17973616501 
 20 
 1.9073486328125E-06 
 30 
 0 
 11 
 11.5180324467565 
 21 
-3.40908908843994 
 31 
 0 
 62 
 214 
 0 
LINE
 8 
TemplateLayer
 6 
CONTINUOUS
 10 
 11.5180324467565 
 20 
-3.40908908843994 
 30 
 0 
 11 
 10.2272750187569 
 21 
-5.89152384071653 
 31 
 0 
 62 
 214 
 0 
LINE
 8 
TemplateLayer
 6 
CONTINUOUS
 10 
 10.2272750187569 
 20 
-5.89152384071653 
 30 
 0 
 11 
 9.7530863393256 
 21 
-6.81818008422852 
 31 
 0 
 62 
 214 
 0 
LINE
 8 
TemplateLayer
 6 
CONTINUOUS
 10 
 9.7530863393256 
 20 
-6.81818008422852 
 30 
 0 
 11 
 6.81818401579914 
 21 
-9.88575098031339 
 31 
 0 
 62 
 214 
 0 
LINE
 8 
TemplateLayer
 6 
CONTINUOUS
 10 
 6.81818401579914 
 20 
-9.88575098031339 
 30 
 0 
 11 
 6.20922731304905 
 21 
-10.2272710800171 
 31 
 0 
 62 
 214 
 0 
LINE
 8 
TemplateLayer
 6 
CONTINUOUS
 10 
 6.20922731304905 
 20 
-10.2272710800171 
 30 
 0 
 11 
 3.40909301672192 
 21 
-11.7179664153605 
 31 
 0 
 62 
 214 
 0 
LINE
 8 
TemplateLayer
 6 
CONTINUOUS
 10 
 3.40909301672192 
 20 
-11.7179664153605 
 30 
 0 
 11 
 2.02005135797878E-06 
 21 
-12.2093549803413 
 31 
 0 
 62 
 214 
 0 
LINE
 8 
TemplateLayer
 6 
CONTINUOUS
 10 
 2.02005135797878E-06 
 20 
-12.2093549803413 
 30 
 0 
 11 
-3.40908897485522 
 21 
-11.7179664153605 
 31 
 0 
 62 
 214 
 0 
LINE
 8 
TemplateLayer
 6 
CONTINUOUS
 10 
-3.40908897485522 
 20 
-11.7179664153605 
 30 
 0 
 11 
-6.20922326583106 
 21 
-10.2272710800171 
 31 
 0 
 62 
 214 
 0 
LINE
 8 
TemplateLayer
 6 
CONTINUOUS
 10 
-6.20922326583106 
 20 
-10.2272710800171 
 30 
 0 
 11 
-6.81817996735516 
 21 
-9.88575098031339 
 31 
 0 
 62 
 214 
 0 
LINE
 8 
TemplateLayer
 6 
CONTINUOUS
 10 
-6.81817996735516 
 20 
-9.88575098031339 
 30 
 0 
 11 
-9.75308227986968 
 21 
-6.81818008422852 
 31 
 0 
 62 
 214 
 0 
LINE
 8 
TemplateLayer
 6 
CONTINUOUS
 10 
-9.75308227986968 
 20 
-6.81818008422852 
 30 
 0 
 11 
-10.2272709559745 
 21 
-5.89152384071653 
 31 
 0 
 62 
 214 
 0 
LINE
 8 
TemplateLayer
 6 
CONTINUOUS
 10 
-10.2272709559745 
 20 
-5.89152384071653 
 30 
 0 
 11 
-11.5180283750627 
 21 
-3.40908908843994 
 31 
 0 
 62 
 214 
 0 
LINE
 8 
TemplateLayer
 6 
CONTINUOUS
 10 
-7.52339624372436 
 20 
-3.40908908843994 
 30 
 0 
 11 
-8.6129488221056 
 21 
 1.9073486328125E-06 
 31 
 0 
 62 
 30 
 0 
LINE
 8 
TemplateLayer
 6 
CONTINUOUS
 10 
-8.6129488221056 
 20 
 1.9073486328125E-06 
 30 
 0 
 11 
-7.52339623148642 
 21 
 3.40909290313721 
 31 
 0 
 62 
 30 
 0 
LINE
 8 
TemplateLayer
 6 
CONTINUOUS
 10 
-7.52339623148642 
 20 
 3.40909290313721 
 30 
 0 
 11 
-6.8181799416946 
 21 
 4.41064619498962 
 31 
 0 
 62 
 30 
 0 
LINE
 8 
TemplateLayer
 6 
CONTINUOUS
 10 
-6.8181799416946 
 20 
 4.41064619498962 
 30 
 0 
 11 
-4.4067339097564 
 21 
 6.81818389892578 
 31 
 0 
 62 
 30 
 0 
LINE
 8 
TemplateLayer
 6 
CONTINUOUS
 10 
-4.4067339097564 
 20 
 6.81818389892578 
 30 
 0 
 11 
-3.40908894027019 
 21 
 7.55056871729921 
 31 
 0 
 62 
 30 
 0 
LINE
 8 
TemplateLayer
 6 
CONTINUOUS
 10 
-3.40908894027019 
 20 
 7.55056871729921 
 30 
 0 
 11 
 2.05715203759754E-06 
 21 
 8.46073618872522 
 31 
 0 
 62 
 30 
 0 
LINE
 8 
TemplateLayer
 6 
CONTINUOUS
 10 
 2.05715203759754E-06 
 20 
 8.46073618872522 
 30 
 0 
 11 
 3.40909305130696 
 21 
 7.55056871729921 
 31 
 0 
 62 
 30 
 0 
LINE
 8 
TemplateLayer
 6 
CONTINUOUS
 10 
 3.40909305130696 
 20 
 7.55056871729921 
 30 
 0 
 11 
 4.40673801816406 
 21 
 6.81818389892578 
 31 
 0 
 62 
 30 
 0 
LINE
 8 
TemplateLayer
 6 
CONTINUOUS
 10 
 4.40673801816406 
 20 
 6.81818389892578 
 30 
 0 
 11 
 6.81818404145969 
 21 
 4.41064619498962 
 31 
 0 
 62 
 30 
 0 
LINE
 8 
TemplateLayer
 6 
CONTINUOUS
 10 
 6.81818404145969 
 20 
 4.41064619498962 
 30 
 0 
 11 
 7.52340032765614 
 21 
 3.40909290313721 
 31 
 0 
 62 
 30 
 0 
LINE
 8 
TemplateLayer
 6 
CONTINUOUS
 10 
 7.52340032765614 
 20 
 3.40909290313721 
 30 
 0 
 11 
 8.61295290603739 
 21 
 1.9073486328125E-06 
 31 
 0 
 62 
 30 
 0 
LINE
 8 
TemplateLayer
 6 
CONTINUOUS
 10 
 8.61295290603739 
 20 
 1.9073486328125E-06 
 30 
 0 
 11 
 7.52340031541821 
 21 
-3.40908908843994 
 31 
 0 
 62 
 30 
 0 
LINE
 8 
TemplateLayer
 6 
CONTINUOUS
 10 
 7.52340031541821 
 20 
-3.40908908843994 
 30 
 0 
 11 
 6.81818402562639 
 21 
-4.41064238029236 
 31 
 0 
 62 
 30 
 0 
LINE
 8 
TemplateLayer
 6 
CONTINUOUS
 10 
 6.81818402562639 
 20 
-4.41064238029236 
 30 
 0 
 11 
 4.40673799368819 
 21 
-6.81818008422852 
 31 
 0 
 62 
 30 
 0 
LINE
 8 
TemplateLayer
 6 
CONTINUOUS
 10 
 4.40673799368819 
 20 
-6.81818008422852 
 30 
 0 
 11 
 3.40909302420198 
 21 
-7.55056490260195 
 31 
 0 
 62 
 30 
 0 
LINE
 8 
TemplateLayer
 6 
CONTINUOUS
 10 
 3.40909302420198 
 20 
-7.55056490260195 
 30 
 0 
 11 
 2.02677974853877E-06 
 21 
-8.46073237402796 
 31 
 0 
 62 
 30 
 0 
LINE
 8 
TemplateLayer
 6 
CONTINUOUS
 10 
 2.02677974853877E-06 
 20 
-8.46073237402796 
 30 
 0 
 11 
-3.40908896737517 
 21 
-7.55056490260195 
 31 
 0 
 62 
 30 
 0 
LINE
 8 
TemplateLayer
 6 
CONTINUOUS
 10 
-3.40908896737517 
 20 
-7.55056490260195 
 30 
 0 
 11 
-4.40673393423227 
 21 
-6.81818008422852 
 31 
 0 
 62 
 30 
 0 
LINE
 8 
TemplateLayer
 6 
CONTINUOUS
 10 
-4.40673393423227 
 20 
-6.81818008422852 
 30 
 0 
 11 
-6.81817995752791 
 21 
-4.41064238029236 
 31 
 0 
 62 
 30 
 0 
LINE
 8 
TemplateLayer
 6 
CONTINUOUS
 10 
-6.81817995752791 
 20 
-4.41064238029236 
 30 
 0 
 11 
-7.52339624372436 
 21 
-3.40908908843994 
 31 
 0 
 62 
 30 
 0 
LINE
 8 
TemplateLayer
 6 
CONTINUOUS
 10 
-4.25538044461081 
 20 
 1.9073486328125E-06 
 30 
 0 
 11 
-3.40908895078174 
 21 
 1.69421851571224 
 31 
 0 
 62 
 94 
 0 
LINE
 8 
TemplateLayer
 6 
CONTINUOUS
 10 
-3.40908895078174 
 20 
 1.69421851571224 
 30 
 0 
 11 
-1.16618144209386 
 21 
 3.40909290313721 
 31 
 0 
 62 
 94 
 0 
LINE
 8 
TemplateLayer
 6 
CONTINUOUS
 10 
-1.16618144209386 
 20 
 3.40909290313721 
 30 
 0 
 11 
 2.04893253150096E-06 
 21 
 3.88136076493561 
 31 
 0 
 62 
 94 
 0 
LINE
 8 
TemplateLayer
 6 
CONTINUOUS
 10 
 2.04893253150096E-06 
 20 
 3.88136076493561 
 30 
 0 
 11 
 1.16618553826358 
 21 
 3.40909290313721 
 31 
 0 
 62 
 94 
 0 
LINE
 8 
TemplateLayer
 6 
CONTINUOUS
 10 
 1.16618553826358 
 20 
 3.40909290313721 
 30 
 0 
 11 
 3.40909304079541 
 21 
 1.69421851571224 
 31 
 0 
 62 
 94 
 0 
LINE
 8 
TemplateLayer
 6 
CONTINUOUS
 10 
 3.40909304079541 
 20 
 1.69421851571224 
 30 
 0 
 11 
 4.2553845285426 
 21 
 1.9073486328125E-06 
 31 
 0 
 62 
 94 
 0 
LINE
 8 
TemplateLayer
 6 
CONTINUOUS
 10 
 4.2553845285426 
 20 
 1.9073486328125E-06 
 30 
 0 
 11 
 3.40909303471352 
 21 
-1.69421470101497 
 31 
 0 
 62 
 94 
 0 
LINE
 8 
TemplateLayer
 6 
CONTINUOUS
 10 
 3.40909303471352 
 20 
-1.69421470101497 
 30 
 0 
 11 
 1.16618552602565 
 21 
-3.40908908843994 
 31 
 0 
 62 
 94 
 0 
LINE
 8 
TemplateLayer
 6 
CONTINUOUS
 10 
 1.16618552602565 
 20 
-3.40908908843994 
 30 
 0 
 11 
 2.03499925464229E-06 
 21 
-3.88135695023834 
 31 
 0 
 62 
 94 
 0 
LINE
 8 
TemplateLayer
 6 
CONTINUOUS
 10 
 2.03499925464229E-06 
 20 
-3.88135695023834 
 30 
 0 
 11 
-1.1661814543318 
 21 
-3.40908908843994 
 31 
 0 
 62 
 94 
 0 
LINE
 8 
TemplateLayer
 6 
CONTINUOUS
 10 
-1.1661814543318 
 20 
-3.40908908843994 
 30 
 0 
 11 
-3.40908895686362 
 21 
-1.69421470101497 
 31 
 0 
 62 
 94 
 0 
LINE
 8 
TemplateLayer
 6 
CONTINUOUS
 10 
-3.40908895686362 
 20 
-1.69421470101497 
 30 
 0 
 11 
-4.25538044461081 
 21 
 1.9073486328125E-06 
 31 
 0 
 62 
 94 
 0 
TEXT
 8 
TemplateLayer
 10 
-30.9185591592863 
 20 
-14.62154729278 
 30 
 0 
 40 
 1.33 
 50 
 0 
 62 
 7 
 1 
.1
 0 
TEXT
 8 
TemplateLayer
 10 
-28.0406058759853 
 20 
-11.2124562969914 
 30 
 0 
 40 
 1.33 
 50 
 0 
 62 
 1 
 1 
.2
 0 
TEXT
 8 
TemplateLayer
 10 
-21.8367274863278 
 20 
-11.2124562969914 
 30 
 0 
 40 
 1.33 
 50 
 0 
 62 
 3 
 1 
.5
 0 
TEXT
 8 
TemplateLayer
 10 
-17.5509539818081 
 20 
-11.2124562969914 
 30 
 0 
 40 
 1.33 
 50 
 0 
 62 
 5 
 1 
1
 0 
TEXT
 8 
TemplateLayer
 10 
-15.1208056880977 
 20 
-7.80336530120284 
 30 
 0 
 40 
 1.33 
 50 
 0 
 62 
 6 
 1 
2
 0 
TEXT
 8 
TemplateLayer
 10 
-11.5180283750627 
 20 
-4.39427430541427 
 30 
 0 
 40 
 1.33 
 50 
 0 
 62 
 214 
 1 
5
 0 
TEXT
 8 
TemplateLayer
 10 
-7.52339624372436 
 20 
-4.39427430541427 
 30 
 0 
 40 
 1.33 
 50 
 0 
 62 
 30 
 1 
10
 0 
TEXT
 8 
TemplateLayer
 10 
-4.25538044461081 
 20 
-0.985183309625696 
 30 
 0 
 40 
 1.33 
 50 
 0 
 62 
 94 
 1 
20
 0 
LINE
 8 
TemplateLayer
 6 
CONTINUOUS
 10 
 0 
 20 
 0 
 30 
 0 
 11 
 2 
 21 
 0 
 31 
 0 
 62 
 0 
 0 
LINE
 8 
TemplateLayer
 6 
CONTINUOUS
 10 
 2 
 20 
 0 
 30 
 0 
 11 
 1 
 21 
 0.5 
 31 
 0 
 62 
 0 
 0 
LINE
 8 
TemplateLayer
 6 
CONTINUOUS
 10 
 1 
 20 
 0.5 
 30 
 0 
 11 
 1 
 21 
-0.5 
 31 
 0 
 62 
 0 
 0 
LINE
 8 
TemplateLayer
 6 
CONTINUOUS
 10 
 1 
 20 
-0.5 
 30 
 0 
 11 
 2 
 21 
 0 
 31 
 0 
 62 
 0 
 0 
LINE
 8 
TemplateLayer
 6 
CONTINUOUS
 10 
-0.100000001490116 
 20 
 0.100000001490116 
 30 
 0 
 11 
 0.100000001490116 
 21 
 0.100000001490116 
 31 
 0 
 62 
 0 
 0 
LINE
 8 
TemplateLayer
 6 
CONTINUOUS
 10 
 0.100000001490116 
 20 
 0.100000001490116 
 30 
 0 
 11 
 0.100000001490116 
 21 
-0.100000001490116 
 31 
 0 
 62 
 0 
 0 
LINE
 8 
TemplateLayer
 6 
CONTINUOUS
 10 
 0.100000001490116 
 20 
-0.100000001490116 
 30 
 0 
 11 
-0.100000001490116 
 21 
-0.100000001490116 
 31 
 0 
 62 
 0 
 0 
LINE
 8 
TemplateLayer
 6 
CONTINUOUS
 10 
-0.100000001490116 
 20 
-0.100000001490116 
 30 
 0 
 11 
-0.100000001490116 
 21 
 0.100000001490116 
 31 
 0 
 62 
 0 
 0 
LINE
 8 
TemplateLayer
 6 
CONTINUOUS
 10 
 0 
 20 
 0 
 30 
 0 
 11 
 0 
 21 
 0 
 31 
 0 
 62 
 0 
 0 
ENDBLK
 0 
ENDSEC
 0 
SECTION
 2 
ENTITIES
 0 
INSERT
 2 
Template
 6 
CONTINUOUS
 8 
TemplateLayer
 10 
 0 
 20 
 0 
 30 
 0 
 41 
 1 
 42 
 1 
 43 
 1 
 50 
 0 
 0 
ENDSEC
 0 
EOF
