 0 
SECTION
 2 
HEADER
 9 
$LUNITS
 70 
 2 
 0 
ENDSEC
 0 
SECTION
 2 
TABLES
 0 
TABLE
 2 
LTYPE
 70 
 1 
 0 
LTYPE
 2 
CONTINUOUS
 70 
 0 
 3 
Solid line
 72 
 65 
 73 
 0 
 40 
 0 
 0 
ENDTAB
 0 
TABLE
 2 
LAYER
 70 
 0 
 0 
LAYER
 2 
TemplateLayer
 62 
 7 
 6 
CONTINUOUS
 70 
 0 
 0 
ENDTAB
 0 
ENDSEC
 0 
SECTION
 2 
BLOCKS
 0 
BLOCK
 8 
TemplateLayer
 2 
Template
 70 
 0 
 10 
 0 
 20 
 0 
 30 
 0 
 0 
LINE
 8 
TemplateLayer
 6 
CONTINUOUS
 10 
-21.3350374292268 
 20 
-10.2272710800171 
 30 
 0 
 11 
-22.7644420200465 
 21 
-6.81818008422852 
 31 
 0 
 62 
 7 
 0 
LINE
 8 
TemplateLayer
 6 
CONTINUOUS
 10 
-22.7644420200465 
 20 
-6.81818008422852 
 30 
 0 
 11 
-23.3065070258924 
 21 
-3.40908908843994 
 31 
 0 
 62 
 7 
 0 
LINE
 8 
TemplateLayer
 6 
CONTINUOUS
 10 
-23.3065070258924 
 20 
-3.40908908843994 
 30 
 0 
 11 
-23.401897208805 
 21 
 1.9073486328125E-06 
 31 
 0 
 62 
 7 
 0 
LINE
 8 
TemplateLayer
 6 
CONTINUOUS
 10 
-23.401897208805 
 20 
 1.9073486328125E-06 
 30 
 0 
 11 
-23.3442809977151 
 21 
 3.40909290313721 
 31 
 0 
 62 
 7 
 0 
LINE
 8 
TemplateLayer
 6 
CONTINUOUS
 10 
-23.3442809977151 
 20 
 3.40909290313721 
 30 
 0 
 11 
-22.8440934214073 
 21 
 6.81818389892578 
 31 
 0 
 62 
 7 
 0 
LINE
 8 
TemplateLayer
 6 
CONTINUOUS
 10 
-22.8440934214073 
 20 
 6.81818389892578 
 30 
 0 
 11 
-21.5369117083753 
 21 
 10.2272748947144 
 31 
 0 
 62 
 7 
 0 
LINE
 8 
TemplateLayer
 6 
CONTINUOUS
 10 
-21.5369117083753 
 20 
 10.2272748947144 
 30 
 0 
 11 
-20.4545439113902 
 21 
 11.9089401982807 
 31 
 0 
 62 
 7 
 0 
LINE
 8 
TemplateLayer
 6 
CONTINUOUS
 10 
-20.4545439113902 
 20 
 11.9089401982807 
 30 
 0 
 11 
-19.4569222011 
 21 
 13.6363658905029 
 31 
 0 
 62 
 7 
 0 
LINE
 8 
TemplateLayer
 6 
CONTINUOUS
 10 
-19.4569222011 
 20 
 13.6363658905029 
 30 
 0 
 11 
-17.0454529075817 
 21 
 16.3771547997306 
 31 
 0 
 62 
 7 
 0 
LINE
 8 
TemplateLayer
 6 
CONTINUOUS
 10 
-17.0454529075817 
 20 
 16.3771547997306 
 30 
 0 
 11 
-16.2553249368598 
 21 
 17.0454568862915 
 31 
 0 
 62 
 7 
 0 
LINE
 8 
TemplateLayer
 6 
CONTINUOUS
 10 
-16.2553249368598 
 20 
 17.0454568862915 
 30 
 0 
 11 
-13.6363619070885 
 21 
 18.9982371750092 
 31 
 0 
 62 
 7 
 0 
LINE
 8 
TemplateLayer
 6 
CONTINUOUS
 10 
-13.6363619070885 
 20 
 18.9982371750092 
 30 
 0 
 11 
-10.2272709087931 
 21 
 20.3948887309169 
 31 
 0 
 62 
 7 
 0 
LINE
 8 
TemplateLayer
 6 
CONTINUOUS
 10 
-10.2272709087931 
 20 
 20.3948887309169 
 30 
 0 
 11 
-10.0103285444936 
 21 
 20.4545478820801 
 31 
 0 
 62 
 7 
 0 
LINE
 8 
TemplateLayer
 6 
CONTINUOUS
 10 
-10.0103285444936 
 20 
 20.4545478820801 
 30 
 0 
 11 
-6.8181799104734 
 21 
 21.8050722679575 
 31 
 0 
 62 
 7 
 0 
LINE
 8 
TemplateLayer
 6 
CONTINUOUS
 10 
-6.8181799104734 
 20 
 21.8050722679575 
 30 
 0 
 11 
-3.40908891324378 
 21 
 22.6079309862856 
 31 
 0 
 62 
 7 
 0 
LINE
 8 
TemplateLayer
 6 
CONTINUOUS
 10 
-3.40908891324378 
 20 
 22.6079309862856 
 30 
 0 
 11 
 2.08293415253358E-06 
 21 
 22.8248575905656 
 31 
 0 
 62 
 7 
 0 
LINE
 8 
TemplateLayer
 6 
CONTINUOUS
 10 
 2.08293415253358E-06 
 20 
 22.8248575905656 
 30 
 0 
 11 
 3.40909307843732 
 21 
 22.6658499950063 
 31 
 0 
 62 
 7 
 0 
LINE
 8 
TemplateLayer
 6 
CONTINUOUS
 10 
 3.40909307843732 
 20 
 22.6658499950063 
 30 
 0 
 11 
 6.81818407293173 
 21 
 21.9448258845798 
 31 
 0 
 62 
 7 
 0 
LINE
 8 
TemplateLayer
 6 
CONTINUOUS
 10 
 6.81818407293173 
 20 
 21.9448258845798 
 30 
 0 
 11 
 10.2272750662961 
 21 
 20.5941973013135 
 31 
 0 
 62 
 7 
 0 
LINE
 8 
TemplateLayer
 6 
CONTINUOUS
 10 
 10.2272750662961 
 20 
 20.5941973013135 
 30 
 0 
 11 
 10.5086076684897 
 21 
 20.4545478820801 
 31 
 0 
 62 
 7 
 0 
LINE
 8 
TemplateLayer
 6 
CONTINUOUS
 10 
 10.5086076684897 
 20 
 20.4545478820801 
 30 
 0 
 11 
 13.6363660596764 
 21 
 19.2524616825599 
 31 
 0 
 62 
 7 
 0 
LINE
 8 
TemplateLayer
 6 
CONTINUOUS
 10 
 13.6363660596764 
 20 
 19.2524616825599 
 30 
 0 
 11 
 16.6541071793445 
 21 
 17.0454568862915 
 31 
 0 
 62 
 7 
 0 
LINE
 8 
TemplateLayer
 6 
CONTINUOUS
 10 
 16.6541071793445 
 20 
 17.0454568862915 
 30 
 0 
 11 
 17.0454570509393 
 21 
 16.7310938644342 
 31 
 0 
 62 
 7 
 0 
LINE
 8 
TemplateLayer
 6 
CONTINUOUS
 10 
 17.0454570509393 
 20 
 16.7310938644342 
 30 
 0 
 11 
 19.8318540796487 
 21 
 13.6363658905029 
 31 
 0 
 62 
 7 
 0 
LINE
 8 
TemplateLayer
 6 
CONTINUOUS
 10 
 19.8318540796487 
 20 
 13.6363658905029 
 30 
 0 
 11 
 20.4545480393431 
 21 
 12.6167280708173 
 31 
 0 
 62 
 7 
 0 
LINE
 8 
TemplateLayer
 6 
CONTINUOUS
 10 
 20.4545480393431 
 20 
 12.6167280708173 
 30 
 0 
 11 
 22.0363662042687 
 21 
 10.2272748947144 
 31 
 0 
 62 
 7 
 0 
LINE
 8 
TemplateLayer
 6 
CONTINUOUS
 10 
 22.0363662042687 
 20 
 10.2272748947144 
 30 
 0 
 11 
 23.2307276554138 
 21 
 6.81818389892578 
 31 
 0 
 62 
 7 
 0 
LINE
 8 
TemplateLayer
 6 
CONTINUOUS
 10 
 23.2307276554138 
 20 
 6.81818389892578 
 30 
 0 
 11 
 23.6567864058833 
 21 
 3.40909290313721 
 31 
 0 
 62 
 7 
 0 
LINE
 8 
TemplateLayer
 6 
CONTINUOUS
 10 
 23.6567864058833 
 20 
 3.40909290313721 
 30 
 0 
 11 
 23.7062371951697 
 21 
 1.9073486328125E-06 
 31 
 0 
 62 
 7 
 0 
LINE
 8 
TemplateLayer
 6 
CONTINUOUS
 10 
 23.7062371951697 
 20 
 1.9073486328125E-06 
 30 
 0 
 11 
 23.6172944086635 
 21 
-3.40908908843994 
 31 
 0 
 62 
 7 
 0 
LINE
 8 
TemplateLayer
 6 
CONTINUOUS
 10 
 23.6172944086635 
 20 
-3.40908908843994 
 30 
 0 
 11 
 23.1355303178687 
 21 
-6.81818008422852 
 31 
 0 
 62 
 7 
 0 
LINE
 8 
TemplateLayer
 6 
CONTINUOUS
 10 
 23.1355303178687 
 20 
-6.81818008422852 
 30 
 0 
 11 
 21.8223929090144 
 21 
-10.2272710800171 
 31 
 0 
 62 
 7 
 0 
LINE
 8 
TemplateLayer
 6 
CONTINUOUS
 10 
 21.8223929090144 
 20 
-10.2272710800171 
 30 
 0 
 11 
 20.4545479947026 
 21 
-12.2540169325698 
 31 
 0 
 62 
 7 
 0 
LINE
 8 
TemplateLayer
 6 
CONTINUOUS
 10 
 20.4545479947026 
 20 
-12.2540169325698 
 30 
 0 
 11 
 19.5741418617654 
 21 
-13.6363620758057 
 31 
 0 
 62 
 7 
 0 
LINE
 8 
TemplateLayer
 6 
CONTINUOUS
 10 
 19.5741418617654 
 20 
-13.6363620758057 
 30 
 0 
 11 
 17.0454569914702 
 21 
-16.4012722771777 
 31 
 0 
 62 
 7 
 0 
LINE
 8 
TemplateLayer
 6 
CONTINUOUS
 10 
 17.0454569914702 
 20 
-16.4012722771777 
 30 
 0 
 11 
 16.2073100241049 
 21 
-17.0454530715942 
 31 
 0 
 62 
 7 
 0 
LINE
 8 
TemplateLayer
 6 
CONTINUOUS
 10 
 16.2073100241049 
 20 
-17.0454530715942 
 30 
 0 
 11 
 13.6363659912109 
 21 
-18.892043670673 
 31 
 0 
 62 
 7 
 0 
LINE
 8 
TemplateLayer
 6 
CONTINUOUS
 10 
 13.6363659912109 
 20 
-18.892043670673 
 30 
 0 
 11 
 10.2272749929657 
 21 
-20.2607455924908 
 31 
 0 
 62 
 7 
 0 
LINE
 8 
TemplateLayer
 6 
CONTINUOUS
 10 
 10.2272749929657 
 20 
-20.2607455924908 
 30 
 0 
 11 
 9.42940254566421 
 21 
-20.4545440673828 
 31 
 0 
 62 
 7 
 0 
LINE
 8 
TemplateLayer
 6 
CONTINUOUS
 10 
 9.42940254566421 
 20 
-20.4545440673828 
 30 
 0 
 11 
 6.81818399503468 
 21 
-21.4543588628933 
 31 
 0 
 62 
 7 
 0 
LINE
 8 
TemplateLayer
 6 
CONTINUOUS
 10 
 6.81818399503468 
 20 
-21.4543588628933 
 30 
 0 
 11 
 3.40909299791004 
 21 
-22.198729991445 
 31 
 0 
 62 
 7 
 0 
LINE
 8 
TemplateLayer
 6 
CONTINUOUS
 10 
 3.40909299791004 
 20 
-22.198729991445 
 30 
 0 
 11 
 2.00189622421437E-06 
 21 
-22.3242174004639 
 31 
 0 
 62 
 7 
 0 
LINE
 8 
TemplateLayer
 6 
CONTINUOUS
 10 
 2.00189622421437E-06 
 20 
-22.3242174004639 
 30 
 0 
 11 
-3.40908899358054 
 21 
-22.1504952863871 
 31 
 0 
 62 
 7 
 0 
LINE
 8 
TemplateLayer
 6 
CONTINUOUS
 10 
-3.40908899358054 
 20 
-22.1504952863871 
 30 
 0 
 11 
-6.81817998792462 
 21 
-21.345717103249 
 31 
 0 
 62 
 7 
 0 
LINE
 8 
TemplateLayer
 6 
CONTINUOUS
 10 
-6.81817998792462 
 20 
-21.345717103249 
 30 
 0 
 11 
-9.02097650369135 
 21 
-20.4545440673828 
 31 
 0 
 62 
 7 
 0 
LINE
 8 
TemplateLayer
 6 
CONTINUOUS
 10 
-9.02097650369135 
 20 
-20.4545440673828 
 30 
 0 
 11 
-10.2272709815454 
 21 
-20.1379526386912 
 31 
 0 
 62 
 7 
 0 
LINE
 8 
TemplateLayer
 6 
CONTINUOUS
 10 
-10.2272709815454 
 20 
-20.1379526386912 
 30 
 0 
 11 
-13.6363619745761 
 21 
-18.6014695774816 
 31 
 0 
 62 
 7 
 0 
LINE
 8 
TemplateLayer
 6 
CONTINUOUS
 10 
-13.6363619745761 
 20 
-18.6014695774816 
 30 
 0 
 11 
-15.7196954364926 
 21 
-17.0454530715942 
 31 
 0 
 62 
 7 
 0 
LINE
 8 
TemplateLayer
 6 
CONTINUOUS
 10 
-15.7196954364926 
 20 
-17.0454530715942 
 30 
 0 
 11 
-17.0454529656381 
 21 
-15.9680880179384 
 31 
 0 
 62 
 7 
 0 
LINE
 8 
TemplateLayer
 6 
CONTINUOUS
 10 
-17.0454529656381 
 20 
-15.9680880179384 
 30 
 0 
 11 
-19.1578343840018 
 21 
-13.6363620758057 
 31 
 0 
 62 
 7 
 0 
LINE
 8 
TemplateLayer
 6 
CONTINUOUS
 10 
-19.1578343840018 
 20 
-13.6363620758057 
 30 
 0 
 11 
-20.4545439534852 
 21 
-11.5436524528674 
 31 
 0 
 62 
 7 
 0 
LINE
 8 
TemplateLayer
 6 
CONTINUOUS
 10 
-20.4545439534852 
 20 
-11.5436524528674 
 30 
 0 
 11 
-21.3350374292268 
 21 
-10.2272710800171 
 31 
 0 
 62 
 7 
 0 
LINE
 8 
TemplateLayer
 6 
CONTINUOUS
 10 
-19.1252571375118 
 20 
-6.81818008422852 
 30 
 0 
 11 
-19.818586215417 
 21 
-3.40908908843994 
 31 
 0 
 62 
 1 
 0 
LINE
 8 
TemplateLayer
 6 
CONTINUOUS
 10 
-19.818586215417 
 20 
-3.40908908843994 
 30 
 0 
 11 
-19.9322230780697 
 21 
 1.9073486328125E-06 
 31 
 0 
 62 
 1 
 0 
LINE
 8 
TemplateLayer
 6 
CONTINUOUS
 10 
-19.9322230780697 
 20 
 1.9073486328125E-06 
 30 
 0 
 11 
-19.8358371954183 
 21 
 3.40909290313721 
 31 
 0 
 62 
 1 
 0 
LINE
 8 
TemplateLayer
 6 
CONTINUOUS
 10 
-19.8358371954183 
 20 
 3.40909290313721 
 30 
 0 
 11 
-19.1702972577124 
 21 
 6.81818389892578 
 31 
 0 
 62 
 1 
 0 
LINE
 8 
TemplateLayer
 6 
CONTINUOUS
 10 
-19.1702972577124 
 20 
 6.81818389892578 
 30 
 0 
 11 
-17.179820221679 
 21 
 10.2272748947144 
 31 
 0 
 62 
 1 
 0 
LINE
 8 
TemplateLayer
 6 
CONTINUOUS
 10 
-17.179820221679 
 20 
 10.2272748947144 
 30 
 0 
 11 
-17.0454529183004 
 21 
 10.4053617151451 
 31 
 0 
 62 
 1 
 0 
LINE
 8 
TemplateLayer
 6 
CONTINUOUS
 10 
-17.0454529183004 
 20 
 10.4053617151451 
 30 
 0 
 11 
-14.4835915462681 
 21 
 13.6363658905029 
 31 
 0 
 62 
 1 
 0 
LINE
 8 
TemplateLayer
 6 
CONTINUOUS
 10 
-14.4835915462681 
 20 
 13.6363658905029 
 30 
 0 
 11 
-13.6363619153082 
 21 
 14.4187801445941 
 31 
 0 
 62 
 1 
 0 
LINE
 8 
TemplateLayer
 6 
CONTINUOUS
 10 
-13.6363619153082 
 20 
 14.4187801445941 
 30 
 0 
 11 
-10.227270915573 
 21 
 16.6175708741664 
 31 
 0 
 62 
 1 
 0 
LINE
 8 
TemplateLayer
 6 
CONTINUOUS
 10 
-10.227270915573 
 20 
 16.6175708741664 
 30 
 0 
 11 
-8.93145272808793 
 21 
 17.0454568862915 
 31 
 0 
 62 
 1 
 0 
LINE
 8 
TemplateLayer
 6 
CONTINUOUS
 10 
-8.93145272808793 
 20 
 17.0454568862915 
 30 
 0 
 11 
-6.81817991714808 
 21 
 18.0863777979069 
 31 
 0 
 62 
 1 
 0 
LINE
 8 
TemplateLayer
 6 
CONTINUOUS
 10 
-6.81817991714808 
 20 
 18.0863777979069 
 30 
 0 
 11 
-3.40908891931579 
 21 
 19.225005085106 
 31 
 0 
 62 
 1 
 0 
LINE
 8 
TemplateLayer
 6 
CONTINUOUS
 10 
-3.40908891931579 
 20 
 19.225005085106 
 30 
 0 
 11 
 2.07702896239115E-06 
 21 
 19.5348688408101 
 31 
 0 
 62 
 1 
 0 
LINE
 8 
TemplateLayer
 6 
CONTINUOUS
 10 
 2.07702896239115E-06 
 20 
 19.5348688408101 
 30 
 0 
 11 
 3.40909307236822 
 21 
 19.2845394525885 
 31 
 0 
 62 
 1 
 0 
LINE
 8 
TemplateLayer
 6 
CONTINUOUS
 10 
 3.40909307236822 
 20 
 19.2845394525885 
 30 
 0 
 11 
 6.81818406625918 
 21 
 18.2273138626453 
 31 
 0 
 62 
 1 
 0 
LINE
 8 
TemplateLayer
 6 
CONTINUOUS
 10 
 6.81818406625918 
 20 
 18.2273138626453 
 30 
 0 
 11 
 9.30474322310847 
 21 
 17.0454568862915 
 31 
 0 
 62 
 1 
 0 
LINE
 8 
TemplateLayer
 6 
CONTINUOUS
 10 
 9.30474322310847 
 20 
 17.0454568862915 
 30 
 0 
 11 
 10.2272750594179 
 21 
 16.7621476947491 
 31 
 0 
 62 
 1 
 0 
LINE
 8 
TemplateLayer
 6 
CONTINUOUS
 10 
 10.2272750594179 
 20 
 16.7621476947491 
 30 
 0 
 11 
 13.6363660516378 
 21 
 14.773889130097 
 31 
 0 
 62 
 1 
 0 
LINE
 8 
TemplateLayer
 6 
CONTINUOUS
 10 
 13.6363660516378 
 20 
 14.773889130097 
 30 
 0 
 11 
 14.8974211978151 
 21 
 13.6363658905029 
 31 
 0 
 62 
 1 
 0 
LINE
 8 
TemplateLayer
 6 
CONTINUOUS
 10 
 14.8974211978151 
 20 
 13.6363658905029 
 30 
 0 
 11 
 17.0454570408524 
 21 
 11.1112812313101 
 31 
 0 
 62 
 1 
 0 
LINE
 8 
TemplateLayer
 6 
CONTINUOUS
 10 
 17.0454570408524 
 20 
 11.1112812313101 
 30 
 0 
 11 
 17.7357714531567 
 21 
 10.2272748947144 
 31 
 0 
 62 
 1 
 0 
LINE
 8 
TemplateLayer
 6 
CONTINUOUS
 10 
 17.7357714531567 
 20 
 10.2272748947144 
 30 
 0 
 11 
 19.5530232959202 
 21 
 6.81818389892578 
 31 
 0 
 62 
 1 
 0 
LINE
 8 
TemplateLayer
 6 
CONTINUOUS
 10 
 19.5530232959202 
 20 
 6.81818389892578 
 30 
 0 
 11 
 20.145351366846 
 21 
 3.40909290313721 
 31 
 0 
 62 
 1 
 0 
LINE
 8 
TemplateLayer
 6 
CONTINUOUS
 10 
 20.145351366846 
 20 
 3.40909290313721 
 30 
 0 
 11 
 20.2396361398219 
 21 
 1.9073486328125E-06 
 31 
 0 
 62 
 1 
 0 
LINE
 8 
TemplateLayer
 6 
CONTINUOUS
 10 
 20.2396361398219 
 20 
 1.9073486328125E-06 
 30 
 0 
 11 
 20.1309301911914 
 21 
-3.40908908843994 
 31 
 0 
 62 
 1 
 0 
LINE
 8 
TemplateLayer
 6 
CONTINUOUS
 10 
 20.1309301911914 
 20 
-3.40908908843994 
 30 
 0 
 11 
 19.5132316665917 
 21 
-6.81818008422852 
 31 
 0 
 62 
 1 
 0 
LINE
 8 
TemplateLayer
 6 
CONTINUOUS
 10 
 19.5132316665917 
 20 
-6.81818008422852 
 30 
 0 
 11 
 17.5566406814661 
 21 
-10.2272710800171 
 31 
 0 
 62 
 1 
 0 
LINE
 8 
TemplateLayer
 6 
CONTINUOUS
 10 
 17.5566406814661 
 20 
-10.2272710800171 
 30 
 0 
 11 
 17.0454570014086 
 21 
-10.8642328644375 
 31 
 0 
 62 
 1 
 0 
LINE
 8 
TemplateLayer
 6 
CONTINUOUS
 10 
 17.0454570014086 
 20 
-10.8642328644375 
 30 
 0 
 11 
 14.4476539270543 
 21 
-13.6363620758057 
 31 
 0 
 62 
 1 
 0 
LINE
 8 
TemplateLayer
 6 
CONTINUOUS
 10 
 14.4476539270543 
 20 
-13.6363620758057 
 30 
 0 
 11 
 13.6363659993607 
 21 
-14.3515299773525 
 31 
 0 
 62 
 1 
 0 
LINE
 8 
TemplateLayer
 6 
CONTINUOUS
 10 
 13.6363659993607 
 20 
-14.3515299773525 
 30 
 0 
 11 
 10.2272749997007 
 21 
-16.508431523514 
 31 
 0 
 62 
 1 
 0 
LINE
 8 
TemplateLayer
 6 
CONTINUOUS
 10 
 10.2272749997007 
 20 
-16.508431523514 
 30 
 0 
 11 
 8.34495443461696 
 21 
-17.0454530715942 
 31 
 0 
 62 
 1 
 0 
LINE
 8 
TemplateLayer
 6 
CONTINUOUS
 10 
 8.34495443461696 
 20 
-17.0454530715942 
 30 
 0 
 11 
 6.81818400170165 
 21 
-17.7399561914891 
 31 
 0 
 62 
 1 
 0 
LINE
 8 
TemplateLayer
 6 
CONTINUOUS
 10 
 6.81818400170165 
 20 
-17.7399561914891 
 30 
 0 
 11 
 3.40909300392116 
 21 
-18.8497200663727 
 31 
 0 
 62 
 1 
 0 
LINE
 8 
TemplateLayer
 6 
CONTINUOUS
 10 
 3.40909300392116 
 20 
-18.8497200663727 
 30 
 0 
 11 
 2.00768692548703E-06 
 21 
-19.0980144166426 
 31 
 0 
 62 
 1 
 0 
LINE
 8 
TemplateLayer
 6 
CONTINUOUS
 10 
 2.00768692548703E-06 
 20 
-19.0980144166426 
 30 
 0 
 11 
-3.40908898755534 
 21 
-18.7936444061984 
 31 
 0 
 62 
 1 
 0 
LINE
 8 
TemplateLayer
 6 
CONTINUOUS
 10 
-3.40908898755534 
 20 
-18.7936444061984 
 30 
 0 
 11 
-6.81817998118771 
 21 
-17.5923485189273 
 31 
 0 
 62 
 1 
 0 
LINE
 8 
TemplateLayer
 6 
CONTINUOUS
 10 
-6.81817998118771 
 20 
-17.5923485189273 
 30 
 0 
 11 
-7.97298359245858 
 21 
-17.0454530715942 
 31 
 0 
 62 
 1 
 0 
LINE
 8 
TemplateLayer
 6 
CONTINUOUS
 10 
-7.97298359245858 
 20 
-17.0454530715942 
 30 
 0 
 11 
-10.2272709747595 
 21 
-16.3573022145565 
 31 
 0 
 62 
 1 
 0 
LINE
 8 
TemplateLayer
 6 
CONTINUOUS
 10 
-10.2272709747595 
 20 
-16.3573022145565 
 30 
 0 
 11 
-13.6363619663036 
 21 
-13.9925354093828 
 31 
 0 
 62 
 1 
 0 
LINE
 8 
TemplateLayer
 6 
CONTINUOUS
 10 
-13.6363619663036 
 20 
-13.9925354093828 
 30 
 0 
 11 
-14.0300510170196 
 21 
-13.6363620758057 
 31 
 0 
 62 
 1 
 0 
LINE
 8 
TemplateLayer
 6 
CONTINUOUS
 10 
-14.0300510170196 
 20 
-13.6363620758057 
 30 
 0 
 11 
-17.0163152425577 
 21 
-10.2272710800171 
 31 
 0 
 62 
 1 
 0 
LINE
 8 
TemplateLayer
 6 
CONTINUOUS
 10 
-17.0163152425577 
 20 
-10.2272710800171 
 30 
 0 
 11 
-17.0454529552385 
 21 
-10.1741223341826 
 31 
 0 
 62 
 1 
 0 
LINE
 8 
TemplateLayer
 6 
CONTINUOUS
 10 
-17.0454529552385 
 20 
-10.1741223341826 
 30 
 0 
 11 
-19.1252571375118 
 21 
-6.81818008422852 
 31 
 0 
 62 
 1 
 0 
LINE
 8 
TemplateLayer
 6 
CONTINUOUS
 10 
-14.6042897626963 
 20 
-6.81818008422852 
 30 
 0 
 11 
-15.9085672051602 
 21 
-3.40908908843994 
 31 
 0 
 62 
 3 
 0 
LINE
 8 
TemplateLayer
 6 
CONTINUOUS
 10 
-15.9085672051602 
 20 
-3.40908908843994 
 30 
 0 
 11 
-16.2136746989937 
 21 
 1.9073486328125E-06 
 31 
 0 
 62 
 3 
 0 
LINE
 8 
TemplateLayer
 6 
CONTINUOUS
 10 
-16.2136746989937 
 20 
 1.9073486328125E-06 
 30 
 0 
 11 
-15.945845628521 
 21 
 3.40909290313721 
 31 
 0 
 62 
 3 
 0 
LINE
 8 
TemplateLayer
 6 
CONTINUOUS
 10 
-15.945845628521 
 20 
 3.40909290313721 
 30 
 0 
 11 
-14.7253617703729 
 21 
 6.81818389892578 
 31 
 0 
 62 
 3 
 0 
LINE
 8 
TemplateLayer
 6 
CONTINUOUS
 10 
-14.7253617703729 
 20 
 6.81818389892578 
 30 
 0 
 11 
-13.6363619262587 
 21 
 8.31787815651688 
 31 
 0 
 62 
 3 
 0 
LINE
 8 
TemplateLayer
 6 
CONTINUOUS
 10 
-13.6363619262587 
 20 
 8.31787815651688 
 30 
 0 
 11 
-12.4277457191405 
 21 
 10.2272748947144 
 31 
 0 
 62 
 3 
 0 
LINE
 8 
TemplateLayer
 6 
CONTINUOUS
 10 
-12.4277457191405 
 20 
 10.2272748947144 
 30 
 0 
 11 
-10.2272709233648 
 21 
 12.2765143505903 
 31 
 0 
 62 
 3 
 0 
LINE
 8 
TemplateLayer
 6 
CONTINUOUS
 10 
-10.2272709233648 
 20 
 12.2765143505903 
 30 
 0 
 11 
-7.42535464129248 
 21 
 13.6363658905029 
 31 
 0 
 62 
 3 
 0 
LINE
 8 
TemplateLayer
 6 
CONTINUOUS
 10 
-7.42535464129248 
 20 
 13.6363658905029 
 30 
 0 
 11 
-6.81817992446349 
 21 
 14.0107019595496 
 31 
 0 
 62 
 3 
 0 
LINE
 8 
TemplateLayer
 6 
CONTINUOUS
 10 
-6.81817992446349 
 20 
 14.0107019595496 
 30 
 0 
 11 
-3.40908892594724 
 21 
 15.5303911292167 
 31 
 0 
 62 
 3 
 0 
LINE
 8 
TemplateLayer
 6 
CONTINUOUS
 10 
-3.40908892594724 
 20 
 15.5303911292167 
 30 
 0 
 11 
 2.07065129307488E-06 
 21 
 15.9816453541139 
 31 
 0 
 62 
 3 
 0 
LINE
 8 
TemplateLayer
 6 
CONTINUOUS
 10 
 2.07065129307488E-06 
 20 
 15.9816453541139 
 30 
 0 
 11 
 3.40909306572296 
 21 
 15.5822325315432 
 31 
 0 
 62 
 3 
 0 
LINE
 8 
TemplateLayer
 6 
CONTINUOUS
 10 
 3.40909306572296 
 20 
 15.5822325315432 
 30 
 0 
 11 
 6.81818405897804 
 21 
 14.1707340915197 
 31 
 0 
 62 
 3 
 0 
LINE
 8 
TemplateLayer
 6 
CONTINUOUS
 10 
 6.81818405897804 
 20 
 14.1707340915197 
 30 
 0 
 11 
 7.72302007315192 
 21 
 13.6363658905029 
 31 
 0 
 62 
 3 
 0 
LINE
 8 
TemplateLayer
 6 
CONTINUOUS
 10 
 7.72302007315192 
 20 
 13.6363658905029 
 30 
 0 
 11 
 10.2272750517719 
 21 
 12.5022693233366 
 31 
 0 
 62 
 3 
 0 
LINE
 8 
TemplateLayer
 6 
CONTINUOUS
 10 
 10.2272750517719 
 20 
 12.5022693233366 
 30 
 0 
 11 
 12.705603711394 
 21 
 10.2272748947144 
 31 
 0 
 62 
 3 
 0 
LINE
 8 
TemplateLayer
 6 
CONTINUOUS
 10 
 12.705603711394 
 20 
 10.2272748947144 
 30 
 0 
 11 
 13.6363660408614 
 21 
 8.76996462400147 
 31 
 0 
 62 
 3 
 0 
LINE
 8 
TemplateLayer
 6 
CONTINUOUS
 10 
 13.6363660408614 
 20 
 8.76996462400147 
 30 
 0 
 11 
 15.0816057202863 
 21 
 6.81818389892578 
 31 
 0 
 62 
 3 
 0 
LINE
 8 
TemplateLayer
 6 
CONTINUOUS
 10 
 15.0816057202863 
 20 
 6.81818389892578 
 30 
 0 
 11 
 16.2740191524761 
 21 
 3.40909290313721 
 31 
 0 
 62 
 3 
 0 
LINE
 8 
TemplateLayer
 6 
CONTINUOUS
 10 
 16.2740191524761 
 20 
 3.40909290313721 
 30 
 0 
 11 
 16.5792674755302 
 21 
 1.9073486328125E-06 
 31 
 0 
 62 
 3 
 0 
LINE
 8 
TemplateLayer
 6 
CONTINUOUS
 10 
 16.5792674755302 
 20 
 1.9073486328125E-06 
 30 
 0 
 11 
 16.2458590704309 
 21 
-3.40908908843994 
 31 
 0 
 62 
 3 
 0 
LINE
 8 
TemplateLayer
 6 
CONTINUOUS
 10 
 16.2458590704309 
 20 
-3.40908908843994 
 30 
 0 
 11 
 14.9783858846499 
 21 
-6.81818008422852 
 31 
 0 
 62 
 3 
 0 
LINE
 8 
TemplateLayer
 6 
CONTINUOUS
 10 
 14.9783858846499 
 20 
-6.81818008422852 
 30 
 0 
 11 
 13.6363660097492 
 21 
-8.56372843827907 
 31 
 0 
 62 
 3 
 0 
LINE
 8 
TemplateLayer
 6 
CONTINUOUS
 10 
 13.6363660097492 
 20 
-8.56372843827907 
 30 
 0 
 11 
 12.5436101402343 
 21 
-10.2272710800171 
 31 
 0 
 62 
 3 
 0 
LINE
 8 
TemplateLayer
 6 
CONTINUOUS
 10 
 12.5436101402343 
 20 
-10.2272710800171 
 30 
 0 
 11 
 10.2272750072576 
 21 
-12.2981820769077 
 31 
 0 
 62 
 3 
 0 
LINE
 8 
TemplateLayer
 6 
CONTINUOUS
 10 
 10.2272750072576 
 20 
-12.2981820769077 
 30 
 0 
 11 
 7.06604396558208 
 21 
-13.6363620758057 
 31 
 0 
 62 
 3 
 0 
LINE
 8 
TemplateLayer
 6 
CONTINUOUS
 10 
 7.06604396558208 
 20 
-13.6363620758057 
 30 
 0 
 11 
 6.81818400881002 
 21 
-13.7796307753028 
 31 
 0 
 62 
 3 
 0 
LINE
 8 
TemplateLayer
 6 
CONTINUOUS
 10 
 6.81818400881002 
 20 
-13.7796307753028 
 30 
 0 
 11 
 3.40909301037847 
 21 
-15.2521292287469 
 31 
 0 
 62 
 3 
 0 
LINE
 8 
TemplateLayer
 6 
CONTINUOUS
 10 
 3.40909301037847 
 20 
-15.2521292287469 
 30 
 0 
 11 
 2.01390920596956E-06 
 21 
-15.6313635056957 
 31 
 0 
 62 
 3 
 0 
LINE
 8 
TemplateLayer
 6 
CONTINUOUS
 10 
 2.01390920596956E-06 
 20 
-15.6313635056957 
 30 
 0 
 11 
-3.40908898103456 
 21 
-15.1606912307381 
 31 
 0 
 62 
 3 
 0 
LINE
 8 
TemplateLayer
 6 
CONTINUOUS
 10 
-3.40908898103456 
 20 
-15.1606912307381 
 30 
 0 
 11 
-6.68547457649145 
 21 
-13.6363620758057 
 31 
 0 
 62 
 3 
 0 
LINE
 8 
TemplateLayer
 6 
CONTINUOUS
 10 
-6.68547457649145 
 20 
-13.6363620758057 
 30 
 0 
 11 
-6.81817997402767 
 21 
-13.6032423516754 
 31 
 0 
 62 
 3 
 0 
LINE
 8 
TemplateLayer
 6 
CONTINUOUS
 10 
-6.81817997402767 
 20 
-13.6032423516754 
 30 
 0 
 11 
-10.2272709670499 
 21 
-12.062015409185 
 31 
 0 
 62 
 3 
 0 
LINE
 8 
TemplateLayer
 6 
CONTINUOUS
 10 
-10.2272709670499 
 20 
-12.062015409185 
 30 
 0 
 11 
-12.2444007735097 
 21 
-10.2272710800171 
 31 
 0 
 62 
 3 
 0 
LINE
 8 
TemplateLayer
 6 
CONTINUOUS
 10 
-12.2444007735097 
 20 
-10.2272710800171 
 30 
 0 
 11 
-13.6363619557441 
 21 
-8.10947884356376 
 31 
 0 
 62 
 3 
 0 
LINE
 8 
TemplateLayer
 6 
CONTINUOUS
 10 
-13.6363619557441 
 20 
-8.10947884356376 
 30 
 0 
 11 
-14.6042897626963 
 21 
-6.81818008422852 
 31 
 0 
 62 
 3 
 0 
LINE
 8 
TemplateLayer
 6 
CONTINUOUS
 10 
-11.639848448331 
 20 
-6.81818008422852 
 30 
 0 
 11 
-13.0037533118332 
 21 
-3.40908908843994 
 31 
 0 
 62 
 5 
 0 
LINE
 8 
TemplateLayer
 6 
CONTINUOUS
 10 
-13.0037533118332 
 20 
-3.40908908843994 
 30 
 0 
 11 
-13.3527715470785 
 21 
 1.9073486328125E-06 
 31 
 0 
 62 
 5 
 0 
LINE
 8 
TemplateLayer
 6 
CONTINUOUS
 10 
-13.3527715470785 
 20 
 1.9073486328125E-06 
 30 
 0 
 11 
-13.0422009837502 
 21 
 3.40909290313721 
 31 
 0 
 62 
 5 
 0 
LINE
 8 
TemplateLayer
 6 
CONTINUOUS
 10 
-13.0422009837502 
 20 
 3.40909290313721 
 30 
 0 
 11 
-11.7389602879665 
 21 
 6.81818389892578 
 31 
 0 
 62 
 5 
 0 
LINE
 8 
TemplateLayer
 6 
CONTINUOUS
 10 
-11.7389602879665 
 20 
 6.81818389892578 
 30 
 0 
 11 
-10.2272709298567 
 21 
 8.65959903587219 
 31 
 0 
 62 
 5 
 0 
LINE
 8 
TemplateLayer
 6 
CONTINUOUS
 10 
-10.2272709298567 
 20 
 8.65959903587219 
 30 
 0 
 11 
-8.6238925093098 
 21 
 10.2272748947144 
 31 
 0 
 62 
 5 
 0 
LINE
 8 
TemplateLayer
 6 
CONTINUOUS
 10 
-8.6238925093098 
 20 
 10.2272748947144 
 30 
 0 
 11 
-6.81817992882826 
 21 
 11.5789357794399 
 31 
 0 
 62 
 5 
 0 
LINE
 8 
TemplateLayer
 6 
CONTINUOUS
 10 
-6.81817992882826 
 20 
 11.5789357794399 
 30 
 0 
 11 
-3.40908893068728 
 21 
 12.8895456331916 
 31 
 0 
 62 
 5 
 0 
LINE
 8 
TemplateLayer
 6 
CONTINUOUS
 10 
-3.40908893068728 
 20 
 12.8895456331916 
 30 
 0 
 11 
 2.06585413702748E-06 
 21 
 13.3089812966195 
 31 
 0 
 62 
 5 
 0 
LINE
 8 
TemplateLayer
 6 
CONTINUOUS
 10 
 2.06585413702748E-06 
 20 
 13.3089812966195 
 30 
 0 
 11 
 3.40909306094894 
 21 
 12.922456667106 
 31 
 0 
 62 
 5 
 0 
LINE
 8 
TemplateLayer
 6 
CONTINUOUS
 10 
 3.40909306094894 
 20 
 12.922456667106 
 30 
 0 
 11 
 6.81818405455108 
 21 
 11.7043195507185 
 31 
 0 
 62 
 5 
 0 
LINE
 8 
TemplateLayer
 6 
CONTINUOUS
 10 
 6.81818405455108 
 20 
 11.7043195507185 
 30 
 0 
 11 
 8.85608643427494 
 21 
 10.2272748947144 
 31 
 0 
 62 
 5 
 0 
LINE
 8 
TemplateLayer
 6 
CONTINUOUS
 10 
 8.85608643427494 
 20 
 10.2272748947144 
 30 
 0 
 11 
 10.2272750454063 
 21 
 8.95577309774049 
 31 
 0 
 62 
 5 
 0 
LINE
 8 
TemplateLayer
 6 
CONTINUOUS
 10 
 10.2272750454063 
 20 
 8.95577309774049 
 30 
 0 
 11 
 11.9888565714352 
 21 
 6.81818389892578 
 31 
 0 
 62 
 5 
 0 
LINE
 8 
TemplateLayer
 6 
CONTINUOUS
 10 
 11.9888565714352 
 20 
 6.81818389892578 
 30 
 0 
 11 
 13.2390470992042 
 21 
 3.40909290313721 
 31 
 0 
 62 
 5 
 0 
LINE
 8 
TemplateLayer
 6 
CONTINUOUS
 10 
 13.2390470992042 
 20 
 3.40909290313721 
 30 
 0 
 11 
 13.54062308655 
 21 
 1.9073486328125E-06 
 31 
 0 
 62 
 5 
 0 
LINE
 8 
TemplateLayer
 6 
CONTINUOUS
 10 
 13.54062308655 
 20 
 1.9073486328125E-06 
 30 
 0 
 11 
 13.2017152312198 
 21 
-3.40908908843994 
 31 
 0 
 62 
 5 
 0 
LINE
 8 
TemplateLayer
 6 
CONTINUOUS
 10 
 13.2017152312198 
 20 
-3.40908908843994 
 30 
 0 
 11 
 11.9203291704662 
 21 
-6.81818008422852 
 31 
 0 
 62 
 5 
 0 
LINE
 8 
TemplateLayer
 6 
CONTINUOUS
 10 
 11.9203291704662 
 20 
-6.81818008422852 
 30 
 0 
 11 
 10.2272750134728 
 21 
-8.83549860592949 
 31 
 0 
 62 
 5 
 0 
LINE
 8 
TemplateLayer
 6 
CONTINUOUS
 10 
 10.2272750134728 
 20 
-8.83549860592949 
 30 
 0 
 11 
 8.72244459847236 
 21 
-10.2272710800171 
 31 
 0 
 62 
 5 
 0 
LINE
 8 
TemplateLayer
 6 
CONTINUOUS
 10 
 8.72244459847236 
 20 
-10.2272710800171 
 30 
 0 
 11 
 6.81818401272596 
 21 
-11.5979277859631 
 31 
 0 
 62 
 5 
 0 
LINE
 8 
TemplateLayer
 6 
CONTINUOUS
 10 
 6.81818401272596 
 20 
-11.5979277859631 
 30 
 0 
 11 
 3.40909301479657 
 21 
-12.7906480211466 
 31 
 0 
 62 
 5 
 0 
LINE
 8 
TemplateLayer
 6 
CONTINUOUS
 10 
 3.40909301479657 
 20 
-12.7906480211466 
 30 
 0 
 11 
 2.0184325184025E-06 
 21 
-13.1112673416375 
 31 
 0 
 62 
 5 
 0 
LINE
 8 
TemplateLayer
 6 
CONTINUOUS
 10 
 2.0184325184025E-06 
 20 
-13.1112673416375 
 30 
 0 
 11 
-3.40908897661024 
 21 
-12.6957493687394 
 31 
 0 
 62 
 5 
 0 
LINE
 8 
TemplateLayer
 6 
CONTINUOUS
 10 
-3.40908897661024 
 20 
-12.6957493687394 
 30 
 0 
 11 
-6.81817997001102 
 21 
-11.3654249850168 
 31 
 0 
 62 
 5 
 0 
LINE
 8 
TemplateLayer
 6 
CONTINUOUS
 10 
-6.81817997001102 
 20 
-11.3654249850168 
 30 
 0 
 11 
-8.38050083502059 
 21 
-10.2272710800171 
 31 
 0 
 62 
 5 
 0 
LINE
 8 
TemplateLayer
 6 
CONTINUOUS
 10 
-8.38050083502059 
 20 
-10.2272710800171 
 30 
 0 
 11 
-10.2272709606654 
 21 
-8.50496388609854 
 31 
 0 
 62 
 5 
 0 
LINE
 8 
TemplateLayer
 6 
CONTINUOUS
 10 
-10.2272709606654 
 20 
-8.50496388609854 
 30 
 0 
 11 
-11.639848448331 
 21 
-6.81818008422852 
 31 
 0 
 62 
 5 
 0 
LINE
 8 
TemplateLayer
 6 
CONTINUOUS
 10 
-10.8497677485295 
 20 
 1.9073486328125E-06 
 30 
 0 
 11 
-10.2272709403068 
 21 
 2.83748839899138 
 31 
 0 
 62 
 6 
 0 
LINE
 8 
TemplateLayer
 6 
CONTINUOUS
 10 
-10.2272709403068 
 20 
 2.83748839899138 
 30 
 0 
 11 
-10.1701200720962 
 21 
 3.40909290313721 
 31 
 0 
 62 
 6 
 0 
LINE
 8 
TemplateLayer
 6 
CONTINUOUS
 10 
-10.1701200720962 
 20 
 3.40909290313721 
 30 
 0 
 11 
-8.74596697986359 
 21 
 6.81818389892578 
 31 
 0 
 62 
 6 
 0 
LINE
 8 
TemplateLayer
 6 
CONTINUOUS
 10 
-8.74596697986359 
 20 
 6.81818389892578 
 30 
 0 
 11 
-6.81817993394209 
 21 
 8.72984199111681 
 31 
 0 
 62 
 6 
 0 
LINE
 8 
TemplateLayer
 6 
CONTINUOUS
 10 
-6.81817993394209 
 20 
 8.72984199111681 
 30 
 0 
 11 
-3.40908893569398 
 21 
 10.1001357856386 
 31 
 0 
 62 
 6 
 0 
LINE
 8 
TemplateLayer
 6 
CONTINUOUS
 10 
-3.40908893569398 
 20 
 10.1001357856386 
 30 
 0 
 11 
-2.5593456054224 
 21 
 10.2272748947144 
 31 
 0 
 62 
 6 
 0 
LINE
 8 
TemplateLayer
 6 
CONTINUOUS
 10 
-2.5593456054224 
 20 
 10.2272748947144 
 30 
 0 
 11 
 2.06152702709322E-06 
 21 
 10.8981964348584 
 31 
 0 
 62 
 6 
 0 
LINE
 8 
TemplateLayer
 6 
CONTINUOUS
 10 
 2.06152702709322E-06 
 20 
 10.8981964348584 
 30 
 0 
 11 
 2.70222350305642 
 21 
 10.2272748947144 
 31 
 0 
 62 
 6 
 0 
LINE
 8 
TemplateLayer
 6 
CONTINUOUS
 10 
 2.70222350305642 
 20 
 10.2272748947144 
 30 
 0 
 11 
 3.409093055925 
 21 
 10.1234417595241 
 31 
 0 
 62 
 6 
 0 
LINE
 8 
TemplateLayer
 6 
CONTINUOUS
 10 
 3.409093055925 
 20 
 10.1234417595241 
 30 
 0 
 11 
 6.81818404942038 
 21 
 8.8458268891213 
 31 
 0 
 62 
 6 
 0 
LINE
 8 
TemplateLayer
 6 
CONTINUOUS
 10 
 6.81818404942038 
 20 
 8.8458268891213 
 30 
 0 
 11 
 8.90432792401749 
 21 
 6.81818389892578 
 31 
 0 
 62 
 6 
 0 
LINE
 8 
TemplateLayer
 6 
CONTINUOUS
 10 
 8.90432792401749 
 20 
 6.81818389892578 
 30 
 0 
 11 
 10.2272750361741 
 21 
 3.81216524418194 
 31 
 0 
 62 
 6 
 0 
LINE
 8 
TemplateLayer
 6 
CONTINUOUS
 10 
 10.2272750361741 
 20 
 3.81216524418194 
 30 
 0 
 11 
 10.4547521720974 
 21 
 3.40909290313721 
 31 
 0 
 62 
 6 
 0 
LINE
 8 
TemplateLayer
 6 
CONTINUOUS
 10 
 10.4547521720974 
 20 
 3.40909290313721 
 30 
 0 
 11 
 11.2446296604029 
 21 
 1.9073486328125E-06 
 31 
 0 
 62 
 6 
 0 
LINE
 8 
TemplateLayer
 6 
CONTINUOUS
 10 
 11.2446296604029 
 20 
 1.9073486328125E-06 
 30 
 0 
 11 
 10.4101242885288 
 21 
-3.40908908843994 
 31 
 0 
 62 
 6 
 0 
LINE
 8 
TemplateLayer
 6 
CONTINUOUS
 10 
 10.4101242885288 
 20 
-3.40908908843994 
 30 
 0 
 11 
 10.2272750226316 
 21 
-3.73279961898521 
 31 
 0 
 62 
 6 
 0 
LINE
 8 
TemplateLayer
 6 
CONTINUOUS
 10 
 10.2272750226316 
 20 
-3.73279961898521 
 30 
 0 
 11 
 8.89659134746359 
 21 
-6.81818008422852 
 31 
 0 
 62 
 6 
 0 
LINE
 8 
TemplateLayer
 6 
CONTINUOUS
 10 
 8.89659134746359 
 20 
-6.81818008422852 
 30 
 0 
 11 
 6.81818401768262 
 21 
-8.83639669780651 
 31 
 0 
 62 
 6 
 0 
LINE
 8 
TemplateLayer
 6 
CONTINUOUS
 10 
 6.81818401768262 
 20 
-8.83639669780651 
 30 
 0 
 11 
 3.40909301962851 
 21 
-10.0986074989062 
 31 
 0 
 62 
 6 
 0 
LINE
 8 
TemplateLayer
 6 
CONTINUOUS
 10 
 3.40909301962851 
 20 
-10.0986074989062 
 30 
 0 
 11 
 2.27231375613801 
 21 
-10.2272710800171 
 31 
 0 
 62 
 6 
 0 
LINE
 8 
TemplateLayer
 6 
CONTINUOUS
 10 
 2.27231375613801 
 20 
-10.2272710800171 
 30 
 0 
 11 
 2.02281008799404E-06 
 21 
-10.6723696327748 
 31 
 0 
 62 
 6 
 0 
LINE
 8 
TemplateLayer
 6 
CONTINUOUS
 10 
 2.02281008799404E-06 
 20 
-10.6723696327748 
 30 
 0 
 11 
-1.77861131327517 
 21 
-10.2272710800171 
 31 
 0 
 62 
 6 
 0 
LINE
 8 
TemplateLayer
 6 
CONTINUOUS
 10 
-1.77861131327517 
 20 
-10.2272710800171 
 30 
 0 
 11 
-3.40908897176202 
 21 
-9.99463079875183 
 31 
 0 
 62 
 6 
 0 
LINE
 8 
TemplateLayer
 6 
CONTINUOUS
 10 
-3.40908897176202 
 20 
-9.99463079875183 
 30 
 0 
 11 
-6.81817996506277 
 21 
-8.60857694746782 
 31 
 0 
 62 
 6 
 0 
LINE
 8 
TemplateLayer
 6 
CONTINUOUS
 10 
-6.81817996506277 
 20 
-8.60857694746782 
 30 
 0 
 11 
-8.65548931453944 
 21 
-6.81818008422852 
 31 
 0 
 62 
 6 
 0 
LINE
 8 
TemplateLayer
 6 
CONTINUOUS
 10 
-8.65548931453944 
 20 
-6.81818008422852 
 30 
 0 
 11 
-10.1345065345872 
 21 
-3.40908908843994 
 31 
 0 
 62 
 6 
 0 
LINE
 8 
TemplateLayer
 6 
CONTINUOUS
 10 
-10.1345065345872 
 20 
-3.40908908843994 
 30 
 0 
 11 
-10.2272709500408 
 21 
-2.58566681858407 
 31 
 0 
 62 
 6 
 0 
LINE
 8 
TemplateLayer
 6 
CONTINUOUS
 10 
-10.2272709500408 
 20 
-2.58566681858407 
 30 
 0 
 11 
-10.8497677485295 
 21 
 1.9073486328125E-06 
 31 
 0 
 62 
 6 
 0 
LINE
 8 
TemplateLayer
 6 
CONTINUOUS
 10 
-7.78445617492426 
 20 
 1.9073486328125E-06 
 30 
 0 
 11 
-6.81817994382008 
 21 
 3.22646777425938 
 31 
 0 
 62 
 214 
 0 
LINE
 8 
TemplateLayer
 6 
CONTINUOUS
 10 
-6.81817994382008 
 20 
 3.22646777425938 
 30 
 0 
 11 
-6.74463999071998 
 21 
 3.40909290313721 
 31 
 0 
 62 
 214 
 0 
LINE
 8 
TemplateLayer
 6 
CONTINUOUS
 10 
-6.74463999071998 
 20 
 3.40909290313721 
 30 
 0 
 11 
-3.40908894268834 
 21 
 6.20333146210039 
 31 
 0 
 62 
 214 
 0 
LINE
 8 
TemplateLayer
 6 
CONTINUOUS
 10 
-3.40908894268834 
 20 
 6.20333146210039 
 30 
 0 
 11 
-0.640750846068009 
 21 
 6.81818389892578 
 31 
 0 
 62 
 214 
 0 
LINE
 8 
TemplateLayer
 6 
CONTINUOUS
 10 
-0.640750846068009 
 20 
 6.81818389892578 
 30 
 0 
 11 
 2.05450785154687E-06 
 21 
 6.98756730477974 
 31 
 0 
 62 
 214 
 0 
LINE
 8 
TemplateLayer
 6 
CONTINUOUS
 10 
 2.05450785154687E-06 
 20 
 6.98756730477974 
 30 
 0 
 11 
 0.588090307166333 
 21 
 6.81818389892578 
 31 
 0 
 62 
 214 
 0 
LINE
 8 
TemplateLayer
 6 
CONTINUOUS
 10 
 0.588090307166333 
 20 
 6.81818389892578 
 30 
 0 
 11 
 3.40909304881841 
 21 
 6.16411517476649 
 31 
 0 
 62 
 214 
 0 
LINE
 8 
TemplateLayer
 6 
CONTINUOUS
 10 
 3.40909304881841 
 20 
 6.16411517476649 
 30 
 0 
 11 
 6.81818403987516 
 21 
 3.52784928413526 
 31 
 0 
 62 
 214 
 0 
LINE
 8 
TemplateLayer
 6 
CONTINUOUS
 10 
 6.81818403987516 
 20 
 3.52784928413526 
 30 
 0 
 11 
 6.90204663219873 
 21 
 3.40909290313721 
 31 
 0 
 62 
 214 
 0 
LINE
 8 
TemplateLayer
 6 
CONTINUOUS
 10 
 6.90204663219873 
 20 
 3.40909290313721 
 30 
 0 
 11 
 7.96119466637389 
 21 
 1.9073486328125E-06 
 31 
 0 
 62 
 214 
 0 
LINE
 8 
TemplateLayer
 6 
CONTINUOUS
 10 
 7.96119466637389 
 20 
 1.9073486328125E-06 
 30 
 0 
 11 
 6.89494822510034 
 21 
-3.40908908843994 
 31 
 0 
 62 
 214 
 0 
LINE
 8 
TemplateLayer
 6 
CONTINUOUS
 10 
 6.89494822510034 
 20 
-3.40908908843994 
 30 
 0 
 11 
 6.8181840272264 
 21 
-3.51922233013545 
 31 
 0 
 62 
 214 
 0 
LINE
 8 
TemplateLayer
 6 
CONTINUOUS
 10 
 6.8181840272264 
 20 
-3.51922233013545 
 30 
 0 
 11 
 3.40909302667809 
 21 
-6.1710389012844 
 31 
 0 
 62 
 214 
 0 
LINE
 8 
TemplateLayer
 6 
CONTINUOUS
 10 
 3.40909302667809 
 20 
-6.1710389012844 
 30 
 0 
 11 
 0.061261131767162 
 21 
-6.81818008422852 
 31 
 0 
 62 
 214 
 0 
LINE
 8 
TemplateLayer
 6 
CONTINUOUS
 10 
 0.061261131767162 
 20 
-6.81818008422852 
 30 
 0 
 11 
 2.0297013636067E-06 
 21 
-6.83299804548207 
 31 
 0 
 62 
 214 
 0 
LINE
 8 
TemplateLayer
 6 
CONTINUOUS
 10 
 2.0297013636067E-06 
 20 
-6.83299804548207 
 30 
 0 
 11 
-5.75966779888604E-02 
 21 
-6.81818008422852 
 31 
 0 
 62 
 214 
 0 
LINE
 8 
TemplateLayer
 6 
CONTINUOUS
 10 
-5.75966779888604E-02 
 20 
-6.81818008422852 
 30 
 0 
 11 
-3.40908896477382 
 21 
-6.10126217193654 
 31 
 0 
 62 
 214 
 0 
LINE
 8 
TemplateLayer
 6 
CONTINUOUS
 10 
-3.40908896477382 
 20 
-6.10126217193654 
 30 
 0 
 11 
-6.61694300492832 
 21 
-3.40908908843994 
 31 
 0 
 62 
 214 
 0 
LINE
 8 
TemplateLayer
 6 
CONTINUOUS
 10 
-6.61694300492832 
 20 
-3.40908908843994 
 30 
 0 
 11 
-6.81817995490943 
 21 
-2.95179504691467 
 31 
 0 
 62 
 214 
 0 
LINE
 8 
TemplateLayer
 6 
CONTINUOUS
 10 
-6.81817995490943 
 20 
-2.95179504691467 
 30 
 0 
 11 
-7.78445617492426 
 21 
 1.9073486328125E-06 
 31 
 0 
 62 
 214 
 0 
LINE
 8 
TemplateLayer
 6 
CONTINUOUS
 10 
-1.9961513735055 
 20 
 1.9073486328125E-06 
 30 
 0 
 11 
 2.04464480459826E-06 
 21 
 1.4925175718806 
 31 
 0 
 62 
 30 
 0 
LINE
 8 
TemplateLayer
 6 
CONTINUOUS
 10 
 2.04464480459826E-06 
 20 
 1.4925175718806 
 30 
 0 
 11 
 2.26120785226628 
 21 
 1.9073486328125E-06 
 31 
 0 
 62 
 30 
 0 
LINE
 8 
TemplateLayer
 6 
CONTINUOUS
 10 
 2.26120785226628 
 20 
 1.9073486328125E-06 
 30 
 0 
 11 
 2.0395523516667E-06 
 21 
-1.34466674450211 
 31 
 0 
 62 
 30 
 0 
LINE
 8 
TemplateLayer
 6 
CONTINUOUS
 10 
 2.0395523516667E-06 
 20 
-1.34466674450211 
 30 
 0 
 11 
-1.9961513735055 
 21 
 1.9073486328125E-06 
 31 
 0 
 62 
 30 
 0 
TEXT
 8 
TemplateLayer
 10 
-21.3350374292268 
 20 
-11.2124562969914 
 30 
 0 
 40 
 1.33 
 50 
 0 
 62 
 7 
 1 
.1
 0 
TEXT
 8 
TemplateLayer
 10 
-19.1252571375118 
 20 
-7.80336530120284 
 30 
 0 
 40 
 1.33 
 50 
 0 
 62 
 1 
 1 
.2
 0 
TEXT
 8 
TemplateLayer
 10 
-14.6042897626963 
 20 
-7.80336530120284 
 30 
 0 
 40 
 1.33 
 50 
 0 
 62 
 3 
 1 
.5
 0 
TEXT
 8 
TemplateLayer
 10 
-13.0037533118332 
 20 
-4.39427430541427 
 30 
 0 
 40 
 1.33 
 50 
 0 
 62 
 5 
 1 
1
 0 
TEXT
 8 
TemplateLayer
 10 
-10.8497677485295 
 20 
-0.985183309625696 
 30 
 0 
 40 
 1.33 
 50 
 0 
 62 
 6 
 1 
2
 0 
TEXT
 8 
TemplateLayer
 10 
-7.78445617492426 
 20 
-0.985183309625696 
 30 
 0 
 40 
 1.33 
 50 
 0 
 62 
 214 
 1 
5
 0 
TEXT
 8 
TemplateLayer
 10 
-1.9961513735055 
 20 
-0.985183309625696 
 30 
 0 
 40 
 1.33 
 50 
 0 
 62 
 30 
 1 
10
 0 
LINE
 8 
TemplateLayer
 6 
CONTINUOUS
 10 
 0 
 20 
 0 
 30 
 0 
 11 
 2 
 21 
 0 
 31 
 0 
 62 
 0 
 0 
LINE
 8 
TemplateLayer
 6 
CONTINUOUS
 10 
 2 
 20 
 0 
 30 
 0 
 11 
 1 
 21 
 0.5 
 31 
 0 
 62 
 0 
 0 
LINE
 8 
TemplateLayer
 6 
CONTINUOUS
 10 
 1 
 20 
 0.5 
 30 
 0 
 11 
 1 
 21 
-0.5 
 31 
 0 
 62 
 0 
 0 
LINE
 8 
TemplateLayer
 6 
CONTINUOUS
 10 
 1 
 20 
-0.5 
 30 
 0 
 11 
 2 
 21 
 0 
 31 
 0 
 62 
 0 
 0 
LINE
 8 
TemplateLayer
 6 
CONTINUOUS
 10 
-0.100000001490116 
 20 
 0.100000001490116 
 30 
 0 
 11 
 0.100000001490116 
 21 
 0.100000001490116 
 31 
 0 
 62 
 0 
 0 
LINE
 8 
TemplateLayer
 6 
CONTINUOUS
 10 
 0.100000001490116 
 20 
 0.100000001490116 
 30 
 0 
 11 
 0.100000001490116 
 21 
-0.100000001490116 
 31 
 0 
 62 
 0 
 0 
LINE
 8 
TemplateLayer
 6 
CONTINUOUS
 10 
 0.100000001490116 
 20 
-0.100000001490116 
 30 
 0 
 11 
-0.100000001490116 
 21 
-0.100000001490116 
 31 
 0 
 62 
 0 
 0 
LINE
 8 
TemplateLayer
 6 
CONTINUOUS
 10 
-0.100000001490116 
 20 
-0.100000001490116 
 30 
 0 
 11 
-0.100000001490116 
 21 
 0.100000001490116 
 31 
 0 
 62 
 0 
 0 
LINE
 8 
TemplateLayer
 6 
CONTINUOUS
 10 
 0 
 20 
 0 
 30 
 0 
 11 
 0 
 21 
 0 
 31 
 0 
 62 
 0 
 0 
ENDBLK
 0 
ENDSEC
 0 
SECTION
 2 
ENTITIES
 0 
INSERT
 2 
Template
 6 
CONTINUOUS
 8 
TemplateLayer
 10 
 0 
 20 
 0 
 30 
 0 
 41 
 1 
 42 
 1 
 43 
 1 
 50 
 0 
 0 
ENDSEC
 0 
EOF
