# Blender v3.0.1 OBJ File: 'VMVLtype-3 raw white.blend'
# www.blender.org
mtllib light.mtl
o Cylinder
v -1.157573 4.317073 -21.023712
v -0.689674 17.846516 -4.753610
v 2.434436 4.317073 -20.629738
v 0.049087 17.846516 -4.672584
v 5.999636 4.313341 -18.633129
v 0.759458 17.846516 -4.432617
v 9.419488 4.565064 -17.048534
v 1.414140 17.846516 -4.042932
v 12.488951 4.140176 -14.820460
v 1.987973 17.846516 -3.518504
v 17.589735 3.568403 -12.165164
v 2.458906 17.846516 -2.879488
v 20.987005 2.941724 -9.911115
v 2.808840 17.846516 -2.150439
v 22.264557 2.251920 -4.045836
v 3.024329 17.846516 -1.359375
v 21.549639 3.163859 2.593356
v 3.097091 17.846516 -0.536695
v 19.689795 3.727359 5.791468
v 3.024329 17.846516 0.285984
v 17.148527 3.922607 7.623111
v 2.808840 17.846516 1.077048
v 15.191617 3.996535 10.898153
v 2.458906 17.846516 1.806097
v 12.424623 4.061504 13.437666
v 1.987973 17.846516 2.445113
v 9.176273 4.519131 17.946133
v 1.414139 17.846516 2.969541
v 6.215531 4.455364 19.916832
v 0.759458 17.846516 3.359226
v 2.153370 4.511308 20.170528
v 0.049087 17.846516 3.599192
v -1.771044 4.307220 18.667412
v -0.689674 17.846516 3.680219
v -5.606372 4.223537 17.639290
v -1.428435 17.846516 3.599192
v -8.315178 4.052967 16.620377
v -2.138806 17.846516 3.359226
v -10.554099 3.893607 15.968293
v -2.793488 17.846516 2.969541
v -13.593947 4.157224 14.094473
v -3.367321 17.846516 2.445114
v -16.466616 4.317073 10.870941
v -3.838253 17.846516 1.806098
v -20.879824 5.212055 7.527165
v -4.188189 17.846516 1.077048
v -22.376417 5.170650 2.619909
v -4.403677 17.846516 0.285984
v -21.665646 4.682024 -2.302218
v -4.476439 17.846516 -0.536696
v -18.923008 3.902936 -6.209464
v -4.403677 17.846516 -1.359375
v -17.826101 4.129233 -8.557493
v -4.188188 17.846516 -2.150440
v -15.012793 3.746297 -12.332473
v -3.838254 17.846516 -2.879487
v -14.176847 4.317073 -15.018371
v -3.367321 17.846516 -3.518504
v -11.386751 4.317073 -17.568249
v -2.793488 17.846516 -4.042932
v -8.203552 4.317073 -19.462975
v -2.138806 17.846516 -4.432617
v -3.404026 4.277880 -20.430019
v -1.428435 17.846516 -4.672584
vt 0.960810 0.418488
vt 0.792657 0.309362
vt 0.797004 0.300129
vt 0.981946 0.373594
vt 0.799467 0.290225
vt 0.985905 0.318875
vt 0.799949 0.280031
vt 0.993226 0.268466
vt 0.798434 0.269938
vt 0.991207 0.218153
vt 0.794979 0.260335
vt 0.998962 0.141166
vt 0.789717 0.251591
vt 0.998962 0.086828
vt 0.782850 0.244040
vt 0.945741 0.034660
vt 0.774642 0.237975
vt 0.870396 0.001039
vt 0.765409 0.233627
vt 0.823432 0.002726
vt 0.755506 0.231164
vt 0.786124 0.021121
vt 0.745312 0.230681
vt 0.737624 0.023490
vt 0.735220 0.232196
vt 0.691212 0.040077
vt 0.725617 0.235651
vt 0.620566 0.049865
vt 0.716873 0.240912
vt 0.578808 0.072345
vt 0.709324 0.247778
vt 0.547498 0.118686
vt 0.703259 0.255986
vt 0.535761 0.174532
vt 0.698912 0.265219
vt 0.519626 0.226315
vt 0.696450 0.275123
vt 0.511325 0.264747
vt 0.695967 0.285317
vt 0.502449 0.295309
vt 0.697482 0.295410
vt 0.500910 0.343038
vt 0.700937 0.305013
vt 0.514848 0.397341
vt 0.706199 0.313757
vt 0.519260 0.470555
vt 0.713066 0.321308
vt 0.560728 0.519279
vt 0.721274 0.327373
vt 0.617874 0.542063
vt 0.730507 0.331721
vt 0.678559 0.534454
vt 0.740411 0.334184
vt 0.711195 0.536355
vt 0.750605 0.334667
vt 0.771006 0.527056
vt 0.760696 0.333152
vt 0.805410 0.534161
vt 0.770299 0.329698
vt 0.852099 0.517364
vt 0.779043 0.324436
vt 0.894615 0.491781
vt 0.786592 0.317570
vt 0.938684 0.441249
vt 0.461044 0.125226
vt 0.482104 0.170153
vt 0.485970 0.224878
vt 0.493167 0.275263
vt 0.491125 0.325626
vt 0.498833 0.402698
vt 0.498833 0.457115
vt 0.445625 0.509283
vt 0.370087 0.542658
vt 0.323043 0.540820
vt 0.285737 0.522337
vt 0.237230 0.519878
vt 0.190836 0.503207
vt 0.120140 0.493241
vt 0.078430 0.470701
vt 0.047191 0.424302
vt 0.035580 0.368465
vt 0.019546 0.316669
vt 0.011336 0.278248
vt 0.002535 0.247693
vt 0.001039 0.199929
vt 0.015046 0.145631
vt 0.019450 0.072311
vt 0.061007 0.023663
vt 0.118266 0.001039
vt 0.179053 0.008850
vt 0.211658 0.006973
vt 0.271510 0.016422
vt 0.305842 0.009300
vt 0.352503 0.026174
vt 0.394974 0.051826
vt 0.438963 0.102435
vn 0.0701 0.7660 -0.6390
vn 0.3096 0.7453 -0.5905
vn 0.2516 0.7477 -0.6145
vn 0.4536 0.7478 -0.4849
vn 0.3918 0.7504 -0.5323
vn 0.4658 0.7780 -0.4217
vn 0.6209 0.7817 -0.0583
vn 0.6260 0.7787 -0.0413
vn 0.5976 0.7819 0.1776
vn 0.4904 0.7400 0.4603
vn 0.5814 0.7475 0.3212
vn 0.4771 0.7421 0.4708
vn 0.5709 0.7345 0.3668
vn 0.3296 0.7840 0.5261
vn 0.0729 0.7843 0.6161
vn -0.2262 0.7380 0.6358
vn -0.1726 0.7346 0.6562
vn -0.2683 0.7287 0.6300
vn -0.2668 0.7298 0.6295
vn -0.3343 0.7390 0.5849
vn -0.4846 0.7498 0.4505
vn -0.3535 0.7374 0.5755
vn -0.5551 0.8161 0.1609
vn -0.5883 0.7976 -0.1332
vn -0.5307 0.7271 -0.4356
vn -0.6396 0.7383 -0.2142
vn -0.5335 0.7246 -0.4363
vn -0.7092 0.6864 -0.1609
vn -0.4391 0.7592 -0.4805
vn -0.3300 0.7639 -0.5545
vn 0.0000 1.0000 -0.0000
vn -0.1337 0.7610 -0.6349
vn -0.1527 0.7602 -0.6315
vn -0.0262 -0.9996 0.0044
usemtl light
s off
f 1/1/1 2/2/1 4/3/1 3/4/1
f 3/4/2 4/3/2 6/5/2 5/6/2
f 5/6/3 6/5/3 8/7/3 7/8/3
f 7/8/4 8/7/4 10/9/4 9/10/4
f 9/10/5 10/9/5 12/11/5 11/12/5
f 11/12/6 12/11/6 14/13/6 13/14/6
f 13/14/7 14/13/7 16/15/7 15/16/7
f 15/16/8 16/15/8 18/17/8 17/18/8
f 17/18/9 18/17/9 20/19/9 19/20/9
f 19/20/10 20/19/10 22/21/10 21/22/10
f 21/22/11 22/21/11 24/23/11 23/24/11
f 23/24/12 24/23/12 26/25/12 25/26/12
f 25/26/13 26/25/13 28/27/13 27/28/13
f 27/28/14 28/27/14 30/29/14 29/30/14
f 29/30/15 30/29/15 32/31/15 31/32/15
f 31/32/16 32/31/16 34/33/16 33/34/16
f 33/34/17 34/33/17 36/35/17 35/36/17
f 35/36/18 36/35/18 38/37/18 37/38/18
f 37/38/19 38/37/19 40/39/19 39/40/19
f 39/40/20 40/39/20 42/41/20 41/42/20
f 41/42/21 42/41/21 44/43/21 43/44/21
f 43/44/22 44/43/22 46/45/22 45/46/22
f 45/46/23 46/45/23 48/47/23 47/48/23
f 47/48/24 48/47/24 50/49/24 49/50/24
f 49/50/25 50/49/25 52/51/25 51/52/25
f 51/52/26 52/51/26 54/53/26 53/54/26
f 53/54/27 54/53/27 56/55/27 55/56/27
f 55/56/28 56/55/28 58/57/28 57/58/28
f 57/58/29 58/57/29 60/59/29 59/60/29
f 59/60/30 60/59/30 62/61/30 61/62/30
f 4/3/31 2/2/31 64/63/31 62/61/31 60/59/31 58/57/31 56/55/31 54/53/31 52/51/31 50/49/31 48/47/31 46/45/31 44/43/31 42/41/31 40/39/31 38/37/31 36/35/31 34/33/31 32/31/31 30/29/31 28/27/31 26/25/31 24/23/31 22/21/31 20/19/31 18/17/31 16/15/31 14/13/31 12/11/31 10/9/31 8/7/31 6/5/31
f 61/62/32 62/61/32 64/63/32 63/64/32
f 63/64/33 64/63/33 2/2/33 1/1/33
f 1/65/34 3/66/34 5/67/34 7/68/34 9/69/34 11/70/34 13/71/34 15/72/34 17/73/34 19/74/34 21/75/34 23/76/34 25/77/34 27/78/34 29/79/34 31/80/34 33/81/34 35/82/34 37/83/34 39/84/34 41/85/34 43/86/34 45/87/34 47/88/34 49/89/34 51/90/34 53/91/34 55/92/34 57/93/34 59/94/34 61/95/34 63/96/34
