 0 
SECTION
 2 
HEADER
 9 
$LUNITS
 70 
 2 
 0 
ENDSEC
 0 
SECTION
 2 
TABLES
 0 
TABLE
 2 
LTYPE
 70 
 1 
 0 
LTYPE
 2 
CONTINUOUS
 70 
 0 
 3 
Solid line
 72 
 65 
 73 
 0 
 40 
 0 
 0 
ENDTAB
 0 
TABLE
 2 
LAYER
 70 
 0 
 0 
LAYER
 2 
TemplateLayer
 62 
 7 
 6 
CONTINUOUS
 70 
 0 
 0 
ENDTAB
 0 
ENDSEC
 0 
SECTION
 2 
BLOCKS
 0 
BLOCK
 8 
TemplateLayer
 2 
Template
 70 
 0 
 10 
 0 
 20 
 0 
 30 
 0 
 0 
LINE
 8 
TemplateLayer
 6 
CONTINUOUS
 10 
-3.4090889040753 
 20 
 27.7160169507041 
 30 
 0 
 11 
 2.09212676116621E-06 
 21 
 27.946382599061 
 31 
 0 
 62 
 7 
 0 
LINE
 8 
TemplateLayer
 6 
CONTINUOUS
 10 
 2.09212676116621E-06 
 20 
 27.946382599061 
 30 
 0 
 11 
 3.4090930874994 
 21 
 27.7146487574314 
 31 
 0 
 62 
 7 
 0 
LINE
 8 
TemplateLayer
 6 
CONTINUOUS
 10 
 3.4090930874994 
 20 
 27.7146487574314 
 30 
 0 
 11 
 5.45454623276735 
 21 
 27.2727298736572 
 31 
 0 
 62 
 7 
 0 
LINE
 8 
TemplateLayer
 6 
CONTINUOUS
 10 
 5.45454623276735 
 20 
 27.2727298736572 
 30 
 0 
 11 
 6.81818408214795 
 21 
 27.0795018357728 
 31 
 0 
 62 
 7 
 0 
LINE
 8 
TemplateLayer
 6 
CONTINUOUS
 10 
 6.81818408214795 
 20 
 27.0795018357728 
 30 
 0 
 11 
 10.227275076198 
 21 
 26.1109250076289 
 31 
 0 
 62 
 7 
 0 
LINE
 8 
TemplateLayer
 6 
CONTINUOUS
 10 
 10.227275076198 
 20 
 26.1109250076289 
 30 
 0 
 11 
 13.6363660686922 
 21 
 24.2754754540897 
 31 
 0 
 62 
 7 
 0 
LINE
 8 
TemplateLayer
 6 
CONTINUOUS
 10 
 13.6363660686922 
 20 
 24.2754754540897 
 30 
 0 
 11 
 14.2500025741934 
 21 
 23.8636388778687 
 31 
 0 
 62 
 7 
 0 
LINE
 8 
TemplateLayer
 6 
CONTINUOUS
 10 
 14.2500025741934 
 20 
 23.8636388778687 
 30 
 0 
 11 
 17.045457060737 
 21 
 22.189713716434 
 31 
 0 
 62 
 7 
 0 
LINE
 8 
TemplateLayer
 6 
CONTINUOUS
 10 
 17.045457060737 
 20 
 22.189713716434 
 30 
 0 
 11 
 19.0234278330811 
 21 
 20.4545478820801 
 31 
 0 
 62 
 7 
 0 
LINE
 8 
TemplateLayer
 6 
CONTINUOUS
 10 
 19.0234278330811 
 20 
 20.4545478820801 
 30 
 0 
 11 
 20.454548050364 
 21 
 18.756903494676 
 31 
 0 
 62 
 7 
 0 
LINE
 8 
TemplateLayer
 6 
CONTINUOUS
 10 
 20.454548050364 
 20 
 18.756903494676 
 30 
 0 
 11 
 21.6453290872023 
 21 
 17.0454568862915 
 31 
 0 
 62 
 7 
 0 
LINE
 8 
TemplateLayer
 6 
CONTINUOUS
 10 
 21.6453290872023 
 20 
 17.0454568862915 
 30 
 0 
 11 
 23.2804136102543 
 21 
 13.6363658905029 
 31 
 0 
 62 
 7 
 0 
LINE
 8 
TemplateLayer
 6 
CONTINUOUS
 10 
 23.2804136102543 
 20 
 13.6363658905029 
 30 
 0 
 11 
 23.8636390341834 
 21 
 12.0884542067479 
 31 
 0 
 62 
 7 
 0 
LINE
 8 
TemplateLayer
 6 
CONTINUOUS
 10 
 23.8636390341834 
 20 
 12.0884542067479 
 30 
 0 
 11 
 24.7465060492278 
 21 
 10.2272748947144 
 31 
 0 
 62 
 7 
 0 
LINE
 8 
TemplateLayer
 6 
CONTINUOUS
 10 
 24.7465060492278 
 20 
 10.2272748947144 
 30 
 0 
 11 
 25.7743794268913 
 21 
 6.81818389892578 
 31 
 0 
 62 
 7 
 0 
LINE
 8 
TemplateLayer
 6 
CONTINUOUS
 10 
 25.7743794268913 
 20 
 6.81818389892578 
 30 
 0 
 11 
 26.0574230916642 
 21 
 3.40909290313721 
 31 
 0 
 62 
 7 
 0 
LINE
 8 
TemplateLayer
 6 
CONTINUOUS
 10 
 26.0574230916642 
 20 
 3.40909290313721 
 30 
 0 
 11 
 25.8760817430939 
 21 
 1.9073486328125E-06 
 31 
 0 
 62 
 7 
 0 
LINE
 8 
TemplateLayer
 6 
CONTINUOUS
 10 
 25.8760817430939 
 20 
 1.9073486328125E-06 
 30 
 0 
 11 
 25.820218542958 
 21 
-3.40908908843994 
 31 
 0 
 62 
 7 
 0 
LINE
 8 
TemplateLayer
 6 
CONTINUOUS
 10 
 25.820218542958 
 20 
-3.40908908843994 
 30 
 0 
 11 
 25.3268327988961 
 21 
-6.81818008422852 
 31 
 0 
 62 
 7 
 0 
LINE
 8 
TemplateLayer
 6 
CONTINUOUS
 10 
 25.3268327988961 
 20 
-6.81818008422852 
 30 
 0 
 11 
 24.4883414943308 
 21 
-10.2272710800171 
 31 
 0 
 62 
 7 
 0 
LINE
 8 
TemplateLayer
 6 
CONTINUOUS
 10 
 24.4883414943308 
 20 
-10.2272710800171 
 30 
 0 
 11 
 23.8636389914181 
 21 
-11.7376277689069 
 31 
 0 
 62 
 7 
 0 
LINE
 8 
TemplateLayer
 6 
CONTINUOUS
 10 
 23.8636389914181 
 20 
-11.7376277689069 
 30 
 0 
 11 
 23.2501420526392 
 21 
-13.6363620758057 
 31 
 0 
 62 
 7 
 0 
LINE
 8 
TemplateLayer
 6 
CONTINUOUS
 10 
 23.2501420526392 
 20 
-13.6363620758057 
 30 
 0 
 11 
 21.3897854317574 
 21 
-17.0454530715942 
 31 
 0 
 62 
 7 
 0 
LINE
 8 
TemplateLayer
 6 
CONTINUOUS
 10 
 21.3897854317574 
 20 
-17.0454530715942 
 30 
 0 
 11 
 20.4545479838263 
 21 
-18.3136347513416 
 31 
 0 
 62 
 7 
 0 
LINE
 8 
TemplateLayer
 6 
CONTINUOUS
 10 
 20.4545479838263 
 20 
-18.3136347513416 
 30 
 0 
 11 
 18.6089364816709 
 21 
-20.4545440673828 
 31 
 0 
 62 
 7 
 0 
LINE
 8 
TemplateLayer
 6 
CONTINUOUS
 10 
 18.6089364816709 
 20 
-20.4545440673828 
 30 
 0 
 11 
 17.0454569816597 
 21 
-21.8670336778191 
 31 
 0 
 62 
 7 
 0 
LINE
 8 
TemplateLayer
 6 
CONTINUOUS
 10 
 17.0454569816597 
 20 
-21.8670336778191 
 30 
 0 
 11 
 13.9342478514627 
 21 
-23.8636350631714 
 31 
 0 
 62 
 7 
 0 
LINE
 8 
TemplateLayer
 6 
CONTINUOUS
 10 
 13.9342478514627 
 20 
-23.8636350631714 
 30 
 0 
 11 
 13.6363659819215 
 21 
-24.0675010259657 
 31 
 0 
 62 
 7 
 0 
LINE
 8 
TemplateLayer
 6 
CONTINUOUS
 10 
 13.6363659819215 
 20 
-24.0675010259657 
 30 
 0 
 11 
 10.2272749827854 
 21 
-25.9325427622449 
 31 
 0 
 62 
 7 
 0 
LINE
 8 
TemplateLayer
 6 
CONTINUOUS
 10 
 10.2272749827854 
 20 
-25.9325427622449 
 30 
 0 
 11 
 6.8181839852272 
 21 
-26.9184478959844 
 31 
 0 
 62 
 7 
 0 
LINE
 8 
TemplateLayer
 6 
CONTINUOUS
 10 
 6.8181839852272 
 20 
-26.9184478959844 
 30 
 0 
 11 
 4.37653712786279 
 21 
-27.27272605896 
 31 
 0 
 62 
 7 
 0 
LINE
 8 
TemplateLayer
 6 
CONTINUOUS
 10 
 4.37653712786279 
 20 
-27.27272605896 
 30 
 0 
 11 
 3.40909298840978 
 21 
-27.491658315825 
 31 
 0 
 62 
 7 
 0 
LINE
 8 
TemplateLayer
 6 
CONTINUOUS
 10 
 3.40909298840978 
 20 
-27.491658315825 
 30 
 0 
 11 
 1.99211695367518E-06 
 21 
-27.7725923544919 
 31 
 0 
 62 
 7 
 0 
LINE
 8 
TemplateLayer
 6 
CONTINUOUS
 10 
 1.99211695367518E-06 
 20 
-27.7725923544919 
 30 
 0 
 11 
-3.4090890030935 
 21 
-27.4505006328505 
 31 
 0 
 62 
 7 
 0 
LINE
 8 
TemplateLayer
 6 
CONTINUOUS
 10 
-3.4090890030935 
 20 
-27.4505006328505 
 30 
 0 
 11 
-4.15209576418677 
 21 
-27.27272605896 
 31 
 0 
 62 
 7 
 0 
LINE
 8 
TemplateLayer
 6 
CONTINUOUS
 10 
-4.15209576418677 
 20 
-27.27272605896 
 30 
 0 
 11 
-6.81817999782967 
 21 
-26.8641710582669 
 31 
 0 
 62 
 7 
 0 
LINE
 8 
TemplateLayer
 6 
CONTINUOUS
 10 
-6.81817999782967 
 20 
-26.8641710582669 
 30 
 0 
 11 
-10.2272709918741 
 21 
-25.8924599122062 
 31 
 0 
 62 
 7 
 0 
LINE
 8 
TemplateLayer
 6 
CONTINUOUS
 10 
-10.2272709918741 
 20 
-25.8924599122062 
 30 
 0 
 11 
-13.6363619844023 
 21 
-24.0760041337563 
 31 
 0 
 62 
 7 
 0 
LINE
 8 
TemplateLayer
 6 
CONTINUOUS
 10 
-13.6363619844023 
 20 
-24.0760041337563 
 30 
 0 
 11 
-13.9538745859541 
 21 
-23.8636350631714 
 31 
 0 
 62 
 7 
 0 
LINE
 8 
TemplateLayer
 6 
CONTINUOUS
 10 
-13.9538745859541 
 20 
-23.8636350631714 
 30 
 0 
 11 
-17.0454529763898 
 21 
-21.9582519408086 
 31 
 0 
 62 
 7 
 0 
LINE
 8 
TemplateLayer
 6 
CONTINUOUS
 10 
-17.0454529763898 
 20 
-21.9582519408086 
 30 
 0 
 11 
-18.7558561152335 
 21 
-20.4545440673828 
 31 
 0 
 62 
 7 
 0 
LINE
 8 
TemplateLayer
 6 
CONTINUOUS
 10 
-18.7558561152335 
 20 
-20.4545440673828 
 30 
 0 
 11 
-20.4545439660929 
 21 
-18.5678332019634 
 31 
 0 
 62 
 7 
 0 
LINE
 8 
TemplateLayer
 6 
CONTINUOUS
 10 
-20.4545439660929 
 20 
-18.5678332019634 
 30 
 0 
 11 
-21.610670321329 
 21 
-17.0454530715942 
 31 
 0 
 62 
 7 
 0 
LINE
 8 
TemplateLayer
 6 
CONTINUOUS
 10 
-21.610670321329 
 20 
-17.0454530715942 
 30 
 0 
 11 
-23.4629646941743 
 21 
-13.6363620758057 
 31 
 0 
 62 
 7 
 0 
LINE
 8 
TemplateLayer
 6 
CONTINUOUS
 10 
-23.4629646941743 
 20 
-13.6363620758057 
 30 
 0 
 11 
-23.863634950931 
 21 
-12.4669640249988 
 31 
 0 
 62 
 7 
 0 
LINE
 8 
TemplateLayer
 6 
CONTINUOUS
 10 
-23.863634950931 
 20 
-12.4669640249988 
 30 
 0 
 11 
-24.8291167128132 
 21 
-10.2272710800171 
 31 
 0 
 62 
 7 
 0 
LINE
 8 
TemplateLayer
 6 
CONTINUOUS
 10 
-24.8291167128132 
 20 
-10.2272710800171 
 30 
 0 
 11 
-25.6784952582035 
 21 
-6.81818008422852 
 31 
 0 
 62 
 7 
 0 
LINE
 8 
TemplateLayer
 6 
CONTINUOUS
 10 
-25.6784952582035 
 20 
-6.81818008422852 
 30 
 0 
 11 
-26.132184231019 
 21 
-3.40908908843994 
 31 
 0 
 62 
 7 
 0 
LINE
 8 
TemplateLayer
 6 
CONTINUOUS
 10 
-26.132184231019 
 20 
-3.40908908843994 
 30 
 0 
 11 
-26.1644702228059 
 21 
 1.9073486328125E-06 
 31 
 0 
 62 
 7 
 0 
LINE
 8 
TemplateLayer
 6 
CONTINUOUS
 10 
-26.1644702228059 
 20 
 1.9073486328125E-06 
 30 
 0 
 11 
-26.2077673456474 
 21 
 3.40909290313721 
 31 
 0 
 62 
 7 
 0 
LINE
 8 
TemplateLayer
 6 
CONTINUOUS
 10 
-26.2077673456474 
 20 
 3.40909290313721 
 30 
 0 
 11 
-25.8264449146869 
 21 
 6.81818389892578 
 31 
 0 
 62 
 7 
 0 
LINE
 8 
TemplateLayer
 6 
CONTINUOUS
 10 
-25.8264449146869 
 20 
 6.81818389892578 
 30 
 0 
 11 
-24.9008145153759 
 21 
 10.2272748947144 
 31 
 0 
 62 
 7 
 0 
LINE
 8 
TemplateLayer
 6 
CONTINUOUS
 10 
-24.9008145153759 
 20 
 10.2272748947144 
 30 
 0 
 11 
-23.8636349060955 
 21 
 12.5124890172469 
 31 
 0 
 62 
 7 
 0 
LINE
 8 
TemplateLayer
 6 
CONTINUOUS
 10 
-23.8636349060955 
 20 
 12.5124890172469 
 30 
 0 
 11 
-23.464131758457 
 21 
 13.6363658905029 
 31 
 0 
 62 
 7 
 0 
LINE
 8 
TemplateLayer
 6 
CONTINUOUS
 10 
-23.464131758457 
 20 
 13.6363658905029 
 30 
 0 
 11 
-21.9089657633833 
 21 
 17.0454568862915 
 31 
 0 
 62 
 7 
 0 
LINE
 8 
TemplateLayer
 6 
CONTINUOUS
 10 
-21.9089657633833 
 20 
 17.0454568862915 
 30 
 0 
 11 
-20.4545438984181 
 21 
 19.1361880472268 
 31 
 0 
 62 
 7 
 0 
LINE
 8 
TemplateLayer
 6 
CONTINUOUS
 10 
-20.4545438984181 
 20 
 19.1361880472268 
 30 
 0 
 11 
-19.3219933114438 
 21 
 20.4545478820801 
 31 
 0 
 62 
 7 
 0 
LINE
 8 
TemplateLayer
 6 
CONTINUOUS
 10 
-19.3219933114438 
 20 
 20.4545478820801 
 30 
 0 
 11 
-17.0454528968137 
 21 
 22.3763867867423 
 31 
 0 
 62 
 7 
 0 
LINE
 8 
TemplateLayer
 6 
CONTINUOUS
 10 
-17.0454528968137 
 20 
 22.3763867867423 
 30 
 0 
 11 
-14.3531444319948 
 21 
 23.8636388778687 
 31 
 0 
 62 
 7 
 0 
LINE
 8 
TemplateLayer
 6 
CONTINUOUS
 10 
-14.3531444319948 
 20 
 23.8636388778687 
 30 
 0 
 11 
-13.6363618975222 
 21 
 24.3279996024252 
 31 
 0 
 62 
 7 
 0 
LINE
 8 
TemplateLayer
 6 
CONTINUOUS
 10 
-13.6363618975222 
 20 
 24.3279996024252 
 30 
 0 
 11 
-10.2272708984149 
 21 
 26.1769503010351 
 31 
 0 
 62 
 7 
 0 
LINE
 8 
TemplateLayer
 6 
CONTINUOUS
 10 
-10.2272708984149 
 20 
 26.1769503010351 
 30 
 0 
 11 
-6.81817990099879 
 21 
 27.0837107777259 
 31 
 0 
 62 
 7 
 0 
LINE
 8 
TemplateLayer
 6 
CONTINUOUS
 10 
-6.81817990099879 
 20 
 27.0837107777259 
 30 
 0 
 11 
-5.4545420509321 
 21 
 27.2727298736572 
 31 
 0 
 62 
 7 
 0 
LINE
 8 
TemplateLayer
 6 
CONTINUOUS
 10 
-5.4545420509321 
 20 
 27.2727298736572 
 30 
 0 
 11 
-3.4090889040753 
 21 
 27.7160169507041 
 31 
 0 
 62 
 7 
 0 
LINE
 8 
TemplateLayer
 6 
CONTINUOUS
 10 
-20.9308717215107 
 20 
-6.81818008422852 
 30 
 0 
 11 
-21.7375350029949 
 21 
-3.40908908843994 
 31 
 0 
 62 
 1 
 0 
LINE
 8 
TemplateLayer
 6 
CONTINUOUS
 10 
-21.7375350029949 
 20 
-3.40908908843994 
 30 
 0 
 11 
-21.953554916025 
 21 
 1.9073486328125E-06 
 31 
 0 
 62 
 1 
 0 
LINE
 8 
TemplateLayer
 6 
CONTINUOUS
 10 
-21.953554916025 
 20 
 1.9073486328125E-06 
 30 
 0 
 11 
-21.8717701476926 
 21 
 3.40909290313721 
 31 
 0 
 62 
 1 
 0 
LINE
 8 
TemplateLayer
 6 
CONTINUOUS
 10 
-21.8717701476926 
 20 
 3.40909290313721 
 30 
 0 
 11 
-21.0905971052313 
 21 
 6.81818389892578 
 31 
 0 
 62 
 1 
 0 
LINE
 8 
TemplateLayer
 6 
CONTINUOUS
 10 
-21.0905971052313 
 20 
 6.81818389892578 
 30 
 0 
 11 
-20.4545439178007 
 21 
 8.33745232214793 
 31 
 0 
 62 
 1 
 0 
LINE
 8 
TemplateLayer
 6 
CONTINUOUS
 10 
-20.4545439178007 
 20 
 8.33745232214793 
 30 
 0 
 11 
-19.8788363664831 
 21 
 10.2272748947144 
 31 
 0 
 62 
 1 
 0 
LINE
 8 
TemplateLayer
 6 
CONTINUOUS
 10 
-19.8788363664831 
 20 
 10.2272748947144 
 30 
 0 
 11 
-18.162295888404 
 21 
 13.6363658905029 
 31 
 0 
 62 
 1 
 0 
LINE
 8 
TemplateLayer
 6 
CONTINUOUS
 10 
-18.162295888404 
 20 
 13.6363658905029 
 30 
 0 
 11 
-17.0454529096197 
 21 
 15.2417046858792 
 31 
 0 
 62 
 1 
 0 
LINE
 8 
TemplateLayer
 6 
CONTINUOUS
 10 
-17.0454529096197 
 20 
 15.2417046858792 
 30 
 0 
 11 
-15.6249982072123 
 21 
 17.0454568862915 
 31 
 0 
 62 
 1 
 0 
LINE
 8 
TemplateLayer
 6 
CONTINUOUS
 10 
-15.6249982072123 
 20 
 17.0454568862915 
 30 
 0 
 11 
-13.6363619074633 
 21 
 18.7894495816704 
 31 
 0 
 62 
 1 
 0 
LINE
 8 
TemplateLayer
 6 
CONTINUOUS
 10 
-13.6363619074633 
 20 
 18.7894495816704 
 30 
 0 
 11 
-10.6773888363283 
 21 
 20.4545478820801 
 31 
 0 
 62 
 1 
 0 
LINE
 8 
TemplateLayer
 6 
CONTINUOUS
 10 
-10.6773888363283 
 20 
 20.4545478820801 
 30 
 0 
 11 
-10.227270908205 
 21 
 20.7225304965732 
 31 
 0 
 62 
 1 
 0 
LINE
 8 
TemplateLayer
 6 
CONTINUOUS
 10 
-10.227270908205 
 20 
 20.7225304965732 
 30 
 0 
 11 
-6.81817991026837 
 21 
 21.9193043621697 
 31 
 0 
 62 
 1 
 0 
LINE
 8 
TemplateLayer
 6 
CONTINUOUS
 10 
-6.81817991026837 
 20 
 21.9193043621697 
 30 
 0 
 11 
-3.4090889131891 
 21 
 22.638397509732 
 31 
 0 
 62 
 1 
 0 
LINE
 8 
TemplateLayer
 6 
CONTINUOUS
 10 
-3.4090889131891 
 20 
 22.638397509732 
 30 
 0 
 11 
 2.08296404641956E-06 
 21 
 22.8415125263638 
 31 
 0 
 62 
 1 
 0 
LINE
 8 
TemplateLayer
 6 
CONTINUOUS
 10 
 2.08296404641956E-06 
 20 
 22.8415125263638 
 30 
 0 
 11 
 3.40909307830864 
 21 
 22.5941579943523 
 31 
 0 
 62 
 1 
 0 
LINE
 8 
TemplateLayer
 6 
CONTINUOUS
 10 
 3.40909307830864 
 20 
 22.5941579943523 
 30 
 0 
 11 
 6.81818407257193 
 21 
 21.7443667657304 
 31 
 0 
 62 
 1 
 0 
LINE
 8 
TemplateLayer
 6 
CONTINUOUS
 10 
 6.81818407257193 
 20 
 21.7443667657304 
 30 
 0 
 11 
 9.78857111578556 
 21 
 20.4545478820801 
 31 
 0 
 62 
 1 
 0 
LINE
 8 
TemplateLayer
 6 
CONTINUOUS
 10 
 9.78857111578556 
 20 
 20.4545478820801 
 30 
 0 
 11 
 10.2272750658064 
 21 
 20.3214017587052 
 31 
 0 
 62 
 1 
 0 
LINE
 8 
TemplateLayer
 6 
CONTINUOUS
 10 
 10.2272750658064 
 20 
 20.3214017587052 
 30 
 0 
 11 
 13.6363660580852 
 21 
 18.365974146058 
 31 
 0 
 62 
 1 
 0 
LINE
 8 
TemplateLayer
 6 
CONTINUOUS
 10 
 13.6363660580852 
 20 
 18.365974146058 
 30 
 0 
 11 
 15.1878716117477 
 21 
 17.0454568862915 
 31 
 0 
 62 
 1 
 0 
LINE
 8 
TemplateLayer
 6 
CONTINUOUS
 10 
 15.1878716117477 
 20 
 17.0454568862915 
 30 
 0 
 11 
 17.0454570475223 
 21 
 14.827341907933 
 31 
 0 
 62 
 1 
 0 
LINE
 8 
TemplateLayer
 6 
CONTINUOUS
 10 
 17.0454570475223 
 20 
 14.827341907933 
 30 
 0 
 11 
 17.8693930420647 
 21 
 13.6363658905029 
 31 
 0 
 62 
 1 
 0 
LINE
 8 
TemplateLayer
 6 
CONTINUOUS
 10 
 17.8693930420647 
 20 
 13.6363658905029 
 30 
 0 
 11 
 19.6969722088302 
 21 
 10.2272748947144 
 31 
 0 
 62 
 1 
 0 
LINE
 8 
TemplateLayer
 6 
CONTINUOUS
 10 
 19.6969722088302 
 20 
 10.2272748947144 
 30 
 0 
 11 
 20.4545480311784 
 21 
 8.0679003745016 
 31 
 0 
 62 
 1 
 0 
LINE
 8 
TemplateLayer
 6 
CONTINUOUS
 10 
 20.4545480311784 
 20 
 8.0679003745016 
 30 
 0 
 11 
 21.0312295568694 
 21 
 6.81818389892578 
 31 
 0 
 62 
 1 
 0 
LINE
 8 
TemplateLayer
 6 
CONTINUOUS
 10 
 21.0312295568694 
 20 
 6.81818389892578 
 30 
 0 
 11 
 21.7354200369527 
 21 
 3.40909290313721 
 31 
 0 
 62 
 1 
 0 
LINE
 8 
TemplateLayer
 6 
CONTINUOUS
 10 
 21.7354200369527 
 20 
 3.40909290313721 
 30 
 0 
 11 
 21.6161397670408 
 21 
 1.9073486328125E-06 
 31 
 0 
 62 
 1 
 0 
LINE
 8 
TemplateLayer
 6 
CONTINUOUS
 10 
 21.6161397670408 
 20 
 1.9073486328125E-06 
 30 
 0 
 11 
 21.3652927576102 
 21 
-3.40908908843994 
 31 
 0 
 62 
 1 
 0 
LINE
 8 
TemplateLayer
 6 
CONTINUOUS
 10 
 21.3652927576102 
 20 
-3.40908908843994 
 30 
 0 
 11 
 20.5249666096282 
 21 
-6.81818008422852 
 31 
 0 
 62 
 1 
 0 
LINE
 8 
TemplateLayer
 6 
CONTINUOUS
 10 
 20.5249666096282 
 20 
-6.81818008422852 
 30 
 0 
 11 
 20.4545480040931 
 21 
-7.02224523915574 
 31 
 0 
 62 
 1 
 0 
LINE
 8 
TemplateLayer
 6 
CONTINUOUS
 10 
 20.4545480040931 
 20 
-7.02224523915574 
 30 
 0 
 11 
 19.6953924070997 
 21 
-10.2272710800171 
 31 
 0 
 62 
 1 
 0 
LINE
 8 
TemplateLayer
 6 
CONTINUOUS
 10 
 19.6953924070997 
 20 
-10.2272710800171 
 30 
 0 
 11 
 17.7852073801515 
 21 
-13.6363620758057 
 31 
 0 
 62 
 1 
 0 
LINE
 8 
TemplateLayer
 6 
CONTINUOUS
 10 
 17.7852073801515 
 20 
-13.6363620758057 
 30 
 0 
 11 
 17.0454569946633 
 21 
-14.6222662615898 
 31 
 0 
 62 
 1 
 0 
LINE
 8 
TemplateLayer
 6 
CONTINUOUS
 10 
 17.0454569946633 
 20 
-14.6222662615898 
 30 
 0 
 11 
 14.9251686691678 
 21 
-17.0454530715942 
 31 
 0 
 62 
 1 
 0 
LINE
 8 
TemplateLayer
 6 
CONTINUOUS
 10 
 14.9251686691678 
 20 
-17.0454530715942 
 30 
 0 
 11 
 13.6363659924774 
 21 
-18.1864174771839 
 31 
 0 
 62 
 1 
 0 
LINE
 8 
TemplateLayer
 6 
CONTINUOUS
 10 
 13.6363659924774 
 20 
-18.1864174771839 
 30 
 0 
 11 
 10.2272749929204 
 21 
-20.2859470602488 
 31 
 0 
 62 
 1 
 0 
LINE
 8 
TemplateLayer
 6 
CONTINUOUS
 10 
 10.2272749929204 
 20 
-20.2859470602488 
 30 
 0 
 11 
 9.73789241303636 
 21 
-20.4545440673828 
 31 
 0 
 62 
 1 
 0 
LINE
 8 
TemplateLayer
 6 
CONTINUOUS
 10 
 9.73789241303636 
 20 
-20.4545440673828 
 30 
 0 
 11 
 6.81818399442268 
 21 
-21.795326067109 
 31 
 0 
 62 
 1 
 0 
LINE
 8 
TemplateLayer
 6 
CONTINUOUS
 10 
 6.81818399442268 
 20 
-21.795326067109 
 30 
 0 
 11 
 3.4090929971473 
 21 
-22.6236773101003 
 31 
 0 
 62 
 1 
 0 
LINE
 8 
TemplateLayer
 6 
CONTINUOUS
 10 
 3.4090929971473 
 20 
-22.6236773101003 
 30 
 0 
 11 
 2.00091183564372E-06 
 21 
-22.8726548320132 
 31 
 0 
 62 
 1 
 0 
LINE
 8 
TemplateLayer
 6 
CONTINUOUS
 10 
 2.00091183564372E-06 
 20 
-22.8726548320132 
 30 
 0 
 11 
-3.40908899440348 
 21 
-22.6089882385022 
 31 
 0 
 62 
 1 
 0 
LINE
 8 
TemplateLayer
 6 
CONTINUOUS
 10 
-3.40908899440348 
 20 
-22.6089882385022 
 30 
 0 
 11 
-6.8181799886827 
 21 
-21.7680689282033 
 31 
 0 
 62 
 1 
 0 
LINE
 8 
TemplateLayer
 6 
CONTINUOUS
 10 
-6.8181799886827 
 20 
-21.7680689282033 
 30 
 0 
 11 
-9.75968953110648 
 21 
-20.4545440673828 
 31 
 0 
 62 
 1 
 0 
LINE
 8 
TemplateLayer
 6 
CONTINUOUS
 10 
-9.75968953110648 
 20 
-20.4545440673828 
 30 
 0 
 11 
-10.2272709818382 
 21 
-20.3011069871694 
 31 
 0 
 62 
 1 
 0 
LINE
 8 
TemplateLayer
 6 
CONTINUOUS
 10 
-10.2272709818382 
 20 
-20.3011069871694 
 30 
 0 
 11 
-13.6363619740569 
 21 
-18.3121946371815 
 31 
 0 
 62 
 1 
 0 
LINE
 8 
TemplateLayer
 6 
CONTINUOUS
 10 
-13.6363619740569 
 20 
-18.3121946371815 
 30 
 0 
 11 
-15.1084689749288 
 21 
-17.0454530715942 
 31 
 0 
 62 
 1 
 0 
LINE
 8 
TemplateLayer
 6 
CONTINUOUS
 10 
-15.1084689749288 
 20 
-17.0454530715942 
 30 
 0 
 11 
-17.0454529637791 
 21 
-14.9323800154123 
 31 
 0 
 62 
 1 
 0 
LINE
 8 
TemplateLayer
 6 
CONTINUOUS
 10 
-17.0454529637791 
 20 
-14.9323800154123 
 30 
 0 
 11 
-18.0417565627174 
 21 
-13.6363620758057 
 31 
 0 
 62 
 1 
 0 
LINE
 8 
TemplateLayer
 6 
CONTINUOUS
 10 
-18.0417565627174 
 20 
-13.6363620758057 
 30 
 0 
 11 
-19.9093094624195 
 21 
-10.2272710800171 
 31 
 0 
 62 
 1 
 0 
LINE
 8 
TemplateLayer
 6 
CONTINUOUS
 10 
-19.9093094624195 
 20 
-10.2272710800171 
 30 
 0 
 11 
-20.4545439473245 
 21 
-8.11128301626626 
 31 
 0 
 62 
 1 
 0 
LINE
 8 
TemplateLayer
 6 
CONTINUOUS
 10 
-20.4545439473245 
 20 
-8.11128301626626 
 30 
 0 
 11 
-20.9308717215107 
 21 
-6.81818008422852 
 31 
 0 
 62 
 1 
 0 
LINE
 8 
TemplateLayer
 6 
CONTINUOUS
 10 
-3.40908892280415 
 20 
 17.2815130097923 
 30 
 0 
 11 
 2.07329968384545E-06 
 21 
 17.4571568342435 
 31 
 0 
 62 
 3 
 0 
LINE
 8 
TemplateLayer
 6 
CONTINUOUS
 10 
 2.07329968384545E-06 
 20 
 17.4571568342435 
 30 
 0 
 11 
 3.4090930684037 
 21 
 17.075766199306 
 31 
 0 
 62 
 3 
 0 
LINE
 8 
TemplateLayer
 6 
CONTINUOUS
 10 
 3.4090930684037 
 20 
 17.075766199306 
 30 
 0 
 11 
 3.49204858481094 
 21 
 17.0454568862915 
 31 
 0 
 62 
 3 
 0 
LINE
 8 
TemplateLayer
 6 
CONTINUOUS
 10 
 3.49204858481094 
 20 
 17.0454568862915 
 30 
 0 
 11 
 6.81818406257992 
 21 
 16.1774634318208 
 31 
 0 
 62 
 3 
 0 
LINE
 8 
TemplateLayer
 6 
CONTINUOUS
 10 
 6.81818406257992 
 20 
 16.1774634318208 
 30 
 0 
 11 
 10.2272750543944 
 21 
 13.9633808437861 
 31 
 0 
 62 
 3 
 0 
LINE
 8 
TemplateLayer
 6 
CONTINUOUS
 10 
 10.2272750543944 
 20 
 13.9633808437861 
 30 
 0 
 11 
 10.6006882877444 
 21 
 13.6363658905029 
 31 
 0 
 62 
 3 
 0 
LINE
 8 
TemplateLayer
 6 
CONTINUOUS
 10 
 10.6006882877444 
 20 
 13.6363658905029 
 30 
 0 
 11 
 13.6192188060202 
 21 
 10.2272748947144 
 31 
 0 
 62 
 3 
 0 
LINE
 8 
TemplateLayer
 6 
CONTINUOUS
 10 
 13.6192188060202 
 20 
 10.2272748947144 
 30 
 0 
 11 
 13.6363660434354 
 21 
 10.2040641003009 
 31 
 0 
 62 
 3 
 0 
LINE
 8 
TemplateLayer
 6 
CONTINUOUS
 10 
 13.6363660434354 
 20 
 10.2040641003009 
 30 
 0 
 11 
 15.9000412921516 
 21 
 6.81818389892578 
 31 
 0 
 62 
 3 
 0 
LINE
 8 
TemplateLayer
 6 
CONTINUOUS
 10 
 15.9000412921516 
 20 
 6.81818389892578 
 30 
 0 
 11 
 16.7040273193479 
 21 
 3.40909290313721 
 31 
 0 
 62 
 3 
 0 
LINE
 8 
TemplateLayer
 6 
CONTINUOUS
 10 
 16.7040273193479 
 20 
 3.40909290313721 
 30 
 0 
 11 
 16.7367168464362 
 21 
 1.9073486328125E-06 
 31 
 0 
 62 
 3 
 0 
LINE
 8 
TemplateLayer
 6 
CONTINUOUS
 10 
 16.7367168464362 
 20 
 1.9073486328125E-06 
 30 
 0 
 11 
 16.4156322889771 
 21 
-3.40908908843994 
 31 
 0 
 62 
 3 
 0 
LINE
 8 
TemplateLayer
 6 
CONTINUOUS
 10 
 16.4156322889771 
 20 
-3.40908908843994 
 30 
 0 
 11 
 15.6975594995178 
 21 
-6.81818008422852 
 31 
 0 
 62 
 3 
 0 
LINE
 8 
TemplateLayer
 6 
CONTINUOUS
 10 
 15.6975594995178 
 20 
-6.81818008422852 
 30 
 0 
 11 
 13.6363660067872 
 21 
-10.2139735716582 
 31 
 0 
 62 
 3 
 0 
LINE
 8 
TemplateLayer
 6 
CONTINUOUS
 10 
 13.6363660067872 
 20 
-10.2139735716582 
 30 
 0 
 11 
 13.6282706698767 
 21 
-10.2272710800171 
 31 
 0 
 62 
 3 
 0 
LINE
 8 
TemplateLayer
 6 
CONTINUOUS
 10 
 13.6282706698767 
 20 
-10.2272710800171 
 30 
 0 
 11 
 10.4332329921289 
 21 
-13.6363620758057 
 31 
 0 
 62 
 3 
 0 
LINE
 8 
TemplateLayer
 6 
CONTINUOUS
 10 
 10.4332329921289 
 20 
-13.6363620758057 
 30 
 0 
 11 
 10.2272750045298 
 21 
-13.8179729339837 
 31 
 0 
 62 
 3 
 0 
LINE
 8 
TemplateLayer
 6 
CONTINUOUS
 10 
 10.2272750045298 
 20 
-13.8179729339837 
 30 
 0 
 11 
 6.81818400471723 
 21 
-16.0598714232145 
 31 
 0 
 62 
 3 
 0 
LINE
 8 
TemplateLayer
 6 
CONTINUOUS
 10 
 6.81818400471723 
 20 
-16.0598714232145 
 30 
 0 
 11 
 3.4090930073325 
 21 
-16.9491423890685 
 31 
 0 
 62 
 3 
 0 
LINE
 8 
TemplateLayer
 6 
CONTINUOUS
 10 
 3.4090930073325 
 20 
-16.9491423890685 
 30 
 0 
 11 
 2.12302822927129 
 21 
-17.0454530715942 
 31 
 0 
 62 
 3 
 0 
LINE
 8 
TemplateLayer
 6 
CONTINUOUS
 10 
 2.12302822927129 
 20 
-17.0454530715942 
 30 
 0 
 11 
 2.01083919961625E-06 
 21 
-17.3417718302923 
 31 
 0 
 62 
 3 
 0 
LINE
 8 
TemplateLayer
 6 
CONTINUOUS
 10 
 2.01083919961625E-06 
 20 
-17.3417718302923 
 30 
 0 
 11 
-2.30224177258979 
 21 
-17.0454530715942 
 31 
 0 
 62 
 3 
 0 
LINE
 8 
TemplateLayer
 6 
CONTINUOUS
 10 
-2.30224177258979 
 20 
-17.0454530715942 
 30 
 0 
 11 
-3.40908898428374 
 21 
-16.9709211955457 
 31 
 0 
 62 
 3 
 0 
LINE
 8 
TemplateLayer
 6 
CONTINUOUS
 10 
-3.40908898428374 
 20 
-16.9709211955457 
 30 
 0 
 11 
-6.81817997854724 
 21 
-16.1212520447458 
 31 
 0 
 62 
 3 
 0 
LINE
 8 
TemplateLayer
 6 
CONTINUOUS
 10 
-6.81817997854724 
 20 
-16.1212520447458 
 30 
 0 
 11 
-10.2272709705207 
 21 
-13.9957393040622 
 31 
 0 
 62 
 3 
 0 
LINE
 8 
TemplateLayer
 6 
CONTINUOUS
 10 
-10.2272709705207 
 20 
-13.9957393040622 
 30 
 0 
 11 
-10.6466125619074 
 21 
-13.6363620758057 
 31 
 0 
 62 
 3 
 0 
LINE
 8 
TemplateLayer
 6 
CONTINUOUS
 10 
-10.6466125619074 
 20 
-13.6363620758057 
 30 
 0 
 11 
-13.6363619601407 
 21 
-10.5589882265025 
 31 
 0 
 62 
 3 
 0 
LINE
 8 
TemplateLayer
 6 
CONTINUOUS
 10 
-13.6363619601407 
 20 
-10.5589882265025 
 30 
 0 
 11 
-13.9025470399405 
 21 
-10.2272710800171 
 31 
 0 
 62 
 3 
 0 
LINE
 8 
TemplateLayer
 6 
CONTINUOUS
 10 
-13.9025470399405 
 20 
-10.2272710800171 
 30 
 0 
 11 
-15.9253091331205 
 21 
-6.81818008422852 
 31 
 0 
 62 
 3 
 0 
LINE
 8 
TemplateLayer
 6 
CONTINUOUS
 10 
-15.9253091331205 
 20 
-6.81818008422852 
 30 
 0 
 11 
-16.6549912110831 
 21 
-3.40908908843994 
 31 
 0 
 62 
 3 
 0 
LINE
 8 
TemplateLayer
 6 
CONTINUOUS
 10 
-16.6549912110831 
 20 
-3.40908908843994 
 30 
 0 
 11 
-16.9463776883938 
 21 
 1.9073486328125E-06 
 31 
 0 
 62 
 3 
 0 
LINE
 8 
TemplateLayer
 6 
CONTINUOUS
 10 
-16.9463776883938 
 20 
 1.9073486328125E-06 
 30 
 0 
 11 
-16.8065623996371 
 21 
 3.40909290313721 
 31 
 0 
 62 
 3 
 0 
LINE
 8 
TemplateLayer
 6 
CONTINUOUS
 10 
-16.8065623996371 
 20 
 3.40909290313721 
 30 
 0 
 11 
-16.0091505290215 
 21 
 6.81818389892578 
 31 
 0 
 62 
 3 
 0 
LINE
 8 
TemplateLayer
 6 
CONTINUOUS
 10 
-16.0091505290215 
 20 
 6.81818389892578 
 30 
 0 
 11 
-13.9283912845943 
 21 
 10.2272748947144 
 31 
 0 
 62 
 3 
 0 
LINE
 8 
TemplateLayer
 6 
CONTINUOUS
 10 
-13.9283912845943 
 20 
 10.2272748947144 
 30 
 0 
 11 
-13.6363619221256 
 21 
 10.6205506952211 
 31 
 0 
 62 
 3 
 0 
LINE
 8 
TemplateLayer
 6 
CONTINUOUS
 10 
-13.6363619221256 
 20 
 10.6205506952211 
 30 
 0 
 11 
-10.9309735185763 
 21 
 13.6363658905029 
 31 
 0 
 62 
 3 
 0 
LINE
 8 
TemplateLayer
 6 
CONTINUOUS
 10 
-10.9309735185763 
 20 
 13.6363658905029 
 30 
 0 
 11 
-10.227270919777 
 21 
 14.2753561501619 
 31 
 0 
 62 
 3 
 0 
LINE
 8 
TemplateLayer
 6 
CONTINUOUS
 10 
-10.227270919777 
 20 
 14.2753561501619 
 30 
 0 
 11 
-6.81817992029323 
 21 
 16.3341029968542 
 31 
 0 
 62 
 3 
 0 
LINE
 8 
TemplateLayer
 6 
CONTINUOUS
 10 
-6.81817992029323 
 20 
 16.3341029968542 
 30 
 0 
 11 
-4.09409300570976 
 21 
 17.0454568862915 
 31 
 0 
 62 
 3 
 0 
LINE
 8 
TemplateLayer
 6 
CONTINUOUS
 10 
-4.09409300570976 
 20 
 17.0454568862915 
 30 
 0 
 11 
-3.40908892280415 
 21 
 17.2815130097923 
 31 
 0 
 62 
 3 
 0 
LINE
 8 
TemplateLayer
 6 
CONTINUOUS
 10 
-13.7296472645934 
 20 
 1.9073486328125E-06 
 30 
 0 
 11 
-13.6363619400494 
 21 
 0.634557735287444 
 31 
 0 
 62 
 5 
 0 
LINE
 8 
TemplateLayer
 6 
CONTINUOUS
 10 
-13.6363619400494 
 20 
 0.634557735287444 
 30 
 0 
 11 
-13.4310848286733 
 21 
 3.40909290313721 
 31 
 0 
 62 
 5 
 0 
LINE
 8 
TemplateLayer
 6 
CONTINUOUS
 10 
-13.4310848286733 
 20 
 3.40909290313721 
 30 
 0 
 11 
-12.4014186066144 
 21 
 6.81818389892578 
 31 
 0 
 62 
 5 
 0 
LINE
 8 
TemplateLayer
 6 
CONTINUOUS
 10 
-12.4014186066144 
 20 
 6.81818389892578 
 30 
 0 
 11 
-10.2272709285425 
 21 
 9.39183870891193 
 31 
 0 
 62 
 5 
 0 
LINE
 8 
TemplateLayer
 6 
CONTINUOUS
 10 
-10.2272709285425 
 20 
 9.39183870891193 
 30 
 0 
 11 
-9.25565635928722 
 21 
 10.2272748947144 
 31 
 0 
 62 
 5 
 0 
LINE
 8 
TemplateLayer
 6 
CONTINUOUS
 10 
-9.25565635928722 
 20 
 10.2272748947144 
 30 
 0 
 11 
-6.81817992758257 
 21 
 12.2729560630059 
 31 
 0 
 62 
 5 
 0 
LINE
 8 
TemplateLayer
 6 
CONTINUOUS
 10 
-6.81817992758257 
 20 
 12.2729560630059 
 30 
 0 
 11 
-3.40908892955914 
 21 
 13.5180742924312 
 31 
 0 
 62 
 5 
 0 
LINE
 8 
TemplateLayer
 6 
CONTINUOUS
 10 
-3.40908892955914 
 20 
 13.5180742924312 
 30 
 0 
 11 
-1.97746300668009 
 21 
 13.6363658905029 
 31 
 0 
 62 
 5 
 0 
LINE
 8 
TemplateLayer
 6 
CONTINUOUS
 10 
-1.97746300668009 
 20 
 13.6363658905029 
 30 
 0 
 11 
 2.06693630583343E-06 
 21 
 13.9118955320868 
 31 
 0 
 62 
 5 
 0 
LINE
 8 
TemplateLayer
 6 
CONTINUOUS
 10 
 2.06693630583343E-06 
 20 
 13.9118955320868 
 30 
 0 
 11 
 1.41503294161827 
 21 
 13.6363658905029 
 31 
 0 
 62 
 5 
 0 
LINE
 8 
TemplateLayer
 6 
CONTINUOUS
 10 
 1.41503294161827 
 20 
 13.6363658905029 
 30 
 0 
 11 
 3.40909306181245 
 21 
 13.4035460189654 
 31 
 0 
 62 
 5 
 0 
LINE
 8 
TemplateLayer
 6 
CONTINUOUS
 10 
 3.40909306181245 
 20 
 13.4035460189654 
 30 
 0 
 11 
 6.81818405527786 
 21 
 12.1092328916389 
 31 
 0 
 62 
 5 
 0 
LINE
 8 
TemplateLayer
 6 
CONTINUOUS
 10 
 6.81818405527786 
 20 
 12.1092328916389 
 30 
 0 
 11 
 8.96579450473408 
 21 
 10.2272748947144 
 31 
 0 
 62 
 5 
 0 
LINE
 8 
TemplateLayer
 6 
CONTINUOUS
 10 
 8.96579450473408 
 20 
 10.2272748947144 
 30 
 0 
 11 
 10.2272750457851 
 21 
 9.16681004388981 
 31 
 0 
 62 
 5 
 0 
LINE
 8 
TemplateLayer
 6 
CONTINUOUS
 10 
 10.2272750457851 
 20 
 9.16681004388981 
 30 
 0 
 11 
 12.2858998669798 
 21 
 6.81818389892578 
 31 
 0 
 62 
 5 
 0 
LINE
 8 
TemplateLayer
 6 
CONTINUOUS
 10 
 12.2858998669798 
 20 
 6.81818389892578 
 30 
 0 
 11 
 13.342779373219 
 21 
 3.40909290313721 
 31 
 0 
 62 
 5 
 0 
LINE
 8 
TemplateLayer
 6 
CONTINUOUS
 10 
 13.342779373219 
 20 
 3.40909290313721 
 30 
 0 
 11 
 13.4998692965947 
 21 
 1.9073486328125E-06 
 31 
 0 
 62 
 5 
 0 
LINE
 8 
TemplateLayer
 6 
CONTINUOUS
 10 
 13.4998692965947 
 20 
 1.9073486328125E-06 
 30 
 0 
 11 
 13.0467745558684 
 21 
-3.40908908843994 
 31 
 0 
 62 
 5 
 0 
LINE
 8 
TemplateLayer
 6 
CONTINUOUS
 10 
 13.0467745558684 
 20 
-3.40908908843994 
 30 
 0 
 11 
 12.1045803436633 
 21 
-6.81818008422852 
 31 
 0 
 62 
 5 
 0 
LINE
 8 
TemplateLayer
 6 
CONTINUOUS
 10 
 12.1045803436633 
 20 
-6.81818008422852 
 30 
 0 
 11 
 10.2272750128803 
 21 
-9.16561423500325 
 31 
 0 
 62 
 5 
 0 
LINE
 8 
TemplateLayer
 6 
CONTINUOUS
 10 
 10.2272750128803 
 20 
-9.16561423500325 
 30 
 0 
 11 
 9.10820817487167 
 21 
-10.2272710800171 
 31 
 0 
 62 
 5 
 0 
LINE
 8 
TemplateLayer
 6 
CONTINUOUS
 10 
 9.10820817487167 
 20 
-10.2272710800171 
 30 
 0 
 11 
 6.81818401180898 
 21 
-12.1088065222126 
 31 
 0 
 62 
 5 
 0 
LINE
 8 
TemplateLayer
 6 
CONTINUOUS
 10 
 6.81818401180898 
 20 
-12.1088065222126 
 30 
 0 
 11 
 3.40909301372756 
 21 
-13.3862292742457 
 31 
 0 
 62 
 5 
 0 
LINE
 8 
TemplateLayer
 6 
CONTINUOUS
 10 
 3.40909301372756 
 20 
-13.3862292742457 
 30 
 0 
 11 
 1.29900496221843 
 21 
-13.6363620758057 
 31 
 0 
 62 
 5 
 0 
LINE
 8 
TemplateLayer
 6 
CONTINUOUS
 10 
 1.29900496221843 
 20 
-13.6363620758057 
 30 
 0 
 11 
 2.01700775600416E-06 
 21 
-13.9050524954431 
 31 
 0 
 62 
 5 
 0 
LINE
 8 
TemplateLayer
 6 
CONTINUOUS
 10 
 2.01700775600416E-06 
 20 
-13.9050524954431 
 30 
 0 
 11 
-1.49329614757217 
 21 
-13.6363620758057 
 31 
 0 
 62 
 5 
 0 
LINE
 8 
TemplateLayer
 6 
CONTINUOUS
 10 
-1.49329614757217 
 20 
-13.6363620758057 
 30 
 0 
 11 
-3.40908897794637 
 21 
-13.4401499388324 
 31 
 0 
 62 
 5 
 0 
LINE
 8 
TemplateLayer
 6 
CONTINUOUS
 10 
-3.40908897794637 
 20 
-13.4401499388324 
 30 
 0 
 11 
-6.81817997152126 
 21 
-12.2068320639468 
 31 
 0 
 62 
 5 
 0 
LINE
 8 
TemplateLayer
 6 
CONTINUOUS
 10 
-6.81817997152126 
 20 
-12.2068320639468 
 30 
 0 
 11 
-9.26080744732082 
 21 
-10.2272710800171 
 31 
 0 
 62 
 5 
 0 
LINE
 8 
TemplateLayer
 6 
CONTINUOUS
 10 
-9.26080744732082 
 20 
-10.2272710800171 
 30 
 0 
 11 
-10.2272709621893 
 21 
-9.35399411110109 
 31 
 0 
 62 
 5 
 0 
LINE
 8 
TemplateLayer
 6 
CONTINUOUS
 10 
-10.2272709621893 
 20 
-9.35399411110109 
 30 
 0 
 11 
-12.3054945119027 
 21 
-6.81818008422852 
 31 
 0 
 62 
 5 
 0 
LINE
 8 
TemplateLayer
 6 
CONTINUOUS
 10 
-12.3054945119027 
 20 
-6.81818008422852 
 30 
 0 
 11 
-13.2253266021232 
 21 
-3.40908908843994 
 31 
 0 
 62 
 5 
 0 
LINE
 8 
TemplateLayer
 6 
CONTINUOUS
 10 
-13.2253266021232 
 20 
-3.40908908843994 
 30 
 0 
 11 
-13.6363619418735 
 21 
-0.381711468733798 
 31 
 0 
 62 
 5 
 0 
LINE
 8 
TemplateLayer
 6 
CONTINUOUS
 10 
-13.6363619418735 
 20 
-0.381711468733798 
 30 
 0 
 11 
-13.7296472645934 
 21 
 1.9073486328125E-06 
 31 
 0 
 62 
 5 
 0 
LINE
 8 
TemplateLayer
 6 
CONTINUOUS
 10 
-10.8211624857186 
 20 
 1.9073486328125E-06 
 30 
 0 
 11 
-10.227270939575 
 21 
 3.24519501325675 
 31 
 0 
 62 
 6 
 0 
LINE
 8 
TemplateLayer
 6 
CONTINUOUS
 10 
-10.227270939575 
 20 
 3.24519501325675 
 30 
 0 
 11 
-10.209102581613 
 21 
 3.40909290313721 
 31 
 0 
 62 
 6 
 0 
LINE
 8 
TemplateLayer
 6 
CONTINUOUS
 10 
-10.209102581613 
 20 
 3.40909290313721 
 30 
 0 
 11 
-8.66641805514903 
 21 
 6.81818389892578 
 31 
 0 
 62 
 6 
 0 
LINE
 8 
TemplateLayer
 6 
CONTINUOUS
 10 
-8.66641805514903 
 20 
 6.81818389892578 
 30 
 0 
 11 
-6.81817993426623 
 21 
 8.54925199705112 
 31 
 0 
 62 
 6 
 0 
LINE
 8 
TemplateLayer
 6 
CONTINUOUS
 10 
-6.81817993426623 
 20 
 8.54925199705112 
 30 
 0 
 11 
-3.4090889359478 
 21 
 9.95872433562872 
 31 
 0 
 62 
 6 
 0 
LINE
 8 
TemplateLayer
 6 
CONTINUOUS
 10 
-3.4090889359478 
 20 
 9.95872433562872 
 30 
 0 
 11 
-0.902930658194926 
 21 
 10.2272748947144 
 31 
 0 
 62 
 6 
 0 
LINE
 8 
TemplateLayer
 6 
CONTINUOUS
 10 
-0.902930658194926 
 20 
 10.2272748947144 
 30 
 0 
 11 
 2.06068658070713E-06 
 21 
 10.4299542451938 
 31 
 0 
 62 
 6 
 0 
LINE
 8 
TemplateLayer
 6 
CONTINUOUS
 10 
 2.06068658070713E-06 
 20 
 10.4299542451938 
 30 
 0 
 11 
 0.774912220839077 
 21 
 10.2272748947144 
 31 
 0 
 62 
 6 
 0 
LINE
 8 
TemplateLayer
 6 
CONTINUOUS
 10 
 0.774912220839077 
 20 
 10.2272748947144 
 30 
 0 
 11 
 3.40909305551774 
 21 
 9.89654460709536 
 31 
 0 
 62 
 6 
 0 
LINE
 8 
TemplateLayer
 6 
CONTINUOUS
 10 
 3.40909305551774 
 20 
 9.89654460709536 
 30 
 0 
 11 
 6.81818404845408 
 21 
 8.30746254366171 
 31 
 0 
 62 
 6 
 0 
LINE
 8 
TemplateLayer
 6 
CONTINUOUS
 10 
 6.81818404845408 
 20 
 8.30746254366171 
 30 
 0 
 11 
 8.43167933116502 
 21 
 6.81818389892578 
 31 
 0 
 62 
 6 
 0 
LINE
 8 
TemplateLayer
 6 
CONTINUOUS
 10 
 8.43167933116502 
 20 
 6.81818389892578 
 30 
 0 
 11 
 10.1058175474791 
 21 
 3.40909290313721 
 31 
 0 
 62 
 6 
 0 
LINE
 8 
TemplateLayer
 6 
CONTINUOUS
 10 
 10.1058175474791 
 20 
 3.40909290313721 
 30 
 0 
 11 
 10.2272750326109 
 21 
 1.82702320359572 
 31 
 0 
 62 
 6 
 0 
LINE
 8 
TemplateLayer
 6 
CONTINUOUS
 10 
 10.2272750326109 
 20 
 1.82702320359572 
 30 
 0 
 11 
 10.4733325296726 
 21 
 1.9073486328125E-06 
 31 
 0 
 62 
 6 
 0 
LINE
 8 
TemplateLayer
 6 
CONTINUOUS
 10 
 10.4733325296726 
 20 
 1.9073486328125E-06 
 30 
 0 
 11 
 10.2272750277315 
 21 
-0.891471849574003 
 31 
 0 
 62 
 6 
 0 
LINE
 8 
TemplateLayer
 6 
CONTINUOUS
 10 
 10.2272750277315 
 20 
-0.891471849574003 
 30 
 0 
 11 
 9.81084221231699 
 21 
-3.40908908843994 
 31 
 0 
 62 
 6 
 0 
LINE
 8 
TemplateLayer
 6 
CONTINUOUS
 10 
 9.81084221231699 
 20 
-3.40908908843994 
 30 
 0 
 11 
 8.35748025583316 
 21 
-6.81818008422852 
 31 
 0 
 62 
 6 
 0 
LINE
 8 
TemplateLayer
 6 
CONTINUOUS
 10 
 8.35748025583316 
 20 
-6.81818008422852 
 30 
 0 
 11 
 6.81818401860494 
 21 
-8.32253633860103 
 31 
 0 
 62 
 6 
 0 
LINE
 8 
TemplateLayer
 6 
CONTINUOUS
 10 
 6.81818401860494 
 20 
-8.32253633860103 
 30 
 0 
 11 
 3.40909301985938 
 21 
-9.96997811242292 
 31 
 0 
 62 
 6 
 0 
LINE
 8 
TemplateLayer
 6 
CONTINUOUS
 10 
 3.40909301985938 
 20 
-9.96997811242292 
 30 
 0 
 11 
 1.61951733555443 
 21 
-10.2272710800171 
 31 
 0 
 62 
 6 
 0 
LINE
 8 
TemplateLayer
 6 
CONTINUOUS
 10 
 1.61951733555443 
 20 
-10.2272710800171 
 30 
 0 
 11 
 2.02281110903146E-06 
 21 
-10.6718007761968 
 31 
 0 
 62 
 6 
 0 
LINE
 8 
TemplateLayer
 6 
CONTINUOUS
 10 
 2.02281110903146E-06 
 20 
-10.6718007761968 
 30 
 0 
 11 
-1.73531586832445 
 21 
-10.2272710800171 
 31 
 0 
 62 
 6 
 0 
LINE
 8 
TemplateLayer
 6 
CONTINUOUS
 10 
-1.73531586832445 
 20 
-10.2272710800171 
 30 
 0 
 11 
-3.40908897178117 
 21 
-10.0053008566208 
 31 
 0 
 62 
 6 
 0 
LINE
 8 
TemplateLayer
 6 
CONTINUOUS
 10 
-3.40908897178117 
 20 
-10.0053008566208 
 30 
 0 
 11 
-6.81817996479104 
 21 
-8.45718741514618 
 31 
 0 
 62 
 6 
 0 
LINE
 8 
TemplateLayer
 6 
CONTINUOUS
 10 
-6.81817996479104 
 20 
-8.45718741514618 
 30 
 0 
 11 
-8.53168755820699 
 21 
-6.81818008422852 
 31 
 0 
 62 
 6 
 0 
LINE
 8 
TemplateLayer
 6 
CONTINUOUS
 10 
-8.53168755820699 
 20 
-6.81818008422852 
 30 
 0 
 11 
-9.94465555640304 
 21 
-3.40908908843994 
 31 
 0 
 62 
 6 
 0 
LINE
 8 
TemplateLayer
 6 
CONTINUOUS
 10 
-9.94465555640304 
 20 
-3.40908908843994 
 30 
 0 
 11 
-10.2272709488464 
 21 
-1.92020941502062 
 31 
 0 
 62 
 6 
 0 
LINE
 8 
TemplateLayer
 6 
CONTINUOUS
 10 
-10.2272709488464 
 20 
-1.92020941502062 
 30 
 0 
 11 
-10.8211624857186 
 21 
 1.9073486328125E-06 
 31 
 0 
 62 
 6 
 0 
LINE
 8 
TemplateLayer
 6 
CONTINUOUS
 10 
-5.27897799970174 
 20 
-3.40908908843994 
 30 
 0 
 11 
-6.49953216463971 
 21 
 1.9073486328125E-06 
 31 
 0 
 62 
 214 
 0 
LINE
 8 
TemplateLayer
 6 
CONTINUOUS
 10 
-6.49953216463971 
 20 
 1.9073486328125E-06 
 30 
 0 
 11 
-5.64493757453392 
 21 
 3.40909290313721 
 31 
 0 
 62 
 214 
 0 
LINE
 8 
TemplateLayer
 6 
CONTINUOUS
 10 
-5.64493757453392 
 20 
 3.40909290313721 
 30 
 0 
 11 
-3.40908894368088 
 21 
 5.65035405563221 
 31 
 0 
 62 
 214 
 0 
LINE
 8 
TemplateLayer
 6 
CONTINUOUS
 10 
-3.40908894368088 
 20 
 5.65035405563221 
 30 
 0 
 11 
 2.05363073173259E-06 
 21 
 6.49889306297924 
 31 
 0 
 62 
 214 
 0 
LINE
 8 
TemplateLayer
 6 
CONTINUOUS
 10 
 2.05363073173259E-06 
 20 
 6.49889306297924 
 30 
 0 
 11 
 3.40909304773429 
 21 
 5.56011109612655 
 31 
 0 
 62 
 214 
 0 
LINE
 8 
TemplateLayer
 6 
CONTINUOUS
 10 
 3.40909304773429 
 20 
 5.56011109612655 
 30 
 0 
 11 
 5.55149386298306 
 21 
 3.40909290313721 
 31 
 0 
 62 
 214 
 0 
LINE
 8 
TemplateLayer
 6 
CONTINUOUS
 10 
 5.55149386298306 
 20 
 3.40909290313721 
 30 
 0 
 11 
 6.32519864551585 
 21 
 1.9073486328125E-06 
 31 
 0 
 62 
 214 
 0 
LINE
 8 
TemplateLayer
 6 
CONTINUOUS
 10 
 6.32519864551585 
 20 
 1.9073486328125E-06 
 30 
 0 
 11 
 5.10322180993192 
 21 
-3.40908908843994 
 31 
 0 
 62 
 214 
 0 
LINE
 8 
TemplateLayer
 6 
CONTINUOUS
 10 
 5.10322180993192 
 20 
-3.40908908843994 
 30 
 0 
 11 
 3.40909302821702 
 21 
-5.3136443808188 
 31 
 0 
 62 
 214 
 0 
LINE
 8 
TemplateLayer
 6 
CONTINUOUS
 10 
 3.40909302821702 
 20 
-5.3136443808188 
 30 
 0 
 11 
 2.03024478864083E-06 
 21 
-6.53023688019007 
 31 
 0 
 62 
 214 
 0 
LINE
 8 
TemplateLayer
 6 
CONTINUOUS
 10 
 2.03024478864083E-06 
 20 
-6.53023688019007 
 30 
 0 
 11 
-3.40908896357892 
 21 
-5.43554165626649 
 31 
 0 
 62 
 214 
 0 
LINE
 8 
TemplateLayer
 6 
CONTINUOUS
 10 
-3.40908896357892 
 20 
-5.43554165626649 
 30 
 0 
 11 
-5.27897799970174 
 21 
-3.40908908843994 
 31 
 0 
 62 
 214 
 0 
LINE
 8 
TemplateLayer
 6 
CONTINUOUS
 10 
-0.599807732947219 
 20 
 1.9073486328125E-06 
 30 
 0 
 11 
 2.04313586921884E-06 
 21 
 0.651836697614314 
 31 
 0 
 62 
 30 
 0 
LINE
 8 
TemplateLayer
 6 
CONTINUOUS
 10 
 2.04313586921884E-06 
 20 
 0.651836697614314 
 30 
 0 
 11 
 0.53621646508622 
 21 
 1.9073486328125E-06 
 31 
 0 
 62 
 30 
 0 
LINE
 8 
TemplateLayer
 6 
CONTINUOUS
 10 
 0.53621646508622 
 20 
 1.9073486328125E-06 
 30 
 0 
 11 
 2.04106140291871E-06 
 21 
-0.503921309721065 
 31 
 0 
 62 
 30 
 0 
LINE
 8 
TemplateLayer
 6 
CONTINUOUS
 10 
 2.04106140291871E-06 
 20 
-0.503921309721065 
 30 
 0 
 11 
-0.599807732947219 
 21 
 1.9073486328125E-06 
 31 
 0 
 62 
 30 
 0 
TEXT
 8 
TemplateLayer
 10 
-3.4090889040753 
 20 
 26.7308317337297 
 30 
 0 
 40 
 1.33 
 50 
 0 
 62 
 7 
 1 
.1
 0 
TEXT
 8 
TemplateLayer
 10 
-20.9308717215107 
 20 
-7.80336530120284 
 30 
 0 
 40 
 1.33 
 50 
 0 
 62 
 1 
 1 
.2
 0 
TEXT
 8 
TemplateLayer
 10 
-3.40908892280415 
 20 
 16.296327792818 
 30 
 0 
 40 
 1.33 
 50 
 0 
 62 
 3 
 1 
.5
 0 
TEXT
 8 
TemplateLayer
 10 
-13.7296472645934 
 20 
-0.985183309625696 
 30 
 0 
 40 
 1.33 
 50 
 0 
 62 
 5 
 1 
1
 0 
TEXT
 8 
TemplateLayer
 10 
-10.227270939575 
 20 
 2.26000979628242 
 30 
 0 
 40 
 1.33 
 50 
 0 
 62 
 6 
 1 
2
 0 
TEXT
 8 
TemplateLayer
 10 
-5.27897799970174 
 20 
-4.39427430541427 
 30 
 0 
 40 
 1.33 
 50 
 0 
 62 
 214 
 1 
5
 0 
TEXT
 8 
TemplateLayer
 10 
-0.599807732947219 
 20 
-0.985183309625696 
 30 
 0 
 40 
 1.33 
 50 
 0 
 62 
 30 
 1 
10
 0 
LINE
 8 
TemplateLayer
 6 
CONTINUOUS
 10 
 0 
 20 
 0 
 30 
 0 
 11 
 2 
 21 
 0 
 31 
 0 
 62 
 0 
 0 
LINE
 8 
TemplateLayer
 6 
CONTINUOUS
 10 
 2 
 20 
 0 
 30 
 0 
 11 
 1 
 21 
 0.5 
 31 
 0 
 62 
 0 
 0 
LINE
 8 
TemplateLayer
 6 
CONTINUOUS
 10 
 1 
 20 
 0.5 
 30 
 0 
 11 
 1 
 21 
-0.5 
 31 
 0 
 62 
 0 
 0 
LINE
 8 
TemplateLayer
 6 
CONTINUOUS
 10 
 1 
 20 
-0.5 
 30 
 0 
 11 
 2 
 21 
 0 
 31 
 0 
 62 
 0 
 0 
LINE
 8 
TemplateLayer
 6 
CONTINUOUS
 10 
-0.100000001490116 
 20 
 0.100000001490116 
 30 
 0 
 11 
 0.100000001490116 
 21 
 0.100000001490116 
 31 
 0 
 62 
 0 
 0 
LINE
 8 
TemplateLayer
 6 
CONTINUOUS
 10 
 0.100000001490116 
 20 
 0.100000001490116 
 30 
 0 
 11 
 0.100000001490116 
 21 
-0.100000001490116 
 31 
 0 
 62 
 0 
 0 
LINE
 8 
TemplateLayer
 6 
CONTINUOUS
 10 
 0.100000001490116 
 20 
-0.100000001490116 
 30 
 0 
 11 
-0.100000001490116 
 21 
-0.100000001490116 
 31 
 0 
 62 
 0 
 0 
LINE
 8 
TemplateLayer
 6 
CONTINUOUS
 10 
-0.100000001490116 
 20 
-0.100000001490116 
 30 
 0 
 11 
-0.100000001490116 
 21 
 0.100000001490116 
 31 
 0 
 62 
 0 
 0 
LINE
 8 
TemplateLayer
 6 
CONTINUOUS
 10 
 0 
 20 
 0 
 30 
 0 
 11 
 0 
 21 
 0 
 31 
 0 
 62 
 0 
 0 
ENDBLK
 0 
ENDSEC
 0 
SECTION
 2 
ENTITIES
 0 
INSERT
 2 
Template
 6 
CONTINUOUS
 8 
TemplateLayer
 10 
 0 
 20 
 0 
 30 
 0 
 41 
 1 
 42 
 1 
 43 
 1 
 50 
 0 
 0 
ENDSEC
 0 
EOF
