 0 
SECTION
 2 
HEADER
 9 
$LUNITS
 70 
 2 
 0 
ENDSEC
 0 
SECTION
 2 
TABLES
 0 
TABLE
 2 
LTYPE
 70 
 1 
 0 
LTYPE
 2 
CONTINUOUS
 70 
 0 
 3 
Solid line
 72 
 65 
 73 
 0 
 40 
 0 
 0 
ENDTAB
 0 
TABLE
 2 
LAYER
 70 
 0 
 0 
LAYER
 2 
TemplateLayer
 62 
 7 
 6 
CONTINUOUS
 70 
 0 
 0 
ENDTAB
 0 
ENDSEC
 0 
SECTION
 2 
BLOCKS
 0 
BLOCK
 8 
TemplateLayer
 2 
Template
 70 
 0 
 10 
 0 
 20 
 0 
 30 
 0 
 0 
LINE
 8 
TemplateLayer
 6 
CONTINUOUS
 10 
-3.40908888615145 
 20 
 37.7020227615725 
 30 
 0 
 11 
 2.11006124761076E-06 
 21 
 37.9383146511947 
 31 
 0 
 62 
 7 
 0 
LINE
 8 
TemplateLayer
 6 
CONTINUOUS
 10 
 2.11006124761076E-06 
 20 
 37.9383146511947 
 30 
 0 
 11 
 3.40909310544694 
 21 
 37.7138571739774 
 31 
 0 
 62 
 7 
 0 
LINE
 8 
TemplateLayer
 6 
CONTINUOUS
 10 
 3.40909310544694 
 20 
 37.7138571739774 
 30 
 0 
 11 
 4.75687299144876 
 21 
 37.5000028610229 
 31 
 0 
 62 
 7 
 0 
LINE
 8 
TemplateLayer
 6 
CONTINUOUS
 10 
 4.75687299144876 
 20 
 37.5000028610229 
 30 
 0 
 11 
 6.81818410042742 
 21 
 37.2636392908963 
 31 
 0 
 62 
 7 
 0 
LINE
 8 
TemplateLayer
 6 
CONTINUOUS
 10 
 6.81818410042742 
 20 
 37.2636392908963 
 30 
 0 
 11 
 10.2272750949262 
 21 
 36.5450464271275 
 31 
 0 
 62 
 7 
 0 
LINE
 8 
TemplateLayer
 6 
CONTINUOUS
 10 
 10.2272750949262 
 20 
 36.5450464271275 
 30 
 0 
 11 
 13.6363660885665 
 21 
 35.3481649243966 
 31 
 0 
 62 
 7 
 0 
LINE
 8 
TemplateLayer
 6 
CONTINUOUS
 10 
 13.6363660885665 
 20 
 35.3481649243966 
 30 
 0 
 11 
 16.1508722046343 
 21 
 34.0909118652344 
 31 
 0 
 62 
 7 
 0 
LINE
 8 
TemplateLayer
 6 
CONTINUOUS
 10 
 16.1508722046343 
 20 
 34.0909118652344 
 30 
 0 
 11 
 17.0454570813887 
 21 
 33.695499685039 
 31 
 0 
 62 
 7 
 0 
LINE
 8 
TemplateLayer
 6 
CONTINUOUS
 10 
 17.0454570813887 
 20 
 33.695499685039 
 30 
 0 
 11 
 20.4545480734048 
 21 
 31.5937173367643 
 31 
 0 
 62 
 7 
 0 
LINE
 8 
TemplateLayer
 6 
CONTINUOUS
 10 
 20.4545480734048 
 20 
 31.5937173367643 
 30 
 0 
 11 
 21.5909113028479 
 21 
 30.6818208694458 
 31 
 0 
 62 
 7 
 0 
LINE
 8 
TemplateLayer
 6 
CONTINUOUS
 10 
 21.5909113028479 
 20 
 30.6818208694458 
 30 
 0 
 11 
 23.863639064113 
 21 
 28.7632845208513 
 31 
 0 
 62 
 7 
 0 
LINE
 8 
TemplateLayer
 6 
CONTINUOUS
 10 
 23.863639064113 
 20 
 28.7632845208513 
 30 
 0 
 11 
 25.3606744901764 
 21 
 27.2727298736572 
 31 
 0 
 62 
 7 
 0 
LINE
 8 
TemplateLayer
 6 
CONTINUOUS
 10 
 25.3606744901764 
 20 
 27.2727298736572 
 30 
 0 
 11 
 27.2727300529363 
 21 
 24.8826600277274 
 31 
 0 
 62 
 7 
 0 
LINE
 8 
TemplateLayer
 6 
CONTINUOUS
 10 
 27.2727300529363 
 20 
 24.8826600277274 
 30 
 0 
 11 
 28.0109186053185 
 21 
 23.8636388778687 
 31 
 0 
 62 
 7 
 0 
LINE
 8 
TemplateLayer
 6 
CONTINUOUS
 10 
 28.0109186053185 
 20 
 23.8636388778687 
 30 
 0 
 11 
 30.0141653246708 
 21 
 20.4545478820801 
 31 
 0 
 62 
 7 
 0 
LINE
 8 
TemplateLayer
 6 
CONTINUOUS
 10 
 30.0141653246708 
 20 
 20.4545478820801 
 30 
 0 
 11 
 30.6818210378922 
 21 
 18.847404828557 
 31 
 0 
 62 
 7 
 0 
LINE
 8 
TemplateLayer
 6 
CONTINUOUS
 10 
 30.6818210378922 
 20 
 18.847404828557 
 30 
 0 
 11 
 31.5035562184417 
 21 
 17.0454568862915 
 31 
 0 
 62 
 7 
 0 
LINE
 8 
TemplateLayer
 6 
CONTINUOUS
 10 
 31.5035562184417 
 20 
 17.0454568862915 
 30 
 0 
 11 
 32.447076350832 
 21 
 13.6363658905029 
 31 
 0 
 62 
 7 
 0 
LINE
 8 
TemplateLayer
 6 
CONTINUOUS
 10 
 32.447076350832 
 20 
 13.6363658905029 
 30 
 0 
 11 
 32.9737160523003 
 21 
 10.2272748947144 
 31 
 0 
 62 
 7 
 0 
LINE
 8 
TemplateLayer
 6 
CONTINUOUS
 10 
 32.9737160523003 
 20 
 10.2272748947144 
 30 
 0 
 11 
 33.3147349177453 
 21 
 6.81818389892578 
 31 
 0 
 62 
 7 
 0 
LINE
 8 
TemplateLayer
 6 
CONTINUOUS
 10 
 33.3147349177453 
 20 
 6.81818389892578 
 30 
 0 
 11 
 33.4678218864535 
 21 
 3.40909290313721 
 31 
 0 
 62 
 7 
 0 
LINE
 8 
TemplateLayer
 6 
CONTINUOUS
 10 
 33.4678218864535 
 20 
 3.40909290313721 
 30 
 0 
 11 
 33.3063932292648 
 21 
 1.9073486328125E-06 
 31 
 0 
 62 
 7 
 0 
LINE
 8 
TemplateLayer
 6 
CONTINUOUS
 10 
 33.3063932292648 
 20 
 1.9073486328125E-06 
 30 
 0 
 11 
 33.520382175429 
 21 
-3.40908908843994 
 31 
 0 
 62 
 7 
 0 
LINE
 8 
TemplateLayer
 6 
CONTINUOUS
 10 
 33.520382175429 
 20 
-3.40908908843994 
 30 
 0 
 11 
 33.4239156231292 
 21 
-6.81818008422852 
 31 
 0 
 62 
 7 
 0 
LINE
 8 
TemplateLayer
 6 
CONTINUOUS
 10 
 33.4239156231292 
 20 
-6.81818008422852 
 30 
 0 
 11 
 33.1338350888492 
 21 
-10.2272710800171 
 31 
 0 
 62 
 7 
 0 
LINE
 8 
TemplateLayer
 6 
CONTINUOUS
 10 
 33.1338350888492 
 20 
-10.2272710800171 
 30 
 0 
 11 
 32.6630201663923 
 21 
-13.6363620758057 
 31 
 0 
 62 
 7 
 0 
LINE
 8 
TemplateLayer
 6 
CONTINUOUS
 10 
 32.6630201663923 
 20 
-13.6363620758057 
 30 
 0 
 11 
 31.7757032980216 
 21 
-17.0454530715942 
 31 
 0 
 62 
 7 
 0 
LINE
 8 
TemplateLayer
 6 
CONTINUOUS
 10 
 31.7757032980216 
 20 
-17.0454530715942 
 30 
 0 
 11 
 30.6818209692098 
 21 
-19.4179955496779 
 31 
 0 
 62 
 7 
 0 
LINE
 8 
TemplateLayer
 6 
CONTINUOUS
 10 
 30.6818209692098 
 20 
-19.4179955496779 
 30 
 0 
 11 
 30.2496824806407 
 21 
-20.4545440673828 
 31 
 0 
 62 
 7 
 0 
LINE
 8 
TemplateLayer
 6 
CONTINUOUS
 10 
 30.2496824806407 
 20 
-20.4545440673828 
 30 
 0 
 11 
 28.3356401832763 
 21 
-23.8636350631714 
 31 
 0 
 62 
 7 
 0 
LINE
 8 
TemplateLayer
 6 
CONTINUOUS
 10 
 28.3356401832763 
 20 
-23.8636350631714 
 30 
 0 
 11 
 27.2727299627869 
 21 
-25.3427111176749 
 31 
 0 
 62 
 7 
 0 
LINE
 8 
TemplateLayer
 6 
CONTINUOUS
 10 
 27.2727299627869 
 20 
-25.3427111176749 
 30 
 0 
 11 
 25.7528434776596 
 21 
-27.27272605896 
 31 
 0 
 62 
 7 
 0 
LINE
 8 
TemplateLayer
 6 
CONTINUOUS
 10 
 25.7528434776596 
 20 
-27.27272605896 
 30 
 0 
 11 
 23.8636389600414 
 21 
-29.2186881480447 
 31 
 0 
 62 
 7 
 0 
LINE
 8 
TemplateLayer
 6 
CONTINUOUS
 10 
 23.8636389600414 
 20 
-29.2186881480447 
 30 
 0 
 11 
 22.1925158714371 
 21 
-30.6818170547485 
 31 
 0 
 62 
 7 
 0 
LINE
 8 
TemplateLayer
 6 
CONTINUOUS
 10 
 22.1925158714371 
 20 
-30.6818170547485 
 30 
 0 
 11 
 20.4545479590186 
 21 
-32.1348720967605 
 31 
 0 
 62 
 7 
 0 
LINE
 8 
TemplateLayer
 6 
CONTINUOUS
 10 
 20.4545479590186 
 20 
-32.1348720967605 
 30 
 0 
 11 
 17.2297318703785 
 21 
-34.0909080505371 
 31 
 0 
 62 
 7 
 0 
LINE
 8 
TemplateLayer
 6 
CONTINUOUS
 10 
 17.2297318703785 
 20 
-34.0909080505371 
 30 
 0 
 11 
 17.0454569595134 
 21 
-34.205499147213 
 31 
 0 
 62 
 7 
 0 
LINE
 8 
TemplateLayer
 6 
CONTINUOUS
 10 
 17.0454569595134 
 20 
-34.205499147213 
 30 
 0 
 11 
 13.6363659606064 
 21 
-35.9429054533943 
 31 
 0 
 62 
 7 
 0 
LINE
 8 
TemplateLayer
 6 
CONTINUOUS
 10 
 13.6363659606064 
 20 
-35.9429054533943 
 30 
 0 
 11 
 10.2272749627493 
 21 
-37.0953591498644 
 31 
 0 
 62 
 7 
 0 
LINE
 8 
TemplateLayer
 6 
CONTINUOUS
 10 
 10.2272749627493 
 20 
-37.0953591498644 
 30 
 0 
 11 
 8.30666026612206 
 21 
-37.4999990463257 
 31 
 0 
 62 
 7 
 0 
LINE
 8 
TemplateLayer
 6 
CONTINUOUS
 10 
 8.30666026612206 
 20 
-37.4999990463257 
 30 
 0 
 11 
 6.8181839655159 
 21 
-37.9003090175937 
 31 
 0 
 62 
 7 
 0 
LINE
 8 
TemplateLayer
 6 
CONTINUOUS
 10 
 6.8181839655159 
 20 
-37.9003090175937 
 30 
 0 
 11 
 3.40909296873166 
 21 
-38.4550280202736 
 31 
 0 
 62 
 7 
 0 
LINE
 8 
TemplateLayer
 6 
CONTINUOUS
 10 
 3.40909296873166 
 20 
-38.4550280202736 
 30 
 0 
 11 
 1.97254077141662E-06 
 21 
-38.6791707829079 
 31 
 0 
 62 
 7 
 0 
LINE
 8 
TemplateLayer
 6 
CONTINUOUS
 10 
 1.97254077141662E-06 
 20 
-38.6791707829079 
 30 
 0 
 11 
-3.40908902284549 
 21 
-38.4550280202736 
 31 
 0 
 62 
 7 
 0 
LINE
 8 
TemplateLayer
 6 
CONTINUOUS
 10 
-3.40908902284549 
 20 
-38.4550280202736 
 30 
 0 
 11 
-6.8181800176384 
 21 
-37.9003090175937 
 31 
 0 
 62 
 7 
 0 
LINE
 8 
TemplateLayer
 6 
CONTINUOUS
 10 
-6.8181800176384 
 20 
-37.9003090175937 
 30 
 0 
 11 
-8.28598269258044 
 21 
-37.4999990463257 
 31 
 0 
 62 
 7 
 0 
LINE
 8 
TemplateLayer
 6 
CONTINUOUS
 10 
-8.28598269258044 
 20 
-37.4999990463257 
 30 
 0 
 11 
-10.227271011964 
 21 
-37.0852429828703 
 31 
 0 
 62 
 7 
 0 
LINE
 8 
TemplateLayer
 6 
CONTINUOUS
 10 
-10.227271011964 
 20 
-37.0852429828703 
 30 
 0 
 11 
-13.6363620056614 
 21 
-35.920176281813 
 31 
 0 
 62 
 7 
 0 
LINE
 8 
TemplateLayer
 6 
CONTINUOUS
 10 
-13.6363620056614 
 20 
-35.920176281813 
 30 
 0 
 11 
-17.0454529982957 
 21 
-34.1628299507296 
 31 
 0 
 62 
 7 
 0 
LINE
 8 
TemplateLayer
 6 
CONTINUOUS
 10 
-17.0454529982957 
 20 
-34.1628299507296 
 30 
 0 
 11 
-17.1606251883982 
 21 
-34.0909080505371 
 31 
 0 
 62 
 7 
 0 
LINE
 8 
TemplateLayer
 6 
CONTINUOUS
 10 
-17.1606251883982 
 20 
-34.0909080505371 
 30 
 0 
 11 
-20.4545439903543 
 21 
-32.0847347771812 
 31 
 0 
 62 
 7 
 0 
LINE
 8 
TemplateLayer
 6 
CONTINUOUS
 10 
-20.4545439903543 
 20 
-32.0847347771812 
 30 
 0 
 11 
-22.1256664634793 
 21 
-30.6818170547485 
 31 
 0 
 62 
 7 
 0 
LINE
 8 
TemplateLayer
 6 
CONTINUOUS
 10 
-22.1256664634793 
 20 
-30.6818170547485 
 30 
 0 
 11 
-23.8636349808818 
 21 
-29.1536035099698 
 31 
 0 
 62 
 7 
 0 
LINE
 8 
TemplateLayer
 6 
CONTINUOUS
 10 
-23.8636349808818 
 20 
-29.1536035099698 
 30 
 0 
 11 
-25.6818166302622 
 21 
-27.27272605896 
 31 
 0 
 62 
 7 
 0 
LINE
 8 
TemplateLayer
 6 
CONTINUOUS
 10 
-25.6818166302622 
 20 
-27.27272605896 
 30 
 0 
 11 
-27.2727259696296 
 21 
-25.2309173374721 
 31 
 0 
 62 
 7 
 0 
LINE
 8 
TemplateLayer
 6 
CONTINUOUS
 10 
-27.2727259696296 
 20 
-25.2309173374721 
 30 
 0 
 11 
-28.2523497717966 
 21 
-23.8636350631714 
 31 
 0 
 62 
 7 
 0 
LINE
 8 
TemplateLayer
 6 
CONTINUOUS
 10 
-28.2523497717966 
 20 
-23.8636350631714 
 30 
 0 
 11 
-30.1850632205662 
 21 
-20.4545440673828 
 31 
 0 
 62 
 7 
 0 
LINE
 8 
TemplateLayer
 6 
CONTINUOUS
 10 
-30.1850632205662 
 20 
-20.4545440673828 
 30 
 0 
 11 
-30.6818169546628 
 21 
-19.2387136787032 
 31 
 0 
 62 
 7 
 0 
LINE
 8 
TemplateLayer
 6 
CONTINUOUS
 10 
-30.6818169546628 
 20 
-19.2387136787032 
 30 
 0 
 11 
-31.6712060522126 
 21 
-17.0454530715942 
 31 
 0 
 62 
 7 
 0 
LINE
 8 
TemplateLayer
 6 
CONTINUOUS
 10 
-31.6712060522126 
 20 
-17.0454530715942 
 30 
 0 
 11 
-32.5577187153382 
 21 
-13.6363620758057 
 31 
 0 
 62 
 7 
 0 
LINE
 8 
TemplateLayer
 6 
CONTINUOUS
 10 
-32.5577187153382 
 20 
-13.6363620758057 
 30 
 0 
 11 
-33.0260634838797 
 21 
-10.2272710800171 
 31 
 0 
 62 
 7 
 0 
LINE
 8 
TemplateLayer
 6 
CONTINUOUS
 10 
-33.0260634838797 
 20 
-10.2272710800171 
 30 
 0 
 11 
-33.2739144855243 
 21 
-6.81818008422852 
 31 
 0 
 62 
 7 
 0 
LINE
 8 
TemplateLayer
 6 
CONTINUOUS
 10 
-33.2739144855243 
 20 
-6.81818008422852 
 30 
 0 
 11 
-33.2727259974926 
 21 
-3.40908908843994 
 31 
 0 
 62 
 7 
 0 
LINE
 8 
TemplateLayer
 6 
CONTINUOUS
 10 
-33.2727259974926 
 20 
-3.40908908843994 
 30 
 0 
 11 
-32.9347812554594 
 21 
 1.9073486328125E-06 
 31 
 0 
 62 
 7 
 0 
LINE
 8 
TemplateLayer
 6 
CONTINUOUS
 10 
-32.9347812554594 
 20 
 1.9073486328125E-06 
 30 
 0 
 11 
-33.0592090551227 
 21 
 3.40909290313721 
 31 
 0 
 62 
 7 
 0 
LINE
 8 
TemplateLayer
 6 
CONTINUOUS
 10 
-33.0592090551227 
 20 
 3.40909290313721 
 30 
 0 
 11 
-32.855613882585 
 21 
 6.81818389892578 
 31 
 0 
 62 
 7 
 0 
LINE
 8 
TemplateLayer
 6 
CONTINUOUS
 10 
-32.855613882585 
 20 
 6.81818389892578 
 30 
 0 
 11 
-32.4765272152442 
 21 
 10.2272748947144 
 31 
 0 
 62 
 7 
 0 
LINE
 8 
TemplateLayer
 6 
CONTINUOUS
 10 
-32.4765272152442 
 20 
 10.2272748947144 
 30 
 0 
 11 
-31.9188296715342 
 21 
 13.6363658905029 
 31 
 0 
 62 
 7 
 0 
LINE
 8 
TemplateLayer
 6 
CONTINUOUS
 10 
-31.9188296715342 
 20 
 13.6363658905029 
 30 
 0 
 11 
-30.8905368345782 
 21 
 17.0454568862915 
 31 
 0 
 62 
 7 
 0 
LINE
 8 
TemplateLayer
 6 
CONTINUOUS
 10 
-30.8905368345782 
 20 
 17.0454568862915 
 30 
 0 
 11 
-30.6818168886692 
 21 
 17.528635358133 
 31 
 0 
 62 
 7 
 0 
LINE
 8 
TemplateLayer
 6 
CONTINUOUS
 10 
-30.6818168886692 
 20 
 17.528635358133 
 30 
 0 
 11 
-29.5692693733878 
 21 
 20.4545478820801 
 31 
 0 
 62 
 7 
 0 
LINE
 8 
TemplateLayer
 6 
CONTINUOUS
 10 
-29.5692693733878 
 20 
 20.4545478820801 
 30 
 0 
 11 
-27.5826434272981 
 21 
 23.8636388778687 
 31 
 0 
 62 
 7 
 0 
LINE
 8 
TemplateLayer
 6 
CONTINUOUS
 10 
-27.5826434272981 
 20 
 23.8636388778687 
 30 
 0 
 11 
-27.2727258806964 
 21 
 24.3168709003267 
 31 
 0 
 62 
 7 
 0 
LINE
 8 
TemplateLayer
 6 
CONTINUOUS
 10 
-27.2727258806964 
 20 
 24.3168709003267 
 30 
 0 
 11 
-25.0299026173148 
 21 
 27.2727298736572 
 31 
 0 
 62 
 7 
 0 
LINE
 8 
TemplateLayer
 6 
CONTINUOUS
 10 
-25.0299026173148 
 20 
 27.2727298736572 
 30 
 0 
 11 
-23.8636348774717 
 21 
 28.4598237863361 
 31 
 0 
 62 
 7 
 0 
LINE
 8 
TemplateLayer
 6 
CONTINUOUS
 10 
-23.8636348774717 
 20 
 28.4598237863361 
 30 
 0 
 11 
-21.3111873296009 
 21 
 30.6818208694458 
 31 
 0 
 62 
 7 
 0 
LINE
 8 
TemplateLayer
 6 
CONTINUOUS
 10 
-21.3111873296009 
 20 
 30.6818208694458 
 30 
 0 
 11 
-20.4545438764298 
 21 
 31.3866542052712 
 31 
 0 
 62 
 7 
 0 
LINE
 8 
TemplateLayer
 6 
CONTINUOUS
 10 
-20.4545438764298 
 20 
 31.3866542052712 
 30 
 0 
 11 
-17.0454528766837 
 21 
 33.5914905667355 
 31 
 0 
 62 
 7 
 0 
LINE
 8 
TemplateLayer
 6 
CONTINUOUS
 10 
-17.0454528766837 
 20 
 33.5914905667355 
 30 
 0 
 11 
-15.9488216841314 
 21 
 34.0909118652344 
 31 
 0 
 62 
 7 
 0 
LINE
 8 
TemplateLayer
 6 
CONTINUOUS
 10 
-15.9488216841314 
 20 
 34.0909118652344 
 30 
 0 
 11 
-13.6363618778714 
 21 
 35.276151298966 
 31 
 0 
 62 
 7 
 0 
LINE
 8 
TemplateLayer
 6 
CONTINUOUS
 10 
-13.6363618778714 
 20 
 35.276151298966 
 30 
 0 
 11 
-10.2272708798395 
 21 
 36.5259765313572 
 31 
 0 
 62 
 7 
 0 
LINE
 8 
TemplateLayer
 6 
CONTINUOUS
 10 
-10.2272708798395 
 20 
 36.5259765313572 
 30 
 0 
 11 
-6.81817988276073 
 21 
 37.2447765502084 
 31 
 0 
 62 
 7 
 0 
LINE
 8 
TemplateLayer
 6 
CONTINUOUS
 10 
-6.81817988276073 
 20 
 37.2447765502084 
 30 
 0 
 11 
-4.64875624037871 
 21 
 37.5000028610229 
 31 
 0 
 62 
 7 
 0 
LINE
 8 
TemplateLayer
 6 
CONTINUOUS
 10 
-4.64875624037871 
 20 
 37.5000028610229 
 30 
 0 
 11 
-3.40908888615145 
 21 
 37.7020227615725 
 31 
 0 
 62 
 7 
 0 
LINE
 8 
TemplateLayer
 6 
CONTINUOUS
 10 
-3.40908889829257 
 20 
 30.9377745035143 
 30 
 0 
 11 
 2.09798446638987E-06 
 21 
 31.209915835517 
 31 
 0 
 62 
 1 
 0 
LINE
 8 
TemplateLayer
 6 
CONTINUOUS
 10 
 2.09798446638987E-06 
 20 
 31.209915835517 
 30 
 0 
 11 
 3.40909309331234 
 21 
 30.9532450309865 
 31 
 0 
 62 
 1 
 0 
LINE
 8 
TemplateLayer
 6 
CONTINUOUS
 10 
 3.40909309331234 
 20 
 30.9532450309865 
 30 
 0 
 11 
 4.72028103559423 
 21 
 30.6818208694458 
 31 
 0 
 62 
 1 
 0 
LINE
 8 
TemplateLayer
 6 
CONTINUOUS
 10 
 4.72028103559423 
 20 
 30.6818208694458 
 30 
 0 
 11 
 6.81818408806983 
 21 
 30.3787905210798 
 31 
 0 
 62 
 1 
 0 
LINE
 8 
TemplateLayer
 6 
CONTINUOUS
 10 
 6.81818408806983 
 20 
 30.3787905210798 
 30 
 0 
 11 
 10.2272750821623 
 21 
 29.4338090116571 
 31 
 0 
 62 
 1 
 0 
LINE
 8 
TemplateLayer
 6 
CONTINUOUS
 10 
 10.2272750821623 
 20 
 29.4338090116571 
 30 
 0 
 11 
 13.6363660750133 
 21 
 27.7972055450656 
 31 
 0 
 62 
 1 
 0 
LINE
 8 
TemplateLayer
 6 
CONTINUOUS
 10 
 13.6363660750133 
 20 
 27.7972055450656 
 30 
 0 
 11 
 14.4656047212545 
 21 
 27.2727298736572 
 31 
 0 
 62 
 1 
 0 
LINE
 8 
TemplateLayer
 6 
CONTINUOUS
 10 
 14.4656047212545 
 20 
 27.2727298736572 
 30 
 0 
 11 
 17.045457067061 
 21 
 25.7130150172819 
 31 
 0 
 62 
 1 
 0 
LINE
 8 
TemplateLayer
 6 
CONTINUOUS
 10 
 17.045457067061 
 20 
 25.7130150172819 
 30 
 0 
 11 
 19.2095448893777 
 21 
 23.8636388778687 
 31 
 0 
 62 
 1 
 0 
LINE
 8 
TemplateLayer
 6 
CONTINUOUS
 10 
 19.2095448893777 
 20 
 23.8636388778687 
 30 
 0 
 11 
 20.4545480574468 
 21 
 22.7029675616735 
 31 
 0 
 62 
 1 
 0 
LINE
 8 
TemplateLayer
 6 
CONTINUOUS
 10 
 20.4545480574468 
 20 
 22.7029675616735 
 30 
 0 
 11 
 22.4440806686427 
 21 
 20.4545478820801 
 31 
 0 
 62 
 1 
 0 
LINE
 8 
TemplateLayer
 6 
CONTINUOUS
 10 
 22.4440806686427 
 20 
 20.4545478820801 
 30 
 0 
 11 
 23.8636390453072 
 21 
 18.2858732520157 
 31 
 0 
 62 
 1 
 0 
LINE
 8 
TemplateLayer
 6 
CONTINUOUS
 10 
 23.8636390453072 
 20 
 18.2858732520157 
 30 
 0 
 11 
 24.6730302196343 
 21 
 17.0454568862915 
 31 
 0 
 62 
 1 
 0 
LINE
 8 
TemplateLayer
 6 
CONTINUOUS
 10 
 24.6730302196343 
 20 
 17.0454568862915 
 30 
 0 
 11 
 26.2914433974646 
 21 
 13.6363658905029 
 31 
 0 
 62 
 1 
 0 
LINE
 8 
TemplateLayer
 6 
CONTINUOUS
 10 
 26.2914433974646 
 20 
 13.6363658905029 
 30 
 0 
 11 
 27.0921768581675 
 21 
 10.2272748947144 
 31 
 0 
 62 
 1 
 0 
LINE
 8 
TemplateLayer
 6 
CONTINUOUS
 10 
 27.0921768581675 
 20 
 10.2272748947144 
 30 
 0 
 11 
 27.2727300239572 
 21 
 8.73737589479877 
 31 
 0 
 62 
 1 
 0 
LINE
 8 
TemplateLayer
 6 
CONTINUOUS
 10 
 27.2727300239572 
 20 
 8.73737589479877 
 30 
 0 
 11 
 27.6276488333326 
 21 
 6.81818389892578 
 31 
 0 
 62 
 1 
 0 
LINE
 8 
TemplateLayer
 6 
CONTINUOUS
 10 
 27.6276488333326 
 20 
 6.81818389892578 
 30 
 0 
 11 
 28.0716022725971 
 21 
 3.40909290313721 
 31 
 0 
 62 
 1 
 0 
LINE
 8 
TemplateLayer
 6 
CONTINUOUS
 10 
 28.0716022725971 
 20 
 3.40909290313721 
 30 
 0 
 11 
 28.0284395945455 
 21 
 1.9073486328125E-06 
 31 
 0 
 62 
 1 
 0 
LINE
 8 
TemplateLayer
 6 
CONTINUOUS
 10 
 28.0284395945455 
 20 
 1.9073486328125E-06 
 30 
 0 
 11 
 28.1784661731315 
 21 
-3.40908908843994 
 31 
 0 
 62 
 1 
 0 
LINE
 8 
TemplateLayer
 6 
CONTINUOUS
 10 
 28.1784661731315 
 20 
-3.40908908843994 
 30 
 0 
 11 
 27.844664297087 
 21 
-6.81818008422852 
 31 
 0 
 62 
 1 
 0 
LINE
 8 
TemplateLayer
 6 
CONTINUOUS
 10 
 27.844664297087 
 20 
-6.81818008422852 
 30 
 0 
 11 
 27.2972555089117 
 21 
-10.2272710800171 
 31 
 0 
 62 
 1 
 0 
LINE
 8 
TemplateLayer
 6 
CONTINUOUS
 10 
 27.2972555089117 
 20 
-10.2272710800171 
 30 
 0 
 11 
 27.2727299897566 
 21 
-10.3169828752097 
 31 
 0 
 62 
 1 
 0 
LINE
 8 
TemplateLayer
 6 
CONTINUOUS
 10 
 27.2727299897566 
 20 
-10.3169828752097 
 30 
 0 
 11 
 26.5982039724209 
 21 
-13.6363620758057 
 31 
 0 
 62 
 1 
 0 
LINE
 8 
TemplateLayer
 6 
CONTINUOUS
 10 
 26.5982039724209 
 20 
-13.6363620758057 
 30 
 0 
 11 
 25.104225365744 
 21 
-17.0454530715942 
 31 
 0 
 62 
 1 
 0 
LINE
 8 
TemplateLayer
 6 
CONTINUOUS
 10 
 25.104225365744 
 20 
-17.0454530715942 
 30 
 0 
 11 
 23.8636389784932 
 21 
-18.9385371928262 
 31 
 0 
 62 
 1 
 0 
LINE
 8 
TemplateLayer
 6 
CONTINUOUS
 10 
 23.8636389784932 
 20 
-18.9385371928262 
 30 
 0 
 11 
 22.8701609441787 
 21 
-20.4545440673828 
 31 
 0 
 62 
 1 
 0 
LINE
 8 
TemplateLayer
 6 
CONTINUOUS
 10 
 22.8701609441787 
 20 
-20.4545440673828 
 30 
 0 
 11 
 20.4545479751469 
 21 
-23.1491882144195 
 31 
 0 
 62 
 1 
 0 
LINE
 8 
TemplateLayer
 6 
CONTINUOUS
 10 
 20.4545479751469 
 20 
-23.1491882144195 
 30 
 0 
 11 
 19.6391906585979 
 21 
-23.8636350631714 
 31 
 0 
 62 
 1 
 0 
LINE
 8 
TemplateLayer
 6 
CONTINUOUS
 10 
 19.6391906585979 
 20 
-23.8636350631714 
 30 
 0 
 11 
 17.0454569741583 
 21 
-26.0463178083575 
 31 
 0 
 62 
 1 
 0 
LINE
 8 
TemplateLayer
 6 
CONTINUOUS
 10 
 17.0454569741583 
 20 
-26.0463178083575 
 30 
 0 
 11 
 14.9651779999671 
 21 
-27.27272605896 
 31 
 0 
 62 
 1 
 0 
LINE
 8 
TemplateLayer
 6 
CONTINUOUS
 10 
 14.9651779999671 
 20 
-27.27272605896 
 30 
 0 
 11 
 13.6363659746544 
 21 
-28.1162721003745 
 31 
 0 
 62 
 1 
 0 
LINE
 8 
TemplateLayer
 6 
CONTINUOUS
 10 
 13.6363659746544 
 20 
-28.1162721003745 
 30 
 0 
 11 
 10.2272749760377 
 21 
-29.6919314759027 
 31 
 0 
 62 
 1 
 0 
LINE
 8 
TemplateLayer
 6 
CONTINUOUS
 10 
 10.2272749760377 
 20 
-29.6919314759027 
 30 
 0 
 11 
 6.81818397860356 
 21 
-30.608710054399 
 31 
 0 
 62 
 1 
 0 
LINE
 8 
TemplateLayer
 6 
CONTINUOUS
 10 
 6.81818397860356 
 20 
-30.608710054399 
 30 
 0 
 11 
 6.33838556837045 
 21 
-30.6818170547485 
 31 
 0 
 62 
 1 
 0 
LINE
 8 
TemplateLayer
 6 
CONTINUOUS
 10 
 6.33838556837045 
 20 
-30.6818170547485 
 30 
 0 
 11 
 3.40909298155171 
 21 
-31.3125261845385 
 31 
 0 
 62 
 1 
 0 
LINE
 8 
TemplateLayer
 6 
CONTINUOUS
 10 
 3.40909298155171 
 20 
-31.3125261845385 
 30 
 0 
 11 
 1.98527160542861E-06 
 21 
-31.5863761910031 
 31 
 0 
 62 
 1 
 0 
LINE
 8 
TemplateLayer
 6 
CONTINUOUS
 10 
 1.98527160542861E-06 
 20 
-31.5863761910031 
 30 
 0 
 11 
-3.40908901004129 
 21 
-31.321359959582 
 31 
 0 
 62 
 1 
 0 
LINE
 8 
TemplateLayer
 6 
CONTINUOUS
 10 
-3.40908901004129 
 20 
-31.321359959582 
 30 
 0 
 11 
-6.38888700872454 
 21 
-30.6818170547485 
 31 
 0 
 62 
 1 
 0 
LINE
 8 
TemplateLayer
 6 
CONTINUOUS
 10 
-6.38888700872454 
 20 
-30.6818170547485 
 30 
 0 
 11 
-6.81818000456521 
 21 
-30.6167727114608 
 31 
 0 
 62 
 1 
 0 
LINE
 8 
TemplateLayer
 6 
CONTINUOUS
 10 
-6.81818000456521 
 20 
-30.6167727114608 
 30 
 0 
 11 
-10.2272709986962 
 21 
-29.6932730066243 
 31 
 0 
 62 
 1 
 0 
LINE
 8 
TemplateLayer
 6 
CONTINUOUS
 10 
-10.2272709986962 
 20 
-29.6932730066243 
 30 
 0 
 11 
-13.636361991607 
 21 
-28.0899737455108 
 31 
 0 
 62 
 1 
 0 
LINE
 8 
TemplateLayer
 6 
CONTINUOUS
 10 
-13.636361991607 
 20 
-28.0899737455108 
 30 
 0 
 11 
-14.9124919317177 
 21 
-27.27272605896 
 31 
 0 
 62 
 1 
 0 
LINE
 8 
TemplateLayer
 6 
CONTINUOUS
 10 
-14.9124919317177 
 20 
-27.27272605896 
 30 
 0 
 11 
-17.0454529836451 
 21 
-26.0004333224428 
 31 
 0 
 62 
 1 
 0 
LINE
 8 
TemplateLayer
 6 
CONTINUOUS
 10 
-17.0454529836451 
 20 
-26.0004333224428 
 30 
 0 
 11 
-19.5733256261408 
 21 
-23.8636350631714 
 31 
 0 
 62 
 1 
 0 
LINE
 8 
TemplateLayer
 6 
CONTINUOUS
 10 
-19.5733256261408 
 20 
-23.8636350631714 
 30 
 0 
 11 
-20.4545439741988 
 21 
-23.083925969458 
 31 
 0 
 62 
 1 
 0 
LINE
 8 
TemplateLayer
 6 
CONTINUOUS
 10 
-20.4545439741988 
 20 
-23.083925969458 
 30 
 0 
 11 
-22.7913391156316 
 21 
-20.4545440673828 
 31 
 0 
 62 
 1 
 0 
LINE
 8 
TemplateLayer
 6 
CONTINUOUS
 10 
-22.7913391156316 
 20 
-20.4545440673828 
 30 
 0 
 11 
-23.8636349622511 
 21 
-18.7737827384499 
 31 
 0 
 62 
 1 
 0 
LINE
 8 
TemplateLayer
 6 
CONTINUOUS
 10 
-23.8636349622511 
 20 
-18.7737827384499 
 30 
 0 
 11 
-24.9778504847705 
 21 
-17.0454530715942 
 31 
 0 
 62 
 1 
 0 
LINE
 8 
TemplateLayer
 6 
CONTINUOUS
 10 
-24.9778504847705 
 20 
-17.0454530715942 
 30 
 0 
 11 
-26.4831341518231 
 21 
-13.6363620758057 
 31 
 0 
 62 
 1 
 0 
LINE
 8 
TemplateLayer
 6 
CONTINUOUS
 10 
-26.4831341518231 
 20 
-13.6363620758057 
 30 
 0 
 11 
-27.216983421736 
 21 
-10.2272710800171 
 31 
 0 
 62 
 1 
 0 
LINE
 8 
TemplateLayer
 6 
CONTINUOUS
 10 
-27.216983421736 
 20 
-10.2272710800171 
 30 
 0 
 11 
-27.2727259417769 
 21 
-9.71320135490791 
 31 
 0 
 62 
 1 
 0 
LINE
 8 
TemplateLayer
 6 
CONTINUOUS
 10 
-27.2727259417769 
 20 
-9.71320135490791 
 30 
 0 
 11 
-27.7539565534515 
 21 
-6.81818008422852 
 31 
 0 
 62 
 1 
 0 
LINE
 8 
TemplateLayer
 6 
CONTINUOUS
 10 
-27.7539565534515 
 20 
-6.81818008422852 
 30 
 0 
 11 
-27.9655957257021 
 21 
-3.40908908843994 
 31 
 0 
 62 
 1 
 0 
LINE
 8 
TemplateLayer
 6 
CONTINUOUS
 10 
-27.9655957257021 
 20 
-3.40908908843994 
 30 
 0 
 11 
-27.6630799784984 
 21 
 1.9073486328125E-06 
 31 
 0 
 62 
 1 
 0 
LINE
 8 
TemplateLayer
 6 
CONTINUOUS
 10 
-27.6630799784984 
 20 
 1.9073486328125E-06 
 30 
 0 
 11 
-27.6465684902964 
 21 
 3.40909290313721 
 31 
 0 
 62 
 1 
 0 
LINE
 8 
TemplateLayer
 6 
CONTINUOUS
 10 
-27.6465684902964 
 20 
 3.40909290313721 
 30 
 0 
 11 
-27.2727259138679 
 21 
 5.83590329657862 
 31 
 0 
 62 
 1 
 0 
LINE
 8 
TemplateLayer
 6 
CONTINUOUS
 10 
-27.2727259138679 
 20 
 5.83590329657862 
 30 
 0 
 11 
-27.180588372193 
 21 
 6.81818389892578 
 31 
 0 
 62 
 1 
 0 
LINE
 8 
TemplateLayer
 6 
CONTINUOUS
 10 
-27.180588372193 
 20 
 6.81818389892578 
 30 
 0 
 11 
-26.7839105916289 
 21 
 10.2272748947144 
 31 
 0 
 62 
 1 
 0 
LINE
 8 
TemplateLayer
 6 
CONTINUOUS
 10 
-26.7839105916289 
 20 
 10.2272748947144 
 30 
 0 
 11 
-25.9411751313629 
 21 
 13.6363658905029 
 31 
 0 
 62 
 1 
 0 
LINE
 8 
TemplateLayer
 6 
CONTINUOUS
 10 
-25.9411751313629 
 20 
 13.6363658905029 
 30 
 0 
 11 
-24.3019467010901 
 21 
 17.0454568862915 
 31 
 0 
 62 
 1 
 0 
LINE
 8 
TemplateLayer
 6 
CONTINUOUS
 10 
-24.3019467010901 
 20 
 17.0454568862915 
 30 
 0 
 11 
-23.8636348966917 
 21 
 17.7516881628226 
 31 
 0 
 62 
 1 
 0 
LINE
 8 
TemplateLayer
 6 
CONTINUOUS
 10 
-23.8636348966917 
 20 
 17.7516881628226 
 30 
 0 
 11 
-22.2097719507371 
 21 
 20.4545478820801 
 31 
 0 
 62 
 1 
 0 
LINE
 8 
TemplateLayer
 6 
CONTINUOUS
 10 
-22.2097719507371 
 20 
 20.4545478820801 
 30 
 0 
 11 
-20.4545438923981 
 21 
 22.4901027697082 
 31 
 0 
 62 
 1 
 0 
LINE
 8 
TemplateLayer
 6 
CONTINUOUS
 10 
-20.4545438923981 
 20 
 22.4901027697082 
 30 
 0 
 11 
-19.0019176476243 
 21 
 23.8636388778687 
 31 
 0 
 62 
 1 
 0 
LINE
 8 
TemplateLayer
 6 
CONTINUOUS
 10 
-19.0019176476243 
 20 
 23.8636388778687 
 30 
 0 
 11 
-17.0454528911 
 21 
 25.5596756857313 
 31 
 0 
 62 
 1 
 0 
LINE
 8 
TemplateLayer
 6 
CONTINUOUS
 10 
-17.0454528911 
 20 
 25.5596756857313 
 30 
 0 
 11 
-14.270397425556 
 21 
 27.2727298736572 
 31 
 0 
 62 
 1 
 0 
LINE
 8 
TemplateLayer
 6 
CONTINUOUS
 10 
-14.270397425556 
 20 
 27.2727298736572 
 30 
 0 
 11 
-13.6363618915037 
 21 
 27.6811103775314 
 31 
 0 
 62 
 1 
 0 
LINE
 8 
TemplateLayer
 6 
CONTINUOUS
 10 
-13.6363618915037 
 20 
 27.6811103775314 
 30 
 0 
 11 
-10.2272708926685 
 21 
 29.3784812396865 
 31 
 0 
 62 
 1 
 0 
LINE
 8 
TemplateLayer
 6 
CONTINUOUS
 10 
-10.2272708926685 
 20 
 29.3784812396865 
 30 
 0 
 11 
-6.81817989512169 
 21 
 30.3580520608305 
 31 
 0 
 62 
 1 
 0 
LINE
 8 
TemplateLayer
 6 
CONTINUOUS
 10 
-6.81817989512169 
 20 
 30.3580520608305 
 30 
 0 
 11 
-4.62292936835606 
 21 
 30.6818208694458 
 31 
 0 
 62 
 1 
 0 
LINE
 8 
TemplateLayer
 6 
CONTINUOUS
 10 
-4.62292936835606 
 20 
 30.6818208694458 
 30 
 0 
 11 
-3.40908889829257 
 21 
 30.9377745035143 
 31 
 0 
 62 
 1 
 0 
LINE
 8 
TemplateLayer
 6 
CONTINUOUS
 10 
-20.7785075358879 
 20 
-10.2272710800171 
 30 
 0 
 11 
-21.7406820125212 
 21 
-6.81818008422852 
 31 
 0 
 62 
 3 
 0 
LINE
 8 
TemplateLayer
 6 
CONTINUOUS
 10 
-21.7406820125212 
 20 
-6.81818008422852 
 30 
 0 
 11 
-22.2054882944704 
 21 
-3.40908908843994 
 31 
 0 
 62 
 3 
 0 
LINE
 8 
TemplateLayer
 6 
CONTINUOUS
 10 
-22.2054882944704 
 20 
-3.40908908843994 
 30 
 0 
 11 
-22.1844775259391 
 21 
 1.9073486328125E-06 
 31 
 0 
 62 
 3 
 0 
LINE
 8 
TemplateLayer
 6 
CONTINUOUS
 10 
-22.1844775259391 
 20 
 1.9073486328125E-06 
 30 
 0 
 11 
-21.9658821360782 
 21 
 3.40909290313721 
 31 
 0 
 62 
 3 
 0 
LINE
 8 
TemplateLayer
 6 
CONTINUOUS
 10 
-21.9658821360782 
 20 
 3.40909290313721 
 30 
 0 
 11 
-21.26623194153 
 21 
 6.81818389892578 
 31 
 0 
 62 
 3 
 0 
LINE
 8 
TemplateLayer
 6 
CONTINUOUS
 10 
-21.26623194153 
 20 
 6.81818389892578 
 30 
 0 
 11 
-20.4545439158499 
 21 
 9.42430663146594 
 31 
 0 
 62 
 3 
 0 
LINE
 8 
TemplateLayer
 6 
CONTINUOUS
 10 
-20.4545439158499 
 20 
 9.42430663146594 
 30 
 0 
 11 
-20.2837897313982 
 21 
 10.2272748947144 
 31 
 0 
 62 
 3 
 0 
LINE
 8 
TemplateLayer
 6 
CONTINUOUS
 10 
-20.2837897313982 
 20 
 10.2272748947144 
 30 
 0 
 11 
-18.7554293469527 
 21 
 13.6363658905029 
 31 
 0 
 62 
 3 
 0 
LINE
 8 
TemplateLayer
 6 
CONTINUOUS
 10 
-18.7554293469527 
 20 
 13.6363658905029 
 30 
 0 
 11 
-17.0454529084341 
 21 
 15.9022394863865 
 31 
 0 
 62 
 3 
 0 
LINE
 8 
TemplateLayer
 6 
CONTINUOUS
 10 
-17.0454529084341 
 20 
 15.9022394863865 
 30 
 0 
 11 
-16.0219894000533 
 21 
 17.0454568862915 
 31 
 0 
 62 
 3 
 0 
LINE
 8 
TemplateLayer
 6 
CONTINUOUS
 10 
-16.0219894000533 
 20 
 17.0454568862915 
 30 
 0 
 11 
-13.6363619067421 
 21 
 19.1912470213602 
 31 
 0 
 62 
 3 
 0 
LINE
 8 
TemplateLayer
 6 
CONTINUOUS
 10 
-13.6363619067421 
 20 
 19.1912470213602 
 30 
 0 
 11 
-11.4848845216531 
 21 
 20.4545478820801 
 31 
 0 
 62 
 3 
 0 
LINE
 8 
TemplateLayer
 6 
CONTINUOUS
 10 
-11.4848845216531 
 20 
 20.4545478820801 
 30 
 0 
 11 
-10.2272709072109 
 21 
 21.2764153970248 
 31 
 0 
 62 
 3 
 0 
LINE
 8 
TemplateLayer
 6 
CONTINUOUS
 10 
-10.2272709072109 
 20 
 21.2764153970248 
 30 
 0 
 11 
-6.8181799087635 
 21 
 22.7577180031404 
 31 
 0 
 62 
 3 
 0 
LINE
 8 
TemplateLayer
 6 
CONTINUOUS
 10 
-6.8181799087635 
 20 
 22.7577180031404 
 30 
 0 
 11 
-3.40908891168415 
 21 
 23.4768586565109 
 31 
 0 
 62 
 3 
 0 
LINE
 8 
TemplateLayer
 6 
CONTINUOUS
 10 
-3.40908891168415 
 20 
 23.4768586565109 
 30 
 0 
 11 
 2.08450888485728E-06 
 21 
 23.7021962565845 
 31 
 0 
 62 
 3 
 0 
LINE
 8 
TemplateLayer
 6 
CONTINUOUS
 10 
 2.08450888485728E-06 
 20 
 23.7021962565845 
 30 
 0 
 11 
 3.40909307991814 
 21 
 23.4908615628201 
 31 
 0 
 62 
 3 
 0 
LINE
 8 
TemplateLayer
 6 
CONTINUOUS
 10 
 3.40909307991814 
 20 
 23.4908615628201 
 30 
 0 
 11 
 6.81818407445088 
 21 
 22.7911955488338 
 31 
 0 
 62 
 3 
 0 
LINE
 8 
TemplateLayer
 6 
CONTINUOUS
 10 
 6.81818407445088 
 20 
 22.7911955488338 
 30 
 0 
 11 
 10.2272750676271 
 21 
 21.3357343111095 
 31 
 0 
 62 
 3 
 0 
LINE
 8 
TemplateLayer
 6 
CONTINUOUS
 10 
 10.2272750676271 
 20 
 21.3357343111095 
 30 
 0 
 11 
 11.5931876857421 
 21 
 20.4545478820801 
 31 
 0 
 62 
 3 
 0 
LINE
 8 
TemplateLayer
 6 
CONTINUOUS
 10 
 11.5931876857421 
 20 
 20.4545478820801 
 30 
 0 
 11 
 13.6363660597289 
 21 
 19.2817030812384 
 31 
 0 
 62 
 3 
 0 
LINE
 8 
TemplateLayer
 6 
CONTINUOUS
 10 
 13.6363660597289 
 20 
 19.2817030812384 
 30 
 0 
 11 
 16.1550089447155 
 21 
 17.0454568862915 
 31 
 0 
 62 
 3 
 0 
LINE
 8 
TemplateLayer
 6 
CONTINUOUS
 10 
 16.1550089447155 
 20 
 17.0454568862915 
 30 
 0 
 11 
 17.0454570497767 
 21 
 16.0833574307538 
 31 
 0 
 62 
 3 
 0 
LINE
 8 
TemplateLayer
 6 
CONTINUOUS
 10 
 17.0454570497767 
 20 
 16.0833574307538 
 30 
 0 
 11 
 18.9435081286277 
 21 
 13.6363658905029 
 31 
 0 
 62 
 3 
 0 
LINE
 8 
TemplateLayer
 6 
CONTINUOUS
 10 
 18.9435081286277 
 20 
 13.6363658905029 
 30 
 0 
 11 
 20.4486139208357 
 21 
 10.2272748947144 
 31 
 0 
 62 
 3 
 0 
LINE
 8 
TemplateLayer
 6 
CONTINUOUS
 10 
 20.4486139208357 
 20 
 10.2272748947144 
 30 
 0 
 11 
 20.4545480350081 
 21 
 10.2015777959784 
 31 
 0 
 62 
 3 
 0 
LINE
 8 
TemplateLayer
 6 
CONTINUOUS
 10 
 20.4545480350081 
 20 
 10.2015777959784 
 30 
 0 
 11 
 21.5753061478837 
 21 
 6.81818389892578 
 31 
 0 
 62 
 3 
 0 
LINE
 8 
TemplateLayer
 6 
CONTINUOUS
 10 
 21.5753061478837 
 20 
 6.81818389892578 
 30 
 0 
 11 
 22.2308574249178 
 21 
 3.40909290313721 
 31 
 0 
 62 
 3 
 0 
LINE
 8 
TemplateLayer
 6 
CONTINUOUS
 10 
 22.2308574249178 
 20 
 3.40909290313721 
 30 
 0 
 11 
 22.4006377328038 
 21 
 1.9073486328125E-06 
 31 
 0 
 62 
 3 
 0 
LINE
 8 
TemplateLayer
 6 
CONTINUOUS
 10 
 22.4006377328038 
 20 
 1.9073486328125E-06 
 30 
 0 
 11 
 22.3183291717708 
 21 
-3.40908908843994 
 31 
 0 
 62 
 3 
 0 
LINE
 8 
TemplateLayer
 6 
CONTINUOUS
 10 
 22.3183291717708 
 20 
-3.40908908843994 
 30 
 0 
 11 
 21.7878874526275 
 21 
-6.81818008422852 
 31 
 0 
 62 
 3 
 0 
LINE
 8 
TemplateLayer
 6 
CONTINUOUS
 10 
 21.7878874526275 
 20 
-6.81818008422852 
 30 
 0 
 11 
 20.8635729941045 
 21 
-10.2272710800171 
 31 
 0 
 62 
 3 
 0 
LINE
 8 
TemplateLayer
 6 
CONTINUOUS
 10 
 20.8635729941045 
 20 
-10.2272710800171 
 30 
 0 
 11 
 20.4545479968092 
 21 
-11.0804039845936 
 31 
 0 
 62 
 3 
 0 
LINE
 8 
TemplateLayer
 6 
CONTINUOUS
 10 
 20.4545479968092 
 20 
-11.0804039845936 
 30 
 0 
 11 
 19.4236345653529 
 21 
-13.6363620758057 
 31 
 0 
 62 
 3 
 0 
LINE
 8 
TemplateLayer
 6 
CONTINUOUS
 10 
 19.4236345653529 
 20 
-13.6363620758057 
 30 
 0 
 11 
 17.0454569908063 
 21 
-16.771116605984 
 31 
 0 
 62 
 3 
 0 
LINE
 8 
TemplateLayer
 6 
CONTINUOUS
 10 
 17.0454569908063 
 20 
-16.771116605984 
 30 
 0 
 11 
 16.7893913082577 
 21 
-17.0454530715942 
 31 
 0 
 62 
 3 
 0 
LINE
 8 
TemplateLayer
 6 
CONTINUOUS
 10 
 16.7893913082577 
 20 
-17.0454530715942 
 30 
 0 
 11 
 13.6363659897627 
 21 
-19.6988838591584 
 31 
 0 
 62 
 3 
 0 
LINE
 8 
TemplateLayer
 6 
CONTINUOUS
 10 
 13.6363659897627 
 20 
-19.6988838591584 
 30 
 0 
 11 
 12.1832203651333 
 21 
-20.4545440673828 
 31 
 0 
 62 
 3 
 0 
LINE
 8 
TemplateLayer
 6 
CONTINUOUS
 10 
 12.1832203651333 
 20 
-20.4545440673828 
 30 
 0 
 11 
 10.2272749904571 
 21 
-21.6583527980966 
 31 
 0 
 62 
 3 
 0 
LINE
 8 
TemplateLayer
 6 
CONTINUOUS
 10 
 10.2272749904571 
 20 
-21.6583527980966 
 30 
 0 
 11 
 6.81818399235219 
 21 
-22.9488690664268 
 31 
 0 
 62 
 3 
 0 
LINE
 8 
TemplateLayer
 6 
CONTINUOUS
 10 
 6.81818399235219 
 20 
-22.9488690664268 
 30 
 0 
 11 
 3.40909299539038 
 21 
-23.6025180517129 
 31 
 0 
 62 
 3 
 0 
LINE
 8 
TemplateLayer
 6 
CONTINUOUS
 10 
 3.40909299539038 
 20 
-23.6025180517129 
 30 
 0 
 11 
 1.99925318294242E-06 
 21 
-23.7967484874159 
 31 
 0 
 62 
 3 
 0 
LINE
 8 
TemplateLayer
 6 
CONTINUOUS
 10 
 1.99925318294242E-06 
 20 
-23.7967484874159 
 30 
 0 
 11 
-3.40908899618117 
 21 
-23.5993993852118 
 31 
 0 
 62 
 3 
 0 
LINE
 8 
TemplateLayer
 6 
CONTINUOUS
 10 
-3.40908899618117 
 20 
-23.5993993852118 
 30 
 0 
 11 
-6.81817999078302 
 21 
-22.9382322359874 
 31 
 0 
 62 
 3 
 0 
LINE
 8 
TemplateLayer
 6 
CONTINUOUS
 10 
-6.81817999078302 
 20 
-22.9382322359874 
 30 
 0 
 11 
-10.2272709841977 
 21 
-21.6156366262083 
 31 
 0 
 62 
 3 
 0 
LINE
 8 
TemplateLayer
 6 
CONTINUOUS
 10 
-10.2272709841977 
 20 
-21.6156366262083 
 30 
 0 
 11 
-12.0880322812442 
 21 
-20.4545440673828 
 31 
 0 
 62 
 3 
 0 
LINE
 8 
TemplateLayer
 6 
CONTINUOUS
 10 
-12.0880322812442 
 20 
-20.4545440673828 
 30 
 0 
 11 
-13.6363619764169 
 21 
-19.6270232047956 
 31 
 0 
 62 
 3 
 0 
LINE
 8 
TemplateLayer
 6 
CONTINUOUS
 10 
-13.6363619764169 
 20 
-19.6270232047956 
 30 
 0 
 11 
-16.6657018024577 
 21 
-17.0454530715942 
 31 
 0 
 62 
 3 
 0 
LINE
 8 
TemplateLayer
 6 
CONTINUOUS
 10 
-16.6657018024577 
 20 
-17.0454530715942 
 30 
 0 
 11 
-17.0454529668403 
 21 
-16.6379253099622 
 31 
 0 
 62 
 3 
 0 
LINE
 8 
TemplateLayer
 6 
CONTINUOUS
 10 
-17.0454529668403 
 20 
-16.6379253099622 
 30 
 0 
 11 
-19.323358437134 
 21 
-13.6363620758057 
 31 
 0 
 62 
 3 
 0 
LINE
 8 
TemplateLayer
 6 
CONTINUOUS
 10 
-19.323358437134 
 20 
-13.6363620758057 
 30 
 0 
 11 
-20.4545439523204 
 21 
-10.8947140674171 
 31 
 0 
 62 
 3 
 0 
LINE
 8 
TemplateLayer
 6 
CONTINUOUS
 10 
-20.4545439523204 
 20 
-10.8947140674171 
 30 
 0 
 11 
-20.7785075358879 
 21 
-10.2272710800171 
 31 
 0 
 62 
 3 
 0 
LINE
 8 
TemplateLayer
 6 
CONTINUOUS
 10 
-17.6607251618787 
 20 
-6.81818008422852 
 30 
 0 
 11 
-18.3299689604697 
 21 
-3.40908908843994 
 31 
 0 
 62 
 5 
 0 
LINE
 8 
TemplateLayer
 6 
CONTINUOUS
 10 
-18.3299689604697 
 20 
-3.40908908843994 
 30 
 0 
 11 
-18.4770026969063 
 21 
 1.9073486328125E-06 
 31 
 0 
 62 
 5 
 0 
LINE
 8 
TemplateLayer
 6 
CONTINUOUS
 10 
-18.4770026969063 
 20 
 1.9073486328125E-06 
 30 
 0 
 11 
-18.0897741773365 
 21 
 3.40909290313721 
 31 
 0 
 62 
 5 
 0 
LINE
 8 
TemplateLayer
 6 
CONTINUOUS
 10 
-18.0897741773365 
 20 
 3.40909290313721 
 30 
 0 
 11 
-17.1731647099966 
 21 
 6.81818389892578 
 31 
 0 
 62 
 5 
 0 
LINE
 8 
TemplateLayer
 6 
CONTINUOUS
 10 
-17.1731647099966 
 20 
 6.81818389892578 
 30 
 0 
 11 
-17.0454529241906 
 21 
 7.12376577305118 
 31 
 0 
 62 
 5 
 0 
LINE
 8 
TemplateLayer
 6 
CONTINUOUS
 10 
-17.0454529241906 
 20 
 7.12376577305118 
 30 
 0 
 11 
-16.0310968464141 
 21 
 10.2272748947144 
 31 
 0 
 62 
 5 
 0 
LINE
 8 
TemplateLayer
 6 
CONTINUOUS
 10 
-16.0310968464141 
 20 
 10.2272748947144 
 30 
 0 
 11 
-13.6363619172335 
 21 
 13.3461343410935 
 31 
 0 
 62 
 5 
 0 
LINE
 8 
TemplateLayer
 6 
CONTINUOUS
 10 
-13.6363619172335 
 20 
 13.3461343410935 
 30 
 0 
 11 
-13.3707897695388 
 21 
 13.6363658905029 
 31 
 0 
 62 
 5 
 0 
LINE
 8 
TemplateLayer
 6 
CONTINUOUS
 10 
-13.3707897695388 
 20 
 13.6363658905029 
 30 
 0 
 11 
-10.2272709161153 
 21 
 16.3154400889724 
 31 
 0 
 62 
 5 
 0 
LINE
 8 
TemplateLayer
 6 
CONTINUOUS
 10 
-10.2272709161153 
 20 
 16.3154400889724 
 30 
 0 
 11 
-8.61223331700078 
 21 
 17.0454568862915 
 31 
 0 
 62 
 5 
 0 
LINE
 8 
TemplateLayer
 6 
CONTINUOUS
 10 
-8.61223331700078 
 20 
 17.0454568862915 
 30 
 0 
 11 
-6.81817991724194 
 21 
 18.0340858740555 
 31 
 0 
 62 
 5 
 0 
LINE
 8 
TemplateLayer
 6 
CONTINUOUS
 10 
-6.81817991724194 
 20 
 18.0340858740555 
 30 
 0 
 11 
-3.4090889196432 
 21 
 19.0425907773555 
 31 
 0 
 62 
 5 
 0 
LINE
 8 
TemplateLayer
 6 
CONTINUOUS
 10 
-3.4090889196432 
 20 
 19.0425907773555 
 30 
 0 
 11 
 2.07667374362008E-06 
 21 
 19.3369639900186 
 31 
 0 
 62 
 5 
 0 
LINE
 8 
TemplateLayer
 6 
CONTINUOUS
 10 
 2.07667374362008E-06 
 20 
 19.3369639900186 
 30 
 0 
 11 
 3.409093071949 
 21 
 19.0509752037981 
 31 
 0 
 62 
 5 
 0 
LINE
 8 
TemplateLayer
 6 
CONTINUOUS
 10 
 3.409093071949 
 20 
 19.0509752037981 
 30 
 0 
 11 
 6.81818406595304 
 21 
 18.0567490557429 
 31 
 0 
 62 
 5 
 0 
LINE
 8 
TemplateLayer
 6 
CONTINUOUS
 10 
 6.81818406595304 
 20 
 18.0567490557429 
 30 
 0 
 11 
 8.6635795949791 
 21 
 17.0454568862915 
 31 
 0 
 62 
 5 
 0 
LINE
 8 
TemplateLayer
 6 
CONTINUOUS
 10 
 8.6635795949791 
 20 
 17.0454568862915 
 30 
 0 
 11 
 10.2272750586804 
 21 
 16.3512483224521 
 31 
 0 
 62 
 5 
 0 
LINE
 8 
TemplateLayer
 6 
CONTINUOUS
 10 
 10.2272750586804 
 20 
 16.3512483224521 
 30 
 0 
 11 
 13.4697146965986 
 21 
 13.6363658905029 
 31 
 0 
 62 
 5 
 0 
LINE
 8 
TemplateLayer
 6 
CONTINUOUS
 10 
 13.4697146965986 
 20 
 13.6363658905029 
 30 
 0 
 11 
 13.636366049278 
 21 
 13.4591842799669 
 31 
 0 
 62 
 5 
 0 
LINE
 8 
TemplateLayer
 6 
CONTINUOUS
 10 
 13.636366049278 
 20 
 13.4591842799669 
 30 
 0 
 11 
 16.1529678734312 
 21 
 10.2272748947144 
 31 
 0 
 62 
 5 
 0 
LINE
 8 
TemplateLayer
 6 
CONTINUOUS
 10 
 16.1529678734312 
 20 
 10.2272748947144 
 30 
 0 
 11 
 17.0454570345803 
 21 
 7.61687625283551 
 31 
 0 
 62 
 5 
 0 
LINE
 8 
TemplateLayer
 6 
CONTINUOUS
 10 
 17.0454570345803 
 20 
 7.61687625283551 
 30 
 0 
 11 
 17.3924034479237 
 21 
 6.81818389892578 
 31 
 0 
 62 
 5 
 0 
LINE
 8 
TemplateLayer
 6 
CONTINUOUS
 10 
 17.3924034479237 
 20 
 6.81818389892578 
 30 
 0 
 11 
 18.298754899496 
 21 
 3.40909290313721 
 31 
 0 
 62 
 5 
 0 
LINE
 8 
TemplateLayer
 6 
CONTINUOUS
 10 
 18.298754899496 
 20 
 3.40909290313721 
 30 
 0 
 11 
 18.6493490871081 
 21 
 1.9073486328125E-06 
 31 
 0 
 62 
 5 
 0 
LINE
 8 
TemplateLayer
 6 
CONTINUOUS
 10 
 18.6493490871081 
 20 
 1.9073486328125E-06 
 30 
 0 
 11 
 18.4118130056923 
 21 
-3.40908908843994 
 31 
 0 
 62 
 5 
 0 
LINE
 8 
TemplateLayer
 6 
CONTINUOUS
 10 
 18.4118130056923 
 20 
-3.40908908843994 
 30 
 0 
 11 
 17.7066470005183 
 21 
-6.81818008422852 
 31 
 0 
 62 
 5 
 0 
LINE
 8 
TemplateLayer
 6 
CONTINUOUS
 10 
 17.7066470005183 
 20 
-6.81818008422852 
 30 
 0 
 11 
 17.0454570056534 
 21 
-8.49928021253324 
 31 
 0 
 62 
 5 
 0 
LINE
 8 
TemplateLayer
 6 
CONTINUOUS
 10 
 17.0454570056534 
 20 
-8.49928021253324 
 30 
 0 
 11 
 16.5219931354084 
 21 
-10.2272710800171 
 31 
 0 
 62 
 5 
 0 
LINE
 8 
TemplateLayer
 6 
CONTINUOUS
 10 
 16.5219931354084 
 20 
-10.2272710800171 
 30 
 0 
 11 
 14.1686531411805 
 21 
-13.6363620758057 
 31 
 0 
 62 
 5 
 0 
LINE
 8 
TemplateLayer
 6 
CONTINUOUS
 10 
 14.1686531411805 
 20 
-13.6363620758057 
 30 
 0 
 11 
 13.6363659996551 
 21 
-14.1874724571927 
 31 
 0 
 62 
 5 
 0 
LINE
 8 
TemplateLayer
 6 
CONTINUOUS
 10 
 13.6363659996551 
 20 
-14.1874724571927 
 30 
 0 
 11 
 10.2272749992061 
 21 
-16.7839690234599 
 31 
 0 
 62 
 5 
 0 
LINE
 8 
TemplateLayer
 6 
CONTINUOUS
 10 
 10.2272749992061 
 20 
-16.7839690234599 
 30 
 0 
 11 
 9.62441147084541 
 21 
-17.0454530715942 
 31 
 0 
 62 
 5 
 0 
LINE
 8 
TemplateLayer
 6 
CONTINUOUS
 10 
 9.62441147084541 
 20 
-17.0454530715942 
 30 
 0 
 11 
 6.81818400032928 
 21 
-18.5045487465415 
 31 
 0 
 62 
 5 
 0 
LINE
 8 
TemplateLayer
 6 
CONTINUOUS
 10 
 6.81818400032928 
 20 
-18.5045487465415 
 30 
 0 
 11 
 3.40909300303156 
 21 
-19.3453492609061 
 31 
 0 
 62 
 5 
 0 
LINE
 8 
TemplateLayer
 6 
CONTINUOUS
 10 
 3.40909300303156 
 20 
-19.3453492609061 
 30 
 0 
 11 
 2.00686042928222E-06 
 21 
-19.55848447114 
 31 
 0 
 62 
 5 
 0 
LINE
 8 
TemplateLayer
 6 
CONTINUOUS
 10 
 2.00686042928222E-06 
 20 
-19.55848447114 
 30 
 0 
 11 
-3.40908898848602 
 21 
-19.3121633737278 
 31 
 0 
 62 
 5 
 0 
LINE
 8 
TemplateLayer
 6 
CONTINUOUS
 10 
-3.40908898848602 
 20 
-19.3121633737278 
 30 
 0 
 11 
-6.81817998270553 
 21 
-18.4379789579081 
 31 
 0 
 62 
 5 
 0 
LINE
 8 
TemplateLayer
 6 
CONTINUOUS
 10 
-6.81817998270553 
 20 
-18.4379789579081 
 30 
 0 
 11 
-9.47063402438312 
 21 
-17.0454530715942 
 31 
 0 
 62 
 5 
 0 
LINE
 8 
TemplateLayer
 6 
CONTINUOUS
 10 
-9.47063402438312 
 20 
-17.0454530715942 
 30 
 0 
 11 
-10.2272709754073 
 21 
-16.718218036445 
 31 
 0 
 62 
 5 
 0 
LINE
 8 
TemplateLayer
 6 
CONTINUOUS
 10 
-10.2272709754073 
 20 
-16.718218036445 
 30 
 0 
 11 
-13.6363619664339 
 21 
-14.0651326204309 
 31 
 0 
 62 
 5 
 0 
LINE
 8 
TemplateLayer
 6 
CONTINUOUS
 10 
-13.6363619664339 
 20 
-14.0651326204309 
 30 
 0 
 11 
-14.0502284041883 
 21 
-13.6363620758057 
 31 
 0 
 62 
 5 
 0 
LINE
 8 
TemplateLayer
 6 
CONTINUOUS
 10 
-14.0502284041883 
 20 
-13.6363620758057 
 30 
 0 
 11 
-16.4821108477518 
 21 
-10.2272710800171 
 31 
 0 
 62 
 5 
 0 
LINE
 8 
TemplateLayer
 6 
CONTINUOUS
 10 
-16.4821108477518 
 20 
-10.2272710800171 
 30 
 0 
 11 
-17.0454529520062 
 21 
-8.37329500414843 
 31 
 0 
 62 
 5 
 0 
LINE
 8 
TemplateLayer
 6 
CONTINUOUS
 10 
-17.0454529520062 
 20 
-8.37329500414843 
 30 
 0 
 11 
-17.6607251618787 
 21 
-6.81818008422852 
 31 
 0 
 62 
 5 
 0 
LINE
 8 
TemplateLayer
 6 
CONTINUOUS
 10 
-13.9230535651337 
 20 
-6.81818008422852 
 30 
 0 
 11 
-14.8028405829926 
 21 
-3.40908908843994 
 31 
 0 
 62 
 6 
 0 
LINE
 8 
TemplateLayer
 6 
CONTINUOUS
 10 
-14.8028405829926 
 20 
-3.40908908843994 
 30 
 0 
 11 
-15.1719635903746 
 21 
 1.9073486328125E-06 
 31 
 0 
 62 
 6 
 0 
LINE
 8 
TemplateLayer
 6 
CONTINUOUS
 10 
-15.1719635903746 
 20 
 1.9073486328125E-06 
 30 
 0 
 11 
-14.5624500315977 
 21 
 3.40909290313721 
 31 
 0 
 62 
 6 
 0 
LINE
 8 
TemplateLayer
 6 
CONTINUOUS
 10 
-14.5624500315977 
 20 
 3.40909290313721 
 30 
 0 
 11 
-13.6363619297999 
 21 
 6.34496229656872 
 31 
 0 
 62 
 6 
 0 
LINE
 8 
TemplateLayer
 6 
CONTINUOUS
 10 
-13.6363619297999 
 20 
 6.34496229656872 
 30 
 0 
 11 
-13.5421309606325 
 21 
 6.81818389892578 
 31 
 0 
 62 
 6 
 0 
LINE
 8 
TemplateLayer
 6 
CONTINUOUS
 10 
-13.5421309606325 
 20 
 6.81818389892578 
 30 
 0 
 11 
-11.6236498694128 
 21 
 10.2272748947144 
 31 
 0 
 62 
 6 
 0 
LINE
 8 
TemplateLayer
 6 
CONTINUOUS
 10 
-11.6236498694128 
 20 
 10.2272748947144 
 30 
 0 
 11 
-10.2272709244254 
 21 
 11.6855940896592 
 31 
 0 
 62 
 6 
 0 
LINE
 8 
TemplateLayer
 6 
CONTINUOUS
 10 
-10.2272709244254 
 20 
 11.6855940896592 
 30 
 0 
 11 
-7.2856159721303 
 21 
 13.6363658905029 
 31 
 0 
 62 
 6 
 0 
LINE
 8 
TemplateLayer
 6 
CONTINUOUS
 10 
-7.2856159721303 
 20 
 13.6363658905029 
 30 
 0 
 11 
-6.81817992457836 
 21 
 13.9467078877776 
 31 
 0 
 62 
 6 
 0 
LINE
 8 
TemplateLayer
 6 
CONTINUOUS
 10 
-6.81817992457836 
 20 
 13.9467078877776 
 30 
 0 
 11 
-3.40908892625522 
 21 
 15.3587996864188 
 31 
 0 
 62 
 6 
 0 
LINE
 8 
TemplateLayer
 6 
CONTINUOUS
 10 
-3.40908892625522 
 20 
 15.3587996864188 
 30 
 0 
 11 
 2.07017965977996E-06 
 21 
 15.7188818848767 
 31 
 0 
 62 
 6 
 0 
LINE
 8 
TemplateLayer
 6 
CONTINUOUS
 10 
 2.07017965977996E-06 
 20 
 15.7188818848767 
 30 
 0 
 11 
 3.40909306535097 
 21 
 15.3749844567584 
 31 
 0 
 62 
 6 
 0 
LINE
 8 
TemplateLayer
 6 
CONTINUOUS
 10 
 3.40909306535097 
 20 
 15.3749844567584 
 30 
 0 
 11 
 6.81818405863951 
 21 
 13.9821277432395 
 31 
 0 
 62 
 6 
 0 
LINE
 8 
TemplateLayer
 6 
CONTINUOUS
 10 
 6.81818405863951 
 20 
 13.9821277432395 
 30 
 0 
 11 
 7.34420453515079 
 21 
 13.6363658905029 
 31 
 0 
 62 
 6 
 0 
LINE
 8 
TemplateLayer
 6 
CONTINUOUS
 10 
 7.34420453515079 
 20 
 13.6363658905029 
 30 
 0 
 11 
 10.2272750504028 
 21 
 11.7394895969632 
 31 
 0 
 62 
 6 
 0 
LINE
 8 
TemplateLayer
 6 
CONTINUOUS
 10 
 10.2272750504028 
 20 
 11.7394895969632 
 30 
 0 
 11 
 11.6944522879725 
 21 
 10.2272748947144 
 31 
 0 
 62 
 6 
 0 
LINE
 8 
TemplateLayer
 6 
CONTINUOUS
 10 
 11.6944522879725 
 20 
 10.2272748947144 
 30 
 0 
 11 
 13.6301461281535 
 21 
 6.81818389892578 
 31 
 0 
 62 
 6 
 0 
LINE
 8 
TemplateLayer
 6 
CONTINUOUS
 10 
 13.6301461281535 
 20 
 6.81818389892578 
 30 
 0 
 11 
 13.6363660373011 
 21 
 6.78643698036296 
 31 
 0 
 62 
 6 
 0 
LINE
 8 
TemplateLayer
 6 
CONTINUOUS
 10 
 13.6363660373011 
 20 
 6.78643698036296 
 30 
 0 
 11 
 14.7037728923552 
 21 
 3.40909290313721 
 31 
 0 
 62 
 6 
 0 
LINE
 8 
TemplateLayer
 6 
CONTINUOUS
 10 
 14.7037728923552 
 20 
 3.40909290313721 
 30 
 0 
 11 
 15.3075950182288 
 21 
 1.9073486328125E-06 
 31 
 0 
 62 
 6 
 0 
LINE
 8 
TemplateLayer
 6 
CONTINUOUS
 10 
 15.3075950182288 
 20 
 1.9073486328125E-06 
 30 
 0 
 11 
 14.8592600255723 
 21 
-3.40908908843994 
 31 
 0 
 62 
 6 
 0 
LINE
 8 
TemplateLayer
 6 
CONTINUOUS
 10 
 14.8592600255723 
 20 
-3.40908908843994 
 30 
 0 
 11 
 13.9409084664759 
 21 
-6.81818008422852 
 31 
 0 
 62 
 6 
 0 
LINE
 8 
TemplateLayer
 6 
CONTINUOUS
 10 
 13.9409084664759 
 20 
-6.81818008422852 
 30 
 0 
 11 
 13.6363660118785 
 21 
-7.37741948893688 
 31 
 0 
 62 
 6 
 0 
LINE
 8 
TemplateLayer
 6 
CONTINUOUS
 10 
 13.6363660118785 
 20 
-7.37741948893688 
 30 
 0 
 11 
 12.2177442927629 
 21 
-10.2272710800171 
 31 
 0 
 62 
 6 
 0 
LINE
 8 
TemplateLayer
 6 
CONTINUOUS
 10 
 12.2177442927629 
 20 
-10.2272710800171 
 30 
 0 
 11 
 10.2272750071862 
 21 
-12.3379622041999 
 31 
 0 
 62 
 6 
 0 
LINE
 8 
TemplateLayer
 6 
CONTINUOUS
 10 
 10.2272750071862 
 20 
-12.3379622041999 
 30 
 0 
 11 
 8.2968438442311 
 21 
-13.6363620758057 
 31 
 0 
 62 
 6 
 0 
LINE
 8 
TemplateLayer
 6 
CONTINUOUS
 10 
 8.2968438442311 
 20 
-13.6363620758057 
 30 
 0 
 11 
 6.81818400734811 
 21 
-14.5941161992354 
 31 
 0 
 62 
 6 
 0 
LINE
 8 
TemplateLayer
 6 
CONTINUOUS
 10 
 6.81818400734811 
 20 
-14.5941161992354 
 30 
 0 
 11 
 3.40909300937185 
 21 
-15.8129495687213 
 31 
 0 
 62 
 6 
 0 
LINE
 8 
TemplateLayer
 6 
CONTINUOUS
 10 
 3.40909300937185 
 20 
-15.8129495687213 
 30 
 0 
 11 
 2.01313612655657E-06 
 21 
-16.0620731885772 
 31 
 0 
 62 
 6 
 0 
LINE
 8 
TemplateLayer
 6 
CONTINUOUS
 10 
 2.01313612655657E-06 
 20 
-16.0620731885772 
 30 
 0 
 11 
-3.40908898214455 
 21 
-15.7791030601771 
 31 
 0 
 62 
 6 
 0 
LINE
 8 
TemplateLayer
 6 
CONTINUOUS
 10 
-3.40908898214455 
 20 
-15.7791030601771 
 30 
 0 
 11 
-6.81817997571078 
 21 
-14.5409589851932 
 31 
 0 
 62 
 6 
 0 
LINE
 8 
TemplateLayer
 6 
CONTINUOUS
 10 
-6.81817997571078 
 20 
-14.5409589851932 
 30 
 0 
 11 
-8.20785435941342 
 21 
-13.6363620758057 
 31 
 0 
 62 
 6 
 0 
LINE
 8 
TemplateLayer
 6 
CONTINUOUS
 10 
-8.20785435941342 
 20 
-13.6363620758057 
 30 
 0 
 11 
-10.2272709674344 
 21 
-12.2762463185394 
 31 
 0 
 62 
 6 
 0 
LINE
 8 
TemplateLayer
 6 
CONTINUOUS
 10 
-10.2272709674344 
 20 
-12.2762463185394 
 30 
 0 
 11 
-12.1783501496319 
 21 
-10.2272710800171 
 31 
 0 
 62 
 6 
 0 
LINE
 8 
TemplateLayer
 6 
CONTINUOUS
 10 
-12.1783501496319 
 20 
-10.2272710800171 
 30 
 0 
 11 
-13.6363619543656 
 21 
-7.34150023279896 
 31 
 0 
 62 
 6 
 0 
LINE
 8 
TemplateLayer
 6 
CONTINUOUS
 10 
-13.6363619543656 
 20 
-7.34150023279896 
 30 
 0 
 11 
-13.9230535651337 
 21 
-6.81818008422852 
 31 
 0 
 62 
 6 
 0 
LINE
 8 
TemplateLayer
 6 
CONTINUOUS
 10 
-10.2758887843735 
 20 
-3.40908908843994 
 30 
 0 
 11 
-10.9819222365485 
 21 
 1.9073486328125E-06 
 31 
 0 
 62 
 214 
 0 
LINE
 8 
TemplateLayer
 6 
CONTINUOUS
 10 
-10.9819222365485 
 20 
 1.9073486328125E-06 
 30 
 0 
 11 
-10.2272709402635 
 21 
 2.86161655903592 
 31 
 0 
 62 
 214 
 0 
LINE
 8 
TemplateLayer
 6 
CONTINUOUS
 10 
-10.2272709402635 
 20 
 2.86161655903592 
 30 
 0 
 11 
-10.1409109397323 
 21 
 3.40909290313721 
 31 
 0 
 62 
 214 
 0 
LINE
 8 
TemplateLayer
 6 
CONTINUOUS
 10 
-10.1409109397323 
 20 
 3.40909290313721 
 30 
 0 
 11 
-8.93179541532469 
 21 
 6.81818389892578 
 31 
 0 
 62 
 214 
 0 
LINE
 8 
TemplateLayer
 6 
CONTINUOUS
 10 
-8.93179541532469 
 20 
 6.81818389892578 
 30 
 0 
 11 
-6.81817993348922 
 21 
 8.98215508880025 
 31 
 0 
 62 
 214 
 0 
LINE
 8 
TemplateLayer
 6 
CONTINUOUS
 10 
-6.81817993348922 
 20 
 8.98215508880025 
 30 
 0 
 11 
-4.15994700282241 
 21 
 10.2272748947144 
 31 
 0 
 62 
 214 
 0 
LINE
 8 
TemplateLayer
 6 
CONTINUOUS
 10 
-4.15994700282241 
 20 
 10.2272748947144 
 30 
 0 
 11 
-3.4090889347087 
 21 
 10.6490697806835 
 31 
 0 
 62 
 214 
 0 
LINE
 8 
TemplateLayer
 6 
CONTINUOUS
 10 
-3.4090889347087 
 20 
 10.6490697806835 
 30 
 0 
 11 
 2.06228098865308E-06 
 21 
 11.3182548890923 
 31 
 0 
 62 
 214 
 0 
LINE
 8 
TemplateLayer
 6 
CONTINUOUS
 10 
 2.06228098865308E-06 
 20 
 11.3182548890923 
 30 
 0 
 11 
 3.40909305688862 
 21 
 10.6603097541126 
 31 
 0 
 62 
 214 
 0 
LINE
 8 
TemplateLayer
 6 
CONTINUOUS
 10 
 3.40909305688862 
 20 
 10.6603097541126 
 30 
 0 
 11 
 4.1828231949122 
 21 
 10.2272748947144 
 31 
 0 
 62 
 214 
 0 
LINE
 8 
TemplateLayer
 6 
CONTINUOUS
 10 
 4.1828231949122 
 20 
 10.2272748947144 
 30 
 0 
 11 
 6.81818404975646 
 21 
 9.03306433561498 
 31 
 0 
 62 
 214 
 0 
LINE
 8 
TemplateLayer
 6 
CONTINUOUS
 10 
 6.81818404975646 
 20 
 9.03306433561498 
 30 
 0 
 11 
 9.03936117589792 
 21 
 6.81818389892578 
 31 
 0 
 62 
 214 
 0 
LINE
 8 
TemplateLayer
 6 
CONTINUOUS
 10 
 9.03936117589792 
 20 
 6.81818389892578 
 30 
 0 
 11 
 10.1827789037096 
 21 
 3.40909290313721 
 31 
 0 
 62 
 214 
 0 
LINE
 8 
TemplateLayer
 6 
CONTINUOUS
 10 
 10.1827789037096 
 20 
 3.40909290313721 
 30 
 0 
 11 
 10.227275034979 
 21 
 3.14637302195693 
 31 
 0 
 62 
 214 
 0 
LINE
 8 
TemplateLayer
 6 
CONTINUOUS
 10 
 10.227275034979 
 20 
 3.14637302195693 
 30 
 0 
 11 
 11.1042381252523 
 21 
 1.9073486328125E-06 
 31 
 0 
 62 
 214 
 0 
LINE
 8 
TemplateLayer
 6 
CONTINUOUS
 10 
 11.1042381252523 
 20 
 1.9073486328125E-06 
 30 
 0 
 11 
 10.3299454704714 
 21 
-3.40908908843994 
 31 
 0 
 62 
 214 
 0 
LINE
 8 
TemplateLayer
 6 
CONTINUOUS
 10 
 10.3299454704714 
 20 
-3.40908908843994 
 30 
 0 
 11 
 10.2272750227676 
 21 
-3.65705727383497 
 31 
 0 
 62 
 214 
 0 
LINE
 8 
TemplateLayer
 6 
CONTINUOUS
 10 
 10.2272750227676 
 20 
-3.65705727383497 
 30 
 0 
 11 
 9.20128003616107 
 21 
-6.81818008422852 
 31 
 0 
 62 
 214 
 0 
LINE
 8 
TemplateLayer
 6 
CONTINUOUS
 10 
 9.20128003616107 
 20 
-6.81818008422852 
 30 
 0 
 11 
 6.81818401675912 
 21 
-9.35090811293064 
 31 
 0 
 62 
 214 
 0 
LINE
 8 
TemplateLayer
 6 
CONTINUOUS
 10 
 6.81818401675912 
 20 
-9.35090811293064 
 30 
 0 
 11 
 5.09987303678948 
 21 
-10.2272710800171 
 31 
 0 
 62 
 214 
 0 
LINE
 8 
TemplateLayer
 6 
CONTINUOUS
 10 
 5.09987303678948 
 20 
-10.2272710800171 
 30 
 0 
 11 
 3.40909301766471 
 21 
-11.1927082850081 
 31 
 0 
 62 
 214 
 0 
LINE
 8 
TemplateLayer
 6 
CONTINUOUS
 10 
 3.40909301766471 
 20 
-11.1927082850081 
 30 
 0 
 11 
 2.02085830851295E-06 
 21 
-11.7597745060495 
 31 
 0 
 62 
 214 
 0 
LINE
 8 
TemplateLayer
 6 
CONTINUOUS
 10 
 2.02085830851295E-06 
 20 
-11.7597745060495 
 30 
 0 
 11 
-3.40908897387512 
 21 
-11.1719182919485 
 31 
 0 
 62 
 214 
 0 
LINE
 8 
TemplateLayer
 6 
CONTINUOUS
 10 
-3.40908897387512 
 20 
-11.1719182919485 
 30 
 0 
 11 
-5.06519790311463 
 21 
-10.2272710800171 
 31 
 0 
 62 
 214 
 0 
LINE
 8 
TemplateLayer
 6 
CONTINUOUS
 10 
-5.06519790311463 
 20 
-10.2272710800171 
 30 
 0 
 11 
-6.81817996636811 
 21 
-9.3358292427467 
 31 
 0 
 62 
 214 
 0 
LINE
 8 
TemplateLayer
 6 
CONTINUOUS
 10 
-6.81817996636811 
 20 
-9.3358292427467 
 30 
 0 
 11 
-9.19804459254883 
 21 
-6.81818008422852 
 31 
 0 
 62 
 214 
 0 
LINE
 8 
TemplateLayer
 6 
CONTINUOUS
 10 
-9.19804459254883 
 20 
-6.81818008422852 
 30 
 0 
 11 
-10.2272709517365 
 21 
-3.53035696477157 
 31 
 0 
 62 
 214 
 0 
LINE
 8 
TemplateLayer
 6 
CONTINUOUS
 10 
-10.2272709517365 
 20 
-3.53035696477157 
 30 
 0 
 11 
-10.2758887843735 
 21 
-3.40908908843994 
 31 
 0 
 62 
 214 
 0 
LINE
 8 
TemplateLayer
 6 
CONTINUOUS
 10 
-7.00584984699568 
 20 
-3.40908908843994 
 30 
 0 
 11 
-7.93471616467193 
 21 
 1.9073486328125E-06 
 31 
 0 
 62 
 30 
 0 
LINE
 8 
TemplateLayer
 6 
CONTINUOUS
 10 
-7.93471616467193 
 20 
 1.9073486328125E-06 
 30 
 0 
 11 
-6.81937541955251 
 21 
 3.40909290313721 
 31 
 0 
 62 
 30 
 0 
LINE
 8 
TemplateLayer
 6 
CONTINUOUS
 10 
-6.81937541955251 
 20 
 3.40909290313721 
 30 
 0 
 11 
-6.81817994348859 
 21 
 3.41115375316905 
 31 
 0 
 62 
 30 
 0 
LINE
 8 
TemplateLayer
 6 
CONTINUOUS
 10 
-6.81817994348859 
 20 
 3.41115375316905 
 30 
 0 
 11 
-4.27788367666346 
 21 
 6.81818389892578 
 31 
 0 
 62 
 30 
 0 
LINE
 8 
TemplateLayer
 6 
CONTINUOUS
 10 
-4.27788367666346 
 20 
 6.81818389892578 
 30 
 0 
 11 
-3.40908894049023 
 21 
 7.4279775061143 
 31 
 0 
 62 
 30 
 0 
LINE
 8 
TemplateLayer
 6 
CONTINUOUS
 10 
-3.40908894049023 
 20 
 7.4279775061143 
 30 
 0 
 11 
 2.05690324438235E-06 
 21 
 8.32212475320244 
 31 
 0 
 62 
 30 
 0 
LINE
 8 
TemplateLayer
 6 
CONTINUOUS
 10 
 2.05690324438235E-06 
 20 
 8.32212475320244 
 30 
 0 
 11 
 3.40909305115974 
 21 
 7.46854897276005 
 31 
 0 
 62 
 30 
 0 
LINE
 8 
TemplateLayer
 6 
CONTINUOUS
 10 
 3.40909305115974 
 20 
 7.46854897276005 
 30 
 0 
 11 
 4.35351402330136 
 21 
 6.81818389892578 
 31 
 0 
 62 
 30 
 0 
LINE
 8 
TemplateLayer
 6 
CONTINUOUS
 10 
 4.35351402330136 
 20 
 6.81818389892578 
 30 
 0 
 11 
 6.81818403981548 
 21 
 3.49459834557257 
 31 
 0 
 62 
 30 
 0 
LINE
 8 
TemplateLayer
 6 
CONTINUOUS
 10 
 6.81818403981548 
 20 
 3.49459834557257 
 30 
 0 
 11 
 6.86712317588066 
 21 
 3.40909290313721 
 31 
 0 
 62 
 30 
 0 
LINE
 8 
TemplateLayer
 6 
CONTINUOUS
 10 
 6.86712317588066 
 20 
 3.40909290313721 
 30 
 0 
 11 
 8.02158127329349 
 21 
 1.9073486328125E-06 
 31 
 0 
 62 
 30 
 0 
LINE
 8 
TemplateLayer
 6 
CONTINUOUS
 10 
 8.02158127329349 
 20 
 1.9073486328125E-06 
 30 
 0 
 11 
 7.03355681719688 
 21 
-3.40908908843994 
 31 
 0 
 62 
 30 
 0 
LINE
 8 
TemplateLayer
 6 
CONTINUOUS
 10 
 7.03355681719688 
 20 
-3.40908908843994 
 30 
 0 
 11 
 6.81818402674023 
 21 
-3.79008464372335 
 31 
 0 
 62 
 30 
 0 
LINE
 8 
TemplateLayer
 6 
CONTINUOUS
 10 
 6.81818402674023 
 20 
-3.79008464372335 
 30 
 0 
 11 
 4.63442140447503 
 21 
-6.81818008422852 
 31 
 0 
 62 
 30 
 0 
LINE
 8 
TemplateLayer
 6 
CONTINUOUS
 10 
 4.63442140447503 
 20 
-6.81818008422852 
 30 
 0 
 11 
 3.40909302392113 
 21 
-7.70703550096466 
 31 
 0 
 62 
 30 
 0 
LINE
 8 
TemplateLayer
 6 
CONTINUOUS
 10 
 3.40909302392113 
 20 
-7.70703550096466 
 30 
 0 
 11 
 2.02661662883352E-06 
 21 
-8.55161208811319 
 31 
 0 
 62 
 30 
 0 
LINE
 8 
TemplateLayer
 6 
CONTINUOUS
 10 
 2.02661662883352E-06 
 20 
-8.55161208811319 
 30 
 0 
 11 
-3.40908896763658 
 21 
-7.69620755088094 
 31 
 0 
 62 
 30 
 0 
LINE
 8 
TemplateLayer
 6 
CONTINUOUS
 10 
-3.40908896763658 
 20 
-7.69620755088094 
 30 
 0 
 11 
-4.62127868191035 
 21 
-6.81818008422852 
 31 
 0 
 62 
 30 
 0 
LINE
 8 
TemplateLayer
 6 
CONTINUOUS
 10 
-4.62127868191035 
 20 
-6.81818008422852 
 30 
 0 
 11 
-6.81817995633229 
 21 
-3.74452143555003 
 31 
 0 
 62 
 30 
 0 
LINE
 8 
TemplateLayer
 6 
CONTINUOUS
 10 
-6.81817995633229 
 20 
-3.74452143555003 
 30 
 0 
 11 
-7.00584984699568 
 21 
-3.40908908843994 
 31 
 0 
 62 
 30 
 0 
LINE
 8 
TemplateLayer
 6 
CONTINUOUS
 10 
-4.09781178248422 
 20 
 1.9073486328125E-06 
 30 
 0 
 11 
-3.40908895120367 
 21 
 1.45914328052929 
 31 
 0 
 62 
 94 
 0 
LINE
 8 
TemplateLayer
 6 
CONTINUOUS
 10 
-3.40908895120367 
 20 
 1.45914328052929 
 30 
 0 
 11 
-1.25270793955253 
 21 
 3.40909290313721 
 31 
 0 
 62 
 94 
 0 
LINE
 8 
TemplateLayer
 6 
CONTINUOUS
 10 
-1.25270793955253 
 20 
 3.40909290313721 
 30 
 0 
 11 
 2.04921764497545E-06 
 21 
 4.04020749456865 
 31 
 0 
 62 
 94 
 0 
LINE
 8 
TemplateLayer
 6 
CONTINUOUS
 10 
 2.04921764497545E-06 
 20 
 4.04020749456865 
 30 
 0 
 11 
 1.27456153482381 
 21 
 3.40909290313721 
 31 
 0 
 62 
 94 
 0 
LINE
 8 
TemplateLayer
 6 
CONTINUOUS
 10 
 1.27456153482381 
 20 
 3.40909290313721 
 30 
 0 
 11 
 3.40909304051847 
 21 
 1.53992481079307 
 31 
 0 
 62 
 94 
 0 
LINE
 8 
TemplateLayer
 6 
CONTINUOUS
 10 
 3.40909304051847 
 20 
 1.53992481079307 
 30 
 0 
 11 
 4.15003555995305 
 21 
 1.9073486328125E-06 
 31 
 0 
 62 
 94 
 0 
LINE
 8 
TemplateLayer
 6 
CONTINUOUS
 10 
 4.15003555995305 
 20 
 1.9073486328125E-06 
 30 
 0 
 11 
 3.4090930347041 
 21 
-1.69946383648839 
 31 
 0 
 62 
 94 
 0 
LINE
 8 
TemplateLayer
 6 
CONTINUOUS
 10 
 3.4090930347041 
 20 
-1.69946383648839 
 30 
 0 
 11 
 1.67348593988135 
 21 
-3.40908908843994 
 31 
 0 
 62 
 94 
 0 
LINE
 8 
TemplateLayer
 6 
CONTINUOUS
 10 
 1.67348593988135 
 20 
-3.40908908843994 
 30 
 0 
 11 
 2.03434071826408E-06 
 21 
-4.24825068402804 
 31 
 0 
 62 
 94 
 0 
LINE
 8 
TemplateLayer
 6 
CONTINUOUS
 10 
 2.03434071826408E-06 
 20 
-4.24825068402804 
 30 
 0 
 11 
-1.66279167155988 
 21 
-3.40908908843994 
 31 
 0 
 62 
 94 
 0 
LINE
 8 
TemplateLayer
 6 
CONTINUOUS
 10 
-1.66279167155988 
 20 
-3.40908908843994 
 30 
 0 
 11 
-3.40908895674881 
 21 
-1.63024875839736 
 31 
 0 
 62 
 94 
 0 
LINE
 8 
TemplateLayer
 6 
CONTINUOUS
 10 
-3.40908895674881 
 20 
-1.63024875839736 
 30 
 0 
 11 
-4.09781178248422 
 21 
 1.9073486328125E-06 
 31 
 0 
 62 
 94 
 0 
TEXT
 8 
TemplateLayer
 10 
-3.40908888615145 
 20 
 36.7168375445982 
 30 
 0 
 40 
 1.33 
 50 
 0 
 62 
 7 
 1 
.1
 0 
TEXT
 8 
TemplateLayer
 10 
-3.40908889829257 
 20 
 29.95258928654 
 30 
 0 
 40 
 1.33 
 50 
 0 
 62 
 1 
 1 
.2
 0 
TEXT
 8 
TemplateLayer
 10 
-20.7785075358879 
 20 
-11.2124562969914 
 30 
 0 
 40 
 1.33 
 50 
 0 
 62 
 3 
 1 
.5
 0 
TEXT
 8 
TemplateLayer
 10 
-17.6607251618787 
 20 
-7.80336530120284 
 30 
 0 
 40 
 1.33 
 50 
 0 
 62 
 5 
 1 
1
 0 
TEXT
 8 
TemplateLayer
 10 
-13.9230535651337 
 20 
-7.80336530120284 
 30 
 0 
 40 
 1.33 
 50 
 0 
 62 
 6 
 1 
2
 0 
TEXT
 8 
TemplateLayer
 10 
-10.2758887843735 
 20 
-4.39427430541427 
 30 
 0 
 40 
 1.33 
 50 
 0 
 62 
 214 
 1 
5
 0 
TEXT
 8 
TemplateLayer
 10 
-7.00584984699568 
 20 
-4.39427430541427 
 30 
 0 
 40 
 1.33 
 50 
 0 
 62 
 30 
 1 
10
 0 
TEXT
 8 
TemplateLayer
 10 
-4.09781178248422 
 20 
-0.985183309625696 
 30 
 0 
 40 
 1.33 
 50 
 0 
 62 
 94 
 1 
20
 0 
LINE
 8 
TemplateLayer
 6 
CONTINUOUS
 10 
 0 
 20 
 0 
 30 
 0 
 11 
 2 
 21 
 0 
 31 
 0 
 62 
 0 
 0 
LINE
 8 
TemplateLayer
 6 
CONTINUOUS
 10 
 2 
 20 
 0 
 30 
 0 
 11 
 1 
 21 
 0.5 
 31 
 0 
 62 
 0 
 0 
LINE
 8 
TemplateLayer
 6 
CONTINUOUS
 10 
 1 
 20 
 0.5 
 30 
 0 
 11 
 1 
 21 
-0.5 
 31 
 0 
 62 
 0 
 0 
LINE
 8 
TemplateLayer
 6 
CONTINUOUS
 10 
 1 
 20 
-0.5 
 30 
 0 
 11 
 2 
 21 
 0 
 31 
 0 
 62 
 0 
 0 
LINE
 8 
TemplateLayer
 6 
CONTINUOUS
 10 
-0.100000001490116 
 20 
 0.100000001490116 
 30 
 0 
 11 
 0.100000001490116 
 21 
 0.100000001490116 
 31 
 0 
 62 
 0 
 0 
LINE
 8 
TemplateLayer
 6 
CONTINUOUS
 10 
 0.100000001490116 
 20 
 0.100000001490116 
 30 
 0 
 11 
 0.100000001490116 
 21 
-0.100000001490116 
 31 
 0 
 62 
 0 
 0 
LINE
 8 
TemplateLayer
 6 
CONTINUOUS
 10 
 0.100000001490116 
 20 
-0.100000001490116 
 30 
 0 
 11 
-0.100000001490116 
 21 
-0.100000001490116 
 31 
 0 
 62 
 0 
 0 
LINE
 8 
TemplateLayer
 6 
CONTINUOUS
 10 
-0.100000001490116 
 20 
-0.100000001490116 
 30 
 0 
 11 
-0.100000001490116 
 21 
 0.100000001490116 
 31 
 0 
 62 
 0 
 0 
LINE
 8 
TemplateLayer
 6 
CONTINUOUS
 10 
 0 
 20 
 0 
 30 
 0 
 11 
 0 
 21 
 0 
 31 
 0 
 62 
 0 
 0 
ENDBLK
 0 
ENDSEC
 0 
SECTION
 2 
ENTITIES
 0 
INSERT
 2 
Template
 6 
CONTINUOUS
 8 
TemplateLayer
 10 
 0 
 20 
 0 
 30 
 0 
 41 
 1 
 42 
 1 
 43 
 1 
 50 
 0 
 0 
ENDSEC
 0 
EOF
