 0 
SECTION
 2 
HEADER
 9 
$LUNITS
 70 
 2 
 0 
ENDSEC
 0 
SECTION
 2 
TABLES
 0 
TABLE
 2 
LTYPE
 70 
 1 
 0 
LTYPE
 2 
CONTINUOUS
 70 
 0 
 3 
Solid line
 72 
 65 
 73 
 0 
 40 
 0 
 0 
ENDTAB
 0 
TABLE
 2 
LAYER
 70 
 0 
 0 
LAYER
 2 
TemplateLayer
 62 
 7 
 6 
CONTINUOUS
 70 
 0 
 0 
ENDTAB
 0 
ENDSEC
 0 
SECTION
 2 
BLOCKS
 0 
BLOCK
 8 
TemplateLayer
 2 
Template
 70 
 0 
 10 
 0 
 20 
 0 
 30 
 0 
 0 
LINE
 8 
TemplateLayer
 6 
CONTINUOUS
 10 
-3.40908890384823 
 20 
 27.8425209542995 
 30 
 0 
 11 
 2.09241005426353E-06 
 21 
 28.1042151298223 
 31 
 0 
 62 
 7 
 0 
LINE
 8 
TemplateLayer
 6 
CONTINUOUS
 10 
 2.09241005426353E-06 
 20 
 28.1042151298223 
 30 
 0 
 11 
 3.40909308763278 
 21 
 27.7889636260647 
 31 
 0 
 62 
 7 
 0 
LINE
 8 
TemplateLayer
 6 
CONTINUOUS
 10 
 3.40909308763278 
 20 
 27.7889636260647 
 30 
 0 
 11 
 5.51004365578144 
 21 
 27.2727298736572 
 31 
 0 
 62 
 7 
 0 
LINE
 8 
TemplateLayer
 6 
CONTINUOUS
 10 
 5.51004365578144 
 20 
 27.2727298736572 
 30 
 0 
 11 
 6.81818408211592 
 21 
 27.0616602451597 
 31 
 0 
 62 
 7 
 0 
LINE
 8 
TemplateLayer
 6 
CONTINUOUS
 10 
 6.81818408211592 
 20 
 27.0616602451597 
 30 
 0 
 11 
 10.227275075974 
 21 
 25.9861255293504 
 31 
 0 
 62 
 7 
 0 
LINE
 8 
TemplateLayer
 6 
CONTINUOUS
 10 
 10.227275075974 
 20 
 25.9861255293504 
 30 
 0 
 11 
 13.6363660682481 
 21 
 24.0280640185297 
 31 
 0 
 62 
 7 
 0 
LINE
 8 
TemplateLayer
 6 
CONTINUOUS
 10 
 13.6363660682481 
 20 
 24.0280640185297 
 30 
 0 
 11 
 13.8636381989382 
 21 
 23.8636388778687 
 31 
 0 
 62 
 7 
 0 
LINE
 8 
TemplateLayer
 6 
CONTINUOUS
 10 
 13.8636381989382 
 20 
 23.8636388778687 
 30 
 0 
 11 
 17.0454570597509 
 21 
 21.6403184574472 
 31 
 0 
 62 
 7 
 0 
LINE
 8 
TemplateLayer
 6 
CONTINUOUS
 10 
 17.0454570597509 
 20 
 21.6403184574472 
 30 
 0 
 11 
 18.3055826872833 
 21 
 20.4545478820801 
 31 
 0 
 62 
 7 
 0 
LINE
 8 
TemplateLayer
 6 
CONTINUOUS
 10 
 18.3055826872833 
 20 
 20.4545478820801 
 30 
 0 
 11 
 20.4545480490985 
 21 
 18.0518306189026 
 31 
 0 
 62 
 7 
 0 
LINE
 8 
TemplateLayer
 6 
CONTINUOUS
 10 
 20.4545480490985 
 20 
 18.0518306189026 
 30 
 0 
 11 
 21.256687193013 
 21 
 17.0454568862915 
 31 
 0 
 62 
 7 
 0 
LINE
 8 
TemplateLayer
 6 
CONTINUOUS
 10 
 21.256687193013 
 20 
 17.0454568862915 
 30 
 0 
 11 
 23.3522753367941 
 21 
 13.6363658905029 
 31 
 0 
 62 
 7 
 0 
LINE
 8 
TemplateLayer
 6 
CONTINUOUS
 10 
 23.3522753367941 
 20 
 13.6363658905029 
 30 
 0 
 11 
 23.8636390346556 
 21 
 12.3515326519441 
 31 
 0 
 62 
 7 
 0 
LINE
 8 
TemplateLayer
 6 
CONTINUOUS
 10 
 23.8636390346556 
 20 
 12.3515326519441 
 30 
 0 
 11 
 24.8997352894632 
 21 
 10.2272748947144 
 31 
 0 
 62 
 7 
 0 
LINE
 8 
TemplateLayer
 6 
CONTINUOUS
 10 
 24.8997352894632 
 20 
 10.2272748947144 
 30 
 0 
 11 
 25.9358313466573 
 21 
 6.81818389892578 
 31 
 0 
 62 
 7 
 0 
LINE
 8 
TemplateLayer
 6 
CONTINUOUS
 10 
 25.9358313466573 
 20 
 6.81818389892578 
 30 
 0 
 11 
 26.4263755957669 
 21 
 3.40909290313721 
 31 
 0 
 62 
 7 
 0 
LINE
 8 
TemplateLayer
 6 
CONTINUOUS
 10 
 26.4263755957669 
 20 
 3.40909290313721 
 30 
 0 
 11 
 26.5005363313283 
 21 
 1.9073486328125E-06 
 31 
 0 
 62 
 7 
 0 
LINE
 8 
TemplateLayer
 6 
CONTINUOUS
 10 
 26.5005363313283 
 20 
 1.9073486328125E-06 
 30 
 0 
 11 
 26.3966172743779 
 21 
-3.40908908843994 
 31 
 0 
 62 
 7 
 0 
LINE
 8 
TemplateLayer
 6 
CONTINUOUS
 10 
 26.3966172743779 
 20 
-3.40908908843994 
 30 
 0 
 11 
 25.8725677127595 
 21 
-6.81818008422852 
 31 
 0 
 62 
 7 
 0 
LINE
 8 
TemplateLayer
 6 
CONTINUOUS
 10 
 25.8725677127595 
 20 
-6.81818008422852 
 30 
 0 
 11 
 24.8049552447659 
 21 
-10.2272710800171 
 31 
 0 
 62 
 7 
 0 
LINE
 8 
TemplateLayer
 6 
CONTINUOUS
 10 
 24.8049552447659 
 20 
-10.2272710800171 
 30 
 0 
 11 
 23.8636389906987 
 21 
-12.1384284449622 
 31 
 0 
 62 
 7 
 0 
LINE
 8 
TemplateLayer
 6 
CONTINUOUS
 10 
 23.8636389906987 
 20 
-12.1384284449622 
 30 
 0 
 11 
 23.2668766923802 
 21 
-13.6363620758057 
 31 
 0 
 62 
 7 
 0 
LINE
 8 
TemplateLayer
 6 
CONTINUOUS
 10 
 23.2668766923802 
 20 
-13.6363620758057 
 30 
 0 
 11 
 21.1584900044818 
 21 
-17.0454530715942 
 31 
 0 
 62 
 7 
 0 
LINE
 8 
TemplateLayer
 6 
CONTINUOUS
 10 
 21.1584900044818 
 20 
-17.0454530715942 
 30 
 0 
 11 
 20.4545479845043 
 21 
-17.9358872232573 
 31 
 0 
 62 
 7 
 0 
LINE
 8 
TemplateLayer
 6 
CONTINUOUS
 10 
 20.4545479845043 
 20 
-17.9358872232573 
 30 
 0 
 11 
 18.2120226780038 
 21 
-20.4545440673828 
 31 
 0 
 62 
 7 
 0 
LINE
 8 
TemplateLayer
 6 
CONTINUOUS
 10 
 18.2120226780038 
 20 
-20.4545440673828 
 30 
 0 
 11 
 17.0454569822377 
 21 
-21.5450294367998 
 31 
 0 
 62 
 7 
 0 
LINE
 8 
TemplateLayer
 6 
CONTINUOUS
 10 
 17.0454569822377 
 20 
-21.5450294367998 
 30 
 0 
 11 
 13.6824344239195 
 21 
-23.8636350631714 
 31 
 0 
 62 
 7 
 0 
LINE
 8 
TemplateLayer
 6 
CONTINUOUS
 10 
 13.6824344239195 
 20 
-23.8636350631714 
 30 
 0 
 11 
 13.6363659822282 
 21 
-23.8966260099806 
 31 
 0 
 62 
 7 
 0 
LINE
 8 
TemplateLayer
 6 
CONTINUOUS
 10 
 13.6363659822282 
 20 
-23.8966260099806 
 30 
 0 
 11 
 10.2272749828864 
 21 
-25.8762306425438 
 31 
 0 
 62 
 7 
 0 
LINE
 8 
TemplateLayer
 6 
CONTINUOUS
 10 
 10.2272749828864 
 20 
-25.8762306425438 
 30 
 0 
 11 
 6.8181839851581 
 21 
-26.9569500890497 
 31 
 0 
 62 
 7 
 0 
LINE
 8 
TemplateLayer
 6 
CONTINUOUS
 10 
 6.8181839851581 
 20 
-26.9569500890497 
 30 
 0 
 11 
 4.78104314773884 
 21 
-27.27272605896 
 31 
 0 
 62 
 7 
 0 
LINE
 8 
TemplateLayer
 6 
CONTINUOUS
 10 
 4.78104314773884 
 20 
-27.27272605896 
 30 
 0 
 11 
 3.40909298822249 
 21 
-27.5960015580199 
 31 
 0 
 62 
 7 
 0 
LINE
 8 
TemplateLayer
 6 
CONTINUOUS
 10 
 3.40909298822249 
 20 
-27.5960015580199 
 30 
 0 
 11 
 1.99194925978169E-06 
 21 
-27.8660205111786 
 31 
 0 
 62 
 7 
 0 
LINE
 8 
TemplateLayer
 6 
CONTINUOUS
 10 
 1.99194925978169E-06 
 20 
-27.8660205111786 
 30 
 0 
 11 
-3.40908900342313 
 21 
-27.6341479360804 
 31 
 0 
 62 
 7 
 0 
LINE
 8 
TemplateLayer
 6 
CONTINUOUS
 10 
-3.40908900342313 
 20 
-27.6341479360804 
 30 
 0 
 11 
-5.02622040809144 
 21 
-27.27272605896 
 31 
 0 
 62 
 7 
 0 
LINE
 8 
TemplateLayer
 6 
CONTINUOUS
 10 
-5.02622040809144 
 20 
-27.27272605896 
 30 
 0 
 11 
-6.8181799980958 
 21 
-27.0124414951553 
 31 
 0 
 62 
 7 
 0 
LINE
 8 
TemplateLayer
 6 
CONTINUOUS
 10 
-6.8181799980958 
 20 
-27.0124414951553 
 30 
 0 
 11 
-10.2272709921693 
 21 
-26.0568964321016 
 31 
 0 
 62 
 7 
 0 
LINE
 8 
TemplateLayer
 6 
CONTINUOUS
 10 
-10.2272709921693 
 20 
-26.0568964321016 
 30 
 0 
 11 
-13.6363619847907 
 21 
-24.2923853290851 
 31 
 0 
 62 
 7 
 0 
LINE
 8 
TemplateLayer
 6 
CONTINUOUS
 10 
-13.6363619847907 
 20 
-24.2923853290851 
 30 
 0 
 11 
-14.2467226873219 
 21 
-23.8636350631714 
 31 
 0 
 62 
 7 
 0 
LINE
 8 
TemplateLayer
 6 
CONTINUOUS
 10 
-14.2467226873219 
 20 
-23.8636350631714 
 30 
 0 
 11 
-17.0454529763758 
 21 
-21.9504733884237 
 31 
 0 
 62 
 7 
 0 
LINE
 8 
TemplateLayer
 6 
CONTINUOUS
 10 
-17.0454529763758 
 20 
-21.9504733884237 
 30 
 0 
 11 
-18.6620216575241 
 21 
-20.4545440673828 
 31 
 0 
 62 
 7 
 0 
LINE
 8 
TemplateLayer
 6 
CONTINUOUS
 10 
-18.6620216575241 
 20 
-20.4545440673828 
 30 
 0 
 11 
-20.4545439660041 
 21 
-18.5183705096359 
 31 
 0 
 62 
 7 
 0 
LINE
 8 
TemplateLayer
 6 
CONTINUOUS
 10 
-20.4545439660041 
 20 
-18.5183705096359 
 30 
 0 
 11 
-21.6762990839738 
 21 
-17.0454530715942 
 31 
 0 
 62 
 7 
 0 
LINE
 8 
TemplateLayer
 6 
CONTINUOUS
 10 
-21.6762990839738 
 20 
-17.0454530715942 
 30 
 0 
 11 
-23.7246235684255 
 21 
-13.6363620758057 
 31 
 0 
 62 
 7 
 0 
LINE
 8 
TemplateLayer
 6 
CONTINUOUS
 10 
-23.7246235684255 
 20 
-13.6363620758057 
 30 
 0 
 11 
-23.8636349524181 
 21 
-13.2954532181288 
 31 
 0 
 62 
 7 
 0 
LINE
 8 
TemplateLayer
 6 
CONTINUOUS
 10 
-23.8636349524181 
 20 
-13.2954532181288 
 30 
 0 
 11 
-25.3761190012481 
 21 
-10.2272710800171 
 31 
 0 
 62 
 7 
 0 
LINE
 8 
TemplateLayer
 6 
CONTINUOUS
 10 
-25.3761190012481 
 20 
-10.2272710800171 
 30 
 0 
 11 
-26.3389034381677 
 21 
-6.81818008422852 
 31 
 0 
 62 
 7 
 0 
LINE
 8 
TemplateLayer
 6 
CONTINUOUS
 10 
-26.3389034381677 
 20 
-6.81818008422852 
 30 
 0 
 11 
-26.85643435296 
 21 
-3.40908908843994 
 31 
 0 
 62 
 7 
 0 
LINE
 8 
TemplateLayer
 6 
CONTINUOUS
 10 
-26.85643435296 
 20 
-3.40908908843994 
 30 
 0 
 11 
-26.9832746777277 
 21 
 1.9073486328125E-06 
 31 
 0 
 62 
 7 
 0 
LINE
 8 
TemplateLayer
 6 
CONTINUOUS
 10 
-26.9832746777277 
 20 
 1.9073486328125E-06 
 30 
 0 
 11 
-26.874624734663 
 21 
 3.40909290313721 
 31 
 0 
 62 
 7 
 0 
LINE
 8 
TemplateLayer
 6 
CONTINUOUS
 10 
-26.874624734663 
 20 
 3.40909290313721 
 30 
 0 
 11 
-26.3776013206485 
 21 
 6.81818389892578 
 31 
 0 
 62 
 7 
 0 
LINE
 8 
TemplateLayer
 6 
CONTINUOUS
 10 
-26.3776013206485 
 20 
 6.81818389892578 
 30 
 0 
 11 
-25.4498089561443 
 21 
 10.2272748947144 
 31 
 0 
 62 
 7 
 0 
LINE
 8 
TemplateLayer
 6 
CONTINUOUS
 10 
-25.4498089561443 
 20 
 10.2272748947144 
 30 
 0 
 11 
-23.8636349043405 
 21 
 13.4902619215686 
 31 
 0 
 62 
 7 
 0 
LINE
 8 
TemplateLayer
 6 
CONTINUOUS
 10 
-23.8636349043405 
 20 
 13.4902619215686 
 30 
 0 
 11 
-23.8044035772483 
 21 
 13.6363658905029 
 31 
 0 
 62 
 7 
 0 
LINE
 8 
TemplateLayer
 6 
CONTINUOUS
 10 
-23.8044035772483 
 20 
 13.6363658905029 
 30 
 0 
 11 
-21.7732464017482 
 21 
 17.0454568862915 
 31 
 0 
 62 
 7 
 0 
LINE
 8 
TemplateLayer
 6 
CONTINUOUS
 10 
-21.7732464017482 
 20 
 17.0454568862915 
 30 
 0 
 11 
-20.454543899332 
 21 
 18.6269936132536 
 31 
 0 
 62 
 7 
 0 
LINE
 8 
TemplateLayer
 6 
CONTINUOUS
 10 
-20.454543899332 
 20 
 18.6269936132536 
 30 
 0 
 11 
-18.7499979911109 
 21 
 20.4545478820801 
 31 
 0 
 62 
 7 
 0 
LINE
 8 
TemplateLayer
 6 
CONTINUOUS
 10 
-18.7499979911109 
 20 
 20.4545478820801 
 30 
 0 
 11 
-17.0454528973966 
 21 
 22.0515992173938 
 31 
 0 
 62 
 7 
 0 
LINE
 8 
TemplateLayer
 6 
CONTINUOUS
 10 
-17.0454528973966 
 20 
 22.0515992173938 
 30 
 0 
 11 
-14.4219350216576 
 21 
 23.8636388778687 
 31 
 0 
 62 
 7 
 0 
LINE
 8 
TemplateLayer
 6 
CONTINUOUS
 10 
-14.4219350216576 
 20 
 23.8636388778687 
 30 
 0 
 11 
-13.6363618973608 
 21 
 24.4178776219426 
 31 
 0 
 62 
 7 
 0 
LINE
 8 
TemplateLayer
 6 
CONTINUOUS
 10 
-13.6363618973608 
 20 
 24.4178776219426 
 30 
 0 
 11 
-10.2272708984164 
 21 
 26.1760988931582 
 31 
 0 
 62 
 7 
 0 
LINE
 8 
TemplateLayer
 6 
CONTINUOUS
 10 
-10.2272708984164 
 20 
 26.1760988931582 
 30 
 0 
 11 
-6.81817990091823 
 21 
 27.1285953984095 
 31 
 0 
 62 
 7 
 0 
LINE
 8 
TemplateLayer
 6 
CONTINUOUS
 10 
-6.81817990091823 
 20 
 27.1285953984095 
 30 
 0 
 11 
-5.86197043070407 
 21 
 27.2727298736572 
 31 
 0 
 62 
 7 
 0 
LINE
 8 
TemplateLayer
 6 
CONTINUOUS
 10 
-5.86197043070407 
 20 
 27.2727298736572 
 30 
 0 
 11 
-3.40908890384823 
 21 
 27.8425209542995 
 31 
 0 
 62 
 7 
 0 
LINE
 8 
TemplateLayer
 6 
CONTINUOUS
 10 
-21.6867879764754 
 20 
-6.81818008422852 
 30 
 0 
 11 
-22.4762831629876 
 21 
-3.40908908843994 
 31 
 0 
 62 
 1 
 0 
LINE
 8 
TemplateLayer
 6 
CONTINUOUS
 10 
-22.4762831629876 
 20 
-3.40908908843994 
 30 
 0 
 11 
-22.7003694144474 
 21 
 1.9073486328125E-06 
 31 
 0 
 62 
 1 
 0 
LINE
 8 
TemplateLayer
 6 
CONTINUOUS
 10 
-22.7003694144474 
 20 
 1.9073486328125E-06 
 30 
 0 
 11 
-22.4934879978113 
 21 
 3.40909290313721 
 31 
 0 
 62 
 1 
 0 
LINE
 8 
TemplateLayer
 6 
CONTINUOUS
 10 
-22.4934879978113 
 20 
 3.40909290313721 
 30 
 0 
 11 
-21.7298617814325 
 21 
 6.81818389892578 
 31 
 0 
 62 
 1 
 0 
LINE
 8 
TemplateLayer
 6 
CONTINUOUS
 10 
-21.7298617814325 
 20 
 6.81818389892578 
 30 
 0 
 11 
-20.4545439152931 
 21 
 9.73449167328099 
 31 
 0 
 62 
 1 
 0 
LINE
 8 
TemplateLayer
 6 
CONTINUOUS
 10 
-20.4545439152931 
 20 
 9.73449167328099 
 30 
 0 
 11 
-20.293338855545 
 21 
 10.2272748947144 
 31 
 0 
 62 
 1 
 0 
LINE
 8 
TemplateLayer
 6 
CONTINUOUS
 10 
-20.293338855545 
 20 
 10.2272748947144 
 30 
 0 
 11 
-18.4402674394998 
 21 
 13.6363658905029 
 31 
 0 
 62 
 1 
 0 
LINE
 8 
TemplateLayer
 6 
CONTINUOUS
 10 
-18.4402674394998 
 20 
 13.6363658905029 
 30 
 0 
 11 
-17.0454529094903 
 21 
 15.3137767054654 
 31 
 0 
 62 
 1 
 0 
LINE
 8 
TemplateLayer
 6 
CONTINUOUS
 10 
-17.0454529094903 
 20 
 15.3137767054654 
 30 
 0 
 11 
-15.3742363696933 
 21 
 17.0454568862915 
 31 
 0 
 62 
 1 
 0 
LINE
 8 
TemplateLayer
 6 
CONTINUOUS
 10 
-15.3742363696933 
 20 
 17.0454568862915 
 30 
 0 
 11 
-13.6363619078329 
 21 
 18.5835507843722 
 31 
 0 
 62 
 1 
 0 
LINE
 8 
TemplateLayer
 6 
CONTINUOUS
 10 
-13.6363619078329 
 20 
 18.5835507843722 
 30 
 0 
 11 
-10.3458477755363 
 21 
 20.4545478820801 
 31 
 0 
 62 
 1 
 0 
LINE
 8 
TemplateLayer
 6 
CONTINUOUS
 10 
-10.3458477755363 
 20 
 20.4545478820801 
 30 
 0 
 11 
-10.227270908551 
 21 
 20.5297828603402 
 31 
 0 
 62 
 1 
 0 
LINE
 8 
TemplateLayer
 6 
CONTINUOUS
 10 
-10.227270908551 
 20 
 20.5297828603402 
 30 
 0 
 11 
-6.81817990986049 
 21 
 22.1465465656727 
 31 
 0 
 62 
 1 
 0 
LINE
 8 
TemplateLayer
 6 
CONTINUOUS
 10 
-6.81817990986049 
 20 
 22.1465465656727 
 30 
 0 
 11 
-3.40908891269766 
 21 
 22.9121952829519 
 31 
 0 
 62 
 1 
 0 
LINE
 8 
TemplateLayer
 6 
CONTINUOUS
 10 
-3.40908891269766 
 20 
 22.9121952829519 
 30 
 0 
 11 
 2.08349825108617E-06 
 21 
 23.1391367003932 
 31 
 0 
 62 
 1 
 0 
LINE
 8 
TemplateLayer
 6 
CONTINUOUS
 10 
 2.08349825108617E-06 
 20 
 23.1391367003932 
 30 
 0 
 11 
 3.40909307880501 
 21 
 22.870699496053 
 31 
 0 
 62 
 1 
 0 
LINE
 8 
TemplateLayer
 6 
CONTINUOUS
 10 
 3.40909307880501 
 20 
 22.870699496053 
 30 
 0 
 11 
 6.81818407308957 
 21 
 22.0327629795484 
 31 
 0 
 62 
 1 
 0 
LINE
 8 
TemplateLayer
 6 
CONTINUOUS
 10 
 6.81818407308957 
 20 
 22.0327629795484 
 30 
 0 
 11 
 9.92456530357878 
 21 
 20.4545478820801 
 31 
 0 
 62 
 1 
 0 
LINE
 8 
TemplateLayer
 6 
CONTINUOUS
 10 
 9.92456530357878 
 20 
 20.4545478820801 
 30 
 0 
 11 
 10.2272750658344 
 21 
 20.336993120829 
 31 
 0 
 62 
 1 
 0 
LINE
 8 
TemplateLayer
 6 
CONTINUOUS
 10 
 10.2272750658344 
 20 
 20.336993120829 
 30 
 0 
 11 
 13.6363660579138 
 21 
 18.2704627175862 
 31 
 0 
 62 
 1 
 0 
LINE
 8 
TemplateLayer
 6 
CONTINUOUS
 10 
 13.6363660579138 
 20 
 18.2704627175862 
 30 
 0 
 11 
 15.012737487519 
 21 
 17.0454568862915 
 31 
 0 
 62 
 1 
 0 
LINE
 8 
TemplateLayer
 6 
CONTINUOUS
 10 
 15.012737487519 
 20 
 17.0454568862915 
 30 
 0 
 11 
 17.0454570475909 
 21 
 14.8655294205317 
 31 
 0 
 62 
 1 
 0 
LINE
 8 
TemplateLayer
 6 
CONTINUOUS
 10 
 17.0454570475909 
 20 
 14.8655294205317 
 30 
 0 
 11 
 18.0315226760608 
 21 
 13.6363658905029 
 31 
 0 
 62 
 1 
 0 
LINE
 8 
TemplateLayer
 6 
CONTINUOUS
 10 
 18.0315226760608 
 20 
 13.6363658905029 
 30 
 0 
 11 
 19.978540754454 
 21 
 10.2272748947144 
 31 
 0 
 62 
 1 
 0 
LINE
 8 
TemplateLayer
 6 
CONTINUOUS
 10 
 19.978540754454 
 20 
 10.2272748947144 
 30 
 0 
 11 
 20.454548032434 
 21 
 8.76744103498859 
 31 
 0 
 62 
 1 
 0 
LINE
 8 
TemplateLayer
 6 
CONTINUOUS
 10 
 20.454548032434 
 20 
 8.76744103498859 
 30 
 0 
 11 
 21.3095969573277 
 21 
 6.81818389892578 
 31 
 0 
 62 
 1 
 0 
LINE
 8 
TemplateLayer
 6 
CONTINUOUS
 10 
 21.3095969573277 
 20 
 6.81818389892578 
 30 
 0 
 11 
 22.1080034289184 
 21 
 3.40909290313721 
 31 
 0 
 62 
 1 
 0 
LINE
 8 
TemplateLayer
 6 
CONTINUOUS
 10 
 22.1080034289184 
 20 
 3.40909290313721 
 30 
 0 
 11 
 22.2782203381732 
 21 
 1.9073486328125E-06 
 31 
 0 
 62 
 1 
 0 
LINE
 8 
TemplateLayer
 6 
CONTINUOUS
 10 
 22.2782203381732 
 20 
 1.9073486328125E-06 
 30 
 0 
 11 
 22.0816140102231 
 21 
-3.40908908843994 
 31 
 0 
 62 
 1 
 0 
LINE
 8 
TemplateLayer
 6 
CONTINUOUS
 10 
 22.0816140102231 
 20 
-3.40908908843994 
 30 
 0 
 11 
 21.2558140458344 
 21 
-6.81818008422852 
 31 
 0 
 62 
 1 
 0 
LINE
 8 
TemplateLayer
 6 
CONTINUOUS
 10 
 21.2558140458344 
 20 
-6.81818008422852 
 30 
 0 
 11 
 20.454548001204 
 21 
-8.63188300868636 
 31 
 0 
 62 
 1 
 0 
LINE
 8 
TemplateLayer
 6 
CONTINUOUS
 10 
 20.454548001204 
 20 
-8.63188300868636 
 30 
 0 
 11 
 19.9330282712321 
 21 
-10.2272710800171 
 31 
 0 
 62 
 1 
 0 
LINE
 8 
TemplateLayer
 6 
CONTINUOUS
 10 
 19.9330282712321 
 20 
-10.2272710800171 
 30 
 0 
 11 
 17.9590593287858 
 21 
-13.6363620758057 
 31 
 0 
 62 
 1 
 0 
LINE
 8 
TemplateLayer
 6 
CONTINUOUS
 10 
 17.9590593287858 
 20 
-13.6363620758057 
 30 
 0 
 11 
 17.0454569943806 
 21 
-14.7797834938261 
 31 
 0 
 62 
 1 
 0 
LINE
 8 
TemplateLayer
 6 
CONTINUOUS
 10 
 17.0454569943806 
 20 
-14.7797834938261 
 30 
 0 
 11 
 14.9490615290098 
 21 
-17.0454530715942 
 31 
 0 
 62 
 1 
 0 
LINE
 8 
TemplateLayer
 6 
CONTINUOUS
 10 
 14.9490615290098 
 20 
-17.0454530715942 
 30 
 0 
 11 
 13.6363659924121 
 21 
-18.2228193774273 
 31 
 0 
 62 
 1 
 0 
LINE
 8 
TemplateLayer
 6 
CONTINUOUS
 10 
 13.6363659924121 
 20 
-18.2228193774273 
 30 
 0 
 11 
 10.2272749928674 
 21 
-20.3155107322772 
 31 
 0 
 62 
 1 
 0 
LINE
 8 
TemplateLayer
 6 
CONTINUOUS
 10 
 10.2272749928674 
 20 
-20.3155107322772 
 30 
 0 
 11 
 9.86766560470584 
 21 
-20.4545440673828 
 31 
 0 
 62 
 1 
 0 
LINE
 8 
TemplateLayer
 6 
CONTINUOUS
 10 
 9.86766560470584 
 20 
-20.4545440673828 
 30 
 0 
 11 
 6.81818399408089 
 21 
-21.9857459872447 
 31 
 0 
 62 
 1 
 0 
LINE
 8 
TemplateLayer
 6 
CONTINUOUS
 10 
 6.81818399408089 
 20 
-21.9857459872447 
 30 
 0 
 11 
 3.40909299684755 
 21 
-22.7906779519949 
 31 
 0 
 62 
 1 
 0 
LINE
 8 
TemplateLayer
 6 
CONTINUOUS
 10 
 3.40909299684755 
 20 
-22.7906779519949 
 30 
 0 
 11 
 2.00063779243892E-06 
 21 
-23.0253339235467 
 31 
 0 
 62 
 1 
 0 
LINE
 8 
TemplateLayer
 6 
CONTINUOUS
 10 
 2.00063779243892E-06 
 20 
-23.0253339235467 
 30 
 0 
 11 
-3.409088994789 
 21 
-22.8237737032166 
 31 
 0 
 62 
 1 
 0 
LINE
 8 
TemplateLayer
 6 
CONTINUOUS
 10 
-3.409088994789 
 20 
-22.8237737032166 
 30 
 0 
 11 
-6.81817998924157 
 21 
-22.0794378818469 
 31 
 0 
 62 
 1 
 0 
LINE
 8 
TemplateLayer
 6 
CONTINUOUS
 10 
-6.81817998924157 
 20 
-22.0794378818469 
 30 
 0 
 11 
-10.2272709821639 
 21 
-20.4825637722185 
 31 
 0 
 62 
 1 
 0 
LINE
 8 
TemplateLayer
 6 
CONTINUOUS
 10 
-10.2272709821639 
 20 
-20.4825637722185 
 30 
 0 
 11 
-10.2719312092703 
 21 
-20.4545440673828 
 31 
 0 
 62 
 1 
 0 
LINE
 8 
TemplateLayer
 6 
CONTINUOUS
 10 
-10.2719312092703 
 20 
-20.4545440673828 
 30 
 0 
 11 
-13.6363619744493 
 21 
-18.5308120969626 
 31 
 0 
 62 
 1 
 0 
LINE
 8 
TemplateLayer
 6 
CONTINUOUS
 10 
-13.6363619744493 
 20 
-18.5308120969626 
 30 
 0 
 11 
-15.3003794855747 
 21 
-17.0454530715942 
 31 
 0 
 62 
 1 
 0 
LINE
 8 
TemplateLayer
 6 
CONTINUOUS
 10 
-15.3003794855747 
 20 
-17.0454530715942 
 30 
 0 
 11 
-17.0454529643024 
 21 
-15.2239532520416 
 31 
 0 
 62 
 1 
 0 
LINE
 8 
TemplateLayer
 6 
CONTINUOUS
 10 
-17.0454529643024 
 20 
-15.2239532520416 
 30 
 0 
 11 
-18.3636347885277 
 21 
-13.6363620758057 
 31 
 0 
 62 
 1 
 0 
LINE
 8 
TemplateLayer
 6 
CONTINUOUS
 10 
-18.3636347885277 
 20 
-13.6363620758057 
 30 
 0 
 11 
-20.2521538985523 
 21 
-10.2272710800171 
 31 
 0 
 62 
 1 
 0 
LINE
 8 
TemplateLayer
 6 
CONTINUOUS
 10 
-20.2521538985523 
 20 
-10.2272710800171 
 30 
 0 
 11 
-20.4545439500112 
 21 
-9.60816741219296 
 31 
 0 
 62 
 1 
 0 
LINE
 8 
TemplateLayer
 6 
CONTINUOUS
 10 
-20.4545439500112 
 20 
-9.60816741219296 
 30 
 0 
 11 
-21.6867879764754 
 21 
-6.81818008422852 
 31 
 0 
 62 
 1 
 0 
LINE
 8 
TemplateLayer
 6 
CONTINUOUS
 10 
-17.1342614165449 
 20 
-3.40908908843994 
 30 
 0 
 11 
-17.5158108133599 
 21 
 1.9073486328125E-06 
 31 
 0 
 62 
 3 
 0 
LINE
 8 
TemplateLayer
 6 
CONTINUOUS
 10 
-17.5158108133599 
 20 
 1.9073486328125E-06 
 30 
 0 
 11 
-17.1512273361749 
 21 
 3.40909290313721 
 31 
 0 
 62 
 3 
 0 
LINE
 8 
TemplateLayer
 6 
CONTINUOUS
 10 
-17.1512273361749 
 20 
 3.40909290313721 
 30 
 0 
 11 
-17.0454529303327 
 21 
 3.70175185292521 
 31 
 0 
 62 
 3 
 0 
LINE
 8 
TemplateLayer
 6 
CONTINUOUS
 10 
-17.0454529303327 
 20 
 3.70175185292521 
 30 
 0 
 11 
-16.3186229219287 
 21 
 6.81818389892578 
 31 
 0 
 62 
 3 
 0 
LINE
 8 
TemplateLayer
 6 
CONTINUOUS
 10 
-16.3186229219287 
 20 
 6.81818389892578 
 30 
 0 
 11 
-14.415879780848 
 21 
 10.2272748947144 
 31 
 0 
 62 
 3 
 0 
LINE
 8 
TemplateLayer
 6 
CONTINUOUS
 10 
-14.415879780848 
 20 
 10.2272748947144 
 30 
 0 
 11 
-13.6363619211182 
 21 
 11.1818205469305 
 31 
 0 
 62 
 3 
 0 
LINE
 8 
TemplateLayer
 6 
CONTINUOUS
 10 
-13.6363619211182 
 20 
 11.1818205469305 
 30 
 0 
 11 
-11.2677192937935 
 21 
 13.6363658905029 
 31 
 0 
 62 
 3 
 0 
LINE
 8 
TemplateLayer
 6 
CONTINUOUS
 10 
-11.2677192937935 
 20 
 13.6363658905029 
 30 
 0 
 11 
-10.2272709193525 
 21 
 14.5118925149737 
 31 
 0 
 62 
 3 
 0 
LINE
 8 
TemplateLayer
 6 
CONTINUOUS
 10 
-10.2272709193525 
 20 
 14.5118925149737 
 30 
 0 
 11 
-6.81817992014585 
 21 
 16.4162131628162 
 31 
 0 
 62 
 3 
 0 
LINE
 8 
TemplateLayer
 6 
CONTINUOUS
 10 
-6.81817992014585 
 20 
 16.4162131628162 
 30 
 0 
 11 
-4.03334563255512 
 21 
 17.0454568862915 
 31 
 0 
 62 
 3 
 0 
LINE
 8 
TemplateLayer
 6 
CONTINUOUS
 10 
-4.03334563255512 
 20 
 17.0454568862915 
 30 
 0 
 11 
-3.40908892282342 
 21 
 17.2707786891073 
 31 
 0 
 62 
 3 
 0 
LINE
 8 
TemplateLayer
 6 
CONTINUOUS
 10 
-3.40908892282342 
 20 
 17.2707786891073 
 30 
 0 
 11 
 2.0736385110201E-06 
 21 
 17.6459293488323 
 31 
 0 
 62 
 3 
 0 
LINE
 8 
TemplateLayer
 6 
CONTINUOUS
 10 
 2.0736385110201E-06 
 20 
 17.6459293488323 
 30 
 0 
 11 
 3.4090930685798 
 21 
 17.1738763790297 
 31 
 0 
 62 
 3 
 0 
LINE
 8 
TemplateLayer
 6 
CONTINUOUS
 10 
 3.4090930685798 
 20 
 17.1738763790297 
 30 
 0 
 11 
 3.74492548524339 
 21 
 17.0454568862915 
 31 
 0 
 62 
 3 
 0 
LINE
 8 
TemplateLayer
 6 
CONTINUOUS
 10 
 3.74492548524339 
 20 
 17.0454568862915 
 30 
 0 
 11 
 6.81818406282105 
 21 
 16.3118077829467 
 31 
 0 
 62 
 3 
 0 
LINE
 8 
TemplateLayer
 6 
CONTINUOUS
 10 
 6.81818406282105 
 20 
 16.3118077829467 
 30 
 0 
 11 
 10.227275054966 
 21 
 14.2818201922792 
 31 
 0 
 62 
 3 
 0 
LINE
 8 
TemplateLayer
 6 
CONTINUOUS
 10 
 10.227275054966 
 20 
 14.2818201922792 
 30 
 0 
 11 
 10.9928375837874 
 21 
 13.6363658905029 
 31 
 0 
 62 
 3 
 0 
LINE
 8 
TemplateLayer
 6 
CONTINUOUS
 10 
 10.9928375837874 
 20 
 13.6363658905029 
 30 
 0 
 11 
 13.6363660445222 
 21 
 10.8095495063507 
 31 
 0 
 62 
 3 
 0 
LINE
 8 
TemplateLayer
 6 
CONTINUOUS
 10 
 13.6363660445222 
 20 
 10.8095495063507 
 30 
 0 
 11 
 14.0981251924254 
 21 
 10.2272748947144 
 31 
 0 
 62 
 3 
 0 
LINE
 8 
TemplateLayer
 6 
CONTINUOUS
 10 
 14.0981251924254 
 20 
 10.2272748947144 
 30 
 0 
 11 
 16.0970560283377 
 21 
 6.81818389892578 
 31 
 0 
 62 
 3 
 0 
LINE
 8 
TemplateLayer
 6 
CONTINUOUS
 10 
 16.0970560283377 
 20 
 6.81818389892578 
 30 
 0 
 11 
 16.9144195256458 
 21 
 3.40909290313721 
 31 
 0 
 62 
 3 
 0 
LINE
 8 
TemplateLayer
 6 
CONTINUOUS
 10 
 16.9144195256458 
 20 
 3.40909290313721 
 30 
 0 
 11 
 17.0454570226503 
 21 
 0.970279908889523 
 31 
 0 
 62 
 3 
 0 
LINE
 8 
TemplateLayer
 6 
CONTINUOUS
 10 
 17.0454570226503 
 20 
 0.970279908889523 
 30 
 0 
 11 
 17.1482573236484 
 21 
 1.9073486328125E-06 
 31 
 0 
 62 
 3 
 0 
LINE
 8 
TemplateLayer
 6 
CONTINUOUS
 10 
 17.1482573236484 
 20 
 1.9073486328125E-06 
 30 
 0 
 11 
 17.0454570192682 
 21 
-0.914027122322281 
 31 
 0 
 62 
 3 
 0 
LINE
 8 
TemplateLayer
 6 
CONTINUOUS
 10 
 17.0454570192682 
 20 
-0.914027122322281 
 30 
 0 
 11 
 16.9028525772529 
 21 
-3.40908908843994 
 31 
 0 
 62 
 3 
 0 
LINE
 8 
TemplateLayer
 6 
CONTINUOUS
 10 
 16.9028525772529 
 20 
-3.40908908843994 
 30 
 0 
 11 
 16.0989619593154 
 21 
-6.81818008422852 
 31 
 0 
 62 
 3 
 0 
LINE
 8 
TemplateLayer
 6 
CONTINUOUS
 10 
 16.0989619593154 
 20 
-6.81818008422852 
 30 
 0 
 11 
 14.0991797724456 
 21 
-10.2272710800171 
 31 
 0 
 62 
 3 
 0 
LINE
 8 
TemplateLayer
 6 
CONTINUOUS
 10 
 14.0991797724456 
 20 
-10.2272710800171 
 30 
 0 
 11 
 13.6363660057288 
 21 
-10.8036147777047 
 31 
 0 
 62 
 3 
 0 
LINE
 8 
TemplateLayer
 6 
CONTINUOUS
 10 
 13.6363660057288 
 20 
-10.8036147777047 
 30 
 0 
 11 
 10.9119916314038 
 21 
-13.6363620758057 
 31 
 0 
 62 
 3 
 0 
LINE
 8 
TemplateLayer
 6 
CONTINUOUS
 10 
 10.9119916314038 
 20 
-13.6363620758057 
 30 
 0 
 11 
 10.2272750038054 
 21 
-14.2215740928323 
 31 
 0 
 62 
 3 
 0 
LINE
 8 
TemplateLayer
 6 
CONTINUOUS
 10 
 10.2272750038054 
 20 
-14.2215740928323 
 30 
 0 
 11 
 6.81818400430817 
 21 
-16.2877707192239 
 31 
 0 
 62 
 3 
 0 
LINE
 8 
TemplateLayer
 6 
CONTINUOUS
 10 
 6.81818400430817 
 20 
-16.2877707192239 
 30 
 0 
 11 
 3.78830555591792 
 21 
-17.0454530715942 
 31 
 0 
 62 
 3 
 0 
LINE
 8 
TemplateLayer
 6 
CONTINUOUS
 10 
 3.78830555591792 
 20 
-17.0454530715942 
 30 
 0 
 11 
 3.40909300689773 
 21 
-17.1913671081434 
 31 
 0 
 62 
 3 
 0 
LINE
 8 
TemplateLayer
 6 
CONTINUOUS
 10 
 3.40909300689773 
 20 
-17.1913671081434 
 30 
 0 
 11 
 2.01030869041718E-06 
 21 
-17.6373371280816 
 31 
 0 
 62 
 3 
 0 
LINE
 8 
TemplateLayer
 6 
CONTINUOUS
 10 
 2.01030869041718E-06 
 20 
-17.6373371280816 
 30 
 0 
 11 
-3.40908898482302 
 21 
-17.2713744914286 
 31 
 0 
 62 
 3 
 0 
LINE
 8 
TemplateLayer
 6 
CONTINUOUS
 10 
-3.40908898482302 
 20 
-17.2713744914286 
 30 
 0 
 11 
-4.02037518455533 
 21 
-17.0454530715942 
 31 
 0 
 62 
 3 
 0 
LINE
 8 
TemplateLayer
 6 
CONTINUOUS
 10 
-4.02037518455533 
 20 
-17.0454530715942 
 30 
 0 
 11 
-6.81817997900086 
 21 
-16.3739798470327 
 31 
 0 
 62 
 3 
 0 
LINE
 8 
TemplateLayer
 6 
CONTINUOUS
 10 
-6.81817997900086 
 20 
-16.3739798470327 
 30 
 0 
 11 
-10.2272709713261 
 21 
-14.4444540748235 
 31 
 0 
 62 
 3 
 0 
LINE
 8 
TemplateLayer
 6 
CONTINUOUS
 10 
-10.2272709713261 
 20 
-14.4444540748235 
 30 
 0 
 11 
-11.1791830875815 
 21 
-13.6363620758057 
 31 
 0 
 62 
 3 
 0 
LINE
 8 
TemplateLayer
 6 
CONTINUOUS
 10 
-11.1791830875815 
 20 
-13.6363620758057 
 30 
 0 
 11 
-13.6363619612167 
 21 
-11.1584915886206 
 31 
 0 
 62 
 3 
 0 
LINE
 8 
TemplateLayer
 6 
CONTINUOUS
 10 
-13.6363619612167 
 20 
-11.1584915886206 
 30 
 0 
 11 
-14.4059656886569 
 21 
-10.2272710800171 
 31 
 0 
 62 
 3 
 0 
LINE
 8 
TemplateLayer
 6 
CONTINUOUS
 10 
-14.4059656886569 
 20 
-10.2272710800171 
 30 
 0 
 11 
-16.3163837617133 
 21 
-6.81818008422852 
 31 
 0 
 62 
 3 
 0 
LINE
 8 
TemplateLayer
 6 
CONTINUOUS
 10 
-16.3163837617133 
 20 
-6.81818008422852 
 30 
 0 
 11 
-17.0454529435412 
 21 
-3.65716906799172 
 31 
 0 
 62 
 3 
 0 
LINE
 8 
TemplateLayer
 6 
CONTINUOUS
 10 
-17.0454529435412 
 20 
-3.65716906799172 
 30 
 0 
 11 
-17.1342614165449 
 21 
-3.40908908843994 
 31 
 0 
 62 
 3 
 0 
LINE
 8 
TemplateLayer
 6 
CONTINUOUS
 10 
-13.6866959349173 
 20 
-3.40908908843994 
 30 
 0 
 11 
-14.2288786208468 
 21 
 1.9073486328125E-06 
 31 
 0 
 62 
 5 
 0 
LINE
 8 
TemplateLayer
 6 
CONTINUOUS
 10 
-14.2288786208468 
 20 
 1.9073486328125E-06 
 30 
 0 
 11 
-13.7154546903021 
 21 
 3.40909290313721 
 31 
 0 
 62 
 5 
 0 
LINE
 8 
TemplateLayer
 6 
CONTINUOUS
 10 
-13.7154546903021 
 20 
 3.40909290313721 
 30 
 0 
 11 
-13.6363619347453 
 21 
 3.5896563727384 
 31 
 0 
 62 
 5 
 0 
LINE
 8 
TemplateLayer
 6 
CONTINUOUS
 10 
-13.6363619347453 
 20 
 3.5896563727384 
 30 
 0 
 11 
-12.6502144751801 
 21 
 6.81818389892578 
 31 
 0 
 62 
 5 
 0 
LINE
 8 
TemplateLayer
 6 
CONTINUOUS
 10 
-12.6502144751801 
 20 
 6.81818389892578 
 30 
 0 
 11 
-10.2272709276431 
 21 
 9.8928862324985 
 31 
 0 
 62 
 5 
 0 
LINE
 8 
TemplateLayer
 6 
CONTINUOUS
 10 
-10.2272709276431 
 20 
 9.8928862324985 
 30 
 0 
 11 
-9.89602093957551 
 21 
 10.2272748947144 
 31 
 0 
 62 
 5 
 0 
LINE
 8 
TemplateLayer
 6 
CONTINUOUS
 10 
-9.89602093957551 
 20 
 10.2272748947144 
 30 
 0 
 11 
-6.81817992681492 
 21 
 12.7006396879708 
 31 
 0 
 62 
 5 
 0 
LINE
 8 
TemplateLayer
 6 
CONTINUOUS
 10 
-6.81817992681492 
 20 
 12.7006396879708 
 30 
 0 
 11 
-3.90055642270614 
 21 
 13.6363658905029 
 31 
 0 
 62 
 5 
 0 
LINE
 8 
TemplateLayer
 6 
CONTINUOUS
 10 
-3.90055642270614 
 20 
 13.6363658905029 
 30 
 0 
 11 
-3.40908892895559 
 21 
 13.8543317760069 
 31 
 0 
 62 
 5 
 0 
LINE
 8 
TemplateLayer
 6 
CONTINUOUS
 10 
-3.40908892895559 
 20 
 13.8543317760069 
 30 
 0 
 11 
 2.06774263331738E-06 
 21 
 14.3611288831421 
 31 
 0 
 62 
 5 
 0 
LINE
 8 
TemplateLayer
 6 
CONTINUOUS
 10 
 2.06774263331738E-06 
 20 
 14.3611288831421 
 30 
 0 
 11 
 3.40909306243378 
 21 
 13.7497112588709 
 31 
 0 
 62 
 5 
 0 
LINE
 8 
TemplateLayer
 6 
CONTINUOUS
 10 
 3.40909306243378 
 20 
 13.7497112588709 
 30 
 0 
 11 
 3.6596953198443 
 21 
 13.6363658905029 
 31 
 0 
 62 
 5 
 0 
LINE
 8 
TemplateLayer
 6 
CONTINUOUS
 10 
 3.6596953198443 
 20 
 13.6363658905029 
 30 
 0 
 11 
 6.81818405614925 
 21 
 12.5947127597261 
 31 
 0 
 62 
 5 
 0 
LINE
 8 
TemplateLayer
 6 
CONTINUOUS
 10 
 6.81818405614925 
 20 
 12.5947127597261 
 30 
 0 
 11 
 9.70389985522289 
 21 
 10.2272748947144 
 31 
 0 
 62 
 5 
 0 
LINE
 8 
TemplateLayer
 6 
CONTINUOUS
 10 
 9.70389985522289 
 20 
 10.2272748947144 
 30 
 0 
 11 
 10.2272750467112 
 21 
 9.68276285901833 
 31 
 0 
 62 
 5 
 0 
LINE
 8 
TemplateLayer
 6 
CONTINUOUS
 10 
 10.2272750467112 
 20 
 9.68276285901833 
 30 
 0 
 11 
 12.4640067534759 
 21 
 6.81818389892578 
 31 
 0 
 62 
 5 
 0 
LINE
 8 
TemplateLayer
 6 
CONTINUOUS
 10 
 12.4640067534759 
 20 
 6.81818389892578 
 30 
 0 
 11 
 13.5260878844424 
 21 
 3.40909290313721 
 31 
 0 
 62 
 5 
 0 
LINE
 8 
TemplateLayer
 6 
CONTINUOUS
 10 
 13.5260878844424 
 20 
 3.40909290313721 
 30 
 0 
 11 
 13.6363660288126 
 21 
 2.0571462871284 
 31 
 0 
 62 
 5 
 0 
LINE
 8 
TemplateLayer
 6 
CONTINUOUS
 10 
 13.6363660288126 
 20 
 2.0571462871284 
 30 
 0 
 11 
 13.9663993573272 
 21 
 1.9073486328125E-06 
 31 
 0 
 62 
 5 
 0 
LINE
 8 
TemplateLayer
 6 
CONTINUOUS
 10 
 13.9663993573272 
 20 
 1.9073486328125E-06 
 30 
 0 
 11 
 13.6363660215344 
 21 
-1.99777952401369 
 31 
 0 
 62 
 5 
 0 
LINE
 8 
TemplateLayer
 6 
CONTINUOUS
 10 
 13.6363660215344 
 20 
-1.99777952401369 
 30 
 0 
 11 
 13.5181664883778 
 21 
-3.40908908843994 
 31 
 0 
 62 
 5 
 0 
LINE
 8 
TemplateLayer
 6 
CONTINUOUS
 10 
 13.5181664883778 
 20 
-3.40908908843994 
 30 
 0 
 11 
 12.4740772034853 
 21 
-6.81818008422852 
 31 
 0 
 62 
 5 
 0 
LINE
 8 
TemplateLayer
 6 
CONTINUOUS
 10 
 12.4740772034853 
 20 
-6.81818008422852 
 30 
 0 
 11 
 10.2272750119806 
 21 
-9.66684752039923 
 31 
 0 
 62 
 5 
 0 
LINE
 8 
TemplateLayer
 6 
CONTINUOUS
 10 
 10.2272750119806 
 20 
-9.66684752039923 
 30 
 0 
 11 
 9.67674243266158 
 21 
-10.2272710800171 
 31 
 0 
 62 
 5 
 0 
LINE
 8 
TemplateLayer
 6 
CONTINUOUS
 10 
 9.67674243266158 
 20 
-10.2272710800171 
 30 
 0 
 11 
 6.818184011023 
 21 
-12.5467027317559 
 31 
 0 
 62 
 5 
 0 
LINE
 8 
TemplateLayer
 6 
CONTINUOUS
 10 
 6.818184011023 
 20 
-12.5467027317559 
 30 
 0 
 11 
 3.40909301328935 
 21 
-13.6303717574297 
 31 
 0 
 62 
 5 
 0 
LINE
 8 
TemplateLayer
 6 
CONTINUOUS
 10 
 3.40909301328935 
 20 
-13.6303717574297 
 30 
 0 
 11 
 3.34353297778564 
 21 
-13.6363620758057 
 31 
 0 
 62 
 5 
 0 
LINE
 8 
TemplateLayer
 6 
CONTINUOUS
 10 
 3.34353297778564 
 20 
-13.6363620758057 
 30 
 0 
 11 
 2.01641821312437E-06 
 21 
-14.2335075327881 
 31 
 0 
 62 
 5 
 0 
LINE
 8 
TemplateLayer
 6 
CONTINUOUS
 10 
 2.01641821312437E-06 
 20 
-14.2335075327881 
 30 
 0 
 11 
-3.40908897841989 
 21 
-13.7039641614576 
 31 
 0 
 62 
 5 
 0 
LINE
 8 
TemplateLayer
 6 
CONTINUOUS
 10 
-3.40908897841989 
 20 
-13.7039641614576 
 30 
 0 
 11 
-3.56185055342156 
 21 
-13.6363620758057 
 31 
 0 
 62 
 5 
 0 
LINE
 8 
TemplateLayer
 6 
CONTINUOUS
 10 
-3.56185055342156 
 20 
-13.6363620758057 
 30 
 0 
 11 
-6.81817997228601 
 21 
-12.6328971823793 
 31 
 0 
 62 
 5 
 0 
LINE
 8 
TemplateLayer
 6 
CONTINUOUS
 10 
-6.81817997228601 
 20 
-12.6328971823793 
 30 
 0 
 11 
-9.86144707809752 
 21 
-10.2272710800171 
 31 
 0 
 62 
 5 
 0 
LINE
 8 
TemplateLayer
 6 
CONTINUOUS
 10 
-9.86144707809752 
 20 
-10.2272710800171 
 30 
 0 
 11 
-10.2272709631052 
 21 
-9.86429408244929 
 31 
 0 
 62 
 5 
 0 
LINE
 8 
TemplateLayer
 6 
CONTINUOUS
 10 
-10.2272709631052 
 20 
-9.86429408244929 
 30 
 0 
 11 
-12.6367181701412 
 21 
-6.81818008422852 
 31 
 0 
 62 
 5 
 0 
LINE
 8 
TemplateLayer
 6 
CONTINUOUS
 10 
-12.6367181701412 
 20 
-6.81818008422852 
 30 
 0 
 11 
-13.636361947516 
 21 
-3.52534436367307 
 31 
 0 
 62 
 5 
 0 
LINE
 8 
TemplateLayer
 6 
CONTINUOUS
 10 
-13.636361947516 
 20 
-3.52534436367307 
 30 
 0 
 11 
-13.6866959349173 
 21 
-3.40908908843994 
 31 
 0 
 62 
 5 
 0 
LINE
 8 
TemplateLayer
 6 
CONTINUOUS
 10 
-10.5511467198027 
 20 
-3.40908908843994 
 30 
 0 
 11 
-11.2327341912733 
 21 
 1.9073486328125E-06 
 31 
 0 
 62 
 6 
 0 
LINE
 8 
TemplateLayer
 6 
CONTINUOUS
 10 
-11.2327341912733 
 20 
 1.9073486328125E-06 
 30 
 0 
 11 
-10.5870321249642 
 21 
 3.40909290313721 
 31 
 0 
 62 
 6 
 0 
LINE
 8 
TemplateLayer
 6 
CONTINUOUS
 10 
-10.5870321249642 
 20 
 3.40909290313721 
 30 
 0 
 11 
-10.2272709380969 
 21 
 4.0687347039518 
 31 
 0 
 62 
 6 
 0 
LINE
 8 
TemplateLayer
 6 
CONTINUOUS
 10 
-10.2272709380969 
 20 
 4.0687347039518 
 30 
 0 
 11 
-8.91836100847777 
 21 
 6.81818389892578 
 31 
 0 
 62 
 6 
 0 
LINE
 8 
TemplateLayer
 6 
CONTINUOUS
 10 
-8.91836100847777 
 20 
 6.81818389892578 
 30 
 0 
 11 
-6.81817993358756 
 21 
 8.92736279403108 
 31 
 0 
 62 
 6 
 0 
LINE
 8 
TemplateLayer
 6 
CONTINUOUS
 10 
-6.81817993358756 
 20 
 8.92736279403108 
 30 
 0 
 11 
-4.12785333495385 
 21 
 10.2272748947144 
 31 
 0 
 62 
 6 
 0 
LINE
 8 
TemplateLayer
 6 
CONTINUOUS
 10 
-4.12785333495385 
 20 
 10.2272748947144 
 30 
 0 
 11 
-3.40908893474847 
 21 
 10.626916591361 
 31 
 0 
 62 
 6 
 0 
LINE
 8 
TemplateLayer
 6 
CONTINUOUS
 10 
-3.40908893474847 
 20 
 10.626916591361 
 30 
 0 
 11 
 2.06221059979167E-06 
 21 
 11.2790387860481 
 31 
 0 
 62 
 6 
 0 
LINE
 8 
TemplateLayer
 6 
CONTINUOUS
 10 
 2.06221059979167E-06 
 20 
 11.2790387860481 
 30 
 0 
 11 
 3.40909305665056 
 21 
 10.5276771918324 
 31 
 0 
 62 
 6 
 0 
LINE
 8 
TemplateLayer
 6 
CONTINUOUS
 10 
 3.40909305665056 
 20 
 10.5276771918324 
 30 
 0 
 11 
 3.9392350082715 
 21 
 10.2272748947144 
 31 
 0 
 62 
 6 
 0 
LINE
 8 
TemplateLayer
 6 
CONTINUOUS
 10 
 3.9392350082715 
 20 
 10.2272748947144 
 30 
 0 
 11 
 6.81818404929491 
 21 
 8.77592142972806 
 31 
 0 
 62 
 6 
 0 
LINE
 8 
TemplateLayer
 6 
CONTINUOUS
 10 
 6.81818404929491 
 20 
 8.77592142972806 
 30 
 0 
 11 
 8.74070135652823 
 21 
 6.81818389892578 
 31 
 0 
 62 
 6 
 0 
LINE
 8 
TemplateLayer
 6 
CONTINUOUS
 10 
 8.74070135652823 
 20 
 6.81818389892578 
 30 
 0 
 11 
 10.2272750358542 
 21 
 3.63395976133582 
 31 
 0 
 62 
 6 
 0 
LINE
 8 
TemplateLayer
 6 
CONTINUOUS
 10 
 10.2272750358542 
 20 
 3.63395976133582 
 30 
 0 
 11 
 10.3480411507817 
 21 
 3.40909290313721 
 31 
 0 
 62 
 6 
 0 
LINE
 8 
TemplateLayer
 6 
CONTINUOUS
 10 
 10.3480411507817 
 20 
 3.40909290313721 
 30 
 0 
 11 
 11.0605118566857 
 21 
 1.9073486328125E-06 
 31 
 0 
 62 
 6 
 0 
LINE
 8 
TemplateLayer
 6 
CONTINUOUS
 10 
 11.0605118566857 
 20 
 1.9073486328125E-06 
 30 
 0 
 11 
 10.3492774739044 
 21 
-3.40908908843994 
 31 
 0 
 62 
 6 
 0 
LINE
 8 
TemplateLayer
 6 
CONTINUOUS
 10 
 10.3492774739044 
 20 
-3.40908908843994 
 30 
 0 
 11 
 10.2272750228018 
 21 
-3.63798730819705 
 31 
 0 
 62 
 6 
 0 
LINE
 8 
TemplateLayer
 6 
CONTINUOUS
 10 
 10.2272750228018 
 20 
-3.63798730819705 
 30 
 0 
 11 
 8.75479227393724 
 21 
-6.81818008422852 
 31 
 0 
 62 
 6 
 0 
LINE
 8 
TemplateLayer
 6 
CONTINUOUS
 10 
 8.75479227393724 
 20 
-6.81818008422852 
 30 
 0 
 11 
 6.8181840178008 
 21 
-8.77055361216485 
 31 
 0 
 62 
 6 
 0 
LINE
 8 
TemplateLayer
 6 
CONTINUOUS
 10 
 6.8181840178008 
 20 
-8.77055361216485 
 30 
 0 
 11 
 3.8570195930057 
 21 
-10.2272710800171 
 31 
 0 
 62 
 6 
 0 
LINE
 8 
TemplateLayer
 6 
CONTINUOUS
 10 
 3.8570195930057 
 20 
-10.2272710800171 
 30 
 0 
 11 
 3.40909301894825 
 21 
-10.4776012551395 
 31 
 0 
 62 
 6 
 0 
LINE
 8 
TemplateLayer
 6 
CONTINUOUS
 10 
 3.40909301894825 
 20 
-10.4776012551395 
 30 
 0 
 11 
 2.02185016525552E-06 
 21 
-11.2071762929638 
 31 
 0 
 62 
 6 
 0 
LINE
 8 
TemplateLayer
 6 
CONTINUOUS
 10 
 2.02185016525552E-06 
 20 
-11.2071762929638 
 30 
 0 
 11 
-3.40908897273626 
 21 
-10.5374163607932 
 31 
 0 
 62 
 6 
 0 
LINE
 8 
TemplateLayer
 6 
CONTINUOUS
 10 
-3.40908897273626 
 20 
-10.5374163607932 
 30 
 0 
 11 
-3.97375761083503 
 21 
-10.2272710800171 
 31 
 0 
 62 
 6 
 0 
LINE
 8 
TemplateLayer
 6 
CONTINUOUS
 10 
-3.97375761083503 
 20 
-10.2272710800171 
 30 
 0 
 11 
-6.81817996552761 
 21 
-8.86755687084904 
 31 
 0 
 62 
 6 
 0 
LINE
 8 
TemplateLayer
 6 
CONTINUOUS
 10 
-6.81817996552761 
 20 
-8.86755687084904 
 30 
 0 
 11 
-8.87478677502839 
 21 
-6.81818008422852 
 31 
 0 
 62 
 6 
 0 
LINE
 8 
TemplateLayer
 6 
CONTINUOUS
 10 
-8.87478677502839 
 20 
-6.81818008422852 
 30 
 0 
 11 
-10.2272709525832 
 21 
-4.00212244151363 
 31 
 0 
 62 
 6 
 0 
LINE
 8 
TemplateLayer
 6 
CONTINUOUS
 10 
-10.2272709525832 
 20 
-4.00212244151363 
 30 
 0 
 11 
-10.5511467198027 
 21 
-3.40908908843994 
 31 
 0 
 62 
 6 
 0 
LINE
 8 
TemplateLayer
 6 
CONTINUOUS
 10 
-6.93795779280682 
 20 
 1.9073486328125E-06 
 30 
 0 
 11 
-6.81817994886513 
 21 
 0.415691708896489 
 31 
 0 
 62 
 214 
 0 
LINE
 8 
TemplateLayer
 6 
CONTINUOUS
 10 
-6.81817994886513 
 20 
 0.415691708896489 
 30 
 0 
 11 
-6.07537808410725 
 21 
 3.40909290313721 
 31 
 0 
 62 
 214 
 0 
LINE
 8 
TemplateLayer
 6 
CONTINUOUS
 10 
-6.07537808410725 
 20 
 3.40909290313721 
 30 
 0 
 11 
-3.4090889428801 
 21 
 6.09649831289801 
 31 
 0 
 62 
 214 
 0 
LINE
 8 
TemplateLayer
 6 
CONTINUOUS
 10 
-3.4090889428801 
 20 
 6.09649831289801 
 30 
 0 
 11 
-0.567179121791518 
 21 
 6.81818389892578 
 31 
 0 
 62 
 214 
 0 
LINE
 8 
TemplateLayer
 6 
CONTINUOUS
 10 
-0.567179121791518 
 20 
 6.81818389892578 
 30 
 0 
 11 
 2.05449915933326E-06 
 21 
 6.98272456700137 
 31 
 0 
 62 
 214 
 0 
LINE
 8 
TemplateLayer
 6 
CONTINUOUS
 10 
 2.05449915933326E-06 
 20 
 6.98272456700137 
 30 
 0 
 11 
 0.529060609280641 
 21 
 6.81818389892578 
 31 
 0 
 62 
 214 
 0 
LINE
 8 
TemplateLayer
 6 
CONTINUOUS
 10 
 0.529060609280641 
 20 
 6.81818389892578 
 30 
 0 
 11 
 3.40909304856986 
 21 
 6.025638105269 
 31 
 0 
 62 
 214 
 0 
LINE
 8 
TemplateLayer
 6 
CONTINUOUS
 10 
 3.40909304856986 
 20 
 6.025638105269 
 30 
 0 
 11 
 5.96984210680997 
 21 
 3.40909290313721 
 31 
 0 
 62 
 214 
 0 
LINE
 8 
TemplateLayer
 6 
CONTINUOUS
 10 
 5.96984210680997 
 20 
 3.40909290313721 
 30 
 0 
 11 
 6.81179486736344 
 21 
 1.9073486328125E-06 
 31 
 0 
 62 
 214 
 0 
LINE
 8 
TemplateLayer
 6 
CONTINUOUS
 10 
 6.81179486736344 
 20 
 1.9073486328125E-06 
 30 
 0 
 11 
 5.98185968611176 
 21 
-3.40908908843994 
 31 
 0 
 62 
 214 
 0 
LINE
 8 
TemplateLayer
 6 
CONTINUOUS
 10 
 5.98185968611176 
 20 
-3.40908908843994 
 30 
 0 
 11 
 3.40909302694246 
 21 
-6.02374592909649 
 31 
 0 
 62 
 214 
 0 
LINE
 8 
TemplateLayer
 6 
CONTINUOUS
 10 
 3.40909302694246 
 20 
-6.02374592909649 
 30 
 0 
 11 
 0.339894837847035 
 21 
-6.81818008422852 
 31 
 0 
 62 
 214 
 0 
LINE
 8 
TemplateLayer
 6 
CONTINUOUS
 10 
 0.339894837847035 
 20 
-6.81818008422852 
 30 
 0 
 11 
 2.02954726800236E-06 
 21 
-6.91885011821559 
 31 
 0 
 62 
 214 
 0 
LINE
 8 
TemplateLayer
 6 
CONTINUOUS
 10 
 2.02954726800236E-06 
 20 
-6.91885011821559 
 30 
 0 
 11 
-0.345823495202046 
 21 
-6.81818008422852 
 31 
 0 
 62 
 214 
 0 
LINE
 8 
TemplateLayer
 6 
CONTINUOUS
 10 
-0.345823495202046 
 20 
-6.81818008422852 
 30 
 0 
 11 
-3.40908896466701 
 21 
-6.04175714840069 
 31 
 0 
 62 
 214 
 0 
LINE
 8 
TemplateLayer
 6 
CONTINUOUS
 10 
-3.40908896466701 
 20 
-6.04175714840069 
 30 
 0 
 11 
-6.03066306388853 
 21 
-3.40908908843994 
 31 
 0 
 62 
 214 
 0 
LINE
 8 
TemplateLayer
 6 
CONTINUOUS
 10 
-6.03066306388853 
 20 
-3.40908908843994 
 30 
 0 
 11 
-6.81817995032467 
 21 
-0.397468734332193 
 31 
 0 
 62 
 214 
 0 
LINE
 8 
TemplateLayer
 6 
CONTINUOUS
 10 
-6.81817995032467 
 20 
-0.397468734332193 
 30 
 0 
 11 
-6.93795779280682 
 21 
 1.9073486328125E-06 
 31 
 0 
 62 
 214 
 0 
LINE
 8 
TemplateLayer
 6 
CONTINUOUS
 10 
-2.20447738384842 
 20 
 1.9073486328125E-06 
 30 
 0 
 11 
 2.04590013801881E-06 
 21 
 2.19190789563982 
 31 
 0 
 62 
 30 
 0 
LINE
 8 
TemplateLayer
 6 
CONTINUOUS
 10 
 2.04590013801881E-06 
 20 
 2.19190789563982 
 30 
 0 
 11 
 2.12497119416985 
 21 
 1.9073486328125E-06 
 31 
 0 
 62 
 30 
 0 
LINE
 8 
TemplateLayer
 6 
CONTINUOUS
 10 
 2.12497119416985 
 20 
 1.9073486328125E-06 
 30 
 0 
 11 
 2.03813381245005E-06 
 21 
-2.13498474602439 
 31 
 0 
 62 
 30 
 0 
LINE
 8 
TemplateLayer
 6 
CONTINUOUS
 10 
 2.03813381245005E-06 
 20 
-2.13498474602439 
 30 
 0 
 11 
-2.20447738384842 
 21 
 1.9073486328125E-06 
 31 
 0 
 62 
 30 
 0 
TEXT
 8 
TemplateLayer
 10 
-3.40908890384823 
 20 
 26.8573357373252 
 30 
 0 
 40 
 1.33 
 50 
 0 
 62 
 7 
 1 
.1
 0 
TEXT
 8 
TemplateLayer
 10 
-21.6867879764754 
 20 
-7.80336530120284 
 30 
 0 
 40 
 1.33 
 50 
 0 
 62 
 1 
 1 
.2
 0 
TEXT
 8 
TemplateLayer
 10 
-17.1342614165449 
 20 
-4.39427430541427 
 30 
 0 
 40 
 1.33 
 50 
 0 
 62 
 3 
 1 
.5
 0 
TEXT
 8 
TemplateLayer
 10 
-13.6866959349173 
 20 
-4.39427430541427 
 30 
 0 
 40 
 1.33 
 50 
 0 
 62 
 5 
 1 
1
 0 
TEXT
 8 
TemplateLayer
 10 
-10.5511467198027 
 20 
-4.39427430541427 
 30 
 0 
 40 
 1.33 
 50 
 0 
 62 
 6 
 1 
2
 0 
TEXT
 8 
TemplateLayer
 10 
-6.93795779280682 
 20 
-0.985183309625696 
 30 
 0 
 40 
 1.33 
 50 
 0 
 62 
 214 
 1 
5
 0 
TEXT
 8 
TemplateLayer
 10 
-2.20447738384842 
 20 
-0.985183309625696 
 30 
 0 
 40 
 1.33 
 50 
 0 
 62 
 30 
 1 
10
 0 
LINE
 8 
TemplateLayer
 6 
CONTINUOUS
 10 
 0 
 20 
 0 
 30 
 0 
 11 
 2 
 21 
 0 
 31 
 0 
 62 
 0 
 0 
LINE
 8 
TemplateLayer
 6 
CONTINUOUS
 10 
 2 
 20 
 0 
 30 
 0 
 11 
 1 
 21 
 0.5 
 31 
 0 
 62 
 0 
 0 
LINE
 8 
TemplateLayer
 6 
CONTINUOUS
 10 
 1 
 20 
 0.5 
 30 
 0 
 11 
 1 
 21 
-0.5 
 31 
 0 
 62 
 0 
 0 
LINE
 8 
TemplateLayer
 6 
CONTINUOUS
 10 
 1 
 20 
-0.5 
 30 
 0 
 11 
 2 
 21 
 0 
 31 
 0 
 62 
 0 
 0 
LINE
 8 
TemplateLayer
 6 
CONTINUOUS
 10 
-0.100000001490116 
 20 
 0.100000001490116 
 30 
 0 
 11 
 0.100000001490116 
 21 
 0.100000001490116 
 31 
 0 
 62 
 0 
 0 
LINE
 8 
TemplateLayer
 6 
CONTINUOUS
 10 
 0.100000001490116 
 20 
 0.100000001490116 
 30 
 0 
 11 
 0.100000001490116 
 21 
-0.100000001490116 
 31 
 0 
 62 
 0 
 0 
LINE
 8 
TemplateLayer
 6 
CONTINUOUS
 10 
 0.100000001490116 
 20 
-0.100000001490116 
 30 
 0 
 11 
-0.100000001490116 
 21 
-0.100000001490116 
 31 
 0 
 62 
 0 
 0 
LINE
 8 
TemplateLayer
 6 
CONTINUOUS
 10 
-0.100000001490116 
 20 
-0.100000001490116 
 30 
 0 
 11 
-0.100000001490116 
 21 
 0.100000001490116 
 31 
 0 
 62 
 0 
 0 
LINE
 8 
TemplateLayer
 6 
CONTINUOUS
 10 
 0 
 20 
 0 
 30 
 0 
 11 
 0 
 21 
 0 
 31 
 0 
 62 
 0 
 0 
ENDBLK
 0 
ENDSEC
 0 
SECTION
 2 
ENTITIES
 0 
INSERT
 2 
Template
 6 
CONTINUOUS
 8 
TemplateLayer
 10 
 0 
 20 
 0 
 30 
 0 
 41 
 1 
 42 
 1 
 43 
 1 
 50 
 0 
 0 
ENDSEC
 0 
EOF
