 0 
SECTION
 2 
HEADER
 9 
$LUNITS
 70 
 2 
 0 
ENDSEC
 0 
SECTION
 2 
TABLES
 0 
TABLE
 2 
LTYPE
 70 
 1 
 0 
LTYPE
 2 
CONTINUOUS
 70 
 0 
 3 
Solid line
 72 
 65 
 73 
 0 
 40 
 0 
 0 
ENDTAB
 0 
TABLE
 2 
LAYER
 70 
 0 
 0 
LAYER
 2 
TemplateLayer
 62 
 7 
 6 
CONTINUOUS
 70 
 0 
 0 
ENDTAB
 0 
ENDSEC
 0 
SECTION
 2 
BLOCKS
 0 
BLOCK
 8 
TemplateLayer
 2 
Template
 70 
 0 
 10 
 0 
 20 
 0 
 30 
 0 
 0 
LINE
 8 
TemplateLayer
 6 
CONTINUOUS
 10 
-27.290956011513 
 20 
-13.6363620758057 
 30 
 0 
 11 
-28.4450828738097 
 21 
-10.2272710800171 
 31 
 0 
 62 
 7 
 0 
LINE
 8 
TemplateLayer
 6 
CONTINUOUS
 10 
-28.4450828738097 
 20 
-10.2272710800171 
 30 
 0 
 11 
-29.3687746825975 
 21 
-6.81818008422852 
 31 
 0 
 62 
 7 
 0 
LINE
 8 
TemplateLayer
 6 
CONTINUOUS
 10 
-29.3687746825975 
 20 
-6.81818008422852 
 30 
 0 
 11 
-29.6065057259831 
 21 
-3.40908908843994 
 31 
 0 
 62 
 7 
 0 
LINE
 8 
TemplateLayer
 6 
CONTINUOUS
 10 
-29.6065057259831 
 20 
-3.40908908843994 
 30 
 0 
 11 
-29.7682696679597 
 21 
 1.9073486328125E-06 
 31 
 0 
 62 
 7 
 0 
LINE
 8 
TemplateLayer
 6 
CONTINUOUS
 10 
-29.7682696679597 
 20 
 1.9073486328125E-06 
 30 
 0 
 11 
-29.6065057137452 
 21 
 3.40909290313721 
 31 
 0 
 62 
 7 
 0 
LINE
 8 
TemplateLayer
 6 
CONTINUOUS
 10 
-29.6065057137452 
 20 
 3.40909290313721 
 30 
 0 
 11 
-29.3687746581217 
 21 
 6.81818389892578 
 31 
 0 
 62 
 7 
 0 
LINE
 8 
TemplateLayer
 6 
CONTINUOUS
 10 
-29.3687746581217 
 20 
 6.81818389892578 
 30 
 0 
 11 
-28.4450828370959 
 21 
 10.2272748947144 
 31 
 0 
 62 
 7 
 0 
LINE
 8 
TemplateLayer
 6 
CONTINUOUS
 10 
-28.4450828370959 
 20 
 10.2272748947144 
 30 
 0 
 11 
-27.2909559625613 
 21 
 13.6363658905029 
 31 
 0 
 62 
 7 
 0 
LINE
 8 
TemplateLayer
 6 
CONTINUOUS
 10 
-27.2909559625613 
 20 
 13.6363658905029 
 30 
 0 
 11 
-27.2727258997985 
 21 
 13.674455523747 
 31 
 0 
 62 
 7 
 0 
LINE
 8 
TemplateLayer
 6 
CONTINUOUS
 10 
-27.2727258997985 
 20 
 13.674455523747 
 30 
 0 
 11 
-25.9258306217046 
 21 
 17.0454568862915 
 31 
 0 
 62 
 7 
 0 
LINE
 8 
TemplateLayer
 6 
CONTINUOUS
 10 
-25.9258306217046 
 20 
 17.0454568862915 
 30 
 0 
 11 
-23.8636348938343 
 21 
 19.3436254128675 
 31 
 0 
 62 
 7 
 0 
LINE
 8 
TemplateLayer
 6 
CONTINUOUS
 10 
-23.8636348938343 
 20 
 19.3436254128675 
 30 
 0 
 11 
-22.7358799758151 
 21 
 20.4545478820801 
 31 
 0 
 62 
 7 
 0 
LINE
 8 
TemplateLayer
 6 
CONTINUOUS
 10 
-22.7358799758151 
 20 
 20.4545478820801 
 30 
 0 
 11 
-20.4545438920381 
 21 
 22.6907086442229 
 31 
 0 
 62 
 7 
 0 
LINE
 8 
TemplateLayer
 6 
CONTINUOUS
 10 
-20.4545438920381 
 20 
 22.6907086442229 
 30 
 0 
 11 
-19.2669154734592 
 21 
 23.8636388778687 
 31 
 0 
 62 
 7 
 0 
LINE
 8 
TemplateLayer
 6 
CONTINUOUS
 10 
-19.2669154734592 
 20 
 23.8636388778687 
 30 
 0 
 11 
-17.045452890392 
 21 
 25.9541191263551 
 31 
 0 
 62 
 7 
 0 
LINE
 8 
TemplateLayer
 6 
CONTINUOUS
 10 
-17.045452890392 
 20 
 25.9541191263551 
 30 
 0 
 11 
-14.6355777089332 
 21 
 27.2727298736572 
 31 
 0 
 62 
 7 
 0 
LINE
 8 
TemplateLayer
 6 
CONTINUOUS
 10 
-14.6355777089332 
 20 
 27.2727298736572 
 30 
 0 
 11 
-13.6363618910936 
 21 
 27.9095926816536 
 31 
 0 
 62 
 7 
 0 
LINE
 8 
TemplateLayer
 6 
CONTINUOUS
 10 
-13.6363618910936 
 20 
 27.9095926816536 
 30 
 0 
 11 
-10.2272708930613 
 21 
 29.1596546650152 
 31 
 0 
 62 
 7 
 0 
LINE
 8 
TemplateLayer
 6 
CONTINUOUS
 10 
-10.2272708930613 
 20 
 29.1596546650152 
 30 
 0 
 11 
-6.81817989618925 
 21 
 29.763277511263 
 31 
 0 
 62 
 7 
 0 
LINE
 8 
TemplateLayer
 6 
CONTINUOUS
 10 
-6.81817989618925 
 20 
 29.763277511263 
 30 
 0 
 11 
-3.40908889981793 
 21 
 30.08794207669 
 31 
 0 
 62 
 7 
 0 
LINE
 8 
TemplateLayer
 6 
CONTINUOUS
 10 
-3.40908889981793 
 20 
 30.08794207669 
 30 
 0 
 11 
 2.0966950665946E-06 
 21 
 30.4915459425789 
 31 
 0 
 62 
 7 
 0 
LINE
 8 
TemplateLayer
 6 
CONTINUOUS
 10 
 2.0966950665946E-06 
 20 
 30.4915459425789 
 30 
 0 
 11 
 3.40909309181889 
 21 
 30.1211894023757 
 31 
 0 
 62 
 7 
 0 
LINE
 8 
TemplateLayer
 6 
CONTINUOUS
 10 
 3.40909309181889 
 20 
 30.1211894023757 
 30 
 0 
 11 
 6.8181840871192 
 21 
 29.8491578174066 
 31 
 0 
 62 
 7 
 0 
LINE
 8 
TemplateLayer
 6 
CONTINUOUS
 10 
 6.8181840871192 
 20 
 29.8491578174066 
 30 
 0 
 11 
 10.2272750822455 
 21 
 29.4802004079591 
 31 
 0 
 62 
 7 
 0 
LINE
 8 
TemplateLayer
 6 
CONTINUOUS
 10 
 10.2272750822455 
 20 
 29.4802004079591 
 30 
 0 
 11 
 13.6363660762617 
 21 
 28.4927344228225 
 31 
 0 
 62 
 7 
 0 
LINE
 8 
TemplateLayer
 6 
CONTINUOUS
 10 
 13.6363660762617 
 20 
 28.4927344228225 
 30 
 0 
 11 
 15.6993783012743 
 21 
 27.2727298736572 
 31 
 0 
 62 
 7 
 0 
LINE
 8 
TemplateLayer
 6 
CONTINUOUS
 10 
 15.6993783012743 
 20 
 27.2727298736572 
 30 
 0 
 11 
 17.0454570686753 
 21 
 26.6124428194298 
 31 
 0 
 62 
 7 
 0 
LINE
 8 
TemplateLayer
 6 
CONTINUOUS
 10 
 17.0454570686753 
 20 
 26.6124428194298 
 30 
 0 
 11 
 19.8777388661098 
 21 
 23.8636388778687 
 31 
 0 
 62 
 7 
 0 
LINE
 8 
TemplateLayer
 6 
CONTINUOUS
 10 
 19.8777388661098 
 20 
 23.8636388778687 
 30 
 0 
 11 
 20.4545480584379 
 21 
 23.2551514317027 
 31 
 0 
 62 
 7 
 0 
LINE
 8 
TemplateLayer
 6 
CONTINUOUS
 10 
 20.4545480584379 
 20 
 23.2551514317027 
 30 
 0 
 11 
 23.5608010771183 
 21 
 20.4545478820801 
 31 
 0 
 62 
 7 
 0 
LINE
 8 
TemplateLayer
 6 
CONTINUOUS
 10 
 23.5608010771183 
 20 
 20.4545478820801 
 30 
 0 
 11 
 23.8636390486405 
 21 
 20.1430121842936 
 31 
 0 
 62 
 7 
 0 
LINE
 8 
TemplateLayer
 6 
CONTINUOUS
 10 
 23.8636390486405 
 20 
 20.1430121842936 
 30 
 0 
 11 
 26.4941569846121 
 21 
 17.0454568862915 
 31 
 0 
 62 
 7 
 0 
LINE
 8 
TemplateLayer
 6 
CONTINUOUS
 10 
 26.4941569846121 
 20 
 17.0454568862915 
 30 
 0 
 11 
 27.2727300355169 
 21 
 15.1777094691303 
 31 
 0 
 62 
 7 
 0 
LINE
 8 
TemplateLayer
 6 
CONTINUOUS
 10 
 27.2727300355169 
 20 
 15.1777094691303 
 30 
 0 
 11 
 28.0273461847083 
 21 
 13.6363658905029 
 31 
 0 
 62 
 7 
 0 
LINE
 8 
TemplateLayer
 6 
CONTINUOUS
 10 
 28.0273461847083 
 20 
 13.6363658905029 
 30 
 0 
 11 
 29.0475277567592 
 21 
 10.2272748947144 
 31 
 0 
 62 
 7 
 0 
LINE
 8 
TemplateLayer
 6 
CONTINUOUS
 10 
 29.0475277567592 
 20 
 10.2272748947144 
 30 
 0 
 11 
 29.8910523176306 
 21 
 6.81818389892578 
 31 
 0 
 62 
 7 
 0 
LINE
 8 
TemplateLayer
 6 
CONTINUOUS
 10 
 29.8910523176306 
 20 
 6.81818389892578 
 30 
 0 
 11 
 30.1479340986684 
 21 
 3.40909290313721 
 31 
 0 
 62 
 7 
 0 
LINE
 8 
TemplateLayer
 6 
CONTINUOUS
 10 
 30.1479340986684 
 20 
 3.40909290313721 
 30 
 0 
 11 
 30.5703796807528 
 21 
 1.9073486328125E-06 
 31 
 0 
 62 
 7 
 0 
LINE
 8 
TemplateLayer
 6 
CONTINUOUS
 10 
 30.5703796807528 
 20 
 1.9073486328125E-06 
 30 
 0 
 11 
 30.1479340864304 
 21 
-3.40908908843994 
 31 
 0 
 62 
 7 
 0 
LINE
 8 
TemplateLayer
 6 
CONTINUOUS
 10 
 30.1479340864304 
 20 
-3.40908908843994 
 30 
 0 
 11 
 29.8910522931547 
 21 
-6.81818008422852 
 31 
 0 
 62 
 7 
 0 
LINE
 8 
TemplateLayer
 6 
CONTINUOUS
 10 
 29.8910522931547 
 20 
-6.81818008422852 
 30 
 0 
 11 
 29.0475277200454 
 21 
-10.2272710800171 
 31 
 0 
 62 
 7 
 0 
LINE
 8 
TemplateLayer
 6 
CONTINUOUS
 10 
 29.0475277200454 
 20 
-10.2272710800171 
 30 
 0 
 11 
 28.0273461357566 
 21 
-13.6363620758057 
 31 
 0 
 62 
 7 
 0 
LINE
 8 
TemplateLayer
 6 
CONTINUOUS
 10 
 28.0273461357566 
 20 
-13.6363620758057 
 30 
 0 
 11 
 27.2727299810321 
 21 
-15.177705654433 
 31 
 0 
 62 
 7 
 0 
LINE
 8 
TemplateLayer
 6 
CONTINUOUS
 10 
 27.2727299810321 
 20 
-15.177705654433 
 30 
 0 
 11 
 26.4941569234224 
 21 
-17.0454530715942 
 31 
 0 
 62 
 7 
 0 
LINE
 8 
TemplateLayer
 6 
CONTINUOUS
 10 
 26.4941569234224 
 20 
-17.0454530715942 
 30 
 0 
 11 
 23.8636389763313 
 21 
-20.1430083695963 
 31 
 0 
 62 
 7 
 0 
LINE
 8 
TemplateLayer
 6 
CONTINUOUS
 10 
 23.8636389763313 
 20 
-20.1430083695963 
 30 
 0 
 11 
 23.5608010036907 
 21 
-20.4545440673828 
 31 
 0 
 62 
 7 
 0 
LINE
 8 
TemplateLayer
 6 
CONTINUOUS
 10 
 23.5608010036907 
 20 
-20.4545440673828 
 30 
 0 
 11 
 20.4545479749567 
 21 
-23.2551476170054 
 31 
 0 
 62 
 7 
 0 
LINE
 8 
TemplateLayer
 6 
CONTINUOUS
 10 
 20.4545479749567 
 20 
-23.2551476170054 
 30 
 0 
 11 
 19.8777387804443 
 21 
-23.8636350631714 
 31 
 0 
 62 
 7 
 0 
LINE
 8 
TemplateLayer
 6 
CONTINUOUS
 10 
 19.8777387804443 
 20 
-23.8636350631714 
 30 
 0 
 11 
 17.0454569731422 
 21 
-26.6124390047325 
 31 
 0 
 62 
 7 
 0 
LINE
 8 
TemplateLayer
 6 
CONTINUOUS
 10 
 17.0454569731422 
 20 
-26.6124390047325 
 30 
 0 
 11 
 15.6993782033709 
 21 
-27.27272605896 
 31 
 0 
 62 
 7 
 0 
LINE
 8 
TemplateLayer
 6 
CONTINUOUS
 10 
 15.6993782033709 
 20 
-27.27272605896 
 30 
 0 
 11 
 13.6363659739787 
 21 
-28.4927306081252 
 31 
 0 
 62 
 7 
 0 
LINE
 8 
TemplateLayer
 6 
CONTINUOUS
 10 
 13.6363659739787 
 20 
-28.4927306081252 
 30 
 0 
 11 
 10.2272749764177 
 21 
-29.4801965932618 
 31 
 0 
 62 
 7 
 0 
LINE
 8 
TemplateLayer
 6 
CONTINUOUS
 10 
 10.2272749764177 
 20 
-29.4801965932618 
 30 
 0 
 11 
 6.81818397996689 
 21 
-29.8491540027094 
 31 
 0 
 62 
 7 
 0 
LINE
 8 
TemplateLayer
 6 
CONTINUOUS
 10 
 6.81818397996689 
 20 
-29.8491540027094 
 30 
 0 
 11 
 3.40909298369005 
 21 
-30.1211855876784 
 31 
 0 
 62 
 7 
 0 
LINE
 8 
TemplateLayer
 6 
CONTINUOUS
 10 
 3.40909298369005 
 20 
-30.1211855876784 
 30 
 0 
 11 
 1.98723671954171E-06 
 21 
-30.4915421278816 
 31 
 0 
 62 
 7 
 0 
LINE
 8 
TemplateLayer
 6 
CONTINUOUS
 10 
 1.98723671954171E-06 
 20 
-30.4915421278816 
 30 
 0 
 11 
-3.40908900782743 
 21 
-30.0879382619927 
 31 
 0 
 62 
 7 
 0 
LINE
 8 
TemplateLayer
 6 
CONTINUOUS
 10 
-3.40908900782743 
 20 
-30.0879382619927 
 30 
 0 
 11 
-6.81818000303326 
 21 
-29.7632736965658 
 31 
 0 
 62 
 7 
 0 
LINE
 8 
TemplateLayer
 6 
CONTINUOUS
 10 
-6.81818000303326 
 20 
-29.7632736965658 
 30 
 0 
 11 
-10.2272709977384 
 21 
-29.1596508503179 
 31 
 0 
 62 
 7 
 0 
LINE
 8 
TemplateLayer
 6 
CONTINUOUS
 10 
-10.2272709977384 
 20 
-29.1596508503179 
 30 
 0 
 11 
-13.6363619912832 
 21 
-27.9095888669563 
 31 
 0 
 62 
 7 
 0 
LINE
 8 
TemplateLayer
 6 
CONTINUOUS
 10 
-13.6363619912832 
 20 
-27.9095888669563 
 30 
 0 
 11 
-14.6355778068367 
 21 
-27.27272605896 
 31 
 0 
 62 
 7 
 0 
LINE
 8 
TemplateLayer
 6 
CONTINUOUS
 10 
-14.6355778068367 
 20 
-27.27272605896 
 30 
 0 
 11 
-17.0454529835619 
 21 
-25.9541153116578 
 31 
 0 
 62 
 7 
 0 
LINE
 8 
TemplateLayer
 6 
CONTINUOUS
 10 
-17.0454529835619 
 20 
-25.9541153116578 
 30 
 0 
 11 
-19.2669155591247 
 21 
-23.8636350631714 
 31 
 0 
 62 
 7 
 0 
LINE
 8 
TemplateLayer
 6 
CONTINUOUS
 10 
-19.2669155591247 
 20 
-23.8636350631714 
 30 
 0 
 11 
-20.454543973493 
 21 
-22.6907048295256 
 31 
 0 
 62 
 7 
 0 
LINE
 8 
TemplateLayer
 6 
CONTINUOUS
 10 
-20.454543973493 
 20 
-22.6907048295256 
 30 
 0 
 11 
-22.7358800492427 
 21 
-20.4545440673828 
 31 
 0 
 62 
 7 
 0 
LINE
 8 
TemplateLayer
 6 
CONTINUOUS
 10 
-22.7358800492427 
 20 
-20.4545440673828 
 30 
 0 
 11 
-23.8636349632739 
 21 
-19.3436215981702 
 31 
 0 
 62 
 7 
 0 
LINE
 8 
TemplateLayer
 6 
CONTINUOUS
 10 
-23.8636349632739 
 20 
-19.3436215981702 
 30 
 0 
 11 
-25.9258306828942 
 21 
-17.0454530715942 
 31 
 0 
 62 
 7 
 0 
LINE
 8 
TemplateLayer
 6 
CONTINUOUS
 10 
-25.9258306828942 
 20 
-17.0454530715942 
 30 
 0 
 11 
-27.2727259488869 
 21 
-13.6744517090497 
 31 
 0 
 62 
 7 
 0 
LINE
 8 
TemplateLayer
 6 
CONTINUOUS
 10 
-27.2727259488869 
 20 
-13.6744517090497 
 30 
 0 
 11 
-27.290956011513 
 21 
-13.6363620758057 
 31 
 0 
 62 
 7 
 0 
LINE
 8 
TemplateLayer
 6 
CONTINUOUS
 10 
-24.9741453633049 
 20 
-6.81818008422852 
 30 
 0 
 11 
-25.4603359133061 
 21 
-3.40908908843994 
 31 
 0 
 62 
 1 
 0 
LINE
 8 
TemplateLayer
 6 
CONTINUOUS
 10 
-25.4603359133061 
 20 
-3.40908908843994 
 30 
 0 
 11 
-25.632082286799 
 21 
 1.9073486328125E-06 
 31 
 0 
 62 
 1 
 0 
LINE
 8 
TemplateLayer
 6 
CONTINUOUS
 10 
-25.632082286799 
 20 
 1.9073486328125E-06 
 30 
 0 
 11 
-25.4603359010681 
 21 
 3.40909290313721 
 31 
 0 
 62 
 1 
 0 
LINE
 8 
TemplateLayer
 6 
CONTINUOUS
 10 
-25.4603359010681 
 20 
 3.40909290313721 
 30 
 0 
 11 
-24.9741453388291 
 21 
 6.81818389892578 
 31 
 0 
 62 
 1 
 0 
LINE
 8 
TemplateLayer
 6 
CONTINUOUS
 10 
-24.9741453388291 
 20 
 6.81818389892578 
 30 
 0 
 11 
-23.8636349114241 
 21 
 9.54372616306151 
 31 
 0 
 62 
 1 
 0 
LINE
 8 
TemplateLayer
 6 
CONTINUOUS
 10 
-23.8636349114241 
 20 
 9.54372616306151 
 30 
 0 
 11 
-23.6746396968343 
 21 
 10.2272748947144 
 31 
 0 
 62 
 1 
 0 
LINE
 8 
TemplateLayer
 6 
CONTINUOUS
 10 
-23.6746396968343 
 20 
 10.2272748947144 
 30 
 0 
 11 
-22.7229129448348 
 21 
 13.6363658905029 
 31 
 0 
 62 
 1 
 0 
LINE
 8 
TemplateLayer
 6 
CONTINUOUS
 10 
-22.7229129448348 
 20 
 13.6363658905029 
 30 
 0 
 11 
-20.4545439023917 
 21 
 16.9223508499927 
 31 
 0 
 62 
 1 
 0 
LINE
 8 
TemplateLayer
 6 
CONTINUOUS
 10 
-20.4545439023917 
 20 
 16.9223508499927 
 30 
 0 
 11 
-20.3766560720186 
 21 
 17.0454568862915 
 31 
 0 
 62 
 1 
 0 
LINE
 8 
TemplateLayer
 6 
CONTINUOUS
 10 
-20.3766560720186 
 20 
 17.0454568862915 
 30 
 0 
 11 
-17.0454529008276 
 21 
 20.1400766665848 
 31 
 0 
 62 
 1 
 0 
LINE
 8 
TemplateLayer
 6 
CONTINUOUS
 10 
-17.0454529008276 
 20 
 20.1400766665848 
 30 
 0 
 11 
-16.5470994545698 
 21 
 20.4545478820801 
 31 
 0 
 62 
 1 
 0 
LINE
 8 
TemplateLayer
 6 
CONTINUOUS
 10 
-16.5470994545698 
 20 
 20.4545478820801 
 30 
 0 
 11 
-13.6363619003746 
 21 
 22.738811923124 
 31 
 0 
 62 
 1 
 0 
LINE
 8 
TemplateLayer
 6 
CONTINUOUS
 10 
-13.6363619003746 
 20 
 22.738811923124 
 30 
 0 
 11 
-10.4976806353313 
 21 
 23.8636388778687 
 31 
 0 
 62 
 1 
 0 
LINE
 8 
TemplateLayer
 6 
CONTINUOUS
 10 
-10.4976806353313 
 20 
 23.8636388778687 
 30 
 0 
 11 
-10.2272709023413 
 21 
 23.9894025610829 
 31 
 0 
 62 
 1 
 0 
LINE
 8 
TemplateLayer
 6 
CONTINUOUS
 10 
-10.2272709023413 
 20 
 23.9894025610829 
 30 
 0 
 11 
-6.81817990418651 
 21 
 25.3077219032988 
 31 
 0 
 62 
 1 
 0 
LINE
 8 
TemplateLayer
 6 
CONTINUOUS
 10 
-6.81817990418651 
 20 
 25.3077219032988 
 30 
 0 
 11 
-3.40908890768868 
 21 
 25.7028759353471 
 31 
 0 
 62 
 1 
 0 
LINE
 8 
TemplateLayer
 6 
CONTINUOUS
 10 
-3.40908890768868 
 20 
 25.7028759353471 
 30 
 0 
 11 
 2.08891384154142E-06 
 21 
 26.1563522759646 
 31 
 0 
 62 
 1 
 0 
LINE
 8 
TemplateLayer
 6 
CONTINUOUS
 10 
 2.08891384154142E-06 
 20 
 26.1563522759646 
 30 
 0 
 11 
 3.40909308398848 
 21 
 25.7585936525098 
 31 
 0 
 62 
 1 
 0 
LINE
 8 
TemplateLayer
 6 
CONTINUOUS
 10 
 3.40909308398848 
 20 
 25.7585936525098 
 30 
 0 
 11 
 6.8181840792026 
 21 
 25.4385428388199 
 31 
 0 
 62 
 1 
 0 
LINE
 8 
TemplateLayer
 6 
CONTINUOUS
 10 
 6.8181840792026 
 20 
 25.4385428388199 
 30 
 0 
 11 
 10.2272750730105 
 21 
 24.3350625826104 
 31 
 0 
 62 
 1 
 0 
LINE
 8 
TemplateLayer
 6 
CONTINUOUS
 10 
 10.2272750730105 
 20 
 24.3350625826104 
 30 
 0 
 11 
 11.4304836589133 
 21 
 23.8636388778687 
 31 
 0 
 62 
 1 
 0 
LINE
 8 
TemplateLayer
 6 
CONTINUOUS
 10 
 11.4304836589133 
 20 
 23.8636388778687 
 30 
 0 
 11 
 13.6363660668384 
 21 
 23.2426634267863 
 31 
 0 
 62 
 1 
 0 
LINE
 8 
TemplateLayer
 6 
CONTINUOUS
 10 
 13.6363660668384 
 20 
 23.2426634267863 
 30 
 0 
 11 
 17.045457058409 
 21 
 20.8927215846462 
 31 
 0 
 62 
 1 
 0 
LINE
 8 
TemplateLayer
 6 
CONTINUOUS
 10 
 17.045457058409 
 20 
 20.8927215846462 
 30 
 0 
 11 
 17.4692644312188 
 21 
 20.4545478820801 
 31 
 0 
 62 
 1 
 0 
LINE
 8 
TemplateLayer
 6 
CONTINUOUS
 10 
 17.4692644312188 
 20 
 20.4545478820801 
 30 
 0 
 11 
 20.4545480477431 
 21 
 17.296704791626 
 31 
 0 
 62 
 1 
 0 
LINE
 8 
TemplateLayer
 6 
CONTINUOUS
 10 
 20.4545480477431 
 20 
 17.296704791626 
 30 
 0 
 11 
 20.7018646064176 
 21 
 17.0454568862915 
 31 
 0 
 62 
 1 
 0 
LINE
 8 
TemplateLayer
 6 
CONTINUOUS
 10 
 20.7018646064176 
 20 
 17.0454568862915 
 30 
 0 
 11 
 22.9470745637539 
 21 
 13.6363658905029 
 31 
 0 
 62 
 1 
 0 
LINE
 8 
TemplateLayer
 6 
CONTINUOUS
 10 
 22.9470745637539 
 20 
 13.6363658905029 
 30 
 0 
 11 
 23.8636390315786 
 21 
 10.6372277967199 
 31 
 0 
 62 
 1 
 0 
LINE
 8 
TemplateLayer
 6 
CONTINUOUS
 10 
 23.8636390315786 
 20 
 10.6372277967199 
 30 
 0 
 11 
 24.0259762729195 
 21 
 10.2272748947144 
 31 
 0 
 62 
 1 
 0 
LINE
 8 
TemplateLayer
 6 
CONTINUOUS
 10 
 24.0259762729195 
 20 
 10.2272748947144 
 30 
 0 
 11 
 25.3799313552301 
 21 
 6.81818389892578 
 31 
 0 
 62 
 1 
 0 
LINE
 8 
TemplateLayer
 6 
CONTINUOUS
 10 
 25.3799313552301 
 20 
 6.81818389892578 
 30 
 0 
 11 
 25.8605593467655 
 21 
 3.40909290313721 
 31 
 0 
 62 
 1 
 0 
LINE
 8 
TemplateLayer
 6 
CONTINUOUS
 10 
 25.8605593467655 
 20 
 3.40909290313721 
 30 
 0 
 11 
 26.3432198290663 
 21 
 1.9073486328125E-06 
 31 
 0 
 62 
 1 
 0 
LINE
 8 
TemplateLayer
 6 
CONTINUOUS
 10 
 26.3432198290663 
 20 
 1.9073486328125E-06 
 30 
 0 
 11 
 25.8605593345276 
 21 
-3.40908908843994 
 31 
 0 
 62 
 1 
 0 
LINE
 8 
TemplateLayer
 6 
CONTINUOUS
 10 
 25.8605593345276 
 20 
-3.40908908843994 
 30 
 0 
 11 
 25.3799313307543 
 21 
-6.81818008422852 
 31 
 0 
 62 
 1 
 0 
LINE
 8 
TemplateLayer
 6 
CONTINUOUS
 10 
 25.3799313307543 
 20 
-6.81818008422852 
 30 
 0 
 11 
 24.0259762362057 
 21 
-10.2272710800171 
 31 
 0 
 62 
 1 
 0 
LINE
 8 
TemplateLayer
 6 
CONTINUOUS
 10 
 24.0259762362057 
 20 
-10.2272710800171 
 30 
 0 
 11 
 23.8636389933932 
 21 
-10.6372239820226 
 31 
 0 
 62 
 1 
 0 
LINE
 8 
TemplateLayer
 6 
CONTINUOUS
 10 
 23.8636389933932 
 20 
-10.6372239820226 
 30 
 0 
 11 
 22.9470745148022 
 21 
-13.6363620758057 
 31 
 0 
 62 
 1 
 0 
LINE
 8 
TemplateLayer
 6 
CONTINUOUS
 10 
 22.9470745148022 
 20 
-13.6363620758057 
 30 
 0 
 11 
 20.7018645452279 
 21 
-17.0454530715942 
 31 
 0 
 62 
 1 
 0 
LINE
 8 
TemplateLayer
 6 
CONTINUOUS
 10 
 20.7018645452279 
 20 
-17.0454530715942 
 30 
 0 
 11 
 20.4545479856515 
 21 
-17.2967009769287 
 31 
 0 
 62 
 1 
 0 
LINE
 8 
TemplateLayer
 6 
CONTINUOUS
 10 
 20.4545479856515 
 20 
-17.2967009769287 
 30 
 0 
 11 
 17.4692643577912 
 21 
-20.4545440673828 
 31 
 0 
 62 
 1 
 0 
LINE
 8 
TemplateLayer
 6 
CONTINUOUS
 10 
 17.4692643577912 
 20 
-20.4545440673828 
 30 
 0 
 11 
 17.0454569834085 
 21 
-20.8927177699489 
 31 
 0 
 62 
 1 
 0 
LINE
 8 
TemplateLayer
 6 
CONTINUOUS
 10 
 17.0454569834085 
 20 
-20.8927177699489 
 30 
 0 
 11 
 13.636365983402 
 21 
-23.2426596120891 
 31 
 0 
 62 
 1 
 0 
LINE
 8 
TemplateLayer
 6 
CONTINUOUS
 10 
 13.636365983402 
 20 
-23.2426596120891 
 30 
 0 
 11 
 11.4304835732478 
 21 
-23.8636350631714 
 31 
 0 
 62 
 1 
 0 
LINE
 8 
TemplateLayer
 6 
CONTINUOUS
 10 
 11.4304835732478 
 20 
-23.8636350631714 
 30 
 0 
 11 
 10.2272749856527 
 21 
-24.3350587679132 
 31 
 0 
 62 
 1 
 0 
LINE
 8 
TemplateLayer
 6 
CONTINUOUS
 10 
 10.2272749856527 
 20 
-24.3350587679132 
 30 
 0 
 11 
 6.81818398788349 
 21 
-25.4385390241226 
 31 
 0 
 62 
 1 
 0 
LINE
 8 
TemplateLayer
 6 
CONTINUOUS
 10 
 6.81818398788349 
 20 
-25.4385390241226 
 30 
 0 
 11 
 3.40909299152045 
 21 
-25.7585898378125 
 31 
 0 
 62 
 1 
 0 
LINE
 8 
TemplateLayer
 6 
CONTINUOUS
 10 
 3.40909299152045 
 20 
-25.7585898378125 
 30 
 0 
 11 
 1.99501794459489E-06 
 21 
-26.1563484612673 
 31 
 0 
 62 
 1 
 0 
LINE
 8 
TemplateLayer
 6 
CONTINUOUS
 10 
 1.99501794459489E-06 
 20 
-26.1563484612673 
 30 
 0 
 11 
-3.40908899995669 
 21 
-25.7028721206498 
 31 
 0 
 62 
 1 
 0 
LINE
 8 
TemplateLayer
 6 
CONTINUOUS
 10 
-3.40908899995669 
 20 
-25.7028721206498 
 30 
 0 
 11 
-6.818179995036 
 21 
-25.3077180886015 
 31 
 0 
 62 
 1 
 0 
LINE
 8 
TemplateLayer
 6 
CONTINUOUS
 10 
-6.818179995036 
 20 
-25.3077180886015 
 30 
 0 
 11 
-10.2272709884583 
 21 
-23.9893987463856 
 31 
 0 
 62 
 1 
 0 
LINE
 8 
TemplateLayer
 6 
CONTINUOUS
 10 
-10.2272709884583 
 20 
-23.9893987463856 
 30 
 0 
 11 
-10.4976807209968 
 21 
-23.8636350631714 
 31 
 0 
 62 
 1 
 0 
LINE
 8 
TemplateLayer
 6 
CONTINUOUS
 10 
-10.4976807209968 
 20 
-23.8636350631714 
 30 
 0 
 11 
-13.6363619820022 
 21 
-22.7388081084268 
 31 
 0 
 62 
 1 
 0 
LINE
 8 
TemplateLayer
 6 
CONTINUOUS
 10 
-13.6363619820022 
 20 
-22.7388081084268 
 30 
 0 
 11 
-16.5470995279974 
 21 
-20.4545440673828 
 31 
 0 
 62 
 1 
 0 
LINE
 8 
TemplateLayer
 6 
CONTINUOUS
 10 
-16.5470995279974 
 20 
-20.4545440673828 
 30 
 0 
 11 
-17.0454529731263 
 21 
-20.1400728518875 
 31 
 0 
 62 
 1 
 0 
LINE
 8 
TemplateLayer
 6 
CONTINUOUS
 10 
-17.0454529731263 
 20 
-20.1400728518875 
 30 
 0 
 11 
-20.3766561332082 
 21 
-17.0454530715942 
 31 
 0 
 62 
 1 
 0 
LINE
 8 
TemplateLayer
 6 
CONTINUOUS
 10 
-20.3766561332082 
 20 
-17.0454530715942 
 30 
 0 
 11 
-20.4545439631394 
 21 
-16.9223470352954 
 31 
 0 
 62 
 1 
 0 
LINE
 8 
TemplateLayer
 6 
CONTINUOUS
 10 
-20.4545439631394 
 20 
-16.9223470352954 
 30 
 0 
 11 
-22.7229129937865 
 21 
-13.6363620758057 
 31 
 0 
 62 
 1 
 0 
LINE
 8 
TemplateLayer
 6 
CONTINUOUS
 10 
-22.7229129937865 
 20 
-13.6363620758057 
 30 
 0 
 11 
-23.6746397335481 
 21 
-10.2272710800171 
 31 
 0 
 62 
 1 
 0 
LINE
 8 
TemplateLayer
 6 
CONTINUOUS
 10 
-23.6746397335481 
 20 
-10.2272710800171 
 30 
 0 
 11 
-23.8636349456841 
 21 
-9.54372234836424 
 31 
 0 
 62 
 1 
 0 
LINE
 8 
TemplateLayer
 6 
CONTINUOUS
 10 
-23.8636349456841 
 20 
-9.54372234836424 
 30 
 0 
 11 
-24.9741453633049 
 21 
-6.81818008422852 
 31 
 0 
 62 
 1 
 0 
LINE
 8 
TemplateLayer
 6 
CONTINUOUS
 10 
 2.07955962026884E-06 
 20 
 20.9447871902253 
 30 
 0 
 11 
 3.40909307447854 
 21 
 20.4602727327551 
 31 
 0 
 62 
 3 
 0 
LINE
 8 
TemplateLayer
 6 
CONTINUOUS
 10 
 3.40909307447854 
 20 
 20.4602727327551 
 30 
 0 
 11 
 3.43208901640022 
 21 
 20.4545478820801 
 31 
 0 
 62 
 3 
 0 
LINE
 8 
TemplateLayer
 6 
CONTINUOUS
 10 
 3.43208901640022 
 20 
 20.4545478820801 
 30 
 0 
 11 
 6.81818406937586 
 21 
 19.9637254498643 
 31 
 0 
 62 
 3 
 0 
LINE
 8 
TemplateLayer
 6 
CONTINUOUS
 10 
 6.81818406937586 
 20 
 19.9637254498643 
 30 
 0 
 11 
 10.2272750631482 
 21 
 18.8403907524437 
 31 
 0 
 62 
 3 
 0 
LINE
 8 
TemplateLayer
 6 
CONTINUOUS
 10 
 10.2272750631482 
 20 
 18.8403907524437 
 30 
 0 
 11 
 13.5733151829675 
 21 
 17.0454568862915 
 31 
 0 
 62 
 3 
 0 
LINE
 8 
TemplateLayer
 6 
CONTINUOUS
 10 
 13.5733151829675 
 20 
 17.0454568862915 
 30 
 0 
 11 
 13.6363660556517 
 21 
 17.0101987564301 
 31 
 0 
 62 
 3 
 0 
LINE
 8 
TemplateLayer
 6 
CONTINUOUS
 10 
 13.6363660556517 
 20 
 17.0101987564301 
 30 
 0 
 11 
 16.9326125952002 
 21 
 13.6363658905029 
 31 
 0 
 62 
 3 
 0 
LINE
 8 
TemplateLayer
 6 
CONTINUOUS
 10 
 16.9326125952002 
 20 
 13.6363658905029 
 30 
 0 
 11 
 17.0454570450525 
 21 
 13.4513009922005 
 31 
 0 
 62 
 3 
 0 
LINE
 8 
TemplateLayer
 6 
CONTINUOUS
 10 
 17.0454570450525 
 20 
 13.4513009922005 
 30 
 0 
 11 
 18.8348783245607 
 21 
 10.2272748947144 
 31 
 0 
 62 
 3 
 0 
LINE
 8 
TemplateLayer
 6 
CONTINUOUS
 10 
 18.8348783245607 
 20 
 10.2272748947144 
 30 
 0 
 11 
 19.9176957854189 
 21 
 6.81818389892578 
 31 
 0 
 62 
 3 
 0 
LINE
 8 
TemplateLayer
 6 
CONTINUOUS
 10 
 19.9176957854189 
 20 
 6.81818389892578 
 30 
 0 
 11 
 20.4245615660322 
 21 
 3.40909290313721 
 31 
 0 
 62 
 3 
 0 
LINE
 8 
TemplateLayer
 6 
CONTINUOUS
 10 
 20.4245615660322 
 20 
 3.40909290313721 
 30 
 0 
 11 
 20.4545480221736 
 21 
 3.05102693441941 
 31 
 0 
 62 
 3 
 0 
LINE
 8 
TemplateLayer
 6 
CONTINUOUS
 10 
 20.4545480221736 
 20 
 3.05102693441941 
 30 
 0 
 11 
 21.0172267842662 
 21 
 1.9073486328125E-06 
 31 
 0 
 62 
 3 
 0 
LINE
 8 
TemplateLayer
 6 
CONTINUOUS
 10 
 21.0172267842662 
 20 
 1.9073486328125E-06 
 30 
 0 
 11 
 20.4545480112211 
 21 
-3.05102311972215 
 31 
 0 
 62 
 3 
 0 
LINE
 8 
TemplateLayer
 6 
CONTINUOUS
 10 
 20.4545480112211 
 20 
-3.05102311972215 
 30 
 0 
 11 
 20.4245615537943 
 21 
-3.40908908843994 
 31 
 0 
 62 
 3 
 0 
LINE
 8 
TemplateLayer
 6 
CONTINUOUS
 10 
 20.4245615537943 
 20 
-3.40908908843994 
 30 
 0 
 11 
 19.9176957609431 
 21 
-6.81818008422852 
 31 
 0 
 62 
 3 
 0 
LINE
 8 
TemplateLayer
 6 
CONTINUOUS
 10 
 19.9176957609431 
 20 
-6.81818008422852 
 30 
 0 
 11 
 18.8348782878469 
 21 
-10.2272710800171 
 31 
 0 
 62 
 3 
 0 
LINE
 8 
TemplateLayer
 6 
CONTINUOUS
 10 
 18.8348782878469 
 20 
-10.2272710800171 
 30 
 0 
 11 
 17.0454569967651 
 21 
-13.4512971775032 
 31 
 0 
 62 
 3 
 0 
LINE
 8 
TemplateLayer
 6 
CONTINUOUS
 10 
 17.0454569967651 
 20 
-13.4512971775032 
 30 
 0 
 11 
 16.9326125462485 
 21 
-13.6363620758057 
 31 
 0 
 62 
 3 
 0 
LINE
 8 
TemplateLayer
 6 
CONTINUOUS
 10 
 16.9326125462485 
 20 
-13.6363620758057 
 30 
 0 
 11 
 13.6363659945886 
 21 
-17.0101949417328 
 31 
 0 
 62 
 3 
 0 
LINE
 8 
TemplateLayer
 6 
CONTINUOUS
 10 
 13.6363659945886 
 20 
-17.0101949417328 
 30 
 0 
 11 
 13.5733151217778 
 21 
-17.0454530715942 
 31 
 0 
 62 
 3 
 0 
LINE
 8 
TemplateLayer
 6 
CONTINUOUS
 10 
 13.5733151217778 
 20 
-17.0454530715942 
 30 
 0 
 11 
 10.2272749955151 
 21 
-18.8403869377465 
 31 
 0 
 62 
 3 
 0 
LINE
 8 
TemplateLayer
 6 
CONTINUOUS
 10 
 10.2272749955151 
 20 
-18.8403869377465 
 30 
 0 
 11 
 6.81818399771022 
 21 
-19.963721635167 
 31 
 0 
 62 
 3 
 0 
LINE
 8 
TemplateLayer
 6 
CONTINUOUS
 10 
 6.81818399771022 
 20 
-19.963721635167 
 30 
 0 
 11 
 3.43208894297262 
 21 
-20.4545440673828 
 31 
 0 
 62 
 3 
 0 
LINE
 8 
TemplateLayer
 6 
CONTINUOUS
 10 
 3.43208894297262 
 20 
-20.4545440673828 
 30 
 0 
 11 
 3.40909300103039 
 21 
-20.4602689180578 
 31 
 0 
 62 
 3 
 0 
LINE
 8 
TemplateLayer
 6 
CONTINUOUS
 10 
 3.40909300103039 
 20 
-20.4602689180578 
 30 
 0 
 11 
 2.0043721658744E-06 
 21 
-20.944783375528 
 31 
 0 
 62 
 3 
 0 
LINE
 8 
TemplateLayer
 6 
CONTINUOUS
 10 
 2.0043721658744E-06 
 20 
-20.944783375528 
 30 
 0 
 11 
-3.04589161644715 
 21 
-20.4545440673828 
 31 
 0 
 62 
 3 
 0 
LINE
 8 
TemplateLayer
 6 
CONTINUOUS
 10 
-3.04589161644715 
 20 
-20.4545440673828 
 30 
 0 
 11 
-3.40908899048597 
 21 
-20.4264013819901 
 31 
 0 
 62 
 3 
 0 
LINE
 8 
TemplateLayer
 6 
CONTINUOUS
 10 
-3.40908899048597 
 20 
-20.4264013819901 
 30 
 0 
 11 
-6.81817998526903 
 21 
-19.8661981759864 
 31 
 0 
 62 
 3 
 0 
LINE
 8 
TemplateLayer
 6 
CONTINUOUS
 10 
-6.81817998526903 
 20 
-19.8661981759864 
 30 
 0 
 11 
-10.2272709789318 
 21 
-18.6818631711483 
 31 
 0 
 62 
 3 
 0 
LINE
 8 
TemplateLayer
 6 
CONTINUOUS
 10 
-10.2272709789318 
 20 
-18.6818631711483 
 30 
 0 
 11 
-12.9829367280323 
 21 
-17.0454530715942 
 31 
 0 
 62 
 3 
 0 
LINE
 8 
TemplateLayer
 6 
CONTINUOUS
 10 
-12.9829367280323 
 20 
-17.0454530715942 
 30 
 0 
 11 
-13.6363619710646 
 21 
-16.6450844381905 
 31 
 0 
 62 
 3 
 0 
LINE
 8 
TemplateLayer
 6 
CONTINUOUS
 10 
-13.6363619710646 
 20 
-16.6450844381905 
 30 
 0 
 11 
-16.5772416715216 
 21 
-13.6363620758057 
 31 
 0 
 62 
 3 
 0 
LINE
 8 
TemplateLayer
 6 
CONTINUOUS
 10 
-16.5772416715216 
 20 
-13.6363620758057 
 30 
 0 
 11 
-17.0454529597818 
 21 
-12.7053467771857 
 31 
 0 
 62 
 3 
 0 
LINE
 8 
TemplateLayer
 6 
CONTINUOUS
 10 
-17.0454529597818 
 20 
-12.7053467771857 
 30 
 0 
 11 
-18.3845598747095 
 21 
-10.2272710800171 
 31 
 0 
 62 
 3 
 0 
LINE
 8 
TemplateLayer
 6 
CONTINUOUS
 10 
-18.3845598747095 
 20 
-10.2272710800171 
 30 
 0 
 11 
-19.6769242847985 
 21 
-6.81818008422852 
 31 
 0 
 62 
 3 
 0 
LINE
 8 
TemplateLayer
 6 
CONTINUOUS
 10 
-19.6769242847985 
 20 
-6.81818008422852 
 30 
 0 
 11 
-20.2357055596622 
 21 
-3.40908908843994 
 31 
 0 
 62 
 3 
 0 
LINE
 8 
TemplateLayer
 6 
CONTINUOUS
 10 
-20.2357055596622 
 20 
-3.40908908843994 
 30 
 0 
 11 
-20.3822124900853 
 21 
 1.9073486328125E-06 
 31 
 0 
 62 
 3 
 0 
LINE
 8 
TemplateLayer
 6 
CONTINUOUS
 10 
-20.3822124900853 
 20 
 1.9073486328125E-06 
 30 
 0 
 11 
-20.2357055474242 
 21 
 3.40909290313721 
 31 
 0 
 62 
 3 
 0 
LINE
 8 
TemplateLayer
 6 
CONTINUOUS
 10 
-20.2357055474242 
 20 
 3.40909290313721 
 30 
 0 
 11 
-19.6769242603227 
 21 
 6.81818389892578 
 31 
 0 
 62 
 3 
 0 
LINE
 8 
TemplateLayer
 6 
CONTINUOUS
 10 
-19.6769242603227 
 20 
 6.81818389892578 
 30 
 0 
 11 
-18.3845598379957 
 21 
 10.2272748947144 
 31 
 0 
 62 
 3 
 0 
LINE
 8 
TemplateLayer
 6 
CONTINUOUS
 10 
-18.3845598379957 
 20 
 10.2272748947144 
 30 
 0 
 11 
-17.0454529141722 
 21 
 12.705350591883 
 31 
 0 
 62 
 3 
 0 
LINE
 8 
TemplateLayer
 6 
CONTINUOUS
 10 
-17.0454529141722 
 20 
 12.705350591883 
 30 
 0 
 11 
-16.5772416225699 
 21 
 13.6363658905029 
 31 
 0 
 62 
 3 
 0 
LINE
 8 
TemplateLayer
 6 
CONTINUOUS
 10 
-16.5772416225699 
 20 
 13.6363658905029 
 30 
 0 
 11 
-13.6363619113122 
 21 
 16.6450882528878 
 31 
 0 
 62 
 3 
 0 
LINE
 8 
TemplateLayer
 6 
CONTINUOUS
 10 
-13.6363619113122 
 20 
 16.6450882528878 
 30 
 0 
 11 
-12.9829366668426 
 21 
 17.0454568862915 
 31 
 0 
 62 
 3 
 0 
LINE
 8 
TemplateLayer
 6 
CONTINUOUS
 10 
-12.9829366668426 
 20 
 17.0454568862915 
 30 
 0 
 11 
-10.2272709118678 
 21 
 18.6818669858456 
 31 
 0 
 62 
 3 
 0 
LINE
 8 
TemplateLayer
 6 
CONTINUOUS
 10 
-10.2272709118678 
 20 
 18.6818669858456 
 30 
 0 
 11 
-6.81817991395348 
 21 
 19.8662019906837 
 31 
 0 
 62 
 3 
 0 
LINE
 8 
TemplateLayer
 6 
CONTINUOUS
 10 
-6.81817991395348 
 20 
 19.8662019906837 
 30 
 0 
 11 
-3.4090889171594 
 21 
 20.4264051966874 
 31 
 0 
 62 
 3 
 0 
LINE
 8 
TemplateLayer
 6 
CONTINUOUS
 10 
-3.4090889171594 
 20 
 20.4264051966874 
 30 
 0 
 11 
-3.04589154301956 
 21 
 20.4545478820801 
 31 
 0 
 62 
 3 
 0 
LINE
 8 
TemplateLayer
 6 
CONTINUOUS
 10 
-3.04589154301956 
 20 
 20.4545478820801 
 30 
 0 
 11 
 2.07955962026884E-06 
 21 
 20.9447871902253 
 31 
 0 
 62 
 3 
 0 
LINE
 8 
TemplateLayer
 6 
CONTINUOUS
 10 
-17.2097847346449 
 20 
 1.9073486328125E-06 
 30 
 0 
 11 
-17.0454529343089 
 21 
 1.48645721883297 
 31 
 0 
 62 
 5 
 0 
LINE
 8 
TemplateLayer
 6 
CONTINUOUS
 10 
-17.0454529343089 
 20 
 1.48645721883297 
 30 
 0 
 11 
-16.9213849195287 
 21 
 3.40909290313721 
 31 
 0 
 62 
 5 
 0 
LINE
 8 
TemplateLayer
 6 
CONTINUOUS
 10 
-16.9213849195287 
 20 
 3.40909290313721 
 30 
 0 
 11 
-16.1046398640153 
 21 
 6.81818389892578 
 31 
 0 
 62 
 5 
 0 
LINE
 8 
TemplateLayer
 6 
CONTINUOUS
 10 
-16.1046398640153 
 20 
 6.81818389892578 
 30 
 0 
 11 
-14.2542597293174 
 21 
 10.2272748947144 
 31 
 0 
 62 
 5 
 0 
LINE
 8 
TemplateLayer
 6 
CONTINUOUS
 10 
-14.2542597293174 
 20 
 10.2272748947144 
 30 
 0 
 11 
-13.63636192124 
 21 
 11.1139443888609 
 31 
 0 
 62 
 5 
 0 
LINE
 8 
TemplateLayer
 6 
CONTINUOUS
 10 
-13.63636192124 
 20 
 11.1139443888609 
 30 
 0 
 11 
-11.2515398914377 
 21 
 13.6363658905029 
 31 
 0 
 62 
 5 
 0 
LINE
 8 
TemplateLayer
 6 
CONTINUOUS
 10 
-11.2515398914377 
 20 
 13.6363658905029 
 30 
 0 
 11 
-10.227270919524 
 21 
 14.4163624170538 
 31 
 0 
 62 
 5 
 0 
LINE
 8 
TemplateLayer
 6 
CONTINUOUS
 10 
-10.227270919524 
 20 
 14.4163624170538 
 30 
 0 
 11 
-6.81817992033578 
 21 
 16.3103974998467 
 31 
 0 
 62 
 5 
 0 
LINE
 8 
TemplateLayer
 6 
CONTINUOUS
 10 
-6.81817992033578 
 20 
 16.3103974998467 
 30 
 0 
 11 
-3.92715442446657 
 21 
 17.0454568862915 
 31 
 0 
 62 
 5 
 0 
LINE
 8 
TemplateLayer
 6 
CONTINUOUS
 10 
-3.92715442446657 
 20 
 17.0454568862915 
 30 
 0 
 11 
-3.40908892289951 
 21 
 17.2283835788764 
 31 
 0 
 62 
 5 
 0 
LINE
 8 
TemplateLayer
 6 
CONTINUOUS
 10 
-3.40908892289951 
 20 
 17.2283835788764 
 30 
 0 
 11 
 2.07397646588559E-06 
 21 
 17.8342158673612 
 31 
 0 
 62 
 5 
 0 
LINE
 8 
TemplateLayer
 6 
CONTINUOUS
 10 
 2.07397646588559E-06 
 20 
 17.8342158673612 
 30 
 0 
 11 
 3.40909306874777 
 21 
 17.2674563921562 
 31 
 0 
 62 
 5 
 0 
LINE
 8 
TemplateLayer
 6 
CONTINUOUS
 10 
 3.40909306874777 
 20 
 17.2674563921562 
 30 
 0 
 11 
 4.05176105659924 
 21 
 17.0454568862915 
 31 
 0 
 62 
 5 
 0 
LINE
 8 
TemplateLayer
 6 
CONTINUOUS
 10 
 4.05176105659924 
 20 
 17.0454568862915 
 30 
 0 
 11 
 6.81818406285821 
 21 
 16.3325127639587 
 31 
 0 
 62 
 5 
 0 
LINE
 8 
TemplateLayer
 6 
CONTINUOUS
 10 
 6.81818406285821 
 20 
 16.3325127639587 
 30 
 0 
 11 
 10.2272750553583 
 21 
 14.5004040313108 
 31 
 0 
 62 
 5 
 0 
LINE
 8 
TemplateLayer
 6 
CONTINUOUS
 10 
 10.2272750553583 
 20 
 14.5004040313108 
 30 
 0 
 11 
 11.4054163599522 
 21 
 13.6363658905029 
 31 
 0 
 62 
 5 
 0 
LINE
 8 
TemplateLayer
 6 
CONTINUOUS
 10 
 11.4054163599522 
 20 
 13.6363658905029 
 30 
 0 
 11 
 13.636366045832 
 21 
 11.5392609986869 
 31 
 0 
 62 
 5 
 0 
LINE
 8 
TemplateLayer
 6 
CONTINUOUS
 10 
 13.636366045832 
 20 
 11.5392609986869 
 30 
 0 
 11 
 14.6381506851669 
 21 
 10.2272748947144 
 31 
 0 
 62 
 5 
 0 
LINE
 8 
TemplateLayer
 6 
CONTINUOUS
 10 
 14.6381506851669 
 20 
 10.2272748947144 
 30 
 0 
 11 
 16.353311207516 
 21 
 6.81818389892578 
 31 
 0 
 62 
 5 
 0 
LINE
 8 
TemplateLayer
 6 
CONTINUOUS
 10 
 16.353311207516 
 20 
 6.81818389892578 
 30 
 0 
 11 
 17.0454570284158 
 21 
 4.18242510770186 
 31 
 0 
 62 
 5 
 0 
LINE
 8 
TemplateLayer
 6 
CONTINUOUS
 10 
 17.0454570284158 
 20 
 4.18242510770186 
 30 
 0 
 11 
 17.3009670115398 
 21 
 3.40909290313721 
 31 
 0 
 62 
 5 
 0 
LINE
 8 
TemplateLayer
 6 
CONTINUOUS
 10 
 17.3009670115398 
 20 
 3.40909290313721 
 30 
 0 
 11 
 17.8955002770657 
 21 
 1.9073486328125E-06 
 31 
 0 
 62 
 5 
 0 
LINE
 8 
TemplateLayer
 6 
CONTINUOUS
 10 
 17.8955002770657 
 20 
 1.9073486328125E-06 
 30 
 0 
 11 
 17.3009669993019 
 21 
-3.40908908843994 
 31 
 0 
 62 
 5 
 0 
LINE
 8 
TemplateLayer
 6 
CONTINUOUS
 10 
 17.3009669993019 
 20 
-3.40908908843994 
 30 
 0 
 11 
 17.0454570134017 
 21 
-4.18242129300459 
 31 
 0 
 62 
 5 
 0 
LINE
 8 
TemplateLayer
 6 
CONTINUOUS
 10 
 17.0454570134017 
 20 
-4.18242129300459 
 30 
 0 
 11 
 16.3533111830402 
 21 
-6.81818008422852 
 31 
 0 
 62 
 5 
 0 
LINE
 8 
TemplateLayer
 6 
CONTINUOUS
 10 
 16.3533111830402 
 20 
-6.81818008422852 
 30 
 0 
 11 
 14.6381506484531 
 21 
-10.2272710800171 
 31 
 0 
 62 
 5 
 0 
LINE
 8 
TemplateLayer
 6 
CONTINUOUS
 10 
 14.6381506484531 
 20 
-10.2272710800171 
 30 
 0 
 11 
 13.6363660044084 
 21 
-11.5392571839897 
 31 
 0 
 62 
 5 
 0 
LINE
 8 
TemplateLayer
 6 
CONTINUOUS
 10 
 13.6363660044084 
 20 
-11.5392571839897 
 30 
 0 
 11 
 11.4054163110005 
 21 
-13.6363620758057 
 31 
 0 
 62 
 5 
 0 
LINE
 8 
TemplateLayer
 6 
CONTINUOUS
 10 
 11.4054163110005 
 20 
-13.6363620758057 
 30 
 0 
 11 
 10.2272750033049 
 21 
-14.5004002166135 
 31 
 0 
 62 
 5 
 0 
LINE
 8 
TemplateLayer
 6 
CONTINUOUS
 10 
 10.2272750033049 
 20 
-14.5004002166135 
 30 
 0 
 11 
 6.81818400422787 
 21 
-16.3325089492614 
 31 
 0 
 62 
 5 
 0 
LINE
 8 
TemplateLayer
 6 
CONTINUOUS
 10 
 6.81818400422787 
 20 
-16.3325089492614 
 30 
 0 
 11 
 4.05176099540958 
 21 
-17.0454530715942 
 31 
 0 
 62 
 5 
 0 
LINE
 8 
TemplateLayer
 6 
CONTINUOUS
 10 
 4.05176099540958 
 20 
-17.0454530715942 
 30 
 0 
 11 
 3.40909300676117 
 21 
-17.267452577459 
 31 
 0 
 62 
 5 
 0 
LINE
 8 
TemplateLayer
 6 
CONTINUOUS
 10 
 3.40909300676117 
 20 
-17.267452577459 
 30 
 0 
 11 
 2.00995532025766E-06 
 21 
-17.834212052664 
 31 
 0 
 62 
 5 
 0 
LINE
 8 
TemplateLayer
 6 
CONTINUOUS
 10 
 2.00995532025766E-06 
 20 
-17.834212052664 
 30 
 0 
 11 
-3.40908898474585 
 21 
-17.2283797641791 
 31 
 0 
 62 
 5 
 0 
LINE
 8 
TemplateLayer
 6 
CONTINUOUS
 10 
-3.40908898474585 
 20 
-17.2283797641791 
 30 
 0 
 11 
-3.92715448565624 
 21 
-17.0454530715942 
 31 
 0 
 62 
 5 
 0 
LINE
 8 
TemplateLayer
 6 
CONTINUOUS
 10 
-3.92715448565624 
 20 
-17.0454530715942 
 30 
 0 
 11 
-6.81817997888673 
 21 
-16.3103936851494 
 31 
 0 
 62 
 5 
 0 
LINE
 8 
TemplateLayer
 6 
CONTINUOUS
 10 
-6.81817997888673 
 20 
-16.3103936851494 
 30 
 0 
 11 
-10.2272709712757 
 21 
-14.4163586023566 
 31 
 0 
 62 
 5 
 0 
LINE
 8 
TemplateLayer
 6 
CONTINUOUS
 10 
-10.2272709712757 
 20 
-14.4163586023566 
 30 
 0 
 11 
-11.2515399403895 
 21 
-13.6363620758057 
 31 
 0 
 62 
 5 
 0 
LINE
 8 
TemplateLayer
 6 
CONTINUOUS
 10 
-11.2515399403895 
 20 
-13.6363620758057 
 30 
 0 
 11 
-13.6363619611368 
 21 
-11.1139405741636 
 31 
 0 
 62 
 5 
 0 
LINE
 8 
TemplateLayer
 6 
CONTINUOUS
 10 
-13.6363619611368 
 20 
-11.1139405741636 
 30 
 0 
 11 
-14.2542597660312 
 21 
-10.2272710800171 
 31 
 0 
 62 
 5 
 0 
LINE
 8 
TemplateLayer
 6 
CONTINUOUS
 10 
-14.2542597660312 
 20 
-10.2272710800171 
 30 
 0 
 11 
-16.1046398884912 
 21 
-6.81818008422852 
 31 
 0 
 62 
 5 
 0 
LINE
 8 
TemplateLayer
 6 
CONTINUOUS
 10 
-16.1046398884912 
 20 
-6.81818008422852 
 30 
 0 
 11 
-16.9213849317666 
 21 
-3.40908908843994 
 31 
 0 
 62 
 5 
 0 
LINE
 8 
TemplateLayer
 6 
CONTINUOUS
 10 
-16.9213849317666 
 20 
-3.40908908843994 
 30 
 0 
 11 
-17.045452939645 
 21 
-1.4864534041357 
 31 
 0 
 62 
 5 
 0 
LINE
 8 
TemplateLayer
 6 
CONTINUOUS
 10 
-17.045452939645 
 20 
-1.4864534041357 
 30 
 0 
 11 
-17.2097847346449 
 21 
 1.9073486328125E-06 
 31 
 0 
 62 
 5 
 0 
LINE
 8 
TemplateLayer
 6 
CONTINUOUS
 10 
-13.7900902023315 
 20 
 1.9073486328125E-06 
 30 
 0 
 11 
-13.6363619394181 
 21 
 0.986279644750056 
 31 
 0 
 62 
 6 
 0 
LINE
 8 
TemplateLayer
 6 
CONTINUOUS
 10 
-13.6363619394181 
 20 
 0.986279644750056 
 30 
 0 
 11 
-13.3691212935696 
 21 
 3.40909290313721 
 31 
 0 
 62 
 6 
 0 
LINE
 8 
TemplateLayer
 6 
CONTINUOUS
 10 
-13.3691212935696 
 20 
 3.40909290313721 
 30 
 0 
 11 
-12.1562007351022 
 21 
 6.81818389892578 
 31 
 0 
 62 
 6 
 0 
LINE
 8 
TemplateLayer
 6 
CONTINUOUS
 10 
-12.1562007351022 
 20 
 6.81818389892578 
 30 
 0 
 11 
-10.2272709286685 
 21 
 9.32159656873797 
 31 
 0 
 62 
 6 
 0 
LINE
 8 
TemplateLayer
 6 
CONTINUOUS
 10 
-10.2272709286685 
 20 
 9.32159656873797 
 30 
 0 
 11 
-9.33830422543361 
 21 
 10.2272748947144 
 31 
 0 
 62 
 6 
 0 
LINE
 8 
TemplateLayer
 6 
CONTINUOUS
 10 
-9.33830422543361 
 20 
 10.2272748947144 
 30 
 0 
 11 
-6.81817992756467 
 21 
 12.2829272288082 
 31 
 0 
 62 
 6 
 0 
LINE
 8 
TemplateLayer
 6 
CONTINUOUS
 10 
-6.81817992756467 
 20 
 12.2829272288082 
 30 
 0 
 11 
-3.40908892939786 
 21 
 13.607930007002 
 31 
 0 
 62 
 6 
 0 
LINE
 8 
TemplateLayer
 6 
CONTINUOUS
 10 
-3.40908892939786 
 20 
 13.607930007002 
 30 
 0 
 11 
-3.13607694676936 
 21 
 13.6363658905029 
 31 
 0 
 62 
 6 
 0 
LINE
 8 
TemplateLayer
 6 
CONTINUOUS
 10 
-3.13607694676936 
 20 
 13.6363658905029 
 30 
 0 
 11 
 2.06725601869379E-06 
 21 
 14.0900187908068 
 31 
 0 
 62 
 6 
 0 
LINE
 8 
TemplateLayer
 6 
CONTINUOUS
 10 
 2.06725601869379E-06 
 20 
 14.0900187908068 
 30 
 0 
 11 
 2.52716795769725 
 21 
 13.6363658905029 
 31 
 0 
 62 
 6 
 0 
LINE
 8 
TemplateLayer
 6 
CONTINUOUS
 10 
 2.52716795769725 
 20 
 13.6363658905029 
 30 
 0 
 11 
 3.40909306202969 
 21 
 13.5245804498711 
 31 
 0 
 62 
 6 
 0 
LINE
 8 
TemplateLayer
 6 
CONTINUOUS
 10 
 3.40909306202969 
 20 
 13.5245804498711 
 30 
 0 
 11 
 6.81818405541886 
 21 
 12.1877861004703 
 31 
 0 
 62 
 6 
 0 
LINE
 8 
TemplateLayer
 6 
CONTINUOUS
 10 
 6.81818405541886 
 20 
 12.1877861004703 
 30 
 0 
 11 
 9.2957185870094 
 21 
 10.2272748947144 
 31 
 0 
 62 
 6 
 0 
LINE
 8 
TemplateLayer
 6 
CONTINUOUS
 10 
 9.2957185870094 
 20 
 10.2272748947144 
 30 
 0 
 11 
 10.2272750459562 
 21 
 9.26212404138361 
 31 
 0 
 62 
 6 
 0 
LINE
 8 
TemplateLayer
 6 
CONTINUOUS
 10 
 10.2272750459562 
 20 
 9.26212404138361 
 30 
 0 
 11 
 12.1101285964771 
 21 
 6.81818389892578 
 31 
 0 
 62 
 6 
 0 
LINE
 8 
TemplateLayer
 6 
CONTINUOUS
 10 
 12.1101285964771 
 20 
 6.81818389892578 
 30 
 0 
 11 
 13.2826168484373 
 21 
 3.40909290313721 
 31 
 0 
 62 
 6 
 0 
LINE
 8 
TemplateLayer
 6 
CONTINUOUS
 10 
 13.2826168484373 
 20 
 3.40909290313721 
 30 
 0 
 11 
 13.5990787733161 
 21 
 1.9073486328125E-06 
 31 
 0 
 62 
 6 
 0 
LINE
 8 
TemplateLayer
 6 
CONTINUOUS
 10 
 13.5990787733161 
 20 
 1.9073486328125E-06 
 30 
 0 
 11 
 13.2826168361994 
 21 
-3.40908908843994 
 31 
 0 
 62 
 6 
 0 
LINE
 8 
TemplateLayer
 6 
CONTINUOUS
 10 
 13.2826168361994 
 20 
-3.40908908843994 
 30 
 0 
 11 
 12.1101285720012 
 21 
-6.81818008422852 
 31 
 0 
 62 
 6 
 0 
LINE
 8 
TemplateLayer
 6 
CONTINUOUS
 10 
 12.1101285720012 
 20 
-6.81818008422852 
 30 
 0 
 11 
 10.2272750127071 
 21 
-9.26212022668635 
 31 
 0 
 62 
 6 
 0 
LINE
 8 
TemplateLayer
 6 
CONTINUOUS
 10 
 10.2272750127071 
 20 
-9.26212022668635 
 30 
 0 
 11 
 9.2957185502956 
 21 
-10.2272710800171 
 31 
 0 
 62 
 6 
 0 
LINE
 8 
TemplateLayer
 6 
CONTINUOUS
 10 
 9.2957185502956 
 20 
-10.2272710800171 
 30 
 0 
 11 
 6.81818401166723 
 21 
-12.187782285773 
 31 
 0 
 62 
 6 
 0 
LINE
 8 
TemplateLayer
 6 
CONTINUOUS
 10 
 6.81818401166723 
 20 
-12.187782285773 
 30 
 0 
 11 
 3.40909301347925 
 21 
-13.5245766351738 
 31 
 0 
 62 
 6 
 0 
LINE
 8 
TemplateLayer
 6 
CONTINUOUS
 10 
 3.40909301347925 
 20 
-13.5245766351738 
 30 
 0 
 11 
 2.52716790874552 
 21 
-13.6363620758057 
 31 
 0 
 62 
 6 
 0 
LINE
 8 
TemplateLayer
 6 
CONTINUOUS
 10 
 2.52716790874552 
 20 
-13.6363620758057 
 30 
 0 
 11 
 2.01667576744946E-06 
 21 
-14.0900149761095 
 31 
 0 
 62 
 6 
 0 
LINE
 8 
TemplateLayer
 6 
CONTINUOUS
 10 
 2.01667576744946E-06 
 20 
-14.0900149761095 
 30 
 0 
 11 
-3.13607699572109 
 21 
-13.6363620758057 
 31 
 0 
 62 
 6 
 0 
LINE
 8 
TemplateLayer
 6 
CONTINUOUS
 10 
-3.13607699572109 
 20 
-13.6363620758057 
 30 
 0 
 11 
-3.40908897824751 
 21 
-13.6079261923047 
 31 
 0 
 62 
 6 
 0 
LINE
 8 
TemplateLayer
 6 
CONTINUOUS
 10 
-3.40908897824751 
 20 
-13.6079261923047 
 30 
 0 
 11 
-6.81817997165784 
 21 
-12.2829234141109 
 31 
 0 
 62 
 6 
 0 
LINE
 8 
TemplateLayer
 6 
CONTINUOUS
 10 
-6.81817997165784 
 20 
-12.2829234141109 
 30 
 0 
 11 
-9.33830426214741 
 21 
-10.2272710800171 
 31 
 0 
 62 
 6 
 0 
LINE
 8 
TemplateLayer
 6 
CONTINUOUS
 10 
-9.33830426214741 
 20 
-10.2272710800171 
 30 
 0 
 11 
-10.2272709621311 
 21 
-9.32159275404071 
 31 
 0 
 62 
 6 
 0 
LINE
 8 
TemplateLayer
 6 
CONTINUOUS
 10 
-10.2272709621311 
 20 
-9.32159275404071 
 30 
 0 
 11 
-12.1562007595781 
 21 
-6.81818008422852 
 31 
 0 
 62 
 6 
 0 
LINE
 8 
TemplateLayer
 6 
CONTINUOUS
 10 
-12.1562007595781 
 20 
-6.81818008422852 
 30 
 0 
 11 
-13.3691213058075 
 21 
-3.40908908843994 
 31 
 0 
 62 
 6 
 0 
LINE
 8 
TemplateLayer
 6 
CONTINUOUS
 10 
-13.3691213058075 
 20 
-3.40908908843994 
 30 
 0 
 11 
-13.6363619429587 
 21 
-0.98627583005279 
 31 
 0 
 62 
 6 
 0 
LINE
 8 
TemplateLayer
 6 
CONTINUOUS
 10 
-13.6363619429587 
 20 
-0.98627583005279 
 30 
 0 
 11 
-13.7900902023315 
 21 
 1.9073486328125E-06 
 31 
 0 
 62 
 6 
 0 
LINE
 8 
TemplateLayer
 6 
CONTINUOUS
 10 
-8.46527480246076 
 20 
-3.40908908843994 
 30 
 0 
 11 
-9.25485539134751 
 21 
 1.9073486328125E-06 
 31 
 0 
 62 
 214 
 0 
LINE
 8 
TemplateLayer
 6 
CONTINUOUS
 10 
-9.25485539134751 
 20 
 1.9073486328125E-06 
 30 
 0 
 11 
-8.46527479022283 
 21 
 3.40909290313721 
 31 
 0 
 62 
 214 
 0 
LINE
 8 
TemplateLayer
 6 
CONTINUOUS
 10 
-8.46527479022283 
 20 
 3.40909290313721 
 30 
 0 
 11 
-6.81817993946122 
 21 
 5.65494196400843 
 31 
 0 
 62 
 214 
 0 
LINE
 8 
TemplateLayer
 6 
CONTINUOUS
 10 
-6.81817993946122 
 20 
 5.65494196400843 
 30 
 0 
 11 
-5.68429152234405 
 21 
 6.81818389892578 
 31 
 0 
 62 
 214 
 0 
LINE
 8 
TemplateLayer
 6 
CONTINUOUS
 10 
-5.68429152234405 
 20 
 6.81818389892578 
 30 
 0 
 11 
-3.40908893853363 
 21 
 8.51807108105537 
 31 
 0 
 62 
 214 
 0 
LINE
 8 
TemplateLayer
 6 
CONTINUOUS
 10 
-3.40908893853363 
 20 
 8.51807108105537 
 30 
 0 
 11 
 2.05869353316068E-06 
 21 
 9.31955748580225 
 31 
 0 
 62 
 214 
 0 
LINE
 8 
TemplateLayer
 6 
CONTINUOUS
 10 
 2.05869353316068E-06 
 20 
 9.31955748580225 
 30 
 0 
 11 
 3.40909305314397 
 21 
 8.57403419196008 
 31 
 0 
 62 
 214 
 0 
LINE
 8 
TemplateLayer
 6 
CONTINUOUS
 10 
 3.40909305314397 
 20 
 8.57403419196008 
 30 
 0 
 11 
 5.71589734826228 
 21 
 6.81818389892578 
 31 
 0 
 62 
 214 
 0 
LINE
 8 
TemplateLayer
 6 
CONTINUOUS
 10 
 5.71589734826228 
 20 
 6.81818389892578 
 30 
 0 
 11 
 6.81818404382572 
 21 
 5.72884539753302 
 31 
 0 
 62 
 214 
 0 
LINE
 8 
TemplateLayer
 6 
CONTINUOUS
 10 
 6.81818404382572 
 20 
 5.72884539753302 
 30 
 0 
 11 
 8.55916789256873 
 21 
 3.40909290313721 
 31 
 0 
 62 
 214 
 0 
LINE
 8 
TemplateLayer
 6 
CONTINUOUS
 10 
 8.55916789256873 
 20 
 3.40909290313721 
 30 
 0 
 11 
 9.44771725850378 
 21 
 1.9073486328125E-06 
 31 
 0 
 62 
 214 
 0 
LINE
 8 
TemplateLayer
 6 
CONTINUOUS
 10 
 9.44771725850378 
 20 
 1.9073486328125E-06 
 30 
 0 
 11 
 8.5591678803308 
 21 
-3.40908908843994 
 31 
 0 
 62 
 214 
 0 
LINE
 8 
TemplateLayer
 6 
CONTINUOUS
 10 
 8.5591678803308 
 20 
-3.40908908843994 
 30 
 0 
 11 
 6.81818402326036 
 21 
-5.72884158283576 
 31 
 0 
 62 
 214 
 0 
LINE
 8 
TemplateLayer
 6 
CONTINUOUS
 10 
 6.81818402326036 
 20 
-5.72884158283576 
 30 
 0 
 11 
 5.71589732378642 
 21 
-6.81818008422852 
 31 
 0 
 62 
 214 
 0 
LINE
 8 
TemplateLayer
 6 
CONTINUOUS
 10 
 5.71589732378642 
 20 
-6.81818008422852 
 30 
 0 
 11 
 3.40909302236496 
 21 
-8.57403037726282 
 31 
 0 
 62 
 214 
 0 
LINE
 8 
TemplateLayer
 6 
CONTINUOUS
 10 
 3.40909302236496 
 20 
-8.57403037726282 
 30 
 0 
 11 
 2.02523825297563E-06 
 21 
-9.31955367110498 
 31 
 0 
 62 
 214 
 0 
LINE
 8 
TemplateLayer
 6 
CONTINUOUS
 10 
 2.02523825297563E-06 
 20 
-9.31955367110498 
 30 
 0 
 11 
-3.40908896911174 
 21 
-8.5180672663581 
 31 
 0 
 62 
 214 
 0 
LINE
 8 
TemplateLayer
 6 
CONTINUOUS
 10 
-3.40908896911174 
 20 
-8.5180672663581 
 30 
 0 
 11 
-5.68429154681991 
 21 
-6.81818008422852 
 31 
 0 
 62 
 214 
 0 
LINE
 8 
TemplateLayer
 6 
CONTINUOUS
 10 
-5.68429154681991 
 20 
-6.81818008422852 
 30 
 0 
 11 
-6.81817995976129 
 21 
-5.65493814931116 
 31 
 0 
 62 
 214 
 0 
LINE
 8 
TemplateLayer
 6 
CONTINUOUS
 10 
-6.81817995976129 
 20 
-5.65493814931116 
 30 
 0 
 11 
-8.46527480246076 
 21 
-3.40908908843994 
 31 
 0 
 62 
 214 
 0 
LINE
 8 
TemplateLayer
 6 
CONTINUOUS
 10 
-6.26707243448963 
 20 
-3.40908908843994 
 30 
 0 
 11 
-6.75160947454243 
 21 
 1.9073486328125E-06 
 31 
 0 
 62 
 30 
 0 
LINE
 8 
TemplateLayer
 6 
CONTINUOUS
 10 
-6.75160947454243 
 20 
 1.9073486328125E-06 
 30 
 0 
 11 
-6.26707242225169 
 21 
 3.40909290313721 
 31 
 0 
 62 
 30 
 0 
LINE
 8 
TemplateLayer
 6 
CONTINUOUS
 10 
-6.26707242225169 
 20 
 3.40909290313721 
 30 
 0 
 11 
-3.40908894255907 
 21 
 6.27535272135715 
 31 
 0 
 62 
 30 
 0 
LINE
 8 
TemplateLayer
 6 
CONTINUOUS
 10 
-3.40908894255907 
 20 
 6.27535272135715 
 30 
 0 
 11 
 2.05413570618374E-06 
 21 
 6.78023205910634 
 31 
 0 
 62 
 30 
 0 
LINE
 8 
TemplateLayer
 6 
CONTINUOUS
 10 
 2.05413570618374E-06 
 20 
 6.78023205910634 
 30 
 0 
 11 
 3.40909304911141 
 21 
 6.32735290239781 
 31 
 0 
 62 
 30 
 0 
LINE
 8 
TemplateLayer
 6 
CONTINUOUS
 10 
 3.40909304911141 
 20 
 6.32735290239781 
 30 
 0 
 11 
 6.33130467446096 
 21 
 3.40909290313721 
 31 
 0 
 62 
 30 
 0 
LINE
 8 
TemplateLayer
 6 
CONTINUOUS
 10 
 6.33130467446096 
 20 
 3.40909290313721 
 30 
 0 
 11 
 6.80362572907632 
 21 
 1.9073486328125E-06 
 31 
 0 
 62 
 30 
 0 
LINE
 8 
TemplateLayer
 6 
CONTINUOUS
 10 
 6.80362572907632 
 20 
 1.9073486328125E-06 
 30 
 0 
 11 
 6.33130466222303 
 21 
-3.40908908843994 
 31 
 0 
 62 
 30 
 0 
LINE
 8 
TemplateLayer
 6 
CONTINUOUS
 10 
 6.33130466222303 
 20 
-3.40908908843994 
 30 
 0 
 11 
 3.40909302639753 
 21 
-6.32734908770054 
 31 
 0 
 62 
 30 
 0 
LINE
 8 
TemplateLayer
 6 
CONTINUOUS
 10 
 3.40909302639753 
 20 
-6.32734908770054 
 30 
 0 
 11 
 2.02979607995257E-06 
 21 
-6.78022824440907 
 31 
 0 
 62 
 30 
 0 
LINE
 8 
TemplateLayer
 6 
CONTINUOUS
 10 
 2.02979607995257E-06 
 20 
-6.78022824440907 
 30 
 0 
 11 
-3.40908896508629 
 21 
-6.27534890665989 
 31 
 0 
 62 
 30 
 0 
LINE
 8 
TemplateLayer
 6 
CONTINUOUS
 10 
-3.40908896508629 
 20 
-6.27534890665989 
 30 
 0 
 11 
-6.26707243448963 
 21 
-3.40908908843994 
 31 
 0 
 62 
 30 
 0 
LINE
 8 
TemplateLayer
 6 
CONTINUOUS
 10 
-4.66385055451696 
 20 
-3.40908908843994 
 30 
 0 
 11 
-6.32577649676569 
 21 
 1.9073486328125E-06 
 31 
 0 
 62 
 94 
 0 
LINE
 8 
TemplateLayer
 6 
CONTINUOUS
 10 
-6.32577649676569 
 20 
 1.9073486328125E-06 
 30 
 0 
 11 
-4.66385054227903 
 21 
 3.40909290313721 
 31 
 0 
 62 
 94 
 0 
LINE
 8 
TemplateLayer
 6 
CONTINUOUS
 10 
-4.66385054227903 
 20 
 3.40909290313721 
 30 
 0 
 11 
-3.40908894544503 
 21 
 4.66748812200586 
 31 
 0 
 62 
 94 
 0 
LINE
 8 
TemplateLayer
 6 
CONTINUOUS
 10 
-3.40908894544503 
 20 
 4.66748812200586 
 30 
 0 
 11 
 2.0536247960154E-06 
 21 
 6.49558606678181 
 31 
 0 
 62 
 94 
 0 
LINE
 8 
TemplateLayer
 6 
CONTINUOUS
 10 
 2.0536247960154E-06 
 20 
 6.49558606678181 
 30 
 0 
 11 
 3.40909304640732 
 21 
 4.82081204283709 
 31 
 0 
 62 
 94 
 0 
LINE
 8 
TemplateLayer
 6 
CONTINUOUS
 10 
 3.40909304640732 
 20 
 4.82081204283709 
 30 
 0 
 11 
 4.82272379994016 
 21 
 3.40909290313721 
 31 
 0 
 62 
 94 
 0 
LINE
 8 
TemplateLayer
 6 
CONTINUOUS
 10 
 4.82272379994016 
 20 
 3.40909290313721 
 30 
 0 
 11 
 6.55459573771433 
 21 
 1.9073486328125E-06 
 31 
 0 
 62 
 94 
 0 
LINE
 8 
TemplateLayer
 6 
CONTINUOUS
 10 
 6.55459573771433 
 20 
 1.9073486328125E-06 
 30 
 0 
 11 
 4.82272378770222 
 21 
-3.40908908843994 
 31 
 0 
 62 
 94 
 0 
LINE
 8 
TemplateLayer
 6 
CONTINUOUS
 10 
 4.82272378770222 
 20 
-3.40908908843994 
 30 
 0 
 11 
 3.40909302910161 
 21 
-4.82080822813982 
 31 
 0 
 62 
 94 
 0 
LINE
 8 
TemplateLayer
 6 
CONTINUOUS
 10 
 3.40909302910161 
 20 
-4.82080822813982 
 30 
 0 
 11 
 2.03030699012091E-06 
 21 
-6.49558225208455 
 31 
 0 
 62 
 94 
 0 
LINE
 8 
TemplateLayer
 6 
CONTINUOUS
 10 
 2.03030699012091E-06 
 20 
-6.49558225208455 
 30 
 0 
 11 
-3.40908896220034 
 21 
-4.6674843073086 
 31 
 0 
 62 
 94 
 0 
LINE
 8 
TemplateLayer
 6 
CONTINUOUS
 10 
-3.40908896220034 
 20 
-4.6674843073086 
 30 
 0 
 11 
-4.66385055451696 
 21 
-3.40908908843994 
 31 
 0 
 62 
 94 
 0 
LINE
 8 
TemplateLayer
 6 
CONTINUOUS
 10 
-5.0482775634355 
 20 
 1.9073486328125E-06 
 30 
 0 
 11 
-3.40908894994016 
 21 
 2.16309042289284 
 31 
 0 
 62 
 172 
 0 
LINE
 8 
TemplateLayer
 6 
CONTINUOUS
 10 
-3.40908894994016 
 20 
 2.16309042289284 
 30 
 0 
 11 
-2.65772885006445 
 21 
 3.40909290313721 
 31 
 0 
 62 
 172 
 0 
LINE
 8 
TemplateLayer
 6 
CONTINUOUS
 10 
-2.65772885006445 
 20 
 3.40909290313721 
 30 
 0 
 11 
 2.05209206551038E-06 
 21 
 5.64164808980827 
 31 
 0 
 62 
 172 
 0 
LINE
 8 
TemplateLayer
 6 
CONTINUOUS
 10 
 2.05209206551038E-06 
 20 
 5.64164808980827 
 30 
 0 
 11 
 2.69915950622436 
 21 
 3.40909290313721 
 31 
 0 
 62 
 172 
 0 
LINE
 8 
TemplateLayer
 6 
CONTINUOUS
 10 
 2.69915950622436 
 20 
 3.40909290313721 
 30 
 0 
 11 
 3.40909304279398 
 21 
 2.80769265077021 
 31 
 0 
 62 
 172 
 0 
LINE
 8 
TemplateLayer
 6 
CONTINUOUS
 10 
 3.40909304279398 
 20 
 2.80769265077021 
 30 
 0 
 11 
 5.80750576362838 
 21 
 1.9073486328125E-06 
 31 
 0 
 62 
 172 
 0 
LINE
 8 
TemplateLayer
 6 
CONTINUOUS
 10 
 5.80750576362838 
 20 
 1.9073486328125E-06 
 30 
 0 
 11 
 3.40909303271495 
 21 
-2.80768883607294 
 31 
 0 
 62 
 172 
 0 
LINE
 8 
TemplateLayer
 6 
CONTINUOUS
 10 
 3.40909303271495 
 20 
-2.80768883607294 
 30 
 0 
 11 
 2.69915949398642 
 21 
-3.40908908843994 
 31 
 0 
 62 
 172 
 0 
LINE
 8 
TemplateLayer
 6 
CONTINUOUS
 10 
 2.69915949398642 
 20 
-3.40908908843994 
 30 
 0 
 11 
 2.03183972062593E-06 
 21 
-5.64164427511101 
 31 
 0 
 62 
 172 
 0 
LINE
 8 
TemplateLayer
 6 
CONTINUOUS
 10 
 2.03183972062593E-06 
 20 
-5.64164427511101 
 30 
 0 
 11 
-2.65772886230238 
 21 
-3.40908908843994 
 31 
 0 
 62 
 172 
 0 
LINE
 8 
TemplateLayer
 6 
CONTINUOUS
 10 
-2.65772886230238 
 20 
-3.40908908843994 
 30 
 0 
 11 
-3.4090889577052 
 21 
-2.16308660819557 
 31 
 0 
 62 
 172 
 0 
LINE
 8 
TemplateLayer
 6 
CONTINUOUS
 10 
-3.4090889577052 
 20 
-2.16308660819557 
 30 
 0 
 11 
-5.0482775634355 
 21 
 1.9073486328125E-06 
 31 
 0 
 62 
 172 
 0 
TEXT
 8 
TemplateLayer
 10 
-27.290956011513 
 20 
-14.62154729278 
 30 
 0 
 40 
 1.33 
 50 
 0 
 62 
 7 
 1 
.1
 0 
TEXT
 8 
TemplateLayer
 10 
-24.9741453633049 
 20 
-7.80336530120284 
 30 
 0 
 40 
 1.33 
 50 
 0 
 62 
 1 
 1 
.2
 0 
TEXT
 8 
TemplateLayer
 10 
 2.07955962026884E-06 
 20 
 19.9596019732509 
 30 
 0 
 40 
 1.33 
 50 
 0 
 62 
 3 
 1 
.5
 0 
TEXT
 8 
TemplateLayer
 10 
-17.2097847346449 
 20 
-0.985183309625696 
 30 
 0 
 40 
 1.33 
 50 
 0 
 62 
 5 
 1 
1
 0 
TEXT
 8 
TemplateLayer
 10 
-13.7900902023315 
 20 
-0.985183309625696 
 30 
 0 
 40 
 1.33 
 50 
 0 
 62 
 6 
 1 
2
 0 
TEXT
 8 
TemplateLayer
 10 
-8.46527480246076 
 20 
-4.39427430541427 
 30 
 0 
 40 
 1.33 
 50 
 0 
 62 
 214 
 1 
5
 0 
TEXT
 8 
TemplateLayer
 10 
-6.75160947454243 
 20 
-0.985183309625696 
 30 
 0 
 40 
 1.33 
 50 
 0 
 62 
 30 
 1 
10
 0 
TEXT
 8 
TemplateLayer
 10 
-4.66385055451696 
 20 
-4.39427430541427 
 30 
 0 
 40 
 1.33 
 50 
 0 
 62 
 94 
 1 
20
 0 
TEXT
 8 
TemplateLayer
 10 
-3.40908894994016 
 20 
 1.17790520591851 
 30 
 0 
 40 
 1.33 
 50 
 0 
 62 
 172 
 1 
50
 0 
LINE
 8 
TemplateLayer
 6 
CONTINUOUS
 10 
 0 
 20 
 0 
 30 
 0 
 11 
 2 
 21 
 0 
 31 
 0 
 62 
 0 
 0 
LINE
 8 
TemplateLayer
 6 
CONTINUOUS
 10 
 2 
 20 
 0 
 30 
 0 
 11 
 1 
 21 
 0.5 
 31 
 0 
 62 
 0 
 0 
LINE
 8 
TemplateLayer
 6 
CONTINUOUS
 10 
 1 
 20 
 0.5 
 30 
 0 
 11 
 1 
 21 
-0.5 
 31 
 0 
 62 
 0 
 0 
LINE
 8 
TemplateLayer
 6 
CONTINUOUS
 10 
 1 
 20 
-0.5 
 30 
 0 
 11 
 2 
 21 
 0 
 31 
 0 
 62 
 0 
 0 
LINE
 8 
TemplateLayer
 6 
CONTINUOUS
 10 
-0.100000001490116 
 20 
 0.100000001490116 
 30 
 0 
 11 
 0.100000001490116 
 21 
 0.100000001490116 
 31 
 0 
 62 
 0 
 0 
LINE
 8 
TemplateLayer
 6 
CONTINUOUS
 10 
 0.100000001490116 
 20 
 0.100000001490116 
 30 
 0 
 11 
 0.100000001490116 
 21 
-0.100000001490116 
 31 
 0 
 62 
 0 
 0 
LINE
 8 
TemplateLayer
 6 
CONTINUOUS
 10 
 0.100000001490116 
 20 
-0.100000001490116 
 30 
 0 
 11 
-0.100000001490116 
 21 
-0.100000001490116 
 31 
 0 
 62 
 0 
 0 
LINE
 8 
TemplateLayer
 6 
CONTINUOUS
 10 
-0.100000001490116 
 20 
-0.100000001490116 
 30 
 0 
 11 
-0.100000001490116 
 21 
 0.100000001490116 
 31 
 0 
 62 
 0 
 0 
LINE
 8 
TemplateLayer
 6 
CONTINUOUS
 10 
 0 
 20 
 0 
 30 
 0 
 11 
 0 
 21 
 0 
 31 
 0 
 62 
 0 
 0 
ENDBLK
 0 
ENDSEC
 0 
SECTION
 2 
ENTITIES
 0 
INSERT
 2 
Template
 6 
CONTINUOUS
 8 
TemplateLayer
 10 
 0 
 20 
 0 
 30 
 0 
 41 
 1 
 42 
 1 
 43 
 1 
 50 
 0 
 0 
ENDSEC
 0 
EOF
