 0 
SECTION
 2 
HEADER
 9 
$LUNITS
 70 
 2 
 0 
ENDSEC
 0 
SECTION
 2 
TABLES
 0 
TABLE
 2 
LTYPE
 70 
 1 
 0 
LTYPE
 2 
CONTINUOUS
 70 
 0 
 3 
Solid line
 72 
 65 
 73 
 0 
 40 
 0 
 0 
ENDTAB
 0 
TABLE
 2 
LAYER
 70 
 0 
 0 
LAYER
 2 
TemplateLayer
 62 
 7 
 6 
CONTINUOUS
 70 
 0 
 0 
ENDTAB
 0 
ENDSEC
 0 
SECTION
 2 
BLOCKS
 0 
BLOCK
 8 
TemplateLayer
 2 
Template
 70 
 0 
 10 
 0 
 20 
 0 
 30 
 0 
 0 
LINE
 8 
TemplateLayer
 6 
CONTINUOUS
 10 
-31.2308134112726 
 20 
-6.81818008422852 
 30 
 0 
 11 
-31.865860002305 
 21 
-3.40908908843994 
 31 
 0 
 62 
 7 
 0 
LINE
 8 
TemplateLayer
 6 
CONTINUOUS
 10 
-31.865860002305 
 20 
-3.40908908843994 
 30 
 0 
 11 
-31.7943405839643 
 21 
 1.9073486328125E-06 
 31 
 0 
 62 
 7 
 0 
LINE
 8 
TemplateLayer
 6 
CONTINUOUS
 10 
-31.7943405839643 
 20 
 1.9073486328125E-06 
 30 
 0 
 11 
-31.8658599900671 
 21 
 3.40909290313721 
 31 
 0 
 62 
 7 
 0 
LINE
 8 
TemplateLayer
 6 
CONTINUOUS
 10 
-31.8658599900671 
 20 
 3.40909290313721 
 30 
 0 
 11 
-31.2308133867968 
 21 
 6.81818389892578 
 31 
 0 
 62 
 7 
 0 
LINE
 8 
TemplateLayer
 6 
CONTINUOUS
 10 
-31.2308133867968 
 20 
 6.81818389892578 
 30 
 0 
 11 
-30.6818169046783 
 21 
 8.60940160311463 
 31 
 0 
 62 
 7 
 0 
LINE
 8 
TemplateLayer
 6 
CONTINUOUS
 10 
-30.6818169046783 
 20 
 8.60940160311463 
 30 
 0 
 11 
-30.3451166284072 
 21 
 10.2272748947144 
 31 
 0 
 62 
 7 
 0 
LINE
 8 
TemplateLayer
 6 
CONTINUOUS
 10 
-30.3451166284072 
 20 
 10.2272748947144 
 30 
 0 
 11 
-29.1864656966753 
 21 
 13.6363658905029 
 31 
 0 
 62 
 7 
 0 
LINE
 8 
TemplateLayer
 6 
CONTINUOUS
 10 
-29.1864656966753 
 20 
 13.6363658905029 
 30 
 0 
 11 
-27.2727258937479 
 21 
 17.0454568862915 
 31 
 0 
 62 
 7 
 0 
LINE
 8 
TemplateLayer
 6 
CONTINUOUS
 10 
-27.2727258937479 
 20 
 17.0454568862915 
 30 
 0 
 11 
-25.1408436109531 
 21 
 20.4545478820801 
 31 
 0 
 62 
 7 
 0 
LINE
 8 
TemplateLayer
 6 
CONTINUOUS
 10 
-25.1408436109531 
 20 
 20.4545478820801 
 30 
 0 
 11 
-23.8636348892403 
 21 
 21.9031394010864 
 31 
 0 
 62 
 7 
 0 
LINE
 8 
TemplateLayer
 6 
CONTINUOUS
 10 
-23.8636348892403 
 20 
 21.9031394010864 
 30 
 0 
 11 
-21.8841625096048 
 21 
 23.8636388778687 
 31 
 0 
 62 
 7 
 0 
LINE
 8 
TemplateLayer
 6 
CONTINUOUS
 10 
-21.8841625096048 
 20 
 23.8636388778687 
 30 
 0 
 11 
-20.4545438876271 
 21 
 25.148223720056 
 31 
 0 
 62 
 7 
 0 
LINE
 8 
TemplateLayer
 6 
CONTINUOUS
 10 
-20.4545438876271 
 20 
 25.148223720056 
 30 
 0 
 11 
-18.9886347454649 
 21 
 27.2727298736572 
 31 
 0 
 62 
 7 
 0 
LINE
 8 
TemplateLayer
 6 
CONTINUOUS
 10 
-18.9886347454649 
 20 
 27.2727298736572 
 30 
 0 
 11 
-17.0454528843921 
 21 
 29.2968775035803 
 31 
 0 
 62 
 7 
 0 
LINE
 8 
TemplateLayer
 6 
CONTINUOUS
 10 
-17.0454528843921 
 20 
 29.2968775035803 
 30 
 0 
 11 
-15.9393416361327 
 21 
 30.6818208694458 
 31 
 0 
 62 
 7 
 0 
LINE
 8 
TemplateLayer
 6 
CONTINUOUS
 10 
-15.9393416361327 
 20 
 30.6818208694458 
 30 
 0 
 11 
-13.6363618828871 
 21 
 32.4816788538961 
 31 
 0 
 62 
 7 
 0 
LINE
 8 
TemplateLayer
 6 
CONTINUOUS
 10 
-13.6363618828871 
 20 
 32.4816788538961 
 30 
 0 
 11 
-10.2272708857515 
 21 
 33.2321579053541 
 31 
 0 
 62 
 7 
 0 
LINE
 8 
TemplateLayer
 6 
CONTINUOUS
 10 
-10.2272708857515 
 20 
 33.2321579053541 
 30 
 0 
 11 
-6.81817988957357 
 21 
 33.4491024491411 
 31 
 0 
 62 
 7 
 0 
LINE
 8 
TemplateLayer
 6 
CONTINUOUS
 10 
-6.81817988957357 
 20 
 33.4491024491411 
 30 
 0 
 11 
-3.40908889361573 
 21 
 33.5434075174054 
 31 
 0 
 62 
 7 
 0 
LINE
 8 
TemplateLayer
 6 
CONTINUOUS
 10 
-3.40908889361573 
 20 
 33.5434075174054 
 30 
 0 
 11 
 2.10226946360109E-06 
 21 
 33.5972382226274 
 31 
 0 
 62 
 7 
 0 
LINE
 8 
TemplateLayer
 6 
CONTINUOUS
 10 
 2.10226946360109E-06 
 20 
 33.5972382226274 
 30 
 0 
 11 
 3.40909309797517 
 21 
 33.5510715860883 
 31 
 0 
 62 
 7 
 0 
LINE
 8 
TemplateLayer
 6 
CONTINUOUS
 10 
 3.40909309797517 
 20 
 33.5510715860883 
 30 
 0 
 11 
 6.81818409352308 
 21 
 33.4169889204682 
 31 
 0 
 62 
 7 
 0 
LINE
 8 
TemplateLayer
 6 
CONTINUOUS
 10 
 6.81818409352308 
 20 
 33.4169889204682 
 30 
 0 
 11 
 10.2272750888131 
 21 
 33.1392212932719 
 31 
 0 
 62 
 7 
 0 
LINE
 8 
TemplateLayer
 6 
CONTINUOUS
 10 
 10.2272750888131 
 20 
 33.1392212932719 
 30 
 0 
 11 
 13.6363660830236 
 21 
 32.2600154408308 
 31 
 0 
 62 
 7 
 0 
LINE
 8 
TemplateLayer
 6 
CONTINUOUS
 10 
 13.6363660830236 
 20 
 32.2600154408308 
 30 
 0 
 11 
 15.640645270458 
 21 
 30.6818208694458 
 31 
 0 
 62 
 7 
 0 
LINE
 8 
TemplateLayer
 6 
CONTINUOUS
 10 
 15.640645270458 
 20 
 30.6818208694458 
 30 
 0 
 11 
 17.0454570728526 
 21 
 28.9397302351999 
 31 
 0 
 62 
 7 
 0 
LINE
 8 
TemplateLayer
 6 
CONTINUOUS
 10 
 17.0454570728526 
 20 
 28.9397302351999 
 30 
 0 
 11 
 18.7015141362643 
 21 
 27.2727298736572 
 31 
 0 
 62 
 7 
 0 
LINE
 8 
TemplateLayer
 6 
CONTINUOUS
 10 
 18.7015141362643 
 20 
 27.2727298736572 
 30 
 0 
 11 
 20.4545480613567 
 21 
 24.8812777434443 
 31 
 0 
 62 
 7 
 0 
LINE
 8 
TemplateLayer
 6 
CONTINUOUS
 10 
 20.4545480613567 
 20 
 24.8812777434443 
 30 
 0 
 11 
 21.5650009882284 
 21 
 23.8636388778687 
 31 
 0 
 62 
 7 
 0 
LINE
 8 
TemplateLayer
 6 
CONTINUOUS
 10 
 21.5650009882284 
 20 
 23.8636388778687 
 30 
 0 
 11 
 23.8636390511384 
 21 
 21.5346558041533 
 31 
 0 
 62 
 7 
 0 
LINE
 8 
TemplateLayer
 6 
CONTINUOUS
 10 
 23.8636390511384 
 20 
 21.5346558041533 
 30 
 0 
 11 
 24.8150131088701 
 21 
 20.4545478820801 
 31 
 0 
 62 
 7 
 0 
LINE
 8 
TemplateLayer
 6 
CONTINUOUS
 10 
 24.8150131088701 
 20 
 20.4545478820801 
 30 
 0 
 11 
 27.0517081624466 
 21 
 17.0454568862915 
 31 
 0 
 62 
 7 
 0 
LINE
 8 
TemplateLayer
 6 
CONTINUOUS
 10 
 27.0517081624466 
 20 
 17.0454568862915 
 30 
 0 
 11 
 27.2727300380349 
 21 
 16.5805803166239 
 31 
 0 
 62 
 7 
 0 
LINE
 8 
TemplateLayer
 6 
CONTINUOUS
 10 
 27.2727300380349 
 20 
 16.5805803166239 
 30 
 0 
 11 
 28.9335690840146 
 21 
 13.6363658905029 
 31 
 0 
 62 
 7 
 0 
LINE
 8 
TemplateLayer
 6 
CONTINUOUS
 10 
 28.9335690840146 
 20 
 13.6363658905029 
 30 
 0 
 11 
 30.1405967938867 
 21 
 10.2272748947144 
 31 
 0 
 62 
 7 
 0 
LINE
 8 
TemplateLayer
 6 
CONTINUOUS
 10 
 30.1405967938867 
 20 
 10.2272748947144 
 30 
 0 
 11 
 30.6818210177908 
 21 
 7.64822250464039 
 31 
 0 
 62 
 7 
 0 
LINE
 8 
TemplateLayer
 6 
CONTINUOUS
 10 
 30.6818210177908 
 20 
 7.64822250464039 
 30 
 0 
 11 
 30.937046647979 
 21 
 6.81818389892578 
 31 
 0 
 62 
 7 
 0 
LINE
 8 
TemplateLayer
 6 
CONTINUOUS
 10 
 30.937046647979 
 20 
 6.81818389892578 
 30 
 0 
 11 
 31.6197289028893 
 21 
 3.40909290313721 
 31 
 0 
 62 
 7 
 0 
LINE
 8 
TemplateLayer
 6 
CONTINUOUS
 10 
 31.6197289028893 
 20 
 3.40909290313721 
 30 
 0 
 11 
 32.0175011805269 
 21 
 1.9073486328125E-06 
 31 
 0 
 62 
 7 
 0 
LINE
 8 
TemplateLayer
 6 
CONTINUOUS
 10 
 32.0175011805269 
 20 
 1.9073486328125E-06 
 30 
 0 
 11 
 31.6197288906514 
 21 
-3.40908908843994 
 31 
 0 
 62 
 7 
 0 
LINE
 8 
TemplateLayer
 6 
CONTINUOUS
 10 
 31.6197288906514 
 20 
-3.40908908843994 
 30 
 0 
 11 
 30.9370466235031 
 21 
-6.81818008422852 
 31 
 0 
 62 
 7 
 0 
LINE
 8 
TemplateLayer
 6 
CONTINUOUS
 10 
 30.9370466235031 
 20 
-6.81818008422852 
 30 
 0 
 11 
 30.6818209903353 
 21 
-7.64821868994312 
 31 
 0 
 62 
 7 
 0 
LINE
 8 
TemplateLayer
 6 
CONTINUOUS
 10 
 30.6818209903353 
 20 
-7.64821868994312 
 30 
 0 
 11 
 30.1405967571729 
 21 
-10.2272710800171 
 31 
 0 
 62 
 7 
 0 
LINE
 8 
TemplateLayer
 6 
CONTINUOUS
 10 
 30.1405967571729 
 20 
-10.2272710800171 
 30 
 0 
 11 
 28.9335690350629 
 21 
-13.6363620758057 
 31 
 0 
 62 
 7 
 0 
LINE
 8 
TemplateLayer
 6 
CONTINUOUS
 10 
 28.9335690350629 
 20 
-13.6363620758057 
 30 
 0 
 11 
 27.2727299785141 
 21 
-16.5805765019266 
 31 
 0 
 62 
 7 
 0 
LINE
 8 
TemplateLayer
 6 
CONTINUOUS
 10 
 27.2727299785141 
 20 
-16.5805765019266 
 30 
 0 
 11 
 27.0517081012569 
 21 
-17.0454530715942 
 31 
 0 
 62 
 7 
 0 
LINE
 8 
TemplateLayer
 6 
CONTINUOUS
 10 
 27.0517081012569 
 20 
-17.0454530715942 
 30 
 0 
 11 
 24.8150130354425 
 21 
-20.4545440673828 
 31 
 0 
 62 
 7 
 0 
LINE
 8 
TemplateLayer
 6 
CONTINUOUS
 10 
 24.8150130354425 
 20 
-20.4545440673828 
 30 
 0 
 11 
 23.8636389738334 
 21 
-21.534651989456 
 31 
 0 
 62 
 7 
 0 
LINE
 8 
TemplateLayer
 6 
CONTINUOUS
 10 
 23.8636389738334 
 20 
-21.534651989456 
 30 
 0 
 11 
 21.5650009025629 
 21 
-23.8636350631714 
 31 
 0 
 62 
 7 
 0 
LINE
 8 
TemplateLayer
 6 
CONTINUOUS
 10 
 21.5650009025629 
 20 
-23.8636350631714 
 30 
 0 
 11 
 20.454547972038 
 21 
-24.881273928747 
 31 
 0 
 62 
 7 
 0 
LINE
 8 
TemplateLayer
 6 
CONTINUOUS
 10 
 20.454547972038 
 20 
-24.881273928747 
 30 
 0 
 11 
 18.7015140383609 
 21 
-27.27272605896 
 31 
 0 
 62 
 7 
 0 
LINE
 8 
TemplateLayer
 6 
CONTINUOUS
 10 
 18.7015140383609 
 20 
-27.27272605896 
 30 
 0 
 11 
 17.0454569689649 
 21 
-28.9397264205026 
 31 
 0 
 62 
 7 
 0 
LINE
 8 
TemplateLayer
 6 
CONTINUOUS
 10 
 17.0454569689649 
 20 
-28.9397264205026 
 30 
 0 
 11 
 15.6406451603166 
 21 
-30.6818170547485 
 31 
 0 
 62 
 7 
 0 
LINE
 8 
TemplateLayer
 6 
CONTINUOUS
 10 
 15.6406451603166 
 20 
-30.6818170547485 
 30 
 0 
 11 
 13.6363659672168 
 21 
-32.2600116261336 
 31 
 0 
 62 
 7 
 0 
LINE
 8 
TemplateLayer
 6 
CONTINUOUS
 10 
 13.6363659672168 
 20 
-32.2600116261336 
 30 
 0 
 11 
 10.2272749698501 
 21 
-33.1392174785747 
 31 
 0 
 62 
 7 
 0 
LINE
 8 
TemplateLayer
 6 
CONTINUOUS
 10 
 10.2272749698501 
 20 
-33.1392174785747 
 30 
 0 
 11 
 6.818183973563 
 21 
-33.4169851057709 
 31 
 0 
 62 
 7 
 0 
LINE
 8 
TemplateLayer
 6 
CONTINUOUS
 10 
 6.818183973563 
 20 
-33.4169851057709 
 30 
 0 
 11 
 3.40909297753376 
 21 
-33.5510677713911 
 31 
 0 
 62 
 7 
 0 
LINE
 8 
TemplateLayer
 6 
CONTINUOUS
 10 
 3.40909297753376 
 20 
-33.5510677713911 
 30 
 0 
 11 
 1.98166232253522E-06 
 21 
-33.5972344079301 
 31 
 0 
 62 
 7 
 0 
LINE
 8 
TemplateLayer
 6 
CONTINUOUS
 10 
 1.98166232253522E-06 
 20 
-33.5972344079301 
 30 
 0 
 11 
-3.40908901402963 
 21 
-33.5434037027081 
 31 
 0 
 62 
 7 
 0 
LINE
 8 
TemplateLayer
 6 
CONTINUOUS
 10 
-3.40908901402963 
 20 
-33.5434037027081 
 30 
 0 
 11 
-6.81818000964894 
 21 
-33.4490986344439 
 31 
 0 
 62 
 7 
 0 
LINE
 8 
TemplateLayer
 6 
CONTINUOUS
 10 
-6.81818000964894 
 20 
-33.4490986344439 
 30 
 0 
 11 
-10.2272710050481 
 21 
-33.2321540906569 
 31 
 0 
 62 
 7 
 0 
LINE
 8 
TemplateLayer
 6 
CONTINUOUS
 10 
-10.2272710050481 
 20 
-33.2321540906569 
 30 
 0 
 11 
-13.6363619994897 
 21 
-32.4816750391988 
 31 
 0 
 62 
 7 
 0 
LINE
 8 
TemplateLayer
 6 
CONTINUOUS
 10 
-13.6363619994897 
 20 
-32.4816750391988 
 30 
 0 
 11 
-15.9393417462741 
 21 
-30.6818170547485 
 31 
 0 
 62 
 7 
 0 
LINE
 8 
TemplateLayer
 6 
CONTINUOUS
 10 
-15.9393417462741 
 20 
-30.6818170547485 
 30 
 0 
 11 
-17.0454529895618 
 21 
-29.296873688883 
 31 
 0 
 62 
 7 
 0 
LINE
 8 
TemplateLayer
 6 
CONTINUOUS
 10 
-17.0454529895618 
 20 
-29.296873688883 
 30 
 0 
 11 
-18.9886348433683 
 21 
-27.27272605896 
 31 
 0 
 62 
 7 
 0 
LINE
 8 
TemplateLayer
 6 
CONTINUOUS
 10 
-18.9886348433683 
 20 
-27.27272605896 
 30 
 0 
 11 
-20.454543977904 
 21 
-25.1482199053587 
 31 
 0 
 62 
 7 
 0 
LINE
 8 
TemplateLayer
 6 
CONTINUOUS
 10 
-20.454543977904 
 20 
-25.1482199053587 
 30 
 0 
 11 
-21.8841625952703 
 21 
-23.8636350631714 
 31 
 0 
 62 
 7 
 0 
LINE
 8 
TemplateLayer
 6 
CONTINUOUS
 10 
-21.8841625952703 
 20 
-23.8636350631714 
 30 
 0 
 11 
-23.863634967868 
 21 
-21.9031355863891 
 31 
 0 
 62 
 7 
 0 
LINE
 8 
TemplateLayer
 6 
CONTINUOUS
 10 
-23.863634967868 
 20 
-21.9031355863891 
 30 
 0 
 11 
-25.1408436843807 
 21 
-20.4545440673828 
 31 
 0 
 62 
 7 
 0 
LINE
 8 
TemplateLayer
 6 
CONTINUOUS
 10 
-25.1408436843807 
 20 
-20.4545440673828 
 30 
 0 
 11 
-27.2727259549375 
 21 
-17.0454530715942 
 31 
 0 
 62 
 7 
 0 
LINE
 8 
TemplateLayer
 6 
CONTINUOUS
 10 
-27.2727259549375 
 20 
-17.0454530715942 
 30 
 0 
 11 
-29.1864657456271 
 21 
-13.6363620758057 
 31 
 0 
 62 
 7 
 0 
LINE
 8 
TemplateLayer
 6 
CONTINUOUS
 10 
-29.1864657456271 
 20 
-13.6363620758057 
 30 
 0 
 11 
-30.345116665121 
 21 
-10.2272710800171 
 31 
 0 
 62 
 7 
 0 
LINE
 8 
TemplateLayer
 6 
CONTINUOUS
 10 
-30.345116665121 
 20 
-10.2272710800171 
 30 
 0 
 11 
-30.6818169355843 
 21 
-8.60939778841737 
 31 
 0 
 62 
 7 
 0 
LINE
 8 
TemplateLayer
 6 
CONTINUOUS
 10 
-30.6818169355843 
 20 
-8.60939778841737 
 30 
 0 
 11 
-31.2308134112726 
 21 
-6.81818008422852 
 31 
 0 
 62 
 7 
 0 
LINE
 8 
TemplateLayer
 6 
CONTINUOUS
 10 
-3.40908889845669 
 20 
 30.8463418447339 
 30 
 0 
 11 
 2.09734672320522E-06 
 21 
 30.8546067158779 
 31 
 0 
 62 
 1 
 0 
LINE
 8 
TemplateLayer
 6 
CONTINUOUS
 10 
 2.09734672320522E-06 
 20 
 30.8546067158779 
 30 
 0 
 11 
 3.40909309313039 
 21 
 30.8518705925704 
 31 
 0 
 62 
 1 
 0 
LINE
 8 
TemplateLayer
 6 
CONTINUOUS
 10 
 3.40909309313039 
 20 
 30.8518705925704 
 30 
 0 
 11 
 5.71847608235666 
 21 
 30.6818208694458 
 31 
 0 
 62 
 1 
 0 
LINE
 8 
TemplateLayer
 6 
CONTINUOUS
 10 
 5.71847608235666 
 20 
 30.6818208694458 
 30 
 0 
 11 
 6.81818408855984 
 21 
 30.6517935817299 
 31 
 0 
 62 
 1 
 0 
LINE
 8 
TemplateLayer
 6 
CONTINUOUS
 10 
 6.81818408855984 
 20 
 30.6517935817299 
 30 
 0 
 11 
 10.2272750837948 
 21 
 30.3433554766169 
 31 
 0 
 62 
 1 
 0 
LINE
 8 
TemplateLayer
 6 
CONTINUOUS
 10 
 10.2272750837948 
 20 
 30.3433554766169 
 30 
 0 
 11 
 13.6363660775835 
 21 
 29.2291573030926 
 31 
 0 
 62 
 1 
 0 
LINE
 8 
TemplateLayer
 6 
CONTINUOUS
 10 
 13.6363660775835 
 20 
 29.2291573030926 
 30 
 0 
 11 
 15.4657829690282 
 21 
 27.2727298736572 
 31 
 0 
 62 
 1 
 0 
LINE
 8 
TemplateLayer
 6 
CONTINUOUS
 10 
 15.4657829690282 
 20 
 27.2727298736572 
 30 
 0 
 11 
 16.8174304456312 
 21 
 23.8636388778687 
 31 
 0 
 62 
 1 
 0 
LINE
 8 
TemplateLayer
 6 
CONTINUOUS
 10 
 16.8174304456312 
 20 
 23.8636388778687 
 30 
 0 
 11 
 17.0454570621232 
 21 
 22.9619993765827 
 31 
 0 
 62 
 1 
 0 
LINE
 8 
TemplateLayer
 6 
CONTINUOUS
 10 
 17.0454570621232 
 20 
 22.9619993765827 
 30 
 0 
 11 
 19.1542054791797 
 21 
 20.4545478820801 
 31 
 0 
 62 
 1 
 0 
LINE
 8 
TemplateLayer
 6 
CONTINUOUS
 10 
 19.1542054791797 
 20 
 20.4545478820801 
 30 
 0 
 11 
 20.454548049581 
 21 
 18.3206523531678 
 31 
 0 
 62 
 1 
 0 
LINE
 8 
TemplateLayer
 6 
CONTINUOUS
 10 
 20.454548049581 
 20 
 18.3206523531678 
 30 
 0 
 11 
 21.5496964159899 
 21 
 17.0454568862915 
 31 
 0 
 62 
 1 
 0 
LINE
 8 
TemplateLayer
 6 
CONTINUOUS
 10 
 21.5496964159899 
 20 
 17.0454568862915 
 30 
 0 
 11 
 23.6065696418262 
 21 
 13.6363658905029 
 31 
 0 
 62 
 1 
 0 
LINE
 8 
TemplateLayer
 6 
CONTINUOUS
 10 
 23.6065696418262 
 20 
 13.6363658905029 
 30 
 0 
 11 
 23.8636390358258 
 21 
 13.00345445487 
 31 
 0 
 62 
 1 
 0 
LINE
 8 
TemplateLayer
 6 
CONTINUOUS
 10 
 23.8636390358258 
 20 
 13.00345445487 
 30 
 0 
 11 
 25.286243388695 
 21 
 10.2272748947144 
 31 
 0 
 62 
 1 
 0 
LINE
 8 
TemplateLayer
 6 
CONTINUOUS
 10 
 25.286243388695 
 20 
 10.2272748947144 
 30 
 0 
 11 
 26.341395229401 
 21 
 6.81818389892578 
 31 
 0 
 62 
 1 
 0 
LINE
 8 
TemplateLayer
 6 
CONTINUOUS
 10 
 26.341395229401 
 20 
 6.81818389892578 
 30 
 0 
 11 
 26.8692570765603 
 21 
 3.40909290313721 
 31 
 0 
 62 
 1 
 0 
LINE
 8 
TemplateLayer
 6 
CONTINUOUS
 10 
 26.8692570765603 
 20 
 3.40909290313721 
 30 
 0 
 11 
 27.1220787929247 
 21 
 1.9073486328125E-06 
 31 
 0 
 62 
 1 
 0 
LINE
 8 
TemplateLayer
 6 
CONTINUOUS
 10 
 27.1220787929247 
 20 
 1.9073486328125E-06 
 30 
 0 
 11 
 26.8692570643223 
 21 
-3.40908908843994 
 31 
 0 
 62 
 1 
 0 
LINE
 8 
TemplateLayer
 6 
CONTINUOUS
 10 
 26.8692570643223 
 20 
-3.40908908843994 
 30 
 0 
 11 
 26.3413952049251 
 21 
-6.81818008422852 
 31 
 0 
 62 
 1 
 0 
LINE
 8 
TemplateLayer
 6 
CONTINUOUS
 10 
 26.3413952049251 
 20 
-6.81818008422852 
 30 
 0 
 11 
 25.2862433519812 
 21 
-10.2272710800171 
 31 
 0 
 62 
 1 
 0 
LINE
 8 
TemplateLayer
 6 
CONTINUOUS
 10 
 25.2862433519812 
 20 
-10.2272710800171 
 30 
 0 
 11 
 23.8636389891461 
 21 
-13.0034506401727 
 31 
 0 
 62 
 1 
 0 
LINE
 8 
TemplateLayer
 6 
CONTINUOUS
 10 
 23.8636389891461 
 20 
-13.0034506401727 
 30 
 0 
 11 
 23.6065695928744 
 21 
-13.6363620758057 
 31 
 0 
 62 
 1 
 0 
LINE
 8 
TemplateLayer
 6 
CONTINUOUS
 10 
 23.6065695928744 
 20 
-13.6363620758057 
 30 
 0 
 11 
 21.5496963548002 
 21 
-17.0454530715942 
 31 
 0 
 62 
 1 
 0 
LINE
 8 
TemplateLayer
 6 
CONTINUOUS
 10 
 21.5496963548002 
 20 
-17.0454530715942 
 30 
 0 
 11 
 20.4545479838137 
 21 
-18.3206485384705 
 31 
 0 
 62 
 1 
 0 
LINE
 8 
TemplateLayer
 6 
CONTINUOUS
 10 
 20.4545479838137 
 20 
-18.3206485384705 
 30 
 0 
 11 
 19.1542054057521 
 21 
-20.4545440673828 
 31 
 0 
 62 
 1 
 0 
LINE
 8 
TemplateLayer
 6 
CONTINUOUS
 10 
 19.1542054057521 
 20 
-20.4545440673828 
 30 
 0 
 11 
 17.0454569796944 
 21 
-22.9619955618854 
 31 
 0 
 62 
 1 
 0 
LINE
 8 
TemplateLayer
 6 
CONTINUOUS
 10 
 17.0454569796944 
 20 
-22.9619955618854 
 30 
 0 
 11 
 16.8174303599657 
 21 
-23.8636350631714 
 31 
 0 
 62 
 1 
 0 
LINE
 8 
TemplateLayer
 6 
CONTINUOUS
 10 
 16.8174303599657 
 20 
-23.8636350631714 
 30 
 0 
 11 
 15.4657828711247 
 21 
-27.27272605896 
 31 
 0 
 62 
 1 
 0 
LINE
 8 
TemplateLayer
 6 
CONTINUOUS
 10 
 15.4657828711247 
 20 
-27.27272605896 
 30 
 0 
 11 
 13.6363659726569 
 21 
-29.2291534883953 
 31 
 0 
 62 
 1 
 0 
LINE
 8 
TemplateLayer
 6 
CONTINUOUS
 10 
 13.6363659726569 
 20 
-29.2291534883953 
 30 
 0 
 11 
 10.2272749748684 
 21 
-30.3433516619196 
 31 
 0 
 62 
 1 
 0 
LINE
 8 
TemplateLayer
 6 
CONTINUOUS
 10 
 10.2272749748684 
 20 
-30.3433516619196 
 30 
 0 
 11 
 6.81818397852624 
 21 
-30.6517897670326 
 31 
 0 
 62 
 1 
 0 
LINE
 8 
TemplateLayer
 6 
CONTINUOUS
 10 
 6.81818397852624 
 20 
-30.6517897670326 
 30 
 0 
 11 
 5.71847597221527 
 21 
-30.6818170547485 
 31 
 0 
 62 
 1 
 0 
LINE
 8 
TemplateLayer
 6 
CONTINUOUS
 10 
 5.71847597221527 
 20 
-30.6818170547485 
 30 
 0 
 11 
 3.40909298237855 
 21 
-30.8518667778731 
 31 
 0 
 62 
 1 
 0 
LINE
 8 
TemplateLayer
 6 
CONTINUOUS
 10 
 3.40909298237855 
 20 
-30.8518667778731 
 30 
 0 
 11 
 1.98658506293803E-06 
 21 
-30.8546029011807 
 31 
 0 
 62 
 1 
 0 
LINE
 8 
TemplateLayer
 6 
CONTINUOUS
 10 
 1.98658506293803E-06 
 20 
-30.8546029011807 
 30 
 0 
 11 
-3.40908900918868 
 21 
-30.8463380300366 
 31 
 0 
 62 
 1 
 0 
LINE
 8 
TemplateLayer
 6 
CONTINUOUS
 10 
-3.40908900918868 
 20 
-30.8463380300366 
 30 
 0 
 11 
-6.60838642297105 
 21 
-30.6818170547485 
 31 
 0 
 62 
 1 
 0 
LINE
 8 
TemplateLayer
 6 
CONTINUOUS
 10 
-6.60838642297105 
 20 
-30.6818170547485 
 30 
 0 
 11 
-6.81818000467488 
 21 
-30.6778769813221 
 31 
 0 
 62 
 1 
 0 
LINE
 8 
TemplateLayer
 6 
CONTINUOUS
 10 
-6.81818000467488 
 20 
-30.6778769813221 
 30 
 0 
 11 
-10.2272710000181 
 21 
-30.4297738504792 
 31 
 0 
 62 
 1 
 0 
LINE
 8 
TemplateLayer
 6 
CONTINUOUS
 10 
-10.2272710000181 
 20 
-30.4297738504792 
 30 
 0 
 11 
-13.6363619940001 
 21 
-29.423271165792 
 31 
 0 
 62 
 1 
 0 
LINE
 8 
TemplateLayer
 6 
CONTINUOUS
 10 
-13.6363619940001 
 20 
-29.423271165792 
 30 
 0 
 11 
-15.6364932894683 
 21 
-27.27272605896 
 31 
 0 
 62 
 1 
 0 
LINE
 8 
TemplateLayer
 6 
CONTINUOUS
 10 
-15.6364932894683 
 20 
-27.27272605896 
 30 
 0 
 11 
-16.9275754803745 
 21 
-23.8636350631714 
 31 
 0 
 62 
 1 
 0 
LINE
 8 
TemplateLayer
 6 
CONTINUOUS
 10 
-16.9275754803745 
 20 
-23.8636350631714 
 30 
 0 
 11 
-17.045452979031 
 21 
-23.4297505586959 
 31 
 0 
 62 
 1 
 0 
LINE
 8 
TemplateLayer
 6 
CONTINUOUS
 10 
-17.045452979031 
 20 
-23.4297505586959 
 30 
 0 
 11 
-19.4479443675081 
 21 
-20.4545440673828 
 31 
 0 
 62 
 1 
 0 
LINE
 8 
TemplateLayer
 6 
CONTINUOUS
 10 
-19.4479443675081 
 20 
-20.4545440673828 
 30 
 0 
 11 
-20.4545439661782 
 21 
-18.6153623367829 
 31 
 0 
 62 
 1 
 0 
LINE
 8 
TemplateLayer
 6 
CONTINUOUS
 10 
-20.4545439661782 
 20 
-18.6153623367829 
 30 
 0 
 11 
-21.7879731049897 
 21 
-17.0454530715942 
 31 
 0 
 62 
 1 
 0 
LINE
 8 
TemplateLayer
 6 
CONTINUOUS
 10 
-21.7879731049897 
 20 
-17.0454530715942 
 30 
 0 
 11 
-23.7767420660475 
 21 
-13.6363620758057 
 31 
 0 
 62 
 1 
 0 
LINE
 8 
TemplateLayer
 6 
CONTINUOUS
 10 
-23.7767420660475 
 20 
-13.6363620758057 
 30 
 0 
 11 
-23.8636349526554 
 21 
-13.4276418380838 
 31 
 0 
 62 
 1 
 0 
LINE
 8 
TemplateLayer
 6 
CONTINUOUS
 10 
-23.8636349526554 
 20 
-13.4276418380838 
 30 
 0 
 11 
-25.5160920486445 
 21 
-10.2272710800171 
 31 
 0 
 62 
 1 
 0 
LINE
 8 
TemplateLayer
 6 
CONTINUOUS
 10 
-25.5160920486445 
 20 
-10.2272710800171 
 30 
 0 
 11 
-26.5132608176738 
 21 
-6.81818008422852 
 31 
 0 
 62 
 1 
 0 
LINE
 8 
TemplateLayer
 6 
CONTINUOUS
 10 
-26.5132608176738 
 20 
-6.81818008422852 
 30 
 0 
 11 
-27.0131758847739 
 21 
-3.40908908843994 
 31 
 0 
 62 
 1 
 0 
LINE
 8 
TemplateLayer
 6 
CONTINUOUS
 10 
-27.0131758847739 
 20 
-3.40908908843994 
 30 
 0 
 11 
-27.0544096412533 
 21 
 1.9073486328125E-06 
 31 
 0 
 62 
 1 
 0 
LINE
 8 
TemplateLayer
 6 
CONTINUOUS
 10 
-27.0544096412533 
 20 
 1.9073486328125E-06 
 30 
 0 
 11 
-27.013175872536 
 21 
 3.40909290313721 
 31 
 0 
 62 
 1 
 0 
LINE
 8 
TemplateLayer
 6 
CONTINUOUS
 10 
-27.013175872536 
 20 
 3.40909290313721 
 30 
 0 
 11 
-26.5132607931979 
 21 
 6.81818389892578 
 31 
 0 
 62 
 1 
 0 
LINE
 8 
TemplateLayer
 6 
CONTINUOUS
 10 
-26.5132607931979 
 20 
 6.81818389892578 
 30 
 0 
 11 
-25.5160920119307 
 21 
 10.2272748947144 
 31 
 0 
 62 
 1 
 0 
LINE
 8 
TemplateLayer
 6 
CONTINUOUS
 10 
-25.5160920119307 
 20 
 10.2272748947144 
 30 
 0 
 11 
-23.8636349044529 
 21 
 13.4276456527811 
 31 
 0 
 62 
 1 
 0 
LINE
 8 
TemplateLayer
 6 
CONTINUOUS
 10 
-23.8636349044529 
 20 
 13.4276456527811 
 30 
 0 
 11 
-23.7767420170958 
 21 
 13.6363658905029 
 31 
 0 
 62 
 1 
 0 
LINE
 8 
TemplateLayer
 6 
CONTINUOUS
 10 
-23.7767420170958 
 20 
 13.6363658905029 
 30 
 0 
 11 
-21.7879730438 
 21 
 17.0454568862915 
 31 
 0 
 62 
 1 
 0 
LINE
 8 
TemplateLayer
 6 
CONTINUOUS
 10 
-21.7879730438 
 20 
 17.0454568862915 
 30 
 0 
 11 
-20.4545438993529 
 21 
 18.6153661514802 
 31 
 0 
 62 
 1 
 0 
LINE
 8 
TemplateLayer
 6 
CONTINUOUS
 10 
-20.4545438993529 
 20 
 18.6153661514802 
 30 
 0 
 11 
-19.4479442940805 
 21 
 20.4545478820801 
 31 
 0 
 62 
 1 
 0 
LINE
 8 
TemplateLayer
 6 
CONTINUOUS
 10 
-19.4479442940805 
 20 
 20.4545478820801 
 30 
 0 
 11 
-17.045452894923 
 21 
 23.4297543733931 
 31 
 0 
 62 
 1 
 0 
LINE
 8 
TemplateLayer
 6 
CONTINUOUS
 10 
-17.045452894923 
 20 
 23.4297543733931 
 30 
 0 
 11 
-16.927575394709 
 21 
 23.8636388778687 
 31 
 0 
 62 
 1 
 0 
LINE
 8 
TemplateLayer
 6 
CONTINUOUS
 10 
-16.927575394709 
 20 
 23.8636388778687 
 30 
 0 
 11 
-15.6364931915648 
 21 
 27.2727298736572 
 31 
 0 
 62 
 1 
 0 
LINE
 8 
TemplateLayer
 6 
CONTINUOUS
 10 
-15.6364931915648 
 20 
 27.2727298736572 
 30 
 0 
 11 
-13.6363618883767 
 21 
 29.4232749804893 
 31 
 0 
 62 
 1 
 0 
LINE
 8 
TemplateLayer
 6 
CONTINUOUS
 10 
-13.6363618883767 
 20 
 29.4232749804893 
 30 
 0 
 11 
-10.2272708907815 
 21 
 30.4297776651764 
 31 
 0 
 62 
 1 
 0 
LINE
 8 
TemplateLayer
 6 
CONTINUOUS
 10 
-10.2272708907815 
 20 
 30.4297776651764 
 30 
 0 
 11 
-6.81817989454763 
 21 
 30.6778807960193 
 31 
 0 
 62 
 1 
 0 
LINE
 8 
TemplateLayer
 6 
CONTINUOUS
 10 
-6.81817989454763 
 20 
 30.6778807960193 
 30 
 0 
 11 
-6.60838631282966 
 21 
 30.6818208694458 
 31 
 0 
 62 
 1 
 0 
LINE
 8 
TemplateLayer
 6 
CONTINUOUS
 10 
-6.60838631282966 
 20 
 30.6818208694458 
 30 
 0 
 11 
-3.40908889845669 
 21 
 30.8463418447339 
 31 
 0 
 62 
 1 
 0 
LINE
 8 
TemplateLayer
 6 
CONTINUOUS
 10 
-6.81817989985156 
 20 
 27.72287577702 
 30 
 0 
 11 
-3.40908890346839 
 21 
 28.05414766781 
 31 
 0 
 62 
 3 
 0 
LINE
 8 
TemplateLayer
 6 
CONTINUOUS
 10 
-3.40908890346839 
 20 
 28.05414766781 
 30 
 0 
 11 
 2.0923795795505E-06 
 21 
 28.0872365992254 
 31 
 0 
 62 
 3 
 0 
LINE
 8 
TemplateLayer
 6 
CONTINUOUS
 10 
 2.0923795795505E-06 
 20 
 28.0872365992254 
 30 
 0 
 11 
 3.40909308809709 
 21 
 28.0476454052414 
 31 
 0 
 62 
 3 
 0 
LINE
 8 
TemplateLayer
 6 
CONTINUOUS
 10 
 3.40909308809709 
 20 
 28.0476454052414 
 30 
 0 
 11 
 6.81818408317027 
 21 
 27.6490709251571 
 31 
 0 
 62 
 3 
 0 
LINE
 8 
TemplateLayer
 6 
CONTINUOUS
 10 
 6.81818408317027 
 20 
 27.6490709251571 
 30 
 0 
 11 
 8.30348857162061 
 21 
 27.2727298736572 
 31 
 0 
 62 
 3 
 0 
LINE
 8 
TemplateLayer
 6 
CONTINUOUS
 10 
 8.30348857162061 
 20 
 27.2727298736572 
 30 
 0 
 11 
 10.2272750776168 
 21 
 26.901397413576 
 31 
 0 
 62 
 3 
 0 
LINE
 8 
TemplateLayer
 6 
CONTINUOUS
 10 
 10.2272750776168 
 20 
 26.901397413576 
 30 
 0 
 11 
 13.6363660688825 
 21 
 24.3815450204679 
 31 
 0 
 62 
 3 
 0 
LINE
 8 
TemplateLayer
 6 
CONTINUOUS
 10 
 13.6363660688825 
 20 
 24.3815450204679 
 30 
 0 
 11 
 13.9906550711239 
 21 
 23.8636388778687 
 31 
 0 
 62 
 3 
 0 
LINE
 8 
TemplateLayer
 6 
CONTINUOUS
 10 
 13.9906550711239 
 20 
 23.8636388778687 
 30 
 0 
 11 
 15.7876554857273 
 21 
 20.4545478820801 
 31 
 0 
 62 
 3 
 0 
LINE
 8 
TemplateLayer
 6 
CONTINUOUS
 10 
 15.7876554857273 
 20 
 20.4545478820801 
 30 
 0 
 11 
 16.7338078395383 
 21 
 17.0454568862915 
 31 
 0 
 62 
 3 
 0 
LINE
 8 
TemplateLayer
 6 
CONTINUOUS
 10 
 16.7338078395383 
 20 
 17.0454568862915 
 30 
 0 
 11 
 17.0454570482283 
 21 
 15.22065208727 
 31 
 0 
 62 
 3 
 0 
LINE
 8 
TemplateLayer
 6 
CONTINUOUS
 10 
 17.0454570482283 
 20 
 15.22065208727 
 30 
 0 
 11 
 18.140461968357 
 21 
 13.6363658905029 
 31 
 0 
 62 
 3 
 0 
LINE
 8 
TemplateLayer
 6 
CONTINUOUS
 10 
 18.140461968357 
 20 
 13.6363658905029 
 30 
 0 
 11 
 19.648255305722 
 21 
 10.2272748947144 
 31 
 0 
 62 
 3 
 0 
LINE
 8 
TemplateLayer
 6 
CONTINUOUS
 10 
 19.648255305722 
 20 
 10.2272748947144 
 30 
 0 
 11 
 20.4393180101351 
 21 
 6.81818389892578 
 31 
 0 
 62 
 3 
 0 
LINE
 8 
TemplateLayer
 6 
CONTINUOUS
 10 
 20.4393180101351 
 20 
 6.81818389892578 
 30 
 0 
 11 
 20.4545480287297 
 21 
 6.70363123122856 
 31 
 0 
 62 
 3 
 0 
LINE
 8 
TemplateLayer
 6 
CONTINUOUS
 10 
 20.4545480287297 
 20 
 6.70363123122856 
 30 
 0 
 11 
 21.4188031997578 
 21 
 3.40909290313721 
 31 
 0 
 62 
 3 
 0 
LINE
 8 
TemplateLayer
 6 
CONTINUOUS
 10 
 21.4188031997578 
 20 
 3.40909290313721 
 30 
 0 
 11 
 21.7642768458553 
 21 
 1.9073486328125E-06 
 31 
 0 
 62 
 3 
 0 
LINE
 8 
TemplateLayer
 6 
CONTINUOUS
 10 
 21.7642768458553 
 20 
 1.9073486328125E-06 
 30 
 0 
 11 
 21.4188031875198 
 21 
-3.40908908843994 
 31 
 0 
 62 
 3 
 0 
LINE
 8 
TemplateLayer
 6 
CONTINUOUS
 10 
 21.4188031875198 
 20 
-3.40908908843994 
 30 
 0 
 11 
 20.454548004665 
 21 
-6.70362741653129 
 31 
 0 
 62 
 3 
 0 
LINE
 8 
TemplateLayer
 6 
CONTINUOUS
 10 
 20.454548004665 
 20 
-6.70362741653129 
 30 
 0 
 11 
 20.4393179856592 
 21 
-6.81818008422852 
 31 
 0 
 62 
 3 
 0 
LINE
 8 
TemplateLayer
 6 
CONTINUOUS
 10 
 20.4393179856592 
 20 
-6.81818008422852 
 30 
 0 
 11 
 19.6482552690082 
 21 
-10.2272710800171 
 31 
 0 
 62 
 3 
 0 
LINE
 8 
TemplateLayer
 6 
CONTINUOUS
 10 
 19.6482552690082 
 20 
-10.2272710800171 
 30 
 0 
 11 
 18.1404619194052 
 21 
-13.6363620758057 
 31 
 0 
 62 
 3 
 0 
LINE
 8 
TemplateLayer
 6 
CONTINUOUS
 10 
 18.1404619194052 
 20 
-13.6363620758057 
 30 
 0 
 11 
 17.0454569935893 
 21 
-15.2206482725727 
 31 
 0 
 62 
 3 
 0 
LINE
 8 
TemplateLayer
 6 
CONTINUOUS
 10 
 17.0454569935893 
 20 
-15.2206482725727 
 30 
 0 
 11 
 16.7338077783486 
 21 
-17.0454530715942 
 31 
 0 
 62 
 3 
 0 
LINE
 8 
TemplateLayer
 6 
CONTINUOUS
 10 
 16.7338077783486 
 20 
-17.0454530715942 
 30 
 0 
 11 
 15.7876554122998 
 21 
-20.4545440673828 
 31 
 0 
 62 
 3 
 0 
LINE
 8 
TemplateLayer
 6 
CONTINUOUS
 10 
 15.7876554122998 
 20 
-20.4545440673828 
 30 
 0 
 11 
 13.9906549854584 
 21 
-23.8636350631714 
 31 
 0 
 62 
 3 
 0 
LINE
 8 
TemplateLayer
 6 
CONTINUOUS
 10 
 13.9906549854584 
 20 
-23.8636350631714 
 30 
 0 
 11 
 13.6363659813578 
 21 
-24.3815412057706 
 31 
 0 
 62 
 3 
 0 
LINE
 8 
TemplateLayer
 6 
CONTINUOUS
 10 
 13.6363659813578 
 20 
-24.3815412057706 
 30 
 0 
 11 
 10.2272749810464 
 21 
-26.9013935988787 
 31 
 0 
 62 
 3 
 0 
LINE
 8 
TemplateLayer
 6 
CONTINUOUS
 10 
 10.2272749810464 
 20 
-26.9013935988787 
 30 
 0 
 11 
 8.30348847371715 
 21 
-27.27272605896 
 31 
 0 
 62 
 3 
 0 
LINE
 8 
TemplateLayer
 6 
CONTINUOUS
 10 
 8.30348847371715 
 20 
-27.27272605896 
 30 
 0 
 11 
 6.81818398391582 
 21 
-27.6490671104599 
 31 
 0 
 62 
 3 
 0 
LINE
 8 
TemplateLayer
 6 
CONTINUOUS
 10 
 6.81818398391582 
 20 
-27.6490671104599 
 30 
 0 
 11 
 3.40909298741184 
 21 
-28.0476415905441 
 31 
 0 
 62 
 3 
 0 
LINE
 8 
TemplateLayer
 6 
CONTINUOUS
 10 
 3.40909298741184 
 20 
-28.0476415905441 
 30 
 0 
 11 
 1.99155220658581E-06 
 21 
-28.0872327845282 
 31 
 0 
 62 
 3 
 0 
LINE
 8 
TemplateLayer
 6 
CONTINUOUS
 10 
 1.99155220658581E-06 
 20 
-28.0872327845282 
 30 
 0 
 11 
-3.40908900417698 
 21 
-28.0541438531128 
 31 
 0 
 62 
 3 
 0 
LINE
 8 
TemplateLayer
 6 
CONTINUOUS
 10 
-3.40908900417698 
 20 
-28.0541438531128 
 30 
 0 
 11 
-6.81817999937095 
 21 
-27.7228719623227 
 31 
 0 
 62 
 3 
 0 
LINE
 8 
TemplateLayer
 6 
CONTINUOUS
 10 
-6.81817999937095 
 20 
-27.7228719623227 
 30 
 0 
 11 
-8.79277425015275 
 21 
-27.27272605896 
 31 
 0 
 62 
 3 
 0 
LINE
 8 
TemplateLayer
 6 
CONTINUOUS
 10 
-8.79277425015275 
 20 
-27.27272605896 
 30 
 0 
 11 
-10.2272709938947 
 21 
-27.0182133234125 
 31 
 0 
 62 
 3 
 0 
LINE
 8 
TemplateLayer
 6 
CONTINUOUS
 10 
-10.2272709938947 
 20 
-27.0182133234125 
 30 
 0 
 11 
-13.6363619852875 
 21 
-24.5691522121979 
 31 
 0 
 62 
 3 
 0 
LINE
 8 
TemplateLayer
 6 
CONTINUOUS
 10 
-13.6363619852875 
 20 
-24.5691522121979 
 30 
 0 
 11 
-14.1209694197412 
 21 
-23.8636350631714 
 31 
 0 
 62 
 3 
 0 
LINE
 8 
TemplateLayer
 6 
CONTINUOUS
 10 
-14.1209694197412 
 20 
-23.8636350631714 
 30 
 0 
 11 
-15.8965386951257 
 21 
-20.4545440673828 
 31 
 0 
 62 
 3 
 0 
LINE
 8 
TemplateLayer
 6 
CONTINUOUS
 10 
-15.8965386951257 
 20 
-20.4545440673828 
 30 
 0 
 11 
-16.8155533627584 
 21 
-17.0454530715942 
 31 
 0 
 62 
 3 
 0 
LINE
 8 
TemplateLayer
 6 
CONTINUOUS
 10 
-16.8155533627584 
 20 
-17.0454530715942 
 30 
 0 
 11 
-17.0454529652824 
 21 
-15.7699205810288 
 31 
 0 
 62 
 3 
 0 
LINE
 8 
TemplateLayer
 6 
CONTINUOUS
 10 
-17.0454529652824 
 20 
-15.7699205810288 
 30 
 0 
 11 
-18.4497692581833 
 21 
-13.6363620758057 
 31 
 0 
 62 
 3 
 0 
LINE
 8 
TemplateLayer
 6 
CONTINUOUS
 10 
-18.4497692581833 
 20 
-13.6363620758057 
 30 
 0 
 11 
-19.7971248208008 
 21 
-10.2272710800171 
 31 
 0 
 62 
 3 
 0 
LINE
 8 
TemplateLayer
 6 
CONTINUOUS
 10 
-19.7971248208008 
 20 
-10.2272710800171 
 30 
 0 
 11 
-20.454543945638 
 21 
-7.17168973218564 
 31 
 0 
 62 
 3 
 0 
LINE
 8 
TemplateLayer
 6 
CONTINUOUS
 10 
-20.454543945638 
 20 
-7.17168973218564 
 30 
 0 
 11 
-20.6135090557128 
 21 
-6.81818008422852 
 31 
 0 
 62 
 3 
 0 
LINE
 8 
TemplateLayer
 6 
CONTINUOUS
 10 
-20.6135090557128 
 20 
-6.81818008422852 
 30 
 0 
 11 
-21.5874150709601 
 21 
-3.40908908843994 
 31 
 0 
 62 
 3 
 0 
LINE
 8 
TemplateLayer
 6 
CONTINUOUS
 10 
-21.5874150709601 
 20 
-3.40908908843994 
 30 
 0 
 11 
-21.7797468145667 
 21 
 1.9073486328125E-06 
 31 
 0 
 62 
 3 
 0 
LINE
 8 
TemplateLayer
 6 
CONTINUOUS
 10 
-21.7797468145667 
 20 
 1.9073486328125E-06 
 30 
 0 
 11 
-21.5874150587221 
 21 
 3.40909290313721 
 31 
 0 
 62 
 3 
 0 
LINE
 8 
TemplateLayer
 6 
CONTINUOUS
 10 
-21.5874150587221 
 20 
 3.40909290313721 
 30 
 0 
 11 
-20.6135090312369 
 21 
 6.81818389892578 
 31 
 0 
 62 
 3 
 0 
LINE
 8 
TemplateLayer
 6 
CONTINUOUS
 10 
-20.6135090312369 
 20 
 6.81818389892578 
 30 
 0 
 11 
-20.4545439198931 
 21 
 7.17169354688291 
 31 
 0 
 62 
 3 
 0 
LINE
 8 
TemplateLayer
 6 
CONTINUOUS
 10 
-20.4545439198931 
 20 
 7.17169354688291 
 30 
 0 
 11 
-19.797124784087 
 21 
 10.2272748947144 
 31 
 0 
 62 
 3 
 0 
LINE
 8 
TemplateLayer
 6 
CONTINUOUS
 10 
-19.797124784087 
 20 
 10.2272748947144 
 30 
 0 
 11 
-18.4497692092316 
 21 
 13.6363658905029 
 31 
 0 
 62 
 3 
 0 
LINE
 8 
TemplateLayer
 6 
CONTINUOUS
 10 
-18.4497692092316 
 20 
 13.6363658905029 
 30 
 0 
 11 
-17.0454529086716 
 21 
 15.7699243957261 
 31 
 0 
 62 
 3 
 0 
LINE
 8 
TemplateLayer
 6 
CONTINUOUS
 10 
-17.0454529086716 
 20 
 15.7699243957261 
 30 
 0 
 11 
-16.8155533015687 
 21 
 17.0454568862915 
 31 
 0 
 62 
 3 
 0 
LINE
 8 
TemplateLayer
 6 
CONTINUOUS
 10 
-16.8155533015687 
 20 
 17.0454568862915 
 30 
 0 
 11 
-15.8965386216981 
 21 
 20.4545478820801 
 31 
 0 
 62 
 3 
 0 
LINE
 8 
TemplateLayer
 6 
CONTINUOUS
 10 
-15.8965386216981 
 20 
 20.4545478820801 
 30 
 0 
 11 
-14.1209693340757 
 21 
 23.8636388778687 
 31 
 0 
 62 
 3 
 0 
LINE
 8 
TemplateLayer
 6 
CONTINUOUS
 10 
-14.1209693340757 
 20 
 23.8636388778687 
 30 
 0 
 11 
-13.6363618970893 
 21 
 24.5691560268951 
 31 
 0 
 62 
 3 
 0 
LINE
 8 
TemplateLayer
 6 
CONTINUOUS
 10 
-13.6363618970893 
 20 
 24.5691560268951 
 30 
 0 
 11 
-10.2272708969049 
 21 
 27.0182171381098 
 31 
 0 
 62 
 3 
 0 
LINE
 8 
TemplateLayer
 6 
CONTINUOUS
 10 
-10.2272708969049 
 20 
 27.0182171381098 
 30 
 0 
 11 
-8.79277415224929 
 21 
 27.2727298736572 
 31 
 0 
 62 
 3 
 0 
LINE
 8 
TemplateLayer
 6 
CONTINUOUS
 10 
-8.79277415224929 
 20 
 27.2727298736572 
 30 
 0 
 11 
-6.81817989985156 
 21 
 27.72287577702 
 31 
 0 
 62 
 3 
 0 
LINE
 8 
TemplateLayer
 6 
CONTINUOUS
 10 
-6.81817990540248 
 20 
 24.6302629187608 
 30 
 0 
 11 
-3.40908890870204 
 21 
 25.1382975166339 
 31 
 0 
 62 
 5 
 0 
LINE
 8 
TemplateLayer
 6 
CONTINUOUS
 10 
-3.40908890870204 
 20 
 25.1382975166339 
 30 
 0 
 11 
 2.0872469640304E-06 
 21 
 25.2276762911711 
 31 
 0 
 62 
 5 
 0 
LINE
 8 
TemplateLayer
 6 
CONTINUOUS
 10 
 2.0872469640304E-06 
 20 
 25.2276762911711 
 30 
 0 
 11 
 3.40909308285765 
 21 
 25.1285690453517 
 31 
 0 
 62 
 5 
 0 
LINE
 8 
TemplateLayer
 6 
CONTINUOUS
 10 
 3.40909308285765 
 20 
 25.1285690453517 
 30 
 0 
 11 
 6.81818407763575 
 21 
 24.5655965713702 
 31 
 0 
 62 
 5 
 0 
LINE
 8 
TemplateLayer
 6 
CONTINUOUS
 10 
 6.81818407763575 
 20 
 24.5655965713702 
 30 
 0 
 11 
 8.66355657262027 
 21 
 23.8636388778687 
 31 
 0 
 62 
 5 
 0 
LINE
 8 
TemplateLayer
 6 
CONTINUOUS
 10 
 8.66355657262027 
 20 
 23.8636388778687 
 30 
 0 
 11 
 10.2272750712409 
 21 
 23.3491355497887 
 31 
 0 
 62 
 5 
 0 
LINE
 8 
TemplateLayer
 6 
CONTINUOUS
 10 
 10.2272750712409 
 20 
 23.3491355497887 
 30 
 0 
 11 
 13.120143828264 
 21 
 20.4545478820801 
 31 
 0 
 62 
 5 
 0 
LINE
 8 
TemplateLayer
 6 
CONTINUOUS
 10 
 13.120143828264 
 20 
 20.4545478820801 
 30 
 0 
 11 
 13.6363660608627 
 21 
 19.9134222870391 
 31 
 0 
 62 
 5 
 0 
LINE
 8 
TemplateLayer
 6 
CONTINUOUS
 10 
 13.6363660608627 
 20 
 19.9134222870391 
 30 
 0 
 11 
 15.2455116854693 
 21 
 17.0454568862915 
 31 
 0 
 62 
 5 
 0 
LINE
 8 
TemplateLayer
 6 
CONTINUOUS
 10 
 15.2455116854693 
 20 
 17.0454568862915 
 30 
 0 
 11 
 16.3131218868246 
 21 
 13.6363658905029 
 31 
 0 
 62 
 5 
 0 
LINE
 8 
TemplateLayer
 6 
CONTINUOUS
 10 
 16.3131218868246 
 20 
 13.6363658905029 
 30 
 0 
 11 
 16.844592957928 
 21 
 10.2272748947144 
 31 
 0 
 62 
 5 
 0 
LINE
 8 
TemplateLayer
 6 
CONTINUOUS
 10 
 16.844592957928 
 20 
 10.2272748947144 
 30 
 0 
 11 
 17.0454570346019 
 21 
 7.62892618430892 
 31 
 0 
 62 
 5 
 0 
LINE
 8 
TemplateLayer
 6 
CONTINUOUS
 10 
 17.0454570346019 
 20 
 7.62892618430892 
 30 
 0 
 11 
 17.3933113451946 
 21 
 6.81818389892578 
 31 
 0 
 62 
 5 
 0 
LINE
 8 
TemplateLayer
 6 
CONTINUOUS
 10 
 17.3933113451946 
 20 
 6.81818389892578 
 30 
 0 
 11 
 18.2109939019388 
 21 
 3.40909290313721 
 31 
 0 
 62 
 5 
 0 
LINE
 8 
TemplateLayer
 6 
CONTINUOUS
 10 
 18.2109939019388 
 20 
 3.40909290313721 
 30 
 0 
 11 
 18.6850697119527 
 21 
 1.9073486328125E-06 
 31 
 0 
 62 
 5 
 0 
LINE
 8 
TemplateLayer
 6 
CONTINUOUS
 10 
 18.6850697119527 
 20 
 1.9073486328125E-06 
 30 
 0 
 11 
 18.2109938897009 
 21 
-3.40908908843994 
 31 
 0 
 62 
 5 
 0 
LINE
 8 
TemplateLayer
 6 
CONTINUOUS
 10 
 18.2109938897009 
 20 
-3.40908908843994 
 30 
 0 
 11 
 17.3933113207187 
 21 
-6.81818008422852 
 31 
 0 
 62 
 5 
 0 
LINE
 8 
TemplateLayer
 6 
CONTINUOUS
 10 
 17.3933113207187 
 20 
-6.81818008422852 
 30 
 0 
 11 
 17.0454570072156 
 21 
-7.62892236961166 
 31 
 0 
 62 
 5 
 0 
LINE
 8 
TemplateLayer
 6 
CONTINUOUS
 10 
 17.0454570072156 
 20 
-7.62892236961166 
 30 
 0 
 11 
 16.8445929212142 
 21 
-10.2272710800171 
 31 
 0 
 62 
 5 
 0 
LINE
 8 
TemplateLayer
 6 
CONTINUOUS
 10 
 16.8445929212142 
 20 
-10.2272710800171 
 30 
 0 
 11 
 16.3131218378728 
 21 
-13.6363620758057 
 31 
 0 
 62 
 5 
 0 
LINE
 8 
TemplateLayer
 6 
CONTINUOUS
 10 
 16.3131218378728 
 20 
-13.6363620758057 
 30 
 0 
 11 
 15.2455116242796 
 21 
-17.0454530715942 
 31 
 0 
 62 
 5 
 0 
LINE
 8 
TemplateLayer
 6 
CONTINUOUS
 10 
 15.2455116242796 
 20 
-17.0454530715942 
 30 
 0 
 11 
 13.6363659893777 
 21 
-19.9134184723419 
 31 
 0 
 62 
 5 
 0 
LINE
 8 
TemplateLayer
 6 
CONTINUOUS
 10 
 13.6363659893777 
 20 
-19.9134184723419 
 30 
 0 
 11 
 13.1201437548364 
 21 
-20.4545440673828 
 31 
 0 
 62 
 5 
 0 
LINE
 8 
TemplateLayer
 6 
CONTINUOUS
 10 
 13.1201437548364 
 20 
-20.4545440673828 
 30 
 0 
 11 
 10.2272749874223 
 21 
-23.3491317350914 
 31 
 0 
 62 
 5 
 0 
LINE
 8 
TemplateLayer
 6 
CONTINUOUS
 10 
 10.2272749874223 
 20 
-23.3491317350914 
 30 
 0 
 11 
 8.66355648695474 
 21 
-23.8636350631714 
 31 
 0 
 62 
 5 
 0 
LINE
 8 
TemplateLayer
 6 
CONTINUOUS
 10 
 8.66355648695474 
 20 
-23.8636350631714 
 30 
 0 
 11 
 6.81818398945034 
 21 
-24.5655927566729 
 31 
 0 
 62 
 5 
 0 
LINE
 8 
TemplateLayer
 6 
CONTINUOUS
 10 
 6.81818398945034 
 20 
-24.5655927566729 
 30 
 0 
 11 
 3.40909299265128 
 21 
-25.1285652306545 
 31 
 0 
 62 
 5 
 0 
LINE
 8 
TemplateLayer
 6 
CONTINUOUS
 10 
 3.40909299265128 
 20 
-25.1285652306545 
 30 
 0 
 11 
 1.99668482211285E-06 
 21 
-25.2276724764738 
 31 
 0 
 62 
 5 
 0 
LINE
 8 
TemplateLayer
 6 
CONTINUOUS
 10 
 1.99668482211285E-06 
 20 
-25.2276724764738 
 30 
 0 
 11 
-3.40908899894333 
 21 
-25.1382937019366 
 31 
 0 
 62 
 5 
 0 
LINE
 8 
TemplateLayer
 6 
CONTINUOUS
 10 
-3.40908899894333 
 20 
-25.1382937019366 
 30 
 0 
 11 
-6.81817999382003 
 21 
-24.6302591040635 
 31 
 0 
 62 
 5 
 0 
LINE
 8 
TemplateLayer
 6 
CONTINUOUS
 10 
-6.81817999382003 
 20 
-24.6302591040635 
 30 
 0 
 11 
-8.85775431190033 
 21 
-23.8636350631714 
 31 
 0 
 62 
 5 
 0 
LINE
 8 
TemplateLayer
 6 
CONTINUOUS
 10 
-8.85775431190033 
 20 
-23.8636350631714 
 30 
 0 
 11 
-10.2272709874375 
 21 
-23.420668352939 
 31 
 0 
 62 
 5 
 0 
LINE
 8 
TemplateLayer
 6 
CONTINUOUS
 10 
-10.2272709874375 
 20 
-23.420668352939 
 30 
 0 
 11 
-13.2317731980809 
 21 
-20.4545440673828 
 31 
 0 
 62 
 5 
 0 
LINE
 8 
TemplateLayer
 6 
CONTINUOUS
 10 
-13.2317731980809 
 20 
-20.4545440673828 
 30 
 0 
 11 
-13.6363619771543 
 21 
-20.0378715252904 
 31 
 0 
 62 
 5 
 0 
LINE
 8 
TemplateLayer
 6 
CONTINUOUS
 10 
-13.6363619771543 
 20 
-20.0378715252904 
 30 
 0 
 11 
-15.3342415197653 
 21 
-17.0454530715942 
 31 
 0 
 62 
 5 
 0 
LINE
 8 
TemplateLayer
 6 
CONTINUOUS
 10 
-15.3342415197653 
 20 
-17.0454530715942 
 30 
 0 
 11 
-16.3983497525416 
 21 
-13.6363620758057 
 31 
 0 
 62 
 5 
 0 
LINE
 8 
TemplateLayer
 6 
CONTINUOUS
 10 
-16.3983497525416 
 20 
-13.6363620758057 
 30 
 0 
 11 
-16.9007101731863 
 21 
-10.2272710800171 
 31 
 0 
 62 
 5 
 0 
LINE
 8 
TemplateLayer
 6 
CONTINUOUS
 10 
-16.9007101731863 
 20 
-10.2272710800171 
 30 
 0 
 11 
-17.0454529521078 
 21 
-8.42992043895248 
 31 
 0 
 62 
 5 
 0 
LINE
 8 
TemplateLayer
 6 
CONTINUOUS
 10 
-17.0454529521078 
 20 
-8.42992043895248 
 30 
 0 
 11 
-17.7193430452561 
 21 
-6.81818008422852 
 31 
 0 
 62 
 5 
 0 
LINE
 8 
TemplateLayer
 6 
CONTINUOUS
 10 
-17.7193430452561 
 20 
-6.81818008422852 
 30 
 0 
 11 
-18.484370560335 
 21 
-3.40908908843994 
 31 
 0 
 62 
 5 
 0 
LINE
 8 
TemplateLayer
 6 
CONTINUOUS
 10 
-18.484370560335 
 20 
-3.40908908843994 
 30 
 0 
 11 
-18.5003954142087 
 21 
 1.9073486328125E-06 
 31 
 0 
 62 
 5 
 0 
LINE
 8 
TemplateLayer
 6 
CONTINUOUS
 10 
-18.5003954142087 
 20 
 1.9073486328125E-06 
 30 
 0 
 11 
-18.4843705480971 
 21 
 3.40909290313721 
 31 
 0 
 62 
 5 
 0 
LINE
 8 
TemplateLayer
 6 
CONTINUOUS
 10 
-18.4843705480971 
 20 
 3.40909290313721 
 30 
 0 
 11 
-17.7193430207802 
 21 
 6.81818389892578 
 31 
 0 
 62 
 5 
 0 
LINE
 8 
TemplateLayer
 6 
CONTINUOUS
 10 
-17.7193430207802 
 20 
 6.81818389892578 
 30 
 0 
 11 
-17.0454529218461 
 21 
 8.42992425364974 
 31 
 0 
 62 
 5 
 0 
LINE
 8 
TemplateLayer
 6 
CONTINUOUS
 10 
-17.0454529218461 
 20 
 8.42992425364974 
 30 
 0 
 11 
-16.9007101364725 
 21 
 10.2272748947144 
 31 
 0 
 62 
 5 
 0 
LINE
 8 
TemplateLayer
 6 
CONTINUOUS
 10 
-16.9007101364725 
 20 
 10.2272748947144 
 30 
 0 
 11 
-16.3983497035898 
 21 
 13.6363658905029 
 31 
 0 
 62 
 5 
 0 
LINE
 8 
TemplateLayer
 6 
CONTINUOUS
 10 
-16.3983497035898 
 20 
 13.6363658905029 
 30 
 0 
 11 
-15.3342414585756 
 21 
 17.0454568862915 
 31 
 0 
 62 
 5 
 0 
LINE
 8 
TemplateLayer
 6 
CONTINUOUS
 10 
-15.3342414585756 
 20 
 17.0454568862915 
 30 
 0 
 11 
-13.6363619052225 
 21 
 20.0378753399877 
 31 
 0 
 62 
 5 
 0 
LINE
 8 
TemplateLayer
 6 
CONTINUOUS
 10 
-13.6363619052225 
 20 
 20.0378753399877 
 30 
 0 
 11 
-13.2317731246534 
 21 
 20.4545478820801 
 31 
 0 
 62 
 5 
 0 
LINE
 8 
TemplateLayer
 6 
CONTINUOUS
 10 
-13.2317731246534 
 20 
 20.4545478820801 
 30 
 0 
 11 
-10.2272709033621 
 21 
 23.4206721676362 
 31 
 0 
 62 
 5 
 0 
LINE
 8 
TemplateLayer
 6 
CONTINUOUS
 10 
-10.2272709033621 
 20 
 23.4206721676362 
 30 
 0 
 11 
-8.8577542262348 
 21 
 23.8636388778687 
 31 
 0 
 62 
 5 
 0 
LINE
 8 
TemplateLayer
 6 
CONTINUOUS
 10 
-8.8577542262348 
 20 
 23.8636388778687 
 30 
 0 
 11 
-6.81817990540248 
 21 
 24.6302629187608 
 31 
 0 
 62 
 5 
 0 
LINE
 8 
TemplateLayer
 6 
CONTINUOUS
 10 
-6.81817991255607 
 20 
 20.6447453109144 
 30 
 0 
 11 
-3.40908891523054 
 21 
 21.5010392890626 
 31 
 0 
 62 
 6 
 0 
LINE
 8 
TemplateLayer
 6 
CONTINUOUS
 10 
-3.40908891523054 
 20 
 21.5010392890626 
 30 
 0 
 11 
 2.08090442948422E-06 
 21 
 21.694027620004 
 31 
 0 
 62 
 6 
 0 
LINE
 8 
TemplateLayer
 6 
CONTINUOUS
 10 
 2.08090442948422E-06 
 20 
 21.694027620004 
 30 
 0 
 11 
 3.40909307632723 
 21 
 21.490240983215 
 31 
 0 
 62 
 6 
 0 
LINE
 8 
TemplateLayer
 6 
CONTINUOUS
 10 
 3.40909307632723 
 20 
 21.490240983215 
 30 
 0 
 11 
 6.81818407050114 
 21 
 20.5906590399342 
 31 
 0 
 62 
 6 
 0 
LINE
 8 
TemplateLayer
 6 
CONTINUOUS
 10 
 6.81818407050114 
 20 
 20.5906590399342 
 30 
 0 
 11 
 7.08651326260033 
 21 
 20.4545478820801 
 31 
 0 
 62 
 6 
 0 
LINE
 8 
TemplateLayer
 6 
CONTINUOUS
 10 
 7.08651326260033 
 20 
 20.4545478820801 
 30 
 0 
 11 
 10.2272750640395 
 21 
 19.3369670924577 
 31 
 0 
 62 
 6 
 0 
LINE
 8 
TemplateLayer
 6 
CONTINUOUS
 10 
 10.2272750640395 
 20 
 19.3369670924577 
 30 
 0 
 11 
 12.4656855126127 
 21 
 17.0454568862915 
 31 
 0 
 62 
 6 
 0 
LINE
 8 
TemplateLayer
 6 
CONTINUOUS
 10 
 12.4656855126127 
 20 
 17.0454568862915 
 30 
 0 
 11 
 13.6363660527706 
 21 
 15.4050081419812 
 31 
 0 
 62 
 6 
 0 
LINE
 8 
TemplateLayer
 6 
CONTINUOUS
 10 
 13.6363660527706 
 20 
 15.4050081419812 
 30 
 0 
 11 
 14.5230090401867 
 21 
 13.6363658905029 
 31 
 0 
 62 
 6 
 0 
LINE
 8 
TemplateLayer
 6 
CONTINUOUS
 10 
 14.5230090401867 
 20 
 13.6363658905029 
 30 
 0 
 11 
 15.7469751958628 
 21 
 10.2272748947144 
 31 
 0 
 62 
 6 
 0 
LINE
 8 
TemplateLayer
 6 
CONTINUOUS
 10 
 15.7469751958628 
 20 
 10.2272748947144 
 30 
 0 
 11 
 16.3433554077642 
 21 
 6.81818389892578 
 31 
 0 
 62 
 6 
 0 
LINE
 8 
TemplateLayer
 6 
CONTINUOUS
 10 
 16.3433554077642 
 20 
 6.81818389892578 
 30 
 0 
 11 
 16.5903418665238 
 21 
 3.40909290313721 
 31 
 0 
 62 
 6 
 0 
LINE
 8 
TemplateLayer
 6 
CONTINUOUS
 10 
 16.5903418665238 
 20 
 3.40909290313721 
 30 
 0 
 11 
 16.7131062603145 
 21 
 1.9073486328125E-06 
 31 
 0 
 62 
 6 
 0 
LINE
 8 
TemplateLayer
 6 
CONTINUOUS
 10 
 16.7131062603145 
 20 
 1.9073486328125E-06 
 30 
 0 
 11 
 16.5903418542859 
 21 
-3.40908908843994 
 31 
 0 
 62 
 6 
 0 
LINE
 8 
TemplateLayer
 6 
CONTINUOUS
 10 
 16.5903418542859 
 20 
-3.40908908843994 
 30 
 0 
 11 
 16.3433553832884 
 21 
-6.81818008422852 
 31 
 0 
 62 
 6 
 0 
LINE
 8 
TemplateLayer
 6 
CONTINUOUS
 10 
 16.3433553832884 
 20 
-6.81818008422852 
 30 
 0 
 11 
 15.746975159149 
 21 
-10.2272710800171 
 31 
 0 
 62 
 6 
 0 
LINE
 8 
TemplateLayer
 6 
CONTINUOUS
 10 
 15.746975159149 
 20 
-10.2272710800171 
 30 
 0 
 11 
 14.523008991235 
 21 
-13.6363620758057 
 31 
 0 
 62 
 6 
 0 
LINE
 8 
TemplateLayer
 6 
CONTINUOUS
 10 
 14.523008991235 
 20 
-13.6363620758057 
 30 
 0 
 11 
 13.6363659974698 
 21 
-15.4050043272839 
 31 
 0 
 62 
 6 
 0 
LINE
 8 
TemplateLayer
 6 
CONTINUOUS
 10 
 13.6363659974698 
 20 
-15.4050043272839 
 30 
 0 
 11 
 12.465685451423 
 21 
-17.0454530715942 
 31 
 0 
 62 
 6 
 0 
LINE
 8 
TemplateLayer
 6 
CONTINUOUS
 10 
 12.465685451423 
 20 
-17.0454530715942 
 30 
 0 
 11 
 10.2272749946238 
 21 
-19.3369632777604 
 31 
 0 
 62 
 6 
 0 
LINE
 8 
TemplateLayer
 6 
CONTINUOUS
 10 
 10.2272749946238 
 20 
-19.3369632777604 
 30 
 0 
 11 
 7.08651318917273 
 21 
-20.4545440673828 
 31 
 0 
 62 
 6 
 0 
LINE
 8 
TemplateLayer
 6 
CONTINUOUS
 10 
 7.08651318917273 
 20 
-20.4545440673828 
 30 
 0 
 11 
 6.81818399658494 
 21 
-20.590655225237 
 31 
 0 
 62 
 6 
 0 
LINE
 8 
TemplateLayer
 6 
CONTINUOUS
 10 
 6.81818399658494 
 20 
-20.590655225237 
 30 
 0 
 11 
 3.40909299918171 
 21 
-21.4902371685177 
 31 
 0 
 62 
 6 
 0 
LINE
 8 
TemplateLayer
 6 
CONTINUOUS
 10 
 3.40909299918171 
 20 
-21.4902371685177 
 30 
 0 
 11 
 2.00302735665209E-06 
 21 
-21.6940238053067 
 31 
 0 
 62 
 6 
 0 
LINE
 8 
TemplateLayer
 6 
CONTINUOUS
 10 
 2.00302735665209E-06 
 20 
-21.6940238053067 
 30 
 0 
 11 
-3.40908899241482 
 21 
-21.5010354743654 
 31 
 0 
 62 
 6 
 0 
LINE
 8 
TemplateLayer
 6 
CONTINUOUS
 10 
-3.40908899241482 
 20 
-21.5010354743654 
 30 
 0 
 11 
-6.81817998666644 
 21 
-20.6447414962172 
 31 
 0 
 62 
 6 
 0 
LINE
 8 
TemplateLayer
 6 
CONTINUOUS
 10 
-6.81817998666644 
 20 
-20.6447414962172 
 30 
 0 
 11 
-7.19944554408742 
 21 
-20.4545440673828 
 31 
 0 
 62 
 6 
 0 
LINE
 8 
TemplateLayer
 6 
CONTINUOUS
 10 
-7.19944554408742 
 20 
-20.4545440673828 
 30 
 0 
 11 
-10.2272709802252 
 21 
-19.4024542518952 
 31 
 0 
 62 
 6 
 0 
LINE
 8 
TemplateLayer
 6 
CONTINUOUS
 10 
-10.2272709802252 
 20 
-19.4024542518952 
 30 
 0 
 11 
-12.5499622394484 
 21 
-17.0454530715942 
 31 
 0 
 62 
 6 
 0 
LINE
 8 
TemplateLayer
 6 
CONTINUOUS
 10 
-12.5499622394484 
 20 
-17.0454530715942 
 30 
 0 
 11 
-13.6363619691892 
 21 
-15.6002287246148 
 31 
 0 
 62 
 6 
 0 
LINE
 8 
TemplateLayer
 6 
CONTINUOUS
 10 
-13.6363619691892 
 20 
-15.6002287246148 
 30 
 0 
 11 
-14.6503669142047 
 21 
-13.6363620758057 
 31 
 0 
 62 
 6 
 0 
LINE
 8 
TemplateLayer
 6 
CONTINUOUS
 10 
-14.6503669142047 
 20 
-13.6363620758057 
 30 
 0 
 11 
-15.8253550492318 
 21 
-10.2272710800171 
 31 
 0 
 62 
 6 
 0 
LINE
 8 
TemplateLayer
 6 
CONTINUOUS
 10 
-15.8253550492318 
 20 
-10.2272710800171 
 30 
 0 
 11 
-16.4083405514886 
 21 
-6.81818008422852 
 31 
 0 
 62 
 6 
 0 
LINE
 8 
TemplateLayer
 6 
CONTINUOUS
 10 
-16.4083405514886 
 20 
-6.81818008422852 
 30 
 0 
 11 
-16.6493769554612 
 21 
-3.40908908843994 
 31 
 0 
 62 
 6 
 0 
LINE
 8 
TemplateLayer
 6 
CONTINUOUS
 10 
-16.6493769554612 
 20 
-3.40908908843994 
 30 
 0 
 11 
-16.6661224004847 
 21 
 1.9073486328125E-06 
 31 
 0 
 62 
 6 
 0 
LINE
 8 
TemplateLayer
 6 
CONTINUOUS
 10 
-16.6661224004847 
 20 
 1.9073486328125E-06 
 30 
 0 
 11 
-16.6493769432232 
 21 
 3.40909290313721 
 31 
 0 
 62 
 6 
 0 
LINE
 8 
TemplateLayer
 6 
CONTINUOUS
 10 
-16.6493769432232 
 20 
 3.40909290313721 
 30 
 0 
 11 
-16.4083405270127 
 21 
 6.81818389892578 
 31 
 0 
 62 
 6 
 0 
LINE
 8 
TemplateLayer
 6 
CONTINUOUS
 10 
-16.4083405270127 
 20 
 6.81818389892578 
 30 
 0 
 11 
-15.825355012518 
 21 
 10.2272748947144 
 31 
 0 
 62 
 6 
 0 
LINE
 8 
TemplateLayer
 6 
CONTINUOUS
 10 
-15.825355012518 
 20 
 10.2272748947144 
 30 
 0 
 11 
-14.650366865253 
 21 
 13.6363658905029 
 31 
 0 
 62 
 6 
 0 
LINE
 8 
TemplateLayer
 6 
CONTINUOUS
 10 
-14.650366865253 
 20 
 13.6363658905029 
 30 
 0 
 11 
-13.6363619131876 
 21 
 15.6002325393121 
 31 
 0 
 62 
 6 
 0 
LINE
 8 
TemplateLayer
 6 
CONTINUOUS
 10 
-13.6363619131876 
 20 
 15.6002325393121 
 30 
 0 
 11 
-12.5499621782587 
 21 
 17.0454568862915 
 31 
 0 
 62 
 6 
 0 
LINE
 8 
TemplateLayer
 6 
CONTINUOUS
 10 
-12.5499621782587 
 20 
 17.0454568862915 
 30 
 0 
 11 
-10.2272709105744 
 21 
 19.4024580665925 
 31 
 0 
 62 
 6 
 0 
LINE
 8 
TemplateLayer
 6 
CONTINUOUS
 10 
-10.2272709105744 
 20 
 19.4024580665925 
 30 
 0 
 11 
-7.19944547065982 
 21 
 20.4545478820801 
 31 
 0 
 62 
 6 
 0 
LINE
 8 
TemplateLayer
 6 
CONTINUOUS
 10 
-7.19944547065982 
 20 
 20.4545478820801 
 30 
 0 
 11 
-6.81817991255607 
 21 
 20.6447453109144 
 31 
 0 
 62 
 6 
 0 
LINE
 8 
TemplateLayer
 6 
CONTINUOUS
 10 
-14.2346373820238 
 20 
-6.81818008422852 
 30 
 0 
 11 
-14.9470445187406 
 21 
-3.40908908843994 
 31 
 0 
 62 
 214 
 0 
LINE
 8 
TemplateLayer
 6 
CONTINUOUS
 10 
-14.9470445187406 
 20 
-3.40908908843994 
 30 
 0 
 11 
-15.0560606641056 
 21 
 1.9073486328125E-06 
 31 
 0 
 62 
 214 
 0 
LINE
 8 
TemplateLayer
 6 
CONTINUOUS
 10 
-15.0560606641056 
 20 
 1.9073486328125E-06 
 30 
 0 
 11 
-14.9470445065027 
 21 
 3.40909290313721 
 31 
 0 
 62 
 214 
 0 
LINE
 8 
TemplateLayer
 6 
CONTINUOUS
 10 
-14.9470445065027 
 20 
 3.40909290313721 
 30 
 0 
 11 
-14.234637357548 
 21 
 6.81818389892578 
 31 
 0 
 62 
 214 
 0 
LINE
 8 
TemplateLayer
 6 
CONTINUOUS
 10 
-14.234637357548 
 20 
 6.81818389892578 
 30 
 0 
 11 
-13.636361926128 
 21 
 8.39065826954119 
 31 
 0 
 62 
 214 
 0 
LINE
 8 
TemplateLayer
 6 
CONTINUOUS
 10 
-13.636361926128 
 20 
 8.39065826954119 
 30 
 0 
 11 
-12.8830735624178 
 21 
 10.2272748947144 
 31 
 0 
 62 
 214 
 0 
LINE
 8 
TemplateLayer
 6 
CONTINUOUS
 10 
-12.8830735624178 
 20 
 10.2272748947144 
 30 
 0 
 11 
-10.2962839137438 
 21 
 13.6363658905029 
 31 
 0 
 62 
 214 
 0 
LINE
 8 
TemplateLayer
 6 
CONTINUOUS
 10 
-10.2962839137438 
 20 
 13.6363658905029 
 30 
 0 
 11 
-10.2272709207808 
 21 
 13.716118466113 
 31 
 0 
 62 
 214 
 0 
LINE
 8 
TemplateLayer
 6 
CONTINUOUS
 10 
-10.2272709207808 
 20 
 13.716118466113 
 30 
 0 
 11 
-6.81817992074016 
 21 
 16.0851037174364 
 31 
 0 
 62 
 214 
 0 
LINE
 8 
TemplateLayer
 6 
CONTINUOUS
 10 
-6.81817992074016 
 20 
 16.0851037174364 
 30 
 0 
 11 
-3.40908892337655 
 21 
 16.9626096495431 
 31 
 0 
 62 
 214 
 0 
LINE
 8 
TemplateLayer
 6 
CONTINUOUS
 10 
-3.40908892337655 
 20 
 16.9626096495431 
 30 
 0 
 11 
 2.0725548204939E-06 
 21 
 17.0421673083411 
 31 
 0 
 62 
 214 
 0 
LINE
 8 
TemplateLayer
 6 
CONTINUOUS
 10 
 2.0725548204939E-06 
 20 
 17.0421673083411 
 30 
 0 
 11 
 3.40909306818718 
 21 
 16.9551348067592 
 31 
 0 
 62 
 214 
 0 
LINE
 8 
TemplateLayer
 6 
CONTINUOUS
 10 
 3.40909306818718 
 20 
 16.9551348067592 
 30 
 0 
 11 
 6.81818406234689 
 21 
 16.0476395207249 
 31 
 0 
 62 
 214 
 0 
LINE
 8 
TemplateLayer
 6 
CONTINUOUS
 10 
 6.81818406234689 
 20 
 16.0476395207249 
 30 
 0 
 11 
 10.227275053833 
 21 
 13.6506073705079 
 31 
 0 
 62 
 214 
 0 
LINE
 8 
TemplateLayer
 6 
CONTINUOUS
 10 
 10.227275053833 
 20 
 13.6506073705079 
 30 
 0 
 11 
 10.2393459771542 
 21 
 13.6363658905029 
 31 
 0 
 62 
 214 
 0 
LINE
 8 
TemplateLayer
 6 
CONTINUOUS
 10 
 10.2393459771542 
 20 
 13.6363658905029 
 30 
 0 
 11 
 12.8016274003741 
 21 
 10.2272748947144 
 31 
 0 
 62 
 214 
 0 
LINE
 8 
TemplateLayer
 6 
CONTINUOUS
 10 
 12.8016274003741 
 20 
 10.2272748947144 
 30 
 0 
 11 
 13.6363660396285 
 21 
 8.08308082193172 
 31 
 0 
 62 
 214 
 0 
LINE
 8 
TemplateLayer
 6 
CONTINUOUS
 10 
 13.6363660396285 
 20 
 8.08308082193172 
 30 
 0 
 11 
 14.1094970931795 
 21 
 6.81818389892578 
 31 
 0 
 62 
 214 
 0 
LINE
 8 
TemplateLayer
 6 
CONTINUOUS
 10 
 14.1094970931795 
 20 
 6.81818389892578 
 30 
 0 
 11 
 14.834496452728 
 21 
 3.40909290313721 
 31 
 0 
 62 
 214 
 0 
LINE
 8 
TemplateLayer
 6 
CONTINUOUS
 10 
 14.834496452728 
 20 
 3.40909290313721 
 30 
 0 
 11 
 15.136988080033 
 21 
 1.9073486328125E-06 
 31 
 0 
 62 
 214 
 0 
LINE
 8 
TemplateLayer
 6 
CONTINUOUS
 10 
 15.136988080033 
 20 
 1.9073486328125E-06 
 30 
 0 
 11 
 14.8344964404901 
 21 
-3.40908908843994 
 31 
 0 
 62 
 214 
 0 
LINE
 8 
TemplateLayer
 6 
CONTINUOUS
 10 
 14.8344964404901 
 20 
-3.40908908843994 
 30 
 0 
 11 
 14.1094970687036 
 21 
-6.81818008422852 
 31 
 0 
 62 
 214 
 0 
LINE
 8 
TemplateLayer
 6 
CONTINUOUS
 10 
 14.1094970687036 
 20 
-6.81818008422852 
 30 
 0 
 11 
 13.6363660106119 
 21 
-8.08307700723445 
 31 
 0 
 62 
 214 
 0 
LINE
 8 
TemplateLayer
 6 
CONTINUOUS
 10 
 13.6363660106119 
 20 
-8.08307700723445 
 30 
 0 
 11 
 12.8016273636603 
 21 
-10.2272710800171 
 31 
 0 
 62 
 214 
 0 
LINE
 8 
TemplateLayer
 6 
CONTINUOUS
 10 
 12.8016273636603 
 20 
-10.2272710800171 
 30 
 0 
 11 
 10.2393459282025 
 21 
-13.6363620758057 
 31 
 0 
 62 
 214 
 0 
LINE
 8 
TemplateLayer
 6 
CONTINUOUS
 10 
 10.2393459282025 
 20 
-13.6363620758057 
 30 
 0 
 11 
 10.2272750048302 
 21 
-13.6506035558107 
 31 
 0 
 62 
 214 
 0 
LINE
 8 
TemplateLayer
 6 
CONTINUOUS
 10 
 10.2272750048302 
 20 
-13.6506035558107 
 30 
 0 
 11 
 6.81818400473919 
 21 
-16.0476357060276 
 31 
 0 
 62 
 214 
 0 
LINE
 8 
TemplateLayer
 6 
CONTINUOUS
 10 
 6.81818400473919 
 20 
-16.0476357060276 
 30 
 0 
 11 
 3.40909300732175 
 21 
-16.9551309920619 
 31 
 0 
 62 
 214 
 0 
LINE
 8 
TemplateLayer
 6 
CONTINUOUS
 10 
 3.40909300732175 
 20 
-16.9551309920619 
 30 
 0 
 11 
 2.01137696564241E-06 
 21 
-17.0421634936438 
 31 
 0 
 62 
 214 
 0 
LINE
 8 
TemplateLayer
 6 
CONTINUOUS
 10 
 2.01137696564241E-06 
 20 
-17.0421634936438 
 30 
 0 
 11 
-3.40908898426881 
 21 
-16.9626058348458 
 31 
 0 
 62 
 214 
 0 
LINE
 8 
TemplateLayer
 6 
CONTINUOUS
 10 
-3.40908898426881 
 20 
-16.9626058348458 
 30 
 0 
 11 
-6.81817997848235 
 21 
-16.0850999027391 
 31 
 0 
 62 
 214 
 0 
LINE
 8 
TemplateLayer
 6 
CONTINUOUS
 10 
-6.81817997848235 
 20 
-16.0850999027391 
 30 
 0 
 11 
-10.2272709700188 
 21 
-13.7161146514157 
 31 
 0 
 62 
 214 
 0 
LINE
 8 
TemplateLayer
 6 
CONTINUOUS
 10 
-10.2272709700188 
 20 
-13.7161146514157 
 30 
 0 
 11 
-10.2962839626955 
 21 
-13.6363620758057 
 31 
 0 
 62 
 214 
 0 
LINE
 8 
TemplateLayer
 6 
CONTINUOUS
 10 
-10.2962839626955 
 20 
-13.6363620758057 
 30 
 0 
 11 
-12.8830735991316 
 21 
-10.2272710800171 
 31 
 0 
 62 
 214 
 0 
LINE
 8 
TemplateLayer
 6 
CONTINUOUS
 10 
-12.8830735991316 
 20 
-10.2272710800171 
 30 
 0 
 11 
-13.6363619562488 
 21 
-8.39065445484393 
 31 
 0 
 62 
 214 
 0 
LINE
 8 
TemplateLayer
 6 
CONTINUOUS
 10 
-13.6363619562488 
 20 
-8.39065445484393 
 30 
 0 
 11 
-14.2346373820238 
 21 
-6.81818008422852 
 31 
 0 
 62 
 214 
 0 
LINE
 8 
TemplateLayer
 6 
CONTINUOUS
 10 
-3.40908892889221 
 20 
 13.8896399534487 
 30 
 0 
 11 
 2.0669846293106E-06 
 21 
 13.9388182404637 
 31 
 0 
 62 
 30 
 0 
LINE
 8 
TemplateLayer
 6 
CONTINUOUS
 10 
 2.0669846293106E-06 
 20 
 13.9388182404637 
 30 
 0 
 11 
 3.40909306264655 
 21 
 13.8682524103922 
 31 
 0 
 62 
 30 
 0 
LINE
 8 
TemplateLayer
 6 
CONTINUOUS
 10 
 3.40909306264655 
 20 
 13.8682524103922 
 30 
 0 
 11 
 3.86220678507534 
 21 
 13.6363658905029 
 31 
 0 
 62 
 30 
 0 
LINE
 8 
TemplateLayer
 6 
CONTINUOUS
 10 
 3.86220678507534 
 20 
 13.6363658905029 
 30 
 0 
 11 
 6.8181840555576 
 21 
 12.265084809617 
 31 
 0 
 62 
 30 
 0 
LINE
 8 
TemplateLayer
 6 
CONTINUOUS
 10 
 6.8181840555576 
 20 
 12.265084809617 
 30 
 0 
 11 
 9.151772509617 
 21 
 10.2272748947144 
 31 
 0 
 62 
 30 
 0 
LINE
 8 
TemplateLayer
 6 
CONTINUOUS
 10 
 9.151772509617 
 20 
 10.2272748947144 
 30 
 0 
 11 
 10.227275045513 
 21 
 9.01519540781486 
 31 
 0 
 62 
 30 
 0 
LINE
 8 
TemplateLayer
 6 
CONTINUOUS
 10 
 10.227275045513 
 20 
 9.01519540781486 
 30 
 0 
 11 
 11.6274118140235 
 21 
 6.81818389892578 
 31 
 0 
 62 
 30 
 0 
LINE
 8 
TemplateLayer
 6 
CONTINUOUS
 10 
 11.6274118140235 
 20 
 6.81818389892578 
 30 
 0 
 11 
 12.6818232159663 
 21 
 3.40909290313721 
 31 
 0 
 62 
 30 
 0 
LINE
 8 
TemplateLayer
 6 
CONTINUOUS
 10 
 12.6818232159663 
 20 
 3.40909290313721 
 30 
 0 
 11 
 13.018540816899 
 21 
 1.9073486328125E-06 
 31 
 0 
 62 
 30 
 0 
LINE
 8 
TemplateLayer
 6 
CONTINUOUS
 10 
 13.018540816899 
 20 
 1.9073486328125E-06 
 30 
 0 
 11 
 12.6818232037283 
 21 
-3.40908908843994 
 31 
 0 
 62 
 30 
 0 
LINE
 8 
TemplateLayer
 6 
CONTINUOUS
 10 
 12.6818232037283 
 20 
-3.40908908843994 
 30 
 0 
 11 
 11.6274117895476 
 21 
-6.81818008422852 
 31 
 0 
 62 
 30 
 0 
LINE
 8 
TemplateLayer
 6 
CONTINUOUS
 10 
 11.6274117895476 
 20 
-6.81818008422852 
 30 
 0 
 11 
 10.2272750131503 
 21 
-9.01519159311759 
 31 
 0 
 62 
 30 
 0 
LINE
 8 
TemplateLayer
 6 
CONTINUOUS
 10 
 10.2272750131503 
 20 
-9.01519159311759 
 30 
 0 
 11 
 9.1517724729032 
 21 
-10.2272710800171 
 31 
 0 
 62 
 30 
 0 
LINE
 8 
TemplateLayer
 6 
CONTINUOUS
 10 
 9.1517724729032 
 20 
-10.2272710800171 
 30 
 0 
 11 
 6.81818401152848 
 21 
-12.2650809949197 
 31 
 0 
 62 
 30 
 0 
LINE
 8 
TemplateLayer
 6 
CONTINUOUS
 10 
 6.81818401152848 
 20 
-12.2650809949197 
 30 
 0 
 11 
 3.86220673612361 
 21 
-13.6363620758057 
 31 
 0 
 62 
 30 
 0 
LINE
 8 
TemplateLayer
 6 
CONTINUOUS
 10 
 3.86220673612361 
 20 
-13.6363620758057 
 30 
 0 
 11 
 3.40909301286239 
 21 
-13.868248595695 
 31 
 0 
 62 
 30 
 0 
LINE
 8 
TemplateLayer
 6 
CONTINUOUS
 10 
 3.40909301286239 
 20 
-13.868248595695 
 30 
 0 
 11 
 2.01694715682571E-06 
 21 
-13.9388144257664 
 31 
 0 
 62 
 30 
 0 
LINE
 8 
TemplateLayer
 6 
CONTINUOUS
 10 
 2.01694715682571E-06 
 20 
-13.9388144257664 
 30 
 0 
 11 
-3.40908897875315 
 21 
-13.8896361387514 
 31 
 0 
 62 
 30 
 0 
LINE
 8 
TemplateLayer
 6 
CONTINUOUS
 10 
-3.40908897875315 
 20 
-13.8896361387514 
 30 
 0 
 11 
-3.91362696607397 
 21 
-13.6363620758057 
 31 
 0 
 62 
 30 
 0 
LINE
 8 
TemplateLayer
 6 
CONTINUOUS
 10 
-3.91362696607397 
 20 
-13.6363620758057 
 30 
 0 
 11 
-6.8181799716912 
 21 
-12.3015112583654 
 31 
 0 
 62 
 30 
 0 
LINE
 8 
TemplateLayer
 6 
CONTINUOUS
 10 
-6.8181799716912 
 20 
-12.3015112583654 
 30 
 0 
 11 
-9.19552806019469 
 21 
-10.2272710800171 
 31 
 0 
 62 
 30 
 0 
LINE
 8 
TemplateLayer
 6 
CONTINUOUS
 10 
-9.19552806019469 
 20 
-10.2272710800171 
 30 
 0 
 11 
-10.2272709616881 
 21 
-9.07474686603528 
 31 
 0 
 62 
 30 
 0 
LINE
 8 
TemplateLayer
 6 
CONTINUOUS
 10 
-10.2272709616881 
 20 
-9.07474686603528 
 30 
 0 
 11 
-11.68878306509 
 21 
-6.81818008422852 
 31 
 0 
 62 
 30 
 0 
LINE
 8 
TemplateLayer
 6 
CONTINUOUS
 10 
-11.68878306509 
 20 
-6.81818008422852 
 30 
 0 
 11 
-12.7555213055717 
 21 
-3.40908908843994 
 31 
 0 
 62 
 30 
 0 
LINE
 8 
TemplateLayer
 6 
CONTINUOUS
 10 
-12.7555213055717 
 20 
-3.40908908843994 
 30 
 0 
 11 
-12.975497663188 
 21 
 1.9073486328125E-06 
 31 
 0 
 62 
 30 
 0 
LINE
 8 
TemplateLayer
 6 
CONTINUOUS
 10 
-12.975497663188 
 20 
 1.9073486328125E-06 
 30 
 0 
 11 
-12.7555212933338 
 21 
 3.40909290313721 
 31 
 0 
 62 
 30 
 0 
LINE
 8 
TemplateLayer
 6 
CONTINUOUS
 10 
-12.7555212933338 
 20 
 3.40909290313721 
 30 
 0 
 11 
-11.6887830406142 
 21 
 6.81818389892578 
 31 
 0 
 62 
 30 
 0 
LINE
 8 
TemplateLayer
 6 
CONTINUOUS
 10 
-11.6887830406142 
 20 
 6.81818389892578 
 30 
 0 
 11 
-10.2272709291116 
 21 
 9.07475068073255 
 31 
 0 
 62 
 30 
 0 
LINE
 8 
TemplateLayer
 6 
CONTINUOUS
 10 
-10.2272709291116 
 20 
 9.07475068073255 
 30 
 0 
 11 
-9.1955280234809 
 21 
 10.2272748947144 
 31 
 0 
 62 
 30 
 0 
LINE
 8 
TemplateLayer
 6 
CONTINUOUS
 10 
-9.1955280234809 
 20 
 10.2272748947144 
 30 
 0 
 11 
-6.81817992753131 
 21 
 12.3015150730627 
 31 
 0 
 62 
 30 
 0 
LINE
 8 
TemplateLayer
 6 
CONTINUOUS
 10 
-6.81817992753131 
 20 
 12.3015150730627 
 30 
 0 
 11 
-3.91362691712224 
 21 
 13.6363658905029 
 31 
 0 
 62 
 30 
 0 
LINE
 8 
TemplateLayer
 6 
CONTINUOUS
 10 
-3.91362691712224 
 20 
 13.6363658905029 
 30 
 0 
 11 
-3.40908892889221 
 21 
 13.8896399534487 
 31 
 0 
 62 
 30 
 0 
LINE
 8 
TemplateLayer
 6 
CONTINUOUS
 10 
 2.06091808762493E-06 
 20 
 10.5589348766808 
 30 
 0 
 11 
 2.94365616110941 
 21 
 10.2272748947144 
 31 
 0 
 62 
 94 
 0 
LINE
 8 
TemplateLayer
 6 
CONTINUOUS
 10 
 2.94365616110941 
 20 
 10.2272748947144 
 30 
 0 
 11 
 3.40909305604869 
 21 
 10.1923535304126 
 31 
 0 
 62 
 94 
 0 
LINE
 8 
TemplateLayer
 6 
CONTINUOUS
 10 
 3.40909305604869 
 20 
 10.1923535304126 
 30 
 0 
 11 
 6.81818404755716 
 21 
 7.80776177999498 
 31 
 0 
 62 
 94 
 0 
LINE
 8 
TemplateLayer
 6 
CONTINUOUS
 10 
 6.81818404755716 
 20 
 7.80776177999498 
 30 
 0 
 11 
 7.74570879742563 
 21 
 6.81818389892578 
 31 
 0 
 62 
 94 
 0 
LINE
 8 
TemplateLayer
 6 
CONTINUOUS
 10 
 7.74570879742563 
 20 
 6.81818389892578 
 30 
 0 
 11 
 9.69211291147554 
 21 
 3.40909290313721 
 31 
 0 
 62 
 94 
 0 
LINE
 8 
TemplateLayer
 6 
CONTINUOUS
 10 
 9.69211291147554 
 20 
 3.40909290313721 
 30 
 0 
 11 
 10.1674636451503 
 21 
 1.9073486328125E-06 
 31 
 0 
 62 
 94 
 0 
LINE
 8 
TemplateLayer
 6 
CONTINUOUS
 10 
 10.1674636451503 
 20 
 1.9073486328125E-06 
 30 
 0 
 11 
 9.69211289923761 
 21 
-3.40908908843994 
 31 
 0 
 62 
 94 
 0 
LINE
 8 
TemplateLayer
 6 
CONTINUOUS
 10 
 9.69211289923761 
 20 
-3.40908908843994 
 30 
 0 
 11 
 7.74570877294976 
 21 
-6.81818008422852 
 31 
 0 
 62 
 94 
 0 
LINE
 8 
TemplateLayer
 6 
CONTINUOUS
 10 
 7.74570877294976 
 20 
-6.81818008422852 
 30 
 0 
 11 
 6.81818401952892 
 21 
-7.80775796529771 
 31 
 0 
 62 
 94 
 0 
LINE
 8 
TemplateLayer
 6 
CONTINUOUS
 10 
 6.81818401952892 
 20 
-7.80775796529771 
 30 
 0 
 11 
 3.40909301946025 
 21 
-10.1923497157153 
 31 
 0 
 62 
 94 
 0 
LINE
 8 
TemplateLayer
 6 
CONTINUOUS
 10 
 3.40909301946025 
 20 
-10.1923497157153 
 30 
 0 
 11 
 2.94365612439561 
 21 
-10.2272710800171 
 31 
 0 
 62 
 94 
 0 
LINE
 8 
TemplateLayer
 6 
CONTINUOUS
 10 
 2.94365612439561 
 20 
-10.2272710800171 
 30 
 0 
 11 
 2.02301369851832E-06 
 21 
-10.5589310619835 
 31 
 0 
 62 
 94 
 0 
LINE
 8 
TemplateLayer
 6 
CONTINUOUS
 10 
 2.02301369851832E-06 
 20 
-10.5589310619835 
 30 
 0 
 11 
-3.01318679415514 
 21 
-10.2272710800171 
 31 
 0 
 62 
 94 
 0 
LINE
 8 
TemplateLayer
 6 
CONTINUOUS
 10 
-3.01318679415514 
 20 
-10.2272710800171 
 30 
 0 
 11 
-3.40908897212792 
 21 
-10.1984871599741 
 31 
 0 
 62 
 94 
 0 
LINE
 8 
TemplateLayer
 6 
CONTINUOUS
 10 
-3.40908897212792 
 20 
-10.1984871599741 
 30 
 0 
 11 
-6.8181799636979 
 21 
-7.84816485572287 
 31 
 0 
 62 
 94 
 0 
LINE
 8 
TemplateLayer
 6 
CONTINUOUS
 10 
-6.8181799636979 
 20 
-7.84816485572287 
 30 
 0 
 11 
-7.78873098955447 
 21 
-6.81818008422852 
 31 
 0 
 62 
 94 
 0 
LINE
 8 
TemplateLayer
 6 
CONTINUOUS
 10 
-7.78873098955447 
 20 
-6.81818008422852 
 30 
 0 
 11 
-9.72266979856123 
 21 
-3.40908908843994 
 31 
 0 
 62 
 94 
 0 
LINE
 8 
TemplateLayer
 6 
CONTINUOUS
 10 
-9.72266979856123 
 20 
-3.40908908843994 
 30 
 0 
 11 
-10.1887951646316 
 21 
 1.9073486328125E-06 
 31 
 0 
 62 
 94 
 0 
LINE
 8 
TemplateLayer
 6 
CONTINUOUS
 10 
-10.1887951646316 
 20 
 1.9073486328125E-06 
 30 
 0 
 11 
-9.7226697863233 
 21 
 3.40909290313721 
 31 
 0 
 62 
 94 
 0 
LINE
 8 
TemplateLayer
 6 
CONTINUOUS
 10 
-9.7226697863233 
 20 
 3.40909290313721 
 30 
 0 
 11 
-7.78873096507861 
 21 
 6.81818389892578 
 31 
 0 
 62 
 94 
 0 
LINE
 8 
TemplateLayer
 6 
CONTINUOUS
 10 
-7.78873096507861 
 20 
 6.81818389892578 
 30 
 0 
 11 
-6.81817993552461 
 21 
 7.84816867042014 
 31 
 0 
 62 
 94 
 0 
LINE
 8 
TemplateLayer
 6 
CONTINUOUS
 10 
-6.81817993552461 
 20 
 7.84816867042014 
 30 
 0 
 11 
-3.40908893551745 
 21 
 10.1984909746714 
 31 
 0 
 62 
 94 
 0 
LINE
 8 
TemplateLayer
 6 
CONTINUOUS
 10 
-3.40908893551745 
 20 
 10.1984909746714 
 30 
 0 
 11 
-3.01318675744134 
 21 
 10.2272748947144 
 31 
 0 
 62 
 94 
 0 
LINE
 8 
TemplateLayer
 6 
CONTINUOUS
 10 
-3.01318675744134 
 20 
 10.2272748947144 
 30 
 0 
 11 
 2.06091808762493E-06 
 21 
 10.5589348766808 
 31 
 0 
 62 
 94 
 0 
LINE
 8 
TemplateLayer
 6 
CONTINUOUS
 10 
-4.3340410583798 
 20 
-3.40908908843994 
 30 
 0 
 11 
-5.44037890561825 
 21 
 1.9073486328125E-06 
 31 
 0 
 62 
 172 
 0 
LINE
 8 
TemplateLayer
 6 
CONTINUOUS
 10 
-5.44037890561825 
 20 
 1.9073486328125E-06 
 30 
 0 
 11 
-4.33404104614187 
 21 
 3.40909290313721 
 31 
 0 
 62 
 172 
 0 
LINE
 8 
TemplateLayer
 6 
CONTINUOUS
 10 
-4.33404104614187 
 20 
 3.40909290313721 
 30 
 0 
 11 
-3.40908894582417 
 21 
 4.45625559921177 
 31 
 0 
 62 
 172 
 0 
LINE
 8 
TemplateLayer
 6 
CONTINUOUS
 10 
-3.40908894582417 
 20 
 4.45625559921177 
 30 
 0 
 11 
 2.05143912550276E-06 
 21 
 5.2778722883909 
 31 
 0 
 62 
 172 
 0 
LINE
 8 
TemplateLayer
 6 
CONTINUOUS
 10 
 2.05143912550276E-06 
 20 
 5.2778722883909 
 30 
 0 
 11 
 3.40909304570607 
 21 
 4.43011962269962 
 31 
 0 
 62 
 172 
 0 
LINE
 8 
TemplateLayer
 6 
CONTINUOUS
 10 
 3.40909304570607 
 20 
 4.43011962269962 
 30 
 0 
 11 
 4.30967389264955 
 21 
 3.40909290313721 
 31 
 0 
 62 
 172 
 0 
LINE
 8 
TemplateLayer
 6 
CONTINUOUS
 10 
 4.30967389264955 
 20 
 3.40909290313721 
 30 
 0 
 11 
 5.35929122925678 
 21 
 1.9073486328125E-06 
 31 
 0 
 62 
 172 
 0 
LINE
 8 
TemplateLayer
 6 
CONTINUOUS
 10 
 5.35929122925678 
 20 
 1.9073486328125E-06 
 30 
 0 
 11 
 4.30967388041162 
 21 
-3.40908908843994 
 31 
 0 
 62 
 172 
 0 
LINE
 8 
TemplateLayer
 6 
CONTINUOUS
 10 
 4.30967388041162 
 20 
-3.40908908843994 
 30 
 0 
 11 
 3.40909302980286 
 21 
-4.43011580800236 
 31 
 0 
 62 
 172 
 0 
LINE
 8 
TemplateLayer
 6 
CONTINUOUS
 10 
 3.40909302980286 
 20 
-4.43011580800236 
 30 
 0 
 11 
 2.03249266063354E-06 
 21 
-5.27786847369363 
 31 
 0 
 62 
 172 
 0 
LINE
 8 
TemplateLayer
 6 
CONTINUOUS
 10 
 2.03249266063354E-06 
 20 
-5.27786847369363 
 30 
 0 
 11 
-3.4090889618212 
 21 
-4.45625178451451 
 31 
 0 
 62 
 172 
 0 
LINE
 8 
TemplateLayer
 6 
CONTINUOUS
 10 
-3.4090889618212 
 20 
-4.45625178451451 
 30 
 0 
 11 
-4.3340410583798 
 21 
-3.40908908843994 
 31 
 0 
 62 
 172 
 0 
TEXT
 8 
TemplateLayer
 10 
-31.2308134112726 
 20 
-7.80336530120284 
 30 
 0 
 40 
 1.33 
 50 
 0 
 62 
 7 
 1 
.1
 0 
TEXT
 8 
TemplateLayer
 10 
-3.40908889845669 
 20 
 29.8611566277595 
 30 
 0 
 40 
 1.33 
 50 
 0 
 62 
 1 
 1 
.2
 0 
TEXT
 8 
TemplateLayer
 10 
-6.81817989985156 
 20 
 26.7376905600456 
 30 
 0 
 40 
 1.33 
 50 
 0 
 62 
 3 
 1 
.5
 0 
TEXT
 8 
TemplateLayer
 10 
-6.81817990540248 
 20 
 23.6450777017865 
 30 
 0 
 40 
 1.33 
 50 
 0 
 62 
 5 
 1 
1
 0 
TEXT
 8 
TemplateLayer
 10 
-6.81817991255607 
 20 
 19.6595600939401 
 30 
 0 
 40 
 1.33 
 50 
 0 
 62 
 6 
 1 
2
 0 
TEXT
 8 
TemplateLayer
 10 
-14.2346373820238 
 20 
-7.80336530120284 
 30 
 0 
 40 
 1.33 
 50 
 0 
 62 
 214 
 1 
5
 0 
TEXT
 8 
TemplateLayer
 10 
-3.40908892889221 
 20 
 12.9044547364743 
 30 
 0 
 40 
 1.33 
 50 
 0 
 62 
 30 
 1 
10
 0 
TEXT
 8 
TemplateLayer
 10 
 2.06091808762493E-06 
 20 
 9.57374965970645 
 30 
 0 
 40 
 1.33 
 50 
 0 
 62 
 94 
 1 
20
 0 
TEXT
 8 
TemplateLayer
 10 
-4.3340410583798 
 20 
-4.39427430541427 
 30 
 0 
 40 
 1.33 
 50 
 0 
 62 
 172 
 1 
50
 0 
LINE
 8 
TemplateLayer
 6 
CONTINUOUS
 10 
 0 
 20 
 0 
 30 
 0 
 11 
 2 
 21 
 0 
 31 
 0 
 62 
 0 
 0 
LINE
 8 
TemplateLayer
 6 
CONTINUOUS
 10 
 2 
 20 
 0 
 30 
 0 
 11 
 1 
 21 
 0.5 
 31 
 0 
 62 
 0 
 0 
LINE
 8 
TemplateLayer
 6 
CONTINUOUS
 10 
 1 
 20 
 0.5 
 30 
 0 
 11 
 1 
 21 
-0.5 
 31 
 0 
 62 
 0 
 0 
LINE
 8 
TemplateLayer
 6 
CONTINUOUS
 10 
 1 
 20 
-0.5 
 30 
 0 
 11 
 2 
 21 
 0 
 31 
 0 
 62 
 0 
 0 
LINE
 8 
TemplateLayer
 6 
CONTINUOUS
 10 
-0.100000001490116 
 20 
 0.100000001490116 
 30 
 0 
 11 
 0.100000001490116 
 21 
 0.100000001490116 
 31 
 0 
 62 
 0 
 0 
LINE
 8 
TemplateLayer
 6 
CONTINUOUS
 10 
 0.100000001490116 
 20 
 0.100000001490116 
 30 
 0 
 11 
 0.100000001490116 
 21 
-0.100000001490116 
 31 
 0 
 62 
 0 
 0 
LINE
 8 
TemplateLayer
 6 
CONTINUOUS
 10 
 0.100000001490116 
 20 
-0.100000001490116 
 30 
 0 
 11 
-0.100000001490116 
 21 
-0.100000001490116 
 31 
 0 
 62 
 0 
 0 
LINE
 8 
TemplateLayer
 6 
CONTINUOUS
 10 
-0.100000001490116 
 20 
-0.100000001490116 
 30 
 0 
 11 
-0.100000001490116 
 21 
 0.100000001490116 
 31 
 0 
 62 
 0 
 0 
LINE
 8 
TemplateLayer
 6 
CONTINUOUS
 10 
 0 
 20 
 0 
 30 
 0 
 11 
 0 
 21 
 0 
 31 
 0 
 62 
 0 
 0 
ENDBLK
 0 
ENDSEC
 0 
SECTION
 2 
ENTITIES
 0 
INSERT
 2 
Template
 6 
CONTINUOUS
 8 
TemplateLayer
 10 
 0 
 20 
 0 
 30 
 0 
 41 
 1 
 42 
 1 
 43 
 1 
 50 
 0 
 0 
ENDSEC
 0 
EOF
