 0 
SECTION
 2 
HEADER
 9 
$LUNITS
 70 
 2 
 0 
ENDSEC
 0 
SECTION
 2 
TABLES
 0 
TABLE
 2 
LTYPE
 70 
 1 
 0 
LTYPE
 2 
CONTINUOUS
 70 
 0 
 3 
Solid line
 72 
 65 
 73 
 0 
 40 
 0 
 0 
ENDTAB
 0 
TABLE
 2 
LAYER
 70 
 0 
 0 
LAYER
 2 
TemplateLayer
 62 
 7 
 6 
CONTINUOUS
 70 
 0 
 0 
ENDTAB
 0 
ENDSEC
 0 
SECTION
 2 
BLOCKS
 0 
BLOCK
 8 
TemplateLayer
 2 
Template
 70 
 0 
 10 
 0 
 20 
 0 
 30 
 0 
 0 
LINE
 8 
TemplateLayer
 6 
CONTINUOUS
 10 
-27.9076567096815 
 20 
-3.40908908843994 
 30 
 0 
 11 
-28.18369508192 
 21 
 1.9073486328125E-06 
 31 
 0 
 62 
 7 
 0 
LINE
 8 
TemplateLayer
 6 
CONTINUOUS
 10 
-28.18369508192 
 20 
 1.9073486328125E-06 
 30 
 0 
 11 
-27.9603551663401 
 21 
 3.40909290313721 
 31 
 0 
 62 
 7 
 0 
LINE
 8 
TemplateLayer
 6 
CONTINUOUS
 10 
-27.9603551663401 
 20 
 3.40909290313721 
 30 
 0 
 11 
-27.2727259129256 
 21 
 6.36086552978585 
 31 
 0 
 62 
 7 
 0 
LINE
 8 
TemplateLayer
 6 
CONTINUOUS
 10 
-27.2727259129256 
 20 
 6.36086552978585 
 30 
 0 
 11 
-27.2015681818287 
 21 
 6.81818389892578 
 31 
 0 
 62 
 7 
 0 
LINE
 8 
TemplateLayer
 6 
CONTINUOUS
 10 
-27.2015681818287 
 20 
 6.81818389892578 
 30 
 0 
 11 
-26.2564005273027 
 21 
 10.2272748947144 
 31 
 0 
 62 
 7 
 0 
LINE
 8 
TemplateLayer
 6 
CONTINUOUS
 10 
-26.2564005273027 
 20 
 10.2272748947144 
 30 
 0 
 11 
-24.7382705034703 
 21 
 13.6363658905029 
 31 
 0 
 62 
 7 
 0 
LINE
 8 
TemplateLayer
 6 
CONTINUOUS
 10 
-24.7382705034703 
 20 
 13.6363658905029 
 30 
 0 
 11 
-23.8636349017062 
 21 
 14.9579515708776 
 31 
 0 
 62 
 7 
 0 
LINE
 8 
TemplateLayer
 6 
CONTINUOUS
 10 
-23.8636349017062 
 20 
 14.9579515708776 
 30 
 0 
 11 
-22.6231539479987 
 21 
 17.0454568862915 
 31 
 0 
 62 
 7 
 0 
LINE
 8 
TemplateLayer
 6 
CONTINUOUS
 10 
-22.6231539479987 
 20 
 17.0454568862915 
 30 
 0 
 11 
-20.4545438976375 
 21 
 19.5710942858723 
 31 
 0 
 62 
 7 
 0 
LINE
 8 
TemplateLayer
 6 
CONTINUOUS
 10 
-20.4545438976375 
 20 
 19.5710942858723 
 30 
 0 
 11 
-19.6359766990533 
 21 
 20.4545478820801 
 31 
 0 
 62 
 7 
 0 
LINE
 8 
TemplateLayer
 6 
CONTINUOUS
 10 
-19.6359766990533 
 20 
 20.4545478820801 
 30 
 0 
 11 
-17.0454528960855 
 21 
 22.7820743234849 
 31 
 0 
 62 
 7 
 0 
LINE
 8 
TemplateLayer
 6 
CONTINUOUS
 10 
-17.0454528960855 
 20 
 22.7820743234849 
 30 
 0 
 11 
-15.4251619974975 
 21 
 23.8636388778687 
 31 
 0 
 62 
 7 
 0 
LINE
 8 
TemplateLayer
 6 
CONTINUOUS
 10 
-15.4251619974975 
 20 
 23.8636388778687 
 30 
 0 
 11 
-13.6363618961623 
 21 
 25.0855984656761 
 31 
 0 
 62 
 7 
 0 
LINE
 8 
TemplateLayer
 6 
CONTINUOUS
 10 
-13.6363618961623 
 20 
 25.0855984656761 
 30 
 0 
 11 
-10.2272708975266 
 21 
 26.6718694426641 
 31 
 0 
 62 
 7 
 0 
LINE
 8 
TemplateLayer
 6 
CONTINUOUS
 10 
-10.2272708975266 
 20 
 26.6718694426641 
 30 
 0 
 11 
-7.41106423491102 
 21 
 27.2727298736572 
 31 
 0 
 62 
 7 
 0 
LINE
 8 
TemplateLayer
 6 
CONTINUOUS
 10 
-7.41106423491102 
 20 
 27.2727298736572 
 30 
 0 
 11 
-6.81817990033832 
 21 
 27.451684492862 
 31 
 0 
 62 
 7 
 0 
LINE
 8 
TemplateLayer
 6 
CONTINUOUS
 10 
-6.81817990033832 
 20 
 27.451684492862 
 30 
 0 
 11 
-3.40908890347896 
 21 
 28.0482575861389 
 31 
 0 
 62 
 7 
 0 
LINE
 8 
TemplateLayer
 6 
CONTINUOUS
 10 
-3.40908890347896 
 20 
 28.0482575861389 
 30 
 0 
 11 
 2.09242640994423E-06 
 21 
 28.1133274548441 
 31 
 0 
 62 
 7 
 0 
LINE
 8 
TemplateLayer
 6 
CONTINUOUS
 10 
 2.09242640994423E-06 
 20 
 28.1133274548441 
 30 
 0 
 11 
 3.40909308812383 
 21 
 28.062543062392 
 31 
 0 
 62 
 7 
 0 
LINE
 8 
TemplateLayer
 6 
CONTINUOUS
 10 
 3.40909308812383 
 20 
 28.062543062392 
 30 
 0 
 11 
 6.81818408287821 
 21 
 27.4863540110765 
 31 
 0 
 62 
 7 
 0 
LINE
 8 
TemplateLayer
 6 
CONTINUOUS
 10 
 6.81818408287821 
 20 
 27.4863540110765 
 30 
 0 
 11 
 7.54223773311218 
 21 
 27.2727298736572 
 31 
 0 
 62 
 7 
 0 
LINE
 8 
TemplateLayer
 6 
CONTINUOUS
 10 
 7.54223773311218 
 20 
 27.2727298736572 
 30 
 0 
 11 
 10.2272750772914 
 21 
 26.7200720126189 
 31 
 0 
 62 
 7 
 0 
LINE
 8 
TemplateLayer
 6 
CONTINUOUS
 10 
 10.2272750772914 
 20 
 26.7200720126189 
 30 
 0 
 11 
 13.6363660703473 
 21 
 25.19763089368 
 31 
 0 
 62 
 7 
 0 
LINE
 8 
TemplateLayer
 6 
CONTINUOUS
 10 
 13.6363660703473 
 20 
 25.19763089368 
 30 
 0 
 11 
 15.658036298194 
 21 
 23.8636388778687 
 31 
 0 
 62 
 7 
 0 
LINE
 8 
TemplateLayer
 6 
CONTINUOUS
 10 
 15.658036298194 
 20 
 23.8636388778687 
 30 
 0 
 11 
 17.0454570622154 
 21 
 23.0133907146151 
 31 
 0 
 62 
 7 
 0 
LINE
 8 
TemplateLayer
 6 
CONTINUOUS
 10 
 17.0454570622154 
 20 
 23.0133907146151 
 30 
 0 
 11 
 19.9648954712567 
 21 
 20.4545478820801 
 31 
 0 
 62 
 7 
 0 
LINE
 8 
TemplateLayer
 6 
CONTINUOUS
 10 
 19.9648954712567 
 20 
 20.4545478820801 
 30 
 0 
 11 
 20.4545480524846 
 21 
 19.9383141296726 
 31 
 0 
 62 
 7 
 0 
LINE
 8 
TemplateLayer
 6 
CONTINUOUS
 10 
 20.4545480524846 
 20 
 19.9383141296726 
 30 
 0 
 11 
 22.9120724070729 
 21 
 17.0454568862915 
 31 
 0 
 62 
 7 
 0 
LINE
 8 
TemplateLayer
 6 
CONTINUOUS
 10 
 22.9120724070729 
 20 
 17.0454568862915 
 30 
 0 
 11 
 23.8636390400345 
 21 
 15.3482899495987 
 31 
 0 
 62 
 7 
 0 
LINE
 8 
TemplateLayer
 6 
CONTINUOUS
 10 
 23.8636390400345 
 20 
 15.3482899495987 
 30 
 0 
 11 
 24.9967463476728 
 21 
 13.6363658905029 
 31 
 0 
 62 
 7 
 0 
LINE
 8 
TemplateLayer
 6 
CONTINUOUS
 10 
 24.9967463476728 
 20 
 13.6363658905029 
 30 
 0 
 11 
 26.4421251913052 
 21 
 10.2272748947144 
 31 
 0 
 62 
 7 
 0 
LINE
 8 
TemplateLayer
 6 
CONTINUOUS
 10 
 26.4421251913052 
 20 
 10.2272748947144 
 30 
 0 
 11 
 27.2727300208158 
 21 
 6.98722844965 
 31 
 0 
 62 
 7 
 0 
LINE
 8 
TemplateLayer
 6 
CONTINUOUS
 10 
 27.2727300208158 
 20 
 6.98722844965 
 30 
 0 
 11 
 27.3374590876551 
 21 
 6.81818389892578 
 31 
 0 
 62 
 7 
 0 
LINE
 8 
TemplateLayer
 6 
CONTINUOUS
 10 
 27.3374590876551 
 20 
 6.81818389892578 
 30 
 0 
 11 
 28.1420971655173 
 21 
 3.40909290313721 
 31 
 0 
 62 
 7 
 0 
LINE
 8 
TemplateLayer
 6 
CONTINUOUS
 10 
 28.1420971655173 
 20 
 3.40909290313721 
 30 
 0 
 11 
 28.352275466756 
 21 
 1.9073486328125E-06 
 31 
 0 
 62 
 7 
 0 
LINE
 8 
TemplateLayer
 6 
CONTINUOUS
 10 
 28.352275466756 
 20 
 1.9073486328125E-06 
 30 
 0 
 11 
 28.1027695425543 
 21 
-3.40908908843994 
 31 
 0 
 62 
 7 
 0 
LINE
 8 
TemplateLayer
 6 
CONTINUOUS
 10 
 28.1027695425543 
 20 
-3.40908908843994 
 30 
 0 
 11 
 27.2727299960366 
 21 
-6.81818008422852 
 31 
 0 
 62 
 7 
 0 
LINE
 8 
TemplateLayer
 6 
CONTINUOUS
 10 
 27.2727299960366 
 20 
-6.81818008422852 
 30 
 0 
 11 
 26.3687462831998 
 21 
-10.2272710800171 
 31 
 0 
 62 
 7 
 0 
LINE
 8 
TemplateLayer
 6 
CONTINUOUS
 10 
 26.3687462831998 
 20 
-10.2272710800171 
 30 
 0 
 11 
 24.8362022425085 
 21 
-13.6363620758057 
 31 
 0 
 62 
 7 
 0 
LINE
 8 
TemplateLayer
 6 
CONTINUOUS
 10 
 24.8362022425085 
 20 
-13.6363620758057 
 30 
 0 
 11 
 23.8636389853916 
 21 
-15.0952071207552 
 31 
 0 
 62 
 7 
 0 
LINE
 8 
TemplateLayer
 6 
CONTINUOUS
 10 
 23.8636389853916 
 20 
-15.0952071207552 
 30 
 0 
 11 
 22.7730734822374 
 21 
-17.0454530715942 
 31 
 0 
 62 
 7 
 0 
LINE
 8 
TemplateLayer
 6 
CONTINUOUS
 10 
 22.7730734822374 
 20 
-17.0454530715942 
 30 
 0 
 11 
 20.4545479812858 
 21 
-19.7289938015484 
 31 
 0 
 62 
 7 
 0 
LINE
 8 
TemplateLayer
 6 
CONTINUOUS
 10 
 20.4545479812858 
 20 
-19.7289938015484 
 30 
 0 
 11 
 19.7632597837577 
 21 
-20.4545440673828 
 31 
 0 
 62 
 7 
 0 
LINE
 8 
TemplateLayer
 6 
CONTINUOUS
 10 
 19.7632597837577 
 20 
-20.4545440673828 
 30 
 0 
 11 
 17.0454569799221 
 21 
-22.8351014906416 
 31 
 0 
 62 
 7 
 0 
LINE
 8 
TemplateLayer
 6 
CONTINUOUS
 10 
 17.0454569799221 
 20 
-22.8351014906416 
 30 
 0 
 11 
 15.3477566511508 
 21 
-23.8636350631714 
 31 
 0 
 62 
 7 
 0 
LINE
 8 
TemplateLayer
 6 
CONTINUOUS
 10 
 15.3477566511508 
 20 
-23.8636350631714 
 30 
 0 
 11 
 13.636365980264 
 21 
-24.9909795923253 
 31 
 0 
 62 
 7 
 0 
LINE
 8 
TemplateLayer
 6 
CONTINUOUS
 10 
 13.636365980264 
 20 
-24.9909795923253 
 30 
 0 
 11 
 10.2272749816467 
 21 
-26.5669621831962 
 31 
 0 
 62 
 7 
 0 
LINE
 8 
TemplateLayer
 6 
CONTINUOUS
 10 
 10.2272749816467 
 20 
-26.5669621831962 
 30 
 0 
 11 
 6.81818398468886 
 21 
-27.218378046368 
 31 
 0 
 62 
 7 
 0 
LINE
 8 
TemplateLayer
 6 
CONTINUOUS
 10 
 6.81818398468886 
 20 
-27.218378046368 
 30 
 0 
 11 
 6.21334327724501 
 21 
-27.27272605896 
 31 
 0 
 62 
 7 
 0 
LINE
 8 
TemplateLayer
 6 
CONTINUOUS
 10 
 6.21334327724501 
 20 
-27.27272605896 
 30 
 0 
 11 
 3.40909298803787 
 21 
-27.6988621999803 
 31 
 0 
 62 
 7 
 0 
LINE
 8 
TemplateLayer
 6 
CONTINUOUS
 10 
 3.40909298803787 
 20 
-27.6988621999803 
 30 
 0 
 11 
 1.99228397573803E-06 
 21 
-27.6795384970893 
 31 
 0 
 62 
 7 
 0 
LINE
 8 
TemplateLayer
 6 
CONTINUOUS
 10 
 1.99228397573803E-06 
 20 
-27.6795384970893 
 30 
 0 
 11 
-3.40908900329452 
 21 
-27.5624986253289 
 31 
 0 
 62 
 7 
 0 
LINE
 8 
TemplateLayer
 6 
CONTINUOUS
 10 
-3.40908900329452 
 20 
-27.5624986253289 
 30 
 0 
 11 
-4.91440173864651 
 21 
-27.27272605896 
 31 
 0 
 62 
 7 
 0 
LINE
 8 
TemplateLayer
 6 
CONTINUOUS
 10 
-4.91440173864651 
 20 
-27.27272605896 
 30 
 0 
 11 
-6.81817999815881 
 21 
-27.0475480672058 
 31 
 0 
 62 
 7 
 0 
LINE
 8 
TemplateLayer
 6 
CONTINUOUS
 10 
-6.81817999815881 
 20 
-27.0475480672058 
 30 
 0 
 11 
-10.2272709924839 
 21 
-26.2322000432808 
 31 
 0 
 62 
 7 
 0 
LINE
 8 
TemplateLayer
 6 
CONTINUOUS
 10 
-10.2272709924839 
 20 
-26.2322000432808 
 30 
 0 
 11 
-13.6363619852483 
 21 
-24.5473261419547 
 31 
 0 
 62 
 7 
 0 
LINE
 8 
TemplateLayer
 6 
CONTINUOUS
 10 
-13.6363619852483 
 20 
-24.5473261419547 
 30 
 0 
 11 
-14.6732935419448 
 21 
-23.8636350631714 
 31 
 0 
 62 
 7 
 0 
LINE
 8 
TemplateLayer
 6 
CONTINUOUS
 10 
-14.6732935419448 
 20 
-23.8636350631714 
 30 
 0 
 11 
-17.0454529771064 
 21 
-22.357502272291 
 31 
 0 
 62 
 7 
 0 
LINE
 8 
TemplateLayer
 6 
CONTINUOUS
 10 
-17.0454529771064 
 20 
-22.357502272291 
 30 
 0 
 11 
-19.2318305590656 
 21 
-20.4545440673828 
 31 
 0 
 62 
 7 
 0 
LINE
 8 
TemplateLayer
 6 
CONTINUOUS
 10 
-19.2318305590656 
 20 
-20.4545440673828 
 30 
 0 
 11 
-20.4545439672088 
 21 
-19.189535388554 
 31 
 0 
 62 
 7 
 0 
LINE
 8 
TemplateLayer
 6 
CONTINUOUS
 10 
-20.4545439672088 
 20 
-19.189535388554 
 30 
 0 
 11 
-22.3328308244774 
 21 
-17.0454530715942 
 31 
 0 
 62 
 7 
 0 
LINE
 8 
TemplateLayer
 6 
CONTINUOUS
 10 
-22.3328308244774 
 20 
-17.0454530715942 
 30 
 0 
 11 
-23.8636349547161 
 21 
-14.5757560992963 
 31 
 0 
 62 
 7 
 0 
LINE
 8 
TemplateLayer
 6 
CONTINUOUS
 10 
-23.8636349547161 
 20 
-14.5757560992963 
 30 
 0 
 11 
-24.502195841298 
 21 
-13.6363620758057 
 31 
 0 
 62 
 7 
 0 
LINE
 8 
TemplateLayer
 6 
CONTINUOUS
 10 
-24.502195841298 
 20 
-13.6363620758057 
 30 
 0 
 11 
-26.1225710163283 
 21 
-10.2272710800171 
 31 
 0 
 62 
 7 
 0 
LINE
 8 
TemplateLayer
 6 
CONTINUOUS
 10 
-26.1225710163283 
 20 
-10.2272710800171 
 30 
 0 
 11 
-27.1342523227634 
 21 
-6.81818008422852 
 31 
 0 
 62 
 7 
 0 
LINE
 8 
TemplateLayer
 6 
CONTINUOUS
 10 
-27.1342523227634 
 20 
-6.81818008422852 
 30 
 0 
 11 
-27.2727259350865 
 21 
-5.98572797519358 
 31 
 0 
 62 
 7 
 0 
LINE
 8 
TemplateLayer
 6 
CONTINUOUS
 10 
-27.2727259350865 
 20 
-5.98572797519358 
 30 
 0 
 11 
-27.9076567096815 
 21 
-3.40908908843994 
 31 
 0 
 62 
 7 
 0 
LINE
 8 
TemplateLayer
 6 
CONTINUOUS
 10 
-20.6196440173833 
 20 
-10.2272710800171 
 30 
 0 
 11 
-22.1263428271411 
 21 
-6.81818008422852 
 31 
 0 
 62 
 1 
 0 
LINE
 8 
TemplateLayer
 6 
CONTINUOUS
 10 
-22.1263428271411 
 20 
-6.81818008422852 
 30 
 0 
 11 
-22.8727871110966 
 21 
-3.40908908843994 
 31 
 0 
 62 
 1 
 0 
LINE
 8 
TemplateLayer
 6 
CONTINUOUS
 10 
-22.8727871110966 
 20 
-3.40908908843994 
 30 
 0 
 11 
-23.0743920482618 
 21 
 1.9073486328125E-06 
 31 
 0 
 62 
 1 
 0 
LINE
 8 
TemplateLayer
 6 
CONTINUOUS
 10 
-23.0743920482618 
 20 
 1.9073486328125E-06 
 30 
 0 
 11 
-22.9179236308032 
 21 
 3.40909290313721 
 31 
 0 
 62 
 1 
 0 
LINE
 8 
TemplateLayer
 6 
CONTINUOUS
 10 
-22.9179236308032 
 20 
 3.40909290313721 
 30 
 0 
 11 
-22.2331998521705 
 21 
 6.81818389892578 
 31 
 0 
 62 
 1 
 0 
LINE
 8 
TemplateLayer
 6 
CONTINUOUS
 10 
-22.2331998521705 
 20 
 6.81818389892578 
 30 
 0 
 11 
-20.8386060816603 
 21 
 10.2272748947144 
 31 
 0 
 62 
 1 
 0 
LINE
 8 
TemplateLayer
 6 
CONTINUOUS
 10 
-20.8386060816603 
 20 
 10.2272748947144 
 30 
 0 
 11 
-20.4545439131681 
 21 
 10.918411951787 
 31 
 0 
 62 
 1 
 0 
LINE
 8 
TemplateLayer
 6 
CONTINUOUS
 10 
-20.4545439131681 
 20 
 10.918411951787 
 30 
 0 
 11 
-19.3278378876695 
 21 
 13.6363658905029 
 31 
 0 
 62 
 1 
 0 
LINE
 8 
TemplateLayer
 6 
CONTINUOUS
 10 
-19.3278378876695 
 20 
 13.6363658905029 
 30 
 0 
 11 
-17.0454529073179 
 21 
 16.5241141885202 
 31 
 0 
 62 
 1 
 0 
LINE
 8 
TemplateLayer
 6 
CONTINUOUS
 10 
-17.0454529073179 
 20 
 16.5241141885202 
 30 
 0 
 11 
-16.605569899905 
 21 
 17.0454568862915 
 31 
 0 
 62 
 1 
 0 
LINE
 8 
TemplateLayer
 6 
CONTINUOUS
 10 
-16.605569899905 
 20 
 17.0454568862915 
 30 
 0 
 11 
-13.6363619057522 
 21 
 19.7427596061818 
 31 
 0 
 62 
 1 
 0 
LINE
 8 
TemplateLayer
 6 
CONTINUOUS
 10 
-13.6363619057522 
 20 
 19.7427596061818 
 30 
 0 
 11 
-12.4387151471952 
 21 
 20.4545478820801 
 31 
 0 
 62 
 1 
 0 
LINE
 8 
TemplateLayer
 6 
CONTINUOUS
 10 
-12.4387151471952 
 20 
 20.4545478820801 
 30 
 0 
 11 
-10.2272709060493 
 21 
 21.9235624403551 
 31 
 0 
 62 
 1 
 0 
LINE
 8 
TemplateLayer
 6 
CONTINUOUS
 10 
-10.2272709060493 
 20 
 21.9235624403551 
 30 
 0 
 11 
-6.81817990796491 
 21 
 23.2026431734002 
 31 
 0 
 62 
 1 
 0 
LINE
 8 
TemplateLayer
 6 
CONTINUOUS
 10 
-6.81817990796491 
 20 
 23.2026431734002 
 30 
 0 
 11 
-3.4090889112707 
 21 
 23.7072059614166 
 31 
 0 
 62 
 1 
 0 
LINE
 8 
TemplateLayer
 6 
CONTINUOUS
 10 
-3.4090889112707 
 20 
 23.7072059614166 
 30 
 0 
 11 
 2.08473272714921E-06 
 21 
 23.8269066538719 
 31 
 0 
 62 
 1 
 0 
LINE
 8 
TemplateLayer
 6 
CONTINUOUS
 10 
 2.08473272714921E-06 
 20 
 23.8269066538719 
 30 
 0 
 11 
 3.40909308035378 
 21 
 23.7335768219379 
 31 
 0 
 62 
 1 
 0 
LINE
 8 
TemplateLayer
 6 
CONTINUOUS
 10 
 3.40909308035378 
 20 
 23.7335768219379 
 30 
 0 
 11 
 6.8181840753104 
 21 
 23.2700611229909 
 31 
 0 
 62 
 1 
 0 
LINE
 8 
TemplateLayer
 6 
CONTINUOUS
 10 
 6.8181840753104 
 20 
 23.2700611229909 
 30 
 0 
 11 
 10.2272750689964 
 21 
 22.0986250255414 
 31 
 0 
 62 
 1 
 0 
LINE
 8 
TemplateLayer
 6 
CONTINUOUS
 10 
 10.2272750689964 
 20 
 22.0986250255414 
 30 
 0 
 11 
 12.7305924427598 
 21 
 20.4545478820801 
 31 
 0 
 62 
 1 
 0 
LINE
 8 
TemplateLayer
 6 
CONTINUOUS
 10 
 12.7305924427598 
 20 
 20.4545478820801 
 30 
 0 
 11 
 13.636366060909 
 21 
 19.9392198741441 
 31 
 0 
 62 
 1 
 0 
LINE
 8 
TemplateLayer
 6 
CONTINUOUS
 10 
 13.636366060909 
 20 
 19.9392198741441 
 30 
 0 
 11 
 16.9608803775942 
 21 
 17.0454568862915 
 31 
 0 
 62 
 1 
 0 
LINE
 8 
TemplateLayer
 6 
CONTINUOUS
 10 
 16.9608803775942 
 20 
 17.0454568862915 
 30 
 0 
 11 
 17.0454570513244 
 21 
 16.945641166668 
 31 
 0 
 62 
 1 
 0 
LINE
 8 
TemplateLayer
 6 
CONTINUOUS
 10 
 17.0454570513244 
 20 
 16.945641166668 
 30 
 0 
 11 
 19.5941441906036 
 21 
 13.6363658905029 
 31 
 0 
 62 
 1 
 0 
LINE
 8 
TemplateLayer
 6 
CONTINUOUS
 10 
 19.5941441906036 
 20 
 13.6363658905029 
 30 
 0 
 11 
 20.4545480373847 
 21 
 11.5256303580229 
 31 
 0 
 62 
 1 
 0 
LINE
 8 
TemplateLayer
 6 
CONTINUOUS
 10 
 20.4545480373847 
 20 
 11.5256303580229 
 30 
 0 
 11 
 21.1969166710629 
 21 
 10.2272748947144 
 31 
 0 
 62 
 1 
 0 
LINE
 8 
TemplateLayer
 6 
CONTINUOUS
 10 
 21.1969166710629 
 20 
 10.2272748947144 
 30 
 0 
 11 
 22.4687264091574 
 21 
 6.81818389892578 
 31 
 0 
 62 
 1 
 0 
LINE
 8 
TemplateLayer
 6 
CONTINUOUS
 10 
 22.4687264091574 
 20 
 6.81818389892578 
 30 
 0 
 11 
 23.1544002145013 
 21 
 3.40909290313721 
 31 
 0 
 62 
 1 
 0 
LINE
 8 
TemplateLayer
 6 
CONTINUOUS
 10 
 23.1544002145013 
 20 
 3.40909290313721 
 30 
 0 
 11 
 23.3180819383407 
 21 
 1.9073486328125E-06 
 31 
 0 
 62 
 1 
 0 
LINE
 8 
TemplateLayer
 6 
CONTINUOUS
 10 
 23.3180819383407 
 20 
 1.9073486328125E-06 
 30 
 0 
 11 
 23.1539591539276 
 21 
-3.40908908843994 
 31 
 0 
 62 
 1 
 0 
LINE
 8 
TemplateLayer
 6 
CONTINUOUS
 10 
 23.1539591539276 
 20 
-3.40908908843994 
 30 
 0 
 11 
 22.466317055546 
 21 
-6.81818008422852 
 31 
 0 
 62 
 1 
 0 
LINE
 8 
TemplateLayer
 6 
CONTINUOUS
 10 
 22.466317055546 
 20 
-6.81818008422852 
 30 
 0 
 11 
 21.138795519335 
 21 
-10.2272710800171 
 31 
 0 
 62 
 1 
 0 
LINE
 8 
TemplateLayer
 6 
CONTINUOUS
 10 
 21.138795519335 
 20 
-10.2272710800171 
 30 
 0 
 11 
 20.4545479961816 
 21 
-11.4300610691643 
 31 
 0 
 62 
 1 
 0 
LINE
 8 
TemplateLayer
 6 
CONTINUOUS
 10 
 20.4545479961816 
 20 
-11.4300610691643 
 30 
 0 
 11 
 19.5092723420533 
 21 
-13.6363620758057 
 31 
 0 
 62 
 1 
 0 
LINE
 8 
TemplateLayer
 6 
CONTINUOUS
 10 
 19.5092723420533 
 20 
-13.6363620758057 
 30 
 0 
 11 
 17.0454569907825 
 21 
-16.7844138113122 
 31 
 0 
 62 
 1 
 0 
LINE
 8 
TemplateLayer
 6 
CONTINUOUS
 10 
 17.0454569907825 
 20 
-16.7844138113122 
 30 
 0 
 11 
 16.8181839539813 
 21 
-17.0454530715942 
 31 
 0 
 62 
 1 
 0 
LINE
 8 
TemplateLayer
 6 
CONTINUOUS
 10 
 16.8181839539813 
 20 
-17.0454530715942 
 30 
 0 
 11 
 13.6363659895732 
 21 
-19.8044929919599 
 31 
 0 
 62 
 1 
 0 
LINE
 8 
TemplateLayer
 6 
CONTINUOUS
 10 
 13.6363659895732 
 20 
-19.8044929919599 
 30 
 0 
 11 
 12.4808304789855 
 21 
-20.4545440673828 
 31 
 0 
 62 
 1 
 0 
LINE
 8 
TemplateLayer
 6 
CONTINUOUS
 10 
 12.4808304789855 
 20 
-20.4545440673828 
 30 
 0 
 11 
 10.2272749899858 
 21 
-21.920929533886 
 31 
 0 
 62 
 1 
 0 
LINE
 8 
TemplateLayer
 6 
CONTINUOUS
 10 
 10.2272749899858 
 20 
-21.920929533886 
 30 
 0 
 11 
 6.81818399208384 
 21 
-23.0983774442317 
 31 
 0 
 62 
 1 
 0 
LINE
 8 
TemplateLayer
 6 
CONTINUOUS
 10 
 6.81818399208384 
 20 
-23.0983774442317 
 30 
 0 
 11 
 3.4090929954935 
 21 
-23.5450645910296 
 31 
 0 
 62 
 1 
 0 
LINE
 8 
TemplateLayer
 6 
CONTINUOUS
 10 
 3.4090929954935 
 20 
-23.5450645910296 
 30 
 0 
 11 
 1.99961541170329E-06 
 21 
-23.5949381263414 
 31 
 0 
 62 
 1 
 0 
LINE
 8 
TemplateLayer
 6 
CONTINUOUS
 10 
 1.99961541170329E-06 
 20 
-23.5949381263414 
 30 
 0 
 11 
-3.40908899590418 
 21 
-23.445081050825 
 31 
 0 
 62 
 1 
 0 
LINE
 8 
TemplateLayer
 6 
CONTINUOUS
 10 
-3.40908899590418 
 20 
-23.445081050825 
 30 
 0 
 11 
-6.81817999062825 
 21 
-22.8520045330376 
 31 
 0 
 62 
 1 
 0 
LINE
 8 
TemplateLayer
 6 
CONTINUOUS
 10 
-6.81817999062825 
 20 
-22.8520045330376 
 30 
 0 
 11 
-10.2272709838638 
 21 
-21.4296332728788 
 31 
 0 
 62 
 1 
 0 
LINE
 8 
TemplateLayer
 6 
CONTINUOUS
 10 
-10.2272709838638 
 20 
-21.4296332728788 
 30 
 0 
 11 
-11.7437085726913 
 21 
-20.4545440673828 
 31 
 0 
 62 
 1 
 0 
LINE
 8 
TemplateLayer
 6 
CONTINUOUS
 10 
-11.7437085726913 
 20 
-20.4545440673828 
 30 
 0 
 11 
-13.6363619759875 
 21 
-19.3877759169335 
 31 
 0 
 62 
 1 
 0 
LINE
 8 
TemplateLayer
 6 
CONTINUOUS
 10 
-13.6363619759875 
 20 
-19.3877759169335 
 30 
 0 
 11 
-16.2940464171008 
 21 
-17.0454530715942 
 31 
 0 
 62 
 1 
 0 
LINE
 8 
TemplateLayer
 6 
CONTINUOUS
 10 
-16.2940464171008 
 20 
-17.0454530715942 
 30 
 0 
 11 
-17.0454529660345 
 21 
-16.1889612369918 
 31 
 0 
 62 
 1 
 0 
LINE
 8 
TemplateLayer
 6 
CONTINUOUS
 10 
-17.0454529660345 
 20 
-16.1889612369918 
 30 
 0 
 11 
-19.0997359290896 
 21 
-13.6363620758057 
 31 
 0 
 62 
 1 
 0 
LINE
 8 
TemplateLayer
 6 
CONTINUOUS
 10 
-19.0997359290896 
 20 
-13.6363620758057 
 30 
 0 
 11 
-20.4545439516417 
 21 
-10.5165748580853 
 31 
 0 
 62 
 1 
 0 
LINE
 8 
TemplateLayer
 6 
CONTINUOUS
 10 
-20.4545439516417 
 20 
-10.5165748580853 
 30 
 0 
 11 
-20.6196440173833 
 21 
-10.2272710800171 
 31 
 0 
 62 
 1 
 0 
LINE
 8 
TemplateLayer
 6 
CONTINUOUS
 10 
-17.8983182341766 
 20 
-3.40908908843994 
 30 
 0 
 11 
-18.147198762155 
 21 
 1.9073486328125E-06 
 31 
 0 
 62 
 3 
 0 
LINE
 8 
TemplateLayer
 6 
CONTINUOUS
 10 
-18.147198762155 
 20 
 1.9073486328125E-06 
 30 
 0 
 11 
-17.9660712555728 
 21 
 3.40909290313721 
 31 
 0 
 62 
 3 
 0 
LINE
 8 
TemplateLayer
 6 
CONTINUOUS
 10 
-17.9660712555728 
 20 
 3.40909290313721 
 30 
 0 
 11 
-17.0454529261948 
 21 
 6.0071237629613 
 31 
 0 
 62 
 3 
 0 
LINE
 8 
TemplateLayer
 6 
CONTINUOUS
 10 
-17.0454529261948 
 20 
 6.0071237629613 
 30 
 0 
 11 
-16.9034555694821 
 21 
 6.81818389892578 
 31 
 0 
 62 
 3 
 0 
LINE
 8 
TemplateLayer
 6 
CONTINUOUS
 10 
-16.9034555694821 
 20 
 6.81818389892578 
 30 
 0 
 11 
-15.8351587767075 
 21 
 10.2272748947144 
 31 
 0 
 62 
 3 
 0 
LINE
 8 
TemplateLayer
 6 
CONTINUOUS
 10 
-15.8351587767075 
 20 
 10.2272748947144 
 30 
 0 
 11 
-13.6363619172842 
 21 
 13.3178974356785 
 31 
 0 
 62 
 3 
 0 
LINE
 8 
TemplateLayer
 6 
CONTINUOUS
 10 
-13.6363619172842 
 20 
 13.3178974356785 
 30 
 0 
 11 
-13.3989377406735 
 21 
 13.6363658905029 
 31 
 0 
 62 
 3 
 0 
LINE
 8 
TemplateLayer
 6 
CONTINUOUS
 10 
-13.3989377406735 
 20 
 13.6363658905029 
 30 
 0 
 11 
-10.2272709158178 
 21 
 16.4811688719176 
 31 
 0 
 62 
 3 
 0 
LINE
 8 
TemplateLayer
 6 
CONTINUOUS
 10 
-10.2272709158178 
 20 
 16.4811688719176 
 30 
 0 
 11 
-9.17626023864437 
 21 
 17.0454568862915 
 31 
 0 
 62 
 3 
 0 
LINE
 8 
TemplateLayer
 6 
CONTINUOUS
 10 
-9.17626023864437 
 20 
 17.0454568862915 
 30 
 0 
 11 
-6.81817991638306 
 21 
 18.5125947395622 
 31 
 0 
 62 
 3 
 0 
LINE
 8 
TemplateLayer
 6 
CONTINUOUS
 10 
-6.81817991638306 
 20 
 18.5125947395622 
 30 
 0 
 11 
-3.40908891888041 
 21 
 19.4675653146796 
 31 
 0 
 62 
 3 
 0 
LINE
 8 
TemplateLayer
 6 
CONTINUOUS
 10 
-3.40908891888041 
 20 
 19.4675653146796 
 30 
 0 
 11 
 2.07732637342445E-06 
 21 
 19.700566970567 
 31 
 0 
 62 
 3 
 0 
LINE
 8 
TemplateLayer
 6 
CONTINUOUS
 10 
 2.07732637342445E-06 
 20 
 19.700566970567 
 30 
 0 
 11 
 3.4090930729003 
 21 
 19.5809773538438 
 31 
 0 
 62 
 3 
 0 
LINE
 8 
TemplateLayer
 6 
CONTINUOUS
 10 
 3.4090930729003 
 20 
 19.5809773538438 
 30 
 0 
 11 
 6.81818406730054 
 21 
 18.8074904130694 
 31 
 0 
 62 
 3 
 0 
LINE
 8 
TemplateLayer
 6 
CONTINUOUS
 10 
 6.81818406730054 
 20 
 18.8074904130694 
 30 
 0 
 11 
 9.67170811459547 
 21 
 17.0454568862915 
 31 
 0 
 62 
 3 
 0 
LINE
 8 
TemplateLayer
 6 
CONTINUOUS
 10 
 9.67170811459547 
 20 
 17.0454568862915 
 30 
 0 
 11 
 10.2272750593602 
 21 
 16.7299912480393 
 31 
 0 
 62 
 3 
 0 
LINE
 8 
TemplateLayer
 6 
CONTINUOUS
 10 
 10.2272750593602 
 20 
 16.7299912480393 
 30 
 0 
 11 
 13.6297483198992 
 21 
 13.6363658905029 
 31 
 0 
 62 
 3 
 0 
LINE
 8 
TemplateLayer
 6 
CONTINUOUS
 10 
 13.6297483198992 
 20 
 13.6363658905029 
 30 
 0 
 11 
 13.63636604958 
 21 
 13.6274047448372 
 31 
 0 
 62 
 3 
 0 
LINE
 8 
TemplateLayer
 6 
CONTINUOUS
 10 
 13.63636604958 
 20 
 13.6274047448372 
 30 
 0 
 11 
 16.0606086381785 
 21 
 10.2272748947144 
 31 
 0 
 62 
 3 
 0 
LINE
 8 
TemplateLayer
 6 
CONTINUOUS
 10 
 16.0606086381785 
 20 
 10.2272748947144 
 30 
 0 
 11 
 17.0454570335044 
 21 
 7.01749318784563 
 31 
 0 
 62 
 3 
 0 
LINE
 8 
TemplateLayer
 6 
CONTINUOUS
 10 
 17.0454570335044 
 20 
 7.01749318784563 
 30 
 0 
 11 
 17.1397238163734 
 21 
 6.81818389892578 
 31 
 0 
 62 
 3 
 0 
LINE
 8 
TemplateLayer
 6 
CONTINUOUS
 10 
 17.1397238163734 
 20 
 6.81818389892578 
 30 
 0 
 11 
 18.346140061943 
 21 
 3.40909290313721 
 31 
 0 
 62 
 3 
 0 
LINE
 8 
TemplateLayer
 6 
CONTINUOUS
 10 
 18.346140061943 
 20 
 3.40909290313721 
 30 
 0 
 11 
 18.533617084089 
 21 
 1.9073486328125E-06 
 31 
 0 
 62 
 3 
 0 
LINE
 8 
TemplateLayer
 6 
CONTINUOUS
 10 
 18.533617084089 
 20 
 1.9073486328125E-06 
 30 
 0 
 11 
 18.3447186364058 
 21 
-3.40908908843994 
 31 
 0 
 62 
 3 
 0 
LINE
 8 
TemplateLayer
 6 
CONTINUOUS
 10 
 18.3447186364058 
 20 
-3.40908908843994 
 30 
 0 
 11 
 17.1493153621662 
 21 
-6.81818008422852 
 31 
 0 
 62 
 3 
 0 
LINE
 8 
TemplateLayer
 6 
CONTINUOUS
 10 
 17.1493153621662 
 20 
-6.81818008422852 
 30 
 0 
 11 
 17.0454570082871 
 21 
-7.0319699031557 
 31 
 0 
 62 
 3 
 0 
LINE
 8 
TemplateLayer
 6 
CONTINUOUS
 10 
 17.0454570082871 
 20 
-7.0319699031557 
 30 
 0 
 11 
 16.0589435454785 
 21 
-10.2272710800171 
 31 
 0 
 62 
 3 
 0 
LINE
 8 
TemplateLayer
 6 
CONTINUOUS
 10 
 16.0589435454785 
 20 
-10.2272710800171 
 30 
 0 
 11 
 13.6363660008109 
 21 
-13.5435643604225 
 31 
 0 
 62 
 3 
 0 
LINE
 8 
TemplateLayer
 6 
CONTINUOUS
 10 
 13.6363660008109 
 20 
-13.5435643604225 
 30 
 0 
 11 
 13.5644561382181 
 21 
-13.6363620758057 
 31 
 0 
 62 
 3 
 0 
LINE
 8 
TemplateLayer
 6 
CONTINUOUS
 10 
 13.5644561382181 
 20 
-13.6363620758057 
 30 
 0 
 11 
 10.2272749995217 
 21 
-16.6081524709816 
 31 
 0 
 62 
 3 
 0 
LINE
 8 
TemplateLayer
 6 
CONTINUOUS
 10 
 10.2272749995217 
 20 
-16.6081524709816 
 30 
 0 
 11 
 9.38873554676182 
 21 
-17.0454530715942 
 31 
 0 
 62 
 3 
 0 
LINE
 8 
TemplateLayer
 6 
CONTINUOUS
 10 
 9.38873554676182 
 20 
-17.0454530715942 
 30 
 0 
 11 
 6.81818400015232 
 21 
-18.6031393852778 
 31 
 0 
 62 
 3 
 0 
LINE
 8 
TemplateLayer
 6 
CONTINUOUS
 10 
 6.81818400015232 
 20 
-18.6031393852778 
 30 
 0 
 11 
 3.40909300295659 
 21 
-19.3871198046862 
 31 
 0 
 62 
 3 
 0 
LINE
 8 
TemplateLayer
 6 
CONTINUOUS
 10 
 3.40909300295659 
 20 
-19.3871198046862 
 30 
 0 
 11 
 2.00701973674527E-06 
 21 
-19.4697286883499 
 31 
 0 
 62 
 3 
 0 
LINE
 8 
TemplateLayer
 6 
CONTINUOUS
 10 
 2.00701973674527E-06 
 20 
-19.4697286883499 
 30 
 0 
 11 
-3.40908898841015 
 21 
-19.2698908218782 
 31 
 0 
 62 
 3 
 0 
LINE
 8 
TemplateLayer
 6 
CONTINUOUS
 10 
-3.40908898841015 
 20 
-19.2698908218782 
 30 
 0 
 11 
-6.81817998247444 
 21 
-18.3092301954898 
 31 
 0 
 62 
 3 
 0 
LINE
 8 
TemplateLayer
 6 
CONTINUOUS
 10 
-6.81817998247444 
 20 
-18.3092301954898 
 30 
 0 
 11 
-8.83715614355291 
 21 
-17.0454530715942 
 31 
 0 
 62 
 3 
 0 
LINE
 8 
TemplateLayer
 6 
CONTINUOUS
 10 
-8.83715614355291 
 20 
-17.0454530715942 
 30 
 0 
 11 
-10.227270974653 
 21 
-16.297962509294 
 31 
 0 
 62 
 3 
 0 
LINE
 8 
TemplateLayer
 6 
CONTINUOUS
 10 
-10.227270974653 
 20 
-16.297962509294 
 30 
 0 
 11 
-13.1691609475045 
 21 
-13.6363620758057 
 31 
 0 
 62 
 3 
 0 
LINE
 8 
TemplateLayer
 6 
CONTINUOUS
 10 
-13.1691609475045 
 20 
-13.6363620758057 
 30 
 0 
 11 
-13.6363619645485 
 21 
-13.014742642134 
 31 
 0 
 62 
 3 
 0 
LINE
 8 
TemplateLayer
 6 
CONTINUOUS
 10 
-13.6363619645485 
 20 
-13.014742642134 
 30 
 0 
 11 
-15.7004221966182 
 21 
-10.2272710800171 
 31 
 0 
 62 
 3 
 0 
LINE
 8 
TemplateLayer
 6 
CONTINUOUS
 10 
-15.7004221966182 
 20 
-10.2272710800171 
 30 
 0 
 11 
-16.8462396048546 
 21 
-6.81818008422852 
 31 
 0 
 62 
 3 
 0 
LINE
 8 
TemplateLayer
 6 
CONTINUOUS
 10 
-16.8462396048546 
 20 
-6.81818008422852 
 30 
 0 
 11 
-17.045452947264 
 21 
-5.7312707868691 
 31 
 0 
 62 
 3 
 0 
LINE
 8 
TemplateLayer
 6 
CONTINUOUS
 10 
-17.045452947264 
 20 
-5.7312707868691 
 30 
 0 
 11 
-17.8983182341766 
 21 
-3.40908908843994 
 31 
 0 
 62 
 3 
 0 
LINE
 8 
TemplateLayer
 6 
CONTINUOUS
 10 
-13.8905510662692 
 20 
-6.81818008422852 
 30 
 0 
 11 
-15.2555965805904 
 21 
-3.40908908843994 
 31 
 0 
 62 
 5 
 0 
LINE
 8 
TemplateLayer
 6 
CONTINUOUS
 10 
-15.2555965805904 
 20 
-3.40908908843994 
 30 
 0 
 11 
-15.573702921796 
 21 
 1.9073486328125E-06 
 31 
 0 
 62 
 5 
 0 
LINE
 8 
TemplateLayer
 6 
CONTINUOUS
 10 
-15.573702921796 
 20 
 1.9073486328125E-06 
 30 
 0 
 11 
-15.3183551563343 
 21 
 3.40909290313721 
 31 
 0 
 62 
 5 
 0 
LINE
 8 
TemplateLayer
 6 
CONTINUOUS
 10 
-15.3183551563343 
 20 
 3.40909290313721 
 30 
 0 
 11 
-14.0173303675305 
 21 
 6.81818389892578 
 31 
 0 
 62 
 5 
 0 
LINE
 8 
TemplateLayer
 6 
CONTINUOUS
 10 
-14.0173303675305 
 20 
 6.81818389892578 
 30 
 0 
 11 
-13.6363619277485 
 21 
 7.48782668670496 
 31 
 0 
 62 
 5 
 0 
LINE
 8 
TemplateLayer
 6 
CONTINUOUS
 10 
-13.6363619277485 
 20 
 7.48782668670496 
 30 
 0 
 11 
-12.3062254170821 
 21 
 10.2272748947144 
 31 
 0 
 62 
 5 
 0 
LINE
 8 
TemplateLayer
 6 
CONTINUOUS
 10 
-12.3062254170821 
 20 
 10.2272748947144 
 30 
 0 
 11 
-10.2272709227776 
 21 
 12.6036153491559 
 31 
 0 
 62 
 5 
 0 
LINE
 8 
TemplateLayer
 6 
CONTINUOUS
 10 
-10.2272709227776 
 20 
 12.6036153491559 
 30 
 0 
 11 
-9.12438283880763 
 21 
 13.6363658905029 
 31 
 0 
 62 
 5 
 0 
LINE
 8 
TemplateLayer
 6 
CONTINUOUS
 10 
-9.12438283880763 
 20 
 13.6363658905029 
 30 
 0 
 11 
-6.81817992197538 
 21 
 15.3969185322221 
 31 
 0 
 62 
 5 
 0 
LINE
 8 
TemplateLayer
 6 
CONTINUOUS
 10 
-6.81817992197538 
 20 
 15.3969185322221 
 30 
 0 
 11 
-3.4090889242356 
 21 
 16.4840030331369 
 31 
 0 
 62 
 5 
 0 
LINE
 8 
TemplateLayer
 6 
CONTINUOUS
 10 
-3.4090889242356 
 20 
 16.4840030331369 
 30 
 0 
 11 
 2.07194221404222E-06 
 21 
 16.700862748146 
 31 
 0 
 62 
 5 
 0 
LINE
 8 
TemplateLayer
 6 
CONTINUOUS
 10 
 2.07194221404222E-06 
 20 
 16.700862748146 
 30 
 0 
 11 
 3.40909306755466 
 21 
 16.602733203894 
 31 
 0 
 62 
 5 
 0 
LINE
 8 
TemplateLayer
 6 
CONTINUOUS
 10 
 3.40909306755466 
 20 
 16.602733203894 
 30 
 0 
 11 
 6.81818406173336 
 21 
 15.705817806039 
 31 
 0 
 62 
 5 
 0 
LINE
 8 
TemplateLayer
 6 
CONTINUOUS
 10 
 6.81818406173336 
 20 
 15.705817806039 
 30 
 0 
 11 
 9.45854228365548 
 21 
 13.6363658905029 
 31 
 0 
 62 
 5 
 0 
LINE
 8 
TemplateLayer
 6 
CONTINUOUS
 10 
 9.45854228365548 
 20 
 13.6363658905029 
 30 
 0 
 11 
 10.2272750524876 
 21 
 12.9010100056746 
 31 
 0 
 62 
 5 
 0 
LINE
 8 
TemplateLayer
 6 
CONTINUOUS
 10 
 10.2272750524876 
 20 
 12.9010100056746 
 30 
 0 
 11 
 12.5620303905368 
 21 
 10.2272748947144 
 31 
 0 
 62 
 5 
 0 
LINE
 8 
TemplateLayer
 6 
CONTINUOUS
 10 
 12.5620303905368 
 20 
 10.2272748947144 
 30 
 0 
 11 
 13.6363660398173 
 21 
 8.18825770683878 
 31 
 0 
 62 
 5 
 0 
LINE
 8 
TemplateLayer
 6 
CONTINUOUS
 10 
 13.6363660398173 
 20 
 8.18825770683878 
 30 
 0 
 11 
 14.4613996708758 
 21 
 6.81818389892578 
 31 
 0 
 62 
 5 
 0 
LINE
 8 
TemplateLayer
 6 
CONTINUOUS
 10 
 14.4613996708758 
 20 
 6.81818389892578 
 30 
 0 
 11 
 15.6164357231517 
 21 
 3.40909290313721 
 31 
 0 
 62 
 5 
 0 
LINE
 8 
TemplateLayer
 6 
CONTINUOUS
 10 
 15.6164357231517 
 20 
 3.40909290313721 
 30 
 0 
 11 
 15.8768709371903 
 21 
 1.9073486328125E-06 
 31 
 0 
 62 
 5 
 0 
LINE
 8 
TemplateLayer
 6 
CONTINUOUS
 10 
 15.8768709371903 
 20 
 1.9073486328125E-06 
 30 
 0 
 11 
 15.6195083416257 
 21 
-3.40908908843994 
 31 
 0 
 62 
 5 
 0 
LINE
 8 
TemplateLayer
 6 
CONTINUOUS
 10 
 15.6195083416257 
 20 
-3.40908908843994 
 30 
 0 
 11 
 14.4587067806976 
 21 
-6.81818008422852 
 31 
 0 
 62 
 5 
 0 
LINE
 8 
TemplateLayer
 6 
CONTINUOUS
 10 
 14.4587067806976 
 20 
-6.81818008422852 
 30 
 0 
 11 
 13.6363660103933 
 21 
-8.20483893608005 
 31 
 0 
 62 
 5 
 0 
LINE
 8 
TemplateLayer
 6 
CONTINUOUS
 10 
 13.6363660103933 
 20 
-8.20483893608005 
 30 
 0 
 11 
 12.5631249737734 
 21 
-10.2272710800171 
 31 
 0 
 62 
 5 
 0 
LINE
 8 
TemplateLayer
 6 
CONTINUOUS
 10 
 12.5631249737734 
 20 
-10.2272710800171 
 30 
 0 
 11 
 10.2272750062545 
 21 
-12.857095905508 
 31 
 0 
 62 
 5 
 0 
LINE
 8 
TemplateLayer
 6 
CONTINUOUS
 10 
 10.2272750062545 
 20 
-12.857095905508 
 30 
 0 
 11 
 9.3954726430195 
 21 
-13.6363620758057 
 31 
 0 
 62 
 5 
 0 
LINE
 8 
TemplateLayer
 6 
CONTINUOUS
 10 
 9.3954726430195 
 20 
-13.6363620758057 
 30 
 0 
 11 
 6.81818400556448 
 21 
-15.5878347667691 
 31 
 0 
 62 
 5 
 0 
LINE
 8 
TemplateLayer
 6 
CONTINUOUS
 10 
 6.81818400556448 
 20 
-15.5878347667691 
 30 
 0 
 11 
 3.40909300817902 
 21 
-16.4775191108904 
 31 
 0 
 62 
 5 
 0 
LINE
 8 
TemplateLayer
 6 
CONTINUOUS
 10 
 3.40909300817902 
 20 
-16.4775191108904 
 30 
 0 
 11 
 2.01232742180757E-06 
 21 
-16.5126309967452 
 31 
 0 
 62 
 5 
 0 
LINE
 8 
TemplateLayer
 6 
CONTINUOUS
 10 
 2.01232742180757E-06 
 20 
-16.5126309967452 
 30 
 0 
 11 
-3.40908898324648 
 21 
-16.3930304255515 
 31 
 0 
 62 
 5 
 0 
LINE
 8 
TemplateLayer
 6 
CONTINUOUS
 10 
-3.40908898324648 
 20 
-16.3930304255515 
 30 
 0 
 11 
-6.81817997715427 
 21 
-15.3451806496622 
 31 
 0 
 62 
 5 
 0 
LINE
 8 
TemplateLayer
 6 
CONTINUOUS
 10 
-6.81817997715427 
 20 
-15.3451806496622 
 30 
 0 
 11 
-9.04805876797787 
 21 
-13.6363620758057 
 31 
 0 
 62 
 5 
 0 
LINE
 8 
TemplateLayer
 6 
CONTINUOUS
 10 
-9.04805876797787 
 20 
-13.6363620758057 
 30 
 0 
 11 
-10.2272709679207 
 21 
-12.547166034982 
 31 
 0 
 62 
 5 
 0 
LINE
 8 
TemplateLayer
 6 
CONTINUOUS
 10 
-10.2272709679207 
 20 
-12.547166034982 
 30 
 0 
 11 
-12.2677661055515 
 21 
-10.2272710800171 
 31 
 0 
 62 
 5 
 0 
LINE
 8 
TemplateLayer
 6 
CONTINUOUS
 10 
-12.2677661055515 
 20 
-10.2272710800171 
 30 
 0 
 11 
-13.6363619542237 
 21 
-7.26239481668796 
 31 
 0 
 62 
 5 
 0 
LINE
 8 
TemplateLayer
 6 
CONTINUOUS
 10 
-13.6363619542237 
 20 
-7.26239481668796 
 30 
 0 
 11 
-13.8905510662692 
 21 
-6.81818008422852 
 31 
 0 
 62 
 5 
 0 
LINE
 8 
TemplateLayer
 6 
CONTINUOUS
 10 
 2.06689314555947E-06 
 20 
 13.8878494302783 
 30 
 0 
 11 
 3.29840760420382 
 21 
 13.6363658905029 
 31 
 0 
 62 
 6 
 0 
LINE
 8 
TemplateLayer
 6 
CONTINUOUS
 10 
 3.29840760420382 
 20 
 13.6363658905029 
 30 
 0 
 11 
 3.40909306222273 
 21 
 13.632132367396 
 31 
 0 
 62 
 6 
 0 
LINE
 8 
TemplateLayer
 6 
CONTINUOUS
 10 
 3.40909306222273 
 20 
 13.632132367396 
 30 
 0 
 11 
 6.81818405597465 
 21 
 12.4974410459662 
 31 
 0 
 62 
 6 
 0 
LINE
 8 
TemplateLayer
 6 
CONTINUOUS
 10 
 6.81818405597465 
 20 
 12.4974410459662 
 30 
 0 
 11 
 9.13033797281019 
 21 
 10.2272748947144 
 31 
 0 
 62 
 6 
 0 
LINE
 8 
TemplateLayer
 6 
CONTINUOUS
 10 
 9.13033797281019 
 20 
 10.2272748947144 
 30 
 0 
 11 
 10.2272750450905 
 21 
 8.77984959883351 
 31 
 0 
 62 
 6 
 0 
LINE
 8 
TemplateLayer
 6 
CONTINUOUS
 10 
 10.2272750450905 
 20 
 8.77984959883351 
 30 
 0 
 11 
 11.7309932112378 
 21 
 6.81818389892578 
 31 
 0 
 62 
 6 
 0 
LINE
 8 
TemplateLayer
 6 
CONTINUOUS
 10 
 11.7309932112378 
 20 
 6.81818389892578 
 30 
 0 
 11 
 12.8883049245428 
 21 
 3.40909290313721 
 31 
 0 
 62 
 6 
 0 
LINE
 8 
TemplateLayer
 6 
CONTINUOUS
 10 
 12.8883049245428 
 20 
 3.40909290313721 
 30 
 0 
 11 
 13.1808838430847 
 21 
 1.9073486328125E-06 
 31 
 0 
 62 
 6 
 0 
LINE
 8 
TemplateLayer
 6 
CONTINUOUS
 10 
 13.1808838430847 
 20 
 1.9073486328125E-06 
 30 
 0 
 11 
 12.8814115609989 
 21 
-3.40908908843994 
 31 
 0 
 62 
 6 
 0 
LINE
 8 
TemplateLayer
 6 
CONTINUOUS
 10 
 12.8814115609989 
 20 
-3.40908908843994 
 30 
 0 
 11 
 11.6681106158759 
 21 
-6.81818008422852 
 31 
 0 
 62 
 6 
 0 
LINE
 8 
TemplateLayer
 6 
CONTINUOUS
 10 
 11.6681106158759 
 20 
-6.81818008422852 
 30 
 0 
 11 
 10.2272750137215 
 21 
-8.69693815518679 
 31 
 0 
 62 
 6 
 0 
LINE
 8 
TemplateLayer
 6 
CONTINUOUS
 10 
 10.2272750137215 
 20 
-8.69693815518679 
 30 
 0 
 11 
 9.06510594206254 
 21 
-10.2272710800171 
 31 
 0 
 62 
 6 
 0 
LINE
 8 
TemplateLayer
 6 
CONTINUOUS
 10 
 9.06510594206254 
 20 
-10.2272710800171 
 30 
 0 
 11 
 6.81818401126143 
 21 
-12.4138660533355 
 31 
 0 
 62 
 6 
 0 
LINE
 8 
TemplateLayer
 6 
CONTINUOUS
 10 
 6.81818401126143 
 20 
-12.4138660533355 
 30 
 0 
 11 
 3.40909301339796 
 21 
-13.5698620303715 
 31 
 0 
 62 
 6 
 0 
LINE
 8 
TemplateLayer
 6 
CONTINUOUS
 10 
 3.40909301339796 
 20 
-13.5698620303715 
 30 
 0 
 11 
 2.01761399661049E-06 
 21 
-13.5672945682133 
 31 
 0 
 62 
 6 
 0 
LINE
 8 
TemplateLayer
 6 
CONTINUOUS
 10 
 2.01761399661049E-06 
 20 
-13.5672945682133 
 30 
 0 
 11 
-3.4090889780648 
 21 
-13.50613212907 
 31 
 0 
 62 
 6 
 0 
LINE
 8 
TemplateLayer
 6 
CONTINUOUS
 10 
-3.4090889780648 
 20 
-13.50613212907 
 30 
 0 
 11 
-6.81817997154005 
 21 
-12.2172996556812 
 31 
 0 
 62 
 6 
 0 
LINE
 8 
TemplateLayer
 6 
CONTINUOUS
 10 
-6.81817997154005 
 20 
-12.2172996556812 
 30 
 0 
 11 
-8.87446457560596 
 21 
-10.2272710800171 
 31 
 0 
 62 
 6 
 0 
LINE
 8 
TemplateLayer
 6 
CONTINUOUS
 10 
-8.87446457560596 
 20 
-10.2272710800171 
 30 
 0 
 11 
-10.2272709602491 
 21 
-8.27302152493388 
 31 
 0 
 62 
 6 
 0 
LINE
 8 
TemplateLayer
 6 
CONTINUOUS
 10 
-10.2272709602491 
 20 
-8.27302152493388 
 30 
 0 
 11 
-11.2771890975506 
 21 
-6.81818008422852 
 31 
 0 
 62 
 6 
 0 
LINE
 8 
TemplateLayer
 6 
CONTINUOUS
 10 
-11.2771890975506 
 20 
-6.81818008422852 
 30 
 0 
 11 
-12.6326668707128 
 21 
-3.40908908843994 
 31 
 0 
 62 
 6 
 0 
LINE
 8 
TemplateLayer
 6 
CONTINUOUS
 10 
-12.6326668707128 
 20 
-3.40908908843994 
 30 
 0 
 11 
-12.9563367285448 
 21 
 1.9073486328125E-06 
 31 
 0 
 62 
 6 
 0 
LINE
 8 
TemplateLayer
 6 
CONTINUOUS
 10 
-12.9563367285448 
 20 
 1.9073486328125E-06 
 30 
 0 
 11 
-12.6480690537036 
 21 
 3.40909290313721 
 31 
 0 
 62 
 6 
 0 
LINE
 8 
TemplateLayer
 6 
CONTINUOUS
 10 
-12.6480690537036 
 20 
 3.40909290313721 
 30 
 0 
 11 
-11.3096603904787 
 21 
 6.81818389892578 
 31 
 0 
 62 
 6 
 0 
LINE
 8 
TemplateLayer
 6 
CONTINUOUS
 10 
-11.3096603904787 
 20 
 6.81818389892578 
 30 
 0 
 11 
-10.227270930536 
 21 
 8.2811469317987 
 31 
 0 
 62 
 6 
 0 
LINE
 8 
TemplateLayer
 6 
CONTINUOUS
 10 
-10.227270930536 
 20 
 8.2811469317987 
 30 
 0 
 11 
-8.78761683532594 
 21 
 10.2272748947144 
 31 
 0 
 62 
 6 
 0 
LINE
 8 
TemplateLayer
 6 
CONTINUOUS
 10 
-8.78761683532594 
 20 
 10.2272748947144 
 30 
 0 
 11 
-6.81817992781613 
 21 
 12.1428292938581 
 31 
 0 
 62 
 6 
 0 
LINE
 8 
TemplateLayer
 6 
CONTINUOUS
 10 
-6.81817992781613 
 20 
 12.1428292938581 
 30 
 0 
 11 
-3.40908892954653 
 21 
 13.5250995488686 
 31 
 0 
 62 
 6 
 0 
LINE
 8 
TemplateLayer
 6 
CONTINUOUS
 10 
-3.40908892954653 
 20 
 13.5250995488686 
 30 
 0 
 11 
-1.84375410014234 
 21 
 13.6363658905029 
 31 
 0 
 62 
 6 
 0 
LINE
 8 
TemplateLayer
 6 
CONTINUOUS
 10 
-1.84375410014234 
 20 
 13.6363658905029 
 30 
 0 
 11 
 2.06689314555947E-06 
 21 
 13.8878494302783 
 31 
 0 
 62 
 6 
 0 
LINE
 8 
TemplateLayer
 6 
CONTINUOUS
 10 
-7.56735116160998 
 20 
-6.81818008422852 
 30 
 0 
 11 
-9.34466853803672 
 21 
-3.40908908843994 
 31 
 0 
 62 
 214 
 0 
LINE
 8 
TemplateLayer
 6 
CONTINUOUS
 10 
-9.34466853803672 
 20 
-3.40908908843994 
 30 
 0 
 11 
-9.69608939758091 
 21 
 1.9073486328125E-06 
 31 
 0 
 62 
 214 
 0 
LINE
 8 
TemplateLayer
 6 
CONTINUOUS
 10 
-9.69608939758091 
 20 
 1.9073486328125E-06 
 30 
 0 
 11 
-9.32365293873995 
 21 
 3.40909290313721 
 31 
 0 
 62 
 214 
 0 
LINE
 8 
TemplateLayer
 6 
CONTINUOUS
 10 
-9.32365293873995 
 20 
 3.40909290313721 
 30 
 0 
 11 
-7.57221404397533 
 21 
 6.81818389892578 
 31 
 0 
 62 
 214 
 0 
LINE
 8 
TemplateLayer
 6 
CONTINUOUS
 10 
-7.57221404397533 
 20 
 6.81818389892578 
 30 
 0 
 11 
-6.81817993585582 
 21 
 7.6636394043019 
 31 
 0 
 62 
 214 
 0 
LINE
 8 
TemplateLayer
 6 
CONTINUOUS
 10 
-6.81817993585582 
 20 
 7.6636394043019 
 30 
 0 
 11 
-3.40908893640007 
 21 
 9.70674786017898 
 31 
 0 
 62 
 214 
 0 
LINE
 8 
TemplateLayer
 6 
CONTINUOUS
 10 
-3.40908893640007 
 20 
 9.70674786017898 
 30 
 0 
 11 
 2.06007583426759E-06 
 21 
 10.0896859646397 
 31 
 0 
 62 
 214 
 0 
LINE
 8 
TemplateLayer
 6 
CONTINUOUS
 10 
 2.06007583426759E-06 
 20 
 10.0896859646397 
 30 
 0 
 11 
 3.4090930553833 
 21 
 9.82164611936358 
 31 
 0 
 62 
 214 
 0 
LINE
 8 
TemplateLayer
 6 
CONTINUOUS
 10 
 3.4090930553833 
 20 
 9.82164611936358 
 30 
 0 
 11 
 6.81818404812048 
 21 
 8.12160310072184 
 31 
 0 
 62 
 214 
 0 
LINE
 8 
TemplateLayer
 6 
CONTINUOUS
 10 
 6.81818404812048 
 20 
 8.12160310072184 
 30 
 0 
 11 
 7.98612397281178 
 21 
 6.81818389892578 
 31 
 0 
 62 
 214 
 0 
LINE
 8 
TemplateLayer
 6 
CONTINUOUS
 10 
 7.98612397281178 
 20 
 6.81818389892578 
 30 
 0 
 11 
 9.51069177084299 
 21 
 3.40909290313721 
 31 
 0 
 62 
 214 
 0 
LINE
 8 
TemplateLayer
 6 
CONTINUOUS
 10 
 9.51069177084299 
 20 
 3.40909290313721 
 30 
 0 
 11 
 9.81238994382239 
 21 
 1.9073486328125E-06 
 31 
 0 
 62 
 214 
 0 
LINE
 8 
TemplateLayer
 6 
CONTINUOUS
 10 
 9.81238994382239 
 20 
 1.9073486328125E-06 
 30 
 0 
 11 
 9.48340650229413 
 21 
-3.40908908843994 
 31 
 0 
 62 
 214 
 0 
LINE
 8 
TemplateLayer
 6 
CONTINUOUS
 10 
 9.48340650229413 
 20 
-3.40908908843994 
 30 
 0 
 11 
 7.84216269057213 
 21 
-6.81818008422852 
 31 
 0 
 62 
 214 
 0 
LINE
 8 
TemplateLayer
 6 
CONTINUOUS
 10 
 7.84216269057213 
 20 
-6.81818008422852 
 30 
 0 
 11 
 6.81818401925335 
 21 
-7.96128618683632 
 31 
 0 
 62 
 214 
 0 
LINE
 8 
TemplateLayer
 6 
CONTINUOUS
 10 
 6.81818401925335 
 20 
-7.96128618683632 
 30 
 0 
 11 
 3.40909302027921 
 21 
-9.73607495887595 
 31 
 0 
 62 
 214 
 0 
LINE
 8 
TemplateLayer
 6 
CONTINUOUS
 10 
 3.40909302027921 
 20 
-9.73607495887595 
 30 
 0 
 11 
 2.02424102266341E-06 
 21 
-9.87514568955542 
 31 
 0 
 62 
 214 
 0 
LINE
 8 
TemplateLayer
 6 
CONTINUOUS
 10 
 2.02424102266341E-06 
 20 
-9.87514568955542 
 30 
 0 
 11 
-3.40908897138793 
 21 
-9.78621563589191 
 31 
 0 
 62 
 214 
 0 
LINE
 8 
TemplateLayer
 6 
CONTINUOUS
 10 
-3.40908897138793 
 20 
-9.78621563589191 
 30 
 0 
 11 
-6.81817996340282 
 21 
-7.68376486367742 
 31 
 0 
 62 
 214 
 0 
LINE
 8 
TemplateLayer
 6 
CONTINUOUS
 10 
-6.81817996340282 
 20 
-7.68376486367742 
 30 
 0 
 11 
-7.56735116160998 
 21 
-6.81818008422852 
 31 
 0 
 62 
 214 
 0 
LINE
 8 
TemplateLayer
 6 
CONTINUOUS
 10 
-7.30897135988274 
 20 
 1.9073486328125E-06 
 30 
 0 
 11 
-6.81817994594473 
 21 
 2.04275377227572 
 31 
 0 
 62 
 30 
 0 
LINE
 8 
TemplateLayer
 6 
CONTINUOUS
 10 
-6.81817994594473 
 20 
 2.04275377227572 
 30 
 0 
 11 
-6.43723129431702 
 21 
 3.40909290313721 
 31 
 0 
 62 
 30 
 0 
LINE
 8 
TemplateLayer
 6 
CONTINUOUS
 10 
-6.43723129431702 
 20 
 3.40909290313721 
 30 
 0 
 11 
-3.40908894239634 
 21 
 6.36601874904098 
 31 
 0 
 62 
 30 
 0 
LINE
 8 
TemplateLayer
 6 
CONTINUOUS
 10 
-3.40908894239634 
 20 
 6.36601874904098 
 30 
 0 
 11 
-0.447835201313659 
 21 
 6.81818389892578 
 31 
 0 
 62 
 30 
 0 
LINE
 8 
TemplateLayer
 6 
CONTINUOUS
 10 
-0.447835201313659 
 20 
 6.81818389892578 
 30 
 0 
 11 
 2.05434861004494E-06 
 21 
 6.89884827190309 
 31 
 0 
 62 
 30 
 0 
LINE
 8 
TemplateLayer
 6 
CONTINUOUS
 10 
 2.05434861004494E-06 
 20 
 6.89884827190309 
 30 
 0 
 11 
 0.553514322224807 
 21 
 6.81818389892578 
 31 
 0 
 62 
 30 
 0 
LINE
 8 
TemplateLayer
 6 
CONTINUOUS
 10 
 0.553514322224807 
 20 
 6.81818389892578 
 30 
 0 
 11 
 3.40909304937722 
 21 
 6.47544591373736 
 31 
 0 
 62 
 30 
 0 
LINE
 8 
TemplateLayer
 6 
CONTINUOUS
 10 
 3.40909304937722 
 20 
 6.47544591373736 
 30 
 0 
 11 
 6.76565593086423 
 21 
 3.40909290313721 
 31 
 0 
 62 
 30 
 0 
LINE
 8 
TemplateLayer
 6 
CONTINUOUS
 10 
 6.76565593086423 
 20 
 3.40909290313721 
 30 
 0 
 11 
 6.81818403933803 
 21 
 3.22859526770048 
 31 
 0 
 62 
 30 
 0 
LINE
 8 
TemplateLayer
 6 
CONTINUOUS
 10 
 6.81818403933803 
 20 
 3.22859526770048 
 30 
 0 
 11 
 7.55537127177124 
 21 
 1.9073486328125E-06 
 31 
 0 
 62 
 30 
 0 
LINE
 8 
TemplateLayer
 6 
CONTINUOUS
 10 
 7.55537127177124 
 20 
 1.9073486328125E-06 
 30 
 0 
 11 
 6.81818402814119 
 21 
-3.00955921610336 
 31 
 0 
 62 
 30 
 0 
LINE
 8 
TemplateLayer
 6 
CONTINUOUS
 10 
 6.81818402814119 
 20 
-3.00955921610336 
 30 
 0 
 11 
 6.69254613458868 
 21 
-3.40908908843994 
 31 
 0 
 62 
 30 
 0 
LINE
 8 
TemplateLayer
 6 
CONTINUOUS
 10 
 6.69254613458868 
 20 
-3.40908908843994 
 30 
 0 
 11 
 3.40909302611603 
 21 
-6.484179879104 
 31 
 0 
 62 
 30 
 0 
LINE
 8 
TemplateLayer
 6 
CONTINUOUS
 10 
 3.40909302611603 
 20 
-6.484179879104 
 30 
 0 
 11 
 2.03004468357637E-06 
 21 
-6.64172243714418 
 31 
 0 
 62 
 30 
 0 
LINE
 8 
TemplateLayer
 6 
CONTINUOUS
 10 
 2.03004468357637E-06 
 20 
-6.64172243714418 
 30 
 0 
 11 
-3.4090889653273 
 21 
-6.40962794293472 
 31 
 0 
 62 
 30 
 0 
LINE
 8 
TemplateLayer
 6 
CONTINUOUS
 10 
-3.4090889653273 
 20 
-6.40962794293472 
 30 
 0 
 11 
-6.47721572039995 
 21 
-3.40908908843994 
 31 
 0 
 62 
 30 
 0 
LINE
 8 
TemplateLayer
 6 
CONTINUOUS
 10 
-6.47721572039995 
 20 
-3.40908908843994 
 30 
 0 
 11 
-6.81817995343677 
 21 
-2.13132825014506 
 31 
 0 
 62 
 30 
 0 
LINE
 8 
TemplateLayer
 6 
CONTINUOUS
 10 
-6.81817995343677 
 20 
-2.13132825014506 
 30 
 0 
 11 
-7.30897135988274 
 21 
 1.9073486328125E-06 
 31 
 0 
 62 
 30 
 0 
LINE
 8 
TemplateLayer
 6 
CONTINUOUS
 10 
-1.52463685090375 
 20 
 1.9073486328125E-06 
 30 
 0 
 11 
 2.0434145123413E-06 
 21 
 0.807078560745737 
 31 
 0 
 62 
 94 
 0 
LINE
 8 
TemplateLayer
 6 
CONTINUOUS
 10 
 2.0434145123413E-06 
 20 
 0.807078560745737 
 30 
 0 
 11 
 1.88472640328097 
 21 
 1.9073486328125E-06 
 31 
 0 
 62 
 94 
 0 
LINE
 8 
TemplateLayer
 6 
CONTINUOUS
 10 
 1.88472640328097 
 20 
 1.9073486328125E-06 
 30 
 0 
 11 
 2.04067798395546E-06 
 21 
-0.717537475419533 
 31 
 0 
 62 
 94 
 0 
LINE
 8 
TemplateLayer
 6 
CONTINUOUS
 10 
 2.04067798395546E-06 
 20 
-0.717537475419533 
 30 
 0 
 11 
-1.52463685090375 
 21 
 1.9073486328125E-06 
 31 
 0 
 62 
 94 
 0 
TEXT
 8 
TemplateLayer
 10 
-27.9076567096815 
 20 
-4.39427430541427 
 30 
 0 
 40 
 1.33 
 50 
 0 
 62 
 7 
 1 
.1
 0 
TEXT
 8 
TemplateLayer
 10 
-20.6196440173833 
 20 
-11.2124562969914 
 30 
 0 
 40 
 1.33 
 50 
 0 
 62 
 1 
 1 
.2
 0 
TEXT
 8 
TemplateLayer
 10 
-17.8983182341766 
 20 
-4.39427430541427 
 30 
 0 
 40 
 1.33 
 50 
 0 
 62 
 3 
 1 
.5
 0 
TEXT
 8 
TemplateLayer
 10 
-13.8905510662692 
 20 
-7.80336530120284 
 30 
 0 
 40 
 1.33 
 50 
 0 
 62 
 5 
 1 
1
 0 
TEXT
 8 
TemplateLayer
 10 
 2.06689314555947E-06 
 20 
 12.902664213304 
 30 
 0 
 40 
 1.33 
 50 
 0 
 62 
 6 
 1 
2
 0 
TEXT
 8 
TemplateLayer
 10 
-7.56735116160998 
 20 
-7.80336530120284 
 30 
 0 
 40 
 1.33 
 50 
 0 
 62 
 214 
 1 
5
 0 
TEXT
 8 
TemplateLayer
 10 
-7.30897135988274 
 20 
-0.985183309625696 
 30 
 0 
 40 
 1.33 
 50 
 0 
 62 
 30 
 1 
10
 0 
TEXT
 8 
TemplateLayer
 10 
-1.52463685090375 
 20 
-0.985183309625696 
 30 
 0 
 40 
 1.33 
 50 
 0 
 62 
 94 
 1 
20
 0 
LINE
 8 
TemplateLayer
 6 
CONTINUOUS
 10 
 0 
 20 
 0 
 30 
 0 
 11 
 2 
 21 
 0 
 31 
 0 
 62 
 0 
 0 
LINE
 8 
TemplateLayer
 6 
CONTINUOUS
 10 
 2 
 20 
 0 
 30 
 0 
 11 
 1 
 21 
 0.5 
 31 
 0 
 62 
 0 
 0 
LINE
 8 
TemplateLayer
 6 
CONTINUOUS
 10 
 1 
 20 
 0.5 
 30 
 0 
 11 
 1 
 21 
-0.5 
 31 
 0 
 62 
 0 
 0 
LINE
 8 
TemplateLayer
 6 
CONTINUOUS
 10 
 1 
 20 
-0.5 
 30 
 0 
 11 
 2 
 21 
 0 
 31 
 0 
 62 
 0 
 0 
LINE
 8 
TemplateLayer
 6 
CONTINUOUS
 10 
-0.100000001490116 
 20 
 0.100000001490116 
 30 
 0 
 11 
 0.100000001490116 
 21 
 0.100000001490116 
 31 
 0 
 62 
 0 
 0 
LINE
 8 
TemplateLayer
 6 
CONTINUOUS
 10 
 0.100000001490116 
 20 
 0.100000001490116 
 30 
 0 
 11 
 0.100000001490116 
 21 
-0.100000001490116 
 31 
 0 
 62 
 0 
 0 
LINE
 8 
TemplateLayer
 6 
CONTINUOUS
 10 
 0.100000001490116 
 20 
-0.100000001490116 
 30 
 0 
 11 
-0.100000001490116 
 21 
-0.100000001490116 
 31 
 0 
 62 
 0 
 0 
LINE
 8 
TemplateLayer
 6 
CONTINUOUS
 10 
-0.100000001490116 
 20 
-0.100000001490116 
 30 
 0 
 11 
-0.100000001490116 
 21 
 0.100000001490116 
 31 
 0 
 62 
 0 
 0 
LINE
 8 
TemplateLayer
 6 
CONTINUOUS
 10 
 0 
 20 
 0 
 30 
 0 
 11 
 0 
 21 
 0 
 31 
 0 
 62 
 0 
 0 
ENDBLK
 0 
ENDSEC
 0 
SECTION
 2 
ENTITIES
 0 
INSERT
 2 
Template
 6 
CONTINUOUS
 8 
TemplateLayer
 10 
 0 
 20 
 0 
 30 
 0 
 41 
 1 
 42 
 1 
 43 
 1 
 50 
 0 
 0 
ENDSEC
 0 
EOF
