 0 
SECTION
 2 
HEADER
 9 
$LUNITS
 70 
 2 
 0 
ENDSEC
 0 
SECTION
 2 
TABLES
 0 
TABLE
 2 
LTYPE
 70 
 1 
 0 
LTYPE
 2 
CONTINUOUS
 70 
 0 
 3 
Solid line
 72 
 65 
 73 
 0 
 40 
 0 
 0 
ENDTAB
 0 
TABLE
 2 
LAYER
 70 
 0 
 0 
LAYER
 2 
TemplateLayer
 62 
 7 
 6 
CONTINUOUS
 70 
 0 
 0 
ENDTAB
 0 
ENDSEC
 0 
SECTION
 2 
BLOCKS
 0 
BLOCK
 8 
TemplateLayer
 2 
Template
 70 
 0 
 10 
 0 
 20 
 0 
 30 
 0 
 0 
LINE
 8 
TemplateLayer
 6 
CONTINUOUS
 10 
-31.1176383762026 
 20 
 1.9073486328125E-06 
 30 
 0 
 11 
-30.6818169173215 
 21 
 1.56540109845628 
 31 
 0 
 62 
 7 
 0 
LINE
 8 
TemplateLayer
 6 
CONTINUOUS
 10 
-30.6818169173215 
 20 
 1.56540109845628 
 30 
 0 
 11 
-30.3389671709699 
 21 
 3.40909290313721 
 31 
 0 
 62 
 7 
 0 
LINE
 8 
TemplateLayer
 6 
CONTINUOUS
 10 
-30.3389671709699 
 20 
 3.40909290313721 
 30 
 0 
 11 
-29.227479787164 
 21 
 6.81818389892578 
 31 
 0 
 62 
 7 
 0 
LINE
 8 
TemplateLayer
 6 
CONTINUOUS
 10 
-29.227479787164 
 20 
 6.81818389892578 
 30 
 0 
 11 
-27.2727259060344 
 21 
 10.200218161004 
 31 
 0 
 62 
 7 
 0 
LINE
 8 
TemplateLayer
 6 
CONTINUOUS
 10 
-27.2727259060344 
 20 
 10.200218161004 
 30 
 0 
 11 
-27.2602381835869 
 21 
 10.2272748947144 
 31 
 0 
 62 
 7 
 0 
LINE
 8 
TemplateLayer
 6 
CONTINUOUS
 10 
-27.2602381835869 
 20 
 10.2272748947144 
 30 
 0 
 11 
-24.4708792401835 
 21 
 13.6363658905029 
 31 
 0 
 62 
 7 
 0 
LINE
 8 
TemplateLayer
 6 
CONTINUOUS
 10 
-24.4708792401835 
 20 
 13.6363658905029 
 30 
 0 
 11 
-23.8636349031013 
 21 
 14.180674489059 
 31 
 0 
 62 
 7 
 0 
LINE
 8 
TemplateLayer
 6 
CONTINUOUS
 10 
-23.8636349031013 
 20 
 14.180674489059 
 30 
 0 
 11 
-20.4545439028924 
 21 
 16.6433879481128 
 31 
 0 
 62 
 7 
 0 
LINE
 8 
TemplateLayer
 6 
CONTINUOUS
 10 
-20.4545439028924 
 20 
 16.6433879481128 
 30 
 0 
 11 
-19.5513890459981 
 21 
 17.0454568862915 
 31 
 0 
 62 
 7 
 0 
LINE
 8 
TemplateLayer
 6 
CONTINUOUS
 10 
-19.5513890459981 
 20 
 17.0454568862915 
 30 
 0 
 11 
-17.0454529038009 
 21 
 18.4835529330428 
 31 
 0 
 62 
 7 
 0 
LINE
 8 
TemplateLayer
 6 
CONTINUOUS
 10 
-17.0454529038009 
 20 
 18.4835529330428 
 30 
 0 
 11 
-13.6363619050478 
 21 
 20.1352266252995 
 31 
 0 
 62 
 7 
 0 
LINE
 8 
TemplateLayer
 6 
CONTINUOUS
 10 
-13.6363619050478 
 20 
 20.1352266252995 
 30 
 0 
 11 
-12.3280078995771 
 21 
 20.4545478820801 
 31 
 0 
 62 
 7 
 0 
LINE
 8 
TemplateLayer
 6 
CONTINUOUS
 10 
-12.3280078995771 
 20 
 20.4545478820801 
 30 
 0 
 11 
-10.2272709072825 
 21 
 21.2365123751937 
 31 
 0 
 62 
 7 
 0 
LINE
 8 
TemplateLayer
 6 
CONTINUOUS
 10 
-10.2272709072825 
 20 
 21.2365123751937 
 30 
 0 
 11 
-6.81817990990787 
 21 
 22.1201494699977 
 31 
 0 
 62 
 7 
 0 
LINE
 8 
TemplateLayer
 6 
CONTINUOUS
 10 
-6.81817990990787 
 20 
 22.1201494699977 
 30 
 0 
 11 
-3.40908891309897 
 21 
 22.6886119217911 
 31 
 0 
 62 
 7 
 0 
LINE
 8 
TemplateLayer
 6 
CONTINUOUS
 10 
-3.40908891309897 
 20 
 22.6886119217911 
 30 
 0 
 11 
 2.0827171324303E-06 
 21 
 22.7039480741227 
 31 
 0 
 62 
 7 
 0 
LINE
 8 
TemplateLayer
 6 
CONTINUOUS
 10 
 2.0827171324303E-06 
 20 
 22.7039480741227 
 30 
 0 
 11 
 3.40909307847818 
 21 
 22.6886119217911 
 31 
 0 
 62 
 7 
 0 
LINE
 8 
TemplateLayer
 6 
CONTINUOUS
 10 
 3.40909307847818 
 20 
 22.6886119217911 
 30 
 0 
 11 
 6.81818407324642 
 21 
 22.1201494699977 
 31 
 0 
 62 
 7 
 0 
LINE
 8 
TemplateLayer
 6 
CONTINUOUS
 10 
 6.81818407324642 
 20 
 22.1201494699977 
 30 
 0 
 11 
 10.227275067449 
 21 
 21.2365123751937 
 31 
 0 
 62 
 7 
 0 
LINE
 8 
TemplateLayer
 6 
CONTINUOUS
 10 
 10.227275067449 
 20 
 21.2365123751937 
 30 
 0 
 11 
 12.3280120569364 
 21 
 20.4545478820801 
 31 
 0 
 62 
 7 
 0 
LINE
 8 
TemplateLayer
 6 
CONTINUOUS
 10 
 12.3280120569364 
 20 
 20.4545478820801 
 30 
 0 
 11 
 13.6363660612608 
 21 
 20.1352266252995 
 31 
 0 
 62 
 7 
 0 
LINE
 8 
TemplateLayer
 6 
CONTINUOUS
 10 
 13.6363660612608 
 20 
 20.1352266252995 
 30 
 0 
 11 
 17.0454570540848 
 21 
 18.4835529330428 
 31 
 0 
 62 
 7 
 0 
LINE
 8 
TemplateLayer
 6 
CONTINUOUS
 10 
 17.0454570540848 
 20 
 18.4835529330428 
 30 
 0 
 11 
 19.5513931911196 
 21 
 17.0454568862915 
 31 
 0 
 62 
 7 
 0 
LINE
 8 
TemplateLayer
 6 
CONTINUOUS
 10 
 19.5513931911196 
 20 
 17.0454568862915 
 30 
 0 
 11 
 20.4545480465705 
 21 
 16.6433879481128 
 31 
 0 
 62 
 7 
 0 
LINE
 8 
TemplateLayer
 6 
CONTINUOUS
 10 
 20.4545480465705 
 20 
 16.6433879481128 
 30 
 0 
 11 
 23.8636390379388 
 21 
 14.180674489059 
 31 
 0 
 62 
 7 
 0 
LINE
 8 
TemplateLayer
 6 
CONTINUOUS
 10 
 23.8636390379388 
 20 
 14.180674489059 
 30 
 0 
 11 
 24.4708833730671 
 21 
 13.6363658905029 
 31 
 0 
 62 
 7 
 0 
LINE
 8 
TemplateLayer
 6 
CONTINUOUS
 10 
 24.4708833730671 
 20 
 13.6363658905029 
 30 
 0 
 11 
 27.2602423042325 
 21 
 10.2272748947144 
 31 
 0 
 62 
 7 
 0 
LINE
 8 
TemplateLayer
 6 
CONTINUOUS
 10 
 27.2602423042325 
 20 
 10.2272748947144 
 30 
 0 
 11 
 27.2727300265828 
 21 
 10.200218161004 
 31 
 0 
 62 
 7 
 0 
LINE
 8 
TemplateLayer
 6 
CONTINUOUS
 10 
 27.2727300265828 
 20 
 10.200218161004 
 30 
 0 
 11 
 29.2274838955716 
 21 
 6.81818389892578 
 31 
 0 
 62 
 7 
 0 
LINE
 8 
TemplateLayer
 6 
CONTINUOUS
 10 
 29.2274838955716 
 20 
 6.81818389892578 
 30 
 0 
 11 
 30.3389712671396 
 21 
 3.40909290313721 
 31 
 0 
 62 
 7 
 0 
LINE
 8 
TemplateLayer
 6 
CONTINUOUS
 10 
 30.3389712671396 
 20 
 3.40909290313721 
 30 
 0 
 11 
 30.6818210068728 
 21 
 1.56540109845628 
 31 
 0 
 62 
 7 
 0 
LINE
 8 
TemplateLayer
 6 
CONTINUOUS
 10 
 30.6818210068728 
 20 
 1.56540109845628 
 30 
 0 
 11 
 31.1176424601343 
 21 
 1.9073486328125E-06 
 31 
 0 
 62 
 7 
 0 
LINE
 8 
TemplateLayer
 6 
CONTINUOUS
 10 
 31.1176424601343 
 20 
 1.9073486328125E-06 
 30 
 0 
 11 
 30.6818210012533 
 21 
-1.56539728375901 
 31 
 0 
 62 
 7 
 0 
LINE
 8 
TemplateLayer
 6 
CONTINUOUS
 10 
 30.6818210012533 
 20 
-1.56539728375901 
 30 
 0 
 11 
 30.3389712549017 
 21 
-3.40908908843994 
 31 
 0 
 62 
 7 
 0 
LINE
 8 
TemplateLayer
 6 
CONTINUOUS
 10 
 30.3389712549017 
 20 
-3.40908908843994 
 30 
 0 
 11 
 29.2274838710958 
 21 
-6.81818008422852 
 31 
 0 
 62 
 7 
 0 
LINE
 8 
TemplateLayer
 6 
CONTINUOUS
 10 
 29.2274838710958 
 20 
-6.81818008422852 
 30 
 0 
 11 
 27.2727299899662 
 21 
-10.2002143463068 
 31 
 0 
 62 
 7 
 0 
LINE
 8 
TemplateLayer
 6 
CONTINUOUS
 10 
 27.2727299899662 
 20 
-10.2002143463068 
 30 
 0 
 11 
 27.2602422675187 
 21 
-10.2272710800171 
 31 
 0 
 62 
 7 
 0 
LINE
 8 
TemplateLayer
 6 
CONTINUOUS
 10 
 27.2602422675187 
 20 
-10.2272710800171 
 30 
 0 
 11 
 24.4708833241153 
 21 
-13.6363620758057 
 31 
 0 
 62 
 7 
 0 
LINE
 8 
TemplateLayer
 6 
CONTINUOUS
 10 
 24.4708833241153 
 20 
-13.6363620758057 
 30 
 0 
 11 
 23.8636389870331 
 21 
-14.1806706743617 
 31 
 0 
 62 
 7 
 0 
LINE
 8 
TemplateLayer
 6 
CONTINUOUS
 10 
 23.8636389870331 
 20 
-14.1806706743617 
 30 
 0 
 11 
 20.4545479868242 
 21 
-16.6433841334155 
 31 
 0 
 62 
 7 
 0 
LINE
 8 
TemplateLayer
 6 
CONTINUOUS
 10 
 20.4545479868242 
 20 
-16.6433841334155 
 30 
 0 
 11 
 19.5513931299299 
 21 
-17.0454530715942 
 31 
 0 
 62 
 7 
 0 
LINE
 8 
TemplateLayer
 6 
CONTINUOUS
 10 
 19.5513931299299 
 20 
-17.0454530715942 
 30 
 0 
 11 
 17.0454569877327 
 21 
-18.4835491183455 
 31 
 0 
 62 
 7 
 0 
LINE
 8 
TemplateLayer
 6 
CONTINUOUS
 10 
 17.0454569877327 
 20 
-18.4835491183455 
 30 
 0 
 11 
 13.6363659889795 
 21 
-20.1352228106022 
 31 
 0 
 62 
 7 
 0 
LINE
 8 
TemplateLayer
 6 
CONTINUOUS
 10 
 13.6363659889795 
 20 
-20.1352228106022 
 30 
 0 
 11 
 12.3280119835089 
 21 
-20.4545440673828 
 31 
 0 
 62 
 7 
 0 
LINE
 8 
TemplateLayer
 6 
CONTINUOUS
 10 
 12.3280119835089 
 20 
-20.4545440673828 
 30 
 0 
 11 
 10.2272749912143 
 21 
-21.2365085604964 
 31 
 0 
 62 
 7 
 0 
LINE
 8 
TemplateLayer
 6 
CONTINUOUS
 10 
 10.2272749912143 
 20 
-21.2365085604964 
 30 
 0 
 11 
 6.81818399383966 
 21 
-22.1201456553004 
 31 
 0 
 62 
 7 
 0 
LINE
 8 
TemplateLayer
 6 
CONTINUOUS
 10 
 6.81818399383966 
 20 
-22.1201456553004 
 30 
 0 
 11 
 3.40909299703075 
 21 
-22.6886081070938 
 31 
 0 
 62 
 7 
 0 
LINE
 8 
TemplateLayer
 6 
CONTINUOUS
 10 
 3.40909299703075 
 20 
-22.6886081070938 
 30 
 0 
 11 
 2.00121465370601E-06 
 21 
-22.7039442594255 
 31 
 0 
 62 
 7 
 0 
LINE
 8 
TemplateLayer
 6 
CONTINUOUS
 10 
 2.00121465370601E-06 
 20 
-22.7039442594255 
 30 
 0 
 11 
-3.40908899454639 
 21 
-22.6886081070938 
 31 
 0 
 62 
 7 
 0 
LINE
 8 
TemplateLayer
 6 
CONTINUOUS
 10 
-3.40908899454639 
 20 
-22.6886081070938 
 30 
 0 
 11 
-6.81817998931464 
 21 
-22.1201456553004 
 31 
 0 
 62 
 7 
 0 
LINE
 8 
TemplateLayer
 6 
CONTINUOUS
 10 
-6.81817998931464 
 20 
-22.1201456553004 
 30 
 0 
 11 
-10.2272709835172 
 21 
-21.2365085604964 
 31 
 0 
 62 
 7 
 0 
LINE
 8 
TemplateLayer
 6 
CONTINUOUS
 10 
-10.2272709835172 
 20 
-21.2365085604964 
 30 
 0 
 11 
-12.3280079730047 
 21 
-20.4545440673828 
 31 
 0 
 62 
 7 
 0 
LINE
 8 
TemplateLayer
 6 
CONTINUOUS
 10 
-12.3280079730047 
 20 
-20.4545440673828 
 30 
 0 
 11 
-13.6363619773291 
 21 
-20.1352228106022 
 31 
 0 
 62 
 7 
 0 
LINE
 8 
TemplateLayer
 6 
CONTINUOUS
 10 
-13.6363619773291 
 20 
-20.1352228106022 
 30 
 0 
 11 
-17.045452970153 
 21 
-18.4835491183455 
 31 
 0 
 62 
 7 
 0 
LINE
 8 
TemplateLayer
 6 
CONTINUOUS
 10 
-17.045452970153 
 20 
-18.4835491183455 
 30 
 0 
 11 
-19.5513891071878 
 21 
-17.0454530715942 
 31 
 0 
 62 
 7 
 0 
LINE
 8 
TemplateLayer
 6 
CONTINUOUS
 10 
-19.5513891071878 
 20 
-17.0454530715942 
 30 
 0 
 11 
-20.4545439626387 
 21 
-16.6433841334155 
 31 
 0 
 62 
 7 
 0 
LINE
 8 
TemplateLayer
 6 
CONTINUOUS
 10 
-20.4545439626387 
 20 
-16.6433841334155 
 30 
 0 
 11 
-23.863634954007 
 21 
-14.1806706743617 
 31 
 0 
 62 
 7 
 0 
LINE
 8 
TemplateLayer
 6 
CONTINUOUS
 10 
-23.863634954007 
 20 
-14.1806706743617 
 30 
 0 
 11 
-24.4708792891353 
 21 
-13.6363620758057 
 31 
 0 
 62 
 7 
 0 
LINE
 8 
TemplateLayer
 6 
CONTINUOUS
 10 
-24.4708792891353 
 20 
-13.6363620758057 
 30 
 0 
 11 
-27.2602382203007 
 21 
-10.2272710800171 
 31 
 0 
 62 
 7 
 0 
LINE
 8 
TemplateLayer
 6 
CONTINUOUS
 10 
-27.2602382203007 
 20 
-10.2272710800171 
 30 
 0 
 11 
-27.272725942651 
 21 
-10.2002143463068 
 31 
 0 
 62 
 7 
 0 
LINE
 8 
TemplateLayer
 6 
CONTINUOUS
 10 
-27.272725942651 
 20 
-10.2002143463068 
 30 
 0 
 11 
-29.2274798116398 
 21 
-6.81818008422852 
 31 
 0 
 62 
 7 
 0 
LINE
 8 
TemplateLayer
 6 
CONTINUOUS
 10 
-29.2274798116398 
 20 
-6.81818008422852 
 30 
 0 
 11 
-30.3389671832078 
 21 
-3.40908908843994 
 31 
 0 
 62 
 7 
 0 
LINE
 8 
TemplateLayer
 6 
CONTINUOUS
 10 
-30.3389671832078 
 20 
-3.40908908843994 
 30 
 0 
 11 
-30.681816922941 
 21 
-1.56539728375901 
 31 
 0 
 62 
 7 
 0 
LINE
 8 
TemplateLayer
 6 
CONTINUOUS
 10 
-30.681816922941 
 20 
-1.56539728375901 
 30 
 0 
 11 
-31.1176383762026 
 21 
 1.9073486328125E-06 
 31 
 0 
 62 
 7 
 0 
LINE
 8 
TemplateLayer
 6 
CONTINUOUS
 10 
-23.8727018248754 
 20 
-6.81818008422852 
 30 
 0 
 11 
-25.3193686899493 
 21 
-3.40908908843994 
 31 
 0 
 62 
 1 
 0 
LINE
 8 
TemplateLayer
 6 
CONTINUOUS
 10 
-25.3193686899493 
 20 
-3.40908908843994 
 30 
 0 
 11 
-26.0263191145281 
 21 
 1.9073486328125E-06 
 31 
 0 
 62 
 1 
 0 
LINE
 8 
TemplateLayer
 6 
CONTINUOUS
 10 
-26.0263191145281 
 20 
 1.9073486328125E-06 
 30 
 0 
 11 
-25.3193686777113 
 21 
 3.40909290313721 
 31 
 0 
 62 
 1 
 0 
LINE
 8 
TemplateLayer
 6 
CONTINUOUS
 10 
-25.3193686777113 
 20 
 3.40909290313721 
 30 
 0 
 11 
-23.8727018003995 
 21 
 6.81818389892578 
 31 
 0 
 62 
 1 
 0 
LINE
 8 
TemplateLayer
 6 
CONTINUOUS
 10 
-23.8727018003995 
 20 
 6.81818389892578 
 30 
 0 
 11 
-23.8636349162895 
 21 
 6.83307101103048 
 31 
 0 
 62 
 1 
 0 
LINE
 8 
TemplateLayer
 6 
CONTINUOUS
 10 
-23.8636349162895 
 20 
 6.83307101103048 
 30 
 0 
 11 
-22.0829411956656 
 21 
 10.2272748947144 
 31 
 0 
 62 
 1 
 0 
LINE
 8 
TemplateLayer
 6 
CONTINUOUS
 10 
-22.0829411956656 
 20 
 10.2272748947144 
 30 
 0 
 11 
-20.4545439115287 
 21 
 11.8317790816152 
 31 
 0 
 62 
 1 
 0 
LINE
 8 
TemplateLayer
 6 
CONTINUOUS
 10 
-20.4545439115287 
 20 
 11.8317790816152 
 30 
 0 
 11 
-18.1407036088926 
 21 
 13.6363658905029 
 31 
 0 
 62 
 1 
 0 
LINE
 8 
TemplateLayer
 6 
CONTINUOUS
 10 
-18.1407036088926 
 20 
 13.6363658905029 
 30 
 0 
 11 
-17.0454529111758 
 21 
 14.3747251724608 
 31 
 0 
 62 
 1 
 0 
LINE
 8 
TemplateLayer
 6 
CONTINUOUS
 10 
-17.0454529111758 
 20 
 14.3747251724608 
 30 
 0 
 11 
-13.6363619118027 
 21 
 16.3718169431509 
 31 
 0 
 62 
 1 
 0 
LINE
 8 
TemplateLayer
 6 
CONTINUOUS
 10 
-13.6363619118027 
 20 
 16.3718169431509 
 30 
 0 
 11 
-11.6530055351037 
 21 
 17.0454568862915 
 31 
 0 
 62 
 1 
 0 
LINE
 8 
TemplateLayer
 6 
CONTINUOUS
 10 
-11.6530055351037 
 20 
 17.0454568862915 
 30 
 0 
 11 
-10.2272709135658 
 21 
 17.7358666796408 
 31 
 0 
 62 
 1 
 0 
LINE
 8 
TemplateLayer
 6 
CONTINUOUS
 10 
-10.2272709135658 
 20 
 17.7358666796408 
 30 
 0 
 11 
-6.81817991621171 
 21 
 18.6080633615421 
 31 
 0 
 62 
 1 
 0 
LINE
 8 
TemplateLayer
 6 
CONTINUOUS
 10 
-6.81817991621171 
 20 
 18.6080633615421 
 30 
 0 
 11 
-3.40908891915098 
 21 
 19.3168223622843 
 31 
 0 
 62 
 1 
 0 
LINE
 8 
TemplateLayer
 6 
CONTINUOUS
 10 
-3.40908891915098 
 20 
 19.3168223622843 
 30 
 0 
 11 
 2.07666927818512E-06 
 21 
 19.3344761396402 
 31 
 0 
 62 
 1 
 0 
LINE
 8 
TemplateLayer
 6 
CONTINUOUS
 10 
 2.07666927818512E-06 
 20 
 19.3344761396402 
 30 
 0 
 11 
 3.40909307242617 
 21 
 19.3168223622843 
 31 
 0 
 62 
 1 
 0 
LINE
 8 
TemplateLayer
 6 
CONTINUOUS
 10 
 3.40909307242617 
 20 
 19.3168223622843 
 30 
 0 
 11 
 6.81818406694259 
 21 
 18.6080633615421 
 31 
 0 
 62 
 1 
 0 
LINE
 8 
TemplateLayer
 6 
CONTINUOUS
 10 
 6.81818406694259 
 20 
 18.6080633615421 
 30 
 0 
 11 
 10.2272750611657 
 21 
 17.7358666796408 
 31 
 0 
 62 
 1 
 0 
LINE
 8 
TemplateLayer
 6 
CONTINUOUS
 10 
 10.2272750611657 
 20 
 17.7358666796408 
 30 
 0 
 11 
 11.6530096802252 
 21 
 17.0454568862915 
 31 
 0 
 62 
 1 
 0 
LINE
 8 
TemplateLayer
 6 
CONTINUOUS
 10 
 11.6530096802252 
 20 
 17.0454568862915 
 30 
 0 
 11 
 13.6363660545059 
 21 
 16.3718169431509 
 31 
 0 
 62 
 1 
 0 
LINE
 8 
TemplateLayer
 6 
CONTINUOUS
 10 
 13.6363660545059 
 20 
 16.3718169431509 
 30 
 0 
 11 
 17.0454570467099 
 21 
 14.3747251724608 
 31 
 0 
 62 
 1 
 0 
LINE
 8 
TemplateLayer
 6 
CONTINUOUS
 10 
 17.0454570467099 
 20 
 14.3747251724608 
 30 
 0 
 11 
 18.1407077417761 
 21 
 13.6363658905029 
 31 
 0 
 62 
 1 
 0 
LINE
 8 
TemplateLayer
 6 
CONTINUOUS
 10 
 18.1407077417761 
 20 
 13.6363658905029 
 30 
 0 
 11 
 20.4545480379342 
 21 
 11.8317790816152 
 31 
 0 
 62 
 1 
 0 
LINE
 8 
TemplateLayer
 6 
CONTINUOUS
 10 
 20.4545480379342 
 20 
 11.8317790816152 
 30 
 0 
 11 
 22.0829453163111 
 21 
 10.2272748947144 
 31 
 0 
 62 
 1 
 0 
LINE
 8 
TemplateLayer
 6 
CONTINUOUS
 10 
 22.0829453163111 
 20 
 10.2272748947144 
 30 
 0 
 11 
 23.8636390247506 
 21 
 6.83307101103048 
 31 
 0 
 62 
 1 
 0 
LINE
 8 
TemplateLayer
 6 
CONTINUOUS
 10 
 23.8636390247506 
 20 
 6.83307101103048 
 30 
 0 
 11 
 23.8727059088072 
 21 
 6.81818389892578 
 31 
 0 
 62 
 1 
 0 
LINE
 8 
TemplateLayer
 6 
CONTINUOUS
 10 
 23.8727059088072 
 20 
 6.81818389892578 
 30 
 0 
 11 
 25.319372773881 
 21 
 3.40909290313721 
 31 
 0 
 62 
 1 
 0 
LINE
 8 
TemplateLayer
 6 
CONTINUOUS
 10 
 25.319372773881 
 20 
 3.40909290313721 
 30 
 0 
 11 
 26.0263231984598 
 21 
 1.9073486328125E-06 
 31 
 0 
 62 
 1 
 0 
LINE
 8 
TemplateLayer
 6 
CONTINUOUS
 10 
 26.0263231984598 
 20 
 1.9073486328125E-06 
 30 
 0 
 11 
 25.3193727616431 
 21 
-3.40908908843994 
 31 
 0 
 62 
 1 
 0 
LINE
 8 
TemplateLayer
 6 
CONTINUOUS
 10 
 25.3193727616431 
 20 
-3.40908908843994 
 30 
 0 
 11 
 23.8727058843313 
 21 
-6.81818008422852 
 31 
 0 
 62 
 1 
 0 
LINE
 8 
TemplateLayer
 6 
CONTINUOUS
 10 
 23.8727058843313 
 20 
-6.81818008422852 
 30 
 0 
 11 
 23.8636390002213 
 21 
-6.83306719633322 
 31 
 0 
 62 
 1 
 0 
LINE
 8 
TemplateLayer
 6 
CONTINUOUS
 10 
 23.8636390002213 
 20 
-6.83306719633322 
 30 
 0 
 11 
 22.0829452795973 
 21 
-10.2272710800171 
 31 
 0 
 62 
 1 
 0 
LINE
 8 
TemplateLayer
 6 
CONTINUOUS
 10 
 22.0829452795973 
 20 
-10.2272710800171 
 30 
 0 
 11 
 20.4545479954605 
 21 
-11.831775266918 
 31 
 0 
 62 
 1 
 0 
LINE
 8 
TemplateLayer
 6 
CONTINUOUS
 10 
 20.4545479954605 
 20 
-11.831775266918 
 30 
 0 
 11 
 18.1407076928244 
 21 
-13.6363620758057 
 31 
 0 
 62 
 1 
 0 
LINE
 8 
TemplateLayer
 6 
CONTINUOUS
 10 
 18.1407076928244 
 20 
-13.6363620758057 
 30 
 0 
 11 
 17.0454569951076 
 21 
-14.3747213577635 
 31 
 0 
 62 
 1 
 0 
LINE
 8 
TemplateLayer
 6 
CONTINUOUS
 10 
 17.0454569951076 
 20 
-14.3747213577635 
 30 
 0 
 11 
 13.6363659957345 
 21 
-16.3718131284537 
 31 
 0 
 62 
 1 
 0 
LINE
 8 
TemplateLayer
 6 
CONTINUOUS
 10 
 13.6363659957345 
 20 
-16.3718131284537 
 30 
 0 
 11 
 11.6530096190355 
 21 
-17.0454530715942 
 31 
 0 
 62 
 1 
 0 
LINE
 8 
TemplateLayer
 6 
CONTINUOUS
 10 
 11.6530096190355 
 20 
-17.0454530715942 
 30 
 0 
 11 
 10.2272749974976 
 21 
-17.7358628649436 
 31 
 0 
 62 
 1 
 0 
LINE
 8 
TemplateLayer
 6 
CONTINUOUS
 10 
 10.2272749974976 
 20 
-17.7358628649436 
 30 
 0 
 11 
 6.81818400014349 
 21 
-18.6080595468448 
 31 
 0 
 62 
 1 
 0 
LINE
 8 
TemplateLayer
 6 
CONTINUOUS
 10 
 6.81818400014349 
 20 
-18.6080595468448 
 30 
 0 
 11 
 3.40909300308277 
 21 
-19.316818547587 
 31 
 0 
 62 
 1 
 0 
LINE
 8 
TemplateLayer
 6 
CONTINUOUS
 10 
 3.40909300308277 
 20 
-19.316818547587 
 30 
 0 
 11 
 2.00726250795813E-06 
 21 
-19.3344723249429 
 31 
 0 
 62 
 1 
 0 
LINE
 8 
TemplateLayer
 6 
CONTINUOUS
 10 
 2.00726250795813E-06 
 20 
-19.3344723249429 
 30 
 0 
 11 
-3.40908898849438 
 21 
-19.316818547587 
 31 
 0 
 62 
 1 
 0 
LINE
 8 
TemplateLayer
 6 
CONTINUOUS
 10 
-3.40908898849438 
 20 
-19.316818547587 
 30 
 0 
 11 
-6.81817998301081 
 21 
-18.6080595468448 
 31 
 0 
 62 
 1 
 0 
LINE
 8 
TemplateLayer
 6 
CONTINUOUS
 10 
-6.81817998301081 
 20 
-18.6080595468448 
 30 
 0 
 11 
-10.2272709772339 
 21 
-17.7358628649436 
 31 
 0 
 62 
 1 
 0 
LINE
 8 
TemplateLayer
 6 
CONTINUOUS
 10 
-10.2272709772339 
 20 
-17.7358628649436 
 30 
 0 
 11 
-11.6530055962934 
 21 
-17.0454530715942 
 31 
 0 
 62 
 1 
 0 
LINE
 8 
TemplateLayer
 6 
CONTINUOUS
 10 
-11.6530055962934 
 20 
-17.0454530715942 
 30 
 0 
 11 
-13.6363619705741 
 21 
-16.3718131284537 
 31 
 0 
 62 
 1 
 0 
LINE
 8 
TemplateLayer
 6 
CONTINUOUS
 10 
-13.6363619705741 
 20 
-16.3718131284537 
 30 
 0 
 11 
-17.0454529627781 
 21 
-14.3747213577635 
 31 
 0 
 62 
 1 
 0 
LINE
 8 
TemplateLayer
 6 
CONTINUOUS
 10 
-17.0454529627781 
 20 
-14.3747213577635 
 30 
 0 
 11 
-18.1407036578444 
 21 
-13.6363620758057 
 31 
 0 
 62 
 1 
 0 
LINE
 8 
TemplateLayer
 6 
CONTINUOUS
 10 
-18.1407036578444 
 20 
-13.6363620758057 
 30 
 0 
 11 
-20.4545439540024 
 21 
-11.831775266918 
 31 
 0 
 62 
 1 
 0 
LINE
 8 
TemplateLayer
 6 
CONTINUOUS
 10 
-20.4545439540024 
 20 
-11.831775266918 
 30 
 0 
 11 
-22.0829412323794 
 21 
-10.2272710800171 
 31 
 0 
 62 
 1 
 0 
LINE
 8 
TemplateLayer
 6 
CONTINUOUS
 10 
-22.0829412323794 
 20 
-10.2272710800171 
 30 
 0 
 11 
-23.8636349408188 
 21 
-6.83306719633322 
 31 
 0 
 62 
 1 
 0 
LINE
 8 
TemplateLayer
 6 
CONTINUOUS
 10 
-23.8636349408188 
 20 
-6.83306719633322 
 30 
 0 
 11 
-23.8727018248754 
 21 
-6.81818008422852 
 31 
 0 
 62 
 1 
 0 
LINE
 8 
TemplateLayer
 6 
CONTINUOUS
 10 
-18.3827276559256 
 20 
-6.81818008422852 
 30 
 0 
 11 
-19.5745227515025 
 21 
-3.40908908843994 
 31 
 0 
 62 
 3 
 0 
LINE
 8 
TemplateLayer
 6 
CONTINUOUS
 10 
-19.5745227515025 
 20 
-3.40908908843994 
 30 
 0 
 11 
-20.014095387062 
 21 
 1.9073486328125E-06 
 31 
 0 
 62 
 3 
 0 
LINE
 8 
TemplateLayer
 6 
CONTINUOUS
 10 
-20.014095387062 
 20 
 1.9073486328125E-06 
 30 
 0 
 11 
-19.5745227392645 
 21 
 3.40909290313721 
 31 
 0 
 62 
 3 
 0 
LINE
 8 
TemplateLayer
 6 
CONTINUOUS
 10 
-19.5745227392645 
 20 
 3.40909290313721 
 30 
 0 
 11 
-18.3827276314497 
 21 
 6.81818389892578 
 31 
 0 
 62 
 3 
 0 
LINE
 8 
TemplateLayer
 6 
CONTINUOUS
 10 
-18.3827276314497 
 20 
 6.81818389892578 
 30 
 0 
 11 
-17.0454529217896 
 21 
 8.46140339826202 
 31 
 0 
 62 
 3 
 0 
LINE
 8 
TemplateLayer
 6 
CONTINUOUS
 10 
-17.0454529217896 
 20 
 8.46140339826202 
 30 
 0 
 11 
-15.5441160153237 
 21 
 10.2272748947144 
 31 
 0 
 62 
 3 
 0 
LINE
 8 
TemplateLayer
 6 
CONTINUOUS
 10 
-15.5441160153237 
 20 
 10.2272748947144 
 30 
 0 
 11 
-13.6363619200648 
 21 
 11.7687112995414 
 31 
 0 
 62 
 3 
 0 
LINE
 8 
TemplateLayer
 6 
CONTINUOUS
 10 
-13.6363619200648 
 20 
 11.7687112995414 
 30 
 0 
 11 
-10.2272709210135 
 21 
 13.5864795636515 
 31 
 0 
 62 
 3 
 0 
LINE
 8 
TemplateLayer
 6 
CONTINUOUS
 10 
-10.2272709210135 
 20 
 13.5864795636515 
 30 
 0 
 11 
-10.0456978363185 
 21 
 13.6363658905029 
 31 
 0 
 62 
 3 
 0 
LINE
 8 
TemplateLayer
 6 
CONTINUOUS
 10 
-10.0456978363185 
 20 
 13.6363658905029 
 30 
 0 
 11 
-6.81817992269766 
 21 
 14.9945080210796 
 31 
 0 
 62 
 3 
 0 
LINE
 8 
TemplateLayer
 6 
CONTINUOUS
 10 
-6.81817992269766 
 20 
 14.9945080210796 
 30 
 0 
 11 
-3.4090889254702 
 21 
 15.7961625969518 
 31 
 0 
 62 
 3 
 0 
LINE
 8 
TemplateLayer
 6 
CONTINUOUS
 10 
-3.4090889254702 
 20 
 15.7961625969518 
 30 
 0 
 11 
 2.07045754060942E-06 
 21 
 15.8736990532419 
 31 
 0 
 62 
 3 
 0 
LINE
 8 
TemplateLayer
 6 
CONTINUOUS
 10 
 2.07045754060942E-06 
 20 
 15.8736990532419 
 30 
 0 
 11 
 3.40909306610694 
 21 
 15.7961625969518 
 31 
 0 
 62 
 3 
 0 
LINE
 8 
TemplateLayer
 6 
CONTINUOUS
 10 
 3.40909306610694 
 20 
 15.7961625969518 
 30 
 0 
 11 
 6.81818406045663 
 21 
 14.9945080210796 
 31 
 0 
 62 
 3 
 0 
LINE
 8 
TemplateLayer
 6 
CONTINUOUS
 10 
 6.81818406045663 
 20 
 14.9945080210796 
 30 
 0 
 11 
 10.045701969202 
 21 
 13.6363658905029 
 31 
 0 
 62 
 3 
 0 
LINE
 8 
TemplateLayer
 6 
CONTINUOUS
 10 
 10.045701969202 
 20 
 13.6363658905029 
 30 
 0 
 11 
 10.2272750537179 
 21 
 13.5864795636515 
 31 
 0 
 62 
 3 
 0 
LINE
 8 
TemplateLayer
 6 
CONTINUOUS
 10 
 10.2272750537179 
 20 
 13.5864795636515 
 30 
 0 
 11 
 13.6363660462438 
 21 
 11.7687112995414 
 31 
 0 
 62 
 3 
 0 
LINE
 8 
TemplateLayer
 6 
CONTINUOUS
 10 
 13.6363660462438 
 20 
 11.7687112995414 
 30 
 0 
 11 
 15.5441201359693 
 21 
 10.2272748947144 
 31 
 0 
 62 
 3 
 0 
LINE
 8 
TemplateLayer
 6 
CONTINUOUS
 10 
 15.5441201359693 
 20 
 10.2272748947144 
 30 
 0 
 11 
 17.0454570360961 
 21 
 8.46140339826202 
 31 
 0 
 62 
 3 
 0 
LINE
 8 
TemplateLayer
 6 
CONTINUOUS
 10 
 17.0454570360961 
 20 
 8.46140339826202 
 30 
 0 
 11 
 18.3827317398574 
 21 
 6.81818389892578 
 31 
 0 
 62 
 3 
 0 
LINE
 8 
TemplateLayer
 6 
CONTINUOUS
 10 
 18.3827317398574 
 20 
 6.81818389892578 
 30 
 0 
 11 
 19.5745268354343 
 21 
 3.40909290313721 
 31 
 0 
 62 
 3 
 0 
LINE
 8 
TemplateLayer
 6 
CONTINUOUS
 10 
 19.5745268354343 
 20 
 3.40909290313721 
 30 
 0 
 11 
 20.0140994709938 
 21 
 1.9073486328125E-06 
 31 
 0 
 62 
 3 
 0 
LINE
 8 
TemplateLayer
 6 
CONTINUOUS
 10 
 20.0140994709938 
 20 
 1.9073486328125E-06 
 30 
 0 
 11 
 19.5745268231963 
 21 
-3.40908908843994 
 31 
 0 
 62 
 3 
 0 
LINE
 8 
TemplateLayer
 6 
CONTINUOUS
 10 
 19.5745268231963 
 20 
-3.40908908843994 
 30 
 0 
 11 
 18.3827317153815 
 21 
-6.81818008422852 
 31 
 0 
 62 
 3 
 0 
LINE
 8 
TemplateLayer
 6 
CONTINUOUS
 10 
 18.3827317153815 
 20 
-6.81818008422852 
 30 
 0 
 11 
 17.0454570057214 
 21 
-8.46139958356476 
 31 
 0 
 62 
 3 
 0 
LINE
 8 
TemplateLayer
 6 
CONTINUOUS
 10 
 17.0454570057214 
 20 
-8.46139958356476 
 30 
 0 
 11 
 15.5441200992555 
 21 
-10.2272710800171 
 31 
 0 
 62 
 3 
 0 
LINE
 8 
TemplateLayer
 6 
CONTINUOUS
 10 
 15.5441200992555 
 20 
-10.2272710800171 
 30 
 0 
 11 
 13.6363660039966 
 21 
-11.7687074848441 
 31 
 0 
 62 
 3 
 0 
LINE
 8 
TemplateLayer
 6 
CONTINUOUS
 10 
 13.6363660039966 
 20 
-11.7687074848441 
 30 
 0 
 11 
 10.2272750049453 
 21 
-13.5864757489542 
 31 
 0 
 62 
 3 
 0 
LINE
 8 
TemplateLayer
 6 
CONTINUOUS
 10 
 10.2272750049453 
 20 
-13.5864757489542 
 30 
 0 
 11 
 10.0457019202503 
 21 
-13.6363620758057 
 31 
 0 
 62 
 3 
 0 
LINE
 8 
TemplateLayer
 6 
CONTINUOUS
 10 
 10.0457019202503 
 20 
-13.6363620758057 
 30 
 0 
 11 
 6.81818400662945 
 21 
-14.9945042063823 
 31 
 0 
 62 
 3 
 0 
LINE
 8 
TemplateLayer
 6 
CONTINUOUS
 10 
 6.81818400662945 
 20 
-14.9945042063823 
 30 
 0 
 11 
 3.40909300940199 
 21 
-15.7961587822546 
 31 
 0 
 62 
 3 
 0 
LINE
 8 
TemplateLayer
 6 
CONTINUOUS
 10 
 3.40909300940199 
 20 
-15.7961587822546 
 30 
 0 
 11 
 2.01347424552689E-06 
 21 
-15.8736952385446 
 31 
 0 
 62 
 3 
 0 
LINE
 8 
TemplateLayer
 6 
CONTINUOUS
 10 
 2.01347424552689E-06 
 20 
-15.8736952385446 
 30 
 0 
 11 
-3.40908898217516 
 21 
-15.7961587822546 
 31 
 0 
 62 
 3 
 0 
LINE
 8 
TemplateLayer
 6 
CONTINUOUS
 10 
-3.40908898217516 
 20 
-15.7961587822546 
 30 
 0 
 11 
-6.81817997652485 
 21 
-14.9945042063823 
 31 
 0 
 62 
 3 
 0 
LINE
 8 
TemplateLayer
 6 
CONTINUOUS
 10 
-6.81817997652485 
 20 
-14.9945042063823 
 30 
 0 
 11 
-10.0456978852702 
 21 
-13.6363620758057 
 31 
 0 
 62 
 3 
 0 
LINE
 8 
TemplateLayer
 6 
CONTINUOUS
 10 
-10.0456978852702 
 20 
-13.6363620758057 
 30 
 0 
 11 
-10.2272709697862 
 21 
-13.5864757489542 
 31 
 0 
 62 
 3 
 0 
LINE
 8 
TemplateLayer
 6 
CONTINUOUS
 10 
-10.2272709697862 
 20 
-13.5864757489542 
 30 
 0 
 11 
-13.636361962312 
 21 
-11.7687074848441 
 31 
 0 
 62 
 3 
 0 
LINE
 8 
TemplateLayer
 6 
CONTINUOUS
 10 
-13.636361962312 
 20 
-11.7687074848441 
 30 
 0 
 11 
-15.5441160520375 
 21 
-10.2272710800171 
 31 
 0 
 62 
 3 
 0 
LINE
 8 
TemplateLayer
 6 
CONTINUOUS
 10 
-15.5441160520375 
 20 
-10.2272710800171 
 30 
 0 
 11 
-17.0454529521643 
 21 
-8.46139958356476 
 31 
 0 
 62 
 3 
 0 
LINE
 8 
TemplateLayer
 6 
CONTINUOUS
 10 
-17.0454529521643 
 20 
-8.46139958356476 
 30 
 0 
 11 
-18.3827276559256 
 21 
-6.81818008422852 
 31 
 0 
 62 
 3 
 0 
LINE
 8 
TemplateLayer
 6 
CONTINUOUS
 10 
-14.2706113243112 
 20 
-6.81818008422852 
 30 
 0 
 11 
-15.8525635760549 
 21 
-3.40908908843994 
 31 
 0 
 62 
 5 
 0 
LINE
 8 
TemplateLayer
 6 
CONTINUOUS
 10 
-15.8525635760549 
 20 
-3.40908908843994 
 30 
 0 
 11 
-16.2396759818691 
 21 
 1.9073486328125E-06 
 31 
 0 
 62 
 5 
 0 
LINE
 8 
TemplateLayer
 6 
CONTINUOUS
 10 
-16.2396759818691 
 20 
 1.9073486328125E-06 
 30 
 0 
 11 
-15.852563563817 
 21 
 3.40909290313721 
 31 
 0 
 62 
 5 
 0 
LINE
 8 
TemplateLayer
 6 
CONTINUOUS
 10 
-15.852563563817 
 20 
 3.40909290313721 
 30 
 0 
 11 
-14.2706112998354 
 21 
 6.81818389892578 
 31 
 0 
 62 
 5 
 0 
LINE
 8 
TemplateLayer
 6 
CONTINUOUS
 10 
-14.2706112998354 
 20 
 6.81818389892578 
 30 
 0 
 11 
-13.6363619277149 
 21 
 7.5065506276387 
 31 
 0 
 62 
 5 
 0 
LINE
 8 
TemplateLayer
 6 
CONTINUOUS
 10 
-13.6363619277149 
 20 
 7.5065506276387 
 30 
 0 
 11 
-10.968670006889 
 21 
 10.2272748947144 
 31 
 0 
 62 
 5 
 0 
LINE
 8 
TemplateLayer
 6 
CONTINUOUS
 10 
-10.968670006889 
 20 
 10.2272748947144 
 30 
 0 
 11 
-10.2272709260439 
 21 
 10.7838727572168 
 31 
 0 
 62 
 5 
 0 
LINE
 8 
TemplateLayer
 6 
CONTINUOUS
 10 
-10.2272709260439 
 20 
 10.7838727572168 
 30 
 0 
 11 
-6.81817992705363 
 21 
 12.5676442049525 
 31 
 0 
 62 
 5 
 0 
LINE
 8 
TemplateLayer
 6 
CONTINUOUS
 10 
-6.81817992705363 
 20 
 12.5676442049525 
 30 
 0 
 11 
-3.40908892999103 
 21 
 13.2774489001325 
 31 
 0 
 62 
 5 
 0 
LINE
 8 
TemplateLayer
 6 
CONTINUOUS
 10 
-3.40908892999103 
 20 
 13.2774489001325 
 30 
 0 
 11 
 2.06598294129334E-06 
 21 
 13.3807426768087 
 31 
 0 
 62 
 5 
 0 
LINE
 8 
TemplateLayer
 6 
CONTINUOUS
 10 
 2.06598294129334E-06 
 20 
 13.3807426768087 
 30 
 0 
 11 
 3.40909306158611 
 21 
 13.2774489001325 
 31 
 0 
 62 
 5 
 0 
LINE
 8 
TemplateLayer
 6 
CONTINUOUS
 10 
 3.40909306158611 
 20 
 13.2774489001325 
 30 
 0 
 11 
 6.81818405610066 
 21 
 12.5676442049525 
 31 
 0 
 62 
 5 
 0 
LINE
 8 
TemplateLayer
 6 
CONTINUOUS
 10 
 6.81818405610066 
 20 
 12.5676442049525 
 30 
 0 
 11 
 10.2272750486876 
 21 
 10.7838727572168 
 31 
 0 
 62 
 5 
 0 
LINE
 8 
TemplateLayer
 6 
CONTINUOUS
 10 
 10.2272750486876 
 20 
 10.7838727572168 
 30 
 0 
 11 
 10.9686741275346 
 21 
 10.2272748947144 
 31 
 0 
 62 
 5 
 0 
LINE
 8 
TemplateLayer
 6 
CONTINUOUS
 10 
 10.9686741275346 
 20 
 10.2272748947144 
 30 
 0 
 11 
 13.6363660385937 
 21 
 7.5065506276387 
 31 
 0 
 62 
 5 
 0 
LINE
 8 
TemplateLayer
 6 
CONTINUOUS
 10 
 13.6363660385937 
 20 
 7.5065506276387 
 30 
 0 
 11 
 14.270615408243 
 21 
 6.81818389892578 
 31 
 0 
 62 
 5 
 0 
LINE
 8 
TemplateLayer
 6 
CONTINUOUS
 10 
 14.270615408243 
 20 
 6.81818389892578 
 30 
 0 
 11 
 15.8525676599867 
 21 
 3.40909290313721 
 31 
 0 
 62 
 5 
 0 
LINE
 8 
TemplateLayer
 6 
CONTINUOUS
 10 
 15.8525676599867 
 20 
 3.40909290313721 
 30 
 0 
 11 
 16.2396800658009 
 21 
 1.9073486328125E-06 
 31 
 0 
 62 
 5 
 0 
LINE
 8 
TemplateLayer
 6 
CONTINUOUS
 10 
 16.2396800658009 
 20 
 1.9073486328125E-06 
 30 
 0 
 11 
 15.8525676477488 
 21 
-3.40908908843994 
 31 
 0 
 62 
 5 
 0 
LINE
 8 
TemplateLayer
 6 
CONTINUOUS
 10 
 15.8525676477488 
 20 
-3.40908908843994 
 30 
 0 
 11 
 14.2706153837671 
 21 
-6.81818008422852 
 31 
 0 
 62 
 5 
 0 
LINE
 8 
TemplateLayer
 6 
CONTINUOUS
 10 
 14.2706153837671 
 20 
-6.81818008422852 
 30 
 0 
 11 
 13.6363660116467 
 21 
-7.50654681294144 
 31 
 0 
 62 
 5 
 0 
LINE
 8 
TemplateLayer
 6 
CONTINUOUS
 10 
 13.6363660116467 
 20 
-7.50654681294144 
 30 
 0 
 11 
 10.9686740908208 
 21 
-10.2272710800171 
 31 
 0 
 62 
 5 
 0 
LINE
 8 
TemplateLayer
 6 
CONTINUOUS
 10 
 10.9686740908208 
 20 
-10.2272710800171 
 30 
 0 
 11 
 10.2272750099757 
 21 
-10.7838689425195 
 31 
 0 
 62 
 5 
 0 
LINE
 8 
TemplateLayer
 6 
CONTINUOUS
 10 
 10.2272750099757 
 20 
-10.7838689425195 
 30 
 0 
 11 
 6.81818401098542 
 21 
-12.5676403902553 
 31 
 0 
 62 
 5 
 0 
LINE
 8 
TemplateLayer
 6 
CONTINUOUS
 10 
 6.81818401098542 
 20 
-12.5676403902553 
 30 
 0 
 11 
 3.40909301392282 
 21 
-13.2774450854352 
 31 
 0 
 62 
 5 
 0 
LINE
 8 
TemplateLayer
 6 
CONTINUOUS
 10 
 3.40909301392282 
 20 
-13.2774450854352 
 30 
 0 
 11 
 2.01794884484297E-06 
 21 
-13.3807388621114 
 31 
 0 
 62 
 5 
 0 
LINE
 8 
TemplateLayer
 6 
CONTINUOUS
 10 
 2.01794884484297E-06 
 20 
-13.3807388621114 
 30 
 0 
 11 
-3.40908897765433 
 21 
-13.2774450854352 
 31 
 0 
 62 
 5 
 0 
LINE
 8 
TemplateLayer
 6 
CONTINUOUS
 10 
-3.40908897765433 
 20 
-13.2774450854352 
 30 
 0 
 11 
-6.81817997216888 
 21 
-12.5676403902553 
 31 
 0 
 62 
 5 
 0 
LINE
 8 
TemplateLayer
 6 
CONTINUOUS
 10 
-6.81817997216888 
 20 
-12.5676403902553 
 30 
 0 
 11 
-10.2272709647558 
 21 
-10.7838689425195 
 31 
 0 
 62 
 5 
 0 
LINE
 8 
TemplateLayer
 6 
CONTINUOUS
 10 
-10.2272709647558 
 20 
-10.7838689425195 
 30 
 0 
 11 
-10.9686700436028 
 21 
-10.2272710800171 
 31 
 0 
 62 
 5 
 0 
LINE
 8 
TemplateLayer
 6 
CONTINUOUS
 10 
-10.9686700436028 
 20 
-10.2272710800171 
 30 
 0 
 11 
-13.6363619546619 
 21 
-7.50654681294144 
 31 
 0 
 62 
 5 
 0 
LINE
 8 
TemplateLayer
 6 
CONTINUOUS
 10 
-13.6363619546619 
 20 
-7.50654681294144 
 30 
 0 
 11 
-14.2706113243112 
 21 
-6.81818008422852 
 31 
 0 
 62 
 5 
 0 
LINE
 8 
TemplateLayer
 6 
CONTINUOUS
 10 
-10.3501077827858 
 20 
-6.81818008422852 
 30 
 0 
 11 
-12.3693114400468 
 21 
-3.40908908843994 
 31 
 0 
 62 
 6 
 0 
LINE
 8 
TemplateLayer
 6 
CONTINUOUS
 10 
-12.3693114400468 
 20 
-3.40908908843994 
 30 
 0 
 11 
-12.7357951317818 
 21 
 1.9073486328125E-06 
 31 
 0 
 62 
 6 
 0 
LINE
 8 
TemplateLayer
 6 
CONTINUOUS
 10 
-12.7357951317818 
 20 
 1.9073486328125E-06 
 30 
 0 
 11 
-12.3693114278088 
 21 
 3.40909290313721 
 31 
 0 
 62 
 6 
 0 
LINE
 8 
TemplateLayer
 6 
CONTINUOUS
 10 
-12.3693114278088 
 20 
 3.40909290313721 
 30 
 0 
 11 
-10.3501077583099 
 21 
 6.81818389892578 
 31 
 0 
 62 
 6 
 0 
LINE
 8 
TemplateLayer
 6 
CONTINUOUS
 10 
-10.3501077583099 
 20 
 6.81818389892578 
 30 
 0 
 11 
-10.2272709329393 
 21 
 6.94219035450311 
 31 
 0 
 62 
 6 
 0 
LINE
 8 
TemplateLayer
 6 
CONTINUOUS
 10 
-10.2272709329393 
 20 
 6.94219035450311 
 30 
 0 
 11 
-6.81817993203916 
 21 
 9.79003360578037 
 31 
 0 
 62 
 6 
 0 
LINE
 8 
TemplateLayer
 6 
CONTINUOUS
 10 
-6.81817993203916 
 20 
 9.79003360578037 
 30 
 0 
 11 
-5.63850695109955 
 21 
 10.2272748947144 
 31 
 0 
 62 
 6 
 0 
LINE
 8 
TemplateLayer
 6 
CONTINUOUS
 10 
-5.63850695109955 
 20 
 10.2272748947144 
 30 
 0 
 11 
-3.40908893370197 
 21 
 11.2099549306336 
 31 
 0 
 62 
 6 
 0 
LINE
 8 
TemplateLayer
 6 
CONTINUOUS
 10 
-3.40908893370197 
 20 
 11.2099549306336 
 30 
 0 
 11 
 2.06274727612005E-06 
 21 
 11.5780400091171 
 31 
 0 
 62 
 6 
 0 
LINE
 8 
TemplateLayer
 6 
CONTINUOUS
 10 
 2.06274727612005E-06 
 20 
 11.5780400091171 
 30 
 0 
 11 
 3.40909305787518 
 21 
 11.2099549306336 
 31 
 0 
 62 
 6 
 0 
LINE
 8 
TemplateLayer
 6 
CONTINUOUS
 10 
 3.40909305787518 
 20 
 11.2099549306336 
 30 
 0 
 11 
 5.63851107174514 
 21 
 10.2272748947144 
 31 
 0 
 62 
 6 
 0 
LINE
 8 
TemplateLayer
 6 
CONTINUOUS
 10 
 5.63851107174514 
 20 
 10.2272748947144 
 30 
 0 
 11 
 6.81818405111514 
 21 
 9.79003360578037 
 31 
 0 
 62 
 6 
 0 
LINE
 8 
TemplateLayer
 6 
CONTINUOUS
 10 
 6.81818405111514 
 20 
 9.79003360578037 
 30 
 0 
 11 
 10.2272750417921 
 21 
 6.94219035450311 
 31 
 0 
 62 
 6 
 0 
LINE
 8 
TemplateLayer
 6 
CONTINUOUS
 10 
 10.2272750417921 
 20 
 6.94219035450311 
 30 
 0 
 11 
 10.3501118667176 
 21 
 6.81818389892578 
 31 
 0 
 62 
 6 
 0 
LINE
 8 
TemplateLayer
 6 
CONTINUOUS
 10 
 10.3501118667176 
 20 
 6.81818389892578 
 30 
 0 
 11 
 12.3693155239785 
 21 
 3.40909290313721 
 31 
 0 
 62 
 6 
 0 
LINE
 8 
TemplateLayer
 6 
CONTINUOUS
 10 
 12.3693155239785 
 20 
 3.40909290313721 
 30 
 0 
 11 
 12.7357992157136 
 21 
 1.9073486328125E-06 
 31 
 0 
 62 
 6 
 0 
LINE
 8 
TemplateLayer
 6 
CONTINUOUS
 10 
 12.7357992157136 
 20 
 1.9073486328125E-06 
 30 
 0 
 11 
 12.3693155117406 
 21 
-3.40908908843994 
 31 
 0 
 62 
 6 
 0 
LINE
 8 
TemplateLayer
 6 
CONTINUOUS
 10 
 12.3693155117406 
 20 
-3.40908908843994 
 30 
 0 
 11 
 10.3501118422417 
 21 
-6.81818008422852 
 31 
 0 
 62 
 6 
 0 
LINE
 8 
TemplateLayer
 6 
CONTINUOUS
 10 
 10.3501118422417 
 20 
-6.81818008422852 
 30 
 0 
 11 
 10.2272750168711 
 21 
-6.94218653980585 
 31 
 0 
 62 
 6 
 0 
LINE
 8 
TemplateLayer
 6 
CONTINUOUS
 10 
 10.2272750168711 
 20 
-6.94218653980585 
 30 
 0 
 11 
 6.81818401597095 
 21 
-9.7900297910831 
 31 
 0 
 62 
 6 
 0 
LINE
 8 
TemplateLayer
 6 
CONTINUOUS
 10 
 6.81818401597095 
 20 
-9.7900297910831 
 30 
 0 
 11 
 5.63851103503134 
 21 
-10.2272710800171 
 31 
 0 
 62 
 6 
 0 
LINE
 8 
TemplateLayer
 6 
CONTINUOUS
 10 
 5.63851103503134 
 20 
-10.2272710800171 
 30 
 0 
 11 
 3.40909301763376 
 21 
-11.2099511159364 
 31 
 0 
 62 
 6 
 0 
LINE
 8 
TemplateLayer
 6 
CONTINUOUS
 10 
 3.40909301763376 
 20 
-11.2099511159364 
 30 
 0 
 11 
 2.02118451001626E-06 
 21 
-11.5780361944198 
 31 
 0 
 62 
 6 
 0 
LINE
 8 
TemplateLayer
 6 
CONTINUOUS
 10 
 2.02118451001626E-06 
 20 
-11.5780361944198 
 30 
 0 
 11 
-3.40908897394339 
 21 
-11.2099511159364 
 31 
 0 
 62 
 6 
 0 
LINE
 8 
TemplateLayer
 6 
CONTINUOUS
 10 
-3.40908897394339 
 20 
-11.2099511159364 
 30 
 0 
 11 
-5.63850698781335 
 21 
-10.2272710800171 
 31 
 0 
 62 
 6 
 0 
LINE
 8 
TemplateLayer
 6 
CONTINUOUS
 10 
-5.63850698781335 
 20 
-10.2272710800171 
 30 
 0 
 11 
-6.81817996718335 
 21 
-9.7900297910831 
 31 
 0 
 62 
 6 
 0 
LINE
 8 
TemplateLayer
 6 
CONTINUOUS
 10 
-6.81817996718335 
 20 
-9.7900297910831 
 30 
 0 
 11 
-10.2272709578603 
 21 
-6.94218653980585 
 31 
 0 
 62 
 6 
 0 
LINE
 8 
TemplateLayer
 6 
CONTINUOUS
 10 
-10.2272709578603 
 20 
-6.94218653980585 
 30 
 0 
 11 
-10.3501077827858 
 21 
-6.81818008422852 
 31 
 0 
 62 
 6 
 0 
LINE
 8 
TemplateLayer
 6 
CONTINUOUS
 10 
-7.64814600786314 
 20 
-3.40908908843994 
 30 
 0 
 11 
-8.34057283325863 
 21 
 1.9073486328125E-06 
 31 
 0 
 62 
 214 
 0 
LINE
 8 
TemplateLayer
 6 
CONTINUOUS
 10 
-8.34057283325863 
 20 
 1.9073486328125E-06 
 30 
 0 
 11 
-7.64814599562521 
 21 
 3.40909290313721 
 31 
 0 
 62 
 214 
 0 
LINE
 8 
TemplateLayer
 6 
CONTINUOUS
 10 
-7.64814599562521 
 20 
 3.40909290313721 
 30 
 0 
 11 
-6.81817994140371 
 21 
 4.57271427228049 
 31 
 0 
 62 
 214 
 0 
LINE
 8 
TemplateLayer
 6 
CONTINUOUS
 10 
-6.81817994140371 
 20 
 4.57271427228049 
 30 
 0 
 11 
-4.64029011567249 
 21 
 6.81818389892578 
 31 
 0 
 62 
 214 
 0 
LINE
 8 
TemplateLayer
 6 
CONTINUOUS
 10 
-4.64029011567249 
 20 
 6.81818389892578 
 30 
 0 
 11 
-3.4090889402129 
 21 
 7.58248735026517 
 31 
 0 
 62 
 214 
 0 
LINE
 8 
TemplateLayer
 6 
CONTINUOUS
 10 
-3.4090889402129 
 20 
 7.58248735026517 
 30 
 0 
 11 
 2.05680711639483E-06 
 21 
 8.26856847588721 
 31 
 0 
 62 
 214 
 0 
LINE
 8 
TemplateLayer
 6 
CONTINUOUS
 10 
 2.05680711639483E-06 
 20 
 8.26856847588721 
 30 
 0 
 11 
 3.40909305136425 
 21 
 7.58248735026517 
 31 
 0 
 62 
 214 
 0 
LINE
 8 
TemplateLayer
 6 
CONTINUOUS
 10 
 3.40909305136425 
 20 
 7.58248735026517 
 30 
 0 
 11 
 4.64029422408014 
 21 
 6.81818389892578 
 31 
 0 
 62 
 214 
 0 
LINE
 8 
TemplateLayer
 6 
CONTINUOUS
 10 
 4.64029422408014 
 20 
 6.81818389892578 
 30 
 0 
 11 
 6.81818404175059 
 21 
 4.57271427228049 
 31 
 0 
 62 
 214 
 0 
LINE
 8 
TemplateLayer
 6 
CONTINUOUS
 10 
 6.81818404175059 
 20 
 4.57271427228049 
 30 
 0 
 11 
 7.64815009179492 
 21 
 3.40909290313721 
 31 
 0 
 62 
 214 
 0 
LINE
 8 
TemplateLayer
 6 
CONTINUOUS
 10 
 7.64815009179492 
 20 
 3.40909290313721 
 30 
 0 
 11 
 8.34057691719041 
 21 
 1.9073486328125E-06 
 31 
 0 
 62 
 214 
 0 
LINE
 8 
TemplateLayer
 6 
CONTINUOUS
 10 
 8.34057691719041 
 20 
 1.9073486328125E-06 
 30 
 0 
 11 
 7.64815007955699 
 21 
-3.40908908843994 
 31 
 0 
 62 
 214 
 0 
LINE
 8 
TemplateLayer
 6 
CONTINUOUS
 10 
 7.64815007955699 
 20 
-3.40908908843994 
 30 
 0 
 11 
 6.8181840253355 
 21 
-4.57271045758323 
 31 
 0 
 62 
 214 
 0 
LINE
 8 
TemplateLayer
 6 
CONTINUOUS
 10 
 6.8181840253355 
 20 
-4.57271045758323 
 30 
 0 
 11 
 4.64029419960428 
 21 
-6.81818008422852 
 31 
 0 
 62 
 214 
 0 
LINE
 8 
TemplateLayer
 6 
CONTINUOUS
 10 
 4.64029419960428 
 20 
-6.81818008422852 
 30 
 0 
 11 
 3.40909302414469 
 21 
-7.5824835355679 
 31 
 0 
 62 
 214 
 0 
LINE
 8 
TemplateLayer
 6 
CONTINUOUS
 10 
 3.40909302414469 
 20 
-7.5824835355679 
 30 
 0 
 11 
 2.02712466974148E-06 
 21 
-8.26856466118994 
 31 
 0 
 62 
 214 
 0 
LINE
 8 
TemplateLayer
 6 
CONTINUOUS
 10 
 2.02712466974148E-06 
 20 
-8.26856466118994 
 30 
 0 
 11 
-3.40908896743246 
 21 
-7.5824835355679 
 31 
 0 
 62 
 214 
 0 
LINE
 8 
TemplateLayer
 6 
CONTINUOUS
 10 
-3.40908896743246 
 20 
-7.5824835355679 
 30 
 0 
 11 
-4.64029014014836 
 21 
-6.81818008422852 
 31 
 0 
 62 
 214 
 0 
LINE
 8 
TemplateLayer
 6 
CONTINUOUS
 10 
-4.64029014014836 
 20 
-6.81818008422852 
 30 
 0 
 11 
-6.8181799578188 
 21 
-4.57271045758323 
 31 
 0 
 62 
 214 
 0 
LINE
 8 
TemplateLayer
 6 
CONTINUOUS
 10 
-6.8181799578188 
 20 
-4.57271045758323 
 30 
 0 
 11 
-7.64814600786314 
 21 
-3.40908908843994 
 31 
 0 
 62 
 214 
 0 
LINE
 8 
TemplateLayer
 6 
CONTINUOUS
 10 
-4.41069166185193 
 20 
 1.9073486328125E-06 
 30 
 0 
 11 
-3.40908894884061 
 21 
 2.77568658720689 
 31 
 0 
 62 
 30 
 0 
LINE
 8 
TemplateLayer
 6 
CONTINUOUS
 10 
-3.40908894884061 
 20 
 2.77568658720689 
 30 
 0 
 11 
-2.85035231393625 
 21 
 3.40909290313721 
 31 
 0 
 62 
 30 
 0 
LINE
 8 
TemplateLayer
 6 
CONTINUOUS
 10 
-2.85035231393625 
 20 
 3.40909290313721 
 30 
 0 
 11 
 2.05015953785859E-06 
 21 
 4.56496908816064 
 31 
 0 
 62 
 30 
 0 
LINE
 8 
TemplateLayer
 6 
CONTINUOUS
 10 
 2.05015953785859E-06 
 20 
 4.56496908816064 
 30 
 0 
 11 
 2.85035641010597 
 21 
 3.40909290313721 
 31 
 0 
 62 
 30 
 0 
LINE
 8 
TemplateLayer
 6 
CONTINUOUS
 10 
 2.85035641010597 
 20 
 3.40909290313721 
 30 
 0 
 11 
 3.40909304273653 
 21 
 2.77568658720689 
 31 
 0 
 62 
 30 
 0 
LINE
 8 
TemplateLayer
 6 
CONTINUOUS
 10 
 3.40909304273653 
 20 
 2.77568658720689 
 30 
 0 
 11 
 4.41069574578372 
 21 
 1.9073486328125E-06 
 31 
 0 
 62 
 30 
 0 
LINE
 8 
TemplateLayer
 6 
CONTINUOUS
 10 
 4.41069574578372 
 20 
 1.9073486328125E-06 
 30 
 0 
 11 
 3.4090930327724 
 21 
-2.77568277250963 
 31 
 0 
 62 
 30 
 0 
LINE
 8 
TemplateLayer
 6 
CONTINUOUS
 10 
 3.4090930327724 
 20 
-2.77568277250963 
 30 
 0 
 11 
 2.85035639786803 
 21 
-3.40908908843994 
 31 
 0 
 62 
 30 
 0 
LINE
 8 
TemplateLayer
 6 
CONTINUOUS
 10 
 2.85035639786803 
 20 
-3.40908908843994 
 30 
 0 
 11 
 2.03377224827772E-06 
 21 
-4.56496527346337 
 31 
 0 
 62 
 30 
 0 
LINE
 8 
TemplateLayer
 6 
CONTINUOUS
 10 
 2.03377224827772E-06 
 20 
-4.56496527346337 
 30 
 0 
 11 
-2.85035232617418 
 21 
-3.40908908843994 
 31 
 0 
 62 
 30 
 0 
LINE
 8 
TemplateLayer
 6 
CONTINUOUS
 10 
-2.85035232617418 
 20 
-3.40908908843994 
 30 
 0 
 11 
-3.40908895880475 
 21 
-2.77568277250963 
 31 
 0 
 62 
 30 
 0 
LINE
 8 
TemplateLayer
 6 
CONTINUOUS
 10 
-3.40908895880475 
 20 
-2.77568277250963 
 30 
 0 
 11 
-4.41069166185193 
 21 
 1.9073486328125E-06 
 31 
 0 
 62 
 30 
 0 
TEXT
 8 
TemplateLayer
 10 
-31.1176383762026 
 20 
-0.985183309625696 
 30 
 0 
 40 
 1.33 
 50 
 0 
 62 
 7 
 1 
.1
 0 
TEXT
 8 
TemplateLayer
 10 
-23.8727018248754 
 20 
-7.80336530120284 
 30 
 0 
 40 
 1.33 
 50 
 0 
 62 
 1 
 1 
.2
 0 
TEXT
 8 
TemplateLayer
 10 
-18.3827276559256 
 20 
-7.80336530120284 
 30 
 0 
 40 
 1.33 
 50 
 0 
 62 
 3 
 1 
.5
 0 
TEXT
 8 
TemplateLayer
 10 
-14.2706113243112 
 20 
-7.80336530120284 
 30 
 0 
 40 
 1.33 
 50 
 0 
 62 
 5 
 1 
1
 0 
TEXT
 8 
TemplateLayer
 10 
-10.3501077827858 
 20 
-7.80336530120284 
 30 
 0 
 40 
 1.33 
 50 
 0 
 62 
 6 
 1 
2
 0 
TEXT
 8 
TemplateLayer
 10 
-7.64814600786314 
 20 
-4.39427430541427 
 30 
 0 
 40 
 1.33 
 50 
 0 
 62 
 214 
 1 
5
 0 
TEXT
 8 
TemplateLayer
 10 
-4.41069166185193 
 20 
-0.985183309625696 
 30 
 0 
 40 
 1.33 
 50 
 0 
 62 
 30 
 1 
10
 0 
LINE
 8 
TemplateLayer
 6 
CONTINUOUS
 10 
 0 
 20 
 0 
 30 
 0 
 11 
 2 
 21 
 0 
 31 
 0 
 62 
 0 
 0 
LINE
 8 
TemplateLayer
 6 
CONTINUOUS
 10 
 2 
 20 
 0 
 30 
 0 
 11 
 1 
 21 
 0.5 
 31 
 0 
 62 
 0 
 0 
LINE
 8 
TemplateLayer
 6 
CONTINUOUS
 10 
 1 
 20 
 0.5 
 30 
 0 
 11 
 1 
 21 
-0.5 
 31 
 0 
 62 
 0 
 0 
LINE
 8 
TemplateLayer
 6 
CONTINUOUS
 10 
 1 
 20 
-0.5 
 30 
 0 
 11 
 2 
 21 
 0 
 31 
 0 
 62 
 0 
 0 
LINE
 8 
TemplateLayer
 6 
CONTINUOUS
 10 
-0.100000001490116 
 20 
 0.100000001490116 
 30 
 0 
 11 
 0.100000001490116 
 21 
 0.100000001490116 
 31 
 0 
 62 
 0 
 0 
LINE
 8 
TemplateLayer
 6 
CONTINUOUS
 10 
 0.100000001490116 
 20 
 0.100000001490116 
 30 
 0 
 11 
 0.100000001490116 
 21 
-0.100000001490116 
 31 
 0 
 62 
 0 
 0 
LINE
 8 
TemplateLayer
 6 
CONTINUOUS
 10 
 0.100000001490116 
 20 
-0.100000001490116 
 30 
 0 
 11 
-0.100000001490116 
 21 
-0.100000001490116 
 31 
 0 
 62 
 0 
 0 
LINE
 8 
TemplateLayer
 6 
CONTINUOUS
 10 
-0.100000001490116 
 20 
-0.100000001490116 
 30 
 0 
 11 
-0.100000001490116 
 21 
 0.100000001490116 
 31 
 0 
 62 
 0 
 0 
LINE
 8 
TemplateLayer
 6 
CONTINUOUS
 10 
 0 
 20 
 0 
 30 
 0 
 11 
 0 
 21 
 0 
 31 
 0 
 62 
 0 
 0 
ENDBLK
 0 
ENDSEC
 0 
SECTION
 2 
ENTITIES
 0 
INSERT
 2 
Template
 6 
CONTINUOUS
 8 
TemplateLayer
 10 
 0 
 20 
 0 
 30 
 0 
 41 
 1 
 42 
 1 
 43 
 1 
 50 
 0 
 0 
ENDSEC
 0 
EOF
