 0 
SECTION
 2 
HEADER
 9 
$LUNITS
 70 
 2 
 0 
ENDSEC
 0 
SECTION
 2 
TABLES
 0 
TABLE
 2 
LTYPE
 70 
 1 
 0 
LTYPE
 2 
CONTINUOUS
 70 
 0 
 3 
Solid line
 72 
 65 
 73 
 0 
 40 
 0 
 0 
ENDTAB
 0 
TABLE
 2 
LAYER
 70 
 0 
 0 
LAYER
 2 
TemplateLayer
 62 
 7 
 6 
CONTINUOUS
 70 
 0 
 0 
ENDTAB
 0 
ENDSEC
 0 
SECTION
 2 
BLOCKS
 0 
BLOCK
 8 
TemplateLayer
 2 
Template
 70 
 0 
 10 
 0 
 20 
 0 
 30 
 0 
 0 
LINE
 8 
TemplateLayer
 6 
CONTINUOUS
 10 
-34.5571083690387 
 20 
-10.2272710800171 
 30 
 0 
 11 
-35.0426845039369 
 21 
-6.81818008422852 
 31 
 0 
 62 
 7 
 0 
LINE
 8 
TemplateLayer
 6 
CONTINUOUS
 10 
-35.0426845039369 
 20 
-6.81818008422852 
 30 
 0 
 11 
-35.1194414945686 
 21 
-3.40908908843994 
 31 
 0 
 62 
 7 
 0 
LINE
 8 
TemplateLayer
 6 
CONTINUOUS
 10 
-35.1194414945686 
 20 
-3.40908908843994 
 30 
 0 
 11 
-34.8090665170083 
 21 
 1.9073486328125E-06 
 31 
 0 
 62 
 7 
 0 
LINE
 8 
TemplateLayer
 6 
CONTINUOUS
 10 
-34.8090665170083 
 20 
 1.9073486328125E-06 
 30 
 0 
 11 
-35.1194414823306 
 21 
 3.40909290313721 
 31 
 0 
 62 
 7 
 0 
LINE
 8 
TemplateLayer
 6 
CONTINUOUS
 10 
-35.1194414823306 
 20 
 3.40909290313721 
 30 
 0 
 11 
-35.0426844794611 
 21 
 6.81818389892578 
 31 
 0 
 62 
 7 
 0 
LINE
 8 
TemplateLayer
 6 
CONTINUOUS
 10 
-35.0426844794611 
 20 
 6.81818389892578 
 30 
 0 
 11 
-34.5571083323249 
 21 
 10.2272748947144 
 31 
 0 
 62 
 7 
 0 
LINE
 8 
TemplateLayer
 6 
CONTINUOUS
 10 
-34.5571083323249 
 20 
 10.2272748947144 
 30 
 0 
 11 
-34.090907894535 
 21 
 11.9142474616634 
 31 
 0 
 62 
 7 
 0 
LINE
 8 
TemplateLayer
 6 
CONTINUOUS
 10 
-34.090907894535 
 20 
 11.9142474616634 
 30 
 0 
 11 
-33.7205188013519 
 21 
 13.6363658905029 
 31 
 0 
 62 
 7 
 0 
LINE
 8 
TemplateLayer
 6 
CONTINUOUS
 10 
-33.7205188013519 
 20 
 13.6363658905029 
 30 
 0 
 11 
-30.6818168898264 
 21 
 16.8838882902816 
 31 
 0 
 62 
 7 
 0 
LINE
 8 
TemplateLayer
 6 
CONTINUOUS
 10 
-30.6818168898264 
 20 
 16.8838882902816 
 30 
 0 
 11 
-30.5489085805489 
 21 
 17.0454568862915 
 31 
 0 
 62 
 7 
 0 
LINE
 8 
TemplateLayer
 6 
CONTINUOUS
 10 
-30.5489085805489 
 20 
 17.0454568862915 
 30 
 0 
 11 
-27.2727258884924 
 21 
 19.9734738505167 
 31 
 0 
 62 
 7 
 0 
LINE
 8 
TemplateLayer
 6 
CONTINUOUS
 10 
-27.2727258884924 
 20 
 19.9734738505167 
 30 
 0 
 11 
-26.7706595702348 
 21 
 20.4545478820801 
 31 
 0 
 62 
 7 
 0 
LINE
 8 
TemplateLayer
 6 
CONTINUOUS
 10 
-26.7706595702348 
 20 
 20.4545478820801 
 30 
 0 
 11 
-23.863634887871 
 21 
 22.6659775991704 
 31 
 0 
 62 
 7 
 0 
LINE
 8 
TemplateLayer
 6 
CONTINUOUS
 10 
-23.863634887871 
 20 
 22.6659775991704 
 30 
 0 
 11 
-21.7149770466427 
 21 
 23.8636388778687 
 31 
 0 
 62 
 7 
 0 
LINE
 8 
TemplateLayer
 6 
CONTINUOUS
 10 
-21.7149770466427 
 20 
 23.8636388778687 
 30 
 0 
 11 
-20.4545438885193 
 21 
 24.6511652629887 
 31 
 0 
 62 
 7 
 0 
LINE
 8 
TemplateLayer
 6 
CONTINUOUS
 10 
-20.4545438885193 
 20 
 24.6511652629887 
 30 
 0 
 11 
-17.0454528906558 
 21 
 25.807176320734 
 31 
 0 
 62 
 7 
 0 
LINE
 8 
TemplateLayer
 6 
CONTINUOUS
 10 
-17.0454528906558 
 20 
 25.807176320734 
 30 
 0 
 11 
-13.6363618941386 
 21 
 26.2131048846478 
 31 
 0 
 62 
 7 
 0 
LINE
 8 
TemplateLayer
 6 
CONTINUOUS
 10 
-13.6363618941386 
 20 
 26.2131048846478 
 30 
 0 
 11 
-10.2272708976185 
 21 
 26.6206623074057 
 31 
 0 
 62 
 7 
 0 
LINE
 8 
TemplateLayer
 6 
CONTINUOUS
 10 
-10.2272708976185 
 20 
 26.6206623074057 
 30 
 0 
 11 
-6.8181799012135 
 21 
 26.9640879025435 
 31 
 0 
 62 
 7 
 0 
LINE
 8 
TemplateLayer
 6 
CONTINUOUS
 10 
-6.8181799012135 
 20 
 26.9640879025435 
 30 
 0 
 11 
-3.40908890541662 
 21 
 26.9687196675245 
 31 
 0 
 62 
 7 
 0 
LINE
 8 
TemplateLayer
 6 
CONTINUOUS
 10 
-3.40908890541662 
 20 
 26.9687196675245 
 30 
 0 
 11 
 2.09020211680566E-06 
 21 
 26.8740956558675 
 31 
 0 
 62 
 7 
 0 
LINE
 8 
TemplateLayer
 6 
CONTINUOUS
 10 
 2.09020211680566E-06 
 20 
 26.8740956558675 
 30 
 0 
 11 
 3.40909308616053 
 21 
 26.9687196675245 
 31 
 0 
 62 
 7 
 0 
LINE
 8 
TemplateLayer
 6 
CONTINUOUS
 10 
 3.40909308616053 
 20 
 26.9687196675245 
 30 
 0 
 11 
 6.81818408194079 
 21 
 26.9640879025435 
 31 
 0 
 62 
 7 
 0 
LINE
 8 
TemplateLayer
 6 
CONTINUOUS
 10 
 6.81818408194079 
 20 
 26.9640879025435 
 30 
 0 
 11 
 10.227275077113 
 21 
 26.6206623074057 
 31 
 0 
 62 
 7 
 0 
LINE
 8 
TemplateLayer
 6 
CONTINUOUS
 10 
 10.227275077113 
 20 
 26.6206623074057 
 30 
 0 
 11 
 13.63636607217 
 21 
 26.2131048846478 
 31 
 0 
 62 
 7 
 0 
LINE
 8 
TemplateLayer
 6 
CONTINUOUS
 10 
 13.63636607217 
 20 
 26.2131048846478 
 30 
 0 
 11 
 17.04545706723 
 21 
 25.807176320734 
 31 
 0 
 62 
 7 
 0 
LINE
 8 
TemplateLayer
 6 
CONTINUOUS
 10 
 17.04545706723 
 20 
 25.807176320734 
 30 
 0 
 11 
 20.4545480609436 
 21 
 24.6511652629887 
 31 
 0 
 62 
 7 
 0 
LINE
 8 
TemplateLayer
 6 
CONTINUOUS
 10 
 20.4545480609436 
 20 
 24.6511652629887 
 30 
 0 
 11 
 21.71498121624 
 21 
 23.8636388778687 
 31 
 0 
 62 
 7 
 0 
LINE
 8 
TemplateLayer
 6 
CONTINUOUS
 10 
 21.71498121624 
 20 
 23.8636388778687 
 30 
 0 
 11 
 23.863639053169 
 21 
 22.6659775991704 
 31 
 0 
 62 
 7 
 0 
LINE
 8 
TemplateLayer
 6 
CONTINUOUS
 10 
 23.863639053169 
 20 
 22.6659775991704 
 30 
 0 
 11 
 26.7706637275942 
 21 
 20.4545478820801 
 31 
 0 
 62 
 7 
 0 
LINE
 8 
TemplateLayer
 6 
CONTINUOUS
 10 
 26.7706637275942 
 20 
 20.4545478820801 
 30 
 0 
 11 
 27.2727300441248 
 21 
 19.9734738505167 
 31 
 0 
 62 
 7 
 0 
LINE
 8 
TemplateLayer
 6 
CONTINUOUS
 10 
 27.2727300441248 
 20 
 19.9734738505167 
 30 
 0 
 11 
 30.5489127256703 
 21 
 17.0454568862915 
 31 
 0 
 62 
 7 
 0 
LINE
 8 
TemplateLayer
 6 
CONTINUOUS
 10 
 30.5489127256703 
 20 
 17.0454568862915 
 30 
 0 
 11 
 30.6818210343679 
 21 
 16.8838882902816 
 31 
 0 
 62 
 7 
 0 
LINE
 8 
TemplateLayer
 6 
CONTINUOUS
 10 
 30.6818210343679 
 20 
 16.8838882902816 
 30 
 0 
 11 
 33.7205229342354 
 21 
 13.6363658905029 
 31 
 0 
 62 
 7 
 0 
LINE
 8 
TemplateLayer
 6 
CONTINUOUS
 10 
 33.7205229342354 
 20 
 13.6363658905029 
 30 
 0 
 11 
 34.0909120212365 
 21 
 11.9142474616634 
 31 
 0 
 62 
 7 
 0 
LINE
 8 
TemplateLayer
 6 
CONTINUOUS
 10 
 34.0909120212365 
 20 
 11.9142474616634 
 30 
 0 
 11 
 34.5571124529705 
 21 
 10.2272748947144 
 31 
 0 
 62 
 7 
 0 
LINE
 8 
TemplateLayer
 6 
CONTINUOUS
 10 
 34.5571124529705 
 20 
 10.2272748947144 
 30 
 0 
 11 
 35.0426885878687 
 21 
 6.81818389892578 
 31 
 0 
 62 
 7 
 0 
LINE
 8 
TemplateLayer
 6 
CONTINUOUS
 10 
 35.0426885878687 
 20 
 6.81818389892578 
 30 
 0 
 11 
 35.1194455785003 
 21 
 3.40909290313721 
 31 
 0 
 62 
 7 
 0 
LINE
 8 
TemplateLayer
 6 
CONTINUOUS
 10 
 35.1194455785003 
 20 
 3.40909290313721 
 30 
 0 
 11 
 34.8090706009401 
 21 
 1.9073486328125E-06 
 31 
 0 
 62 
 7 
 0 
LINE
 8 
TemplateLayer
 6 
CONTINUOUS
 10 
 34.8090706009401 
 20 
 1.9073486328125E-06 
 30 
 0 
 11 
 35.1194455662624 
 21 
-3.40908908843994 
 31 
 0 
 62 
 7 
 0 
LINE
 8 
TemplateLayer
 6 
CONTINUOUS
 10 
 35.1194455662624 
 20 
-3.40908908843994 
 30 
 0 
 11 
 35.0426885633929 
 21 
-6.81818008422852 
 31 
 0 
 62 
 7 
 0 
LINE
 8 
TemplateLayer
 6 
CONTINUOUS
 10 
 35.0426885633929 
 20 
-6.81818008422852 
 30 
 0 
 11 
 34.5571124162567 
 21 
-10.2272710800171 
 31 
 0 
 62 
 7 
 0 
LINE
 8 
TemplateLayer
 6 
CONTINUOUS
 10 
 34.5571124162567 
 20 
-10.2272710800171 
 30 
 0 
 11 
 34.0909119784668 
 21 
-11.9142436469662 
 31 
 0 
 62 
 7 
 0 
LINE
 8 
TemplateLayer
 6 
CONTINUOUS
 10 
 34.0909119784668 
 20 
-11.9142436469662 
 30 
 0 
 11 
 33.7205228852837 
 21 
-13.6363620758057 
 31 
 0 
 62 
 7 
 0 
LINE
 8 
TemplateLayer
 6 
CONTINUOUS
 10 
 33.7205228852837 
 20 
-13.6363620758057 
 30 
 0 
 11 
 30.6818209737582 
 21 
-16.8838844755843 
 31 
 0 
 62 
 7 
 0 
LINE
 8 
TemplateLayer
 6 
CONTINUOUS
 10 
 30.6818209737582 
 20 
-16.8838844755843 
 30 
 0 
 11 
 30.5489126644807 
 21 
-17.0454530715942 
 31 
 0 
 62 
 7 
 0 
LINE
 8 
TemplateLayer
 6 
CONTINUOUS
 10 
 30.5489126644807 
 20 
-17.0454530715942 
 30 
 0 
 11 
 27.2727299724242 
 21 
-19.9734700358194 
 31 
 0 
 62 
 7 
 0 
LINE
 8 
TemplateLayer
 6 
CONTINUOUS
 10 
 27.2727299724242 
 20 
-19.9734700358194 
 30 
 0 
 11 
 26.7706636541666 
 21 
-20.4545440673828 
 31 
 0 
 62 
 7 
 0 
LINE
 8 
TemplateLayer
 6 
CONTINUOUS
 10 
 26.7706636541666 
 20 
-20.4545440673828 
 30 
 0 
 11 
 23.8636389718028 
 21 
-22.6659737844731 
 31 
 0 
 62 
 7 
 0 
LINE
 8 
TemplateLayer
 6 
CONTINUOUS
 10 
 23.8636389718028 
 20 
-22.6659737844731 
 30 
 0 
 11 
 21.7149811305745 
 21 
-23.8636350631714 
 31 
 0 
 62 
 7 
 0 
LINE
 8 
TemplateLayer
 6 
CONTINUOUS
 10 
 21.7149811305745 
 20 
-23.8636350631714 
 30 
 0 
 11 
 20.454547972451 
 21 
-24.6511614482914 
 31 
 0 
 62 
 7 
 0 
LINE
 8 
TemplateLayer
 6 
CONTINUOUS
 10 
 20.454547972451 
 20 
-24.6511614482914 
 30 
 0 
 11 
 17.0454569745876 
 21 
-25.8071725060368 
 31 
 0 
 62 
 7 
 0 
LINE
 8 
TemplateLayer
 6 
CONTINUOUS
 10 
 17.0454569745876 
 20 
-25.8071725060368 
 30 
 0 
 11 
 13.6363659780704 
 21 
-26.2131010699505 
 31 
 0 
 62 
 7 
 0 
LINE
 8 
TemplateLayer
 6 
CONTINUOUS
 10 
 13.6363659780704 
 20 
-26.2131010699505 
 30 
 0 
 11 
 10.2272749815503 
 21 
-26.6206584927084 
 31 
 0 
 62 
 7 
 0 
LINE
 8 
TemplateLayer
 6 
CONTINUOUS
 10 
 10.2272749815503 
 20 
-26.6206584927084 
 30 
 0 
 11 
 6.81818398514529 
 21 
-26.9640840878462 
 31 
 0 
 62 
 7 
 0 
LINE
 8 
TemplateLayer
 6 
CONTINUOUS
 10 
 6.81818398514529 
 20 
-26.9640840878462 
 30 
 0 
 11 
 3.4090929893484 
 21 
-26.9687158528273 
 31 
 0 
 62 
 7 
 0 
LINE
 8 
TemplateLayer
 6 
CONTINUOUS
 10 
 3.4090929893484 
 20 
-26.9687158528273 
 30 
 0 
 11 
 1.99372966933065E-06 
 21 
-26.8740918411703 
 31 
 0 
 62 
 7 
 0 
LINE
 8 
TemplateLayer
 6 
CONTINUOUS
 10 
 1.99372966933065E-06 
 20 
-26.8740918411703 
 30 
 0 
 11 
-3.40908900222875 
 21 
-26.9687158528273 
 31 
 0 
 62 
 7 
 0 
LINE
 8 
TemplateLayer
 6 
CONTINUOUS
 10 
-3.40908900222875 
 20 
-26.9687158528273 
 30 
 0 
 11 
-6.81817999800901 
 21 
-26.9640840878462 
 31 
 0 
 62 
 7 
 0 
LINE
 8 
TemplateLayer
 6 
CONTINUOUS
 10 
-6.81817999800901 
 20 
-26.9640840878462 
 30 
 0 
 11 
-10.2272709931812 
 21 
-26.6206584927084 
 31 
 0 
 62 
 7 
 0 
LINE
 8 
TemplateLayer
 6 
CONTINUOUS
 10 
-10.2272709931812 
 20 
-26.6206584927084 
 30 
 0 
 11 
-13.6363619882382 
 21 
-26.2131010699505 
 31 
 0 
 62 
 7 
 0 
LINE
 8 
TemplateLayer
 6 
CONTINUOUS
 10 
-13.6363619882382 
 20 
-26.2131010699505 
 30 
 0 
 11 
-17.0454529832982 
 21 
-25.8071725060368 
 31 
 0 
 62 
 7 
 0 
LINE
 8 
TemplateLayer
 6 
CONTINUOUS
 10 
-17.0454529832982 
 20 
-25.8071725060368 
 30 
 0 
 11 
-20.4545439770118 
 21 
-24.6511614482914 
 31 
 0 
 62 
 7 
 0 
LINE
 8 
TemplateLayer
 6 
CONTINUOUS
 10 
-20.4545439770118 
 20 
-24.6511614482914 
 30 
 0 
 11 
-21.7149771323082 
 21 
-23.8636350631714 
 31 
 0 
 62 
 7 
 0 
LINE
 8 
TemplateLayer
 6 
CONTINUOUS
 10 
-21.7149771323082 
 20 
-23.8636350631714 
 30 
 0 
 11 
-23.8636349692372 
 21 
-22.6659737844731 
 31 
 0 
 62 
 7 
 0 
LINE
 8 
TemplateLayer
 6 
CONTINUOUS
 10 
-23.8636349692372 
 20 
-22.6659737844731 
 30 
 0 
 11 
-26.7706596436624 
 21 
-20.4545440673828 
 31 
 0 
 62 
 7 
 0 
LINE
 8 
TemplateLayer
 6 
CONTINUOUS
 10 
-26.7706596436624 
 20 
-20.4545440673828 
 30 
 0 
 11 
-27.272725960193 
 21 
-19.9734700358194 
 31 
 0 
 62 
 7 
 0 
LINE
 8 
TemplateLayer
 6 
CONTINUOUS
 10 
-27.272725960193 
 20 
-19.9734700358194 
 30 
 0 
 11 
-30.5489086417385 
 21 
-17.0454530715942 
 31 
 0 
 62 
 7 
 0 
LINE
 8 
TemplateLayer
 6 
CONTINUOUS
 10 
-30.5489086417385 
 20 
-17.0454530715942 
 30 
 0 
 11 
-30.6818169504361 
 21 
-16.8838844755843 
 31 
 0 
 62 
 7 
 0 
LINE
 8 
TemplateLayer
 6 
CONTINUOUS
 10 
-30.6818169504361 
 20 
-16.8838844755843 
 30 
 0 
 11 
-33.7205188503036 
 21 
-13.6363620758057 
 31 
 0 
 62 
 7 
 0 
LINE
 8 
TemplateLayer
 6 
CONTINUOUS
 10 
-33.7205188503036 
 20 
-13.6363620758057 
 30 
 0 
 11 
-34.0909079373047 
 21 
-11.9142436469662 
 31 
 0 
 62 
 7 
 0 
LINE
 8 
TemplateLayer
 6 
CONTINUOUS
 10 
-34.0909079373047 
 20 
-11.9142436469662 
 30 
 0 
 11 
-34.5571083690387 
 21 
-10.2272710800171 
 31 
 0 
 62 
 7 
 0 
LINE
 8 
TemplateLayer
 6 
CONTINUOUS
 10 
-27.8967946537106 
 20 
-13.6363620758057 
 30 
 0 
 11 
-29.563507639454 
 21 
-10.2272710800171 
 31 
 0 
 62 
 1 
 0 
LINE
 8 
TemplateLayer
 6 
CONTINUOUS
 10 
-29.563507639454 
 20 
-10.2272710800171 
 30 
 0 
 11 
-30.0721518257346 
 21 
-6.81818008422852 
 31 
 0 
 62 
 1 
 0 
LINE
 8 
TemplateLayer
 6 
CONTINUOUS
 10 
-30.0721518257346 
 20 
-6.81818008422852 
 30 
 0 
 11 
-30.2166962626252 
 21 
-3.40908908843994 
 31 
 0 
 62 
 1 
 0 
LINE
 8 
TemplateLayer
 6 
CONTINUOUS
 10 
-30.2166962626252 
 20 
-3.40908908843994 
 30 
 0 
 11 
-30.003419186621 
 21 
 1.9073486328125E-06 
 31 
 0 
 62 
 1 
 0 
LINE
 8 
TemplateLayer
 6 
CONTINUOUS
 10 
-30.003419186621 
 20 
 1.9073486328125E-06 
 30 
 0 
 11 
-30.2166962503872 
 21 
 3.40909290313721 
 31 
 0 
 62 
 1 
 0 
LINE
 8 
TemplateLayer
 6 
CONTINUOUS
 10 
-30.2166962503872 
 20 
 3.40909290313721 
 30 
 0 
 11 
-30.0721518012587 
 21 
 6.81818389892578 
 31 
 0 
 62 
 1 
 0 
LINE
 8 
TemplateLayer
 6 
CONTINUOUS
 10 
-30.0721518012587 
 20 
 6.81818389892578 
 30 
 0 
 11 
-29.5635076027402 
 21 
 10.2272748947144 
 31 
 0 
 62 
 1 
 0 
LINE
 8 
TemplateLayer
 6 
CONTINUOUS
 10 
-29.5635076027402 
 20 
 10.2272748947144 
 30 
 0 
 11 
-27.8967946047589 
 21 
 13.6363658905029 
 31 
 0 
 62 
 1 
 0 
LINE
 8 
TemplateLayer
 6 
CONTINUOUS
 10 
-27.8967946047589 
 20 
 13.6363658905029 
 30 
 0 
 11 
-27.2727258985877 
 21 
 14.3490308196578 
 31 
 0 
 62 
 1 
 0 
LINE
 8 
TemplateLayer
 6 
CONTINUOUS
 10 
-27.2727258985877 
 20 
 14.3490308196578 
 30 
 0 
 11 
-25.2345073369725 
 21 
 17.0454568862915 
 31 
 0 
 62 
 1 
 0 
LINE
 8 
TemplateLayer
 6 
CONTINUOUS
 10 
-25.2345073369725 
 20 
 17.0454568862915 
 30 
 0 
 11 
-23.8636348955664 
 21 
 18.3785989556791 
 31 
 0 
 62 
 1 
 0 
LINE
 8 
TemplateLayer
 6 
CONTINUOUS
 10 
-23.8636348955664 
 20 
 18.3785989556791 
 30 
 0 
 11 
-21.6036754857356 
 21 
 20.4545478820801 
 31 
 0 
 62 
 1 
 0 
LINE
 8 
TemplateLayer
 6 
CONTINUOUS
 10 
-21.6036754857356 
 20 
 20.4545478820801 
 30 
 0 
 11 
-20.454543894578 
 21 
 21.2756490606102 
 31 
 0 
 62 
 1 
 0 
LINE
 8 
TemplateLayer
 6 
CONTINUOUS
 10 
-20.454543894578 
 20 
 21.2756490606102 
 30 
 0 
 11 
-17.0454528960761 
 21 
 22.7873068249049 
 31 
 0 
 62 
 1 
 0 
LINE
 8 
TemplateLayer
 6 
CONTINUOUS
 10 
-17.0454528960761 
 20 
 22.7873068249049 
 30 
 0 
 11 
-13.636361898944 
 21 
 23.5358416777862 
 31 
 0 
 62 
 1 
 0 
LINE
 8 
TemplateLayer
 6 
CONTINUOUS
 10 
-13.636361898944 
 20 
 23.5358416777862 
 30 
 0 
 11 
-12.2065622716912 
 21 
 23.8636388778687 
 31 
 0 
 62 
 1 
 0 
LINE
 8 
TemplateLayer
 6 
CONTINUOUS
 10 
-12.2065622716912 
 20 
 23.8636388778687 
 30 
 0 
 11 
-10.227270901276 
 21 
 24.5829509920705 
 31 
 0 
 62 
 1 
 0 
LINE
 8 
TemplateLayer
 6 
CONTINUOUS
 10 
-10.227270901276 
 20 
 24.5829509920705 
 30 
 0 
 11 
-6.8181799037316 
 21 
 25.5611698235196 
 31 
 0 
 62 
 1 
 0 
LINE
 8 
TemplateLayer
 6 
CONTINUOUS
 10 
-6.8181799037316 
 20 
 25.5611698235196 
 30 
 0 
 11 
-3.40908890749931 
 21 
 25.8083755257143 
 31 
 0 
 62 
 1 
 0 
LINE
 8 
TemplateLayer
 6 
CONTINUOUS
 10 
-3.40908890749931 
 20 
 25.8083755257143 
 30 
 0 
 11 
 2.0880789500799E-06 
 21 
 25.6912049323906 
 31 
 0 
 62 
 1 
 0 
LINE
 8 
TemplateLayer
 6 
CONTINUOUS
 10 
 2.0880789500799E-06 
 20 
 25.6912049323906 
 30 
 0 
 11 
 3.40909308407783 
 21 
 25.8083755257143 
 31 
 0 
 62 
 1 
 0 
LINE
 8 
TemplateLayer
 6 
CONTINUOUS
 10 
 3.40909308407783 
 20 
 25.8083755257143 
 30 
 0 
 11 
 6.8181840794227 
 21 
 25.5611698235196 
 31 
 0 
 62 
 1 
 0 
LINE
 8 
TemplateLayer
 6 
CONTINUOUS
 10 
 6.8181840794227 
 20 
 25.5611698235196 
 30 
 0 
 11 
 10.2272750734555 
 21 
 24.5829509920705 
 31 
 0 
 62 
 1 
 0 
LINE
 8 
TemplateLayer
 6 
CONTINUOUS
 10 
 10.2272750734555 
 20 
 24.5829509920705 
 30 
 0 
 11 
 12.2065664412885 
 21 
 23.8636388778687 
 31 
 0 
 62 
 1 
 0 
LINE
 8 
TemplateLayer
 6 
CONTINUOUS
 10 
 12.2065664412885 
 20 
 23.8636388778687 
 30 
 0 
 11 
 13.6363660673646 
 21 
 23.5358416777862 
 31 
 0 
 62 
 1 
 0 
LINE
 8 
TemplateLayer
 6 
CONTINUOUS
 10 
 13.6363660673646 
 20 
 23.5358416777862 
 30 
 0 
 11 
 17.0454570618096 
 21 
 22.7873068249049 
 31 
 0 
 62 
 1 
 0 
LINE
 8 
TemplateLayer
 6 
CONTINUOUS
 10 
 17.0454570618096 
 20 
 22.7873068249049 
 30 
 0 
 11 
 20.4545480548849 
 21 
 21.2756490606102 
 31 
 0 
 62 
 1 
 0 
LINE
 8 
TemplateLayer
 6 
CONTINUOUS
 10 
 20.4545480548849 
 20 
 21.2756490606102 
 30 
 0 
 11 
 21.603679643095 
 21 
 20.4545478820801 
 31 
 0 
 62 
 1 
 0 
LINE
 8 
TemplateLayer
 6 
CONTINUOUS
 10 
 21.603679643095 
 20 
 20.4545478820801 
 30 
 0 
 11 
 23.8636390454736 
 21 
 18.3785989556791 
 31 
 0 
 62 
 1 
 0 
LINE
 8 
TemplateLayer
 6 
CONTINUOUS
 10 
 23.8636390454736 
 20 
 18.3785989556791 
 30 
 0 
 11 
 25.234511482094 
 21 
 17.0454568862915 
 31 
 0 
 62 
 1 
 0 
LINE
 8 
TemplateLayer
 6 
CONTINUOUS
 10 
 25.234511482094 
 20 
 17.0454568862915 
 30 
 0 
 11 
 27.2727300340295 
 21 
 14.3490308196578 
 31 
 0 
 62 
 1 
 0 
LINE
 8 
TemplateLayer
 6 
CONTINUOUS
 10 
 27.2727300340295 
 20 
 14.3490308196578 
 30 
 0 
 11 
 27.8967987376424 
 21 
 13.6363658905029 
 31 
 0 
 62 
 1 
 0 
LINE
 8 
TemplateLayer
 6 
CONTINUOUS
 10 
 27.8967987376424 
 20 
 13.6363658905029 
 30 
 0 
 11 
 29.5635117233858 
 21 
 10.2272748947144 
 31 
 0 
 62 
 1 
 0 
LINE
 8 
TemplateLayer
 6 
CONTINUOUS
 10 
 29.5635117233858 
 20 
 10.2272748947144 
 30 
 0 
 11 
 30.0721559096664 
 21 
 6.81818389892578 
 31 
 0 
 62 
 1 
 0 
LINE
 8 
TemplateLayer
 6 
CONTINUOUS
 10 
 30.0721559096664 
 20 
 6.81818389892578 
 30 
 0 
 11 
 30.2167003465569 
 21 
 3.40909290313721 
 31 
 0 
 62 
 1 
 0 
LINE
 8 
TemplateLayer
 6 
CONTINUOUS
 10 
 30.2167003465569 
 20 
 3.40909290313721 
 30 
 0 
 11 
 30.0034232705528 
 21 
 1.9073486328125E-06 
 31 
 0 
 62 
 1 
 0 
LINE
 8 
TemplateLayer
 6 
CONTINUOUS
 10 
 30.0034232705528 
 20 
 1.9073486328125E-06 
 30 
 0 
 11 
 30.216700334319 
 21 
-3.40908908843994 
 31 
 0 
 62 
 1 
 0 
LINE
 8 
TemplateLayer
 6 
CONTINUOUS
 10 
 30.216700334319 
 20 
-3.40908908843994 
 30 
 0 
 11 
 30.0721558851905 
 21 
-6.81818008422852 
 31 
 0 
 62 
 1 
 0 
LINE
 8 
TemplateLayer
 6 
CONTINUOUS
 10 
 30.0721558851905 
 20 
-6.81818008422852 
 30 
 0 
 11 
 29.563511686672 
 21 
-10.2272710800171 
 31 
 0 
 62 
 1 
 0 
LINE
 8 
TemplateLayer
 6 
CONTINUOUS
 10 
 29.563511686672 
 20 
-10.2272710800171 
 30 
 0 
 11 
 27.8967986886907 
 21 
-13.6363620758057 
 31 
 0 
 62 
 1 
 0 
LINE
 8 
TemplateLayer
 6 
CONTINUOUS
 10 
 27.8967986886907 
 20 
-13.6363620758057 
 30 
 0 
 11 
 27.2727299825195 
 21 
-14.3490270049605 
 31 
 0 
 62 
 1 
 0 
LINE
 8 
TemplateLayer
 6 
CONTINUOUS
 10 
 27.2727299825195 
 20 
-14.3490270049605 
 30 
 0 
 11 
 25.2345114209043 
 21 
-17.0454530715942 
 31 
 0 
 62 
 1 
 0 
LINE
 8 
TemplateLayer
 6 
CONTINUOUS
 10 
 25.2345114209043 
 20 
-17.0454530715942 
 30 
 0 
 11 
 23.8636389794982 
 21 
-18.3785951409818 
 31 
 0 
 62 
 1 
 0 
LINE
 8 
TemplateLayer
 6 
CONTINUOUS
 10 
 23.8636389794982 
 20 
-18.3785951409818 
 30 
 0 
 11 
 21.6036795696674 
 21 
-20.4545440673828 
 31 
 0 
 62 
 1 
 0 
LINE
 8 
TemplateLayer
 6 
CONTINUOUS
 10 
 21.6036795696674 
 20 
-20.4545440673828 
 30 
 0 
 11 
 20.4545479785097 
 21 
-21.2756452459129 
 31 
 0 
 62 
 1 
 0 
LINE
 8 
TemplateLayer
 6 
CONTINUOUS
 10 
 20.4545479785097 
 20 
-21.2756452459129 
 30 
 0 
 11 
 17.0454569800079 
 21 
-22.7873030102076 
 31 
 0 
 62 
 1 
 0 
LINE
 8 
TemplateLayer
 6 
CONTINUOUS
 10 
 17.0454569800079 
 20 
-22.7873030102076 
 30 
 0 
 11 
 13.6363659828758 
 21 
-23.5358378630889 
 31 
 0 
 62 
 1 
 0 
LINE
 8 
TemplateLayer
 6 
CONTINUOUS
 10 
 13.6363659828758 
 20 
-23.5358378630889 
 30 
 0 
 11 
 12.206566355623 
 21 
-23.8636350631714 
 31 
 0 
 62 
 1 
 0 
LINE
 8 
TemplateLayer
 6 
CONTINUOUS
 10 
 12.206566355623 
 20 
-23.8636350631714 
 30 
 0 
 11 
 10.2272749852078 
 21 
-24.5829471773733 
 31 
 0 
 62 
 1 
 0 
LINE
 8 
TemplateLayer
 6 
CONTINUOUS
 10 
 10.2272749852078 
 20 
-24.5829471773733 
 30 
 0 
 11 
 6.81818398766338 
 21 
-25.5611660088224 
 31 
 0 
 62 
 1 
 0 
LINE
 8 
TemplateLayer
 6 
CONTINUOUS
 10 
 6.81818398766338 
 20 
-25.5611660088224 
 30 
 0 
 11 
 3.4090929914311 
 21 
-25.808371711017 
 31 
 0 
 62 
 1 
 0 
LINE
 8 
TemplateLayer
 6 
CONTINUOUS
 10 
 3.4090929914311 
 20 
-25.808371711017 
 30 
 0 
 11 
 1.99585283605641E-06 
 21 
-25.6912011176933 
 31 
 0 
 62 
 1 
 0 
LINE
 8 
TemplateLayer
 6 
CONTINUOUS
 10 
 1.99585283605641E-06 
 20 
-25.6912011176933 
 30 
 0 
 11 
-3.40908900014605 
 21 
-25.808371711017 
 31 
 0 
 62 
 1 
 0 
LINE
 8 
TemplateLayer
 6 
CONTINUOUS
 10 
-3.40908900014605 
 20 
-25.808371711017 
 30 
 0 
 11 
-6.81817999549091 
 21 
-25.5611660088224 
 31 
 0 
 62 
 1 
 0 
LINE
 8 
TemplateLayer
 6 
CONTINUOUS
 10 
-6.81817999549091 
 20 
-25.5611660088224 
 30 
 0 
 11 
-10.2272709895237 
 21 
-24.5829471773733 
 31 
 0 
 62 
 1 
 0 
LINE
 8 
TemplateLayer
 6 
CONTINUOUS
 10 
-10.2272709895237 
 20 
-24.5829471773733 
 30 
 0 
 11 
-12.2065623573567 
 21 
-23.8636350631714 
 31 
 0 
 62 
 1 
 0 
LINE
 8 
TemplateLayer
 6 
CONTINUOUS
 10 
-12.2065623573567 
 20 
-23.8636350631714 
 30 
 0 
 11 
-13.6363619834328 
 21 
-23.5358378630889 
 31 
 0 
 62 
 1 
 0 
LINE
 8 
TemplateLayer
 6 
CONTINUOUS
 10 
-13.6363619834328 
 20 
-23.5358378630889 
 30 
 0 
 11 
-17.0454529778778 
 21 
-22.7873030102076 
 31 
 0 
 62 
 1 
 0 
LINE
 8 
TemplateLayer
 6 
CONTINUOUS
 10 
-17.0454529778778 
 20 
-22.7873030102076 
 30 
 0 
 11 
-20.4545439709531 
 21 
-21.2756452459129 
 31 
 0 
 62 
 1 
 0 
LINE
 8 
TemplateLayer
 6 
CONTINUOUS
 10 
-20.4545439709531 
 20 
-21.2756452459129 
 30 
 0 
 11 
-21.6036755591632 
 21 
-20.4545440673828 
 31 
 0 
 62 
 1 
 0 
LINE
 8 
TemplateLayer
 6 
CONTINUOUS
 10 
-21.6036755591632 
 20 
-20.4545440673828 
 30 
 0 
 11 
-23.8636349615418 
 21 
-18.3785951409818 
 31 
 0 
 62 
 1 
 0 
LINE
 8 
TemplateLayer
 6 
CONTINUOUS
 10 
-23.8636349615418 
 20 
-18.3785951409818 
 30 
 0 
 11 
-25.2345073981622 
 21 
-17.0454530715942 
 31 
 0 
 62 
 1 
 0 
LINE
 8 
TemplateLayer
 6 
CONTINUOUS
 10 
-25.2345073981622 
 20 
-17.0454530715942 
 30 
 0 
 11 
-27.2727259500977 
 21 
-14.3490270049605 
 31 
 0 
 62 
 1 
 0 
LINE
 8 
TemplateLayer
 6 
CONTINUOUS
 10 
-27.2727259500977 
 20 
-14.3490270049605 
 30 
 0 
 11 
-27.8967946537106 
 21 
-13.6363620758057 
 31 
 0 
 62 
 1 
 0 
LINE
 8 
TemplateLayer
 6 
CONTINUOUS
 10 
-24.1016718861116 
 20 
-3.40908908843994 
 30 
 0 
 11 
-23.8636349289541 
 21 
-0.222811980307512 
 31 
 0 
 62 
 3 
 0 
LINE
 8 
TemplateLayer
 6 
CONTINUOUS
 10 
-23.8636349289541 
 20 
-0.222811980307512 
 30 
 0 
 11 
-23.8545368580558 
 21 
 1.9073486328125E-06 
 31 
 0 
 62 
 3 
 0 
LINE
 8 
TemplateLayer
 6 
CONTINUOUS
 10 
-23.8545368580558 
 20 
 1.9073486328125E-06 
 30 
 0 
 11 
-23.8636349281542 
 21 
 0.222815795004777 
 31 
 0 
 62 
 3 
 0 
LINE
 8 
TemplateLayer
 6 
CONTINUOUS
 10 
-23.8636349281542 
 20 
 0.222815795004777 
 30 
 0 
 11 
-24.1016718738737 
 21 
 3.40909290313721 
 31 
 0 
 62 
 3 
 0 
LINE
 8 
TemplateLayer
 6 
CONTINUOUS
 10 
-24.1016718738737 
 20 
 3.40909290313721 
 30 
 0 
 11 
-23.8636349184758 
 21 
 5.61497341919909 
 31 
 0 
 62 
 3 
 0 
LINE
 8 
TemplateLayer
 6 
CONTINUOUS
 10 
-23.8636349184758 
 20 
 5.61497341919909 
 30 
 0 
 11 
-23.7771883811247 
 21 
 6.81818389892578 
 31 
 0 
 62 
 3 
 0 
LINE
 8 
TemplateLayer
 6 
CONTINUOUS
 10 
-23.7771883811247 
 20 
 6.81818389892578 
 30 
 0 
 11 
-22.9879183273878 
 21 
 10.2272748947144 
 31 
 0 
 62 
 3 
 0 
LINE
 8 
TemplateLayer
 6 
CONTINUOUS
 10 
-22.9879183273878 
 20 
 10.2272748947144 
 30 
 0 
 11 
-20.8060163090908 
 21 
 13.6363658905029 
 31 
 0 
 62 
 3 
 0 
LINE
 8 
TemplateLayer
 6 
CONTINUOUS
 10 
-20.8060163090908 
 20 
 13.6363658905029 
 30 
 0 
 11 
-20.4545439075696 
 21 
 14.0375643252197 
 31 
 0 
 62 
 3 
 0 
LINE
 8 
TemplateLayer
 6 
CONTINUOUS
 10 
-20.4545439075696 
 20 
 14.0375643252197 
 30 
 0 
 11 
-17.8803705391827 
 21 
 17.0454568862915 
 31 
 0 
 62 
 3 
 0 
LINE
 8 
TemplateLayer
 6 
CONTINUOUS
 10 
-17.8803705391827 
 20 
 17.0454568862915 
 30 
 0 
 11 
-17.0454529052205 
 21 
 17.6926604864175 
 31 
 0 
 62 
 3 
 0 
LINE
 8 
TemplateLayer
 6 
CONTINUOUS
 10 
-17.0454529052205 
 20 
 17.6926604864175 
 30 
 0 
 11 
-13.6363619055944 
 21 
 19.8306688244475 
 31 
 0 
 62 
 3 
 0 
LINE
 8 
TemplateLayer
 6 
CONTINUOUS
 10 
-13.6363619055944 
 20 
 19.8306688244475 
 30 
 0 
 11 
-12.3344734103451 
 21 
 20.4545478820801 
 31 
 0 
 62 
 3 
 0 
LINE
 8 
TemplateLayer
 6 
CONTINUOUS
 10 
-12.3344734103451 
 20 
 20.4545478820801 
 30 
 0 
 11 
-10.2272709070376 
 21 
 21.372922829636 
 31 
 0 
 62 
 3 
 0 
LINE
 8 
TemplateLayer
 6 
CONTINUOUS
 10 
-10.2272709070376 
 20 
 21.372922829636 
 30 
 0 
 11 
-6.81817990920386 
 21 
 22.5123827337087 
 31 
 0 
 62 
 3 
 0 
LINE
 8 
TemplateLayer
 6 
CONTINUOUS
 10 
-6.81817990920386 
 20 
 22.5123827337087 
 30 
 0 
 11 
-3.40908891256885 
 21 
 22.9839591467455 
 31 
 0 
 62 
 3 
 0 
LINE
 8 
TemplateLayer
 6 
CONTINUOUS
 10 
-3.40908891256885 
 20 
 22.9839591467455 
 30 
 0 
 11 
 2.08319478525038E-06 
 21 
 22.9700652275386 
 31 
 0 
 62 
 3 
 0 
LINE
 8 
TemplateLayer
 6 
CONTINUOUS
 10 
 2.08319478525038E-06 
 20 
 22.9700652275386 
 30 
 0 
 11 
 3.4090930790083 
 21 
 22.9839591467455 
 31 
 0 
 62 
 3 
 0 
LINE
 8 
TemplateLayer
 6 
CONTINUOUS
 10 
 3.4090930790083 
 20 
 22.9839591467455 
 30 
 0 
 11 
 6.81818407395044 
 21 
 22.5123827337087 
 31 
 0 
 62 
 3 
 0 
LINE
 8 
TemplateLayer
 6 
CONTINUOUS
 10 
 6.81818407395044 
 20 
 22.5123827337087 
 30 
 0 
 11 
 10.2272750676938 
 21 
 21.372922829636 
 31 
 0 
 62 
 3 
 0 
LINE
 8 
TemplateLayer
 6 
CONTINUOUS
 10 
 10.2272750676938 
 20 
 21.372922829636 
 30 
 0 
 11 
 12.3344775677044 
 21 
 20.4545478820801 
 31 
 0 
 62 
 3 
 0 
LINE
 8 
TemplateLayer
 6 
CONTINUOUS
 10 
 12.3344775677044 
 20 
 20.4545478820801 
 30 
 0 
 11 
 13.6363660607142 
 21 
 19.8306688244475 
 31 
 0 
 62 
 3 
 0 
LINE
 8 
TemplateLayer
 6 
CONTINUOUS
 10 
 13.6363660607142 
 20 
 19.8306688244475 
 30 
 0 
 11 
 17.0454570526653 
 21 
 17.6926604864175 
 31 
 0 
 62 
 3 
 0 
LINE
 8 
TemplateLayer
 6 
CONTINUOUS
 10 
 17.0454570526653 
 20 
 17.6926604864175 
 30 
 0 
 11 
 17.8803746843041 
 21 
 17.0454568862915 
 31 
 0 
 62 
 3 
 0 
LINE
 8 
TemplateLayer
 6 
CONTINUOUS
 10 
 17.8803746843041 
 20 
 17.0454568862915 
 30 
 0 
 11 
 20.4545480418933 
 21 
 14.0375643252197 
 31 
 0 
 62 
 3 
 0 
LINE
 8 
TemplateLayer
 6 
CONTINUOUS
 10 
 20.4545480418933 
 20 
 14.0375643252197 
 30 
 0 
 11 
 20.8060204419743 
 21 
 13.6363658905029 
 31 
 0 
 62 
 3 
 0 
LINE
 8 
TemplateLayer
 6 
CONTINUOUS
 10 
 20.8060204419743 
 20 
 13.6363658905029 
 30 
 0 
 11 
 22.9879224480334 
 21 
 10.2272748947144 
 31 
 0 
 62 
 3 
 0 
LINE
 8 
TemplateLayer
 6 
CONTINUOUS
 10 
 22.9879224480334 
 20 
 10.2272748947144 
 30 
 0 
 11 
 23.7771924895324 
 21 
 6.81818389892578 
 31 
 0 
 62 
 3 
 0 
LINE
 8 
TemplateLayer
 6 
CONTINUOUS
 10 
 23.7771924895324 
 20 
 6.81818389892578 
 30 
 0 
 11 
 23.8636390225642 
 21 
 5.61497341919909 
 31 
 0 
 62 
 3 
 0 
LINE
 8 
TemplateLayer
 6 
CONTINUOUS
 10 
 23.8636390225642 
 20 
 5.61497341919909 
 30 
 0 
 11 
 24.1016759700434 
 21 
 3.40909290313721 
 31 
 0 
 62 
 3 
 0 
LINE
 8 
TemplateLayer
 6 
CONTINUOUS
 10 
 24.1016759700434 
 20 
 3.40909290313721 
 30 
 0 
 11 
 23.8636390128858 
 21 
 0.222815795004777 
 31 
 0 
 62 
 3 
 0 
LINE
 8 
TemplateLayer
 6 
CONTINUOUS
 10 
 23.8636390128858 
 20 
 0.222815795004777 
 30 
 0 
 11 
 23.8545409419876 
 21 
 1.9073486328125E-06 
 31 
 0 
 62 
 3 
 0 
LINE
 8 
TemplateLayer
 6 
CONTINUOUS
 10 
 23.8545409419876 
 20 
 1.9073486328125E-06 
 30 
 0 
 11 
 23.863639012086 
 21 
-0.222811980307512 
 31 
 0 
 62 
 3 
 0 
LINE
 8 
TemplateLayer
 6 
CONTINUOUS
 10 
 23.863639012086 
 20 
-0.222811980307512 
 30 
 0 
 11 
 24.1016759578055 
 21 
-3.40908908843994 
 31 
 0 
 62 
 3 
 0 
LINE
 8 
TemplateLayer
 6 
CONTINUOUS
 10 
 24.1016759578055 
 20 
-3.40908908843994 
 30 
 0 
 11 
 23.8636390024076 
 21 
-5.61496960450182 
 31 
 0 
 62 
 3 
 0 
LINE
 8 
TemplateLayer
 6 
CONTINUOUS
 10 
 23.8636390024076 
 20 
-5.61496960450182 
 30 
 0 
 11 
 23.7771924650565 
 21 
-6.81818008422852 
 31 
 0 
 62 
 3 
 0 
LINE
 8 
TemplateLayer
 6 
CONTINUOUS
 10 
 23.7771924650565 
 20 
-6.81818008422852 
 30 
 0 
 11 
 22.9879224113196 
 21 
-10.2272710800171 
 31 
 0 
 62 
 3 
 0 
LINE
 8 
TemplateLayer
 6 
CONTINUOUS
 10 
 22.9879224113196 
 20 
-10.2272710800171 
 30 
 0 
 11 
 20.8060203930226 
 21 
-13.6363620758057 
 31 
 0 
 62 
 3 
 0 
LINE
 8 
TemplateLayer
 6 
CONTINUOUS
 10 
 20.8060203930226 
 20 
-13.6363620758057 
 30 
 0 
 11 
 20.4545479915014 
 21 
-14.0375605105225 
 31 
 0 
 62 
 3 
 0 
LINE
 8 
TemplateLayer
 6 
CONTINUOUS
 10 
 20.4545479915014 
 20 
-14.0375605105225 
 30 
 0 
 11 
 17.8803746231145 
 21 
-17.0454530715942 
 31 
 0 
 62 
 3 
 0 
LINE
 8 
TemplateLayer
 6 
CONTINUOUS
 10 
 17.8803746231145 
 20 
-17.0454530715942 
 30 
 0 
 11 
 17.0454569891523 
 21 
-17.6926566717203 
 31 
 0 
 62 
 3 
 0 
LINE
 8 
TemplateLayer
 6 
CONTINUOUS
 10 
 17.0454569891523 
 20 
-17.6926566717203 
 30 
 0 
 11 
 13.6363659895262 
 21 
-19.8306650097502 
 31 
 0 
 62 
 3 
 0 
LINE
 8 
TemplateLayer
 6 
CONTINUOUS
 10 
 13.6363659895262 
 20 
-19.8306650097502 
 30 
 0 
 11 
 12.3344774942768 
 21 
-20.4545440673828 
 31 
 0 
 62 
 3 
 0 
LINE
 8 
TemplateLayer
 6 
CONTINUOUS
 10 
 12.3344774942768 
 20 
-20.4545440673828 
 30 
 0 
 11 
 10.2272749909694 
 21 
-21.3729190149388 
 31 
 0 
 62 
 3 
 0 
LINE
 8 
TemplateLayer
 6 
CONTINUOUS
 10 
 10.2272749909694 
 20 
-21.3729190149388 
 30 
 0 
 11 
 6.81818399313564 
 21 
-22.5123789190114 
 31 
 0 
 62 
 3 
 0 
LINE
 8 
TemplateLayer
 6 
CONTINUOUS
 10 
 6.81818399313564 
 20 
-22.5123789190114 
 30 
 0 
 11 
 3.40909299650064 
 21 
-22.9839553320482 
 31 
 0 
 62 
 3 
 0 
LINE
 8 
TemplateLayer
 6 
CONTINUOUS
 10 
 3.40909299650064 
 20 
-22.9839553320482 
 30 
 0 
 11 
 2.00073700089287E-06 
 21 
-22.9700614128413 
 31 
 0 
 62 
 3 
 0 
LINE
 8 
TemplateLayer
 6 
CONTINUOUS
 10 
 2.00073700089287E-06 
 20 
-22.9700614128413 
 30 
 0 
 11 
-3.40908899507651 
 21 
-22.9839553320482 
 31 
 0 
 62 
 3 
 0 
LINE
 8 
TemplateLayer
 6 
CONTINUOUS
 10 
-3.40908899507651 
 20 
-22.9839553320482 
 30 
 0 
 11 
-6.81817999001865 
 21 
-22.5123789190114 
 31 
 0 
 62 
 3 
 0 
LINE
 8 
TemplateLayer
 6 
CONTINUOUS
 10 
-6.81817999001865 
 20 
-22.5123789190114 
 30 
 0 
 11 
-10.227270983762 
 21 
-21.3729190149388 
 31 
 0 
 62 
 3 
 0 
LINE
 8 
TemplateLayer
 6 
CONTINUOUS
 10 
-10.227270983762 
 20 
-21.3729190149388 
 30 
 0 
 11 
-12.3344734837727 
 21 
-20.4545440673828 
 31 
 0 
 62 
 3 
 0 
LINE
 8 
TemplateLayer
 6 
CONTINUOUS
 10 
-12.3344734837727 
 20 
-20.4545440673828 
 30 
 0 
 11 
-13.6363619767824 
 21 
-19.8306650097502 
 31 
 0 
 62 
 3 
 0 
LINE
 8 
TemplateLayer
 6 
CONTINUOUS
 10 
-13.6363619767824 
 20 
-19.8306650097502 
 30 
 0 
 11 
-17.0454529687335 
 21 
-17.6926566717203 
 31 
 0 
 62 
 3 
 0 
LINE
 8 
TemplateLayer
 6 
CONTINUOUS
 10 
-17.0454529687335 
 20 
-17.6926566717203 
 30 
 0 
 11 
-17.8803706003723 
 21 
-17.0454530715942 
 31 
 0 
 62 
 3 
 0 
LINE
 8 
TemplateLayer
 6 
CONTINUOUS
 10 
-17.8803706003723 
 20 
-17.0454530715942 
 30 
 0 
 11 
-20.4545439579615 
 21 
-14.0375605105225 
 31 
 0 
 62 
 3 
 0 
LINE
 8 
TemplateLayer
 6 
CONTINUOUS
 10 
-20.4545439579615 
 20 
-14.0375605105225 
 30 
 0 
 11 
-20.8060163580425 
 21 
-13.6363620758057 
 31 
 0 
 62 
 3 
 0 
LINE
 8 
TemplateLayer
 6 
CONTINUOUS
 10 
-20.8060163580425 
 20 
-13.6363620758057 
 30 
 0 
 11 
-22.9879183641016 
 21 
-10.2272710800171 
 31 
 0 
 62 
 3 
 0 
LINE
 8 
TemplateLayer
 6 
CONTINUOUS
 10 
-22.9879183641016 
 20 
-10.2272710800171 
 30 
 0 
 11 
-23.7771884056006 
 21 
-6.81818008422852 
 31 
 0 
 62 
 3 
 0 
LINE
 8 
TemplateLayer
 6 
CONTINUOUS
 10 
-23.7771884056006 
 20 
-6.81818008422852 
 30 
 0 
 11 
-23.8636349386324 
 21 
-5.61496960450182 
 31 
 0 
 62 
 3 
 0 
LINE
 8 
TemplateLayer
 6 
CONTINUOUS
 10 
-23.8636349386324 
 20 
-5.61496960450182 
 30 
 0 
 11 
-24.1016718861116 
 21 
-3.40908908843994 
 31 
 0 
 62 
 3 
 0 
LINE
 8 
TemplateLayer
 6 
CONTINUOUS
 10 
-17.6583135254129 
 20 
-10.2272710800171 
 30 
 0 
 11 
-19.2011003756474 
 21 
-6.81818008422852 
 31 
 0 
 62 
 5 
 0 
LINE
 8 
TemplateLayer
 6 
CONTINUOUS
 10 
-19.2011003756474 
 20 
-6.81818008422852 
 30 
 0 
 11 
-19.8233916410039 
 21 
-3.40908908843994 
 31 
 0 
 62 
 5 
 0 
LINE
 8 
TemplateLayer
 6 
CONTINUOUS
 10 
-19.8233916410039 
 20 
-3.40908908843994 
 30 
 0 
 11 
-19.8868116856909 
 21 
 1.9073486328125E-06 
 31 
 0 
 62 
 5 
 0 
LINE
 8 
TemplateLayer
 6 
CONTINUOUS
 10 
-19.8868116856909 
 20 
 1.9073486328125E-06 
 30 
 0 
 11 
-19.8233916287659 
 21 
 3.40909290313721 
 31 
 0 
 62 
 5 
 0 
LINE
 8 
TemplateLayer
 6 
CONTINUOUS
 10 
-19.8233916287659 
 20 
 3.40909290313721 
 30 
 0 
 11 
-19.2011003511716 
 21 
 6.81818389892578 
 31 
 0 
 62 
 5 
 0 
LINE
 8 
TemplateLayer
 6 
CONTINUOUS
 10 
-19.2011003511716 
 20 
 6.81818389892578 
 30 
 0 
 11 
-17.6583134886991 
 21 
 10.2272748947144 
 31 
 0 
 62 
 5 
 0 
LINE
 8 
TemplateLayer
 6 
CONTINUOUS
 10 
-17.6583134886991 
 20 
 10.2272748947144 
 30 
 0 
 11 
-17.0454529171095 
 21 
 11.06889422989 
 31 
 0 
 62 
 5 
 0 
LINE
 8 
TemplateLayer
 6 
CONTINUOUS
 10 
-17.0454529171095 
 20 
 11.06889422989 
 30 
 0 
 11 
-15.4674935619916 
 21 
 13.6363658905029 
 31 
 0 
 62 
 5 
 0 
LINE
 8 
TemplateLayer
 6 
CONTINUOUS
 10 
-15.4674935619916 
 20 
 13.6363658905029 
 30 
 0 
 11 
-13.6363619135205 
 21 
 15.4147458342611 
 31 
 0 
 62 
 5 
 0 
LINE
 8 
TemplateLayer
 6 
CONTINUOUS
 10 
-13.6363619135205 
 20 
 15.4147458342611 
 30 
 0 
 11 
-11.0608523042626 
 21 
 17.0454568862915 
 31 
 0 
 62 
 5 
 0 
LINE
 8 
TemplateLayer
 6 
CONTINUOUS
 10 
-11.0608523042626 
 20 
 17.0454568862915 
 30 
 0 
 11 
-10.2272709138469 
 21 
 17.5792214689653 
 31 
 0 
 62 
 5 
 0 
LINE
 8 
TemplateLayer
 6 
CONTINUOUS
 10 
-10.2272709138469 
 20 
 17.5792214689653 
 30 
 0 
 11 
-6.81817991525986 
 21 
 19.1383725881142 
 31 
 0 
 62 
 5 
 0 
LINE
 8 
TemplateLayer
 6 
CONTINUOUS
 10 
-6.81817991525986 
 20 
 19.1383725881142 
 30 
 0 
 11 
-3.40908891812771 
 21 
 19.8869211443887 
 31 
 0 
 62 
 5 
 0 
LINE
 8 
TemplateLayer
 6 
CONTINUOUS
 10 
-3.40908891812771 
 20 
 19.8869211443887 
 30 
 0 
 11 
 2.07796009402822E-06 
 21 
 20.0536349664528 
 31 
 0 
 62 
 5 
 0 
LINE
 8 
TemplateLayer
 6 
CONTINUOUS
 10 
 2.07796009402822E-06 
 20 
 20.0536349664528 
 30 
 0 
 11 
 3.40909307344943 
 21 
 19.8869211443887 
 31 
 0 
 62 
 5 
 0 
LINE
 8 
TemplateLayer
 6 
CONTINUOUS
 10 
 3.40909307344943 
 20 
 19.8869211443887 
 30 
 0 
 11 
 6.81818406789444 
 21 
 19.1383725881142 
 31 
 0 
 62 
 5 
 0 
LINE
 8 
TemplateLayer
 6 
CONTINUOUS
 10 
 6.81818406789444 
 20 
 19.1383725881142 
 30 
 0 
 11 
 10.2272750608845 
 21 
 17.5792214689653 
 31 
 0 
 62 
 5 
 0 
LINE
 8 
TemplateLayer
 6 
CONTINUOUS
 10 
 10.2272750608845 
 20 
 17.5792214689653 
 30 
 0 
 11 
 11.060856449384 
 21 
 17.0454568862915 
 31 
 0 
 62 
 5 
 0 
LINE
 8 
TemplateLayer
 6 
CONTINUOUS
 10 
 11.060856449384 
 20 
 17.0454568862915 
 30 
 0 
 11 
 13.6363660527881 
 21 
 15.4147458342611 
 31 
 0 
 62 
 5 
 0 
LINE
 8 
TemplateLayer
 6 
CONTINUOUS
 10 
 13.6363660527881 
 20 
 15.4147458342611 
 30 
 0 
 11 
 15.4674976948752 
 21 
 13.6363658905029 
 31 
 0 
 62 
 5 
 0 
LINE
 8 
TemplateLayer
 6 
CONTINUOUS
 10 
 15.4674976948752 
 20 
 13.6363658905029 
 30 
 0 
 11 
 17.0454570407763 
 21 
 11.06889422989 
 31 
 0 
 62 
 5 
 0 
LINE
 8 
TemplateLayer
 6 
CONTINUOUS
 10 
 17.0454570407763 
 20 
 11.06889422989 
 30 
 0 
 11 
 17.6583176093447 
 21 
 10.2272748947144 
 31 
 0 
 62 
 5 
 0 
LINE
 8 
TemplateLayer
 6 
CONTINUOUS
 10 
 17.6583176093447 
 20 
 10.2272748947144 
 30 
 0 
 11 
 19.2011044595792 
 21 
 6.81818389892578 
 31 
 0 
 62 
 5 
 0 
LINE
 8 
TemplateLayer
 6 
CONTINUOUS
 10 
 19.2011044595792 
 20 
 6.81818389892578 
 30 
 0 
 11 
 19.8233957249357 
 21 
 3.40909290313721 
 31 
 0 
 62 
 5 
 0 
LINE
 8 
TemplateLayer
 6 
CONTINUOUS
 10 
 19.8233957249357 
 20 
 3.40909290313721 
 30 
 0 
 11 
 19.8868157696227 
 21 
 1.9073486328125E-06 
 31 
 0 
 62 
 5 
 0 
LINE
 8 
TemplateLayer
 6 
CONTINUOUS
 10 
 19.8868157696227 
 20 
 1.9073486328125E-06 
 30 
 0 
 11 
 19.8233957126977 
 21 
-3.40908908843994 
 31 
 0 
 62 
 5 
 0 
LINE
 8 
TemplateLayer
 6 
CONTINUOUS
 10 
 19.8233957126977 
 20 
-3.40908908843994 
 30 
 0 
 11 
 19.2011044351033 
 21 
-6.81818008422852 
 31 
 0 
 62 
 5 
 0 
LINE
 8 
TemplateLayer
 6 
CONTINUOUS
 10 
 19.2011044351033 
 20 
-6.81818008422852 
 30 
 0 
 11 
 17.6583175726309 
 21 
-10.2272710800171 
 31 
 0 
 62 
 5 
 0 
LINE
 8 
TemplateLayer
 6 
CONTINUOUS
 10 
 17.6583175726309 
 20 
-10.2272710800171 
 30 
 0 
 11 
 17.0454570010412 
 21 
-11.0688904151927 
 31 
 0 
 62 
 5 
 0 
LINE
 8 
TemplateLayer
 6 
CONTINUOUS
 10 
 17.0454570010412 
 20 
-11.0688904151927 
 30 
 0 
 11 
 15.4674976459234 
 21 
-13.6363620758057 
 31 
 0 
 62 
 5 
 0 
LINE
 8 
TemplateLayer
 6 
CONTINUOUS
 10 
 15.4674976459234 
 20 
-13.6363620758057 
 30 
 0 
 11 
 13.6363659974523 
 21 
-15.4147420195638 
 31 
 0 
 62 
 5 
 0 
LINE
 8 
TemplateLayer
 6 
CONTINUOUS
 10 
 13.6363659974523 
 20 
-15.4147420195638 
 30 
 0 
 11 
 11.0608563881943 
 21 
-17.0454530715942 
 31 
 0 
 62 
 5 
 0 
LINE
 8 
TemplateLayer
 6 
CONTINUOUS
 10 
 11.0608563881943 
 20 
-17.0454530715942 
 30 
 0 
 11 
 10.2272749977787 
 21 
-17.579217654268 
 31 
 0 
 62 
 5 
 0 
LINE
 8 
TemplateLayer
 6 
CONTINUOUS
 10 
 10.2272749977787 
 20 
-17.579217654268 
 30 
 0 
 11 
 6.81818399919164 
 21 
-19.1383687734169 
 31 
 0 
 62 
 5 
 0 
LINE
 8 
TemplateLayer
 6 
CONTINUOUS
 10 
 6.81818399919164 
 20 
-19.1383687734169 
 30 
 0 
 11 
 3.4090930020595 
 21 
-19.8869173296914 
 31 
 0 
 62 
 5 
 0 
LINE
 8 
TemplateLayer
 6 
CONTINUOUS
 10 
 3.4090930020595 
 20 
-19.8869173296914 
 30 
 0 
 11 
 2.00597169210809E-06 
 21 
-20.0536311517556 
 31 
 0 
 62 
 5 
 0 
LINE
 8 
TemplateLayer
 6 
CONTINUOUS
 10 
 2.00597169210809E-06 
 20 
-20.0536311517556 
 30 
 0 
 11 
-3.40908898951765 
 21 
-19.8869173296914 
 31 
 0 
 62 
 5 
 0 
LINE
 8 
TemplateLayer
 6 
CONTINUOUS
 10 
-3.40908898951765 
 20 
-19.8869173296914 
 30 
 0 
 11 
-6.81817998396266 
 21 
-19.1383687734169 
 31 
 0 
 62 
 5 
 0 
LINE
 8 
TemplateLayer
 6 
CONTINUOUS
 10 
-6.81817998396266 
 20 
-19.1383687734169 
 30 
 0 
 11 
-10.2272709769527 
 21 
-17.579217654268 
 31 
 0 
 62 
 5 
 0 
LINE
 8 
TemplateLayer
 6 
CONTINUOUS
 10 
-10.2272709769527 
 20 
-17.579217654268 
 30 
 0 
 11 
-11.0608523654522 
 21 
-17.0454530715942 
 31 
 0 
 62 
 5 
 0 
LINE
 8 
TemplateLayer
 6 
CONTINUOUS
 10 
-11.0608523654522 
 20 
-17.0454530715942 
 30 
 0 
 11 
-13.6363619688563 
 21 
-15.4147420195638 
 31 
 0 
 62 
 5 
 0 
LINE
 8 
TemplateLayer
 6 
CONTINUOUS
 10 
-13.6363619688563 
 20 
-15.4147420195638 
 30 
 0 
 11 
-15.4674936109434 
 21 
-13.6363620758057 
 31 
 0 
 62 
 5 
 0 
LINE
 8 
TemplateLayer
 6 
CONTINUOUS
 10 
-15.4674936109434 
 20 
-13.6363620758057 
 30 
 0 
 11 
-17.0454529568445 
 21 
-11.0688904151927 
 31 
 0 
 62 
 5 
 0 
LINE
 8 
TemplateLayer
 6 
CONTINUOUS
 10 
-17.0454529568445 
 20 
-11.0688904151927 
 30 
 0 
 11 
-17.6583135254129 
 21 
-10.2272710800171 
 31 
 0 
 62 
 5 
 0 
LINE
 8 
TemplateLayer
 6 
CONTINUOUS
 10 
-14.9890214150378 
 20 
-6.81818008422852 
 30 
 0 
 11 
-16.0023453884024 
 21 
-3.40908908843994 
 31 
 0 
 62 
 6 
 0 
LINE
 8 
TemplateLayer
 6 
CONTINUOUS
 10 
-16.0023453884024 
 20 
-3.40908908843994 
 30 
 0 
 11 
-16.240753482323 
 21 
 1.9073486328125E-06 
 31 
 0 
 62 
 6 
 0 
LINE
 8 
TemplateLayer
 6 
CONTINUOUS
 10 
-16.240753482323 
 20 
 1.9073486328125E-06 
 30 
 0 
 11 
-16.0023453761645 
 21 
 3.40909290313721 
 31 
 0 
 62 
 6 
 0 
LINE
 8 
TemplateLayer
 6 
CONTINUOUS
 10 
-16.0023453761645 
 20 
 3.40909290313721 
 30 
 0 
 11 
-14.9890213905619 
 21 
 6.81818389892578 
 31 
 0 
 62 
 6 
 0 
LINE
 8 
TemplateLayer
 6 
CONTINUOUS
 10 
-14.9890213905619 
 20 
 6.81818389892578 
 30 
 0 
 11 
-13.6363619244167 
 21 
 9.34410883644566 
 31 
 0 
 62 
 6 
 0 
LINE
 8 
TemplateLayer
 6 
CONTINUOUS
 10 
-13.6363619244167 
 20 
 9.34410883644566 
 30 
 0 
 11 
-13.2160783614664 
 21 
 10.2272748947144 
 31 
 0 
 62 
 6 
 0 
LINE
 8 
TemplateLayer
 6 
CONTINUOUS
 10 
-13.2160783614664 
 20 
 10.2272748947144 
 30 
 0 
 11 
-10.2272709216634 
 21 
 13.2244130793596 
 31 
 0 
 62 
 6 
 0 
LINE
 8 
TemplateLayer
 6 
CONTINUOUS
 10 
-10.2272709216634 
 20 
 13.2244130793596 
 30 
 0 
 11 
-9.5018485654463 
 21 
 13.6363658905029 
 31 
 0 
 62 
 6 
 0 
LINE
 8 
TemplateLayer
 6 
CONTINUOUS
 10 
-9.5018485654463 
 20 
 13.6363658905029 
 30 
 0 
 11 
-6.81817992231654 
 21 
 15.2068460777375 
 31 
 0 
 62 
 6 
 0 
LINE
 8 
TemplateLayer
 6 
CONTINUOUS
 10 
-6.81817992231654 
 20 
 15.2068460777375 
 30 
 0 
 11 
-3.40908892472452 
 21 
 16.2116083343977 
 31 
 0 
 62 
 6 
 0 
LINE
 8 
TemplateLayer
 6 
CONTINUOUS
 10 
-3.40908892472452 
 20 
 16.2116083343977 
 30 
 0 
 11 
 2.07146230897515E-06 
 21 
 16.4334907846999 
 31 
 0 
 62 
 6 
 0 
LINE
 8 
TemplateLayer
 6 
CONTINUOUS
 10 
 2.07146230897515E-06 
 20 
 16.4334907846999 
 30 
 0 
 11 
 3.40909306685263 
 21 
 16.2116083343977 
 31 
 0 
 62 
 6 
 0 
LINE
 8 
TemplateLayer
 6 
CONTINUOUS
 10 
 3.40909306685263 
 20 
 16.2116083343977 
 30 
 0 
 11 
 6.81818406083776 
 21 
 15.2068460777375 
 31 
 0 
 62 
 6 
 0 
LINE
 8 
TemplateLayer
 6 
CONTINUOUS
 10 
 6.81818406083776 
 20 
 15.2068460777375 
 30 
 0 
 11 
 9.50185269832982 
 21 
 13.6363658905029 
 31 
 0 
 62 
 6 
 0 
LINE
 8 
TemplateLayer
 6 
CONTINUOUS
 10 
 9.50185269832982 
 20 
 13.6363658905029 
 30 
 0 
 11 
 10.2272750530681 
 21 
 13.2244130793596 
 31 
 0 
 62 
 6 
 0 
LINE
 8 
TemplateLayer
 6 
CONTINUOUS
 10 
 10.2272750530681 
 20 
 13.2244130793596 
 30 
 0 
 11 
 13.216082482112 
 21 
 10.2272748947144 
 31 
 0 
 62 
 6 
 0 
LINE
 8 
TemplateLayer
 6 
CONTINUOUS
 10 
 13.216082482112 
 20 
 10.2272748947144 
 30 
 0 
 11 
 13.6363660418919 
 21 
 9.34410883644566 
 31 
 0 
 62 
 6 
 0 
LINE
 8 
TemplateLayer
 6 
CONTINUOUS
 10 
 13.6363660418919 
 20 
 9.34410883644566 
 30 
 0 
 11 
 14.9890254989695 
 21 
 6.81818389892578 
 31 
 0 
 62 
 6 
 0 
LINE
 8 
TemplateLayer
 6 
CONTINUOUS
 10 
 14.9890254989695 
 20 
 6.81818389892578 
 30 
 0 
 11 
 16.0023494723342 
 21 
 3.40909290313721 
 31 
 0 
 62 
 6 
 0 
LINE
 8 
TemplateLayer
 6 
CONTINUOUS
 10 
 16.0023494723342 
 20 
 3.40909290313721 
 30 
 0 
 11 
 16.2407575662548 
 21 
 1.9073486328125E-06 
 31 
 0 
 62 
 6 
 0 
LINE
 8 
TemplateLayer
 6 
CONTINUOUS
 10 
 16.2407575662548 
 20 
 1.9073486328125E-06 
 30 
 0 
 11 
 16.0023494600963 
 21 
-3.40908908843994 
 31 
 0 
 62 
 6 
 0 
LINE
 8 
TemplateLayer
 6 
CONTINUOUS
 10 
 16.0023494600963 
 20 
-3.40908908843994 
 30 
 0 
 11 
 14.9890254744937 
 21 
-6.81818008422852 
 31 
 0 
 62 
 6 
 0 
LINE
 8 
TemplateLayer
 6 
CONTINUOUS
 10 
 14.9890254744937 
 20 
-6.81818008422852 
 30 
 0 
 11 
 13.6363660083485 
 21 
-9.34410502174839 
 31 
 0 
 62 
 6 
 0 
LINE
 8 
TemplateLayer
 6 
CONTINUOUS
 10 
 13.6363660083485 
 20 
-9.34410502174839 
 30 
 0 
 11 
 13.2160824453982 
 21 
-10.2272710800171 
 31 
 0 
 62 
 6 
 0 
LINE
 8 
TemplateLayer
 6 
CONTINUOUS
 10 
 13.2160824453982 
 20 
-10.2272710800171 
 30 
 0 
 11 
 10.2272750055952 
 21 
-13.2244092646623 
 31 
 0 
 62 
 6 
 0 
LINE
 8 
TemplateLayer
 6 
CONTINUOUS
 10 
 10.2272750055952 
 20 
-13.2244092646623 
 30 
 0 
 11 
 9.50185264937809 
 21 
-13.6363620758057 
 31 
 0 
 62 
 6 
 0 
LINE
 8 
TemplateLayer
 6 
CONTINUOUS
 10 
 9.50185264937809 
 20 
-13.6363620758057 
 30 
 0 
 11 
 6.81818400624833 
 21 
-15.2068422630403 
 31 
 0 
 62 
 6 
 0 
LINE
 8 
TemplateLayer
 6 
CONTINUOUS
 10 
 6.81818400624833 
 20 
-15.2068422630403 
 30 
 0 
 11 
 3.40909300865631 
 21 
-16.2116045197004 
 31 
 0 
 62 
 6 
 0 
LINE
 8 
TemplateLayer
 6 
CONTINUOUS
 10 
 3.40909300865631 
 20 
-16.2116045197004 
 30 
 0 
 11 
 2.01246947716116E-06 
 21 
-16.4334869700026 
 31 
 0 
 62 
 6 
 0 
LINE
 8 
TemplateLayer
 6 
CONTINUOUS
 10 
 2.01246947716116E-06 
 20 
-16.4334869700026 
 30 
 0 
 11 
-3.40908898292084 
 21 
-16.2116045197004 
 31 
 0 
 62 
 6 
 0 
LINE
 8 
TemplateLayer
 6 
CONTINUOUS
 10 
-3.40908898292084 
 20 
-16.2116045197004 
 30 
 0 
 11 
-6.81817997690597 
 21 
-15.2068422630403 
 31 
 0 
 62 
 6 
 0 
LINE
 8 
TemplateLayer
 6 
CONTINUOUS
 10 
-6.81817997690597 
 20 
-15.2068422630403 
 30 
 0 
 11 
-9.50184861439803 
 21 
-13.6363620758057 
 31 
 0 
 62 
 6 
 0 
LINE
 8 
TemplateLayer
 6 
CONTINUOUS
 10 
-9.50184861439803 
 20 
-13.6363620758057 
 30 
 0 
 11 
-10.2272709691363 
 21 
-13.2244092646623 
 31 
 0 
 62 
 6 
 0 
LINE
 8 
TemplateLayer
 6 
CONTINUOUS
 10 
-10.2272709691363 
 20 
-13.2244092646623 
 30 
 0 
 11 
-13.2160783981802 
 21 
-10.2272710800171 
 31 
 0 
 62 
 6 
 0 
LINE
 8 
TemplateLayer
 6 
CONTINUOUS
 10 
-13.2160783981802 
 20 
-10.2272710800171 
 30 
 0 
 11 
-13.6363619579601 
 21 
-9.34410502174839 
 31 
 0 
 62 
 6 
 0 
LINE
 8 
TemplateLayer
 6 
CONTINUOUS
 10 
-13.6363619579601 
 20 
-9.34410502174839 
 30 
 0 
 11 
-14.9890214150378 
 21 
-6.81818008422852 
 31 
 0 
 62 
 6 
 0 
LINE
 8 
TemplateLayer
 6 
CONTINUOUS
 10 
-11.152679305831 
 20 
-3.40908908843994 
 30 
 0 
 11 
-11.7719396941505 
 21 
 1.9073486328125E-06 
 31 
 0 
 62 
 214 
 0 
LINE
 8 
TemplateLayer
 6 
CONTINUOUS
 10 
-11.7719396941505 
 20 
 1.9073486328125E-06 
 30 
 0 
 11 
-11.1526792935931 
 21 
 3.40909290313721 
 31 
 0 
 62 
 214 
 0 
LINE
 8 
TemplateLayer
 6 
CONTINUOUS
 10 
-11.1526792935931 
 20 
 3.40909290313721 
 30 
 0 
 11 
-10.2272709359332 
 21 
 5.27418050196064 
 31 
 0 
 62 
 214 
 0 
LINE
 8 
TemplateLayer
 6 
CONTINUOUS
 10 
-10.2272709359332 
 20 
 5.27418050196064 
 30 
 0 
 11 
-9.50390370963101 
 21 
 6.81818389892578 
 31 
 0 
 62 
 214 
 0 
LINE
 8 
TemplateLayer
 6 
CONTINUOUS
 10 
-9.50390370963101 
 20 
 6.81818389892578 
 30 
 0 
 11 
-6.81817993206095 
 21 
 9.7778958313785 
 31 
 0 
 62 
 214 
 0 
LINE
 8 
TemplateLayer
 6 
CONTINUOUS
 10 
-6.81817993206095 
 20 
 9.7778958313785 
 30 
 0 
 11 
-6.06553733004923 
 21 
 10.2272748947144 
 31 
 0 
 62 
 214 
 0 
LINE
 8 
TemplateLayer
 6 
CONTINUOUS
 10 
-6.06553733004923 
 20 
 10.2272748947144 
 30 
 0 
 11 
-3.40908893292071 
 21 
 11.64522554607 
 31 
 0 
 62 
 214 
 0 
LINE
 8 
TemplateLayer
 6 
CONTINUOUS
 10 
-3.40908893292071 
 20 
 11.64522554607 
 30 
 0 
 11 
 2.0636975799071E-06 
 21 
 12.1074876142595 
 31 
 0 
 62 
 214 
 0 
LINE
 8 
TemplateLayer
 6 
CONTINUOUS
 10 
 2.0636975799071E-06 
 20 
 12.1074876142595 
 30 
 0 
 11 
 3.40909305865644 
 21 
 11.64522554607 
 31 
 0 
 62 
 214 
 0 
LINE
 8 
TemplateLayer
 6 
CONTINUOUS
 10 
 3.40909305865644 
 20 
 11.64522554607 
 30 
 0 
 11 
 6.06554145069482 
 21 
 10.2272748947144 
 31 
 0 
 62 
 214 
 0 
LINE
 8 
TemplateLayer
 6 
CONTINUOUS
 10 
 6.06554145069482 
 20 
 10.2272748947144 
 30 
 0 
 11 
 6.81818405109335 
 21 
 9.7778958313785 
 31 
 0 
 62 
 214 
 0 
LINE
 8 
TemplateLayer
 6 
CONTINUOUS
 10 
 6.81818405109335 
 20 
 9.7778958313785 
 30 
 0 
 11 
 9.50390781803866 
 21 
 6.81818389892578 
 31 
 0 
 62 
 214 
 0 
LINE
 8 
TemplateLayer
 6 
CONTINUOUS
 10 
 9.50390781803866 
 20 
 6.81818389892578 
 30 
 0 
 11 
 10.2272750387982 
 21 
 5.27418050196064 
 31 
 0 
 62 
 214 
 0 
LINE
 8 
TemplateLayer
 6 
CONTINUOUS
 10 
 10.2272750387982 
 20 
 5.27418050196064 
 30 
 0 
 11 
 11.1526833897628 
 21 
 3.40909290313721 
 31 
 0 
 62 
 214 
 0 
LINE
 8 
TemplateLayer
 6 
CONTINUOUS
 10 
 11.1526833897628 
 20 
 3.40909290313721 
 30 
 0 
 11 
 11.7719437780822 
 21 
 1.9073486328125E-06 
 31 
 0 
 62 
 214 
 0 
LINE
 8 
TemplateLayer
 6 
CONTINUOUS
 10 
 11.7719437780822 
 20 
 1.9073486328125E-06 
 30 
 0 
 11 
 11.1526833775249 
 21 
-3.40908908843994 
 31 
 0 
 62 
 214 
 0 
LINE
 8 
TemplateLayer
 6 
CONTINUOUS
 10 
 11.1526833775249 
 20 
-3.40908908843994 
 30 
 0 
 11 
 10.227275019865 
 21 
-5.27417668726338 
 31 
 0 
 62 
 214 
 0 
LINE
 8 
TemplateLayer
 6 
CONTINUOUS
 10 
 10.227275019865 
 20 
-5.27417668726338 
 30 
 0 
 11 
 9.5039077935628 
 21 
-6.81818008422852 
 31 
 0 
 62 
 214 
 0 
LINE
 8 
TemplateLayer
 6 
CONTINUOUS
 10 
 9.5039077935628 
 20 
-6.81818008422852 
 30 
 0 
 11 
 6.81818401599273 
 21 
-9.77789201668124 
 31 
 0 
 62 
 214 
 0 
LINE
 8 
TemplateLayer
 6 
CONTINUOUS
 10 
 6.81818401599273 
 20 
-9.77789201668124 
 30 
 0 
 11 
 6.06554141398102 
 21 
-10.2272710800171 
 31 
 0 
 62 
 214 
 0 
LINE
 8 
TemplateLayer
 6 
CONTINUOUS
 10 
 6.06554141398102 
 20 
-10.2272710800171 
 30 
 0 
 11 
 3.40909301685249 
 21 
-11.6452217313727 
 31 
 0 
 62 
 214 
 0 
LINE
 8 
TemplateLayer
 6 
CONTINUOUS
 10 
 3.40909301685249 
 20 
-11.6452217313727 
 30 
 0 
 11 
 2.02023420622921E-06 
 21 
-12.1074837995622 
 31 
 0 
 62 
 214 
 0 
LINE
 8 
TemplateLayer
 6 
CONTINUOUS
 10 
 2.02023420622921E-06 
 20 
-12.1074837995622 
 30 
 0 
 11 
-3.40908897472466 
 21 
-11.6452217313727 
 31 
 0 
 62 
 214 
 0 
LINE
 8 
TemplateLayer
 6 
CONTINUOUS
 10 
-3.40908897472466 
 20 
-11.6452217313727 
 30 
 0 
 11 
-6.06553736676303 
 21 
-10.2272710800171 
 31 
 0 
 62 
 214 
 0 
LINE
 8 
TemplateLayer
 6 
CONTINUOUS
 10 
-6.06553736676303 
 20 
-10.2272710800171 
 30 
 0 
 11 
-6.81817996716157 
 21 
-9.77789201668124 
 31 
 0 
 62 
 214 
 0 
LINE
 8 
TemplateLayer
 6 
CONTINUOUS
 10 
-6.81817996716157 
 20 
-9.77789201668124 
 30 
 0 
 11 
-9.50390373410688 
 21 
-6.81818008422852 
 31 
 0 
 62 
 214 
 0 
LINE
 8 
TemplateLayer
 6 
CONTINUOUS
 10 
-9.50390373410688 
 20 
-6.81818008422852 
 30 
 0 
 11 
-10.2272709548664 
 21 
-5.27417668726338 
 31 
 0 
 62 
 214 
 0 
LINE
 8 
TemplateLayer
 6 
CONTINUOUS
 10 
-10.2272709548664 
 20 
-5.27417668726338 
 30 
 0 
 11 
-11.152679305831 
 21 
-3.40908908843994 
 31 
 0 
 62 
 214 
 0 
LINE
 8 
TemplateLayer
 6 
CONTINUOUS
 10 
-7.19009281248611 
 20 
-3.40908908843994 
 30 
 0 
 11 
-8.18391755291957 
 21 
 1.9073486328125E-06 
 31 
 0 
 62 
 30 
 0 
LINE
 8 
TemplateLayer
 6 
CONTINUOUS
 10 
-8.18391755291957 
 20 
 1.9073486328125E-06 
 30 
 0 
 11 
-7.19009280024817 
 21 
 3.40909290313721 
 31 
 0 
 62 
 30 
 0 
LINE
 8 
TemplateLayer
 6 
CONTINUOUS
 10 
-7.19009280024817 
 20 
 3.40909290313721 
 30 
 0 
 11 
-6.81817994249487 
 21 
 3.96479075552119 
 31 
 0 
 62 
 30 
 0 
LINE
 8 
TemplateLayer
 6 
CONTINUOUS
 10 
-6.81817994249487 
 20 
 3.96479075552119 
 30 
 0 
 11 
-4.08736375666204 
 21 
 6.81818389892578 
 31 
 0 
 62 
 30 
 0 
LINE
 8 
TemplateLayer
 6 
CONTINUOUS
 10 
-4.08736375666204 
 20 
 6.81818389892578 
 30 
 0 
 11 
-3.40908894066617 
 21 
 7.32995718608507 
 31 
 0 
 62 
 30 
 0 
LINE
 8 
TemplateLayer
 6 
CONTINUOUS
 10 
-3.40908894066617 
 20 
 7.32995718608507 
 30 
 0 
 11 
 2.05680990831431E-06 
 21 
 8.27012395201663 
 31 
 0 
 62 
 30 
 0 
LINE
 8 
TemplateLayer
 6 
CONTINUOUS
 10 
 2.05680990831431E-06 
 20 
 8.27012395201663 
 30 
 0 
 11 
 3.40909305091098 
 21 
 7.32995718608507 
 31 
 0 
 62 
 30 
 0 
LINE
 8 
TemplateLayer
 6 
CONTINUOUS
 10 
 3.40909305091098 
 20 
 7.32995718608507 
 30 
 0 
 11 
 4.08736786506969 
 21 
 6.81818389892578 
 31 
 0 
 62 
 30 
 0 
LINE
 8 
TemplateLayer
 6 
CONTINUOUS
 10 
 4.08736786506969 
 20 
 6.81818389892578 
 30 
 0 
 11 
 6.81818404065943 
 21 
 3.96479075552119 
 31 
 0 
 62 
 30 
 0 
LINE
 8 
TemplateLayer
 6 
CONTINUOUS
 10 
 6.81818404065943 
 20 
 3.96479075552119 
 30 
 0 
 11 
 7.19009689641789 
 21 
 3.40909290313721 
 31 
 0 
 62 
 30 
 0 
LINE
 8 
TemplateLayer
 6 
CONTINUOUS
 10 
 7.19009689641789 
 20 
 3.40909290313721 
 30 
 0 
 11 
 8.18392163685136 
 21 
 1.9073486328125E-06 
 31 
 0 
 62 
 30 
 0 
LINE
 8 
TemplateLayer
 6 
CONTINUOUS
 10 
 8.18392163685136 
 20 
 1.9073486328125E-06 
 30 
 0 
 11 
 7.19009688417996 
 21 
-3.40908908843994 
 31 
 0 
 62 
 30 
 0 
LINE
 8 
TemplateLayer
 6 
CONTINUOUS
 10 
 7.19009688417996 
 20 
-3.40908908843994 
 30 
 0 
 11 
 6.81818402642666 
 21 
-3.96478694082393 
 31 
 0 
 62 
 30 
 0 
LINE
 8 
TemplateLayer
 6 
CONTINUOUS
 10 
 6.81818402642666 
 20 
-3.96478694082393 
 30 
 0 
 11 
 4.08736784059382 
 21 
-6.81818008422852 
 31 
 0 
 62 
 30 
 0 
LINE
 8 
TemplateLayer
 6 
CONTINUOUS
 10 
 4.08736784059382 
 20 
-6.81818008422852 
 30 
 0 
 11 
 3.40909302459795 
 21 
-7.3299533713878 
 31 
 0 
 62 
 30 
 0 
LINE
 8 
TemplateLayer
 6 
CONTINUOUS
 10 
 3.40909302459795 
 20 
-7.3299533713878 
 30 
 0 
 11 
 2.027121877822E-06 
 21 
-8.27012013731937 
 31 
 0 
 62 
 30 
 0 
LINE
 8 
TemplateLayer
 6 
CONTINUOUS
 10 
 2.027121877822E-06 
 20 
-8.27012013731937 
 30 
 0 
 11 
-3.40908896697919 
 21 
-7.3299533713878 
 31 
 0 
 62 
 30 
 0 
LINE
 8 
TemplateLayer
 6 
CONTINUOUS
 10 
-3.40908896697919 
 20 
-7.3299533713878 
 30 
 0 
 11 
-4.0873637811379 
 21 
-6.81818008422852 
 31 
 0 
 62 
 30 
 0 
LINE
 8 
TemplateLayer
 6 
CONTINUOUS
 10 
-4.0873637811379 
 20 
-6.81818008422852 
 30 
 0 
 11 
-6.81817995672764 
 21 
-3.96478694082393 
 31 
 0 
 62 
 30 
 0 
LINE
 8 
TemplateLayer
 6 
CONTINUOUS
 10 
-6.81817995672764 
 20 
-3.96478694082393 
 30 
 0 
 11 
-7.19009281248611 
 21 
-3.40908908843994 
 31 
 0 
 62 
 30 
 0 
LINE
 8 
TemplateLayer
 6 
CONTINUOUS
 10 
-3.71746102900483 
 20 
 1.9073486328125E-06 
 30 
 0 
 11 
-3.40908895260753 
 21 
 0.677003835027904 
 31 
 0 
 62 
 94 
 0 
LINE
 8 
TemplateLayer
 6 
CONTINUOUS
 10 
-3.40908895260753 
 20 
 0.677003835027904 
 30 
 0 
 11 
-0.343339574546114 
 21 
 3.40909290313721 
 31 
 0 
 62 
 94 
 0 
LINE
 8 
TemplateLayer
 6 
CONTINUOUS
 10 
-0.343339574546114 
 20 
 3.40909290313721 
 30 
 0 
 11 
 2.04834720377023E-06 
 21 
 3.55525413576162 
 31 
 0 
 62 
 94 
 0 
LINE
 8 
TemplateLayer
 6 
CONTINUOUS
 10 
 2.04834720377023E-06 
 20 
 3.55525413576162 
 30 
 0 
 11 
 0.343343670715833 
 21 
 3.40909290313721 
 31 
 0 
 62 
 94 
 0 
LINE
 8 
TemplateLayer
 6 
CONTINUOUS
 10 
 0.343343670715833 
 20 
 3.40909290313721 
 30 
 0 
 11 
 3.40909303896962 
 21 
 0.677003835027904 
 31 
 0 
 62 
 94 
 0 
LINE
 8 
TemplateLayer
 6 
CONTINUOUS
 10 
 3.40909303896962 
 20 
 0.677003835027904 
 30 
 0 
 11 
 3.71746511293662 
 21 
 1.9073486328125E-06 
 31 
 0 
 62 
 94 
 0 
LINE
 8 
TemplateLayer
 6 
CONTINUOUS
 10 
 3.71746511293662 
 20 
 1.9073486328125E-06 
 30 
 0 
 11 
 3.40909303653932 
 21 
-0.677000020330638 
 31 
 0 
 62 
 94 
 0 
LINE
 8 
TemplateLayer
 6 
CONTINUOUS
 10 
 3.40909303653932 
 20 
-0.677000020330638 
 30 
 0 
 11 
 0.3433436584779 
 21 
-3.40908908843994 
 31 
 0 
 62 
 94 
 0 
LINE
 8 
TemplateLayer
 6 
CONTINUOUS
 10 
 0.3433436584779 
 20 
-3.40908908843994 
 30 
 0 
 11 
 2.03558458237302E-06 
 21 
-3.55525032106435 
 31 
 0 
 62 
 94 
 0 
LINE
 8 
TemplateLayer
 6 
CONTINUOUS
 10 
 2.03558458237302E-06 
 20 
-3.55525032106435 
 30 
 0 
 11 
-0.343339586784046 
 21 
-3.40908908843994 
 31 
 0 
 62 
 94 
 0 
LINE
 8 
TemplateLayer
 6 
CONTINUOUS
 10 
-0.343339586784046 
 20 
-3.40908908843994 
 30 
 0 
 11 
-3.40908895503783 
 21 
-0.677000020330638 
 31 
 0 
 62 
 94 
 0 
LINE
 8 
TemplateLayer
 6 
CONTINUOUS
 10 
-3.40908895503783 
 20 
-0.677000020330638 
 30 
 0 
 11 
-3.71746102900483 
 21 
 1.9073486328125E-06 
 31 
 0 
 62 
 94 
 0 
TEXT
 8 
TemplateLayer
 10 
-34.5571083690387 
 20 
-11.2124562969914 
 30 
 0 
 40 
 1.33 
 50 
 0 
 62 
 7 
 1 
.1
 0 
TEXT
 8 
TemplateLayer
 10 
-27.8967946537106 
 20 
-14.62154729278 
 30 
 0 
 40 
 1.33 
 50 
 0 
 62 
 1 
 1 
.2
 0 
TEXT
 8 
TemplateLayer
 10 
-24.1016718861116 
 20 
-4.39427430541427 
 30 
 0 
 40 
 1.33 
 50 
 0 
 62 
 3 
 1 
.5
 0 
TEXT
 8 
TemplateLayer
 10 
-17.6583135254129 
 20 
-11.2124562969914 
 30 
 0 
 40 
 1.33 
 50 
 0 
 62 
 5 
 1 
1
 0 
TEXT
 8 
TemplateLayer
 10 
-14.9890214150378 
 20 
-7.80336530120284 
 30 
 0 
 40 
 1.33 
 50 
 0 
 62 
 6 
 1 
2
 0 
TEXT
 8 
TemplateLayer
 10 
-11.152679305831 
 20 
-4.39427430541427 
 30 
 0 
 40 
 1.33 
 50 
 0 
 62 
 214 
 1 
5
 0 
TEXT
 8 
TemplateLayer
 10 
-7.19009281248611 
 20 
-4.39427430541427 
 30 
 0 
 40 
 1.33 
 50 
 0 
 62 
 30 
 1 
10
 0 
TEXT
 8 
TemplateLayer
 10 
-3.71746102900483 
 20 
-0.985183309625696 
 30 
 0 
 40 
 1.33 
 50 
 0 
 62 
 94 
 1 
20
 0 
LINE
 8 
TemplateLayer
 6 
CONTINUOUS
 10 
 0 
 20 
 0 
 30 
 0 
 11 
 2 
 21 
 0 
 31 
 0 
 62 
 0 
 0 
LINE
 8 
TemplateLayer
 6 
CONTINUOUS
 10 
 2 
 20 
 0 
 30 
 0 
 11 
 1 
 21 
 0.5 
 31 
 0 
 62 
 0 
 0 
LINE
 8 
TemplateLayer
 6 
CONTINUOUS
 10 
 1 
 20 
 0.5 
 30 
 0 
 11 
 1 
 21 
-0.5 
 31 
 0 
 62 
 0 
 0 
LINE
 8 
TemplateLayer
 6 
CONTINUOUS
 10 
 1 
 20 
-0.5 
 30 
 0 
 11 
 2 
 21 
 0 
 31 
 0 
 62 
 0 
 0 
LINE
 8 
TemplateLayer
 6 
CONTINUOUS
 10 
-0.100000001490116 
 20 
 0.100000001490116 
 30 
 0 
 11 
 0.100000001490116 
 21 
 0.100000001490116 
 31 
 0 
 62 
 0 
 0 
LINE
 8 
TemplateLayer
 6 
CONTINUOUS
 10 
 0.100000001490116 
 20 
 0.100000001490116 
 30 
 0 
 11 
 0.100000001490116 
 21 
-0.100000001490116 
 31 
 0 
 62 
 0 
 0 
LINE
 8 
TemplateLayer
 6 
CONTINUOUS
 10 
 0.100000001490116 
 20 
-0.100000001490116 
 30 
 0 
 11 
-0.100000001490116 
 21 
-0.100000001490116 
 31 
 0 
 62 
 0 
 0 
LINE
 8 
TemplateLayer
 6 
CONTINUOUS
 10 
-0.100000001490116 
 20 
-0.100000001490116 
 30 
 0 
 11 
-0.100000001490116 
 21 
 0.100000001490116 
 31 
 0 
 62 
 0 
 0 
LINE
 8 
TemplateLayer
 6 
CONTINUOUS
 10 
 0 
 20 
 0 
 30 
 0 
 11 
 0 
 21 
 0 
 31 
 0 
 62 
 0 
 0 
ENDBLK
 0 
ENDSEC
 0 
SECTION
 2 
ENTITIES
 0 
INSERT
 2 
Template
 6 
CONTINUOUS
 8 
TemplateLayer
 10 
 0 
 20 
 0 
 30 
 0 
 41 
 1 
 42 
 1 
 43 
 1 
 50 
 0 
 0 
ENDSEC
 0 
EOF
