 0 
SECTION
 2 
HEADER
 9 
$LUNITS
 70 
 2 
 0 
ENDSEC
 0 
SECTION
 2 
TABLES
 0 
TABLE
 2 
LTYPE
 70 
 1 
 0 
LTYPE
 2 
CONTINUOUS
 70 
 0 
 3 
Solid line
 72 
 65 
 73 
 0 
 40 
 0 
 0 
ENDTAB
 0 
TABLE
 2 
LAYER
 70 
 0 
 0 
LAYER
 2 
TemplateLayer
 62 
 7 
 6 
CONTINUOUS
 70 
 0 
 0 
ENDTAB
 0 
ENDSEC
 0 
SECTION
 2 
BLOCKS
 0 
BLOCK
 8 
TemplateLayer
 2 
Template
 70 
 0 
 10 
 0 
 20 
 0 
 30 
 0 
 0 
LINE
 8 
TemplateLayer
 6 
CONTINUOUS
 10 
-24.8090130953092 
 20 
-10.2272710800171 
 30 
 0 
 11 
-25.9796221534015 
 21 
-6.81818008422852 
 31 
 0 
 62 
 7 
 0 
LINE
 8 
TemplateLayer
 6 
CONTINUOUS
 10 
-25.9796221534015 
 20 
-6.81818008422852 
 30 
 0 
 11 
-26.5151502330062 
 21 
-3.40908908843994 
 31 
 0 
 62 
 7 
 0 
LINE
 8 
TemplateLayer
 6 
CONTINUOUS
 10 
-26.5151502330062 
 20 
-3.40908908843994 
 30 
 0 
 11 
-26.6487807262467 
 21 
 1.9073486328125E-06 
 31 
 0 
 62 
 7 
 0 
LINE
 8 
TemplateLayer
 6 
CONTINUOUS
 10 
-26.6487807262467 
 20 
 1.9073486328125E-06 
 30 
 0 
 11 
-26.3821071708496 
 21 
 3.40909290313721 
 31 
 0 
 62 
 7 
 0 
LINE
 8 
TemplateLayer
 6 
CONTINUOUS
 10 
-26.3821071708496 
 20 
 3.40909290313721 
 30 
 0 
 11 
-25.6638740401944 
 21 
 6.81818389892578 
 31 
 0 
 62 
 7 
 0 
LINE
 8 
TemplateLayer
 6 
CONTINUOUS
 10 
-25.6638740401944 
 20 
 6.81818389892578 
 30 
 0 
 11 
-24.2029655826406 
 21 
 10.2272748947144 
 31 
 0 
 62 
 7 
 0 
LINE
 8 
TemplateLayer
 6 
CONTINUOUS
 10 
-24.2029655826406 
 20 
 10.2272748947144 
 30 
 0 
 11 
-23.8636349091813 
 21 
 10.7932627744158 
 31 
 0 
 62 
 7 
 0 
LINE
 8 
TemplateLayer
 6 
CONTINUOUS
 10 
-23.8636349091813 
 20 
 10.7932627744158 
 30 
 0 
 11 
-22.5100251341254 
 21 
 13.6363658905029 
 31 
 0 
 62 
 7 
 0 
LINE
 8 
TemplateLayer
 6 
CONTINUOUS
 10 
-22.5100251341254 
 20 
 13.6363658905029 
 30 
 0 
 11 
-20.4545439036222 
 21 
 16.2367886440039 
 31 
 0 
 62 
 7 
 0 
LINE
 8 
TemplateLayer
 6 
CONTINUOUS
 10 
-20.4545439036222 
 20 
 16.2367886440039 
 30 
 0 
 11 
-19.820005029973 
 21 
 17.0454568862915 
 31 
 0 
 62 
 7 
 0 
LINE
 8 
TemplateLayer
 6 
CONTINUOUS
 10 
-19.820005029973 
 20 
 17.0454568862915 
 30 
 0 
 11 
-17.0454529016027 
 21 
 19.7082493962393 
 31 
 0 
 62 
 7 
 0 
LINE
 8 
TemplateLayer
 6 
CONTINUOUS
 10 
-17.0454529016027 
 20 
 19.7082493962393 
 30 
 0 
 11 
-16.0567373363077 
 21 
 20.4545478820801 
 31 
 0 
 62 
 7 
 0 
LINE
 8 
TemplateLayer
 6 
CONTINUOUS
 10 
-16.0567373363077 
 20 
 20.4545478820801 
 30 
 0 
 11 
-13.6363619013435 
 21 
 22.1989991615099 
 31 
 0 
 62 
 7 
 0 
LINE
 8 
TemplateLayer
 6 
CONTINUOUS
 10 
-13.6363619013435 
 20 
 22.1989991615099 
 30 
 0 
 11 
-10.2272709028392 
 21 
 23.7120373705698 
 31 
 0 
 62 
 7 
 0 
LINE
 8 
TemplateLayer
 6 
CONTINUOUS
 10 
-10.2272709028392 
 20 
 23.7120373705698 
 30 
 0 
 11 
-9.70175891135505 
 21 
 23.8636388778687 
 31 
 0 
 62 
 7 
 0 
LINE
 8 
TemplateLayer
 6 
CONTINUOUS
 10 
-9.70175891135505 
 20 
 23.8636388778687 
 30 
 0 
 11 
-6.81817990451299 
 21 
 25.1258282214328 
 31 
 0 
 62 
 7 
 0 
LINE
 8 
TemplateLayer
 6 
CONTINUOUS
 10 
-6.81817990451299 
 20 
 25.1258282214328 
 30 
 0 
 11 
-3.40908890751598 
 21 
 25.7990891637438 
 31 
 0 
 62 
 7 
 0 
LINE
 8 
TemplateLayer
 6 
CONTINUOUS
 10 
-3.40908890751598 
 20 
 25.7990891637438 
 30 
 0 
 11 
 2.08865687589821E-06 
 21 
 26.0131876940834 
 31 
 0 
 62 
 7 
 0 
LINE
 8 
TemplateLayer
 6 
CONTINUOUS
 10 
 2.08865687589821E-06 
 20 
 26.0131876940834 
 30 
 0 
 11 
 3.40909308406196 
 21 
 25.7995345082715 
 31 
 0 
 62 
 7 
 0 
LINE
 8 
TemplateLayer
 6 
CONTINUOUS
 10 
 3.40909308406196 
 20 
 25.7995345082715 
 30 
 0 
 11 
 6.8181840786187 
 21 
 25.1132344727844 
 31 
 0 
 62 
 7 
 0 
LINE
 8 
TemplateLayer
 6 
CONTINUOUS
 10 
 6.8181840786187 
 20 
 25.1132344727844 
 30 
 0 
 11 
 9.73217888257596 
 21 
 23.8636388778687 
 31 
 0 
 62 
 7 
 0 
LINE
 8 
TemplateLayer
 6 
CONTINUOUS
 10 
 9.73217888257596 
 20 
 23.8636388778687 
 30 
 0 
 11 
 10.2272750719048 
 21 
 23.719010795542 
 31 
 0 
 62 
 7 
 0 
LINE
 8 
TemplateLayer
 6 
CONTINUOUS
 10 
 10.2272750719048 
 20 
 23.719010795542 
 30 
 0 
 11 
 13.6363660646284 
 21 
 22.0114071663454 
 31 
 0 
 62 
 7 
 0 
LINE
 8 
TemplateLayer
 6 
CONTINUOUS
 10 
 13.6363660646284 
 20 
 22.0114071663454 
 30 
 0 
 11 
 15.6191247316055 
 21 
 20.4545478820801 
 31 
 0 
 62 
 7 
 0 
LINE
 8 
TemplateLayer
 6 
CONTINUOUS
 10 
 15.6191247316055 
 20 
 20.4545478820801 
 30 
 0 
 11 
 17.0454570555371 
 21 
 19.2926476785501 
 31 
 0 
 62 
 7 
 0 
LINE
 8 
TemplateLayer
 6 
CONTINUOUS
 10 
 17.0454570555371 
 20 
 19.2926476785501 
 30 
 0 
 11 
 19.2842629724972 
 21 
 17.0454568862915 
 31 
 0 
 62 
 7 
 0 
LINE
 8 
TemplateLayer
 6 
CONTINUOUS
 10 
 19.2842629724972 
 20 
 17.0454568862915 
 30 
 0 
 11 
 20.4545480447039 
 21 
 15.6034506525112 
 31 
 0 
 62 
 7 
 0 
LINE
 8 
TemplateLayer
 6 
CONTINUOUS
 10 
 20.4545480447039 
 20 
 15.6034506525112 
 30 
 0 
 11 
 21.9880280989896 
 21 
 13.6363658905029 
 31 
 0 
 62 
 7 
 0 
LINE
 8 
TemplateLayer
 6 
CONTINUOUS
 10 
 21.9880280989896 
 20 
 13.6363658905029 
 30 
 0 
 11 
 23.7005616209455 
 21 
 10.2272748947144 
 31 
 0 
 62 
 7 
 0 
LINE
 8 
TemplateLayer
 6 
CONTINUOUS
 10 
 23.7005616209455 
 20 
 10.2272748947144 
 30 
 0 
 11 
 23.863639029915 
 21 
 9.71037250439835 
 31 
 0 
 62 
 7 
 0 
LINE
 8 
TemplateLayer
 6 
CONTINUOUS
 10 
 23.863639029915 
 20 
 9.71037250439835 
 30 
 0 
 11 
 25.2261156758033 
 21 
 6.81818389892578 
 31 
 0 
 62 
 7 
 0 
LINE
 8 
TemplateLayer
 6 
CONTINUOUS
 10 
 25.2261156758033 
 20 
 6.81818389892578 
 30 
 0 
 11 
 26.0387350053894 
 21 
 3.40909290313721 
 31 
 0 
 62 
 7 
 0 
LINE
 8 
TemplateLayer
 6 
CONTINUOUS
 10 
 26.0387350053894 
 20 
 3.40909290313721 
 30 
 0 
 11 
 26.3511122193869 
 21 
 1.9073486328125E-06 
 31 
 0 
 62 
 7 
 0 
LINE
 8 
TemplateLayer
 6 
CONTINUOUS
 10 
 26.3511122193869 
 20 
 1.9073486328125E-06 
 30 
 0 
 11 
 26.1474914081385 
 21 
-3.40908908843994 
 31 
 0 
 62 
 7 
 0 
LINE
 8 
TemplateLayer
 6 
CONTINUOUS
 10 
 26.1474914081385 
 20 
-3.40908908843994 
 30 
 0 
 11 
 25.4805544551728 
 21 
-6.81818008422852 
 31 
 0 
 62 
 7 
 0 
LINE
 8 
TemplateLayer
 6 
CONTINUOUS
 10 
 25.4805544551728 
 20 
-6.81818008422852 
 30 
 0 
 11 
 24.0918934834372 
 21 
-10.2272710800171 
 31 
 0 
 62 
 7 
 0 
LINE
 8 
TemplateLayer
 6 
CONTINUOUS
 10 
 24.0918934834372 
 20 
-10.2272710800171 
 30 
 0 
 11 
 23.8636389933763 
 21 
-10.6466433970537 
 31 
 0 
 62 
 7 
 0 
LINE
 8 
TemplateLayer
 6 
CONTINUOUS
 10 
 23.8636389933763 
 20 
-10.6466433970537 
 30 
 0 
 11 
 22.6058606094979 
 21 
-13.6363620758057 
 31 
 0 
 62 
 7 
 0 
LINE
 8 
TemplateLayer
 6 
CONTINUOUS
 10 
 22.6058606094979 
 20 
-13.6363620758057 
 30 
 0 
 11 
 20.4545479869647 
 21 
-16.5650810247305 
 31 
 0 
 62 
 7 
 0 
LINE
 8 
TemplateLayer
 6 
CONTINUOUS
 10 
 20.4545479869647 
 20 
-16.5650810247305 
 30 
 0 
 11 
 20.1080501595169 
 21 
-17.0454530715942 
 31 
 0 
 62 
 7 
 0 
LINE
 8 
TemplateLayer
 6 
CONTINUOUS
 10 
 20.1080501595169 
 20 
-17.0454530715942 
 30 
 0 
 11 
 17.0454569846498 
 21 
-20.2011656680658 
 31 
 0 
 62 
 7 
 0 
LINE
 8 
TemplateLayer
 6 
CONTINUOUS
 10 
 17.0454569846498 
 20 
-20.2011656680658 
 30 
 0 
 11 
 16.7207816512627 
 21 
-20.4545440673828 
 31 
 0 
 62 
 7 
 0 
LINE
 8 
TemplateLayer
 6 
CONTINUOUS
 10 
 16.7207816512627 
 20 
-20.4545440673828 
 30 
 0 
 11 
 13.6363659840786 
 21 
-22.8657115446748 
 31 
 0 
 62 
 7 
 0 
LINE
 8 
TemplateLayer
 6 
CONTINUOUS
 10 
 13.6363659840786 
 20 
-22.8657115446748 
 30 
 0 
 11 
 11.514881110525 
 21 
-23.8636350631714 
 31 
 0 
 62 
 7 
 0 
LINE
 8 
TemplateLayer
 6 
CONTINUOUS
 10 
 11.514881110525 
 20 
-23.8636350631714 
 30 
 0 
 11 
 10.2272749851318 
 21 
-24.6252404466585 
 31 
 0 
 62 
 7 
 0 
LINE
 8 
TemplateLayer
 6 
CONTINUOUS
 10 
 10.2272749851318 
 20 
-24.6252404466585 
 30 
 0 
 11 
 6.81818398699343 
 21 
-25.9344237944717 
 31 
 0 
 62 
 7 
 0 
LINE
 8 
TemplateLayer
 6 
CONTINUOUS
 10 
 6.81818398699343 
 20 
-25.9344237944717 
 30 
 0 
 11 
 3.40909299007581 
 21 
-26.5634519675445 
 31 
 0 
 62 
 7 
 0 
LINE
 8 
TemplateLayer
 6 
CONTINUOUS
 10 
 3.40909299007581 
 20 
-26.5634519675445 
 30 
 0 
 11 
 1.99391758275158E-06 
 21 
-26.7693986759244 
 31 
 0 
 62 
 7 
 0 
LINE
 8 
TemplateLayer
 6 
CONTINUOUS
 10 
 1.99391758275158E-06 
 20 
-26.7693986759244 
 30 
 0 
 11 
-3.40908900153769 
 21 
-26.5837024627967 
 31 
 0 
 62 
 7 
 0 
LINE
 8 
TemplateLayer
 6 
CONTINUOUS
 10 
-3.40908900153769 
 20 
-26.5837024627967 
 30 
 0 
 11 
-6.81817999629383 
 21 
-26.0084988087937 
 31 
 0 
 62 
 7 
 0 
LINE
 8 
TemplateLayer
 6 
CONTINUOUS
 10 
-6.81817999629383 
 20 
-26.0084988087937 
 30 
 0 
 11 
-10.22727098986 
 21 
-24.770307907143 
 31 
 0 
 62 
 7 
 0 
LINE
 8 
TemplateLayer
 6 
CONTINUOUS
 10 
-10.22727098986 
 20 
-24.770307907143 
 30 
 0 
 11 
-11.7882095197274 
 21 
-23.8636350631714 
 31 
 0 
 62 
 7 
 0 
LINE
 8 
TemplateLayer
 6 
CONTINUOUS
 10 
-11.7882095197274 
 20 
-23.8636350631714 
 30 
 0 
 11 
-13.6363619825193 
 21 
-23.0269094183346 
 31 
 0 
 62 
 7 
 0 
LINE
 8 
TemplateLayer
 6 
CONTINUOUS
 10 
-13.6363619825193 
 20 
-23.0269094183346 
 30 
 0 
 11 
-17.0454529737243 
 21 
-20.4732236386458 
 31 
 0 
 62 
 7 
 0 
LINE
 8 
TemplateLayer
 6 
CONTINUOUS
 10 
-17.0454529737243 
 20 
-20.4732236386458 
 30 
 0 
 11 
-17.0666270256736 
 21 
-20.4545440673828 
 31 
 0 
 62 
 7 
 0 
LINE
 8 
TemplateLayer
 6 
CONTINUOUS
 10 
-17.0666270256736 
 20 
-20.4545440673828 
 30 
 0 
 11 
-20.4545439634545 
 21 
-17.0979007335874 
 31 
 0 
 62 
 7 
 0 
LINE
 8 
TemplateLayer
 6 
CONTINUOUS
 10 
-20.4545439634545 
 20 
-17.0979007335874 
 30 
 0 
 11 
-20.5008632226506 
 21 
-17.0454530715942 
 31 
 0 
 62 
 7 
 0 
LINE
 8 
TemplateLayer
 6 
CONTINUOUS
 10 
-20.5008632226506 
 20 
-17.0454530715942 
 30 
 0 
 11 
-23.0782638831115 
 21 
-13.6363620758057 
 31 
 0 
 62 
 7 
 0 
LINE
 8 
TemplateLayer
 6 
CONTINUOUS
 10 
-23.0782638831115 
 20 
-13.6363620758057 
 30 
 0 
 11 
-23.8636349499361 
 21 
-11.912664060643 
 31 
 0 
 62 
 7 
 0 
LINE
 8 
TemplateLayer
 6 
CONTINUOUS
 10 
-23.8636349499361 
 20 
-11.912664060643 
 30 
 0 
 11 
-24.8090130953092 
 21 
-10.2272710800171 
 31 
 0 
 62 
 7 
 0 
LINE
 8 
TemplateLayer
 6 
CONTINUOUS
 10 
-20.5903042580162 
 20 
-10.2272710800171 
 30 
 0 
 11 
-22.1900319799333 
 21 
-6.81818008422852 
 31 
 0 
 62 
 1 
 0 
LINE
 8 
TemplateLayer
 6 
CONTINUOUS
 10 
-22.1900319799333 
 20 
-6.81818008422852 
 30 
 0 
 11 
-22.9247171831056 
 21 
-3.40908908843994 
 31 
 0 
 62 
 1 
 0 
LINE
 8 
TemplateLayer
 6 
CONTINUOUS
 10 
-22.9247171831056 
 20 
-3.40908908843994 
 30 
 0 
 11 
-23.1164367868939 
 21 
 1.9073486328125E-06 
 31 
 0 
 62 
 1 
 0 
LINE
 8 
TemplateLayer
 6 
CONTINUOUS
 10 
-23.1164367868939 
 20 
 1.9073486328125E-06 
 30 
 0 
 11 
-22.8115522027045 
 21 
 3.40909290313721 
 31 
 0 
 62 
 1 
 0 
LINE
 8 
TemplateLayer
 6 
CONTINUOUS
 10 
-22.8115522027045 
 20 
 3.40909290313721 
 30 
 0 
 11 
-21.9135900185733 
 21 
 6.81818389892578 
 31 
 0 
 62 
 1 
 0 
LINE
 8 
TemplateLayer
 6 
CONTINUOUS
 10 
-21.9135900185733 
 20 
 6.81818389892578 
 30 
 0 
 11 
-20.454543915472 
 21 
 9.63485740726932 
 31 
 0 
 62 
 1 
 0 
LINE
 8 
TemplateLayer
 6 
CONTINUOUS
 10 
-20.454543915472 
 20 
 9.63485740726932 
 30 
 0 
 11 
-20.2414756008949 
 21 
 10.2272748947144 
 31 
 0 
 62 
 1 
 0 
LINE
 8 
TemplateLayer
 6 
CONTINUOUS
 10 
-20.2414756008949 
 20 
 10.2272748947144 
 30 
 0 
 11 
-18.1216425554611 
 21 
 13.6363658905029 
 31 
 0 
 62 
 1 
 0 
LINE
 8 
TemplateLayer
 6 
CONTINUOUS
 10 
-18.1216425554611 
 20 
 13.6363658905029 
 30 
 0 
 11 
-17.0454529103056 
 21 
 14.8595352087996 
 31 
 0 
 62 
 1 
 0 
LINE
 8 
TemplateLayer
 6 
CONTINUOUS
 10 
-17.0454529103056 
 20 
 14.8595352087996 
 30 
 0 
 11 
-14.783612874195 
 21 
 17.0454568862915 
 31 
 0 
 62 
 1 
 0 
LINE
 8 
TemplateLayer
 6 
CONTINUOUS
 10 
-14.783612874195 
 20 
 17.0454568862915 
 30 
 0 
 11 
-13.6363619088301 
 21 
 18.0279743889863 
 31 
 0 
 62 
 1 
 0 
LINE
 8 
TemplateLayer
 6 
CONTINUOUS
 10 
-13.6363619088301 
 20 
 18.0279743889863 
 30 
 0 
 11 
-10.2272709092577 
 21 
 20.1360513728665 
 31 
 0 
 62 
 1 
 0 
LINE
 8 
TemplateLayer
 6 
CONTINUOUS
 10 
-10.2272709092577 
 20 
 20.1360513728665 
 30 
 0 
 11 
-9.21019385094157 
 21 
 20.4545478820801 
 31 
 0 
 62 
 1 
 0 
LINE
 8 
TemplateLayer
 6 
CONTINUOUS
 10 
-9.21019385094157 
 20 
 20.4545478820801 
 30 
 0 
 11 
-6.81817991089975 
 21 
 21.5675416419033 
 31 
 0 
 62 
 1 
 0 
LINE
 8 
TemplateLayer
 6 
CONTINUOUS
 10 
-6.81817991089975 
 20 
 21.5675416419033 
 30 
 0 
 11 
-3.40908891352399 
 21 
 22.4518159178836 
 31 
 0 
 62 
 1 
 0 
LINE
 8 
TemplateLayer
 6 
CONTINUOUS
 10 
-3.40908891352399 
 20 
 22.4518159178836 
 30 
 0 
 11 
 2.08264785890588E-06 
 21 
 22.6653533610936 
 31 
 0 
 62 
 1 
 0 
LINE
 8 
TemplateLayer
 6 
CONTINUOUS
 10 
 2.08264785890588E-06 
 20 
 22.6653533610936 
 30 
 0 
 11 
 3.40909307797888 
 21 
 22.4104338552478 
 31 
 0 
 62 
 1 
 0 
LINE
 8 
TemplateLayer
 6 
CONTINUOUS
 10 
 3.40909307797888 
 20 
 22.4104338552478 
 30 
 0 
 11 
 6.8181840720379 
 21 
 21.4468368529654 
 31 
 0 
 62 
 1 
 0 
LINE
 8 
TemplateLayer
 6 
CONTINUOUS
 10 
 6.8181840720379 
 20 
 21.4468368529654 
 30 
 0 
 11 
 8.89162383855085 
 21 
 20.4545478820801 
 31 
 0 
 62 
 1 
 0 
LINE
 8 
TemplateLayer
 6 
CONTINUOUS
 10 
 8.89162383855085 
 20 
 20.4545478820801 
 30 
 0 
 11 
 10.2272750653009 
 21 
 20.0397685696685 
 31 
 0 
 62 
 1 
 0 
LINE
 8 
TemplateLayer
 6 
CONTINUOUS
 10 
 10.2272750653009 
 20 
 20.0397685696685 
 30 
 0 
 11 
 13.6363660571603 
 21 
 17.8506717438211 
 31 
 0 
 62 
 1 
 0 
LINE
 8 
TemplateLayer
 6 
CONTINUOUS
 10 
 13.6363660571603 
 20 
 17.8506717438211 
 30 
 0 
 11 
 14.5322705252213 
 21 
 17.0454568862915 
 31 
 0 
 62 
 1 
 0 
LINE
 8 
TemplateLayer
 6 
CONTINUOUS
 10 
 14.5322705252213 
 20 
 17.0454568862915 
 30 
 0 
 11 
 17.0454570471607 
 21 
 14.6258610285378 
 31 
 0 
 62 
 1 
 0 
LINE
 8 
TemplateLayer
 6 
CONTINUOUS
 10 
 17.0454570471607 
 20 
 14.6258610285378 
 30 
 0 
 11 
 17.9363930823056 
 21 
 13.6363658905029 
 31 
 0 
 62 
 1 
 0 
LINE
 8 
TemplateLayer
 6 
CONTINUOUS
 10 
 17.9363930823056 
 20 
 13.6363658905029 
 30 
 0 
 11 
 20.1478606002721 
 21 
 10.2272748947144 
 31 
 0 
 62 
 1 
 0 
LINE
 8 
TemplateLayer
 6 
CONTINUOUS
 10 
 20.1478606002721 
 20 
 10.2272748947144 
 30 
 0 
 11 
 20.4545480334838 
 21 
 9.35232784217274 
 31 
 0 
 62 
 1 
 0 
LINE
 8 
TemplateLayer
 6 
CONTINUOUS
 10 
 20.4545480334838 
 20 
 9.35232784217274 
 30 
 0 
 11 
 21.760449748167 
 21 
 6.81818389892578 
 31 
 0 
 62 
 1 
 0 
LINE
 8 
TemplateLayer
 6 
CONTINUOUS
 10 
 21.760449748167 
 20 
 6.81818389892578 
 30 
 0 
 11 
 22.6988840568401 
 21 
 3.40909290313721 
 31 
 0 
 62 
 1 
 0 
LINE
 8 
TemplateLayer
 6 
CONTINUOUS
 10 
 22.6988840568401 
 20 
 3.40909290313721 
 30 
 0 
 11 
 22.9991978319306 
 21 
 1.9073486328125E-06 
 31 
 0 
 62 
 1 
 0 
LINE
 8 
TemplateLayer
 6 
CONTINUOUS
 10 
 22.9991978319306 
 20 
 1.9073486328125E-06 
 30 
 0 
 11 
 22.7713041049481 
 21 
-3.40908908843994 
 31 
 0 
 62 
 1 
 0 
LINE
 8 
TemplateLayer
 6 
CONTINUOUS
 10 
 22.7713041049481 
 20 
-3.40908908843994 
 30 
 0 
 11 
 21.9560439183367 
 21 
-6.81818008422852 
 31 
 0 
 62 
 1 
 0 
LINE
 8 
TemplateLayer
 6 
CONTINUOUS
 10 
 21.9560439183367 
 20 
-6.81818008422852 
 30 
 0 
 11 
 20.4545479988404 
 21 
-9.94874997705301 
 31 
 0 
 62 
 1 
 0 
LINE
 8 
TemplateLayer
 6 
CONTINUOUS
 10 
 20.4545479988404 
 20 
-9.94874997705301 
 30 
 0 
 11 
 20.367358800852 
 21 
-10.2272710800171 
 31 
 0 
 62 
 1 
 0 
LINE
 8 
TemplateLayer
 6 
CONTINUOUS
 10 
 20.367358800852 
 20 
-10.2272710800171 
 30 
 0 
 11 
 18.5713733227006 
 21 
-13.6363620758057 
 31 
 0 
 62 
 1 
 0 
LINE
 8 
TemplateLayer
 6 
CONTINUOUS
 10 
 18.5713733227006 
 20 
-13.6363620758057 
 30 
 0 
 11 
 17.045456993207 
 21 
-15.4336234042523 
 31 
 0 
 62 
 1 
 0 
LINE
 8 
TemplateLayer
 6 
CONTINUOUS
 10 
 17.045456993207 
 20 
-15.4336234042523 
 30 
 0 
 11 
 15.496804428417 
 21 
-17.0454530715942 
 31 
 0 
 62 
 1 
 0 
LINE
 8 
TemplateLayer
 6 
CONTINUOUS
 10 
 15.496804428417 
 20 
-17.0454530715942 
 30 
 0 
 11 
 13.6363659915719 
 21 
-18.6909075601559 
 31 
 0 
 62 
 1 
 0 
LINE
 8 
TemplateLayer
 6 
CONTINUOUS
 10 
 13.6363659915719 
 20 
-18.6909075601559 
 30 
 0 
 11 
 10.4413720521653 
 21 
-20.4545440673828 
 31 
 0 
 62 
 1 
 0 
LINE
 8 
TemplateLayer
 6 
CONTINUOUS
 10 
 10.4413720521653 
 20 
-20.4545440673828 
 30 
 0 
 11 
 10.2272749923623 
 21 
-20.5968933906334 
 31 
 0 
 62 
 1 
 0 
LINE
 8 
TemplateLayer
 6 
CONTINUOUS
 10 
 10.2272749923623 
 20 
-20.5968933906334 
 30 
 0 
 11 
 6.81818399357467 
 21 
-22.2677816335427 
 31 
 0 
 62 
 1 
 0 
LINE
 8 
TemplateLayer
 6 
CONTINUOUS
 10 
 6.81818399357467 
 20 
-22.2677816335427 
 30 
 0 
 11 
 3.40909299640883 
 21 
-23.0351065243874 
 31 
 0 
 62 
 1 
 0 
LINE
 8 
TemplateLayer
 6 
CONTINUOUS
 10 
 3.40909299640883 
 20 
-23.0351065243874 
 30 
 0 
 11 
 2.00018545647856E-06 
 21 
-23.2773461696553 
 31 
 0 
 62 
 1 
 0 
LINE
 8 
TemplateLayer
 6 
CONTINUOUS
 10 
 2.00018545647856E-06 
 20 
-23.2773461696553 
 30 
 0 
 11 
-3.40908899522504 
 21 
-23.0667047355702 
 31 
 0 
 62 
 1 
 0 
LINE
 8 
TemplateLayer
 6 
CONTINUOUS
 10 
-3.40908899522504 
 20 
-23.0667047355702 
 30 
 0 
 11 
-6.81817998965721 
 21 
-22.3110051305133 
 31 
 0 
 62 
 1 
 0 
LINE
 8 
TemplateLayer
 6 
CONTINUOUS
 10 
-6.81817998965721 
 20 
-22.3110051305133 
 30 
 0 
 11 
-10.2272709825609 
 21 
-20.7037254103548 
 31 
 0 
 62 
 1 
 0 
LINE
 8 
TemplateLayer
 6 
CONTINUOUS
 10 
-10.2272709825609 
 20 
-20.7037254103548 
 30 
 0 
 11 
-10.6103771887367 
 21 
-20.4545440673828 
 31 
 0 
 62 
 1 
 0 
LINE
 8 
TemplateLayer
 6 
CONTINUOUS
 10 
-10.6103771887367 
 20 
-20.4545440673828 
 30 
 0 
 11 
-13.6363619749005 
 21 
-18.7822175642632 
 31 
 0 
 62 
 1 
 0 
LINE
 8 
TemplateLayer
 6 
CONTINUOUS
 10 
-13.6363619749005 
 20 
-18.7822175642632 
 30 
 0 
 11 
-15.6012756958529 
 21 
-17.0454530715942 
 31 
 0 
 62 
 1 
 0 
LINE
 8 
TemplateLayer
 6 
CONTINUOUS
 10 
-15.6012756958529 
 20 
-17.0454530715942 
 30 
 0 
 11 
-17.0454529649285 
 21 
-15.5727823571274 
 31 
 0 
 62 
 1 
 0 
LINE
 8 
TemplateLayer
 6 
CONTINUOUS
 10 
-17.0454529649285 
 20 
-15.5727823571274 
 30 
 0 
 11 
-18.7468879224223 
 21 
-13.6363620758057 
 31 
 0 
 62 
 1 
 0 
LINE
 8 
TemplateLayer
 6 
CONTINUOUS
 10 
-18.7468879224223 
 20 
-13.6363620758057 
 30 
 0 
 11 
-20.454543951499 
 21 
-10.4370613485805 
 31 
 0 
 62 
 1 
 0 
LINE
 8 
TemplateLayer
 6 
CONTINUOUS
 10 
-20.454543951499 
 20 
-10.4370613485805 
 30 
 0 
 11 
-20.5903042580162 
 21 
-10.2272710800171 
 31 
 0 
 62 
 1 
 0 
LINE
 8 
TemplateLayer
 6 
CONTINUOUS
 10 
-18.2238106997826 
 20 
-6.81818008422852 
 30 
 0 
 11 
-19.3427646589384 
 21 
-3.40908908843994 
 31 
 0 
 62 
 3 
 0 
LINE
 8 
TemplateLayer
 6 
CONTINUOUS
 10 
-19.3427646589384 
 20 
-3.40908908843994 
 30 
 0 
 11 
-19.6970713608426 
 21 
 1.9073486328125E-06 
 31 
 0 
 62 
 3 
 0 
LINE
 8 
TemplateLayer
 6 
CONTINUOUS
 10 
-19.6970713608426 
 20 
 1.9073486328125E-06 
 30 
 0 
 11 
-19.2081954706115 
 21 
 3.40909290313721 
 31 
 0 
 62 
 3 
 0 
LINE
 8 
TemplateLayer
 6 
CONTINUOUS
 10 
-19.2081954706115 
 20 
 3.40909290313721 
 30 
 0 
 11 
-17.8263713109675 
 21 
 6.81818389892578 
 31 
 0 
 62 
 3 
 0 
LINE
 8 
TemplateLayer
 6 
CONTINUOUS
 10 
-17.8263713109675 
 20 
 6.81818389892578 
 30 
 0 
 11 
-17.0454529225801 
 21 
 8.02100794459355 
 31 
 0 
 62 
 3 
 0 
LINE
 8 
TemplateLayer
 6 
CONTINUOUS
 10 
-17.0454529225801 
 20 
 8.02100794459355 
 30 
 0 
 11 
-16.2542765773367 
 21 
 10.2272748947144 
 31 
 0 
 62 
 3 
 0 
LINE
 8 
TemplateLayer
 6 
CONTINUOUS
 10 
-16.2542765773367 
 20 
 10.2272748947144 
 30 
 0 
 11 
-13.6363619176752 
 21 
 13.1000175916779 
 31 
 0 
 62 
 3 
 0 
LINE
 8 
TemplateLayer
 6 
CONTINUOUS
 10 
-13.6363619176752 
 20 
 13.1000175916779 
 30 
 0 
 11 
-13.0667001055021 
 21 
 13.6363658905029 
 31 
 0 
 62 
 3 
 0 
LINE
 8 
TemplateLayer
 6 
CONTINUOUS
 10 
-13.0667001055021 
 20 
 13.6363658905029 
 30 
 0 
 11 
-10.2272709163695 
 21 
 16.1738039113521 
 31 
 0 
 62 
 3 
 0 
LINE
 8 
TemplateLayer
 6 
CONTINUOUS
 10 
-10.2272709163695 
 20 
 16.1738039113521 
 30 
 0 
 11 
-7.53766792779542 
 21 
 17.0454568862915 
 31 
 0 
 62 
 3 
 0 
LINE
 8 
TemplateLayer
 6 
CONTINUOUS
 10 
-7.53766792779542 
 20 
 17.0454568862915 
 30 
 0 
 11 
-6.81817991823753 
 21 
 17.4794033741517 
 31 
 0 
 62 
 3 
 0 
LINE
 8 
TemplateLayer
 6 
CONTINUOUS
 10 
-6.81817991823753 
 20 
 17.4794033741517 
 30 
 0 
 11 
-3.40908891999748 
 21 
 18.8452071423911 
 31 
 0 
 62 
 3 
 0 
LINE
 8 
TemplateLayer
 6 
CONTINUOUS
 10 
-3.40908891999748 
 20 
 18.8452071423911 
 30 
 0 
 11 
 2.07678621932245E-06 
 21 
 19.3996281544803 
 31 
 0 
 62 
 3 
 0 
LINE
 8 
TemplateLayer
 6 
CONTINUOUS
 10 
 2.07678621932245E-06 
 20 
 19.3996281544803 
 30 
 0 
 11 
 3.40909307160447 
 21 
 18.8590249531545 
 31 
 0 
 62 
 3 
 0 
LINE
 8 
TemplateLayer
 6 
CONTINUOUS
 10 
 3.40909307160447 
 20 
 18.8590249531545 
 30 
 0 
 11 
 6.81818406490625 
 21 
 17.4735441294415 
 31 
 0 
 62 
 3 
 0 
LINE
 8 
TemplateLayer
 6 
CONTINUOUS
 10 
 6.81818406490625 
 20 
 17.4735441294415 
 30 
 0 
 11 
 7.51898209902951 
 21 
 17.0454568862915 
 31 
 0 
 62 
 3 
 0 
LINE
 8 
TemplateLayer
 6 
CONTINUOUS
 10 
 7.51898209902951 
 20 
 17.0454568862915 
 30 
 0 
 11 
 10.2272750584366 
 21 
 16.215417278612 
 31 
 0 
 62 
 3 
 0 
LINE
 8 
TemplateLayer
 6 
CONTINUOUS
 10 
 10.2272750584366 
 20 
 16.215417278612 
 30 
 0 
 11 
 13.1120830614884 
 21 
 13.6363658905029 
 31 
 0 
 62 
 3 
 0 
LINE
 8 
TemplateLayer
 6 
CONTINUOUS
 10 
 13.1120830614884 
 20 
 13.6363658905029 
 30 
 0 
 11 
 13.6363660487493 
 21 
 13.1646324511764 
 31 
 0 
 62 
 3 
 0 
LINE
 8 
TemplateLayer
 6 
CONTINUOUS
 10 
 13.6363660487493 
 20 
 13.1646324511764 
 30 
 0 
 11 
 16.3484619987868 
 21 
 10.2272748947144 
 31 
 0 
 62 
 3 
 0 
LINE
 8 
TemplateLayer
 6 
CONTINUOUS
 10 
 16.3484619987868 
 20 
 10.2272748947144 
 30 
 0 
 11 
 17.0454570358581 
 21 
 8.32877372507106 
 31 
 0 
 62 
 3 
 0 
LINE
 8 
TemplateLayer
 6 
CONTINUOUS
 10 
 17.0454570358581 
 20 
 8.32877372507106 
 30 
 0 
 11 
 18.0581241244799 
 21 
 6.81818389892578 
 31 
 0 
 62 
 3 
 0 
LINE
 8 
TemplateLayer
 6 
CONTINUOUS
 10 
 18.0581241244799 
 20 
 6.81818389892578 
 30 
 0 
 11 
 19.3828047186392 
 21 
 3.40909290313721 
 31 
 0 
 62 
 3 
 0 
LINE
 8 
TemplateLayer
 6 
CONTINUOUS
 10 
 19.3828047186392 
 20 
 3.40909290313721 
 30 
 0 
 11 
 19.8083055869269 
 21 
 1.9073486328125E-06 
 31 
 0 
 62 
 3 
 0 
LINE
 8 
TemplateLayer
 6 
CONTINUOUS
 10 
 19.8083055869269 
 20 
 1.9073486328125E-06 
 30 
 0 
 11 
 19.5550454218954 
 21 
-3.40908908843994 
 31 
 0 
 62 
 3 
 0 
LINE
 8 
TemplateLayer
 6 
CONTINUOUS
 10 
 19.5550454218954 
 20 
-3.40908908843994 
 30 
 0 
 11 
 18.5495825786015 
 21 
-6.81818008422852 
 31 
 0 
 62 
 3 
 0 
LINE
 8 
TemplateLayer
 6 
CONTINUOUS
 10 
 18.5495825786015 
 20 
-6.81818008422852 
 30 
 0 
 11 
 17.0454570047705 
 21 
-8.99119343019711 
 31 
 0 
 62 
 3 
 0 
LINE
 8 
TemplateLayer
 6 
CONTINUOUS
 10 
 17.0454570047705 
 20 
-8.99119343019711 
 30 
 0 
 11 
 16.6609334757043 
 21 
-10.2272710800171 
 31 
 0 
 62 
 3 
 0 
LINE
 8 
TemplateLayer
 6 
CONTINUOUS
 10 
 16.6609334757043 
 20 
-10.2272710800171 
 30 
 0 
 11 
 13.6363660008839 
 21 
-13.50287352414 
 31 
 0 
 62 
 3 
 0 
LINE
 8 
TemplateLayer
 6 
CONTINUOUS
 10 
 13.6363660008839 
 20 
-13.50287352414 
 30 
 0 
 11 
 13.5041313444755 
 21 
-13.6363620758057 
 31 
 0 
 62 
 3 
 0 
LINE
 8 
TemplateLayer
 6 
CONTINUOUS
 10 
 13.5041313444755 
 20 
-13.6363620758057 
 30 
 0 
 11 
 10.2272749993655 
 21 
-16.6951895743885 
 31 
 0 
 62 
 3 
 0 
LINE
 8 
TemplateLayer
 6 
CONTINUOUS
 10 
 10.2272749993655 
 20 
-16.6951895743885 
 30 
 0 
 11 
 9.13759136542085 
 21 
-17.0454530715942 
 31 
 0 
 62 
 3 
 0 
LINE
 8 
TemplateLayer
 6 
CONTINUOUS
 10 
 9.13759136542085 
 20 
-17.0454530715942 
 30 
 0 
 11 
 6.81818400000733 
 21 
-18.6839190230445 
 31 
 0 
 62 
 3 
 0 
LINE
 8 
TemplateLayer
 6 
CONTINUOUS
 10 
 6.81818400000733 
 20 
-18.6839190230445 
 30 
 0 
 11 
 3.40909300243765 
 21 
-19.6762395290742 
 31 
 0 
 62 
 3 
 0 
LINE
 8 
TemplateLayer
 6 
CONTINUOUS
 10 
 3.40909300243765 
 20 
-19.6762395290742 
 30 
 0 
 11 
 2.00619830062476E-06 
 21 
-19.9273795907466 
 31 
 0 
 62 
 3 
 0 
LINE
 8 
TemplateLayer
 6 
CONTINUOUS
 10 
 2.00619830062476E-06 
 20 
-19.9273795907466 
 30 
 0 
 11 
-3.40908898917689 
 21 
-19.6970672661293 
 31 
 0 
 62 
 3 
 0 
LINE
 8 
TemplateLayer
 6 
CONTINUOUS
 10 
-3.40908898917689 
 20 
-19.6970672661293 
 30 
 0 
 11 
-6.81817998329021 
 21 
-18.7637239194556 
 31 
 0 
 62 
 3 
 0 
LINE
 8 
TemplateLayer
 6 
CONTINUOUS
 10 
-6.81817998329021 
 20 
-18.7637239194556 
 30 
 0 
 11 
-9.25429679179869 
 21 
-17.0454530715942 
 31 
 0 
 62 
 3 
 0 
LINE
 8 
TemplateLayer
 6 
CONTINUOUS
 10 
-9.25429679179869 
 20 
-17.0454530715942 
 30 
 0 
 11 
-10.2272709753234 
 21 
-16.6714719023937 
 31 
 0 
 62 
 3 
 0 
LINE
 8 
TemplateLayer
 6 
CONTINUOUS
 10 
-10.2272709753234 
 20 
-16.6714719023937 
 30 
 0 
 11 
-13.4882350662531 
 21 
-13.6363620758057 
 31 
 0 
 62 
 3 
 0 
LINE
 8 
TemplateLayer
 6 
CONTINUOUS
 10 
-13.4882350662531 
 20 
-13.6363620758057 
 30 
 0 
 11 
-13.6363619653616 
 21 
-13.4677616640311 
 31 
 0 
 62 
 3 
 0 
LINE
 8 
TemplateLayer
 6 
CONTINUOUS
 10 
-13.6363619653616 
 20 
-13.4677616640311 
 30 
 0 
 11 
-16.5747079457931 
 21 
-10.2272710800171 
 31 
 0 
 62 
 3 
 0 
LINE
 8 
TemplateLayer
 6 
CONTINUOUS
 10 
-16.5747079457931 
 20 
-10.2272710800171 
 30 
 0 
 11 
-17.0454529525331 
 21 
-8.66687655487145 
 31 
 0 
 62 
 3 
 0 
LINE
 8 
TemplateLayer
 6 
CONTINUOUS
 10 
-17.0454529525331 
 20 
-8.66687655487145 
 30 
 0 
 11 
-18.2238106997826 
 21 
-6.81818008422852 
 31 
 0 
 62 
 3 
 0 
LINE
 8 
TemplateLayer
 6 
CONTINUOUS
 10 
-17.376383205965 
 20 
 1.9073486328125E-06 
 30 
 0 
 11 
-17.0454529351712 
 21 
 1.00607911178717 
 31 
 0 
 62 
 5 
 0 
LINE
 8 
TemplateLayer
 6 
CONTINUOUS
 10 
-17.0454529351712 
 20 
 1.00607911178717 
 30 
 0 
 11 
-16.8924947082949 
 21 
 3.40909290313721 
 31 
 0 
 62 
 5 
 0 
LINE
 8 
TemplateLayer
 6 
CONTINUOUS
 10 
-16.8924947082949 
 20 
 3.40909290313721 
 30 
 0 
 11 
-16.3742133887203 
 21 
 6.81818389892578 
 31 
 0 
 62 
 5 
 0 
LINE
 8 
TemplateLayer
 6 
CONTINUOUS
 10 
-16.3742133887203 
 20 
 6.81818389892578 
 30 
 0 
 11 
-13.6363619230135 
 21 
 10.1259055141085 
 31 
 0 
 62 
 5 
 0 
LINE
 8 
TemplateLayer
 6 
CONTINUOUS
 10 
-13.6363619230135 
 20 
 10.1259055141085 
 30 
 0 
 11 
-13.5747065239363 
 21 
 10.2272748947144 
 31 
 0 
 62 
 5 
 0 
LINE
 8 
TemplateLayer
 6 
CONTINUOUS
 10 
-13.5747065239363 
 20 
 10.2272748947144 
 30 
 0 
 11 
-10.2272709210972 
 21 
 13.5398660053336 
 31 
 0 
 62 
 5 
 0 
LINE
 8 
TemplateLayer
 6 
CONTINUOUS
 10 
-10.2272709210972 
 20 
 13.5398660053336 
 30 
 0 
 11 
-10.0571292397147 
 21 
 13.6363658905029 
 31 
 0 
 62 
 5 
 0 
LINE
 8 
TemplateLayer
 6 
CONTINUOUS
 10 
-10.0571292397147 
 20 
 13.6363658905029 
 30 
 0 
 11 
-6.81817992038376 
 21 
 16.2836654522599 
 31 
 0 
 62 
 5 
 0 
LINE
 8 
TemplateLayer
 6 
CONTINUOUS
 10 
-6.81817992038376 
 20 
 16.2836654522599 
 30 
 0 
 11 
-3.4090889236606 
 21 
 16.8043537059746 
 31 
 0 
 62 
 5 
 0 
LINE
 8 
TemplateLayer
 6 
CONTINUOUS
 10 
-3.4090889236606 
 20 
 16.8043537059746 
 30 
 0 
 11 
 2.07245528092287E-06 
 21 
 16.9867103177295 
 31 
 0 
 62 
 5 
 0 
LINE
 8 
TemplateLayer
 6 
CONTINUOUS
 10 
 2.07245528092287E-06 
 20 
 16.9867103177295 
 30 
 0 
 11 
 3.40909306792838 
 21 
 16.8109498174025 
 31 
 0 
 62 
 5 
 0 
LINE
 8 
TemplateLayer
 6 
CONTINUOUS
 10 
 3.40909306792838 
 20 
 16.8109498174025 
 30 
 0 
 11 
 6.81818406279975 
 21 
 16.2999402828646 
 31 
 0 
 62 
 5 
 0 
LINE
 8 
TemplateLayer
 6 
CONTINUOUS
 10 
 6.81818406279975 
 20 
 16.2999402828646 
 30 
 0 
 11 
 10.1487170881946 
 21 
 13.6363658905029 
 31 
 0 
 62 
 5 
 0 
LINE
 8 
TemplateLayer
 6 
CONTINUOUS
 10 
 10.1487170881946 
 20 
 13.6363658905029 
 30 
 0 
 11 
 10.2272750537288 
 21 
 13.5925223033012 
 31 
 0 
 62 
 5 
 0 
LINE
 8 
TemplateLayer
 6 
CONTINUOUS
 10 
 10.2272750537288 
 20 
 13.5925223033012 
 30 
 0 
 11 
 13.6363660436974 
 21 
 10.3499933897132 
 31 
 0 
 62 
 5 
 0 
LINE
 8 
TemplateLayer
 6 
CONTINUOUS
 10 
 13.6363660436974 
 20 
 10.3499933897132 
 30 
 0 
 11 
 13.749673438825 
 21 
 10.2272748947144 
 31 
 0 
 62 
 5 
 0 
LINE
 8 
TemplateLayer
 6 
CONTINUOUS
 10 
 13.749673438825 
 20 
 10.2272748947144 
 30 
 0 
 11 
 16.4699836235289 
 21 
 6.81818389892578 
 31 
 0 
 62 
 5 
 0 
LINE
 8 
TemplateLayer
 6 
CONTINUOUS
 10 
 16.4699836235289 
 20 
 6.81818389892578 
 30 
 0 
 11 
 16.9774927364809 
 21 
 3.40909290313721 
 31 
 0 
 62 
 5 
 0 
LINE
 8 
TemplateLayer
 6 
CONTINUOUS
 10 
 16.9774927364809 
 20 
 3.40909290313721 
 30 
 0 
 11 
 17.0454570254827 
 21 
 2.54827994722108 
 31 
 0 
 62 
 5 
 0 
LINE
 8 
TemplateLayer
 6 
CONTINUOUS
 10 
 17.0454570254827 
 20 
 2.54827994722108 
 30 
 0 
 11 
 17.8997336194853 
 21 
 1.9073486328125E-06 
 31 
 0 
 62 
 5 
 0 
LINE
 8 
TemplateLayer
 6 
CONTINUOUS
 10 
 17.8997336194853 
 20 
 1.9073486328125E-06 
 30 
 0 
 11 
 17.1816877188768 
 21 
-3.40908908843994 
 31 
 0 
 62 
 5 
 0 
LINE
 8 
TemplateLayer
 6 
CONTINUOUS
 10 
 17.1816877188768 
 20 
-3.40908908843994 
 30 
 0 
 11 
 17.0454570142674 
 21 
-3.70010899252969 
 31 
 0 
 62 
 5 
 0 
LINE
 8 
TemplateLayer
 6 
CONTINUOUS
 10 
 17.0454570142674 
 20 
-3.70010899252969 
 30 
 0 
 11 
 16.6484505638583 
 21 
-6.81818008422852 
 31 
 0 
 62 
 5 
 0 
LINE
 8 
TemplateLayer
 6 
CONTINUOUS
 10 
 16.6484505638583 
 20 
-6.81818008422852 
 30 
 0 
 11 
 14.9051181393454 
 21 
-10.2272710800171 
 31 
 0 
 62 
 5 
 0 
LINE
 8 
TemplateLayer
 6 
CONTINUOUS
 10 
 14.9051181393454 
 20 
-10.2272710800171 
 30 
 0 
 11 
 13.636366004297 
 21 
-11.6013279093486 
 31 
 0 
 62 
 5 
 0 
LINE
 8 
TemplateLayer
 6 
CONTINUOUS
 10 
 13.636366004297 
 20 
-11.6013279093486 
 30 
 0 
 11 
 11.6204474822736 
 21 
-13.6363620758057 
 31 
 0 
 62 
 5 
 0 
LINE
 8 
TemplateLayer
 6 
CONTINUOUS
 10 
 11.6204474822736 
 20 
-13.6363620758057 
 30 
 0 
 11 
 10.2272750025215 
 21 
-14.9368384600371 
 31 
 0 
 62 
 5 
 0 
LINE
 8 
TemplateLayer
 6 
CONTINUOUS
 10 
 10.2272750025215 
 20 
-14.9368384600371 
 30 
 0 
 11 
 6.81818400362001 
 21 
-16.6711704616282 
 31 
 0 
 62 
 5 
 0 
LINE
 8 
TemplateLayer
 6 
CONTINUOUS
 10 
 6.81818400362001 
 20 
-16.6711704616282 
 30 
 0 
 11 
 4.16748667052851 
 21 
-17.0454530715942 
 31 
 0 
 62 
 5 
 0 
LINE
 8 
TemplateLayer
 6 
CONTINUOUS
 10 
 4.16748667052851 
 20 
-17.0454530715942 
 30 
 0 
 11 
 3.40909300649155 
 21 
-17.4176658523958 
 31 
 0 
 62 
 5 
 0 
LINE
 8 
TemplateLayer
 6 
CONTINUOUS
 10 
 3.40909300649155 
 20 
-17.4176658523958 
 30 
 0 
 11 
 2.00936710757077E-06 
 21 
-18.1619259912327 
 31 
 0 
 62 
 5 
 0 
LINE
 8 
TemplateLayer
 6 
CONTINUOUS
 10 
 2.00936710757077E-06 
 20 
-18.1619259912327 
 30 
 0 
 11 
-3.40908898518278 
 21 
-17.4718121411416 
 31 
 0 
 62 
 5 
 0 
LINE
 8 
TemplateLayer
 6 
CONTINUOUS
 10 
-3.40908898518278 
 20 
-17.4718121411416 
 30 
 0 
 11 
-4.30582432554917 
 21 
-17.0454530715942 
 31 
 0 
 62 
 5 
 0 
LINE
 8 
TemplateLayer
 6 
CONTINUOUS
 10 
-4.30582432554917 
 20 
-17.0454530715942 
 30 
 0 
 11 
-6.81817997956886 
 21 
-16.6904303646959 
 31 
 0 
 62 
 5 
 0 
LINE
 8 
TemplateLayer
 6 
CONTINUOUS
 10 
-6.81817997956886 
 20 
-16.6904303646959 
 30 
 0 
 11 
-10.227270971695 
 21 
-14.6499520949297 
 31 
 0 
 62 
 5 
 0 
LINE
 8 
TemplateLayer
 6 
CONTINUOUS
 10 
-10.227270971695 
 20 
-14.6499520949297 
 30 
 0 
 11 
-11.3162861454899 
 21 
-13.6363620758057 
 31 
 0 
 62 
 5 
 0 
LINE
 8 
TemplateLayer
 6 
CONTINUOUS
 10 
-11.3162861454899 
 20 
-13.6363620758057 
 30 
 0 
 11 
-13.6363619609244 
 21 
-10.9956145803492 
 31 
 0 
 62 
 5 
 0 
LINE
 8 
TemplateLayer
 6 
CONTINUOUS
 10 
-13.6363619609244 
 20 
-10.9956145803492 
 30 
 0 
 11 
-14.3330648141679 
 21 
-10.2272710800171 
 31 
 0 
 62 
 5 
 0 
LINE
 8 
TemplateLayer
 6 
CONTINUOUS
 10 
-14.3330648141679 
 20 
-10.2272710800171 
 30 
 0 
 11 
-16.519728465944 
 21 
-6.81818008422852 
 31 
 0 
 62 
 5 
 0 
LINE
 8 
TemplateLayer
 6 
CONTINUOUS
 10 
-16.519728465944 
 20 
-6.81818008422852 
 30 
 0 
 11 
-16.9408545903816 
 21 
-3.40908908843994 
 31 
 0 
 62 
 5 
 0 
LINE
 8 
TemplateLayer
 6 
CONTINUOUS
 10 
-16.9408545903816 
 20 
-3.40908908843994 
 30 
 0 
 11 
-17.0454529392212 
 21 
-1.25034929540442 
 31 
 0 
 62 
 5 
 0 
LINE
 8 
TemplateLayer
 6 
CONTINUOUS
 10 
-17.0454529392212 
 20 
-1.25034929540442 
 30 
 0 
 11 
-17.376383205965 
 21 
 1.9073486328125E-06 
 31 
 0 
 62 
 5 
 0 
LINE
 8 
TemplateLayer
 6 
CONTINUOUS
 10 
-15.1200359452601 
 20 
-6.81818008422852 
 30 
 0 
 11 
-16.0911521746099 
 21 
-3.40908908843994 
 31 
 0 
 62 
 6 
 0 
LINE
 8 
TemplateLayer
 6 
CONTINUOUS
 10 
-16.0911521746099 
 20 
-3.40908908843994 
 30 
 0 
 11 
-16.3050879623941 
 21 
 1.9073486328125E-06 
 31 
 0 
 62 
 6 
 0 
LINE
 8 
TemplateLayer
 6 
CONTINUOUS
 10 
-16.3050879623941 
 20 
 1.9073486328125E-06 
 30 
 0 
 11 
-15.9943254986894 
 21 
 3.40909290313721 
 31 
 0 
 62 
 6 
 0 
LINE
 8 
TemplateLayer
 6 
CONTINUOUS
 10 
-15.9943254986894 
 20 
 3.40909290313721 
 30 
 0 
 11 
-14.800011871692 
 21 
 6.81818389892578 
 31 
 0 
 62 
 6 
 0 
LINE
 8 
TemplateLayer
 6 
CONTINUOUS
 10 
-14.800011871692 
 20 
 6.81818389892578 
 30 
 0 
 11 
-13.6363619264271 
 21 
 8.22404178591123 
 31 
 0 
 62 
 6 
 0 
LINE
 8 
TemplateLayer
 6 
CONTINUOUS
 10 
-13.6363619264271 
 20 
 8.22404178591123 
 30 
 0 
 11 
-12.4179453194625 
 21 
 10.2272748947144 
 31 
 0 
 62 
 6 
 0 
LINE
 8 
TemplateLayer
 6 
CONTINUOUS
 10 
-12.4179453194625 
 20 
 10.2272748947144 
 30 
 0 
 11 
-10.2272709231518 
 21 
 12.3951458838755 
 31 
 0 
 62 
 6 
 0 
LINE
 8 
TemplateLayer
 6 
CONTINUOUS
 10 
-10.2272709231518 
 20 
 12.3951458838755 
 30 
 0 
 11 
-8.0388407657203 
 21 
 13.6363658905029 
 31 
 0 
 62 
 6 
 0 
LINE
 8 
TemplateLayer
 6 
CONTINUOUS
 10 
-8.0388407657203 
 20 
 13.6363658905029 
 30 
 0 
 11 
-6.81817992334465 
 21 
 14.6340520518111 
 31 
 0 
 62 
 6 
 0 
LINE
 8 
TemplateLayer
 6 
CONTINUOUS
 10 
-6.81817992334465 
 20 
 14.6340520518111 
 30 
 0 
 11 
-3.40908892530169 
 21 
 15.8900451256043 
 31 
 0 
 62 
 6 
 0 
LINE
 8 
TemplateLayer
 6 
CONTINUOUS
 10 
-3.40908892530169 
 20 
 15.8900451256043 
 30 
 0 
 11 
 2.07099483735818E-06 
 21 
 16.1730459364387 
 31 
 0 
 62 
 6 
 0 
LINE
 8 
TemplateLayer
 6 
CONTINUOUS
 10 
 2.07099483735818E-06 
 20 
 16.1730459364387 
 30 
 0 
 11 
 3.4090930662861 
 21 
 15.8959787131519 
 31 
 0 
 62 
 6 
 0 
LINE
 8 
TemplateLayer
 6 
CONTINUOUS
 10 
 3.4090930662861 
 20 
 15.8959787131519 
 30 
 0 
 11 
 6.81818405990086 
 21 
 14.6848696712108 
 31 
 0 
 62 
 6 
 0 
LINE
 8 
TemplateLayer
 6 
CONTINUOUS
 10 
 6.81818405990086 
 20 
 14.6848696712108 
 30 
 0 
 11 
 8.12923303188114 
 21 
 13.6363658905029 
 31 
 0 
 62 
 6 
 0 
LINE
 8 
TemplateLayer
 6 
CONTINUOUS
 10 
 8.12923303188114 
 20 
 13.6363658905029 
 30 
 0 
 11 
 10.2272750517058 
 21 
 12.4654383133485 
 31 
 0 
 62 
 6 
 0 
LINE
 8 
TemplateLayer
 6 
CONTINUOUS
 10 
 10.2272750517058 
 20 
 12.4654383133485 
 30 
 0 
 11 
 12.511274043932 
 21 
 10.2272748947144 
 31 
 0 
 62 
 6 
 0 
LINE
 8 
TemplateLayer
 6 
CONTINUOUS
 10 
 12.511274043932 
 20 
 10.2272748947144 
 30 
 0 
 11 
 13.6363660403511 
 21 
 8.48569729085739 
 31 
 0 
 62 
 6 
 0 
LINE
 8 
TemplateLayer
 6 
CONTINUOUS
 10 
 13.6363660403511 
 20 
 8.48569729085739 
 30 
 0 
 11 
 15.0067916219459 
 21 
 6.81818389892578 
 31 
 0 
 62 
 6 
 0 
LINE
 8 
TemplateLayer
 6 
CONTINUOUS
 10 
 15.0067916219459 
 20 
 6.81818389892578 
 30 
 0 
 11 
 16.0784945176886 
 21 
 3.40909290313721 
 31 
 0 
 62 
 6 
 0 
LINE
 8 
TemplateLayer
 6 
CONTINUOUS
 10 
 16.0784945176886 
 20 
 3.40909290313721 
 30 
 0 
 11 
 16.4084783668037 
 21 
 1.9073486328125E-06 
 31 
 0 
 62 
 6 
 0 
LINE
 8 
TemplateLayer
 6 
CONTINUOUS
 10 
 16.4084783668037 
 20 
 1.9073486328125E-06 
 30 
 0 
 11 
 16.1845422895568 
 21 
-3.40908908843994 
 31 
 0 
 62 
 6 
 0 
LINE
 8 
TemplateLayer
 6 
CONTINUOUS
 10 
 16.1845422895568 
 20 
-3.40908908843994 
 30 
 0 
 11 
 15.35737271457 
 21 
-6.81818008422852 
 31 
 0 
 62 
 6 
 0 
LINE
 8 
TemplateLayer
 6 
CONTINUOUS
 10 
 15.35737271457 
 20 
-6.81818008422852 
 30 
 0 
 11 
 13.6363660087454 
 21 
-9.1229517112308 
 31 
 0 
 62 
 6 
 0 
LINE
 8 
TemplateLayer
 6 
CONTINUOUS
 10 
 13.6363660087454 
 20 
-9.1229517112308 
 30 
 0 
 11 
 12.9177329183981 
 21 
-10.2272710800171 
 31 
 0 
 62 
 6 
 0 
LINE
 8 
TemplateLayer
 6 
CONTINUOUS
 10 
 12.9177329183981 
 20 
-10.2272710800171 
 30 
 0 
 11 
 10.227275006132 
 21 
-12.9252979414416 
 31 
 0 
 62 
 6 
 0 
LINE
 8 
TemplateLayer
 6 
CONTINUOUS
 10 
 10.227275006132 
 20 
-12.9252979414416 
 30 
 0 
 11 
 9.13415954063086 
 21 
-13.6363620758057 
 31 
 0 
 62 
 6 
 0 
LINE
 8 
TemplateLayer
 6 
CONTINUOUS
 10 
 9.13415954063086 
 20 
-13.6363620758057 
 30 
 0 
 11 
 6.81818400595264 
 21 
-15.3715780099683 
 31 
 0 
 62 
 6 
 0 
LINE
 8 
TemplateLayer
 6 
CONTINUOUS
 10 
 6.81818400595264 
 20 
-15.3715780099683 
 30 
 0 
 11 
 3.40909300862517 
 21 
-16.2289511880147 
 31 
 0 
 62 
 6 
 0 
LINE
 8 
TemplateLayer
 6 
CONTINUOUS
 10 
 3.40909300862517 
 20 
-16.2289511880147 
 30 
 0 
 11 
 2.01236826057744E-06 
 21 
-16.489878284377 
 31 
 0 
 62 
 6 
 0 
LINE
 8 
TemplateLayer
 6 
CONTINUOUS
 10 
 2.01236826057744E-06 
 20 
-16.489878284377 
 30 
 0 
 11 
-3.40908898300147 
 21 
-16.2565249032157 
 31 
 0 
 62 
 6 
 0 
LINE
 8 
TemplateLayer
 6 
CONTINUOUS
 10 
-3.40908898300147 
 20 
-16.2565249032157 
 30 
 0 
 11 
-6.81817997719468 
 21 
-15.3676930729233 
 31 
 0 
 62 
 6 
 0 
LINE
 8 
TemplateLayer
 6 
CONTINUOUS
 10 
-6.81817997719468 
 20 
-15.3676930729233 
 30 
 0 
 11 
-8.98617110423242 
 21 
-13.6363620758057 
 31 
 0 
 62 
 6 
 0 
LINE
 8 
TemplateLayer
 6 
CONTINUOUS
 10 
-8.98617110423242 
 20 
-13.6363620758057 
 30 
 0 
 11 
-10.2272709684506 
 21 
-12.8423697686933 
 31 
 0 
 62 
 6 
 0 
LINE
 8 
TemplateLayer
 6 
CONTINUOUS
 10 
-10.2272709684506 
 20 
-12.8423697686933 
 30 
 0 
 11 
-12.7671337833831 
 21 
-10.2272710800171 
 31 
 0 
 62 
 6 
 0 
LINE
 8 
TemplateLayer
 6 
CONTINUOUS
 10 
-12.7671337833831 
 20 
-10.2272710800171 
 30 
 0 
 11 
-13.6363619568318 
 21 
-8.71550048782241 
 31 
 0 
 62 
 6 
 0 
LINE
 8 
TemplateLayer
 6 
CONTINUOUS
 10 
-13.6363619568318 
 20 
-8.71550048782241 
 30 
 0 
 11 
-15.1200359452601 
 21 
-6.81818008422852 
 31 
 0 
 62 
 6 
 0 
LINE
 8 
TemplateLayer
 6 
CONTINUOUS
 10 
-13.9134706533489 
 20 
 1.9073486328125E-06 
 30 
 0 
 11 
-13.6363619382437 
 21 
 1.64059430185262 
 31 
 0 
 62 
 214 
 0 
LINE
 8 
TemplateLayer
 6 
CONTINUOUS
 10 
-13.6363619382437 
 20 
 1.64059430185262 
 30 
 0 
 11 
-13.4324921901649 
 21 
 3.40909290313721 
 31 
 0 
 62 
 214 
 0 
LINE
 8 
TemplateLayer
 6 
CONTINUOUS
 10 
-13.4324921901649 
 20 
 3.40909290313721 
 30 
 0 
 11 
-12.0659170294073 
 21 
 6.81818389892578 
 31 
 0 
 62 
 214 
 0 
LINE
 8 
TemplateLayer
 6 
CONTINUOUS
 10 
-12.0659170294073 
 20 
 6.81818389892578 
 30 
 0 
 11 
-10.2272709288465 
 21 
 9.2224692052632 
 31 
 0 
 62 
 214 
 0 
LINE
 8 
TemplateLayer
 6 
CONTINUOUS
 10 
-10.2272709288465 
 20 
 9.2224692052632 
 30 
 0 
 11 
-9.21819023329481 
 21 
 10.2272748947144 
 31 
 0 
 62 
 214 
 0 
LINE
 8 
TemplateLayer
 6 
CONTINUOUS
 10 
-9.21819023329481 
 20 
 10.2272748947144 
 30 
 0 
 11 
-6.81817992805134 
 21 
 12.011787737996 
 31 
 0 
 62 
 214 
 0 
LINE
 8 
TemplateLayer
 6 
CONTINUOUS
 10 
-6.81817992805134 
 20 
 12.011787737996 
 30 
 0 
 11 
-3.40908892985964 
 21 
 13.3506508865663 
 31 
 0 
 62 
 214 
 0 
LINE
 8 
TemplateLayer
 6 
CONTINUOUS
 10 
-3.40908892985964 
 20 
 13.3506508865663 
 30 
 0 
 11 
-0.614229603844614 
 21 
 13.6363658905029 
 31 
 0 
 62 
 214 
 0 
LINE
 8 
TemplateLayer
 6 
CONTINUOUS
 10 
-0.614229603844614 
 20 
 13.6363658905029 
 30 
 0 
 11 
 2.06661350667797E-06 
 21 
 13.7320527925662 
 31 
 0 
 62 
 214 
 0 
LINE
 8 
TemplateLayer
 6 
CONTINUOUS
 10 
 2.06661350667797E-06 
 20 
 13.7320527925662 
 30 
 0 
 11 
 0.618688988027308 
 21 
 13.6363658905029 
 31 
 0 
 62 
 214 
 0 
LINE
 8 
TemplateLayer
 6 
CONTINUOUS
 10 
 0.618688988027308 
 20 
 13.6363658905029 
 30 
 0 
 11 
 3.40909306172197 
 21 
 13.3531383462612 
 31 
 0 
 62 
 214 
 0 
LINE
 8 
TemplateLayer
 6 
CONTINUOUS
 10 
 3.40909306172197 
 20 
 13.3531383462612 
 30 
 0 
 11 
 6.81818405511102 
 21 
 12.0162775316767 
 31 
 0 
 62 
 214 
 0 
LINE
 8 
TemplateLayer
 6 
CONTINUOUS
 10 
 6.81818405511102 
 20 
 12.0162775316767 
 30 
 0 
 11 
 9.2695453550479 
 21 
 10.2272748947144 
 31 
 0 
 62 
 214 
 0 
LINE
 8 
TemplateLayer
 6 
CONTINUOUS
 10 
 9.2695453550479 
 20 
 10.2272748947144 
 30 
 0 
 11 
 10.2272750459927 
 21 
 9.2824995163631 
 31 
 0 
 62 
 214 
 0 
LINE
 8 
TemplateLayer
 6 
CONTINUOUS
 10 
 10.2272750459927 
 20 
 9.2824995163631 
 30 
 0 
 11 
 12.1424995856582 
 21 
 6.81818389892578 
 31 
 0 
 62 
 214 
 0 
LINE
 8 
TemplateLayer
 6 
CONTINUOUS
 10 
 12.1424995856582 
 20 
 6.81818389892578 
 30 
 0 
 11 
 13.4810012019411 
 21 
 3.40909290313721 
 31 
 0 
 62 
 214 
 0 
LINE
 8 
TemplateLayer
 6 
CONTINUOUS
 10 
 13.4810012019411 
 20 
 3.40909290313721 
 30 
 0 
 11 
 13.6363660286167 
 21 
 1.94805285176341 
 31 
 0 
 62 
 214 
 0 
LINE
 8 
TemplateLayer
 6 
CONTINUOUS
 10 
 13.6363660286167 
 20 
 1.94805285176341 
 30 
 0 
 11 
 13.9465667148312 
 21 
 1.9073486328125E-06 
 31 
 0 
 62 
 214 
 0 
LINE
 8 
TemplateLayer
 6 
CONTINUOUS
 10 
 13.9465667148312 
 20 
 1.9073486328125E-06 
 30 
 0 
 11 
 13.6363660205228 
 21 
-2.56138919629072 
 31 
 0 
 62 
 214 
 0 
LINE
 8 
TemplateLayer
 6 
CONTINUOUS
 10 
 13.6363660205228 
 20 
-2.56138919629072 
 30 
 0 
 11 
 13.5668991868742 
 21 
-3.40908908843994 
 31 
 0 
 62 
 214 
 0 
LINE
 8 
TemplateLayer
 6 
CONTINUOUS
 10 
 13.5668991868742 
 20 
-3.40908908843994 
 30 
 0 
 11 
 12.3757003195377 
 21 
-6.81818008422852 
 31 
 0 
 62 
 214 
 0 
LINE
 8 
TemplateLayer
 6 
CONTINUOUS
 10 
 12.3757003195377 
 20 
-6.81818008422852 
 30 
 0 
 11 
 10.2272750120546 
 21 
-9.62563776479007 
 31 
 0 
 62 
 214 
 0 
LINE
 8 
TemplateLayer
 6 
CONTINUOUS
 10 
 10.2272750120546 
 20 
-9.62563776479007 
 30 
 0 
 11 
 9.63180403505516 
 21 
-10.2272710800171 
 31 
 0 
 62 
 214 
 0 
LINE
 8 
TemplateLayer
 6 
CONTINUOUS
 10 
 9.63180403505516 
 20 
-10.2272710800171 
 30 
 0 
 11 
 6.81818401131028 
 21 
-12.386647274234 
 31 
 0 
 62 
 214 
 0 
LINE
 8 
TemplateLayer
 6 
CONTINUOUS
 10 
 6.81818401131028 
 20 
-12.386647274234 
 30 
 0 
 11 
 3.40909301336364 
 21 
-13.5889831053092 
 31 
 0 
 62 
 214 
 0 
LINE
 8 
TemplateLayer
 6 
CONTINUOUS
 10 
 3.40909301336364 
 20 
-13.5889831053092 
 30 
 0 
 11 
 2.91695358576107 
 21 
-13.6363620758057 
 31 
 0 
 62 
 214 
 0 
LINE
 8 
TemplateLayer
 6 
CONTINUOUS
 10 
 2.91695358576107 
 20 
-13.6363620758057 
 30 
 0 
 11 
 2.01674322142936E-06 
 21 
-14.0524339945952 
 31 
 0 
 62 
 214 
 0 
LINE
 8 
TemplateLayer
 6 
CONTINUOUS
 10 
 2.01674322142936E-06 
 20 
-14.0524339945952 
 30 
 0 
 11 
-3.40908897830324 
 21 
-13.6389794315596 
 31 
 0 
 62 
 214 
 0 
LINE
 8 
TemplateLayer
 6 
CONTINUOUS
 10 
-3.40908897830324 
 20 
-13.6389794315596 
 30 
 0 
 11 
-3.41512553679359 
 21 
-13.6363620758057 
 31 
 0 
 62 
 214 
 0 
LINE
 8 
TemplateLayer
 6 
CONTINUOUS
 10 
-3.41512553679359 
 20 
-13.6363620758057 
 30 
 0 
 11 
-6.81817997186895 
 21 
-12.4005391984379 
 31 
 0 
 62 
 214 
 0 
LINE
 8 
TemplateLayer
 6 
CONTINUOUS
 10 
-6.81817997186895 
 20 
-12.4005391984379 
 30 
 0 
 11 
-9.70987849906961 
 21 
-10.2272710800171 
 31 
 0 
 62 
 214 
 0 
LINE
 8 
TemplateLayer
 6 
CONTINUOUS
 10 
-9.70987849906961 
 20 
-10.2272710800171 
 30 
 0 
 11 
-10.2272709628101 
 21 
-9.69984457720706 
 31 
 0 
 62 
 214 
 0 
LINE
 8 
TemplateLayer
 6 
CONTINUOUS
 10 
-10.2272709628101 
 20 
-9.69984457720706 
 30 
 0 
 11 
-12.2719377826957 
 21 
-6.81818008422852 
 31 
 0 
 62 
 214 
 0 
LINE
 8 
TemplateLayer
 6 
CONTINUOUS
 10 
-12.2719377826957 
 20 
-6.81818008422852 
 30 
 0 
 11 
-13.5749418380486 
 21 
-3.40908908843994 
 31 
 0 
 62 
 214 
 0 
LINE
 8 
TemplateLayer
 6 
CONTINUOUS
 10 
-13.5749418380486 
 20 
-3.40908908843994 
 30 
 0 
 11 
-13.6363619458263 
 21 
-2.58394893995744 
 31 
 0 
 62 
 214 
 0 
LINE
 8 
TemplateLayer
 6 
CONTINUOUS
 10 
-13.6363619458263 
 20 
-2.58394893995744 
 30 
 0 
 11 
-13.9134706533489 
 21 
 1.9073486328125E-06 
 31 
 0 
 62 
 214 
 0 
LINE
 8 
TemplateLayer
 6 
CONTINUOUS
 10 
-10.808271771115 
 20 
-3.40908908843994 
 30 
 0 
 11 
-11.3901248322632 
 21 
 1.9073486328125E-06 
 31 
 0 
 62 
 30 
 0 
LINE
 8 
TemplateLayer
 6 
CONTINUOUS
 10 
-11.3901248322632 
 20 
 1.9073486328125E-06 
 30 
 0 
 11 
-10.7120530771428 
 21 
 3.40909290313721 
 31 
 0 
 62 
 30 
 0 
LINE
 8 
TemplateLayer
 6 
CONTINUOUS
 10 
-10.7120530771428 
 20 
 3.40909290313721 
 30 
 0 
 11 
-10.2272709376003 
 21 
 4.34540797776533 
 31 
 0 
 62 
 30 
 0 
LINE
 8 
TemplateLayer
 6 
CONTINUOUS
 10 
-10.2272709376003 
 20 
 4.34540797776533 
 30 
 0 
 11 
-8.96365627872346 
 21 
 6.81818389892578 
 31 
 0 
 62 
 30 
 0 
LINE
 8 
TemplateLayer
 6 
CONTINUOUS
 10 
-8.96365627872346 
 20 
 6.81818389892578 
 30 
 0 
 11 
-6.81817993353203 
 21 
 8.95830012805497 
 31 
 0 
 62 
 30 
 0 
LINE
 8 
TemplateLayer
 6 
CONTINUOUS
 10 
-6.81817993353203 
 20 
 8.95830012805497 
 30 
 0 
 11 
-4.30897191003091 
 21 
 10.2272748947144 
 31 
 0 
 62 
 30 
 0 
LINE
 8 
TemplateLayer
 6 
CONTINUOUS
 10 
-4.30897191003091 
 20 
 10.2272748947144 
 30 
 0 
 11 
-3.40908893465154 
 21 
 10.6809161369986 
 31 
 0 
 62 
 30 
 0 
LINE
 8 
TemplateLayer
 6 
CONTINUOUS
 10 
-3.40908893465154 
 20 
 10.6809161369986 
 30 
 0 
 11 
 2.06227087004573E-06 
 21 
 11.3126174576311 
 31 
 0 
 62 
 30 
 0 
LINE
 8 
TemplateLayer
 6 
CONTINUOUS
 10 
 2.06227087004573E-06 
 20 
 11.3126174576311 
 30 
 0 
 11 
 3.4090930569297 
 21 
 10.6831944229178 
 31 
 0 
 62 
 30 
 0 
LINE
 8 
TemplateLayer
 6 
CONTINUOUS
 10 
 3.4090930569297 
 20 
 10.6831944229178 
 30 
 0 
 11 
 4.3025156570918 
 21 
 10.2272748947144 
 31 
 0 
 62 
 30 
 0 
LINE
 8 
TemplateLayer
 6 
CONTINUOUS
 10 
 4.3025156570918 
 20 
 10.2272748947144 
 30 
 0 
 11 
 6.81818404958145 
 21 
 8.93556093403176 
 31 
 0 
 62 
 30 
 0 
LINE
 8 
TemplateLayer
 6 
CONTINUOUS
 10 
 6.81818404958145 
 20 
 8.93556093403176 
 30 
 0 
 11 
 8.95220976795526 
 21 
 6.81818389892578 
 31 
 0 
 62 
 30 
 0 
LINE
 8 
TemplateLayer
 6 
CONTINUOUS
 10 
 8.95220976795526 
 20 
 6.81818389892578 
 30 
 0 
 11 
 10.2272750371927 
 21 
 4.3796862361759 
 31 
 0 
 62 
 30 
 0 
LINE
 8 
TemplateLayer
 6 
CONTINUOUS
 10 
 10.2272750371927 
 20 
 4.3796862361759 
 30 
 0 
 11 
 10.7408826361519 
 21 
 3.40909290313721 
 31 
 0 
 62 
 30 
 0 
LINE
 8 
TemplateLayer
 6 
CONTINUOUS
 10 
 10.7408826361519 
 20 
 3.40909290313721 
 30 
 0 
 11 
 11.3892760090693 
 21 
 1.9073486328125E-06 
 31 
 0 
 62 
 30 
 0 
LINE
 8 
TemplateLayer
 6 
CONTINUOUS
 10 
 11.3892760090693 
 20 
 1.9073486328125E-06 
 30 
 0 
 11 
 10.7904500774885 
 21 
-3.40908908843994 
 31 
 0 
 62 
 30 
 0 
LINE
 8 
TemplateLayer
 6 
CONTINUOUS
 10 
 10.7904500774885 
 20 
-3.40908908843994 
 30 
 0 
 11 
 10.227275021257 
 21 
-4.49864901522683 
 31 
 0 
 62 
 30 
 0 
LINE
 8 
TemplateLayer
 6 
CONTINUOUS
 10 
 10.227275021257 
 20 
-4.49864901522683 
 30 
 0 
 11 
 9.06551420705974 
 21 
-6.81818008422852 
 31 
 0 
 62 
 30 
 0 
LINE
 8 
TemplateLayer
 6 
CONTINUOUS
 10 
 9.06551420705974 
 20 
-6.81818008422852 
 30 
 0 
 11 
 6.81818401724853 
 21 
-9.0782450841667 
 31 
 0 
 62 
 30 
 0 
LINE
 8 
TemplateLayer
 6 
CONTINUOUS
 10 
 6.81818401724853 
 20 
-9.0782450841667 
 30 
 0 
 11 
 4.59344225806519 
 21 
-10.2272710800171 
 31 
 0 
 62 
 30 
 0 
LINE
 8 
TemplateLayer
 6 
CONTINUOUS
 10 
 4.59344225806519 
 20 
-10.2272710800171 
 30 
 0 
 11 
 3.40909301828496 
 21 
-10.8471455517889 
 31 
 0 
 62 
 30 
 0 
LINE
 8 
TemplateLayer
 6 
CONTINUOUS
 10 
 3.40909301828496 
 20 
-10.8471455517889 
 30 
 0 
 11 
 2.02140490634245E-06 
 21 
-11.4552456661864 
 31 
 0 
 62 
 30 
 0 
LINE
 8 
TemplateLayer
 6 
CONTINUOUS
 10 
 2.02140490634245E-06 
 20 
-11.4552456661864 
 30 
 0 
 11 
-3.4090889733725 
 21 
-10.8918876234742 
 31 
 0 
 62 
 30 
 0 
LINE
 8 
TemplateLayer
 6 
CONTINUOUS
 10 
-3.4090889733725 
 20 
-10.8918876234742 
 30 
 0 
 11 
-4.68383749914992 
 21 
-10.2272710800171 
 31 
 0 
 62 
 30 
 0 
LINE
 8 
TemplateLayer
 6 
CONTINUOUS
 10 
-4.68383749914992 
 20 
-10.2272710800171 
 30 
 0 
 11 
-6.81817996596724 
 21 
-9.11249385325874 
 31 
 0 
 62 
 30 
 0 
LINE
 8 
TemplateLayer
 6 
CONTINUOUS
 10 
-6.81817996596724 
 20 
-9.11249385325874 
 30 
 0 
 11 
-9.08805847381648 
 21 
-6.81818008422852 
 31 
 0 
 62 
 30 
 0 
LINE
 8 
TemplateLayer
 6 
CONTINUOUS
 10 
-9.08805847381648 
 20 
-6.81818008422852 
 30 
 0 
 11 
-10.2272709535631 
 21 
-4.54805619378567 
 31 
 0 
 62 
 30 
 0 
LINE
 8 
TemplateLayer
 6 
CONTINUOUS
 10 
-10.2272709535631 
 20 
-4.54805619378567 
 30 
 0 
 11 
-10.808271771115 
 21 
-3.40908908843994 
 31 
 0 
 62 
 30 
 0 
LINE
 8 
TemplateLayer
 6 
CONTINUOUS
 10 
-7.62242309395957 
 20 
-3.40908908843994 
 30 
 0 
 11 
-8.60965257238878 
 21 
 1.9073486328125E-06 
 31 
 0 
 62 
 94 
 0 
LINE
 8 
TemplateLayer
 6 
CONTINUOUS
 10 
-8.60965257238878 
 20 
 1.9073486328125E-06 
 30 
 0 
 11 
-7.50581795906621 
 21 
 3.40909290313721 
 31 
 0 
 62 
 94 
 0 
LINE
 8 
TemplateLayer
 6 
CONTINUOUS
 10 
-7.50581795906621 
 20 
 3.40909290313721 
 30 
 0 
 11 
-6.81817994179678 
 21 
 4.35372082251642 
 31 
 0 
 62 
 94 
 0 
LINE
 8 
TemplateLayer
 6 
CONTINUOUS
 10 
-6.81817994179678 
 20 
 4.35372082251642 
 30 
 0 
 11 
-4.27123414415437 
 21 
 6.81818389892578 
 31 
 0 
 62 
 94 
 0 
LINE
 8 
TemplateLayer
 6 
CONTINUOUS
 10 
-4.27123414415437 
 20 
 6.81818389892578 
 30 
 0 
 11 
-3.40908894047258 
 21 
 7.43781363884381 
 31 
 0 
 62 
 94 
 0 
LINE
 8 
TemplateLayer
 6 
CONTINUOUS
 10 
-3.40908894047258 
 20 
 7.43781363884381 
 30 
 0 
 11 
 2.05729600946669E-06 
 21 
 8.54094796919773 
 31 
 0 
 62 
 94 
 0 
LINE
 8 
TemplateLayer
 6 
CONTINUOUS
 10 
 2.05729600946669E-06 
 20 
 8.54094796919773 
 30 
 0 
 11 
 3.4090930510899 
 21 
 7.42963764827751 
 31 
 0 
 62 
 94 
 0 
LINE
 8 
TemplateLayer
 6 
CONTINUOUS
 10 
 3.4090930510899 
 20 
 7.42963764827751 
 30 
 0 
 11 
 4.25478738198924 
 21 
 6.81818389892578 
 31 
 0 
 62 
 94 
 0 
LINE
 8 
TemplateLayer
 6 
CONTINUOUS
 10 
 4.25478738198924 
 20 
 6.81818389892578 
 30 
 0 
 11 
 6.81818404115814 
 21 
 4.24264173525052 
 31 
 0 
 62 
 94 
 0 
LINE
 8 
TemplateLayer
 6 
CONTINUOUS
 10 
 6.81818404115814 
 20 
 4.24264173525052 
 30 
 0 
 11 
 7.42461997244944 
 21 
 3.40909290313721 
 31 
 0 
 62 
 94 
 0 
LINE
 8 
TemplateLayer
 6 
CONTINUOUS
 10 
 7.42461997244944 
 20 
 3.40909290313721 
 30 
 0 
 11 
 8.50785105933222 
 21 
 1.9073486328125E-06 
 31 
 0 
 62 
 94 
 0 
LINE
 8 
TemplateLayer
 6 
CONTINUOUS
 10 
 8.50785105933222 
 20 
 1.9073486328125E-06 
 30 
 0 
 11 
 7.45817811860933 
 21 
-3.40908908843994 
 31 
 0 
 62 
 94 
 0 
LINE
 8 
TemplateLayer
 6 
CONTINUOUS
 10 
 7.45817811860933 
 20 
-3.40908908843994 
 30 
 0 
 11 
 6.81818402581553 
 21 
-4.30526881336264 
 31 
 0 
 62 
 94 
 0 
LINE
 8 
TemplateLayer
 6 
CONTINUOUS
 10 
 6.81818402581553 
 20 
-4.30526881336264 
 30 
 0 
 11 
 4.39670423417966 
 21 
-6.81818008422852 
 31 
 0 
 62 
 94 
 0 
LINE
 8 
TemplateLayer
 6 
CONTINUOUS
 10 
 4.39670423417966 
 20 
-6.81818008422852 
 30 
 0 
 11 
 3.40909302422409 
 21 
-7.53824639205953 
 31 
 0 
 62 
 94 
 0 
LINE
 8 
TemplateLayer
 6 
CONTINUOUS
 10 
 3.40909302422409 
 20 
-7.53824639205953 
 30 
 0 
 11 
 2.02649661041471E-06 
 21 
-8.61847856308691 
 31 
 0 
 62 
 94 
 0 
LINE
 8 
TemplateLayer
 6 
CONTINUOUS
 10 
 2.02649661041471E-06 
 20 
-8.61847856308691 
 30 
 0 
 11 
-3.40908896760458 
 21 
-7.67837657912162 
 31 
 0 
 62 
 94 
 0 
LINE
 8 
TemplateLayer
 6 
CONTINUOUS
 10 
-3.40908896760458 
 20 
-7.67837657912162 
 30 
 0 
 11 
-4.55871981838474 
 21 
-6.81818008422852 
 31 
 0 
 62 
 94 
 0 
LINE
 8 
TemplateLayer
 6 
CONTINUOUS
 10 
-4.55871981838474 
 20 
-6.81818008422852 
 30 
 0 
 11 
-6.81817995769784 
 21 
-4.50531886353701 
 31 
 0 
 62 
 94 
 0 
LINE
 8 
TemplateLayer
 6 
CONTINUOUS
 10 
-6.81817995769784 
 20 
-4.50531886353701 
 30 
 0 
 11 
-7.62242309395957 
 21 
-3.40908908843994 
 31 
 0 
 62 
 94 
 0 
LINE
 8 
TemplateLayer
 6 
CONTINUOUS
 10 
-2.52345082330122 
 20 
 1.9073486328125E-06 
 30 
 0 
 11 
 2.04649885945929E-06 
 21 
 2.52547662835858 
 31 
 0 
 62 
 172 
 0 
LINE
 8 
TemplateLayer
 6 
CONTINUOUS
 10 
 2.04649885945929E-06 
 20 
 2.52547662835858 
 30 
 0 
 11 
 2.65587638108662 
 21 
 1.9073486328125E-06 
 31 
 0 
 62 
 172 
 0 
LINE
 8 
TemplateLayer
 6 
CONTINUOUS
 10 
 2.65587638108662 
 20 
 1.9073486328125E-06 
 30 
 0 
 11 
 2.03740282529036E-06 
 21 
-2.54224335680428 
 31 
 0 
 62 
 172 
 0 
LINE
 8 
TemplateLayer
 6 
CONTINUOUS
 10 
 2.03740282529036E-06 
 20 
-2.54224335680428 
 30 
 0 
 11 
-2.52345082330122 
 21 
 1.9073486328125E-06 
 31 
 0 
 62 
 172 
 0 
TEXT
 8 
TemplateLayer
 10 
-24.8090130953092 
 20 
-11.2124562969914 
 30 
 0 
 40 
 1.33 
 50 
 0 
 62 
 7 
 1 
.1
 0 
TEXT
 8 
TemplateLayer
 10 
-20.5903042580162 
 20 
-11.2124562969914 
 30 
 0 
 40 
 1.33 
 50 
 0 
 62 
 1 
 1 
.2
 0 
TEXT
 8 
TemplateLayer
 10 
-18.2238106997826 
 20 
-7.80336530120284 
 30 
 0 
 40 
 1.33 
 50 
 0 
 62 
 3 
 1 
.5
 0 
TEXT
 8 
TemplateLayer
 10 
-17.376383205965 
 20 
-0.985183309625696 
 30 
 0 
 40 
 1.33 
 50 
 0 
 62 
 5 
 1 
1
 0 
TEXT
 8 
TemplateLayer
 10 
-15.1200359452601 
 20 
-7.80336530120284 
 30 
 0 
 40 
 1.33 
 50 
 0 
 62 
 6 
 1 
2
 0 
TEXT
 8 
TemplateLayer
 10 
-13.9134706533489 
 20 
-0.985183309625696 
 30 
 0 
 40 
 1.33 
 50 
 0 
 62 
 214 
 1 
5
 0 
TEXT
 8 
TemplateLayer
 10 
-10.808271771115 
 20 
-4.39427430541427 
 30 
 0 
 40 
 1.33 
 50 
 0 
 62 
 30 
 1 
10
 0 
TEXT
 8 
TemplateLayer
 10 
-7.62242309395957 
 20 
-4.39427430541427 
 30 
 0 
 40 
 1.33 
 50 
 0 
 62 
 94 
 1 
20
 0 
TEXT
 8 
TemplateLayer
 10 
-2.52345082330122 
 20 
-0.985183309625696 
 30 
 0 
 40 
 1.33 
 50 
 0 
 62 
 172 
 1 
50
 0 
LINE
 8 
TemplateLayer
 6 
CONTINUOUS
 10 
 0 
 20 
 0 
 30 
 0 
 11 
 2 
 21 
 0 
 31 
 0 
 62 
 0 
 0 
LINE
 8 
TemplateLayer
 6 
CONTINUOUS
 10 
 2 
 20 
 0 
 30 
 0 
 11 
 1 
 21 
 0.5 
 31 
 0 
 62 
 0 
 0 
LINE
 8 
TemplateLayer
 6 
CONTINUOUS
 10 
 1 
 20 
 0.5 
 30 
 0 
 11 
 1 
 21 
-0.5 
 31 
 0 
 62 
 0 
 0 
LINE
 8 
TemplateLayer
 6 
CONTINUOUS
 10 
 1 
 20 
-0.5 
 30 
 0 
 11 
 2 
 21 
 0 
 31 
 0 
 62 
 0 
 0 
LINE
 8 
TemplateLayer
 6 
CONTINUOUS
 10 
-0.100000001490116 
 20 
 0.100000001490116 
 30 
 0 
 11 
 0.100000001490116 
 21 
 0.100000001490116 
 31 
 0 
 62 
 0 
 0 
LINE
 8 
TemplateLayer
 6 
CONTINUOUS
 10 
 0.100000001490116 
 20 
 0.100000001490116 
 30 
 0 
 11 
 0.100000001490116 
 21 
-0.100000001490116 
 31 
 0 
 62 
 0 
 0 
LINE
 8 
TemplateLayer
 6 
CONTINUOUS
 10 
 0.100000001490116 
 20 
-0.100000001490116 
 30 
 0 
 11 
-0.100000001490116 
 21 
-0.100000001490116 
 31 
 0 
 62 
 0 
 0 
LINE
 8 
TemplateLayer
 6 
CONTINUOUS
 10 
-0.100000001490116 
 20 
-0.100000001490116 
 30 
 0 
 11 
-0.100000001490116 
 21 
 0.100000001490116 
 31 
 0 
 62 
 0 
 0 
LINE
 8 
TemplateLayer
 6 
CONTINUOUS
 10 
 0 
 20 
 0 
 30 
 0 
 11 
 0 
 21 
 0 
 31 
 0 
 62 
 0 
 0 
ENDBLK
 0 
ENDSEC
 0 
SECTION
 2 
ENTITIES
 0 
INSERT
 2 
Template
 6 
CONTINUOUS
 8 
TemplateLayer
 10 
 0 
 20 
 0 
 30 
 0 
 41 
 1 
 42 
 1 
 43 
 1 
 50 
 0 
 0 
ENDSEC
 0 
EOF
