 0 
SECTION
 2 
HEADER
 9 
$LUNITS
 70 
 2 
 0 
ENDSEC
 0 
SECTION
 2 
TABLES
 0 
TABLE
 2 
LTYPE
 70 
 1 
 0 
LTYPE
 2 
CONTINUOUS
 70 
 0 
 3 
Solid line
 72 
 65 
 73 
 0 
 40 
 0 
 0 
ENDTAB
 0 
TABLE
 2 
LAYER
 70 
 0 
 0 
LAYER
 2 
TemplateLayer
 62 
 7 
 6 
CONTINUOUS
 70 
 0 
 0 
ENDTAB
 0 
ENDSEC
 0 
SECTION
 2 
BLOCKS
 0 
BLOCK
 8 
TemplateLayer
 2 
Template
 70 
 0 
 10 
 0 
 20 
 0 
 30 
 0 
 0 
LINE
 8 
TemplateLayer
 6 
CONTINUOUS
 10 
 3.40909311259516 
 20 
 41.696378497292 
 30 
 0 
 11 
 6.81818410888668 
 21 
 41.9765870331885 
 31 
 0 
 62 
 7 
 0 
LINE
 8 
TemplateLayer
 6 
CONTINUOUS
 10 
 6.81818410888668 
 20 
 41.9765870331885 
 30 
 0 
 11 
 10.2272751044589 
 21 
 41.8560634907593 
 31 
 0 
 62 
 7 
 0 
LINE
 8 
TemplateLayer
 6 
CONTINUOUS
 10 
 10.2272751044589 
 20 
 41.8560634907593 
 30 
 0 
 11 
 13.6363660992454 
 21 
 41.2977787829909 
 31 
 0 
 62 
 7 
 0 
LINE
 8 
TemplateLayer
 6 
CONTINUOUS
 10 
 13.6363660992454 
 20 
 41.2977787829909 
 30 
 0 
 11 
 14.7727297638106 
 21 
 40.9090938568115 
 31 
 0 
 62 
 7 
 0 
LINE
 8 
TemplateLayer
 6 
CONTINUOUS
 10 
 14.7727297638106 
 20 
 40.9090938568115 
 30 
 0 
 11 
 17.0454570933003 
 21 
 40.3318933360378 
 31 
 0 
 62 
 7 
 0 
LINE
 8 
TemplateLayer
 6 
CONTINUOUS
 10 
 17.0454570933003 
 20 
 40.3318933360378 
 30 
 0 
 11 
 20.4545480842528 
 21 
 37.637545544804 
 31 
 0 
 62 
 7 
 0 
LINE
 8 
TemplateLayer
 6 
CONTINUOUS
 10 
 20.4545480842528 
 20 
 37.637545544804 
 30 
 0 
 11 
 20.5987393760927 
 21 
 37.5000028610229 
 31 
 0 
 62 
 7 
 0 
LINE
 8 
TemplateLayer
 6 
CONTINUOUS
 10 
 20.5987393760927 
 20 
 37.5000028610229 
 30 
 0 
 11 
 23.5909115811388 
 21 
 34.0909118652344 
 31 
 0 
 62 
 7 
 0 
LINE
 8 
TemplateLayer
 6 
CONTINUOUS
 10 
 23.5909115811388 
 20 
 34.0909118652344 
 30 
 0 
 11 
 23.8636390727237 
 21 
 33.5606083615327 
 31 
 0 
 62 
 7 
 0 
LINE
 8 
TemplateLayer
 6 
CONTINUOUS
 10 
 23.8636390727237 
 20 
 33.5606083615327 
 30 
 0 
 11 
 25.4762381452978 
 21 
 30.6818208694458 
 31 
 0 
 62 
 7 
 0 
LINE
 8 
TemplateLayer
 6 
CONTINUOUS
 10 
 25.4762381452978 
 20 
 30.6818208694458 
 30 
 0 
 11 
 26.1297112721222 
 21 
 27.2727298736572 
 31 
 0 
 62 
 7 
 0 
LINE
 8 
TemplateLayer
 6 
CONTINUOUS
 10 
 26.1297112721222 
 20 
 27.2727298736572 
 30 
 0 
 11 
 27.2727300530434 
 21 
 24.9423363634949 
 31 
 0 
 62 
 7 
 0 
LINE
 8 
TemplateLayer
 6 
CONTINUOUS
 10 
 27.2727300530434 
 20 
 24.9423363634949 
 30 
 0 
 11 
 28.6061751062282 
 21 
 23.8636388778687 
 31 
 0 
 62 
 7 
 0 
LINE
 8 
TemplateLayer
 6 
CONTINUOUS
 10 
 28.6061751062282 
 20 
 23.8636388778687 
 30 
 0 
 11 
 30.6818210430859 
 21 
 21.7409969708473 
 31 
 0 
 62 
 7 
 0 
LINE
 8 
TemplateLayer
 6 
CONTINUOUS
 10 
 30.6818210430859 
 20 
 21.7409969708473 
 30 
 0 
 11 
 32.02398268479 
 21 
 20.4545478820801 
 31 
 0 
 62 
 7 
 0 
LINE
 8 
TemplateLayer
 6 
CONTINUOUS
 10 
 32.02398268479 
 20 
 20.4545478820801 
 30 
 0 
 11 
 34.0909120319235 
 21 
 17.868341049194 
 31 
 0 
 62 
 7 
 0 
LINE
 8 
TemplateLayer
 6 
CONTINUOUS
 10 
 34.0909120319235 
 20 
 17.868341049194 
 30 
 0 
 11 
 34.7927838316047 
 21 
 17.0454568862915 
 31 
 0 
 62 
 7 
 0 
LINE
 8 
TemplateLayer
 6 
CONTINUOUS
 10 
 34.7927838316047 
 20 
 17.0454568862915 
 30 
 0 
 11 
 36.6897260977338 
 21 
 13.6363658905029 
 31 
 0 
 62 
 7 
 0 
LINE
 8 
TemplateLayer
 6 
CONTINUOUS
 10 
 36.6897260977338 
 20 
 13.6363658905029 
 30 
 0 
 11 
 37.30687703689 
 21 
 10.2272748947144 
 31 
 0 
 62 
 7 
 0 
LINE
 8 
TemplateLayer
 6 
CONTINUOUS
 10 
 37.30687703689 
 20 
 10.2272748947144 
 30 
 0 
 11 
 37.5000030101934 
 21 
 8.10811040719119 
 31 
 0 
 62 
 7 
 0 
LINE
 8 
TemplateLayer
 6 
CONTINUOUS
 10 
 37.5000030101934 
 20 
 8.10811040719119 
 30 
 0 
 11 
 37.6729280468354 
 21 
 6.81818389892578 
 31 
 0 
 62 
 7 
 0 
LINE
 8 
TemplateLayer
 6 
CONTINUOUS
 10 
 37.6729280468354 
 20 
 6.81818389892578 
 30 
 0 
 11 
 37.7650206541434 
 21 
 3.40909290313721 
 31 
 0 
 62 
 7 
 0 
LINE
 8 
TemplateLayer
 6 
CONTINUOUS
 10 
 37.7650206541434 
 20 
 3.40909290313721 
 30 
 0 
 11 
 37.524180454094 
 21 
 1.9073486328125E-06 
 31 
 0 
 62 
 7 
 0 
LINE
 8 
TemplateLayer
 6 
CONTINUOUS
 10 
 37.524180454094 
 20 
 1.9073486328125E-06 
 30 
 0 
 11 
 37.7650206419055 
 21 
-3.40908908843994 
 31 
 0 
 62 
 7 
 0 
LINE
 8 
TemplateLayer
 6 
CONTINUOUS
 10 
 37.7650206419055 
 20 
-3.40908908843994 
 30 
 0 
 11 
 37.6729280223596 
 21 
-6.81818008422852 
 31 
 0 
 62 
 7 
 0 
LINE
 8 
TemplateLayer
 6 
CONTINUOUS
 10 
 37.6729280223596 
 20 
-6.81818008422852 
 30 
 0 
 11 
 37.500002981087 
 21 
-8.10810659249393 
 31 
 0 
 62 
 7 
 0 
LINE
 8 
TemplateLayer
 6 
CONTINUOUS
 10 
 37.500002981087 
 20 
-8.10810659249393 
 30 
 0 
 11 
 37.3068770001762 
 21 
-10.2272710800171 
 31 
 0 
 62 
 7 
 0 
LINE
 8 
TemplateLayer
 6 
CONTINUOUS
 10 
 37.3068770001762 
 20 
-10.2272710800171 
 30 
 0 
 11 
 36.6897260487821 
 21 
-13.6363620758057 
 31 
 0 
 62 
 7 
 0 
LINE
 8 
TemplateLayer
 6 
CONTINUOUS
 10 
 36.6897260487821 
 20 
-13.6363620758057 
 30 
 0 
 11 
 34.792783770415 
 21 
-17.0454530715942 
 31 
 0 
 62 
 7 
 0 
LINE
 8 
TemplateLayer
 6 
CONTINUOUS
 10 
 34.792783770415 
 20 
-17.0454530715942 
 30 
 0 
 11 
 34.0909119677798 
 21 
-17.8683372344967 
 31 
 0 
 62 
 7 
 0 
LINE
 8 
TemplateLayer
 6 
CONTINUOUS
 10 
 34.0909119677798 
 20 
-17.8683372344967 
 30 
 0 
 11 
 32.0239826113624 
 21 
-20.4545440673828 
 31 
 0 
 62 
 7 
 0 
LINE
 8 
TemplateLayer
 6 
CONTINUOUS
 10 
 32.0239826113624 
 20 
-20.4545440673828 
 30 
 0 
 11 
 30.6818209650402 
 21 
-21.74099315615 
 31 
 0 
 62 
 7 
 0 
LINE
 8 
TemplateLayer
 6 
CONTINUOUS
 10 
 30.6818209650402 
 20 
-21.74099315615 
 30 
 0 
 11 
 28.6061750205626 
 21 
-23.8636350631714 
 31 
 0 
 62 
 7 
 0 
LINE
 8 
TemplateLayer
 6 
CONTINUOUS
 10 
 28.6061750205626 
 20 
-23.8636350631714 
 30 
 0 
 11 
 27.2727299635056 
 21 
-24.9423325487976 
 31 
 0 
 62 
 7 
 0 
LINE
 8 
TemplateLayer
 6 
CONTINUOUS
 10 
 27.2727299635056 
 20 
-24.9423325487976 
 30 
 0 
 11 
 26.1297111742188 
 21 
-27.27272605896 
 31 
 0 
 62 
 7 
 0 
LINE
 8 
TemplateLayer
 6 
CONTINUOUS
 10 
 26.1297111742188 
 20 
-27.27272605896 
 30 
 0 
 11 
 25.4762380351564 
 21 
-30.6818170547485 
 31 
 0 
 62 
 7 
 0 
LINE
 8 
TemplateLayer
 6 
CONTINUOUS
 10 
 25.4762380351564 
 20 
-30.6818170547485 
 30 
 0 
 11 
 23.8636389522481 
 21 
-33.5606045468354 
 31 
 0 
 62 
 7 
 0 
LINE
 8 
TemplateLayer
 6 
CONTINUOUS
 10 
 23.8636389522481 
 20 
-33.5606045468354 
 30 
 0 
 11 
 23.5909114587595 
 21 
-34.0909080505371 
 31 
 0 
 62 
 7 
 0 
LINE
 8 
TemplateLayer
 6 
CONTINUOUS
 10 
 23.5909114587595 
 20 
-34.0909080505371 
 30 
 0 
 11 
 20.5987392414755 
 21 
-37.4999990463257 
 31 
 0 
 62 
 7 
 0 
LINE
 8 
TemplateLayer
 6 
CONTINUOUS
 10 
 20.5987392414755 
 20 
-37.4999990463257 
 30 
 0 
 11 
 20.4545479491418 
 21 
-37.6375417301067 
 31 
 0 
 62 
 7 
 0 
LINE
 8 
TemplateLayer
 6 
CONTINUOUS
 10 
 20.4545479491418 
 20 
-37.6375417301067 
 30 
 0 
 11 
 17.0454569485172 
 21 
-40.3318895213405 
 31 
 0 
 62 
 7 
 0 
LINE
 8 
TemplateLayer
 6 
CONTINUOUS
 10 
 17.0454569485172 
 20 
-40.3318895213405 
 30 
 0 
 11 
 14.7727296169554 
 21 
-40.9090900421143 
 31 
 0 
 62 
 7 
 0 
LINE
 8 
TemplateLayer
 6 
CONTINUOUS
 10 
 14.7727296169554 
 20 
-40.9090900421143 
 30 
 0 
 11 
 13.6363659509949 
 21 
-41.2977749682937 
 31 
 0 
 62 
 7 
 0 
LINE
 8 
TemplateLayer
 6 
CONTINUOUS
 10 
 13.6363659509949 
 20 
-41.2977749682937 
 30 
 0 
 11 
 10.2272749542043 
 21 
-41.856059676062 
 31 
 0 
 62 
 7 
 0 
LINE
 8 
TemplateLayer
 6 
CONTINUOUS
 10 
 10.2272749542043 
 20 
-41.856059676062 
 30 
 0 
 11 
 6.8181839581994 
 21 
-41.9765832184913 
 31 
 0 
 62 
 7 
 0 
LINE
 8 
TemplateLayer
 6 
CONTINUOUS
 10 
 6.8181839581994 
 20 
-41.9765832184913 
 30 
 0 
 11 
 3.40909296291378 
 21 
-41.6963746825948 
 31 
 0 
 62 
 7 
 0 
LINE
 8 
TemplateLayer
 6 
CONTINUOUS
 10 
 3.40909296291378 
 20 
-41.6963746825948 
 30 
 0 
 11 
 0.123968703924771 
 21 
-40.9090900421143 
 31 
 0 
 62 
 7 
 0 
LINE
 8 
TemplateLayer
 6 
CONTINUOUS
 10 
 0.123968703924771 
 20 
-40.9090900421143 
 30 
 0 
 11 
 1.96857560727515E-06 
 21 
-40.8883029349489 
 31 
 0 
 62 
 7 
 0 
LINE
 8 
TemplateLayer
 6 
CONTINUOUS
 10 
 1.96857560727515E-06 
 20 
-40.8883029349489 
 30 
 0 
 11 
-3.40908902596853 
 21 
-40.1949816427632 
 31 
 0 
 62 
 7 
 0 
LINE
 8 
TemplateLayer
 6 
CONTINUOUS
 10 
-3.40908902596853 
 20 
-40.1949816427632 
 30 
 0 
 11 
-6.81818001959349 
 21 
-38.9895568984941 
 31 
 0 
 62 
 7 
 0 
LINE
 8 
TemplateLayer
 6 
CONTINUOUS
 10 
-6.81818001959349 
 20 
-38.9895568984941 
 30 
 0 
 11 
-9.44263883813115 
 21 
-37.4999990463257 
 31 
 0 
 62 
 7 
 0 
LINE
 8 
TemplateLayer
 6 
CONTINUOUS
 10 
-9.44263883813115 
 20 
-37.4999990463257 
 30 
 0 
 11 
-10.2272710121451 
 21 
-37.1861461208189 
 31 
 0 
 62 
 7 
 0 
LINE
 8 
TemplateLayer
 6 
CONTINUOUS
 10 
-10.2272710121451 
 20 
-37.1861461208189 
 30 
 0 
 11 
-13.6363620034008 
 21 
-34.6606991311794 
 31 
 0 
 62 
 7 
 0 
LINE
 8 
TemplateLayer
 6 
CONTINUOUS
 10 
-13.6363620034008 
 20 
-34.6606991311794 
 30 
 0 
 11 
-14.2769233050314 
 21 
-34.0909080505371 
 31 
 0 
 62 
 7 
 0 
LINE
 8 
TemplateLayer
 6 
CONTINUOUS
 10 
-14.2769233050314 
 20 
-34.0909080505371 
 30 
 0 
 11 
-17.0454529932444 
 21 
-31.3485793972453 
 31 
 0 
 62 
 7 
 0 
LINE
 8 
TemplateLayer
 6 
CONTINUOUS
 10 
-17.0454529932444 
 20 
-31.3485793972453 
 30 
 0 
 11 
-17.6075903478776 
 21 
-30.6818170547485 
 31 
 0 
 62 
 7 
 0 
LINE
 8 
TemplateLayer
 6 
CONTINUOUS
 10 
-17.6075903478776 
 20 
-30.6818170547485 
 30 
 0 
 11 
-19.7353017729171 
 21 
-27.27272605896 
 31 
 0 
 62 
 7 
 0 
LINE
 8 
TemplateLayer
 6 
CONTINUOUS
 10 
-19.7353017729171 
 20 
-27.27272605896 
 30 
 0 
 11 
-20.4545439766319 
 21 
-24.4394945880311 
 31 
 0 
 62 
 7 
 0 
LINE
 8 
TemplateLayer
 6 
CONTINUOUS
 10 
-20.4545439766319 
 20 
-24.4394945880311 
 30 
 0 
 11 
-20.6263730029551 
 21 
-23.8636350631714 
 31 
 0 
 62 
 7 
 0 
LINE
 8 
TemplateLayer
 6 
CONTINUOUS
 10 
-20.6263730029551 
 20 
-23.8636350631714 
 30 
 0 
 11 
-21.1919031960847 
 21 
-20.4545440673828 
 31 
 0 
 62 
 7 
 0 
LINE
 8 
TemplateLayer
 6 
CONTINUOUS
 10 
-21.1919031960847 
 20 
-20.4545440673828 
 30 
 0 
 11 
-23.8339906320029 
 21 
-17.0454530715942 
 31 
 0 
 62 
 7 
 0 
LINE
 8 
TemplateLayer
 6 
CONTINUOUS
 10 
-23.8339906320029 
 20 
-17.0454530715942 
 30 
 0 
 11 
-23.863634959048 
 21 
-16.9891973422375 
 31 
 0 
 62 
 7 
 0 
LINE
 8 
TemplateLayer
 6 
CONTINUOUS
 10 
-23.863634959048 
 20 
-16.9891973422375 
 30 
 0 
 11 
-26.0530944946707 
 21 
-13.6363620758057 
 31 
 0 
 62 
 7 
 0 
LINE
 8 
TemplateLayer
 6 
CONTINUOUS
 10 
-26.0530944946707 
 20 
-13.6363620758057 
 30 
 0 
 11 
-27.2727259430143 
 21 
-10.4025958427383 
 31 
 0 
 62 
 7 
 0 
LINE
 8 
TemplateLayer
 6 
CONTINUOUS
 10 
-27.2727259430143 
 20 
-10.4025958427383 
 30 
 0 
 11 
-27.3624388831857 
 21 
-10.2272710800171 
 31 
 0 
 62 
 7 
 0 
LINE
 8 
TemplateLayer
 6 
CONTINUOUS
 10 
-27.3624388831857 
 20 
-10.2272710800171 
 30 
 0 
 11 
-28.7225692940437 
 21 
-6.81818008422852 
 31 
 0 
 62 
 7 
 0 
LINE
 8 
TemplateLayer
 6 
CONTINUOUS
 10 
-28.7225692940437 
 20 
-6.81818008422852 
 30 
 0 
 11 
-29.4647645101898 
 21 
-3.40908908843994 
 31 
 0 
 62 
 7 
 0 
LINE
 8 
TemplateLayer
 6 
CONTINUOUS
 10 
-29.4647645101898 
 20 
-3.40908908843994 
 30 
 0 
 11 
-29.7582632406103 
 21 
 1.9073486328125E-06 
 31 
 0 
 62 
 7 
 0 
LINE
 8 
TemplateLayer
 6 
CONTINUOUS
 10 
-29.7582632406103 
 20 
 1.9073486328125E-06 
 30 
 0 
 11 
-29.4647644979518 
 21 
 3.40909290313721 
 31 
 0 
 62 
 7 
 0 
LINE
 8 
TemplateLayer
 6 
CONTINUOUS
 10 
-29.4647644979518 
 20 
 3.40909290313721 
 30 
 0 
 11 
-28.7225692695679 
 21 
 6.81818389892578 
 31 
 0 
 62 
 7 
 0 
LINE
 8 
TemplateLayer
 6 
CONTINUOUS
 10 
-28.7225692695679 
 20 
 6.81818389892578 
 30 
 0 
 11 
-27.3624388464719 
 21 
 10.2272748947144 
 31 
 0 
 62 
 7 
 0 
LINE
 8 
TemplateLayer
 6 
CONTINUOUS
 10 
-27.3624388464719 
 20 
 10.2272748947144 
 30 
 0 
 11 
-27.2727259056711 
 21 
 10.4025996574356 
 31 
 0 
 62 
 7 
 0 
LINE
 8 
TemplateLayer
 6 
CONTINUOUS
 10 
-27.2727259056711 
 20 
 10.4025996574356 
 30 
 0 
 11 
-26.053094445719 
 21 
 13.6363658905029 
 31 
 0 
 62 
 7 
 0 
LINE
 8 
TemplateLayer
 6 
CONTINUOUS
 10 
-26.053094445719 
 20 
 13.6363658905029 
 30 
 0 
 11 
-23.8636348980603 
 21 
 16.9892011569348 
 31 
 0 
 62 
 7 
 0 
LINE
 8 
TemplateLayer
 6 
CONTINUOUS
 10 
-23.8636348980603 
 20 
 16.9892011569348 
 30 
 0 
 11 
-23.8339905708132 
 21 
 17.0454568862915 
 31 
 0 
 62 
 7 
 0 
LINE
 8 
TemplateLayer
 6 
CONTINUOUS
 10 
-23.8339905708132 
 20 
 17.0454568862915 
 30 
 0 
 11 
-21.1919031226571 
 21 
 20.4545478820801 
 31 
 0 
 62 
 7 
 0 
LINE
 8 
TemplateLayer
 6 
CONTINUOUS
 10 
-21.1919031226571 
 20 
 20.4545478820801 
 30 
 0 
 11 
-20.6263729172896 
 21 
 23.8636388778687 
 31 
 0 
 62 
 7 
 0 
LINE
 8 
TemplateLayer
 6 
CONTINUOUS
 10 
-20.6263729172896 
 20 
 23.8636388778687 
 30 
 0 
 11 
-20.4545438888992 
 21 
 24.4394984027284 
 31 
 0 
 62 
 7 
 0 
LINE
 8 
TemplateLayer
 6 
CONTINUOUS
 10 
-20.4545438888992 
 20 
 24.4394984027284 
 30 
 0 
 11 
-19.7353016750136 
 21 
 27.2727298736572 
 31 
 0 
 62 
 7 
 0 
LINE
 8 
TemplateLayer
 6 
CONTINUOUS
 10 
-19.7353016750136 
 20 
 27.2727298736572 
 30 
 0 
 11 
-17.6075902377362 
 21 
 30.6818208694458 
 31 
 0 
 62 
 7 
 0 
LINE
 8 
TemplateLayer
 6 
CONTINUOUS
 10 
-17.6075902377362 
 20 
 30.6818208694458 
 30 
 0 
 11 
-17.0454528807095 
 21 
 31.3485832119425 
 31 
 0 
 62 
 7 
 0 
LINE
 8 
TemplateLayer
 6 
CONTINUOUS
 10 
-17.0454528807095 
 20 
 31.3485832119425 
 30 
 0 
 11 
-14.2769231826521 
 21 
 34.0909118652344 
 31 
 0 
 62 
 7 
 0 
LINE
 8 
TemplateLayer
 6 
CONTINUOUS
 10 
-14.2769231826521 
 20 
 34.0909118652344 
 30 
 0 
 11 
-13.636361878976 
 21 
 34.6607029458767 
 31 
 0 
 62 
 7 
 0 
LINE
 8 
TemplateLayer
 6 
CONTINUOUS
 10 
-13.636361878976 
 20 
 34.6607029458767 
 30 
 0 
 11 
-10.2272708786545 
 21 
 37.1861499355162 
 31 
 0 
 62 
 7 
 0 
LINE
 8 
TemplateLayer
 6 
CONTINUOUS
 10 
-10.2272708786545 
 20 
 37.1861499355162 
 30 
 0 
 11 
-9.44263870351389 
 21 
 37.5000028610229 
 31 
 0 
 62 
 7 
 0 
LINE
 8 
TemplateLayer
 6 
CONTINUOUS
 10 
-9.44263870351389 
 20 
 37.5000028610229 
 30 
 0 
 11 
-6.81817987962902 
 21 
 38.9895607131914 
 31 
 0 
 62 
 7 
 0 
LINE
 8 
TemplateLayer
 6 
CONTINUOUS
 10 
-6.81817987962902 
 20 
 38.9895607131914 
 30 
 0 
 11 
-3.40908888167684 
 21 
 40.1949854574604 
 31 
 0 
 62 
 7 
 0 
LINE
 8 
TemplateLayer
 6 
CONTINUOUS
 10 
-3.40908888167684 
 20 
 40.1949854574604 
 30 
 0 
 11 
 2.11535617886116E-06 
 21 
 40.8883067496461 
 31 
 0 
 62 
 7 
 0 
LINE
 8 
TemplateLayer
 6 
CONTINUOUS
 10 
 2.11535617886116E-06 
 20 
 40.8883067496461 
 30 
 0 
 11 
 0.123968850779964 
 21 
 40.9090938568115 
 31 
 0 
 62 
 7 
 0 
LINE
 8 
TemplateLayer
 6 
CONTINUOUS
 10 
 0.123968850779964 
 20 
 40.9090938568115 
 30 
 0 
 11 
 3.40909311259516 
 21 
 41.696378497292 
 31 
 0 
 62 
 7 
 0 
LINE
 8 
TemplateLayer
 6 
CONTINUOUS
 10 
-6.8181798869774 
 20 
 34.895522065914 
 30 
 0 
 11 
-3.40908888874414 
 21 
 36.2575395146689 
 31 
 0 
 62 
 1 
 0 
LINE
 8 
TemplateLayer
 6 
CONTINUOUS
 10 
-3.40908888874414 
 20 
 36.2575395146689 
 30 
 0 
 11 
 2.10819689126091E-06 
 21 
 36.8996162745739 
 31 
 0 
 62 
 1 
 0 
LINE
 8 
TemplateLayer
 6 
CONTINUOUS
 10 
 2.10819689126091E-06 
 20 
 36.8996162745739 
 30 
 0 
 11 
 3.40909310461726 
 21 
 37.2516106443635 
 31 
 0 
 62 
 1 
 0 
LINE
 8 
TemplateLayer
 6 
CONTINUOUS
 10 
 3.40909310461726 
 20 
 37.2516106443635 
 30 
 0 
 11 
 6.81818410077904 
 21 
 37.45953878885 
 31 
 0 
 62 
 1 
 0 
LINE
 8 
TemplateLayer
 6 
CONTINUOUS
 10 
 6.81818410077904 
 20 
 37.45953878885 
 30 
 0 
 11 
 10.2272750965062 
 21 
 37.4253339878163 
 31 
 0 
 62 
 1 
 0 
LINE
 8 
TemplateLayer
 6 
CONTINUOUS
 10 
 10.2272750965062 
 20 
 37.4253339878163 
 30 
 0 
 11 
 13.636366091642 
 21 
 37.0616534765707 
 31 
 0 
 62 
 1 
 0 
LINE
 8 
TemplateLayer
 6 
CONTINUOUS
 10 
 13.636366091642 
 20 
 37.0616534765707 
 30 
 0 
 11 
 17.0454570840081 
 21 
 35.1548675430996 
 31 
 0 
 62 
 1 
 0 
LINE
 8 
TemplateLayer
 6 
CONTINUOUS
 10 
 17.0454570840081 
 20 
 35.1548675430996 
 30 
 0 
 11 
 18.1262787120493 
 21 
 34.0909118652344 
 31 
 0 
 62 
 1 
 0 
LINE
 8 
TemplateLayer
 6 
CONTINUOUS
 10 
 18.1262787120493 
 20 
 34.0909118652344 
 30 
 0 
 11 
 20.454548072061 
 21 
 30.8450553998076 
 31 
 0 
 62 
 1 
 0 
LINE
 8 
TemplateLayer
 6 
CONTINUOUS
 10 
 20.454548072061 
 20 
 30.8450553998076 
 30 
 0 
 11 
 20.565621179275 
 21 
 30.6818208694458 
 31 
 0 
 62 
 1 
 0 
LINE
 8 
TemplateLayer
 6 
CONTINUOUS
 10 
 20.565621179275 
 20 
 30.6818208694458 
 30 
 0 
 11 
 22.3007810763134 
 21 
 27.2727298736572 
 31 
 0 
 62 
 1 
 0 
LINE
 8 
TemplateLayer
 6 
CONTINUOUS
 10 
 22.3007810763134 
 20 
 27.2727298736572 
 30 
 0 
 11 
 23.0501763492622 
 21 
 23.8636388778687 
 31 
 0 
 62 
 1 
 0 
LINE
 8 
TemplateLayer
 6 
CONTINUOUS
 10 
 23.0501763492622 
 20 
 23.8636388778687 
 30 
 0 
 11 
 23.8636390521916 
 21 
 22.1214113149889 
 31 
 0 
 62 
 1 
 0 
LINE
 8 
TemplateLayer
 6 
CONTINUOUS
 10 
 23.8636390521916 
 20 
 22.1214113149889 
 30 
 0 
 11 
 25.4861936451776 
 21 
 20.4545478820801 
 31 
 0 
 62 
 1 
 0 
LINE
 8 
TemplateLayer
 6 
CONTINUOUS
 10 
 25.4861936451776 
 20 
 20.4545478820801 
 30 
 0 
 11 
 27.2727300402621 
 21 
 17.8214065928693 
 31 
 0 
 62 
 1 
 0 
LINE
 8 
TemplateLayer
 6 
CONTINUOUS
 10 
 27.2727300402621 
 20 
 17.8214065928693 
 30 
 0 
 11 
 27.8925646277272 
 21 
 17.0454568862915 
 31 
 0 
 62 
 1 
 0 
LINE
 8 
TemplateLayer
 6 
CONTINUOUS
 10 
 27.8925646277272 
 20 
 17.0454568862915 
 30 
 0 
 11 
 29.945220097698 
 21 
 13.6363658905029 
 31 
 0 
 62 
 1 
 0 
LINE
 8 
TemplateLayer
 6 
CONTINUOUS
 10 
 29.945220097698 
 20 
 13.6363658905029 
 30 
 0 
 11 
 30.6818210234653 
 21 
 10.8096604529628 
 31 
 0 
 62 
 1 
 0 
LINE
 8 
TemplateLayer
 6 
CONTINUOUS
 10 
 30.6818210234653 
 20 
 10.8096604529628 
 30 
 0 
 11 
 30.8942413337291 
 21 
 10.2272748947144 
 31 
 0 
 62 
 1 
 0 
LINE
 8 
TemplateLayer
 6 
CONTINUOUS
 10 
 30.8942413337291 
 20 
 10.2272748947144 
 30 
 0 
 11 
 31.6157555349448 
 21 
 6.81818389892578 
 31 
 0 
 62 
 1 
 0 
LINE
 8 
TemplateLayer
 6 
CONTINUOUS
 10 
 31.6157555349448 
 20 
 6.81818389892578 
 30 
 0 
 11 
 31.9226455115594 
 21 
 3.40909290313721 
 31 
 0 
 62 
 1 
 0 
LINE
 8 
TemplateLayer
 6 
CONTINUOUS
 10 
 31.9226455115594 
 20 
 3.40909290313721 
 30 
 0 
 11 
 31.7686545042068 
 21 
 1.9073486328125E-06 
 31 
 0 
 62 
 1 
 0 
LINE
 8 
TemplateLayer
 6 
CONTINUOUS
 10 
 31.7686545042068 
 20 
 1.9073486328125E-06 
 30 
 0 
 11 
 31.9226454993215 
 21 
-3.40908908843994 
 31 
 0 
 62 
 1 
 0 
LINE
 8 
TemplateLayer
 6 
CONTINUOUS
 10 
 31.9226454993215 
 20 
-3.40908908843994 
 30 
 0 
 11 
 31.6157555104689 
 21 
-6.81818008422852 
 31 
 0 
 62 
 1 
 0 
LINE
 8 
TemplateLayer
 6 
CONTINUOUS
 10 
 31.6157555104689 
 20 
-6.81818008422852 
 30 
 0 
 11 
 30.8942412970153 
 21 
-10.2272710800171 
 31 
 0 
 62 
 1 
 0 
LINE
 8 
TemplateLayer
 6 
CONTINUOUS
 10 
 30.8942412970153 
 20 
-10.2272710800171 
 30 
 0 
 11 
 30.6818209846608 
 21 
-10.8096566382656 
 31 
 0 
 62 
 1 
 0 
LINE
 8 
TemplateLayer
 6 
CONTINUOUS
 10 
 30.6818209846608 
 20 
-10.8096566382656 
 30 
 0 
 11 
 29.9452200487463 
 21 
-13.6363620758057 
 31 
 0 
 62 
 1 
 0 
LINE
 8 
TemplateLayer
 6 
CONTINUOUS
 10 
 29.9452200487463 
 20 
-13.6363620758057 
 30 
 0 
 11 
 27.8925645665375 
 21 
-17.0454530715942 
 31 
 0 
 62 
 1 
 0 
LINE
 8 
TemplateLayer
 6 
CONTINUOUS
 10 
 27.8925645665375 
 20 
-17.0454530715942 
 30 
 0 
 11 
 27.2727299762869 
 21 
-17.821402778172 
 31 
 0 
 62 
 1 
 0 
LINE
 8 
TemplateLayer
 6 
CONTINUOUS
 10 
 27.2727299762869 
 20 
-17.821402778172 
 30 
 0 
 11 
 25.48619357175 
 21 
-20.4545440673828 
 31 
 0 
 62 
 1 
 0 
LINE
 8 
TemplateLayer
 6 
CONTINUOUS
 10 
 25.48619357175 
 20 
-20.4545440673828 
 30 
 0 
 11 
 23.8636389727803 
 21 
-22.1214075002916 
 31 
 0 
 62 
 1 
 0 
LINE
 8 
TemplateLayer
 6 
CONTINUOUS
 10 
 23.8636389727803 
 20 
-22.1214075002916 
 30 
 0 
 11 
 23.0501762635967 
 21 
-23.8636350631714 
 31 
 0 
 62 
 1 
 0 
LINE
 8 
TemplateLayer
 6 
CONTINUOUS
 10 
 23.0501762635967 
 20 
-23.8636350631714 
 30 
 0 
 11 
 22.30078097841 
 21 
-27.27272605896 
 31 
 0 
 62 
 1 
 0 
LINE
 8 
TemplateLayer
 6 
CONTINUOUS
 10 
 22.30078097841 
 20 
-27.27272605896 
 30 
 0 
 11 
 20.5656210691336 
 21 
-30.6818170547485 
 31 
 0 
 62 
 1 
 0 
LINE
 8 
TemplateLayer
 6 
CONTINUOUS
 10 
 20.5656210691336 
 20 
-30.6818170547485 
 30 
 0 
 11 
 20.4545479613337 
 21 
-30.8450515851103 
 31 
 0 
 62 
 1 
 0 
LINE
 8 
TemplateLayer
 6 
CONTINUOUS
 10 
 20.4545479613337 
 20 
-30.8450515851103 
 30 
 0 
 11 
 18.1262785896699 
 21 
-34.0909080505371 
 31 
 0 
 62 
 1 
 0 
LINE
 8 
TemplateLayer
 6 
CONTINUOUS
 10 
 18.1262785896699 
 20 
-34.0909080505371 
 30 
 0 
 11 
 17.0454569578094 
 21 
-35.1548637284023 
 31 
 0 
 62 
 1 
 0 
LINE
 8 
TemplateLayer
 6 
CONTINUOUS
 10 
 17.0454569578094 
 20 
-35.1548637284023 
 30 
 0 
 11 
 13.6363659585984 
 21 
-37.0616496618735 
 31 
 0 
 62 
 1 
 0 
LINE
 8 
TemplateLayer
 6 
CONTINUOUS
 10 
 13.6363659585984 
 20 
-37.0616496618735 
 30 
 0 
 11 
 10.227274962157 
 21 
-37.4253301731191 
 31 
 0 
 62 
 1 
 0 
LINE
 8 
TemplateLayer
 6 
CONTINUOUS
 10 
 10.227274962157 
 20 
-37.4253301731191 
 30 
 0 
 11 
 6.81818396630704 
 21 
-37.4595349741527 
 31 
 0 
 62 
 1 
 0 
LINE
 8 
TemplateLayer
 6 
CONTINUOUS
 10 
 6.81818396630704 
 20 
-37.4595349741527 
 30 
 0 
 11 
 3.40909297089168 
 21 
-37.2516068296662 
 31 
 0 
 62 
 1 
 0 
LINE
 8 
TemplateLayer
 6 
CONTINUOUS
 10 
 3.40909297089168 
 20 
-37.2516068296662 
 30 
 0 
 11 
 1.9757348948754E-06 
 21 
-36.8996124598767 
 31 
 0 
 62 
 1 
 0 
LINE
 8 
TemplateLayer
 6 
CONTINUOUS
 10 
 1.9757348948754E-06 
 20 
-36.8996124598767 
 30 
 0 
 11 
-3.40908901890122 
 21 
-36.2575356999716 
 31 
 0 
 62 
 1 
 0 
LINE
 8 
TemplateLayer
 6 
CONTINUOUS
 10 
-3.40908901890122 
 20 
-36.2575356999716 
 30 
 0 
 11 
-6.81818001224511 
 21 
-34.8955182512167 
 31 
 0 
 62 
 1 
 0 
LINE
 8 
TemplateLayer
 6 
CONTINUOUS
 10 
-6.81818001224511 
 20 
-34.8955182512167 
 30 
 0 
 11 
-8.07204062223343 
 21 
-34.0909080505371 
 31 
 0 
 62 
 1 
 0 
LINE
 8 
TemplateLayer
 6 
CONTINUOUS
 10 
-8.07204062223343 
 20 
-34.0909080505371 
 30 
 0 
 11 
-10.2272710040067 
 21 
-32.6519620734811 
 31 
 0 
 62 
 1 
 0 
LINE
 8 
TemplateLayer
 6 
CONTINUOUS
 10 
-10.2272710040067 
 20 
-32.6519620734811 
 30 
 0 
 11 
-12.2190228673316 
 21 
-30.6818170547485 
 31 
 0 
 62 
 1 
 0 
LINE
 8 
TemplateLayer
 6 
CONTINUOUS
 10 
-12.2190228673316 
 20 
-30.6818170547485 
 30 
 0 
 11 
-13.6363619926653 
 21 
-28.6795762968767 
 31 
 0 
 62 
 1 
 0 
LINE
 8 
TemplateLayer
 6 
CONTINUOUS
 10 
-13.6363619926653 
 20 
-28.6795762968767 
 30 
 0 
 11 
-14.8354780694768 
 21 
-27.27272605896 
 31 
 0 
 62 
 1 
 0 
LINE
 8 
TemplateLayer
 6 
CONTINUOUS
 10 
-14.8354780694768 
 20 
-27.27272605896 
 30 
 0 
 11 
-16.7435792324621 
 21 
-23.8636350631714 
 31 
 0 
 62 
 1 
 0 
LINE
 8 
TemplateLayer
 6 
CONTINUOUS
 10 
-16.7435792324621 
 20 
-23.8636350631714 
 30 
 0 
 11 
-17.0454529780869 
 21 
-22.9037936217174 
 31 
 0 
 62 
 1 
 0 
LINE
 8 
TemplateLayer
 6 
CONTINUOUS
 10 
-17.0454529780869 
 20 
-22.9037936217174 
 30 
 0 
 11 
-17.8732550632928 
 21 
-20.4545440673828 
 31 
 0 
 62 
 1 
 0 
LINE
 8 
TemplateLayer
 6 
CONTINUOUS
 10 
-17.8732550632928 
 20 
-20.4545440673828 
 30 
 0 
 11 
-18.9856970813438 
 21 
-17.0454530715942 
 31 
 0 
 62 
 1 
 0 
LINE
 8 
TemplateLayer
 6 
CONTINUOUS
 10 
-18.9856970813438 
 20 
-17.0454530715942 
 30 
 0 
 11 
-20.4545439592811 
 21 
-14.7727254785392 
 31 
 0 
 62 
 1 
 0 
LINE
 8 
TemplateLayer
 6 
CONTINUOUS
 10 
-20.4545439592811 
 20 
-14.7727254785392 
 30 
 0 
 11 
-21.2538398898517 
 21 
-13.6363620758057 
 31 
 0 
 62 
 1 
 0 
LINE
 8 
TemplateLayer
 6 
CONTINUOUS
 10 
-21.2538398898517 
 20 
-13.6363620758057 
 30 
 0 
 11 
-22.9136919584469 
 21 
-10.2272710800171 
 31 
 0 
 62 
 1 
 0 
LINE
 8 
TemplateLayer
 6 
CONTINUOUS
 10 
-22.9136919584469 
 20 
-10.2272710800171 
 30 
 0 
 11 
-23.8636349412689 
 21 
-7.08382278446555 
 31 
 0 
 62 
 1 
 0 
LINE
 8 
TemplateLayer
 6 
CONTINUOUS
 10 
-23.8636349412689 
 20 
-7.08382278446555 
 30 
 0 
 11 
-23.9846674121566 
 21 
-6.81818008422852 
 31 
 0 
 62 
 1 
 0 
LINE
 8 
TemplateLayer
 6 
CONTINUOUS
 10 
-23.9846674121566 
 20 
-6.81818008422852 
 30 
 0 
 11 
-24.9977483370094 
 21 
-3.40908908843994 
 31 
 0 
 62 
 1 
 0 
LINE
 8 
TemplateLayer
 6 
CONTINUOUS
 10 
-24.9977483370094 
 20 
-3.40908908843994 
 30 
 0 
 11 
-25.3854379817397 
 21 
 1.9073486328125E-06 
 31 
 0 
 62 
 1 
 0 
LINE
 8 
TemplateLayer
 6 
CONTINUOUS
 10 
-25.3854379817397 
 20 
 1.9073486328125E-06 
 30 
 0 
 11 
-24.9977483247715 
 21 
 3.40909290313721 
 31 
 0 
 62 
 1 
 0 
LINE
 8 
TemplateLayer
 6 
CONTINUOUS
 10 
-24.9977483247715 
 20 
 3.40909290313721 
 30 
 0 
 11 
-23.9846673876807 
 21 
 6.81818389892578 
 31 
 0 
 62 
 1 
 0 
LINE
 8 
TemplateLayer
 6 
CONTINUOUS
 10 
-23.9846673876807 
 20 
 6.81818389892578 
 30 
 0 
 11 
-23.8636349158394 
 21 
 7.08382659916282 
 31 
 0 
 62 
 1 
 0 
LINE
 8 
TemplateLayer
 6 
CONTINUOUS
 10 
-23.8636349158394 
 20 
 7.08382659916282 
 30 
 0 
 11 
-22.9136919217331 
 21 
 10.2272748947144 
 31 
 0 
 62 
 1 
 0 
LINE
 8 
TemplateLayer
 6 
CONTINUOUS
 10 
-22.9136919217331 
 20 
 10.2272748947144 
 30 
 0 
 11 
-21.2538398409 
 21 
 13.6363658905029 
 31 
 0 
 62 
 1 
 0 
LINE
 8 
TemplateLayer
 6 
CONTINUOUS
 10 
-21.2538398409 
 20 
 13.6363658905029 
 30 
 0 
 11 
-20.45454390625 
 21 
 14.7727292932365 
 31 
 0 
 62 
 1 
 0 
LINE
 8 
TemplateLayer
 6 
CONTINUOUS
 10 
-20.45454390625 
 20 
 14.7727292932365 
 30 
 0 
 11 
-18.9856970201542 
 21 
 17.0454568862915 
 31 
 0 
 62 
 1 
 0 
LINE
 8 
TemplateLayer
 6 
CONTINUOUS
 10 
-18.9856970201542 
 20 
 17.0454568862915 
 30 
 0 
 11 
-17.8732549898652 
 21 
 20.4545478820801 
 31 
 0 
 62 
 1 
 0 
LINE
 8 
TemplateLayer
 6 
CONTINUOUS
 10 
-17.8732549898652 
 20 
 20.4545478820801 
 30 
 0 
 11 
-17.045452895867 
 21 
 22.9037974364146 
 31 
 0 
 62 
 1 
 0 
LINE
 8 
TemplateLayer
 6 
CONTINUOUS
 10 
-17.045452895867 
 20 
 22.9037974364146 
 30 
 0 
 11 
-16.7435791467966 
 21 
 23.8636388778687 
 31 
 0 
 62 
 1 
 0 
LINE
 8 
TemplateLayer
 6 
CONTINUOUS
 10 
-16.7435791467966 
 20 
 23.8636388778687 
 30 
 0 
 11 
-14.8354779715733 
 21 
 27.2727298736572 
 31 
 0 
 62 
 1 
 0 
LINE
 8 
TemplateLayer
 6 
CONTINUOUS
 10 
-14.8354779715733 
 20 
 27.2727298736572 
 30 
 0 
 11 
-13.6363618897115 
 21 
 28.679580111574 
 31 
 0 
 62 
 1 
 0 
LINE
 8 
TemplateLayer
 6 
CONTINUOUS
 10 
-13.6363618897115 
 20 
 28.679580111574 
 30 
 0 
 11 
-12.2190227571902 
 21 
 30.6818208694458 
 31 
 0 
 62 
 1 
 0 
LINE
 8 
TemplateLayer
 6 
CONTINUOUS
 10 
-12.2190227571902 
 20 
 30.6818208694458 
 30 
 0 
 11 
-10.2272708867929 
 21 
 32.6519658881784 
 31 
 0 
 62 
 1 
 0 
LINE
 8 
TemplateLayer
 6 
CONTINUOUS
 10 
-10.2272708867929 
 20 
 32.6519658881784 
 30 
 0 
 11 
-8.07204049985411 
 21 
 34.0909118652344 
 31 
 0 
 62 
 1 
 0 
LINE
 8 
TemplateLayer
 6 
CONTINUOUS
 10 
-8.07204049985411 
 20 
 34.0909118652344 
 30 
 0 
 11 
-6.8181798869774 
 21 
 34.895522065914 
 31 
 0 
 62 
 1 
 0 
LINE
 8 
TemplateLayer
 6 
CONTINUOUS
 10 
-3.4090888971665 
 20 
 31.565148103138 
 30 
 0 
 11 
 2.10081640344278E-06 
 21 
 32.7876873913587 
 31 
 0 
 62 
 3 
 0 
LINE
 8 
TemplateLayer
 6 
CONTINUOUS
 10 
 2.10081640344278E-06 
 20 
 32.7876873913587 
 30 
 0 
 11 
 3.40909309665343 
 21 
 32.8146828134315 
 31 
 0 
 62 
 3 
 0 
LINE
 8 
TemplateLayer
 6 
CONTINUOUS
 10 
 3.40909309665343 
 20 
 32.8146828134315 
 30 
 0 
 11 
 6.81818409194756 
 21 
 32.5392116371514 
 31 
 0 
 62 
 3 
 0 
LINE
 8 
TemplateLayer
 6 
CONTINUOUS
 10 
 6.81818409194756 
 20 
 32.5392116371514 
 30 
 0 
 11 
 10.2272750865864 
 21 
 31.898655555444 
 31 
 0 
 62 
 3 
 0 
LINE
 8 
TemplateLayer
 6 
CONTINUOUS
 10 
 10.2272750865864 
 20 
 31.898655555444 
 30 
 0 
 11 
 12.9620749818526 
 21 
 30.6818208694458 
 31 
 0 
 62 
 3 
 0 
LINE
 8 
TemplateLayer
 6 
CONTINUOUS
 10 
 12.9620749818526 
 20 
 30.6818208694458 
 30 
 0 
 11 
 13.6363660795535 
 21 
 30.3267073266017 
 31 
 0 
 62 
 3 
 0 
LINE
 8 
TemplateLayer
 6 
CONTINUOUS
 10 
 13.6363660795535 
 20 
 30.3267073266017 
 30 
 0 
 11 
 16.2638812688275 
 21 
 27.2727298736572 
 31 
 0 
 62 
 3 
 0 
LINE
 8 
TemplateLayer
 6 
CONTINUOUS
 10 
 16.2638812688275 
 20 
 27.2727298736572 
 30 
 0 
 11 
 17.0454570674737 
 21 
 25.9429427386655 
 31 
 0 
 62 
 3 
 0 
LINE
 8 
TemplateLayer
 6 
CONTINUOUS
 10 
 17.0454570674737 
 20 
 25.9429427386655 
 30 
 0 
 11 
 18.1704834550226 
 21 
 23.8636388778687 
 31 
 0 
 62 
 3 
 0 
LINE
 8 
TemplateLayer
 6 
CONTINUOUS
 10 
 18.1704834550226 
 20 
 23.8636388778687 
 30 
 0 
 11 
 19.4028652776061 
 21 
 20.4545478820801 
 31 
 0 
 62 
 3 
 0 
LINE
 8 
TemplateLayer
 6 
CONTINUOUS
 10 
 19.4028652776061 
 20 
 20.4545478820801 
 30 
 0 
 11 
 20.4545480496176 
 21 
 18.3410213092165 
 31 
 0 
 62 
 3 
 0 
LINE
 8 
TemplateLayer
 6 
CONTINUOUS
 10 
 20.4545480496176 
 20 
 18.3410213092165 
 30 
 0 
 11 
 21.503499190849 
 21 
 17.0454568862915 
 31 
 0 
 62 
 3 
 0 
LINE
 8 
TemplateLayer
 6 
CONTINUOUS
 10 
 21.503499190849 
 20 
 17.0454568862915 
 30 
 0 
 11 
 23.357051739877 
 21 
 13.6363658905029 
 31 
 0 
 62 
 3 
 0 
LINE
 8 
TemplateLayer
 6 
CONTINUOUS
 10 
 23.357051739877 
 20 
 13.6363658905029 
 30 
 0 
 11 
 23.863639034178 
 21 
 12.085436215475 
 31 
 0 
 62 
 3 
 0 
LINE
 8 
TemplateLayer
 6 
CONTINUOUS
 10 
 23.863639034178 
 20 
 12.085436215475 
 30 
 0 
 11 
 24.7642348043634 
 21 
 10.2272748947144 
 31 
 0 
 62 
 3 
 0 
LINE
 8 
TemplateLayer
 6 
CONTINUOUS
 10 
 24.7642348043634 
 20 
 10.2272748947144 
 30 
 0 
 11 
 25.7904688345295 
 21 
 6.81818389892578 
 31 
 0 
 62 
 3 
 0 
LINE
 8 
TemplateLayer
 6 
CONTINUOUS
 10 
 25.7904688345295 
 20 
 6.81818389892578 
 30 
 0 
 11 
 26.2136226047691 
 21 
 3.40909290313721 
 31 
 0 
 62 
 3 
 0 
LINE
 8 
TemplateLayer
 6 
CONTINUOUS
 10 
 26.2136226047691 
 20 
 3.40909290313721 
 30 
 0 
 11 
 26.2387946610494 
 21 
 1.9073486328125E-06 
 31 
 0 
 62 
 3 
 0 
LINE
 8 
TemplateLayer
 6 
CONTINUOUS
 10 
 26.2387946610494 
 20 
 1.9073486328125E-06 
 30 
 0 
 11 
 26.2136225925311 
 21 
-3.40908908843994 
 31 
 0 
 62 
 3 
 0 
LINE
 8 
TemplateLayer
 6 
CONTINUOUS
 10 
 26.2136225925311 
 20 
-3.40908908843994 
 30 
 0 
 11 
 25.7904688100536 
 21 
-6.81818008422852 
 31 
 0 
 62 
 3 
 0 
LINE
 8 
TemplateLayer
 6 
CONTINUOUS
 10 
 25.7904688100536 
 20 
-6.81818008422852 
 30 
 0 
 11 
 24.7642347676496 
 21 
-10.2272710800171 
 31 
 0 
 62 
 3 
 0 
LINE
 8 
TemplateLayer
 6 
CONTINUOUS
 10 
 24.7642347676496 
 20 
-10.2272710800171 
 30 
 0 
 11 
 23.8636389907938 
 21 
-12.0854324007777 
 31 
 0 
 62 
 3 
 0 
LINE
 8 
TemplateLayer
 6 
CONTINUOUS
 10 
 23.8636389907938 
 20 
-12.0854324007777 
 30 
 0 
 11 
 23.3570516909253 
 21 
-13.6363620758057 
 31 
 0 
 62 
 3 
 0 
LINE
 8 
TemplateLayer
 6 
CONTINUOUS
 10 
 23.3570516909253 
 20 
-13.6363620758057 
 30 
 0 
 11 
 21.5034991296593 
 21 
-17.0454530715942 
 31 
 0 
 62 
 3 
 0 
LINE
 8 
TemplateLayer
 6 
CONTINUOUS
 10 
 21.5034991296593 
 20 
-17.0454530715942 
 30 
 0 
 11 
 20.4545479837771 
 21 
-18.3410174945193 
 31 
 0 
 62 
 3 
 0 
LINE
 8 
TemplateLayer
 6 
CONTINUOUS
 10 
 20.4545479837771 
 20 
-18.3410174945193 
 30 
 0 
 11 
 19.4028652041785 
 21 
-20.4545440673828 
 31 
 0 
 62 
 3 
 0 
LINE
 8 
TemplateLayer
 6 
CONTINUOUS
 10 
 19.4028652041785 
 20 
-20.4545440673828 
 30 
 0 
 11 
 18.170483369357 
 21 
-23.8636350631714 
 31 
 0 
 62 
 3 
 0 
LINE
 8 
TemplateLayer
 6 
CONTINUOUS
 10 
 18.170483369357 
 20 
-23.8636350631714 
 30 
 0 
 11 
 17.0454569743439 
 21 
-25.9429389239682 
 31 
 0 
 62 
 3 
 0 
LINE
 8 
TemplateLayer
 6 
CONTINUOUS
 10 
 17.0454569743439 
 20 
-25.9429389239682 
 30 
 0 
 11 
 16.263881170924 
 21 
-27.27272605896 
 31 
 0 
 62 
 3 
 0 
LINE
 8 
TemplateLayer
 6 
CONTINUOUS
 10 
 16.263881170924 
 20 
-27.27272605896 
 30 
 0 
 11 
 13.6363659706869 
 21 
-30.3267035119044 
 31 
 0 
 62 
 3 
 0 
LINE
 8 
TemplateLayer
 6 
CONTINUOUS
 10 
 13.6363659706869 
 20 
-30.3267035119044 
 30 
 0 
 11 
 12.9620748717112 
 21 
-30.6818170547485 
 31 
 0 
 62 
 3 
 0 
LINE
 8 
TemplateLayer
 6 
CONTINUOUS
 10 
 12.9620748717112 
 20 
-30.6818170547485 
 30 
 0 
 11 
 10.2272749720768 
 21 
-31.8986517407468 
 31 
 0 
 62 
 3 
 0 
LINE
 8 
TemplateLayer
 6 
CONTINUOUS
 10 
 10.2272749720768 
 20 
-31.8986517407468 
 30 
 0 
 11 
 6.81818397513852 
 21 
-32.5392078224542 
 31 
 0 
 62 
 3 
 0 
LINE
 8 
TemplateLayer
 6 
CONTINUOUS
 10 
 6.81818397513852 
 20 
-32.5392078224542 
 30 
 0 
 11 
 3.4090929788555 
 21 
-32.8146789987343 
 31 
 0 
 62 
 3 
 0 
LINE
 8 
TemplateLayer
 6 
CONTINUOUS
 10 
 3.4090929788555 
 20 
-32.8146789987343 
 30 
 0 
 11 
 1.98311538270046E-06 
 21 
-32.7876835766614 
 31 
 0 
 62 
 3 
 0 
LINE
 8 
TemplateLayer
 6 
CONTINUOUS
 10 
 1.98311538270046E-06 
 20 
-32.7876835766614 
 30 
 0 
 11 
-3.40908901047886 
 21 
-31.5651442884407 
 31 
 0 
 62 
 3 
 0 
LINE
 8 
TemplateLayer
 6 
CONTINUOUS
 10 
-3.40908901047886 
 20 
-31.5651442884407 
 30 
 0 
 11 
-4.86983162931093 
 21 
-30.6818170547485 
 31 
 0 
 62 
 3 
 0 
LINE
 8 
TemplateLayer
 6 
CONTINUOUS
 10 
-4.86983162931093 
 20 
-30.6818170547485 
 30 
 0 
 11 
-6.81818000246781 
 21 
-29.4482385129972 
 31 
 0 
 62 
 3 
 0 
LINE
 8 
TemplateLayer
 6 
CONTINUOUS
 10 
-6.81818000246781 
 20 
-29.4482385129972 
 30 
 0 
 11 
-8.75221719566565 
 21 
-27.27272605896 
 31 
 0 
 62 
 3 
 0 
LINE
 8 
TemplateLayer
 6 
CONTINUOUS
 10 
-8.75221719566565 
 20 
-27.27272605896 
 30 
 0 
 11 
-10.2138855152084 
 21 
-23.8636350631714 
 31 
 0 
 62 
 3 
 0 
LINE
 8 
TemplateLayer
 6 
CONTINUOUS
 10 
-10.2138855152084 
 20 
-23.8636350631714 
 30 
 0 
 11 
-10.2272709881833 
 21 
-23.8361542373379 
 31 
 0 
 62 
 3 
 0 
LINE
 8 
TemplateLayer
 6 
CONTINUOUS
 10 
-10.2272709881833 
 20 
-23.8361542373379 
 30 
 0 
 11 
-12.870871227128 
 21 
-20.4545440673828 
 31 
 0 
 62 
 3 
 0 
LINE
 8 
TemplateLayer
 6 
CONTINUOUS
 10 
-12.870871227128 
 20 
-20.4545440673828 
 30 
 0 
 11 
-13.6363619744558 
 21 
-18.5344488923045 
 31 
 0 
 62 
 3 
 0 
LINE
 8 
TemplateLayer
 6 
CONTINUOUS
 10 
-13.6363619744558 
 20 
-18.5344488923045 
 30 
 0 
 11 
-14.241628463282 
 21 
-17.0454530715942 
 31 
 0 
 62 
 3 
 0 
LINE
 8 
TemplateLayer
 6 
CONTINUOUS
 10 
-14.241628463282 
 20 
-17.0454530715942 
 30 
 0 
 11 
-15.0314274757012 
 21 
-13.6363620758057 
 31 
 0 
 62 
 3 
 0 
LINE
 8 
TemplateLayer
 6 
CONTINUOUS
 10 
-15.0314274757012 
 20 
-13.6363620758057 
 30 
 0 
 11 
-17.0454529560671 
 21 
-10.6357881191495 
 31 
 0 
 62 
 3 
 0 
LINE
 8 
TemplateLayer
 6 
CONTINUOUS
 10 
-17.0454529560671 
 20 
-10.6357881191495 
 30 
 0 
 11 
-17.3043134545816 
 21 
-10.2272710800171 
 31 
 0 
 62 
 3 
 0 
LINE
 8 
TemplateLayer
 6 
CONTINUOUS
 10 
-17.3043134545816 
 20 
-10.2272710800171 
 30 
 0 
 11 
-18.9573936050432 
 21 
-6.81818008422852 
 31 
 0 
 62 
 3 
 0 
LINE
 8 
TemplateLayer
 6 
CONTINUOUS
 10 
-18.9573936050432 
 20 
-6.81818008422852 
 30 
 0 
 11 
-19.9356086867569 
 21 
-3.40908908843994 
 31 
 0 
 62 
 3 
 0 
LINE
 8 
TemplateLayer
 6 
CONTINUOUS
 10 
-19.9356086867569 
 20 
-3.40908908843994 
 30 
 0 
 11 
-20.2959423919657 
 21 
 1.9073486328125E-06 
 31 
 0 
 62 
 3 
 0 
LINE
 8 
TemplateLayer
 6 
CONTINUOUS
 10 
-20.2959423919657 
 20 
 1.9073486328125E-06 
 30 
 0 
 11 
-19.9356086745189 
 21 
 3.40909290313721 
 31 
 0 
 62 
 3 
 0 
LINE
 8 
TemplateLayer
 6 
CONTINUOUS
 10 
-19.9356086745189 
 20 
 3.40909290313721 
 30 
 0 
 11 
-18.9573935805673 
 21 
 6.81818389892578 
 31 
 0 
 62 
 3 
 0 
LINE
 8 
TemplateLayer
 6 
CONTINUOUS
 10 
-18.9573935805673 
 20 
 6.81818389892578 
 30 
 0 
 11 
-17.3043134178678 
 21 
 10.2272748947144 
 31 
 0 
 62 
 3 
 0 
LINE
 8 
TemplateLayer
 6 
CONTINUOUS
 10 
-17.3043134178678 
 20 
 10.2272748947144 
 30 
 0 
 11 
-17.0454529178868 
 21 
 10.6357919338468 
 31 
 0 
 62 
 3 
 0 
LINE
 8 
TemplateLayer
 6 
CONTINUOUS
 10 
-17.0454529178868 
 20 
 10.6357919338468 
 30 
 0 
 11 
-15.0314274267495 
 21 
 13.6363658905029 
 31 
 0 
 62 
 3 
 0 
LINE
 8 
TemplateLayer
 6 
CONTINUOUS
 10 
-15.0314274267495 
 20 
 13.6363658905029 
 30 
 0 
 11 
-14.2416284020923 
 21 
 17.0454568862915 
 31 
 0 
 62 
 3 
 0 
LINE
 8 
TemplateLayer
 6 
CONTINUOUS
 10 
-14.2416284020923 
 20 
 17.0454568862915 
 30 
 0 
 11 
-13.636361907921 
 21 
 18.5344527070018 
 31 
 0 
 62 
 3 
 0 
LINE
 8 
TemplateLayer
 6 
CONTINUOUS
 10 
-13.636361907921 
 20 
 18.5344527070018 
 30 
 0 
 11 
-12.8708711537004 
 21 
 20.4545478820801 
 31 
 0 
 62 
 3 
 0 
LINE
 8 
TemplateLayer
 6 
CONTINUOUS
 10 
-12.8708711537004 
 20 
 20.4545478820801 
 30 
 0 
 11 
-10.2272709026164 
 21 
 23.8361580520352 
 31 
 0 
 62 
 3 
 0 
LINE
 8 
TemplateLayer
 6 
CONTINUOUS
 10 
-10.2272709026164 
 20 
 23.8361580520352 
 30 
 0 
 11 
-10.2138854295428 
 21 
 23.8636388778687 
 31 
 0 
 62 
 3 
 0 
LINE
 8 
TemplateLayer
 6 
CONTINUOUS
 10 
-10.2138854295428 
 20 
 23.8636388778687 
 30 
 0 
 11 
-8.75221709776219 
 21 
 27.2727298736572 
 31 
 0 
 62 
 3 
 0 
LINE
 8 
TemplateLayer
 6 
CONTINUOUS
 10 
-8.75221709776219 
 20 
 27.2727298736572 
 30 
 0 
 11 
-6.8181798967547 
 21 
 29.4482423276945 
 31 
 0 
 62 
 3 
 0 
LINE
 8 
TemplateLayer
 6 
CONTINUOUS
 10 
-6.8181798967547 
 20 
 29.4482423276945 
 30 
 0 
 11 
-4.86983151916953 
 21 
 30.6818208694458 
 31 
 0 
 62 
 3 
 0 
LINE
 8 
TemplateLayer
 6 
CONTINUOUS
 10 
-4.86983151916953 
 20 
 30.6818208694458 
 30 
 0 
 11 
-3.4090888971665 
 21 
 31.565148103138 
 31 
 0 
 62 
 3 
 0 
LINE
 8 
TemplateLayer
 6 
CONTINUOUS
 10 
-3.40908890464991 
 20 
 27.3958766675959 
 30 
 0 
 11 
 2.09426763369408E-06 
 21 
 29.1391378481021 
 31 
 0 
 62 
 5 
 0 
LINE
 8 
TemplateLayer
 6 
CONTINUOUS
 10 
 2.09426763369408E-06 
 20 
 29.1391378481021 
 30 
 0 
 11 
 3.40909308956179 
 21 
 28.8636803840879 
 31 
 0 
 62 
 5 
 0 
LINE
 8 
TemplateLayer
 6 
CONTINUOUS
 10 
 3.40909308956179 
 20 
 28.8636803840879 
 30 
 0 
 11 
 6.81818408387513 
 21 
 28.041773569791 
 31 
 0 
 62 
 5 
 0 
LINE
 8 
TemplateLayer
 6 
CONTINUOUS
 10 
 6.81818408387513 
 20 
 28.041773569791 
 30 
 0 
 11 
 8.81017038242421 
 21 
 27.2727298736572 
 31 
 0 
 62 
 5 
 0 
LINE
 8 
TemplateLayer
 6 
CONTINUOUS
 10 
 8.81017038242421 
 20 
 27.2727298736572 
 30 
 0 
 11 
 10.22727507739 
 21 
 26.7750265007093 
 31 
 0 
 62 
 5 
 0 
LINE
 8 
TemplateLayer
 6 
CONTINUOUS
 10 
 10.22727507739 
 20 
 26.7750265007093 
 30 
 0 
 11 
 13.2743254703742 
 21 
 23.8636388778687 
 31 
 0 
 62 
 5 
 0 
LINE
 8 
TemplateLayer
 6 
CONTINUOUS
 10 
 13.2743254703742 
 20 
 23.8636388778687 
 30 
 0 
 11 
 13.6363660671335 
 21 
 23.4071056031709 
 31 
 0 
 62 
 5 
 0 
LINE
 8 
TemplateLayer
 6 
CONTINUOUS
 10 
 13.6363660671335 
 20 
 23.4071056031709 
 30 
 0 
 11 
 15.5724609235089 
 21 
 20.4545478820801 
 31 
 0 
 62 
 5 
 0 
LINE
 8 
TemplateLayer
 6 
CONTINUOUS
 10 
 15.5724609235089 
 20 
 20.4545478820801 
 30 
 0 
 11 
 16.870207540186 
 21 
 17.0454568862915 
 31 
 0 
 62 
 5 
 0 
LINE
 8 
TemplateLayer
 6 
CONTINUOUS
 10 
 16.870207540186 
 20 
 17.0454568862915 
 30 
 0 
 11 
 17.0454570509218 
 21 
 16.7213421377663 
 31 
 0 
 62 
 5 
 0 
LINE
 8 
TemplateLayer
 6 
CONTINUOUS
 10 
 17.0454570509218 
 20 
 16.7213421377663 
 30 
 0 
 11 
 19.3080161450565 
 21 
 13.6363658905029 
 31 
 0 
 62 
 5 
 0 
LINE
 8 
TemplateLayer
 6 
CONTINUOUS
 10 
 19.3080161450565 
 20 
 13.6363658905029 
 30 
 0 
 11 
 20.4545480361633 
 21 
 10.845199504179 
 31 
 0 
 62 
 5 
 0 
LINE
 8 
TemplateLayer
 6 
CONTINUOUS
 10 
 20.4545480361633 
 20 
 10.845199504179 
 30 
 0 
 11 
 20.7669774988218 
 21 
 10.2272748947144 
 31 
 0 
 62 
 5 
 0 
LINE
 8 
TemplateLayer
 6 
CONTINUOUS
 10 
 20.7669774988218 
 20 
 10.2272748947144 
 30 
 0 
 11 
 22.0386040625053 
 21 
 6.81818389892578 
 31 
 0 
 62 
 5 
 0 
LINE
 8 
TemplateLayer
 6 
CONTINUOUS
 10 
 22.0386040625053 
 20 
 6.81818389892578 
 30 
 0 
 11 
 22.6524767072553 
 21 
 3.40909290313721 
 31 
 0 
 62 
 5 
 0 
LINE
 8 
TemplateLayer
 6 
CONTINUOUS
 10 
 22.6524767072553 
 20 
 3.40909290313721 
 30 
 0 
 11 
 22.7385703524718 
 21 
 1.9073486328125E-06 
 31 
 0 
 62 
 5 
 0 
LINE
 8 
TemplateLayer
 6 
CONTINUOUS
 10 
 22.7385703524718 
 20 
 1.9073486328125E-06 
 30 
 0 
 11 
 22.6524766950173 
 21 
-3.40908908843994 
 31 
 0 
 62 
 5 
 0 
LINE
 8 
TemplateLayer
 6 
CONTINUOUS
 10 
 22.6524766950173 
 20 
-3.40908908843994 
 30 
 0 
 11 
 22.0386040380294 
 21 
-6.81818008422852 
 31 
 0 
 62 
 5 
 0 
LINE
 8 
TemplateLayer
 6 
CONTINUOUS
 10 
 22.0386040380294 
 20 
-6.81818008422852 
 30 
 0 
 11 
 20.766977462108 
 21 
-10.2272710800171 
 31 
 0 
 62 
 5 
 0 
LINE
 8 
TemplateLayer
 6 
CONTINUOUS
 10 
 20.766977462108 
 20 
-10.2272710800171 
 30 
 0 
 11 
 20.4545479972313 
 21 
-10.8451956894818 
 31 
 0 
 62 
 5 
 0 
LINE
 8 
TemplateLayer
 6 
CONTINUOUS
 10 
 20.4545479972313 
 20 
-10.8451956894818 
 30 
 0 
 11 
 19.3080160961048 
 21 
-13.6363620758057 
 31 
 0 
 62 
 5 
 0 
LINE
 8 
TemplateLayer
 6 
CONTINUOUS
 10 
 19.3080160961048 
 20 
-13.6363620758057 
 30 
 0 
 11 
 17.0454569908957 
 21 
-16.721338323069 
 31 
 0 
 62 
 5 
 0 
LINE
 8 
TemplateLayer
 6 
CONTINUOUS
 10 
 17.0454569908957 
 20 
-16.721338323069 
 30 
 0 
 11 
 16.8702074789963 
 21 
-17.0454530715942 
 31 
 0 
 62 
 5 
 0 
LINE
 8 
TemplateLayer
 6 
CONTINUOUS
 10 
 16.8702074789963 
 20 
-17.0454530715942 
 30 
 0 
 11 
 15.5724608500813 
 21 
-20.4545440673828 
 31 
 0 
 62 
 5 
 0 
LINE
 8 
TemplateLayer
 6 
CONTINUOUS
 10 
 15.5724608500813 
 20 
-20.4545440673828 
 30 
 0 
 11 
 13.6363659831069 
 21 
-23.4071017884737 
 31 
 0 
 62 
 5 
 0 
LINE
 8 
TemplateLayer
 6 
CONTINUOUS
 10 
 13.6363659831069 
 20 
-23.4071017884737 
 30 
 0 
 11 
 13.2743253847087 
 21 
-23.8636350631714 
 31 
 0 
 62 
 5 
 0 
LINE
 8 
TemplateLayer
 6 
CONTINUOUS
 10 
 13.2743253847087 
 20 
-23.8636350631714 
 30 
 0 
 11 
 10.2272749812732 
 21 
-26.7750226860121 
 31 
 0 
 62 
 5 
 0 
LINE
 8 
TemplateLayer
 6 
CONTINUOUS
 10 
 10.2272749812732 
 20 
-26.7750226860121 
 30 
 0 
 11 
 8.81017028452075 
 21 
-27.27272605896 
 31 
 0 
 62 
 5 
 0 
LINE
 8 
TemplateLayer
 6 
CONTINUOUS
 10 
 8.81017028452075 
 20 
-27.27272605896 
 30 
 0 
 11 
 6.81818398321096 
 21 
-28.0417697550938 
 31 
 0 
 62 
 5 
 0 
LINE
 8 
TemplateLayer
 6 
CONTINUOUS
 10 
 6.81818398321096 
 20 
-28.0417697550938 
 30 
 0 
 11 
 3.40909298594714 
 21 
-28.8636765693906 
 31 
 0 
 62 
 5 
 0 
LINE
 8 
TemplateLayer
 6 
CONTINUOUS
 10 
 3.40909298594714 
 20 
-28.8636765693906 
 30 
 0 
 11 
 1.98966415244223E-06 
 21 
-29.1391340334048 
 31 
 0 
 62 
 5 
 0 
LINE
 8 
TemplateLayer
 6 
CONTINUOUS
 10 
 1.98966415244223E-06 
 20 
-29.1391340334048 
 30 
 0 
 11 
-3.40908900299545 
 21 
-27.3958728528986 
 31 
 0 
 62 
 5 
 0 
LINE
 8 
TemplateLayer
 6 
CONTINUOUS
 10 
-3.40908900299545 
 20 
-27.3958728528986 
 30 
 0 
 11 
-3.56568393786597 
 21 
-27.27272605896 
 31 
 0 
 62 
 5 
 0 
LINE
 8 
TemplateLayer
 6 
CONTINUOUS
 10 
-3.56568393786597 
 20 
-27.27272605896 
 30 
 0 
 11 
-6.71746825941547 
 21 
-23.8636350631714 
 31 
 0 
 62 
 5 
 0 
LINE
 8 
TemplateLayer
 6 
CONTINUOUS
 10 
-6.71746825941547 
 20 
-23.8636350631714 
 30 
 0 
 11 
-6.81817999215356 
 21 
-23.7018110556676 
 31 
 0 
 62 
 5 
 0 
LINE
 8 
TemplateLayer
 6 
CONTINUOUS
 10 
-6.81817999215356 
 20 
-23.7018110556676 
 30 
 0 
 11 
-8.78082522022 
 21 
-20.4545440673828 
 31 
 0 
 62 
 5 
 0 
LINE
 8 
TemplateLayer
 6 
CONTINUOUS
 10 
-8.78082522022 
 20 
-20.4545440673828 
 30 
 0 
 11 
-10.2272709763436 
 21 
-17.239879289955 
 31 
 0 
 62 
 5 
 0 
LINE
 8 
TemplateLayer
 6 
CONTINUOUS
 10 
-10.2272709763436 
 20 
-17.239879289955 
 30 
 0 
 11 
-10.3456629679437 
 21 
-17.0454530715942 
 31 
 0 
 62 
 5 
 0 
LINE
 8 
TemplateLayer
 6 
CONTINUOUS
 10 
-10.3456629679437 
 20 
-17.0454530715942 
 30 
 0 
 11 
-11.3175963571002 
 21 
-13.6363620758057 
 31 
 0 
 62 
 5 
 0 
LINE
 8 
TemplateLayer
 6 
CONTINUOUS
 10 
-11.3175963571002 
 20 
-13.6363620758057 
 30 
 0 
 11 
-11.3465892812838 
 21 
-10.2272710800171 
 31 
 0 
 62 
 5 
 0 
LINE
 8 
TemplateLayer
 6 
CONTINUOUS
 10 
-11.3465892812838 
 20 
-10.2272710800171 
 30 
 0 
 11 
-13.6363619547848 
 21 
-7.57502466333051 
 31 
 0 
 62 
 5 
 0 
LINE
 8 
TemplateLayer
 6 
CONTINUOUS
 10 
-13.6363619547848 
 20 
-7.57502466333051 
 30 
 0 
 11 
-14.1375707333275 
 21 
-6.81818008422852 
 31 
 0 
 62 
 5 
 0 
LINE
 8 
TemplateLayer
 6 
CONTINUOUS
 10 
-14.1375707333275 
 20 
-6.81818008422852 
 30 
 0 
 11 
-15.8102273092366 
 21 
-3.40908908843994 
 31 
 0 
 62 
 5 
 0 
LINE
 8 
TemplateLayer
 6 
CONTINUOUS
 10 
-15.8102273092366 
 20 
-3.40908908843994 
 30 
 0 
 11 
-16.387829679571 
 21 
 1.9073486328125E-06 
 31 
 0 
 62 
 5 
 0 
LINE
 8 
TemplateLayer
 6 
CONTINUOUS
 10 
-16.387829679571 
 20 
 1.9073486328125E-06 
 30 
 0 
 11 
-15.8102272969987 
 21 
 3.40909290313721 
 31 
 0 
 62 
 5 
 0 
LINE
 8 
TemplateLayer
 6 
CONTINUOUS
 10 
-15.8102272969987 
 20 
 3.40909290313721 
 30 
 0 
 11 
-14.1375707088516 
 21 
 6.81818389892578 
 31 
 0 
 62 
 5 
 0 
LINE
 8 
TemplateLayer
 6 
CONTINUOUS
 10 
-14.1375707088516 
 20 
 6.81818389892578 
 30 
 0 
 11 
-13.636361927592 
 21 
 7.57502847802778 
 31 
 0 
 62 
 5 
 0 
LINE
 8 
TemplateLayer
 6 
CONTINUOUS
 10 
-13.636361927592 
 20 
 7.57502847802778 
 30 
 0 
 11 
-11.34658924457 
 21 
 10.2272748947144 
 31 
 0 
 62 
 5 
 0 
LINE
 8 
TemplateLayer
 6 
CONTINUOUS
 10 
-11.34658924457 
 20 
 10.2272748947144 
 30 
 0 
 11 
-11.3175963081485 
 21 
 13.6363658905029 
 31 
 0 
 62 
 5 
 0 
LINE
 8 
TemplateLayer
 6 
CONTINUOUS
 10 
-11.3175963081485 
 20 
 13.6363658905029 
 30 
 0 
 11 
-10.3456629067541 
 21 
 17.0454568862915 
 31 
 0 
 62 
 5 
 0 
LINE
 8 
TemplateLayer
 6 
CONTINUOUS
 10 
-10.3456629067541 
 20 
 17.0454568862915 
 30 
 0 
 11 
-10.227270914456 
 21 
 17.2398831046523 
 31 
 0 
 62 
 5 
 0 
LINE
 8 
TemplateLayer
 6 
CONTINUOUS
 10 
-10.227270914456 
 20 
 17.2398831046523 
 30 
 0 
 11 
-8.7808251467924 
 21 
 20.4545478820801 
 31 
 0 
 62 
 5 
 0 
LINE
 8 
TemplateLayer
 6 
CONTINUOUS
 10 
-8.7808251467924 
 20 
 20.4545478820801 
 30 
 0 
 11 
-6.81817990706895 
 21 
 23.7018148703649 
 31 
 0 
 62 
 5 
 0 
LINE
 8 
TemplateLayer
 6 
CONTINUOUS
 10 
-6.81817990706895 
 20 
 23.7018148703649 
 30 
 0 
 11 
-6.71746817374994 
 21 
 23.8636388778687 
 31 
 0 
 62 
 5 
 0 
LINE
 8 
TemplateLayer
 6 
CONTINUOUS
 10 
-6.71746817374994 
 20 
 23.8636388778687 
 30 
 0 
 11 
-3.56568383996251 
 21 
 27.2727298736572 
 31 
 0 
 62 
 5 
 0 
LINE
 8 
TemplateLayer
 6 
CONTINUOUS
 10 
-3.56568383996251 
 20 
 27.2727298736572 
 30 
 0 
 11 
-3.40908890464991 
 21 
 27.3958766675959 
 31 
 0 
 62 
 5 
 0 
LINE
 8 
TemplateLayer
 6 
CONTINUOUS
 10 
 2.08604814607577E-06 
 20 
 24.559772721274 
 30 
 0 
 11 
 3.40909308079834 
 21 
 23.9812542292495 
 31 
 0 
 62 
 6 
 0 
LINE
 8 
TemplateLayer
 6 
CONTINUOUS
 10 
 3.40909308079834 
 20 
 23.9812542292495 
 30 
 0 
 11 
 3.7411379673913 
 21 
 23.8636388778687 
 31 
 0 
 62 
 6 
 0 
LINE
 8 
TemplateLayer
 6 
CONTINUOUS
 10 
 3.7411379673913 
 20 
 23.8636388778687 
 30 
 0 
 11 
 6.81818407475726 
 21 
 22.9618887325042 
 31 
 0 
 62 
 6 
 0 
LINE
 8 
TemplateLayer
 6 
CONTINUOUS
 10 
 6.81818407475726 
 20 
 22.9618887325042 
 30 
 0 
 11 
 10.2272750663256 
 21 
 20.6106636308303 
 31 
 0 
 62 
 6 
 0 
LINE
 8 
TemplateLayer
 6 
CONTINUOUS
 10 
 10.2272750663256 
 20 
 20.6106636308303 
 30 
 0 
 11 
 10.362430523794 
 21 
 20.4545478820801 
 31 
 0 
 62 
 6 
 0 
LINE
 8 
TemplateLayer
 6 
CONTINUOUS
 10 
 10.362430523794 
 20 
 20.4545478820801 
 30 
 0 
 11 
 12.8686428778888 
 21 
 17.0454568862915 
 31 
 0 
 62 
 6 
 0 
LINE
 8 
TemplateLayer
 6 
CONTINUOUS
 10 
 12.8686428778888 
 20 
 17.0454568862915 
 30 
 0 
 11 
 13.6363660528944 
 21 
 15.4740115812706 
 31 
 0 
 62 
 6 
 0 
LINE
 8 
TemplateLayer
 6 
CONTINUOUS
 10 
 13.6363660528944 
 20 
 15.4740115812706 
 30 
 0 
 11 
 14.7078934840036 
 21 
 13.6363658905029 
 31 
 0 
 62 
 6 
 0 
LINE
 8 
TemplateLayer
 6 
CONTINUOUS
 10 
 14.7078934840036 
 20 
 13.6363658905029 
 30 
 0 
 11 
 16.7662490952474 
 21 
 10.2272748947144 
 31 
 0 
 62 
 6 
 0 
LINE
 8 
TemplateLayer
 6 
CONTINUOUS
 10 
 16.7662490952474 
 20 
 10.2272748947144 
 30 
 0 
 11 
 17.0454570378475 
 21 
 9.43718205443373 
 31 
 0 
 62 
 6 
 0 
LINE
 8 
TemplateLayer
 6 
CONTINUOUS
 10 
 17.0454570378475 
 20 
 9.43718205443373 
 30 
 0 
 11 
 18.2039712835189 
 21 
 6.81818389892578 
 31 
 0 
 62 
 6 
 0 
LINE
 8 
TemplateLayer
 6 
CONTINUOUS
 10 
 18.2039712835189 
 20 
 6.81818389892578 
 30 
 0 
 11 
 19.079128219615 
 21 
 3.40909290313721 
 31 
 0 
 62 
 6 
 0 
LINE
 8 
TemplateLayer
 6 
CONTINUOUS
 10 
 19.079128219615 
 20 
 3.40909290313721 
 30 
 0 
 11 
 19.2520450735923 
 21 
 1.9073486328125E-06 
 31 
 0 
 62 
 6 
 0 
LINE
 8 
TemplateLayer
 6 
CONTINUOUS
 10 
 19.2520450735923 
 20 
 1.9073486328125E-06 
 30 
 0 
 11 
 19.079128207377 
 21 
-3.40908908843994 
 31 
 0 
 62 
 6 
 0 
LINE
 8 
TemplateLayer
 6 
CONTINUOUS
 10 
 19.079128207377 
 20 
-3.40908908843994 
 30 
 0 
 11 
 18.2039712590431 
 21 
-6.81818008422852 
 31 
 0 
 62 
 6 
 0 
LINE
 8 
TemplateLayer
 6 
CONTINUOUS
 10 
 18.2039712590431 
 20 
-6.81818008422852 
 30 
 0 
 11 
 17.04545700397 
 21 
-9.43717823973647 
 31 
 0 
 62 
 6 
 0 
LINE
 8 
TemplateLayer
 6 
CONTINUOUS
 10 
 17.04545700397 
 20 
-9.43717823973647 
 30 
 0 
 11 
 16.7662490585336 
 21 
-10.2272710800171 
 31 
 0 
 62 
 6 
 0 
LINE
 8 
TemplateLayer
 6 
CONTINUOUS
 10 
 16.7662490585336 
 20 
-10.2272710800171 
 30 
 0 
 11 
 14.7078934350518 
 21 
-13.6363620758057 
 31 
 0 
 62 
 6 
 0 
LINE
 8 
TemplateLayer
 6 
CONTINUOUS
 10 
 14.7078934350518 
 20 
-13.6363620758057 
 30 
 0 
 11 
 13.6363659973459 
 21 
-15.4740077665733 
 31 
 0 
 62 
 6 
 0 
LINE
 8 
TemplateLayer
 6 
CONTINUOUS
 10 
 13.6363659973459 
 20 
-15.4740077665733 
 30 
 0 
 11 
 12.8686428166991 
 21 
-17.0454530715942 
 31 
 0 
 62 
 6 
 0 
LINE
 8 
TemplateLayer
 6 
CONTINUOUS
 10 
 12.8686428166991 
 20 
-17.0454530715942 
 30 
 0 
 11 
 10.3624304503664 
 21 
-20.4545440673828 
 31 
 0 
 62 
 6 
 0 
LINE
 8 
TemplateLayer
 6 
CONTINUOUS
 10 
 10.3624304503664 
 20 
-20.4545440673828 
 30 
 0 
 11 
 10.2272749923376 
 21 
-20.610659816133 
 31 
 0 
 62 
 6 
 0 
LINE
 8 
TemplateLayer
 6 
CONTINUOUS
 10 
 10.2272749923376 
 20 
-20.610659816133 
 30 
 0 
 11 
 6.81818399232883 
 21 
-22.961884917807 
 31 
 0 
 62 
 6 
 0 
LINE
 8 
TemplateLayer
 6 
CONTINUOUS
 10 
 6.81818399232883 
 20 
-22.961884917807 
 30 
 0 
 11 
 3.74113788172577 
 21 
-23.8636350631714 
 31 
 0 
 62 
 6 
 0 
LINE
 8 
TemplateLayer
 6 
CONTINUOUS
 10 
 3.74113788172577 
 20 
-23.8636350631714 
 30 
 0 
 11 
 3.4090929947106 
 21 
-23.9812504145522 
 31 
 0 
 62 
 6 
 0 
LINE
 8 
TemplateLayer
 6 
CONTINUOUS
 10 
 3.4090929947106 
 20 
-23.9812504145522 
 30 
 0 
 11 
 1.99788364006054E-06 
 21 
-24.5597689065768 
 31 
 0 
 62 
 6 
 0 
LINE
 8 
TemplateLayer
 6 
CONTINUOUS
 10 
 1.99788364006054E-06 
 20 
-24.5597689065768 
 30 
 0 
 11 
-1.00229124959626 
 21 
-23.8636350631714 
 31 
 0 
 62 
 6 
 0 
LINE
 8 
TemplateLayer
 6 
CONTINUOUS
 10 
-1.00229124959626 
 20 
-23.8636350631714 
 30 
 0 
 11 
-3.40908899328461 
 21 
-21.9856252031141 
 31 
 0 
 62 
 6 
 0 
LINE
 8 
TemplateLayer
 6 
CONTINUOUS
 10 
-3.40908899328461 
 20 
-21.9856252031141 
 30 
 0 
 11 
-4.57771969118084 
 21 
-20.4545440673828 
 31 
 0 
 62 
 6 
 0 
LINE
 8 
TemplateLayer
 6 
CONTINUOUS
 10 
-4.57771969118084 
 20 
-20.4545440673828 
 30 
 0 
 11 
-6.16332149774707 
 21 
-17.0454530715942 
 31 
 0 
 62 
 6 
 0 
LINE
 8 
TemplateLayer
 6 
CONTINUOUS
 10 
-6.16332149774707 
 20 
-17.0454530715942 
 30 
 0 
 11 
-6.81817997589763 
 21 
-14.6450622548125 
 31 
 0 
 62 
 6 
 0 
LINE
 8 
TemplateLayer
 6 
CONTINUOUS
 10 
-6.81817997589763 
 20 
-14.6450622548125 
 30 
 0 
 11 
-7.285478889663 
 21 
-13.6363620758057 
 31 
 0 
 62 
 6 
 0 
LINE
 8 
TemplateLayer
 6 
CONTINUOUS
 10 
-7.285478889663 
 20 
-13.6363620758057 
 30 
 0 
 11 
-8.07946519180962 
 21 
-10.2272710800171 
 31 
 0 
 62 
 6 
 0 
LINE
 8 
TemplateLayer
 6 
CONTINUOUS
 10 
-8.07946519180962 
 20 
-10.2272710800171 
 30 
 0 
 11 
-8.94269719985924 
 21 
-6.81818008422852 
 31 
 0 
 62 
 6 
 0 
LINE
 8 
TemplateLayer
 6 
CONTINUOUS
 10 
-8.94269719985924 
 20 
-6.81818008422852 
 30 
 0 
 11 
-10.2272709547862 
 21 
-5.22947754991793 
 31 
 0 
 62 
 6 
 0 
LINE
 8 
TemplateLayer
 6 
CONTINUOUS
 10 
-10.2272709547862 
 20 
-5.22947754991793 
 30 
 0 
 11 
-11.4702864156784 
 21 
-3.40908908843994 
 31 
 0 
 62 
 6 
 0 
LINE
 8 
TemplateLayer
 6 
CONTINUOUS
 10 
-11.4702864156784 
 20 
-3.40908908843994 
 30 
 0 
 11 
-12.1870663525372 
 21 
 1.9073486328125E-06 
 31 
 0 
 62 
 6 
 0 
LINE
 8 
TemplateLayer
 6 
CONTINUOUS
 10 
-12.1870663525372 
 20 
 1.9073486328125E-06 
 30 
 0 
 11 
-11.4702864034404 
 21 
 3.40909290313721 
 31 
 0 
 62 
 6 
 0 
LINE
 8 
TemplateLayer
 6 
CONTINUOUS
 10 
-11.4702864034404 
 20 
 3.40909290313721 
 30 
 0 
 11 
-10.2272709360135 
 21 
 5.2294813646152 
 31 
 0 
 62 
 6 
 0 
LINE
 8 
TemplateLayer
 6 
CONTINUOUS
 10 
-10.2272709360135 
 20 
 5.2294813646152 
 30 
 0 
 11 
-8.94269717538338 
 21 
 6.81818389892578 
 31 
 0 
 62 
 6 
 0 
LINE
 8 
TemplateLayer
 6 
CONTINUOUS
 10 
-8.94269717538338 
 20 
 6.81818389892578 
 30 
 0 
 11 
-8.07946515509583 
 21 
 10.2272748947144 
 31 
 0 
 62 
 6 
 0 
LINE
 8 
TemplateLayer
 6 
CONTINUOUS
 10 
-8.07946515509583 
 20 
 10.2272748947144 
 30 
 0 
 11 
-7.28547884071127 
 21 
 13.6363658905029 
 31 
 0 
 62 
 6 
 0 
LINE
 8 
TemplateLayer
 6 
CONTINUOUS
 10 
-7.28547884071127 
 20 
 13.6363658905029 
 30 
 0 
 11 
-6.81817992332488 
 21 
 14.6450660695098 
 31 
 0 
 62 
 6 
 0 
LINE
 8 
TemplateLayer
 6 
CONTINUOUS
 10 
-6.81817992332488 
 20 
 14.6450660695098 
 30 
 0 
 11 
-6.1633214365574 
 21 
 17.0454568862915 
 31 
 0 
 62 
 6 
 0 
LINE
 8 
TemplateLayer
 6 
CONTINUOUS
 10 
-6.1633214365574 
 20 
 17.0454568862915 
 30 
 0 
 11 
-4.57748933058418 
 21 
 20.4545478820801 
 31 
 0 
 62 
 6 
 0 
LINE
 8 
TemplateLayer
 6 
CONTINUOUS
 10 
-4.57748933058418 
 20 
 20.4545478820801 
 30 
 0 
 11 
-3.4090889143612 
 21 
 21.9853761083267 
 31 
 0 
 62 
 6 
 0 
LINE
 8 
TemplateLayer
 6 
CONTINUOUS
 10 
-3.4090889143612 
 20 
 21.9853761083267 
 30 
 0 
 11 
-1.00229116393073 
 21 
 23.8636388778687 
 31 
 0 
 62 
 6 
 0 
LINE
 8 
TemplateLayer
 6 
CONTINUOUS
 10 
-1.00229116393073 
 20 
 23.8636388778687 
 30 
 0 
 11 
 2.08604814607577E-06 
 21 
 24.559772721274 
 31 
 0 
 62 
 6 
 0 
LINE
 8 
TemplateLayer
 6 
CONTINUOUS
 10 
 2.07235385406984E-06 
 20 
 16.9302018596651 
 30 
 0 
 11 
 3.40909306748913 
 21 
 16.566224115867 
 31 
 0 
 62 
 214 
 0 
LINE
 8 
TemplateLayer
 6 
CONTINUOUS
 10 
 3.40909306748913 
 20 
 16.566224115867 
 30 
 0 
 11 
 6.81818406096679 
 21 
 15.2787364719178 
 31 
 0 
 62 
 214 
 0 
LINE
 8 
TemplateLayer
 6 
CONTINUOUS
 10 
 6.81818406096679 
 20 
 15.2787364719178 
 30 
 0 
 11 
 8.35909426248467 
 21 
 13.6363658905029 
 31 
 0 
 62 
 214 
 0 
LINE
 8 
TemplateLayer
 6 
CONTINUOUS
 10 
 8.35909426248467 
 20 
 13.6363658905029 
 30 
 0 
 11 
 10.2272750499396 
 21 
 11.4814391188148 
 31 
 0 
 62 
 214 
 0 
LINE
 8 
TemplateLayer
 6 
CONTINUOUS
 10 
 10.2272750499396 
 20 
 11.4814391188148 
 30 
 0 
 11 
 11.1510496631845 
 21 
 10.2272748947144 
 31 
 0 
 62 
 214 
 0 
LINE
 8 
TemplateLayer
 6 
CONTINUOUS
 10 
 11.1510496631845 
 20 
 10.2272748947144 
 30 
 0 
 11 
 12.9266161084307 
 21 
 6.81818389892578 
 31 
 0 
 62 
 214 
 0 
LINE
 8 
TemplateLayer
 6 
CONTINUOUS
 10 
 12.9266161084307 
 20 
 6.81818389892578 
 30 
 0 
 11 
 13.6363660315378 
 21 
 3.57548699116484 
 31 
 0 
 62 
 214 
 0 
LINE
 8 
TemplateLayer
 6 
CONTINUOUS
 10 
 13.6363660315378 
 20 
 3.57548699116484 
 30 
 0 
 11 
 13.6935219294547 
 21 
 3.40909290313721 
 31 
 0 
 62 
 214 
 0 
LINE
 8 
TemplateLayer
 6 
CONTINUOUS
 10 
 13.6935219294547 
 20 
 3.40909290313721 
 30 
 0 
 11 
 14.1610333486832 
 21 
 1.9073486328125E-06 
 31 
 0 
 62 
 214 
 0 
LINE
 8 
TemplateLayer
 6 
CONTINUOUS
 10 
 14.1610333486832 
 20 
 1.9073486328125E-06 
 30 
 0 
 11 
 13.6935219172168 
 21 
-3.40908908843994 
 31 
 0 
 62 
 214 
 0 
LINE
 8 
TemplateLayer
 6 
CONTINUOUS
 10 
 13.6935219172168 
 20 
-3.40908908843994 
 30 
 0 
 11 
 13.6363660187026 
 21 
-3.57548317646757 
 31 
 0 
 62 
 214 
 0 
LINE
 8 
TemplateLayer
 6 
CONTINUOUS
 10 
 13.6363660187026 
 20 
-3.57548317646757 
 30 
 0 
 11 
 12.9266160839548 
 21 
-6.81818008422852 
 31 
 0 
 62 
 214 
 0 
LINE
 8 
TemplateLayer
 6 
CONTINUOUS
 10 
 12.9266160839548 
 20 
-6.81818008422852 
 30 
 0 
 11 
 11.1510496264707 
 21 
-10.2272710800171 
 31 
 0 
 62 
 214 
 0 
LINE
 8 
TemplateLayer
 6 
CONTINUOUS
 10 
 11.1510496264707 
 20 
-10.2272710800171 
 30 
 0 
 11 
 10.2272750087236 
 21 
-11.4814353041176 
 31 
 0 
 62 
 214 
 0 
LINE
 8 
TemplateLayer
 6 
CONTINUOUS
 10 
 10.2272750087236 
 20 
-11.4814353041176 
 30 
 0 
 11 
 8.35909421353294 
 21 
-13.6363620758057 
 31 
 0 
 62 
 214 
 0 
LINE
 8 
TemplateLayer
 6 
CONTINUOUS
 10 
 8.35909421353294 
 20 
-13.6363620758057 
 30 
 0 
 11 
 6.81818400611929 
 21 
-15.2787326572205 
 31 
 0 
 62 
 214 
 0 
LINE
 8 
TemplateLayer
 6 
CONTINUOUS
 10 
 6.81818400611929 
 20 
-15.2787326572205 
 30 
 0 
 11 
 3.40909300801981 
 21 
-16.5662203011698 
 31 
 0 
 62 
 214 
 0 
LINE
 8 
TemplateLayer
 6 
CONTINUOUS
 10 
 3.40909300801981 
 20 
-16.5662203011698 
 30 
 0 
 11 
 2.01157793206647E-06 
 21 
-16.9301980449678 
 31 
 0 
 62 
 214 
 0 
LINE
 8 
TemplateLayer
 6 
CONTINUOUS
 10 
 2.01157793206647E-06 
 20 
-16.9301980449678 
 30 
 0 
 11 
-2.5809146619945 
 21 
-13.6363620758057 
 31 
 0 
 62 
 214 
 0 
LINE
 8 
TemplateLayer
 6 
CONTINUOUS
 10 
-2.5809146619945 
 20 
-13.6363620758057 
 30 
 0 
 11 
-3.40908897411436 
 21 
-11.3052048850949 
 31 
 0 
 62 
 214 
 0 
LINE
 8 
TemplateLayer
 6 
CONTINUOUS
 10 
-3.40908897411436 
 20 
-11.3052048850949 
 30 
 0 
 11 
-3.80109303870259 
 21 
-10.2272710800171 
 31 
 0 
 62 
 214 
 0 
LINE
 8 
TemplateLayer
 6 
CONTINUOUS
 10 
-3.80109303870259 
 20 
-10.2272710800171 
 30 
 0 
 11 
-5.04224994290615 
 21 
-6.81818008422852 
 31 
 0 
 62 
 214 
 0 
LINE
 8 
TemplateLayer
 6 
CONTINUOUS
 10 
-5.04224994290615 
 20 
-6.81818008422852 
 30 
 0 
 11 
-6.28733273937001 
 21 
-3.40908908843994 
 31 
 0 
 62 
 214 
 0 
LINE
 8 
TemplateLayer
 6 
CONTINUOUS
 10 
-6.28733273937001 
 20 
-3.40908908843994 
 30 
 0 
 11 
-6.68173511022798 
 21 
 1.9073486328125E-06 
 31 
 0 
 62 
 214 
 0 
LINE
 8 
TemplateLayer
 6 
CONTINUOUS
 10 
-6.68173511022798 
 20 
 1.9073486328125E-06 
 30 
 0 
 11 
-6.28733272713207 
 21 
 3.40909290313721 
 31 
 0 
 62 
 214 
 0 
LINE
 8 
TemplateLayer
 6 
CONTINUOUS
 10 
-6.28733272713207 
 20 
 3.40909290313721 
 30 
 0 
 11 
-5.04224991843028 
 21 
 6.81818389892578 
 31 
 0 
 62 
 214 
 0 
LINE
 8 
TemplateLayer
 6 
CONTINUOUS
 10 
-5.04224991843028 
 20 
 6.81818389892578 
 30 
 0 
 11 
-3.8010930019888 
 21 
 10.2272748947144 
 31 
 0 
 62 
 214 
 0 
LINE
 8 
TemplateLayer
 6 
CONTINUOUS
 10 
-3.8010930019888 
 20 
 10.2272748947144 
 30 
 0 
 11 
-3.409088933531 
 21 
 11.3052086997921 
 31 
 0 
 62 
 214 
 0 
LINE
 8 
TemplateLayer
 6 
CONTINUOUS
 10 
-3.409088933531 
 20 
 11.3052086997921 
 30 
 0 
 11 
-2.58091461304277 
 21 
 13.6363658905029 
 31 
 0 
 62 
 214 
 0 
LINE
 8 
TemplateLayer
 6 
CONTINUOUS
 10 
-2.58091461304277 
 20 
 13.6363658905029 
 30 
 0 
 11 
 2.07235385406984E-06 
 21 
 16.9302018596651 
 31 
 0 
 62 
 214 
 0 
LINE
 8 
TemplateLayer
 6 
CONTINUOUS
 10 
 2.06037200704834E-06 
 20 
 10.254694218343 
 30 
 0 
 11 
 3.40909305797073 
 21 
 11.263191882727 
 31 
 0 
 62 
 30 
 0 
LINE
 8 
TemplateLayer
 6 
CONTINUOUS
 10 
 3.40909305797073 
 20 
 11.263191882727 
 30 
 0 
 11 
 5.29555497948846 
 21 
 10.2272748947144 
 31 
 0 
 62 
 30 
 0 
LINE
 8 
TemplateLayer
 6 
CONTINUOUS
 10 
 5.29555497948846 
 20 
 10.2272748947144 
 30 
 0 
 11 
 6.81818405046562 
 21 
 9.42816682355011 
 31 
 0 
 62 
 30 
 0 
LINE
 8 
TemplateLayer
 6 
CONTINUOUS
 10 
 6.81818405046562 
 20 
 9.42816682355011 
 30 
 0 
 11 
 8.83627709569716 
 21 
 6.81818389892578 
 31 
 0 
 62 
 30 
 0 
LINE
 8 
TemplateLayer
 6 
CONTINUOUS
 10 
 8.83627709569716 
 20 
 6.81818389892578 
 30 
 0 
 11 
 9.96867807485487 
 21 
 3.40909290313721 
 31 
 0 
 62 
 30 
 0 
LINE
 8 
TemplateLayer
 6 
CONTINUOUS
 10 
 9.96867807485487 
 20 
 3.40909290313721 
 30 
 0 
 11 
 10.227275031922 
 21 
 1.4432117368695 
 31 
 0 
 62 
 30 
 0 
LINE
 8 
TemplateLayer
 6 
CONTINUOUS
 10 
 10.227275031922 
 20 
 1.4432117368695 
 30 
 0 
 11 
 10.5025112299074 
 21 
 1.9073486328125E-06 
 31 
 0 
 62 
 30 
 0 
LINE
 8 
TemplateLayer
 6 
CONTINUOUS
 10 
 10.5025112299074 
 20 
 1.9073486328125E-06 
 30 
 0 
 11 
 10.2272750267412 
 21 
-1.44320792217223 
 31 
 0 
 62 
 30 
 0 
LINE
 8 
TemplateLayer
 6 
CONTINUOUS
 10 
 10.2272750267412 
 20 
-1.44320792217223 
 30 
 0 
 11 
 9.96867806261694 
 21 
-3.40908908843994 
 31 
 0 
 62 
 30 
 0 
LINE
 8 
TemplateLayer
 6 
CONTINUOUS
 10 
 9.96867806261694 
 20 
-3.40908908843994 
 30 
 0 
 11 
 8.8362770712213 
 21 
-6.81818008422852 
 31 
 0 
 62 
 30 
 0 
LINE
 8 
TemplateLayer
 6 
CONTINUOUS
 10 
 8.8362770712213 
 20 
-6.81818008422852 
 30 
 0 
 11 
 6.81818401662046 
 21 
-9.42816300885285 
 31 
 0 
 62 
 30 
 0 
LINE
 8 
TemplateLayer
 6 
CONTINUOUS
 10 
 6.81818401662046 
 20 
-9.42816300885285 
 30 
 0 
 11 
 5.29555494277467 
 21 
-10.2272710800171 
 31 
 0 
 62 
 30 
 0 
LINE
 8 
TemplateLayer
 6 
CONTINUOUS
 10 
 5.29555494277467 
 20 
-10.2272710800171 
 30 
 0 
 11 
 3.4090930175382 
 21 
-11.2631880680297 
 31 
 0 
 62 
 30 
 0 
LINE
 8 
TemplateLayer
 6 
CONTINUOUS
 10 
 3.4090930175382 
 20 
-11.2631880680297 
 30 
 0 
 11 
 2.02355977908797E-06 
 21 
-10.2546904036457 
 31 
 0 
 62 
 30 
 0 
LINE
 8 
TemplateLayer
 6 
CONTINUOUS
 10 
 2.02355977908797E-06 
 20 
-10.2546904036457 
 30 
 0 
 11 
-0.016673495789709 
 21 
-10.2272710800171 
 31 
 0 
 62 
 30 
 0 
LINE
 8 
TemplateLayer
 6 
CONTINUOUS
 10 
-0.016673495789709 
 20 
-10.2272710800171 
 30 
 0 
 11 
-2.18723414864124 
 21 
-6.81818008422852 
 31 
 0 
 62 
 30 
 0 
LINE
 8 
TemplateLayer
 6 
CONTINUOUS
 10 
-2.18723414864124 
 20 
-6.81818008422852 
 30 
 0 
 11 
-3.3600470687666 
 21 
-3.40908908843994 
 31 
 0 
 62 
 30 
 0 
LINE
 8 
TemplateLayer
 6 
CONTINUOUS
 10 
-3.3600470687666 
 20 
-3.40908908843994 
 30 
 0 
 11 
-3.40908895947651 
 21 
-3.14994263144132 
 31 
 0 
 62 
 30 
 0 
LINE
 8 
TemplateLayer
 6 
CONTINUOUS
 10 
-3.40908895947651 
 20 
-3.14994263144132 
 30 
 0 
 11 
-4.26507124916187 
 21 
 1.9073486328125E-06 
 31 
 0 
 62 
 30 
 0 
LINE
 8 
TemplateLayer
 6 
CONTINUOUS
 10 
-4.26507124916187 
 20 
 1.9073486328125E-06 
 30 
 0 
 11 
-3.40908894816886 
 21 
 3.14994644613859 
 31 
 0 
 62 
 30 
 0 
LINE
 8 
TemplateLayer
 6 
CONTINUOUS
 10 
-3.40908894816886 
 20 
 3.14994644613859 
 30 
 0 
 11 
-3.36004705652866 
 21 
 3.40909290313721 
 31 
 0 
 62 
 30 
 0 
LINE
 8 
TemplateLayer
 6 
CONTINUOUS
 10 
-3.36004705652866 
 20 
 3.40909290313721 
 30 
 0 
 11 
-2.18723412416538 
 21 
 6.81818389892578 
 31 
 0 
 62 
 30 
 0 
LINE
 8 
TemplateLayer
 6 
CONTINUOUS
 10 
-2.18723412416538 
 20 
 6.81818389892578 
 30 
 0 
 11 
-1.66734590759107E-02 
 21 
 10.2272748947144 
 31 
 0 
 62 
 30 
 0 
LINE
 8 
TemplateLayer
 6 
CONTINUOUS
 10 
-1.66734590759107E-02 
 20 
 10.2272748947144 
 30 
 0 
 11 
 2.06037200704834E-06 
 21 
 10.254694218343 
 31 
 0 
 62 
 30 
 0 
LINE
 8 
TemplateLayer
 6 
CONTINUOUS
 10 
 3.40909304683291 
 20 
 5.05791877852346 
 30 
 0 
 11 
 4.92049776758635 
 21 
 3.40909290313721 
 31 
 0 
 62 
 94 
 0 
LINE
 8 
TemplateLayer
 6 
CONTINUOUS
 10 
 4.92049776758635 
 20 
 3.40909290313721 
 30 
 0 
 11 
 6.30222069492731 
 21 
 1.9073486328125E-06 
 31 
 0 
 62 
 94 
 0 
LINE
 8 
TemplateLayer
 6 
CONTINUOUS
 10 
 6.30222069492731 
 20 
 1.9073486328125E-06 
 30 
 0 
 11 
 4.92049775534842 
 21 
-3.40908908843994 
 31 
 0 
 62 
 94 
 0 
LINE
 8 
TemplateLayer
 6 
CONTINUOUS
 10 
 4.92049775534842 
 20 
-3.40908908843994 
 30 
 0 
 11 
 3.40909302867603 
 21 
-5.05791496382619 
 31 
 0 
 62 
 94 
 0 
LINE
 8 
TemplateLayer
 6 
CONTINUOUS
 10 
 3.40909302867603 
 20 
-5.05791496382619 
 30 
 0 
 11 
 2.27978165811545E-02 
 21 
-3.40908908843994 
 31 
 0 
 62 
 94 
 0 
LINE
 8 
TemplateLayer
 6 
CONTINUOUS
 10 
 2.27978165811545E-02 
 20 
-3.40908908843994 
 30 
 0 
 11 
 2.03590122489772E-06 
 21 
-3.37883765424174 
 31 
 0 
 62 
 94 
 0 
LINE
 8 
TemplateLayer
 6 
CONTINUOUS
 10 
 2.03590122489772E-06 
 20 
-3.37883765424174 
 30 
 0 
 11 
-0.654325258190048 
 21 
 1.9073486328125E-06 
 31 
 0 
 62 
 94 
 0 
LINE
 8 
TemplateLayer
 6 
CONTINUOUS
 10 
-0.654325258190048 
 20 
 1.9073486328125E-06 
 30 
 0 
 11 
 2.04803056124553E-06 
 21 
 3.378841468939 
 31 
 0 
 62 
 94 
 0 
LINE
 8 
TemplateLayer
 6 
CONTINUOUS
 10 
 2.04803056124553E-06 
 20 
 3.378841468939 
 30 
 0 
 11 
 2.27978288190873E-02 
 21 
 3.40909290313721 
 31 
 0 
 62 
 94 
 0 
LINE
 8 
TemplateLayer
 6 
CONTINUOUS
 10 
 2.27978288190873E-02 
 20 
 3.40909290313721 
 30 
 0 
 11 
 3.40909304683291 
 21 
 5.05791877852346 
 31 
 0 
 62 
 94 
 0 
TEXT
 8 
TemplateLayer
 10 
 3.40909311259516 
 20 
 40.7111932803177 
 30 
 0 
 40 
 1.33 
 50 
 0 
 62 
 7 
 1 
.1
 0 
TEXT
 8 
TemplateLayer
 10 
-6.8181798869774 
 20 
 33.9103368489396 
 30 
 0 
 40 
 1.33 
 50 
 0 
 62 
 1 
 1 
.2
 0 
TEXT
 8 
TemplateLayer
 10 
-3.4090888971665 
 20 
 30.5799628861637 
 30 
 0 
 40 
 1.33 
 50 
 0 
 62 
 3 
 1 
.5
 0 
TEXT
 8 
TemplateLayer
 10 
-3.40908890464991 
 20 
 26.4106914506216 
 30 
 0 
 40 
 1.33 
 50 
 0 
 62 
 5 
 1 
1
 0 
TEXT
 8 
TemplateLayer
 10 
 2.08604814607577E-06 
 20 
 23.5745875042997 
 30 
 0 
 40 
 1.33 
 50 
 0 
 62 
 6 
 1 
2
 0 
TEXT
 8 
TemplateLayer
 10 
 2.07235385406984E-06 
 20 
 15.9450166426908 
 30 
 0 
 40 
 1.33 
 50 
 0 
 62 
 214 
 1 
5
 0 
TEXT
 8 
TemplateLayer
 10 
 2.06037200704834E-06 
 20 
 9.26950900136868 
 30 
 0 
 40 
 1.33 
 50 
 0 
 62 
 30 
 1 
10
 0 
TEXT
 8 
TemplateLayer
 10 
 3.40909304683291 
 20 
 4.07273356154913 
 30 
 0 
 40 
 1.33 
 50 
 0 
 62 
 94 
 1 
20
 0 
LINE
 8 
TemplateLayer
 6 
CONTINUOUS
 10 
 0 
 20 
 0 
 30 
 0 
 11 
 2 
 21 
 0 
 31 
 0 
 62 
 0 
 0 
LINE
 8 
TemplateLayer
 6 
CONTINUOUS
 10 
 2 
 20 
 0 
 30 
 0 
 11 
 1 
 21 
 0.5 
 31 
 0 
 62 
 0 
 0 
LINE
 8 
TemplateLayer
 6 
CONTINUOUS
 10 
 1 
 20 
 0.5 
 30 
 0 
 11 
 1 
 21 
-0.5 
 31 
 0 
 62 
 0 
 0 
LINE
 8 
TemplateLayer
 6 
CONTINUOUS
 10 
 1 
 20 
-0.5 
 30 
 0 
 11 
 2 
 21 
 0 
 31 
 0 
 62 
 0 
 0 
LINE
 8 
TemplateLayer
 6 
CONTINUOUS
 10 
-0.100000001490116 
 20 
 0.100000001490116 
 30 
 0 
 11 
 0.100000001490116 
 21 
 0.100000001490116 
 31 
 0 
 62 
 0 
 0 
LINE
 8 
TemplateLayer
 6 
CONTINUOUS
 10 
 0.100000001490116 
 20 
 0.100000001490116 
 30 
 0 
 11 
 0.100000001490116 
 21 
-0.100000001490116 
 31 
 0 
 62 
 0 
 0 
LINE
 8 
TemplateLayer
 6 
CONTINUOUS
 10 
 0.100000001490116 
 20 
-0.100000001490116 
 30 
 0 
 11 
-0.100000001490116 
 21 
-0.100000001490116 
 31 
 0 
 62 
 0 
 0 
LINE
 8 
TemplateLayer
 6 
CONTINUOUS
 10 
-0.100000001490116 
 20 
-0.100000001490116 
 30 
 0 
 11 
-0.100000001490116 
 21 
 0.100000001490116 
 31 
 0 
 62 
 0 
 0 
LINE
 8 
TemplateLayer
 6 
CONTINUOUS
 10 
 0 
 20 
 0 
 30 
 0 
 11 
 0 
 21 
 0 
 31 
 0 
 62 
 0 
 0 
ENDBLK
 0 
ENDSEC
 0 
SECTION
 2 
ENTITIES
 0 
INSERT
 2 
Template
 6 
CONTINUOUS
 8 
TemplateLayer
 10 
 0 
 20 
 0 
 30 
 0 
 41 
 1 
 42 
 1 
 43 
 1 
 50 
 0 
 0 
ENDSEC
 0 
EOF
